<svg xmlns="http://www.w3.org/2000/svg" width="18" height="18" viewBox="0 0 18 18"><g fill="#FFF" fill-rule="evenodd"><path d="M.352 6.5H4.91c-.072.802-.11 1.639-.11 2.5s.038 1.698.11 2.5H.35C.124 10.706 0 9.867 0 9s.123-1.706.352-2.5z"/><path d="M.936 5C2.054 2.749 4.088 1.033 6.55.338 5.883 1.482 5.382 3.1 5.09 5H.936z" opacity=".59"/><path d="M17.648 6.5c.23.794.352 1.633.352 2.5s-.123 1.706-.352 2.5H13.09c.072-.802.11-1.639.11-2.5s-.038-1.698-.11-2.5h4.56z"/><path d="M17.064 5H12.91c-.291-1.899-.792-3.518-1.459-4.662 2.462.695 4.496 2.41 5.614 4.662z" opacity=".59"/><path d="M6.423 6.5h5.154c.078.793.121 1.632.121 2.5 0 .868-.043 1.707-.121 2.5H6.423c-.078-.793-.121-1.632-.121-2.5 0-.868.043-1.707.121-2.5z"/><path d="M6.62 5C7.113 2.048 8.093.028 9 .028c.908 0 1.888 2.02 2.38 4.972H6.62zM.936 13H5.09c.291 1.899.792 3.518 1.459 4.662C4.088 16.967 2.054 15.252.936 13zM17.064 13c-1.118 2.251-3.152 3.967-5.614 4.662.667-1.144 1.168-2.763 1.459-4.662h4.155zM6.62 13h4.76c-.492 2.952-1.472 4.972-2.38 4.972-.908 0-1.888-2.02-2.38-4.972z" opacity=".59"/></g></svg>