<svg xmlns="http://www.w3.org/2000/svg" width="16" height="15" fill="none" viewBox="0 0 16 15"><path fill="#3E464C" fill-rule="evenodd" d="M12.1695 9.61248L15.6342 6.26654C15.7996 6.10271 15.8824 5.95148 15.8824 5.81285C15.8824 5.57971 15.7042 5.43478 15.3479 5.37807L10.5564 4.68809L8.40887 0.387524C8.28797 0.129175 8.13207 0 7.94118 0C7.75028 0 7.59439 0.129175 7.47349 0.387524L5.32593 4.68809L0.534502 5.37807C0.178167 5.43478 0 5.57971 0 5.81285C0 5.94518 0.079539 6.09641 0.238617 6.26654L3.71288 9.61248L2.89204 14.3384C2.87931 14.4266 2.87295 14.4896 2.87295 14.5274C2.87295 14.6597 2.90636 14.7716 2.97317 14.8629C3.03998 14.9543 3.1402 15 3.27383 15C3.38836 15 3.51562 14.9622 3.65561 14.8866L7.94118 12.656L11.4997 14.5082L12.2267 14.8866C12.3604 14.9622 12.4876 15 12.6085 15C12.7358 15 12.8328 14.9543 12.8996 14.8629C12.9665 14.7716 12.9999 14.6597 12.9999 14.5274C12.9999 14.4455 12.9967 14.3825 12.9903 14.3384L12.1695 9.61248ZM11.1742 12.6477L10.5555 9.08581L13.1529 6.57747L9.5653 6.06084L7.94118 2.80847L6.31706 6.06084L2.72458 6.57817L5.32704 9.08451L4.70815 12.6477L7.94118 10.9649L11.1742 12.6477Z" clip-rule="evenodd"/></svg>