<svg xmlns="http://www.w3.org/2000/svg" width="16" height="16" viewBox="0 0 16 16"><g fill="none"><path fill="#30313B" d="M8 0C3.606 0 0 3.606 0 8c0 3.75 2.631 7.156 6.125 8v-2.647c-.346.076-.665.078-1.017-.026-.473-.14-.857-.454-1.142-.934-.182-.307-.504-.64-.84-.615l-.083-.934c.727-.062 1.356.443 1.729 1.07.166.279.356.442.601.514.237.07.491.037.787-.068.075-.593.346-.815.551-1.127-2.083-.312-2.914-1.417-3.243-2.29-.437-1.158-.203-2.606.57-3.52.015-.018.042-.065.031-.097-.354-1.07.078-1.955.093-2.049.41.121.476-.121 1.776.669l.224.135c.094.056.065.024.159.017.543-.148 1.115-.23 1.679-.237.568.008 1.137.09 1.702.243l.073.007c-.007-.001.02-.005.063-.03 1.624-.985 1.566-.663 2.002-.805.015.094.441.994.09 2.05-.046.145 1.409 1.478.602 3.617-.33.873-1.16 1.978-3.243 2.29.267.407.588.623.586 1.463V16C13.369 15.156 16 11.75 16 8c0-4.394-3.606-8-8-8z"/></g></svg>