<svg xmlns="http://www.w3.org/2000/svg" width="169" height="38" viewBox="0 0 169 38"><g fill="#FFF" fill-rule="evenodd"><path d="M27.901 29.942L19.814 25.229 19.814 34.655zM27.901 6.991L19.814 2.278 19.814 11.704zM15.823 0L0 9.222 0 27.712 15.823 36.933 15.823 22.904 8.21 18.466 15.823 14.029zM15.878 18.467L31.678 27.674 31.678 9.259z" transform="translate(0 .25)"/><g><path d="M86.061.29h-1.53c-.335 0-.613.282-.613.619V8.1H78.99V.909c0-.337-.25-.618-.612-.618h-1.53c-.335 0-.614.281-.614.618V18.16c0 .338.279.619.613.619h1.531c.362 0 .612-.281.612-.619v-7.278h4.927v7.278c0 .338.278.619.613.619h1.53c.362 0 .612-.281.612-.619V.91c0-.337-.25-.618-.612-.618M49.15 16.615c0-.337-.279-.618-.613-.618h-6.912v-5.072h6.912c.334 0 .612-.252.612-.618V8.762c0-.337-.278-.618-.612-.618h-6.912V3.072h6.912c.334 0 .612-.253.612-.618V.91c0-.337-.278-.618-.612-.618h-9.055c-.335 0-.613.28-.613.618V18.16c0 .338.278.619.613.619h9.055c.334 0 .613-.253.613-.619v-1.545zM99.789 16.615c0-.337-.279-.618-.613-.618h-6.912v-5.072h6.912c.334 0 .612-.252.612-.618V8.762c0-.337-.278-.618-.612-.618h-6.912V3.072h6.912c.334 0 .612-.253.612-.618V.91c0-.337-.278-.618-.612-.618h-7.523-1.532c-.335 0-.613.28-.613.618V18.16c0 .338.278.619.613.619h9.055c.334 0 .613-.253.613-.619v-1.545zM125.876 16.615c0-.337-.278-.618-.612-.618h-6.913v-5.072h6.913c.334 0 .612-.252.612-.618V8.762c0-.337-.279-.618-.612-.618h-6.913V3.072h6.913c.333 0 .612-.253.612-.618V.91c0-.337-.279-.618-.612-.618h-7.524-1.531c-.335 0-.613.28-.613.618V18.16c0 .338.278.619.612.619H125.264c.334 0 .612-.253.612-.619v-1.545zM54.151 4.942v1.055c0 .806.77 1.278 1.651 1.639l3.659 1.555c1.375.611 2.338 1.694 2.338 3.36v1.971c0 1.639-3.412 4.388-5.227 4.388-1.238 0-3.108-.889-4.566-1.694-.33-.166-.55-.556-.358-1l.468-.944c.192-.389.605-.472.963-.278 1.182.611 2.75 1.361 3.493 1.361.825 0 2.559-1.416 2.559-2.221v-1.222c0-.944-.716-1.472-1.706-1.86l-3.411-1.445c-1.32-.555-2.531-1.693-2.531-3.248V4.554c0-1.806 3.603-4.416 5.337-4.416 1.155 0 3.026.861 4.264 1.528.385.194.495.639.33.971l-.44.945c-.138.333-.578.444-.963.277-.935-.444-2.503-1.166-3.191-1.166-.798 0-2.669 1.333-2.669 2.25M107.876 2.707h-2.7V8.89h2.727c1.142 0 2.478-2.051 2.478-3.147 0-1.068-1.392-3.035-2.505-3.035m-.112 8.598h-2.589v6.856c0 .365-.25.618-.64.618h-1.475c-.334 0-.64-.253-.64-.618V1.583c0-.646.752-1.292 1.364-1.292h4.454c2.031 0 4.727 3.198 4.727 5.305 0 1.405-1.22 3.517-2.528 4.332 1.057.562 2.504 2.051 2.504 3.428v4.805c0 .337-.277.618-.612.618h-1.53c-.335 0-.613-.281-.613-.618v-4.384c0-.983-1.364-2.472-2.422-2.472M69.405 2.707h-2.7V8.89h2.728c1.141 0 2.318-2.051 2.318-3.147 0-1.068-1.233-3.035-2.346-3.035m-.111 8.598h-2.589v6.856c0 .365-.25.618-.64.618h-1.476c-.334 0-.64-.253-.64-.618V1.583c0-.646.752-1.292 1.364-1.292h4.454c2.032 0 4.604 3.298 4.604 5.405 0 1.405-1.031 3.295-2.222 4.388-.586.537-1.516 1.22-2.855 1.22M18.008 18.942c-1.832 0-5.261-2.34-5.261-4.36V1.028c0-.337.304-.615.639-.615h1.469c.359 0 .636.278.636.615v13.191c0 .982 1.657 2.172 2.517 2.172.861 0 2.529-1.34 2.529-2.322V.878c0-.337.25-.615.585-.615h1.523c.335 0 .639.278.639.615v13.554c0 1.96-3.445 4.51-5.276 4.51M31.273 16.362h-2.606v-6.181h2.634c1.141 0 2.478 1.943 2.478 3.039 0 1.068-1.392 3.142-2.506 3.142zM28.667 2.707h2.606c1.114 0 2.506 1.61 2.506 2.677 0 1.096-1.337 2.885-2.478 2.885h-2.634V2.707zm5.293 6.519c1.268-.844 2.546-2.482 2.546-3.842 0-2.107-2.839-5.093-4.87-5.093h-4.36c-.613 0-1.364.646-1.364 1.292v16.578c0 .365.306.618.64.618h5.177c2.032 0 4.777-3.452 4.777-5.56 0-1.359-1.278-3.14-2.546-3.993zM4.236 9.637l6.06-7.084c.218-.256.21-.633-.063-.872L9.074.67C8.821.451 8.428.48 8.21.735l-5.3 6.194V.91c0-.337-.25-.618-.611-.618H.767C.433.29.155.57.155.909v17.252c0 .337.278.618.612.618H2.3c.361 0 .612-.281.612-.618v-5.817L8.21 18.54c.218.255.611.284.864.063l1.159-1.01c.274-.239.281-.616.063-.871l-6.06-7.085z" transform="translate(0 .25) translate(42.955 8.954)"/></g></g></svg>