<svg xmlns="http://www.w3.org/2000/svg" width="16" height="16" viewBox="0 0 16 16"><g fill="none"><g fill="#E91E63"><path d="M2.481 3.341l.813 2.418c-1.17.377-1.975.621-2.035.615C.744 6.354.242 6.017.07 5.502c-.218-.674.139-1.4.813-1.625L2.48 3.34zM8.235 1.426l.82 2.437c-1.07.357-2.227.74-3.317 1.097l-.812-2.431 3.31-1.103zM13.976 1.294c0 .541-.337 1.043-.872 1.215l-1.612.535-.812-2.43 1.605-.536c.674-.218 1.407.139 1.625.813.046.132.066.27.066.403z" transform="translate(1.879 7.545)"/></g><path fill="#00BCD4" d="M2.477 5.265l.813 2.418c-1.17.376-1.975.62-2.035.614C.74 8.277.238 7.94.066 7.425c-.218-.674.132-1.4.813-1.625l1.598-.535zM8.225 3.35l.819 2.437c-1.064.357-2.22.74-3.31 1.097l-.812-2.432L8.225 3.35zM13.087 4.44l-1.6.534-.818-2.437 1.605-.535c.674-.218 1.407.138 1.632.812.211.674-.139 1.407-.82 1.625z"/><path fill="#689F38" d="M11.488 4.974c-.68.225-1.526.509-2.444.813l-.82-2.438 2.445-.812.819 2.437z"/><path fill="#FFC107" d="M10.669 2.537l-2.444.812-.555-1.658c-.212-.68.138-1.407.812-1.625.68-.218 1.414.139 1.632.806l.555 1.665z"/><path fill="#B71C1C" d="M13.37 10.59c-.68.23-1.525.515-2.437.819l-.82-2.438 2.445-.813.813 2.432z"/><path fill="#FFC107" d="M12.558 8.158l-2.444.813-1.07-3.184c.918-.304 1.764-.588 2.444-.813l1.07 3.184zM13.113 13.873c-.753.218-1.414-.212-1.625-.806l-.555-1.658c.912-.304 1.757-.588 2.438-.82l.555 1.659c.218.68-.133 1.407-.813 1.625z"/><path fill="#009688" d="M5.734 6.884c-.892.29-1.737.568-2.444.799l-.813-2.418 2.445-.813.812 2.432z"/><path fill="#5CCF60" d="M4.922 4.452l-2.445.813-.555-1.658c-.211-.674.14-1.407.813-1.625.68-.218 1.414.139 1.632.812l.555 1.658z"/><path fill="#880E4F" d="M7.617 12.505c-.892.29-1.731.568-2.444.8l-.813-2.418 2.444-.813.813 2.431z"/><path fill="#5CCF60" d="M6.804 10.074l-2.444.813-1.07-3.204 2.444-.8 1.07 3.191zM7.36 15.795c-.754.218-1.415-.211-1.626-.806l-.561-1.684c.713-.232 1.552-.51 2.444-.8l.555 1.665c.218.68-.132 1.407-.813 1.625z"/></g></svg>