<svg xmlns="http://www.w3.org/2000/svg" width="16" height="16" viewBox="0 0 16 16"><g fill="none"><path fill="#FFF" d="M14.605 7.46c.398 0 .73.13.996.39.267.26.4.585.399.976 0 .622-.298 1.039-.895 1.25l-1.654.568.539 1.607c.045.134.068.285.068.451 0 .379-.135.706-.404.981-.27.276-.593.414-.971.414-.301 0-.575-.087-.822-.26-.247-.173-.419-.404-.515-.693l-.53-1.587-2.98 1.02.529 1.577c.05.153.076.304.076.451 0 .379-.134.706-.403.981-.27.276-.597.414-.981.414-.302 0-.574-.087-.818-.26-.243-.173-.413-.404-.51-.693L5.2 13.48l-1.47.51c-.187.057-.347.086-.482.086-.391 0-.717-.128-.976-.384-.26-.256-.389-.58-.389-.971 0-.301.088-.574.265-.818.176-.243.406-.413.688-.51l1.5-.509-1.009-3.01-1.5.52c-.167.05-.32.076-.462.076-.385 0-.709-.13-.971-.389C.13 7.821 0 7.5 0 7.115c0-.301.088-.574.265-.817.176-.244.405-.414.688-.51l1.51-.51-.51-1.529c-.05-.153-.076-.304-.076-.451 0-.385.135-.714.404-.986.269-.273.596-.409.98-.409.302 0 .574.087.818.26.244.173.414.404.51.693l.52 1.539 2.98-1.01-.52-1.539c-.05-.153-.076-.304-.076-.451 0-.379.137-.706.41-.981C8.174.138 8.5 0 8.877 0c.301 0 .575.088.822.265.247.176.419.405.515.688l.51 1.548 1.558-.529c.134-.039.272-.058.413-.058.385 0 .714.127.986.38.273.254.409.57.409.948 0 .29-.096.55-.288.784-.192.234-.43.4-.712.495l-1.51.52 1.01 3.039 1.576-.54c.154-.05.301-.075.442-.075l-.004-.004zm-7.67 2.467L9.9 8.923 8.896 5.909 5.93 6.933l1.004 2.994z"/></g></svg>