<svg xmlns="http://www.w3.org/2000/svg" xmlns:xlink="http://www.w3.org/1999/xlink" width="40" height="40" viewBox="0 0 40 40"><defs><path id="yakiddwsaa" d="M0 0H40V40H0z"/></defs><g fill="none" fill-rule="evenodd"><g><g><g><g transform="translate(-860 -571) translate(828 539) translate(20 20) translate(12 12)"><mask id="anjbwj3q2b" fill="#fff"><use xlink:href="#yakiddwsaa"/></mask><g mask="url(#anjbwj3q2b)"><g><g><path fill="#E85454" fill-rule="nonzero" d="M5.299 4.641c-.05-.062-.144-.067-.2-.01-.529.537-2.844 3.038-2.655 5.545.11 2.078 1.635 3.335 1.72 3.403.066.054 2.304 2.448 10.333 6.446.02.005.096.03.14-.024 0 0 .062-.05.03-.129-3.69-8.06-8.632-14.318-9.368-15.23zM13.667 22.158c-.026-.09-.135-.09-.135-.09v-.005l-10.229.358c-.102.003-.163.115-.11.203 1.145 1.927 2.995 3.38 4.917 2.91 1.374-.34 4.482-2.51 5.508-3.245h-.003c.078-.074.052-.131.052-.131zM13.786 21.066C9.537 18.2 1.603 13.914.442 13.29c-.074-.04-.168-.002-.191.08-.716 2.431.328 4.366.328 4.366 1.134 2.396 3.297 3.123 3.297 3.123 1.002.41 2.002.436 2.002.436.155.029 6.215.005 7.839-.003.07-.002.105-.07.105-.07.053-.083-.036-.156-.036-.156zM12.836.332c-2.772.72-4.291 3.531-3.41 6.541l.003.006c.925 4.099 5.467 10.83 6.444 12.243.068.07.124.04.124.04.104-.027.096-.129.096-.129l.002.001C17.49 5.107 14.947.66 14.565.08c-.028-.043-.078-.065-.128-.059-.504.064-1.6.312-1.6.312zM24.59 3.563l-.002-.006c-.026-.091-.735-2.559-3.455-3.22 0 0-.747-.19-1.562-.314-.337-.051-3.1 4.788-1.673 19.023.013.093.08.115.08.115.1.04.15-.057.15-.057l.001.001c1.005-1.45 5.523-8.15 6.442-12.229 0 0 .498-1.974.019-3.313zM20.452 22.072l-.018.004c-.078.02-.124.108-.089.181.007.013.016.026.028.036v.001c1 .718 4.034 2.84 5.496 3.25 0 0 2.613.89 4.93-2.915.054-.088-.007-.202-.11-.205l-10.237-.354v.002zM33.75 13.351c-.025-.082-.117-.122-.193-.081-1.158.625-9.085 4.923-13.334 7.787v.002c-.116.077-.044.23.052.23 1.645.004 7.873.013 8.028-.014 0 0 .803-.037 1.798-.416 0 0 2.215-.704 3.366-3.22 0 0 .98-1.96.283-4.288zM31.553 10.162c.164-2.592-2.128-5.014-2.654-5.533-.056-.056-.148-.051-.198.01-.731.906-5.662 7.148-9.35 15.192h.002c-.06.127.072.238.17.182 7.7-3.833 9.926-6.117 10.312-6.433.08-.066 1.631-1.366 1.718-3.418z" transform="translate(3 3)"/></g><g><path fill="#D84848" fill-rule="nonzero" d="M14.372 19.238C7.518 15.65 5.83 13.781 5.578 13.58c-.085-.068-1.61-1.325-1.72-3.403-.142-1.89 1.138-3.776 2.003-4.82-.263-.341-.456-.584-.562-.715-.05-.062-.144-.067-.2-.01-.529.537-2.844 3.038-2.655 5.545.111 2.078 1.635 3.335 1.72 3.403.067.054 2.308 2.45 10.333 6.446.02.005.096.03.14-.024 0 0 .063-.05.03-.129-.097-.212-.196-.423-.295-.634zM7.292 21.295s-1-.027-2.002-.436c0 0-2.163-.727-3.297-3.123 0 0-.899-1.668-.455-3.852-.52-.284-.903-.49-1.096-.594-.074-.04-.168-.002-.191.08-.716 2.431.328 4.366.328 4.366 1.134 2.396 3.297 3.123 3.297 3.123 1.002.41 2.002.436 2.002.436.067.013 1.239.015 2.679.013-.727-.001-1.222-.005-1.265-.013zM16.232 17.55c-1.71-2.617-4.664-7.454-5.39-10.67l-.001-.007c-.883-3.01.637-5.821 3.41-6.54 0 0 .173-.04.413-.091-.04-.072-.075-.126-.1-.163-.027-.043-.077-.065-.127-.059-.504.064-1.6.312-1.6.312-2.773.72-4.292 3.531-3.41 6.541l.002.006c.925 4.099 5.467 10.83 6.444 12.243.068.07.124.04.124.04.104-.027.096-.129.096-.129l.002.001c.051-.508.096-1.002.137-1.485zM20.754.247c-.295-.065-.728-.155-1.183-.224-.337-.051-3.1 4.788-1.673 19.023.013.093.08.115.08.115.1.04.15-.057.15-.057l.001.001c.213-.307.584-.851 1.045-1.555-.95-11.365.872-16.25 1.58-17.303zM21.847 22.119l-1.394-.049-.001.002-.018.004c-.078.02-.124.108-.089.181.007.013.016.026.028.036v.001c1 .718 4.034 2.84 5.496 3.25 0 0 .677.23 1.647-.045-1.57-.507-4.58-2.602-5.669-3.38zM33.97 14.468c-.036-.358-.105-.732-.22-1.117-.025-.082-.117-.122-.193-.081-1.158.625-9.085 4.923-13.334 7.787v.002c-.116.077-.044.23.052.23.433.002 1.184.003 2.058.004 3.483-2.275 8.656-5.183 11.636-6.825zM29.558 5.347c-.286-.34-.527-.589-.659-.718-.056-.056-.148-.051-.198.01-.731.906-5.662 7.148-9.35 15.192h.002c-.06.127.072.238.17.182.531-.265 1.036-.521 1.516-.771 3.117-6.62 7.002-11.93 8.519-13.895z" transform="translate(3 3)"/></g><g><path fill="#C2C2C4" fill-rule="nonzero" d="M3.954 2.243H1.31c-.037 0-.066-.029-.066-.065V.094c0-.036-.03-.066-.066-.066H.066C.029.028 0 .058 0 .094v5.341c0 .036.03.066.066.066h1.113c.037 0 .066-.03.066-.066V3.283c0-.037.03-.066.066-.066h2.642c.037 0 .066.03.066.066v2.152c0 .036.03.066.066.066h1.117c.036 0 .066-.03.066-.066V.094c0-.036-.03-.066-.066-.066H4.085c-.036 0-.066.03-.066.066v2.084c0 .036-.03.065-.065.065zM10.19 3.308c0 .966-.295 1.368-1.327 1.368-1.031 0-1.336-.402-1.336-1.368V.094c0-.036-.03-.065-.065-.065H6.356c-.036 0-.066.029-.066.065v3.242c0 .694.065 1.176.337 1.47.485.537 1.205.753 2.236.753 1.032 0 1.739-.216 2.227-.753.265-.288.347-.77.347-1.47V.094c0-.036-.029-.065-.065-.065h-1.116c-.036 0-.065.029-.065.065v3.214zM14.17.066l-2.447 5.342c-.02.043.011.093.06.093h1.172c.027 0 .05-.016.061-.041l.495-1.221c.01-.025.034-.041.06-.041h2.485c.026 0 .05.016.06.04l.512 1.223c.01.024.034.04.06.04h1.242c.048 0 .08-.05.06-.093L15.526.066c-.01-.023-.034-.038-.06-.038H14.23c-.025 0-.049.015-.06.038zm-.201 3.066l.77-1.866c.022-.054.098-.054.12 0l.798 1.865c.019.043-.013.092-.06.092h-1.568c-.046 0-.078-.048-.06-.091zM23.855 4.034L22.606.074c-.008-.027-.034-.046-.062-.046h-1.372c-.03 0-.055.02-.063.048l-1.083 3.949c-.017.063-.106.065-.126.003L18.612.073c-.01-.027-.034-.045-.063-.045h-1.196c-.045 0-.077.045-.061.088l1.926 5.341c.01.026.034.044.062.044h1.42c.03 0 .056-.02.064-.049l1.032-3.818c.017-.064.107-.065.126-.003l1.181 3.824c.009.027.034.046.063.046h1.432c.029 0 .054-.018.063-.045L26.446.115c.014-.043-.018-.087-.063-.087h-1.136c-.029 0-.054.02-.063.047l-1.203 3.958c-.02.062-.106.062-.126 0zM26.743 2.865c0 .99.296 1.708.907 2.155.577.426 1.13.48 1.847.48h2.038c.036 0 .065-.029.065-.065v-.82c0-.037-.029-.066-.065-.066h-1.98c-.957 0-1.381-.344-1.409-1.274 0-.037.03-.068.066-.068h3.323c.036 0 .065-.03.065-.065v-.824c0-.036-.029-.066-.065-.066h-3.31c-.039 0-.07-.032-.066-.07.072-.81.522-1.2 1.397-1.2h1.979c.036 0 .065-.028.065-.065V.094c0-.036-.029-.066-.065-.066H29.53c-1.905 0-2.787.903-2.787 2.837zM32.7.094v5.34c0 .037.029.066.065.066h1.17c.036 0 .065-.03.065-.065V.094c0-.036-.03-.066-.066-.066h-1.169c-.036 0-.066.03-.066.066z" transform="translate(3 3) translate(0 28.422)"/></g><path fill="#D84848" fill-rule="nonzero" d="M4.74 22.84c-.004-.006-.064-.085-.117-.19l-.016-.026c-.008-.013-.013-.027-.016-.04-.028-.067-.049-.14-.05-.207l-1.238.044c-.102.003-.163.115-.11.203 1.138 1.916 2.974 3.362 4.884 2.918-1.304-.296-2.491-1.367-3.338-2.702z" transform="translate(3 3)"/></g></g></g></g></g></g></g></svg>