<svg xmlns="http://www.w3.org/2000/svg" xmlns:xlink="http://www.w3.org/1999/xlink" width="380" height="342" viewBox="0 0 380 342"><defs><linearGradient id="prefix__g" x1="50%" x2="50%" y1="0%" y2="98.37%"><stop offset="0%" stop-color="#65CD9E" stop-opacity="0"/><stop offset="100%" stop-color="#39D790" stop-opacity=".741"/></linearGradient><linearGradient id="prefix__f" x1="50%" x2="50%" y1="0%" y2="100%"><stop offset="0%" stop-color="#FFF"/><stop offset="100%" stop-color="#979797" stop-opacity="0"/></linearGradient><filter id="prefix__a" width="109.8%" height="119.2%" x="-4.5%" y="-5.3%" filterUnits="objectBoundingBox"><feOffset dx="4" dy="15" in="SourceAlpha" result="shadowOffsetOuter1"/><feGaussianBlur in="shadowOffsetOuter1" result="shadowBlurOuter1" stdDeviation="9.5"/><feColorMatrix in="shadowBlurOuter1" values="0 0 0 0 0 0 0 0 0 0.662745098 0 0 0 0 0.443137255 0 0 0 1 0"/></filter><filter id="prefix__d" width="144.2%" height="144.2%" x="-22.1%" y="-18.9%" filterUnits="objectBoundingBox"><feMorphology in="SourceAlpha" operator="dilate" radius=".5" result="shadowSpreadOuter1"/><feOffset dy="2" in="shadowSpreadOuter1" result="shadowOffsetOuter1"/><feGaussianBlur in="shadowOffsetOuter1" result="shadowBlurOuter1" stdDeviation="4"/><feComposite in="shadowBlurOuter1" in2="SourceAlpha" operator="out" result="shadowBlurOuter1"/><feColorMatrix in="shadowBlurOuter1" values="0 0 0 0 0 0 0 0 0 0.662745098 0 0 0 0 0.443137255 0 0 0 1 0"/></filter><path id="prefix__b" d="M0 367l643.542-116.577c6.883-1.247 12.614-5.999 15.114-12.532l44.014-115.018c2.662-6.955 1.238-14.813-3.693-20.393L615.88 8.464c-4.643-5.253-11.697-7.691-18.593-6.427L0 111.557V367z"/><path id="prefix__e" d="M594 222L625 253 594 284 563 253z"/><radialGradient id="prefix__c" cx="77.943%" cy="-35.833%" r="235.739%" fx="77.943%" fy="-35.833%" gradientTransform="scale(-.5191 -1) rotate(-40.652 .606 3.079)"><stop offset="0%" stop-color="#CDF6D5"/><stop offset="100%" stop-color="#00A971"/></radialGradient></defs><g fill="none" fill-rule="evenodd"><g opacity=".244" transform="translate(-346 2)"><use fill="#000" filter="url(#prefix__a)" xlink:href="#prefix__b"/><use fill="url(#prefix__c)" xlink:href="#prefix__b"/></g><g opacity=".602" transform="translate(-346 2) rotate(21 594 253)"><use fill="#000" filter="url(#prefix__d)" xlink:href="#prefix__e"/><use fill="url(#prefix__g)" stroke="url(#prefix__f)" xlink:href="#prefix__e"/></g></g></svg>