<svg xmlns="http://www.w3.org/2000/svg" xmlns:xlink="http://www.w3.org/1999/xlink" width="883" height="438" viewBox="0 0 883 438"><defs><linearGradient id="prefix__g" x1="50%" x2="50%" y1="0%" y2="98.37%"><stop offset="0%" stop-color="#65CD9E" stop-opacity="0"/><stop offset="100%" stop-color="#39D790" stop-opacity=".741"/></linearGradient><linearGradient id="prefix__f" x1="50%" x2="50%" y1="0%" y2="100%"><stop offset="0%" stop-color="#FFF"/><stop offset="100%" stop-color="#979797" stop-opacity="0"/></linearGradient><linearGradient id="prefix__j" x1="96.86%" x2="2.483%" y1="41.907%" y2="62.544%"><stop offset="0%" stop-color="#FFF"/><stop offset="100%" stop-color="#FFF" stop-opacity=".41"/></linearGradient><filter id="prefix__a" width="109.8%" height="119.2%" x="-4.5%" y="-5.3%" filterUnits="objectBoundingBox"><feOffset dx="4" dy="15" in="SourceAlpha" result="shadowOffsetOuter1"/><feGaussianBlur in="shadowOffsetOuter1" result="shadowBlurOuter1" stdDeviation="9.5"/><feColorMatrix in="shadowBlurOuter1" values="0 0 0 0 0 0 0 0 0 0.662745098 0 0 0 0 0.443137255 0 0 0 1 0"/></filter><filter id="prefix__d" width="117.6%" height="127.1%" x="-8.8%" y="-11.3%" filterUnits="objectBoundingBox"><feMorphology in="SourceAlpha" operator="dilate" radius=".5" result="shadowSpreadOuter1"/><feOffset dy="2" in="shadowSpreadOuter1" result="shadowOffsetOuter1"/><feGaussianBlur in="shadowOffsetOuter1" result="shadowBlurOuter1" stdDeviation="4"/><feComposite in="shadowBlurOuter1" in2="SourceAlpha" operator="out" result="shadowBlurOuter1"/><feColorMatrix in="shadowBlurOuter1" values="0 0 0 0 0 0 0 0 0 0.662745098 0 0 0 0 0.443137255 0 0 0 1 0"/></filter><filter id="prefix__h" width="109.8%" height="119.2%" x="-4.5%" y="-5.3%" filterUnits="objectBoundingBox"><feOffset dx="4" dy="15" in="SourceAlpha" result="shadowOffsetOuter1"/><feMorphology in="SourceAlpha" radius="1" result="shadowInner"/><feOffset dx="4" dy="15" in="shadowInner" result="shadowInner"/><feComposite in="shadowOffsetOuter1" in2="shadowInner" operator="out" result="shadowOffsetOuter1"/><feGaussianBlur in="shadowOffsetOuter1" result="shadowBlurOuter1" stdDeviation="9.5"/><feColorMatrix in="shadowBlurOuter1" values="0 0 0 0 0 0 0 0 0 0.662745098 0 0 0 0 0.443137255 0 0 0 1 0"/></filter><path id="prefix__b" d="M253 1256l643.542-116.577c6.883-1.247 12.614-5.999 15.114-12.532l44.014-115.018c2.662-6.955 1.238-14.813-3.693-20.393l-83.096-94.016c-4.643-5.253-11.697-7.691-18.593-6.427L253 1000.557V1256z"/><path id="prefix__e" d="M303 974.964l26.672 15.4c3.404 1.964 5.5 5.595 5.5 9.525v30.799c0 3.93-2.096 7.561-5.5 9.526l-26.672 15.4c-3.403 1.964-7.597 1.964-11 0l-26.672-15.4c-3.404-1.965-5.5-5.596-5.5-9.526v-30.799c0-3.93 2.096-7.56 5.5-9.526L292 974.964c3.403-1.965 7.597-1.965 11 0z"/><path id="prefix__i" d="M253 1256l643.542-116.577c6.883-1.247 12.614-5.999 15.114-12.532l44.014-115.018c2.662-6.955 1.238-14.813-3.693-20.393l-83.096-94.016c-4.643-5.253-11.697-7.691-18.593-6.427L253 1000.557V1256z"/><radialGradient id="prefix__c" cx="77.943%" cy="-35.833%" r="210.087%" fx="77.943%" fy="-35.833%" gradientTransform="scale(-.5191 -1) rotate(-43.162 .545 2.883)"><stop offset="0%" stop-color="#CDF6D5"/><stop offset="100%" stop-color="#00A971"/></radialGradient></defs><g fill="none" fill-rule="evenodd" transform="translate(-51 -820)"><circle cx="579.5" cy="579.5" r="579.5" stroke="#FFF" opacity=".15" transform="rotate(180 579.5 579.5)"/><g opacity=".384" transform="rotate(180 606.5 1072.5)"><use fill="#000" filter="url(#prefix__a)" xlink:href="#prefix__b"/><use fill="url(#prefix__c)" xlink:href="#prefix__b"/></g><g opacity=".827" transform="rotate(21 297.5 1015.289)"><use fill="#000" filter="url(#prefix__d)" xlink:href="#prefix__e"/><use fill="url(#prefix__g)" stroke="url(#prefix__f)" xlink:href="#prefix__e"/></g><g opacity=".384" transform="rotate(180 606.5 1072.5)"><use fill="#000" filter="url(#prefix__h)" xlink:href="#prefix__i"/><path stroke="url(#prefix__j)" stroke-linejoin="square" d="M253.5 1000.974v254.427l642.953-116.47c6.71-1.216 12.299-5.849 14.736-12.219l44.014-115.018c1.298-3.39 1.6-7.001.976-10.444-.624-3.443-2.173-6.719-4.577-9.439l-83.096-94.015c-4.526-5.122-11.404-7.5-18.127-6.267L253.5 1000.974z"/></g></g></svg>