<svg xmlns="http://www.w3.org/2000/svg" width="330" height="433" viewBox="0 0 330 433"><defs><linearGradient id="prefix__a" x1="11.652%" x2="93.484%" y1="56.029%" y2="38.807%"><stop offset="0%" stop-color="#EEE" stop-opacity="0"/><stop offset="100%" stop-color="#31263D"/></linearGradient><linearGradient id="prefix__b" x1=".137%" x2="116.626%" y1="57.072%" y2="43.097%"><stop offset="0%" stop-color="#4D8BFF"/><stop offset="100%" stop-color="#FF6985"/></linearGradient><linearGradient id="prefix__c" x1="2.607%" x2="84.679%" y1="37.433%" y2="60.563%"><stop offset="0%" stop-color="#DDD5FF"/><stop offset="100%" stop-color="#AC6EF2"/></linearGradient><linearGradient id="prefix__d" x1="0%" x2="100%" y1="50%" y2="50%"><stop offset="0%" stop-color="#4100B8"/><stop offset="100%" stop-color="#510785"/></linearGradient><linearGradient id="prefix__e" x1="4.578%" x2="87.698%" y1="39.973%" y2="62.506%"><stop offset="0%" stop-color="#C796FF"/><stop offset="100%" stop-color="#E4D0FF"/></linearGradient><linearGradient id="prefix__f" x1="49.281%" x2="50.526%" y1="8.058%" y2="85.254%"><stop offset="0%" stop-color="#6E56D8"/><stop offset="100%" stop-color="#AC6EF2"/></linearGradient><linearGradient id="prefix__g" x1="0%" x2="100%" y1="50%" y2="50%"><stop offset="0%" stop-color="#4100B8"/><stop offset="100%" stop-color="#510785"/></linearGradient><linearGradient id="prefix__h" x1="4.578%" x2="87.698%" y1="39.968%" y2="62.513%"><stop offset="0%" stop-color="#C796FF"/><stop offset="100%" stop-color="#E4D0FF"/></linearGradient><linearGradient id="prefix__i" x1="0%" x2="100%" y1="50%" y2="50%"><stop offset="0%" stop-color="#4100B8"/><stop offset="100%" stop-color="#510785"/></linearGradient><linearGradient id="prefix__j" x1="4.578%" x2="87.698%" y1="39.978%" y2="62.5%"><stop offset="0%" stop-color="#C796FF"/><stop offset="100%" stop-color="#E4D0FF"/></linearGradient><linearGradient id="prefix__k" x1="0%" x2="100%" y1="50%" y2="50%"><stop offset="0%" stop-color="#4100B8"/><stop offset="100%" stop-color="#510785"/></linearGradient><linearGradient id="prefix__l" x1="0%" x2="100%" y1="50%" y2="50%"><stop offset="0%" stop-color="#4100B8"/><stop offset="100%" stop-color="#510785"/></linearGradient><linearGradient id="prefix__m" x1="49.28%" x2="50.527%" y1="8.058%" y2="85.254%"><stop offset="0%" stop-color="#6E56D8"/><stop offset="100%" stop-color="#AC6EF2"/></linearGradient><linearGradient id="prefix__n" x1="29.243%" x2="66.573%" y1="81.12%" y2="25.152%"><stop offset="0%" stop-color="#F4C15B"/><stop offset="100%" stop-color="#F49E5B"/></linearGradient><linearGradient id="prefix__o" x1="29.251%" x2="66.567%" y1="81.12%" y2="25.152%"><stop offset="0%" stop-color="#F4C15B"/><stop offset="100%" stop-color="#F49E5B"/></linearGradient><linearGradient id="prefix__p" x1="3.369%" x2="87.232%" y1="81.12%" y2="25.152%"><stop offset="0%" stop-color="#A47B2A"/><stop offset="100%" stop-color="#A64C06"/></linearGradient><linearGradient id="prefix__q" x1="100%" x2="0%" y1="49.981%" y2="49.981%"><stop offset="0%" stop-color="#C5DCFD"/><stop offset="100%" stop-color="#86AFF0"/></linearGradient><linearGradient id="prefix__r" x1="50%" x2="50%" y1="99.942%" y2="0%"><stop offset="0%" stop-color="#0C5FE7"/><stop offset="100%" stop-color="#0299ED"/></linearGradient><linearGradient id="prefix__s" x1="2.607%" x2="84.679%" y1="39.515%" y2="58.813%"><stop offset="0%" stop-color="#6E56D8"/><stop offset="100%" stop-color="#AC6EF2"/></linearGradient><linearGradient id="prefix__t" x1="28.92%" x2="65.425%" y1="8.058%" y2="85.254%"><stop offset="0%" stop-color="#6E56D8"/><stop offset="100%" stop-color="#AC6EF2"/></linearGradient><linearGradient id="prefix__u" x1="0%" x2="100%" y1="50%" y2="50%"><stop offset="0%" stop-color="#4100B8"/><stop offset="100%" stop-color="#510785"/></linearGradient><linearGradient id="prefix__v" x1="2.607%" x2="84.679%" y1="39.51%" y2="58.818%"><stop offset="0%" stop-color="#6E56D8"/><stop offset="100%" stop-color="#AC6EF2"/></linearGradient><linearGradient id="prefix__w" x1="0%" x2="100%" y1="50%" y2="50%"><stop offset="0%" stop-color="#4100B8"/><stop offset="100%" stop-color="#510785"/></linearGradient><linearGradient id="prefix__x" x1="28.999%" x2="65.367%" y1="8.058%" y2="85.254%"><stop offset="0%" stop-color="#6E56D8"/><stop offset="100%" stop-color="#AC6EF2"/></linearGradient><linearGradient id="prefix__y" x1="4.578%" x2="84.679%" y1="39.978%" y2="58.813%"><stop offset="0%" stop-color="#7CE2FF"/><stop offset="100%" stop-color="#C796FF"/></linearGradient><linearGradient id="prefix__z" x1="2.607%" x2="84.679%" y1="29.969%" y2="66.837%"><stop offset="0%" stop-color="#6E56D8"/><stop offset="100%" stop-color="#AC6EF2"/></linearGradient><linearGradient id="prefix__A" x1="28.894%" x2="65.443%" y1="8.058%" y2="85.254%"><stop offset="0%" stop-color="#DDD5FF"/><stop offset="100%" stop-color="#AC6EF2"/></linearGradient><linearGradient id="prefix__B" x1="2.607%" x2="84.679%" y1="39.499%" y2="58.826%"><stop offset="2.402%" stop-color="#7CE2FF"/><stop offset="100%" stop-color="#C796FF"/></linearGradient><linearGradient id="prefix__C" x1="2.607%" x2="84.679%" y1="29.958%" y2="66.846%"><stop offset="0%" stop-color="#6E56D8"/><stop offset="100%" stop-color="#AC6EF2"/></linearGradient><linearGradient id="prefix__D" x1="28.958%" x2="65.397%" y1="8.058%" y2="85.254%"><stop offset="0%" stop-color="#6E56D8"/><stop offset="100%" stop-color="#AC6EF2"/></linearGradient><linearGradient id="prefix__E" x1="2.607%" x2="84.679%" y1="39.504%" y2="58.822%"><stop offset="0%" stop-color="#6E56D8"/><stop offset="100%" stop-color="#AC6EF2"/></linearGradient><linearGradient id="prefix__F" x1="28.894%" x2="65.443%" y1="8.058%" y2="85.254%"><stop offset="0%" stop-color="#6E56D8"/><stop offset="100%" stop-color="#AC6EF2"/></linearGradient><linearGradient id="prefix__G" x1="0%" x2="100.029%" y1="50%" y2="50%"><stop offset="0%" stop-color="#F59E5B"/><stop offset="100%" stop-color="#F5C25B"/></linearGradient><linearGradient id="prefix__H" x1="-3658.455%" x2="-3758.484%" y1="50%" y2="50%"><stop offset="0%" stop-color="#F59E5B"/><stop offset="100%" stop-color="#F5C25B"/></linearGradient><linearGradient id="prefix__I" x1="2.607%" x2="84.679%" y1="39.515%" y2="58.813%"><stop offset="0%" stop-color="#6E56D8"/><stop offset="100%" stop-color="#AC6EF2"/></linearGradient><linearGradient id="prefix__J" x1="28.936%" x2="65.413%" y1="8.058%" y2="85.254%"><stop offset="0%" stop-color="#6E56D8"/><stop offset="100%" stop-color="#AC6EF2"/></linearGradient><linearGradient id="prefix__K" x1="-3603.89%" x2="-3703.89%" y1="50%" y2="50%"><stop offset="0%" stop-color="#004AB8"/><stop offset="100%" stop-color="#073685"/></linearGradient><linearGradient id="prefix__L" x1="-3603.604%" x2="-3703.576%" y1="50%" y2="50%"><stop offset="0%" stop-color="#F59E5B"/><stop offset="100%" stop-color="#F5C25B"/></linearGradient><linearGradient id="prefix__M" x1="0%" x2="100%" y1="50%" y2="50%"><stop offset="0%" stop-color="#4100B8"/><stop offset="100%" stop-color="#510785"/></linearGradient><linearGradient id="prefix__N" x1="2.607%" x2="84.679%" y1="39.504%" y2="58.822%"><stop offset="2.402%" stop-color="#7CE2FF"/><stop offset="100%" stop-color="#C796FF"/></linearGradient><linearGradient id="prefix__O" x1="2.607%" x2="84.679%" y1="39.515%" y2="58.813%"><stop offset="2.402%" stop-color="#7CE2FF"/><stop offset="100%" stop-color="#C796FF"/></linearGradient><linearGradient id="prefix__P" x1="2.607%" x2="84.679%" y1="39.512%" y2="58.816%"><stop offset="0%" stop-color="#6E56D8"/><stop offset="100%" stop-color="#AC6EF2"/></linearGradient><linearGradient id="prefix__Q" x1="28.949%" x2="65.404%" y1="8.058%" y2="85.254%"><stop offset="0%" stop-color="#6E56D8"/><stop offset="100%" stop-color="#AC6EF2"/></linearGradient><linearGradient id="prefix__R" x1="50%" x2="50%" y1="100%" y2="0%"><stop offset="0%" stop-color="#C5DCFD"/><stop offset="100%" stop-color="#86AFF0"/></linearGradient><linearGradient id="prefix__S" x1="49.925%" x2="49.925%" y1="100%" y2="0%"><stop offset="0%" stop-color="#0C5FE7"/><stop offset="100%" stop-color="#0299ED"/></linearGradient><linearGradient id="prefix__T" x1="49.925%" x2="49.925%" y1="100%" y2="0%"><stop offset="0%" stop-color="#073685"/><stop offset="100%" stop-color="#004AB8"/></linearGradient><linearGradient id="prefix__U" x1="50%" x2="50%" y1="100%" y2="0%"><stop offset="0%" stop-color="#C5DCFD"/><stop offset="100%" stop-color="#86AFF0"/></linearGradient><linearGradient id="prefix__V" x1="50.075%" x2="50.075%" y1="100%" y2="0%"><stop offset="0%" stop-color="#0C5FE7"/><stop offset="100%" stop-color="#0299ED"/></linearGradient><linearGradient id="prefix__W" x1="50.075%" x2="50.075%" y1="100%" y2="0%"><stop offset="0%" stop-color="#073685"/><stop offset="100%" stop-color="#004AB8"/></linearGradient><linearGradient id="prefix__X" x1="50.038%" x2="50.038%" y1="99.849%" y2="0%"><stop offset="0%" stop-color="#C5DCFD"/><stop offset="100%" stop-color="#86AFF0"/></linearGradient><linearGradient id="prefix__Y" x1="50%" x2="50%" y1="100%" y2="0%"><stop offset="0%" stop-color="#0C5FE7"/><stop offset="100%" stop-color="#0299ED"/></linearGradient><linearGradient id="prefix__Z" x1="50.075%" x2="50.075%" y1="99.899%" y2="0%"><stop offset="0%" stop-color="#0C5FE7"/><stop offset="100%" stop-color="#0299ED"/></linearGradient><linearGradient id="prefix__aa" x1="50.075%" x2="50.075%" y1="99.899%" y2="0%"><stop offset="0%" stop-color="#073685"/><stop offset="100%" stop-color="#004AB8"/></linearGradient><linearGradient id="prefix__ab" x1="50.038%" x2="50.038%" y1="100%" y2="0%"><stop offset="0%" stop-color="#C5DCFD"/><stop offset="100%" stop-color="#86AFF0"/></linearGradient><linearGradient id="prefix__ac" x1="50.038%" x2="50.038%" y1="100%" y2="0%"><stop offset="0%" stop-color="#C5DCFD"/><stop offset="100%" stop-color="#86AFF0"/></linearGradient><linearGradient id="prefix__ad" x1="50.075%" x2="50.075%" y1="100%" y2=".101%"><stop offset="0%" stop-color="#0C5FE7"/><stop offset="100%" stop-color="#0299ED"/></linearGradient><linearGradient id="prefix__ae" x1="50.075%" x2="50.075%" y1="100%" y2=".101%"><stop offset="0%" stop-color="#073685"/><stop offset="100%" stop-color="#004AB8"/></linearGradient><linearGradient id="prefix__af" x1="50%" x2="50%" y1="100%" y2="0%"><stop offset="0%" stop-color="#073685"/><stop offset="100%" stop-color="#004AB8"/></linearGradient><linearGradient id="prefix__ag" x1="50.038%" x2="50.038%" y1="100%" y2="-.151%"><stop offset="0%" stop-color="#C5DCFD"/><stop offset="100%" stop-color="#86AFF0"/></linearGradient><linearGradient id="prefix__ah" x1="50.075%" x2="50.075%" y1="100%" y2="0%"><stop offset="0%" stop-color="#0C5FE7"/><stop offset="100%" stop-color="#0299ED"/></linearGradient><linearGradient id="prefix__ai" x1="49.925%" x2="49.925%" y1="100%" y2="0%"><stop offset="0%" stop-color="#073685"/><stop offset="100%" stop-color="#004AB8"/></linearGradient><linearGradient id="prefix__aj" x1="50%" x2="50%" y1="99.849%" y2="0%"><stop offset="0%" stop-color="#C5DCFD"/><stop offset="100%" stop-color="#86AFF0"/></linearGradient><linearGradient id="prefix__ak" x1="49.925%" x2="49.925%" y1="100%" y2="0%"><stop offset="0%" stop-color="#0C5FE7"/><stop offset="100%" stop-color="#0299ED"/></linearGradient><linearGradient id="prefix__al" x1="49.962%" x2="49.962%" y1="100%" y2="0%"><stop offset="0%" stop-color="#C5DCFD"/><stop offset="100%" stop-color="#86AFF0"/></linearGradient><linearGradient id="prefix__am" x1="50%" x2="50%" y1="99.899%" y2="0%"><stop offset="0%" stop-color="#0C5FE7"/><stop offset="100%" stop-color="#0299ED"/></linearGradient><linearGradient id="prefix__an" x1="50.075%" x2="50.075%" y1="100%" y2="-.101%"><stop offset="0%" stop-color="#0C5FE7"/><stop offset="100%" stop-color="#0299ED"/></linearGradient><linearGradient id="prefix__ao" x1="49.925%" x2="49.925%" y1="100%" y2="-.101%"><stop offset="0%" stop-color="#073685"/><stop offset="100%" stop-color="#004AB8"/></linearGradient><linearGradient id="prefix__ap" x1="49.962%" x2="49.962%" y1="100%" y2="0%"><stop offset="0%" stop-color="#C5DCFD"/><stop offset="100%" stop-color="#86AFF0"/></linearGradient><linearGradient id="prefix__aq" x1="2.607%" x2="84.679%" y1="39.508%" y2="58.818%"><stop offset="0%" stop-color="#6E56D8"/><stop offset="100%" stop-color="#AC6EF2"/></linearGradient><linearGradient id="prefix__ar" x1="29.263%" x2="66.557%" y1="81.12%" y2="25.152%"><stop offset="0%" stop-color="#F4C15B"/><stop offset="100%" stop-color="#F49E5B"/></linearGradient><linearGradient id="prefix__as" x1="49.994%" x2="49.994%" y1="105.451%" y2=".985%"><stop offset="0%" stop-color="#4000FF"/><stop offset="100%" stop-color="#FFF" stop-opacity="0"/></linearGradient><linearGradient id="prefix__at" x1="2.607%" x2="84.679%" y1="39.515%" y2="58.813%"><stop offset="0%" stop-color="#6E56D8"/><stop offset="100%" stop-color="#AC6EF2"/></linearGradient><linearGradient id="prefix__au" x1="0%" x2="100%" y1="50%" y2="50%"><stop offset="0%" stop-color="#4100B8"/><stop offset="100%" stop-color="#510785"/></linearGradient><linearGradient id="prefix__av" x1="28.936%" x2="65.413%" y1="8.058%" y2="85.254%"><stop offset="0%" stop-color="#6E56D8"/><stop offset="100%" stop-color="#AC6EF2"/></linearGradient><linearGradient id="prefix__aw" x1="0%" x2="100%" y1="50%" y2="50%"><stop offset="0%" stop-color="#4100B8"/><stop offset="100%" stop-color="#510785"/></linearGradient><linearGradient id="prefix__ax" x1="28.984%" x2="65.378%" y1="8.058%" y2="85.254%"><stop offset="0%" stop-color="#6E56D8"/><stop offset="100%" stop-color="#AC6EF2"/></linearGradient><linearGradient id="prefix__ay" x1="-12.373%" x2="143.898%" y1="50%" y2="50%"><stop offset="0%" stop-color="#F59E5B"/><stop offset="100%" stop-color="#F5C25B"/></linearGradient><linearGradient id="prefix__az" x1="27.728%" x2="135.487%" y1="83.597%" y2="-78.959%"><stop offset="0%" stop-color="#BECEFA"/><stop offset="50%" stop-color="#D3E2FD"/><stop offset="100%" stop-color="#E4F1FF"/></linearGradient><linearGradient id="prefix__aA" x1="24.591%" x2="110.343%" y1="11.964%" y2="140.519%"><stop offset="0%" stop-color="#DDE8FF"/><stop offset="100%" stop-color="#E4F1FF"/></linearGradient><linearGradient id="prefix__aB" x1="20769.697%" x2="20877.455%" y1="83.597%" y2="-78.959%"><stop offset="0%" stop-color="#BECEFA"/><stop offset="50%" stop-color="#D3E2FD"/><stop offset="100%" stop-color="#E4F1FF"/></linearGradient><linearGradient id="prefix__aC" x1="20813.972%" x2="20899.654%" y1="11.964%" y2="140.519%"><stop offset="0%" stop-color="#DDE8FF"/><stop offset="100%" stop-color="#E4F1FF"/></linearGradient><linearGradient id="prefix__aD" x1=".015%" x2="100%" y1="49.966%" y2="49.966%"><stop offset="0%" stop-color="#FFF"/><stop offset="100%" stop-color="#F5AC5B"/></linearGradient></defs><g fill="none" fill-rule="evenodd"><path fill="url(#prefix__a)" fill-rule="nonzero" d="M157.395 343.127L167.229 349.217 228.464 375.675 61.25 457.955 15 412.901z" opacity=".4" transform="translate(-35) rotate(30 121.732 400.541)"/><g><path fill="url(#prefix__b)" fill-rule="nonzero" d="M282.516 356.904L144.648 425.856 6.792 356.904 144.648 287.952z" transform="translate(-35) translate(81.944)"/><path fill="url(#prefix__c)" fill-rule="nonzero" d="M282.516 363.42L144.648 432.372 144.648 425.856 282.516 356.904z" transform="translate(-35) translate(81.944)"/><path fill="url(#prefix__d)" fill-rule="nonzero" d="M144.648 432.372L6.792 363.42 6.792 356.904 144.648 425.856z" transform="translate(-35) translate(81.944)"/><path fill="url(#prefix__e)" fill-rule="nonzero" d="M186.336 256.236L180.876 258.972 139.284 238.164 144.744 235.44z" transform="translate(-35) translate(81.944)"/><path fill="url(#prefix__f)" fill-rule="nonzero" d="M186.336 297.816L180.876 300.552 180.876 258.972 186.336 256.236z" transform="translate(-35) translate(81.944)"/><path fill="url(#prefix__g)" fill-rule="nonzero" d="M180.876 300.552L139.284 279.756 139.284 238.164 180.876 258.972z" transform="translate(-35) translate(81.944)"/><path fill="url(#prefix__h)" fill-rule="nonzero" d="M177.3 260.748L171.84 263.484 130.26 242.688 135.708 239.952z" transform="translate(-35) translate(81.944)"/><path fill="url(#prefix__f)" fill-rule="nonzero" d="M177.3 302.34L171.84 305.064 171.84 263.484 177.3 260.748z" transform="translate(-35) translate(81.944)"/><path fill="url(#prefix__i)" fill-rule="nonzero" d="M171.84 305.064L130.26 284.268 130.26 242.688 171.84 263.484z" transform="translate(-35) translate(81.944)"/><path fill="url(#prefix__j)" fill-rule="nonzero" d="M168.264 265.272L162.804 267.996 121.224 247.2 126.684 244.476z" transform="translate(-35) translate(81.944)"/><path fill="url(#prefix__f)" fill-rule="nonzero" d="M168.264 306.852L162.804 309.588 162.804 267.996 168.264 265.272z" transform="translate(-35) translate(81.944)"/><path fill="url(#prefix__k)" fill-rule="nonzero" d="M162.804 309.588L121.224 288.78 121.224 247.2 162.804 267.996z" transform="translate(-35) translate(81.944)"/><path fill="url(#prefix__e)" fill-rule="nonzero" d="M159.24 269.784L153.78 272.52 112.188 251.724 117.648 248.988z" transform="translate(-35) translate(81.944)"/><path fill="url(#prefix__f)" fill-rule="nonzero" d="M159.24 311.376L153.78 314.1 153.78 272.52 159.24 269.784z" transform="translate(-35) translate(81.944)"/><path fill="url(#prefix__l)" fill-rule="nonzero" d="M153.78 314.1L112.188 293.304 112.188 251.724 153.78 272.52z" transform="translate(-35) translate(81.944)"/><path fill="url(#prefix__j)" fill-rule="nonzero" d="M150.204 274.308L144.744 277.032 103.164 256.236 108.624 253.512z" transform="translate(-35) translate(81.944)"/><path fill="url(#prefix__m)" fill-rule="nonzero" d="M150.204 315.888L144.744 318.612 144.744 277.032 150.204 274.308z" transform="translate(-35) translate(81.944)"/><path fill="url(#prefix__i)" fill-rule="nonzero" d="M144.744 318.612L103.164 297.816 103.164 256.236 144.744 277.032z" transform="translate(-35) translate(81.944)"/><path fill="#FFF7F0" fill-rule="nonzero" d="M233.916 280.032L192.336 300.828 150.744 280.032 192.336 259.236z" transform="translate(-35) translate(81.944)"/><path fill="#FFF" fill-rule="nonzero" d="M202.236 275.076c5.472 2.736 5.472 7.2 0 9.912-5.472 2.712-14.34 2.736-19.812 0-5.472-2.736-5.472-7.2 0-9.912 5.472-2.712 14.376-2.736 19.812 0z" transform="translate(-35) translate(81.944)"/><path fill="#F0E8E1" fill-rule="nonzero" d="M233.916 321.624L192.336 342.42 192.336 300.828 233.916 280.032z" transform="translate(-35) translate(81.944)"/><path fill="#E7D5D8" fill-rule="nonzero" d="M192.336 342.42L150.744 321.624 150.744 280.032 192.336 300.828z" transform="translate(-35) translate(81.944)"/><path fill="#F5E48C" fill-rule="nonzero" d="M138.744 280.032L97.164 300.828 55.572 280.032 97.164 259.236z" transform="translate(-35) translate(81.944)"/><path fill="#F5E48C" d="M138.744 321.624L97.164 342.42 97.164 300.828 138.744 280.032z" transform="translate(-35) translate(81.944)"/><path fill="url(#prefix__n)" d="M128.352 316.428L107.556 326.82 107.556 306.024 128.352 295.632z" transform="translate(-35) translate(81.944)"/><path fill="url(#prefix__o)" d="M97.164 342.42L55.572 321.624 55.572 280.032 97.164 300.828z" transform="translate(-35) translate(81.944)"/><path fill="url(#prefix__p)" d="M128.352 316.428L128.352 295.632 107.568 306.024z" transform="translate(-35) translate(81.944)"/><path fill="url(#prefix__q)" fill-rule="nonzero" d="M65.976 316.428L86.76 326.82 86.76 306.024 65.976 295.632z" transform="translate(-35) translate(81.944)"/><path fill="url(#prefix__r)" fill-rule="nonzero" d="M65.976 316.428L65.976 295.632 86.76 306.024z" transform="translate(-35) translate(81.944)"/><g fill-rule="nonzero"><path fill="url(#prefix__s)" d="M21.156 5.244L10.776 10.44 0.396 5.244 10.776 0.06z" transform="translate(-35) translate(81.944) translate(102 298.2)"/><path fill="url(#prefix__t)" d="M21.156 15.624L10.776 20.808 10.776 10.44 21.156 5.244z" transform="translate(-35) translate(81.944) translate(102 298.2)"/><path fill="url(#prefix__u)" d="M10.776 20.808L0.396 15.624 0.396 5.244 10.776 10.44z" transform="translate(-35) translate(81.944) translate(102 298.2)"/></g><path fill="url(#prefix__v)" fill-rule="nonzero" d="M231.66 321L273.612 341.976 281.616 337.968 239.664 316.992z" transform="translate(-35) translate(81.944)"/><path fill="url(#prefix__w)" fill-rule="nonzero" d="M231.66 329.004L273.612 349.992 273.612 341.976 231.66 321z" transform="translate(-35) translate(81.944)"/><path fill="url(#prefix__x)" fill-rule="nonzero" d="M273.612 349.992L281.616 345.984 281.616 337.968 273.612 341.976z" transform="translate(-35) translate(81.944)"/><path fill="url(#prefix__y)" fill-rule="nonzero" d="M231.624 309.612L273.576 330.6 281.592 326.592 239.64 305.616z" transform="translate(-35) translate(81.944)"/><path fill="url(#prefix__z)" fill-rule="nonzero" d="M231.624 317.628L273.576 338.604 273.576 330.6 231.624 309.612z" transform="translate(-35) translate(81.944)"/><path fill="url(#prefix__A)" fill-rule="nonzero" d="M273.576 338.604L281.592 334.608 281.592 326.592 273.576 330.6z" transform="translate(-35) translate(81.944)"/><path fill="url(#prefix__B)" fill-rule="nonzero" d="M231.6 298.236L273.54 319.224 281.556 315.216 239.604 294.228z" transform="translate(-35) translate(81.944)"/><path fill="url(#prefix__C)" fill-rule="nonzero" d="M231.6 306.252L273.54 327.228 273.54 319.224 231.6 298.236z" transform="translate(-35) translate(81.944)"/><path fill="url(#prefix__A)" fill-rule="nonzero" d="M273.54 327.228L281.556 323.22 281.556 315.216 273.54 319.224z" transform="translate(-35) translate(81.944)"/><path fill="url(#prefix__v)" fill-rule="nonzero" d="M231.564 286.86L273.516 307.836 281.52 303.84 239.58 282.852z" transform="translate(-35) translate(81.944)"/><path fill="url(#prefix__w)" fill-rule="nonzero" d="M231.564 294.876L273.516 315.852 273.516 307.836 231.564 286.86z" transform="translate(-35) translate(81.944)"/><path fill="url(#prefix__D)" fill-rule="nonzero" d="M273.516 315.852L281.52 311.844 281.52 303.84 273.516 307.836z" transform="translate(-35) translate(81.944)"/><path fill="url(#prefix__E)" fill-rule="nonzero" d="M220.404 326.604L262.356 347.592 270.372 343.584 228.42 322.596z" transform="translate(-35) translate(81.944)"/><path fill="url(#prefix__w)" fill-rule="nonzero" d="M220.404 334.62L262.356 355.596 262.356 347.592 220.404 326.604z" transform="translate(-35) translate(81.944)"/><path fill="url(#prefix__F)" fill-rule="nonzero" d="M262.356 355.596L270.372 351.588 270.372 343.584 262.356 347.592z" transform="translate(-35) translate(81.944)"/><path fill="#F5C25B" fill-rule="nonzero" d="M220.38 315.228L262.32 336.216 270.336 332.208 228.384 311.22z" transform="translate(-35) translate(81.944)"/><path fill="url(#prefix__G)" fill-rule="nonzero" d="M220.38 323.244L262.32 344.22 262.32 336.216 220.38 315.228z" transform="translate(-35) translate(81.944)"/><path fill="#F5E48C" fill-rule="nonzero" d="M262.32 344.22L270.336 340.212 270.336 332.208 262.32 336.216z" transform="translate(-35) translate(81.944)"/><path fill="#F5C25B" fill-rule="nonzero" d="M220.38 303.852L262.32 324.828 270.336 320.82 228.384 299.844z" transform="translate(-35) translate(81.944)"/><path fill="url(#prefix__H)" fill-rule="nonzero" d="M220.38 311.856L262.32 332.844 262.32 324.828 220.38 303.852z" transform="translate(-35) translate(81.944)"/><path fill="#F5E48C" fill-rule="nonzero" d="M262.32 332.844L270.336 328.836 270.336 320.82 262.32 324.828z" transform="translate(-35) translate(81.944)"/><path fill="url(#prefix__I)" fill-rule="nonzero" d="M220.308 292.476L262.26 313.452 270.276 309.444 228.324 288.468z" transform="translate(-35) translate(81.944)"/><path fill="url(#prefix__w)" fill-rule="nonzero" d="M220.308 300.48L262.26 321.468 262.26 313.452 220.308 292.476z" transform="translate(-35) translate(81.944)"/><path fill="url(#prefix__J)" fill-rule="nonzero" d="M262.26 321.468L270.276 317.46 270.276 309.444 262.26 313.452z" transform="translate(-35) translate(81.944)"/><path fill="url(#prefix__I)" fill-rule="nonzero" d="M209.148 332.22L251.1 353.196 259.116 349.188 217.164 328.212z" transform="translate(-35) translate(81.944)"/><path fill="url(#prefix__K)" fill-rule="nonzero" d="M209.148 340.224L251.1 361.212 251.1 353.196 209.148 332.22z" transform="translate(-35) translate(81.944)"/><path fill="url(#prefix__J)" fill-rule="nonzero" d="M251.1 361.212L259.116 357.204 259.116 349.188 251.1 353.196z" transform="translate(-35) translate(81.944)"/><path fill="#F5C25B" fill-rule="nonzero" d="M209.088 320.844L251.04 341.82 259.056 337.812 217.104 316.836z" transform="translate(-35) translate(81.944)"/><path fill="url(#prefix__L)" fill-rule="nonzero" d="M209.088 328.848L251.04 349.836 251.04 341.82 209.088 320.844z" transform="translate(-35) translate(81.944)"/><path fill="#F5E48C" fill-rule="nonzero" d="M251.04 349.836L259.056 345.828 259.056 337.812 251.04 341.82z" transform="translate(-35) translate(81.944)"/><path fill="#F5C25B" fill-rule="nonzero" d="M209.088 309.456L251.04 330.444 259.056 326.436 217.104 305.46z" transform="translate(-35) translate(81.944)"/><path fill="url(#prefix__L)" fill-rule="nonzero" d="M209.088 317.472L251.04 338.448 251.04 330.444 209.088 309.456z" transform="translate(-35) translate(81.944)"/><path fill="#F5E48C" fill-rule="nonzero" d="M251.04 338.448L259.056 334.452 259.056 326.436 251.04 330.444z" transform="translate(-35) translate(81.944)"/><path fill="url(#prefix__E)" fill-rule="nonzero" d="M209.148 298.08L251.1 319.068 259.116 315.06 217.164 294.072z" transform="translate(-35) translate(81.944)"/><path fill="url(#prefix__w)" fill-rule="nonzero" d="M209.148 306.096L251.1 327.072 251.1 319.068 209.148 298.08z" transform="translate(-35) translate(81.944)"/><path fill="url(#prefix__F)" fill-rule="nonzero" d="M251.1 327.072L259.116 323.064 259.116 315.06 251.1 319.068z" transform="translate(-35) translate(81.944)"/><path fill="url(#prefix__I)" fill-rule="nonzero" d="M197.868 337.836L239.82 358.812 247.836 354.804 205.884 333.828z" transform="translate(-35) translate(81.944)"/><path fill="url(#prefix__M)" fill-rule="nonzero" d="M197.868 345.84L239.82 366.816 239.82 358.812 197.868 337.836z" transform="translate(-35) translate(81.944)"/><path fill="url(#prefix__F)" fill-rule="nonzero" d="M239.82 366.816L247.836 362.82 247.836 354.804 239.82 358.812z" transform="translate(-35) translate(81.944)"/><path fill="url(#prefix__N)" fill-rule="nonzero" d="M239.82 347.436L247.836 343.428 205.884 322.44 197.868 326.448z" transform="translate(-35) translate(81.944)"/><path fill="url(#prefix__z)" fill-rule="nonzero" d="M197.868 334.464L239.82 355.44 239.82 347.436 197.868 326.448z" transform="translate(-35) translate(81.944)"/><path fill="url(#prefix__A)" fill-rule="nonzero" d="M239.82 355.44L247.836 351.432 247.836 343.428 239.82 347.436z" transform="translate(-35) translate(81.944)"/><path fill="url(#prefix__O)" fill-rule="nonzero" d="M197.868 315.072L239.82 336.048 247.836 332.052 205.884 311.064z" transform="translate(-35) translate(81.944)"/><path fill="url(#prefix__z)" fill-rule="nonzero" d="M197.868 323.088L239.82 344.064 239.82 336.048 197.868 315.072z" transform="translate(-35) translate(81.944)"/><path fill="url(#prefix__A)" fill-rule="nonzero" d="M239.82 344.064L247.836 340.056 247.836 332.052 239.82 336.048z" transform="translate(-35) translate(81.944)"/><path fill="url(#prefix__I)" fill-rule="nonzero" d="M197.868 303.696L239.82 324.672 247.836 320.664 205.884 299.688z" transform="translate(-35) translate(81.944)"/><path fill="url(#prefix__w)" fill-rule="nonzero" d="M197.868 311.7L239.82 332.688 239.82 324.672 197.868 303.696z" transform="translate(-35) translate(81.944)"/><path fill="url(#prefix__J)" fill-rule="nonzero" d="M239.82 332.688L247.836 328.68 247.836 320.664 239.82 324.672z" transform="translate(-35) translate(81.944)"/><path fill="url(#prefix__P)" fill-rule="nonzero" d="M233.82 327.672L192.24 348.468 150.648 327.672 192.24 306.876z" transform="translate(-35) translate(81.944)"/><path fill="url(#prefix__Q)" fill-rule="nonzero" d="M233.82 369.264L192.24 390.06 192.24 348.468 233.82 327.672z" transform="translate(-35) translate(81.944)"/><path fill="url(#prefix__g)" fill-rule="nonzero" d="M192.24 390.06L150.648 369.264 150.648 327.672 192.24 348.468z" transform="translate(-35) translate(81.944)"/><path fill="#FFF" fill-rule="nonzero" d="M198.744 354.468c-.132.004-.248-.086-.277-.215-.029-.128.037-.26.157-.313l4.14-2.076c.067-.033.144-.037.214-.012.07.025.127.077.158.144.034.065.04.141.017.21-.022.07-.072.129-.137.162l-4.14 2.076c-.041.02-.087.027-.132.024zM198.744 356.832c-.132.004-.248-.086-.277-.215-.029-.128.037-.26.157-.313l4.14-2.076c.067-.033.144-.037.214-.012.07.025.127.077.158.144.034.065.04.141.017.21-.022.07-.072.129-.137.162l-4.14 2.076c-.041.02-.087.028-.132.024zM198.744 359.196c-.132.004-.248-.086-.277-.215-.029-.128.037-.26.157-.313l4.14-2.076c.14-.07.308-.013.378.126.07.14.013.308-.126.378l-4.14 2.076-.132.024zM198.744 361.56c-.132.004-.248-.086-.277-.215-.029-.128.037-.26.157-.313l4.14-2.076c.14-.07.308-.013.378.126.07.14.013.308-.126.378l-4.14 2.076-.132.024zM198.744 363.924c-.132.004-.248-.086-.277-.215-.029-.128.037-.26.157-.313l4.176-2.076c.14-.07.308-.013.378.126.07.14.013.308-.126.378l-4.14 2.076-.168.024zM198.744 366.288c-.106-.001-.203-.061-.252-.156-.033-.067-.037-.144-.012-.214.025-.07.077-.127.144-.158l4.14-2.076c.14-.07.308-.013.378.126.07.14.013.308-.126.378l-4.14 2.076-.132.024zM198.744 368.652c-.132.004-.248-.086-.277-.215-.029-.128.037-.26.157-.313l4.14-2.076c.14-.07.308-.013.378.126.07.14.013.308-.126.378l-4.14 2.076c-.041.02-.087.028-.132.024zM198.744 371.016c-.132.004-.248-.086-.277-.215-.029-.128.037-.26.157-.313l4.14-2.076c.14-.07.308-.013.378.126.07.14.013.308-.126.378l-4.14 2.076-.132.024zM198.744 373.38c-.132.004-.248-.086-.277-.215-.029-.128.037-.26.157-.313l4.14-2.076c.14-.07.308-.013.378.126.07.14.013.308-.126.378l-4.14 2.076-.132.024zM198.744 375.744c-.106-.001-.203-.061-.252-.156-.033-.067-.037-.144-.012-.214.025-.07.077-.127.144-.158l4.14-2.076c.14-.07.308-.013.378.126.07.14.013.308-.126.378l-4.14 2.076-.132.024zM198.744 378.108c-.106-.001-.203-.061-.252-.156-.033-.067-.037-.144-.012-.214.025-.07.077-.127.144-.158l4.14-2.076c.14-.07.308-.013.378.126.07.14.013.308-.126.378l-4.14 2.076-.132.024zM206.628 350.532c-.107.001-.205-.06-.252-.156-.034-.065-.04-.141-.017-.21.022-.07.072-.129.137-.162l5.724-2.868c.14-.061.302-.003.372.132.034.065.04.141.017.21-.022.07-.072.129-.137.162l-5.724 2.868-.12.024zM206.628 352.896c-.107.001-.205-.06-.252-.156-.07-.14-.018-.31.12-.384l5.724-2.856c.14-.061.302-.003.372.132.034.065.04.141.017.21-.022.07-.072.129-.137.162l-5.724 2.868-.12.024zM206.628 355.26c-.107.001-.205-.06-.252-.156-.07-.14-.018-.31.12-.384l4.14-2.064c.14-.07.31-.018.384.12.07.143.01.314-.132.384l-4.14 2.064c-.036.023-.077.035-.12.036zM206.628 357.624c-.107.001-.205-.06-.252-.156-.07-.14-.018-.31.12-.384l1.788-.888c.14-.061.302-.003.372.132.036.066.043.145.018.216-.026.07-.08.128-.15.156l-1.776.888c-.036.023-.077.035-.12.036zM206.628 359.988c-.107.001-.205-.06-.252-.156-.07-.14-.018-.31.12-.384l4.14-2.064c.14-.07.31-.018.384.12.07.143.01.314-.132.384l-4.14 2.064c-.036.023-.077.035-.12.036zM206.628 362.352c-.107.001-.205-.06-.252-.156-.07-.14-.018-.31.12-.384l1.788-.888c.14-.061.302-.003.372.132.033.067.037.144.012.214-.025.07-.077.127-.144.158l-1.776.888c-.036.023-.077.035-.12.036zM206.628 364.716c-.107.001-.205-.06-.252-.156-.07-.14-.018-.31.12-.384l1.788-.888c.14-.061.302-.003.372.132.033.067.037.144.012.214-.025.07-.077.127-.144.158l-1.776.888c-.036.023-.077.035-.12.036zM206.628 367.08c-.107.001-.205-.06-.252-.156-.07-.14-.018-.31.12-.384l7.296-3.6c.143-.062.31-.005.384.132.033.067.037.144.012.214-.025.07-.077.127-.144.158l-7.296 3.6c-.036.023-.077.035-.12.036zM206.628 369.444c-.107.001-.205-.06-.252-.156-.07-.14-.018-.31.12-.384l7.296-3.6c.143-.062.31-.005.384.132.062.143.005.31-.132.384l-7.296 3.6c-.037.019-.079.027-.12.024zM206.628 371.808c-.107.001-.205-.06-.252-.156-.07-.14-.018-.31.12-.384l4.932-2.46c.14-.07.31-.018.384.12.062.143.005.31-.132.384l-4.932 2.46c-.036.023-.077.035-.12.036zM206.628 374.172c-.107.001-.205-.06-.252-.156-.07-.14-.018-.31.12-.384l9.6-4.8c.14-.07.31-.018.384.12.062.143.005.31-.132.384l-9.66 4.8c-.018.015-.038.027-.06.036zM213.72 346.98c-.108.005-.208-.057-.252-.156-.034-.065-.04-.141-.017-.21.022-.07.072-.129.137-.162l2.568-1.284c.143-.062.31-.005.384.132.061.14.003.302-.132.372l-2.568 1.284c-.037.02-.079.028-.12.024zM213.72 349.344c-.108.005-.208-.057-.252-.156-.034-.065-.04-.141-.017-.21.022-.07.072-.129.137-.162l2.568-1.284c.09-.045.197-.039.281.017.084.055.132.151.126.252-.006.1-.065.19-.155.235l-2.568 1.284c-.037.02-.079.028-.12.024zM212.136 352.5c-.105-.006-.2-.065-.252-.156-.033-.067-.037-.144-.012-.214.025-.07.077-.127.144-.158l6.504-3.264c.143-.062.31-.005.384.132.033.067.037.144.012.214-.025.07-.077.127-.144.158l-6.504 3.264-.132.024zM209.772 356.052c-.105-.006-.2-.065-.252-.156-.062-.143-.005-.31.132-.384l5.712-2.856c.14-.07.31-.018.384.12.07.143.01.314-.132.384l-5.712 2.856c-.04.025-.085.037-.132.036zM212.136 357.228c-.105-.006-.2-.065-.252-.156-.033-.067-.037-.144-.012-.214.025-.07.077-.127.144-.158l6.504-3.3c.14-.055.299.006.365.141.066.136.017.299-.113.375l-6.504 3.252-.132.06zM209.772 360.78c-.108-.006-.205-.07-.252-.168-.061-.14-.003-.302.132-.372l6.504-3.252c.143-.062.31-.005.384.132.061.14.003.302-.132.372l-6.504 3.252c-.04.025-.085.037-.132.036zM209.772 363.144c-.105-.006-.2-.065-.252-.156-.062-.143-.005-.31.132-.384l6.504-3.252c.14-.07.31-.018.384.12.062.143.005.31-.132.384l-6.504 3.252c-.04.025-.085.037-.132.036zM215.292 362.748c-.106-.001-.203-.061-.252-.156-.07-.143-.01-.314.132-.384l4.14-2.064c.065-.037.142-.045.213-.022.07.023.128.074.159.142.07.14.018.31-.12.384l-4.14 2.064c-.04.023-.086.035-.132.036zM215.292 365.112c-.106-.001-.203-.061-.252-.156-.07-.143-.01-.314.132-.384l4.14-2.064c.065-.037.142-.045.213-.022.07.023.128.074.159.142.07.14.018.31-.12.384l-4.14 2.064c-.04.023-.086.035-.132.036zM212.928 368.652c-.106-.001-.203-.061-.252-.156-.033-.067-.037-.144-.012-.214.025-.07.077-.127.144-.158l6.504-3.252c.065-.037.142-.045.213-.022.07.023.128.074.159.142.07.14.018.31-.12.384l-6.504 3.252-.132.024zM217.656 368.652c-.107.001-.205-.06-.252-.156-.033-.067-.037-.144-.012-.214.025-.07.077-.127.144-.158l1.776-.888c.065-.034.141-.04.21-.017.07.022.129.072.162.137.07.14.018.31-.12.384l-1.776.888-.132.024zM217.656 345c-.107.001-.205-.06-.252-.156-.033-.067-.037-.144-.012-.214.025-.07.077-.127.144-.158l2.556-1.284c.14-.07.31-.018.384.12.07.143.01.314-.132.384L217.788 345h-.132zM217.656 347.4c-.107.001-.205-.06-.252-.156-.033-.067-.037-.144-.012-.214.025-.07.077-.127.144-.158l2.556-1.284c.14-.07.31-.018.384.12.07.143.01.314-.132.384l-2.556 1.308h-.132zM220.02 348.6c-.107.001-.205-.06-.252-.156-.07-.143-.01-.314.132-.384l4.14-2.064c.065-.034.141-.04.21-.017.07.022.129.072.162.137.07.14.018.31-.12.384l-4.14 2.064c-.04.023-.086.035-.132.036zM216.864 352.5c-.105-.006-.2-.065-.252-.156-.033-.067-.037-.144-.012-.214.025-.07.077-.127.144-.158l7.296-3.6c.065-.037.142-.045.213-.022.07.023.128.074.159.142.07.14.018.31-.12.384l-7.296 3.6-.132.024zM220.02 353.292c-.107.001-.205-.06-.252-.156-.07-.143-.01-.314.132-.384l4.14-2.064c.065-.037.142-.045.213-.022.07.023.128.074.159.142.07.14.018.31-.12.384l-4.14 2.064c-.04.023-.086.035-.132.036zM217.656 356.832c-.107.001-.205-.06-.252-.156-.033-.067-.037-.144-.012-.214.025-.07.077-.127.144-.158l4.14-2.076c.067-.033.144-.037.214-.012.07.025.127.077.158.144.034.065.04.141.017.21-.022.07-.072.129-.137.162l-4.14 2.076-.132.024zM217.656 359.196c-.107.001-.205-.06-.252-.156-.033-.067-.037-.144-.012-.214.025-.07.077-.127.144-.158l4.14-2.076c.067-.033.144-.037.214-.012.07.025.127.077.158.144.034.065.04.141.017.21-.022.07-.072.129-.137.162l-4.14 2.076-.132.024zM220.8 359.988c-.107.001-.205-.06-.252-.156-.07-.14-.018-.31.12-.384l4.14-2.064c.14-.07.31-.018.384.12.07.143.01.314-.132.384l-4.14 2.064c-.036.023-.077.035-.12.036zM220.8 362.352c-.107.001-.205-.06-.252-.156-.07-.14-.018-.31.12-.384l4.14-2.064c.14-.07.31-.018.384.12.07.143.01.314-.132.384l-4.14 2.064c-.036.023-.077.035-.12.036zM220.8 364.716c-.107.001-.205-.06-.252-.156-.07-.14-.018-.31.12-.384l2.568-1.284c.143-.062.31-.005.384.132.033.067.037.144.012.214-.025.07-.077.127-.144.158l-2.568 1.284c-.036.023-.077.035-.12.036zM220.8 367.08c-.107.001-.205-.06-.252-.156-.07-.14-.018-.31.12-.384l2.568-1.284c.143-.062.31-.005.384.132.033.067.037.144.012.214-.025.07-.077.127-.144.158l-2.568 1.284c-.036.023-.077.035-.12.036zM221.592 343.044c-.105-.006-.2-.065-.252-.156-.033-.067-.037-.144-.012-.214.025-.07.077-.127.144-.158l5.712-2.868c.143-.062.31-.005.384.132.033.067.037.144.012.214-.025.07-.077.127-.144.158l-5.712 2.868-.132.024zM221.592 345.408c-.105-.006-.2-.065-.252-.156-.033-.067-.037-.144-.012-.214.025-.07.077-.127.144-.158l5.712-2.868c.143-.062.31-.005.384.132.033.067.037.144.012.214-.025.07-.077.127-.144.158l-5.712 2.868-.132.024zM225.6 345.804c-.107.001-.205-.06-.252-.156-.07-.14-.018-.31.12-.384l1.776-.888c.143-.062.31-.005.384.132.033.067.037.144.012.214-.025.07-.077.127-.144.158l-1.776.888c-.036.023-.077.035-.12.036zM225.6 348.168c-.107.001-.205-.06-.252-.156-.07-.14-.018-.31.12-.384l1.776-.888c.143-.062.31-.005.384.132.033.067.037.144.012.214-.025.07-.077.127-.144.158l-1.776.888c-.036.023-.077.035-.12.036zM225.6 350.532c-.107.001-.205-.06-.252-.156-.07-.14-.018-.31.12-.384l1.776-.888c.143-.062.31-.005.384.132.033.067.037.144.012.214-.025.07-.077.127-.144.158l-1.776.888c-.036.023-.077.035-.12.036zM223.2 354.072c-.108.005-.208-.057-.252-.156-.034-.065-.04-.141-.017-.21.022-.07.072-.129.137-.162l4.14-2.076c.143-.062.31-.005.384.132.033.067.037.144.012.214-.025.07-.077.127-.144.158l-4.14 2.076c-.037.02-.079.028-.12.024zM223.2 356.436c-.108.005-.208-.057-.252-.156-.034-.065-.04-.141-.017-.21.022-.07.072-.129.137-.162l4.14-2.076c.143-.062.31-.005.384.132.033.067.037.144.012.214-.025.07-.077.127-.144.158l-4.14 2.076-.12.024zM226.32 357.228c-.105-.006-.2-.065-.252-.156-.062-.143-.005-.31.132-.384l.984-.492c.143-.062.31-.005.384.132.033.067.037.144.012.214-.025.07-.077.127-.144.158l-.984.492c-.04.025-.085.037-.132.036zM226.32 359.592c-.105-.006-.2-.065-.252-.156-.062-.143-.005-.31.132-.384l.984-.492c.143-.062.31-.005.384.132.033.067.037.144.012.214-.025.07-.077.127-.144.158l-.984.492c-.04.025-.085.037-.132.036zM224.748 362.748c-.107.001-.205-.06-.252-.156-.07-.143-.01-.314.132-.384l2.556-1.284c.143-.062.31-.005.384.132.033.067.037.144.012.214-.025.07-.077.127-.144.158l-2.556 1.284c-.04.023-.086.035-.132.036zM224.748 365.112c-.107.001-.205-.06-.252-.156-.07-.143-.01-.314.132-.384l2.556-1.284c.143-.062.31-.005.384.132.033.067.037.144.012.214-.025.07-.077.127-.144.158l-2.556 1.284c-.04.023-.086.035-.132.036z" transform="translate(-35) translate(81.944)"/><path fill="url(#prefix__R)" fill-rule="nonzero" d="M57.72 320.688L49.764 324.672 41.808 320.688 49.764 316.704z" transform="translate(-35) translate(81.944)"/><path fill="url(#prefix__S)" fill-rule="nonzero" d="M57.72 328.644L49.764 332.628 49.764 324.672 57.72 320.688z" transform="translate(-35) translate(81.944)"/><path fill="url(#prefix__T)" fill-rule="nonzero" d="M49.764 332.628L41.808 328.644 41.808 320.688 49.764 324.672z" transform="translate(-35) translate(81.944)"/><path fill="url(#prefix__U)" fill-rule="nonzero" d="M46.476 326.304L38.52 330.288 30.564 326.304 38.52 322.332z" transform="translate(-35) translate(81.944)"/><path fill="url(#prefix__V)" fill-rule="nonzero" d="M46.476 334.272L38.52 338.244 38.52 330.288 46.476 326.304z" transform="translate(-35) translate(81.944)"/><path fill="url(#prefix__W)" fill-rule="nonzero" d="M38.52 338.244L30.564 334.272 30.564 326.304 38.52 330.288z" transform="translate(-35) translate(81.944)"/><path fill="url(#prefix__X)" fill-rule="nonzero" d="M35.244 331.932L27.276 335.916 19.32 331.932 27.276 327.948z" transform="translate(-35) translate(81.944)"/><path fill="url(#prefix__Y)" fill-rule="nonzero" d="M35.244 339.888L27.276 343.872 27.276 335.916 35.244 331.932z" transform="translate(-35) translate(81.944)"/><path fill="url(#prefix__W)" fill-rule="nonzero" d="M27.276 343.872L19.32 339.888 19.32 331.932 27.276 335.916z" transform="translate(-35) translate(81.944)"/><path fill="#FFF7F0" fill-rule="nonzero" d="M24 337.548L16.044 341.532 8.088 337.548 16.044 333.576z" transform="translate(-35) translate(81.944)"/><path fill="#F0E8E1" fill-rule="nonzero" d="M24 345.504L16.044 349.488 16.044 341.532 24 337.548z" transform="translate(-35) translate(81.944)"/><path fill="#E7D5D8" fill-rule="nonzero" d="M16.044 349.488L8.088 345.504 8.088 337.548 16.044 341.532z" transform="translate(-35) translate(81.944)"/><path fill="url(#prefix__U)" fill-rule="nonzero" d="M57.72 309.492L49.764 313.476 41.808 309.492 49.764 305.52z" transform="translate(-35) translate(81.944)"/><path fill="url(#prefix__S)" fill-rule="nonzero" d="M57.72 317.448L49.764 321.432 49.764 313.476 57.72 309.492z" transform="translate(-35) translate(81.944)"/><path fill="url(#prefix__T)" fill-rule="nonzero" d="M49.764 321.432L41.808 317.448 41.808 309.492 49.764 313.476z" transform="translate(-35) translate(81.944)"/><path fill="url(#prefix__U)" fill-rule="nonzero" d="M46.476 315.12L38.52 319.092 30.564 315.12 38.52 311.136z" transform="translate(-35) translate(81.944)"/><path fill="url(#prefix__Z)" fill-rule="nonzero" d="M46.476 323.076L38.52 327.06 38.52 319.092 46.476 315.12z" transform="translate(-35) translate(81.944)"/><path fill="url(#prefix__aa)" fill-rule="nonzero" d="M38.52 327.06L30.564 323.076 30.564 315.12 38.52 319.092z" transform="translate(-35) translate(81.944)"/><path fill="url(#prefix__ab)" fill-rule="nonzero" d="M35.244 320.736L27.276 324.72 19.32 320.736 27.276 316.752z" transform="translate(-35) translate(81.944)"/><path fill="url(#prefix__Y)" fill-rule="nonzero" d="M35.244 328.692L27.276 332.676 27.276 324.72 35.244 320.736z" transform="translate(-35) translate(81.944)"/><path fill="url(#prefix__W)" fill-rule="nonzero" d="M27.276 332.676L19.32 328.692 19.32 320.736 27.276 324.72z" transform="translate(-35) translate(81.944)"/><path fill="#FFF7F0" fill-rule="nonzero" d="M24 326.352L16.044 330.336 8.088 326.352 16.044 322.38z" transform="translate(-35) translate(81.944)"/><path fill="#F0E8E1" fill-rule="nonzero" d="M24 334.32L16.044 338.292 16.044 330.336 24 326.352z" transform="translate(-35) translate(81.944)"/><path fill="#E7D5D8" fill-rule="nonzero" d="M16.044 338.292L8.088 334.32 8.088 326.352 16.044 330.336z" transform="translate(-35) translate(81.944)"/><path fill="url(#prefix__U)" fill-rule="nonzero" d="M57.72 298.296L49.764 302.28 41.808 298.296 49.764 294.324z" transform="translate(-35) translate(81.944)"/><path fill="url(#prefix__S)" fill-rule="nonzero" d="M57.72 306.264L49.764 310.236 49.764 302.28 57.72 298.296z" transform="translate(-35) translate(81.944)"/><path fill="url(#prefix__T)" fill-rule="nonzero" d="M49.764 310.236L41.808 306.264 41.808 298.296 49.764 302.28z" transform="translate(-35) translate(81.944)"/><path fill="url(#prefix__U)" fill-rule="nonzero" d="M46.476 303.924L38.52 307.896 30.564 303.924 38.52 299.94z" transform="translate(-35) translate(81.944)"/><path fill="url(#prefix__V)" fill-rule="nonzero" d="M46.476 311.88L38.52 315.864 38.52 307.896 46.476 303.924z" transform="translate(-35) translate(81.944)"/><path fill="url(#prefix__W)" fill-rule="nonzero" d="M38.52 315.864L30.564 311.88 30.564 303.924 38.52 307.896z" transform="translate(-35) translate(81.944)"/><path fill="url(#prefix__ac)" fill-rule="nonzero" d="M35.244 309.54L27.276 313.524 19.32 309.54 27.276 305.568z" transform="translate(-35) translate(81.944)"/><path fill="url(#prefix__Y)" fill-rule="nonzero" d="M35.244 317.496L27.276 321.48 27.276 313.524 35.244 309.54z" transform="translate(-35) translate(81.944)"/><path fill="url(#prefix__W)" fill-rule="nonzero" d="M27.276 321.48L19.32 317.496 19.32 309.54 27.276 313.524z" transform="translate(-35) translate(81.944)"/><path fill="#FFF7F0" fill-rule="nonzero" d="M24 315.168L16.044 319.14 8.088 315.168 16.044 311.184z" transform="translate(-35) translate(81.944)"/><path fill="#F0E8E1" fill-rule="nonzero" d="M24 323.124L16.044 327.096 16.044 319.14 24 315.168z" transform="translate(-35) translate(81.944)"/><path fill="#E7D5D8" fill-rule="nonzero" d="M16.044 327.096L8.088 323.124 8.088 315.168 16.044 319.14z" transform="translate(-35) translate(81.944)"/><path fill="#FFF7F0" fill-rule="nonzero" d="M57.624 287.112L49.668 291.084 41.712 287.112 49.668 283.128z" transform="translate(-35) translate(81.944)"/><path fill="#F0E8E1" fill-rule="nonzero" d="M57.624 295.068L49.668 299.04 49.668 291.084 57.624 287.112z" transform="translate(-35) translate(81.944)"/><path fill="#E7D5D8" fill-rule="nonzero" d="M49.668 299.04L41.712 295.068 41.712 287.112 49.668 291.084z" transform="translate(-35) translate(81.944)"/><path fill="#FFF7F0" fill-rule="nonzero" d="M46.392 292.728L38.424 296.712 30.468 292.728 38.424 288.744z" transform="translate(-35) translate(81.944)"/><path fill="#F0E8E1" fill-rule="nonzero" d="M46.392 300.684L38.424 304.668 38.424 296.712 46.392 292.728z" transform="translate(-35) translate(81.944)"/><path fill="#E7D5D8" fill-rule="nonzero" d="M38.424 304.668L30.468 300.684 30.468 292.728 38.424 296.712z" transform="translate(-35) translate(81.944)"/><path fill="#FFF7F0" fill-rule="nonzero" d="M35.148 298.356L27.192 302.328 19.236 298.356 27.192 294.372z" transform="translate(-35) translate(81.944)"/><path fill="#F0E8E1" fill-rule="nonzero" d="M35.148 306.312L27.192 310.284 27.192 302.328 35.148 298.356z" transform="translate(-35) translate(81.944)"/><path fill="#E7D5D8" fill-rule="nonzero" d="M27.192 310.284L19.236 306.312 19.236 298.356 27.192 302.328z" transform="translate(-35) translate(81.944)"/><path fill="#FFF7F0" fill-rule="nonzero" d="M23.904 303.972L15.948 307.956 7.992 303.972 15.948 299.988z" transform="translate(-35) translate(81.944)"/><path fill="#F0E8E1" fill-rule="nonzero" d="M23.904 311.928L15.948 315.912 15.948 307.956 23.904 303.972z" transform="translate(-35) translate(81.944)"/><path fill="#E7D5D8" fill-rule="nonzero" d="M15.948 315.912L7.992 311.928 7.992 303.972 15.948 307.956z" transform="translate(-35) translate(81.944)"/><path fill="url(#prefix__U)" fill-rule="nonzero" d="M68.892 326.256L60.936 330.24 52.98 326.256 60.936 322.284z" transform="translate(-35) translate(81.944)"/><path fill="url(#prefix__ad)" fill-rule="nonzero" d="M68.892 334.224L60.936 338.196 60.936 330.24 68.892 326.256z" transform="translate(-35) translate(81.944)"/><path fill="url(#prefix__ae)" fill-rule="nonzero" d="M60.936 338.196L52.98 334.224 52.98 326.256 60.936 330.24z" transform="translate(-35) translate(81.944)"/><path fill="url(#prefix__ab)" fill-rule="nonzero" d="M57.66 331.884L49.704 335.868 41.736 331.884 49.704 327.9z" transform="translate(-35) translate(81.944)"/><path fill="url(#prefix__S)" fill-rule="nonzero" d="M57.66 339.84L49.704 343.824 49.704 335.868 57.66 331.884z" transform="translate(-35) translate(81.944)"/><path fill="url(#prefix__af)" fill-rule="nonzero" d="M49.704 343.824L41.736 339.84 41.736 331.884 49.704 335.868z" transform="translate(-35) translate(81.944)"/><path fill="url(#prefix__U)" fill-rule="nonzero" d="M46.416 337.5L38.46 341.484 30.504 337.5 38.46 333.528z" transform="translate(-35) translate(81.944)"/><path fill="url(#prefix__V)" fill-rule="nonzero" d="M46.416 345.468L38.46 349.44 38.46 341.484 46.416 337.5z" transform="translate(-35) translate(81.944)"/><path fill="url(#prefix__T)" fill-rule="nonzero" d="M38.46 349.44L30.504 345.468 30.504 337.5 38.46 341.484z" transform="translate(-35) translate(81.944)"/><path fill="#FFF7F0" fill-rule="nonzero" d="M35.184 343.128L27.216 347.1 19.26 343.128 27.216 339.144z" transform="translate(-35) translate(81.944)"/><path fill="#F0E8E1" fill-rule="nonzero" d="M35.184 351.084L27.216 355.068 27.216 347.1 35.184 343.128z" transform="translate(-35) translate(81.944)"/><path fill="#E7D5D8" fill-rule="nonzero" d="M27.216 355.068L19.26 351.084 19.26 343.128 27.216 347.1z" transform="translate(-35) translate(81.944)"/><path fill="url(#prefix__U)" fill-rule="nonzero" d="M68.892 315.072L60.936 319.044 52.98 315.072 60.936 311.088z" transform="translate(-35) translate(81.944)"/><path fill="url(#prefix__V)" fill-rule="nonzero" d="M68.892 323.028L60.936 327.012 60.936 319.044 68.892 315.072z" transform="translate(-35) translate(81.944)"/><path fill="url(#prefix__W)" fill-rule="nonzero" d="M60.936 327.012L52.98 323.028 52.98 315.072 60.936 319.044z" transform="translate(-35) translate(81.944)"/><path fill="url(#prefix__ag)" fill-rule="nonzero" d="M57.66 320.688L49.704 324.672 41.736 320.688 49.704 316.716z" transform="translate(-35) translate(81.944)"/><path fill="url(#prefix__S)" fill-rule="nonzero" d="M57.66 328.644L49.704 332.628 49.704 324.672 57.66 320.688z" transform="translate(-35) translate(81.944)"/><path fill="url(#prefix__af)" fill-rule="nonzero" d="M49.704 332.628L41.736 328.644 41.736 320.688 49.704 324.672z" transform="translate(-35) translate(81.944)"/><path fill="url(#prefix__U)" fill-rule="nonzero" d="M46.416 326.316L38.46 330.288 30.504 326.316 38.46 322.332z" transform="translate(-35) translate(81.944)"/><path fill="url(#prefix__ah)" fill-rule="nonzero" d="M46.416 334.272L38.46 338.244 38.46 330.288 46.416 326.316z" transform="translate(-35) translate(81.944)"/><path fill="url(#prefix__ai)" fill-rule="nonzero" d="M38.46 338.244L30.504 334.272 30.504 326.316 38.46 330.288z" transform="translate(-35) translate(81.944)"/><path fill="#FFF7F0" fill-rule="nonzero" d="M35.184 331.932L27.216 335.916 19.26 331.932 27.216 327.948z" transform="translate(-35) translate(81.944)"/><path fill="#F0E8E1" fill-rule="nonzero" d="M35.184 339.888L27.216 343.872 27.216 335.916 35.184 331.932z" transform="translate(-35) translate(81.944)"/><path fill="#E7D5D8" fill-rule="nonzero" d="M27.216 343.872L19.26 339.888 19.26 331.932 27.216 335.916z" transform="translate(-35) translate(81.944)"/><path fill="url(#prefix__R)" fill-rule="nonzero" d="M68.892 303.876L60.936 307.86 52.98 303.876 60.936 299.892z" transform="translate(-35) translate(81.944)"/><path fill="url(#prefix__V)" fill-rule="nonzero" d="M68.892 311.832L60.936 315.816 60.936 307.86 68.892 303.876z" transform="translate(-35) translate(81.944)"/><path fill="url(#prefix__W)" fill-rule="nonzero" d="M60.936 315.816L52.98 311.832 52.98 303.876 60.936 307.86z" transform="translate(-35) translate(81.944)"/><path fill="url(#prefix__ac)" fill-rule="nonzero" d="M57.66 309.492L49.704 313.476 41.736 309.492 49.704 305.52z" transform="translate(-35) translate(81.944)"/><path fill="url(#prefix__S)" fill-rule="nonzero" d="M57.66 317.46L49.704 321.432 49.704 313.476 57.66 309.492z" transform="translate(-35) translate(81.944)"/><path fill="url(#prefix__af)" fill-rule="nonzero" d="M49.704 321.432L41.736 317.46 41.736 309.492 49.704 313.476z" transform="translate(-35) translate(81.944)"/><path fill="url(#prefix__aj)" fill-rule="nonzero" d="M46.416 315.12L38.46 319.104 30.504 315.12 38.46 311.136z" transform="translate(-35) translate(81.944)"/><path fill="url(#prefix__V)" fill-rule="nonzero" d="M46.416 323.076L38.46 327.06 38.46 319.104 46.416 315.12z" transform="translate(-35) translate(81.944)"/><path fill="url(#prefix__T)" fill-rule="nonzero" d="M38.46 327.06L30.504 323.076 30.504 315.12 38.46 319.104z" transform="translate(-35) translate(81.944)"/><path fill="#FFF7F0" fill-rule="nonzero" d="M35.184 320.736L27.216 324.72 19.26 320.736 27.216 316.764z" transform="translate(-35) translate(81.944)"/><path fill="#F0E8E1" fill-rule="nonzero" d="M35.184 328.692L27.216 332.676 27.216 324.72 35.184 320.736z" transform="translate(-35) translate(81.944)"/><path fill="#E7D5D8" fill-rule="nonzero" d="M27.216 332.676L19.26 328.692 19.26 320.736 27.216 324.72z" transform="translate(-35) translate(81.944)"/><path fill="#FFF7F0" fill-rule="nonzero" d="M68.808 292.68L60.852 296.664 52.884 292.68 60.852 288.696z" transform="translate(-35) translate(81.944)"/><path fill="#F0E8E1" fill-rule="nonzero" d="M68.808 300.636L60.852 304.62 60.852 296.664 68.808 292.68z" transform="translate(-35) translate(81.944)"/><path fill="#E7D5D8" fill-rule="nonzero" d="M60.852 304.62L52.884 300.636 52.884 292.68 60.852 296.664z" transform="translate(-35) translate(81.944)"/><path fill="#FFF7F0" fill-rule="nonzero" d="M57.564 298.308L49.608 302.28 41.652 298.308 49.608 294.324z" transform="translate(-35) translate(81.944)"/><path fill="#F0E8E1" fill-rule="nonzero" d="M57.564 306.264L49.608 310.236 49.608 302.28 57.564 298.308z" transform="translate(-35) translate(81.944)"/><path fill="#E7D5D8" fill-rule="nonzero" d="M49.608 310.236L41.652 306.264 41.652 298.308 49.608 302.28z" transform="translate(-35) translate(81.944)"/><path fill="#FFF7F0" fill-rule="nonzero" d="M46.32 303.924L38.364 307.908 30.408 303.924 38.364 299.94z" transform="translate(-35) translate(81.944)"/><path fill="#F0E8E1" fill-rule="nonzero" d="M46.32 311.88L38.364 315.864 38.364 307.908 46.32 303.924z" transform="translate(-35) translate(81.944)"/><path fill="#E7D5D8" fill-rule="nonzero" d="M38.364 315.864L30.408 311.88 30.408 303.924 38.364 307.908z" transform="translate(-35) translate(81.944)"/><path fill="#FFF7F0" fill-rule="nonzero" d="M35.088 309.54L27.132 313.524 19.164 309.54 27.132 305.568z" transform="translate(-35) translate(81.944)"/><path fill="#F0E8E1" fill-rule="nonzero" d="M35.088 317.508L27.132 321.48 27.132 313.524 35.088 309.54z" transform="translate(-35) translate(81.944)"/><path fill="#E7D5D8" fill-rule="nonzero" d="M27.132 321.48L19.164 317.508 19.164 309.54 27.132 313.524z" transform="translate(-35) translate(81.944)"/><path fill="url(#prefix__R)" fill-rule="nonzero" d="M80.076 331.836L72.12 335.82 64.164 331.836 72.12 327.852z" transform="translate(-35) translate(81.944)"/><path fill="url(#prefix__S)" fill-rule="nonzero" d="M80.076 339.792L72.12 343.776 72.12 335.82 80.076 331.836z" transform="translate(-35) translate(81.944)"/><path fill="url(#prefix__T)" fill-rule="nonzero" d="M72.12 343.776L64.164 339.792 64.164 331.836 72.12 335.82z" transform="translate(-35) translate(81.944)"/><path fill="url(#prefix__U)" fill-rule="nonzero" d="M68.832 337.452L60.876 341.436 52.92 337.452 60.876 333.48z" transform="translate(-35) translate(81.944)"/><path fill="url(#prefix__ad)" fill-rule="nonzero" d="M68.832 345.42L60.876 349.392 60.876 341.436 68.832 337.452z" transform="translate(-35) translate(81.944)"/><path fill="url(#prefix__ae)" fill-rule="nonzero" d="M60.876 349.392L52.92 345.42 52.92 337.452 60.876 341.436z" transform="translate(-35) translate(81.944)"/><path fill="url(#prefix__ab)" fill-rule="nonzero" d="M57.6 343.08L49.644 347.064 41.676 343.08 49.644 339.096z" transform="translate(-35) translate(81.944)"/><path fill="url(#prefix__S)" fill-rule="nonzero" d="M57.6 351.036L49.644 355.02 49.644 347.064 57.6 343.08z" transform="translate(-35) translate(81.944)"/><path fill="url(#prefix__af)" fill-rule="nonzero" d="M49.644 355.02L41.676 351.036 41.676 343.08 49.644 347.064z" transform="translate(-35) translate(81.944)"/><path fill="#FFF7F0" fill-rule="nonzero" d="M46.356 348.696L38.4 352.68 30.444 348.696 38.4 344.724z" transform="translate(-35) translate(81.944)"/><path fill="#F0E8E1" fill-rule="nonzero" d="M46.356 356.652L38.4 360.636 38.4 352.68 46.356 348.696z" transform="translate(-35) translate(81.944)"/><path fill="#E7D5D8" fill-rule="nonzero" d="M38.4 360.636L30.444 356.652 30.444 348.696 38.4 352.68z" transform="translate(-35) translate(81.944)"/><path fill="url(#prefix__U)" fill-rule="nonzero" d="M80.076 320.64L72.12 324.624 64.164 320.64 72.12 316.668z" transform="translate(-35) translate(81.944)"/><path fill="url(#prefix__S)" fill-rule="nonzero" d="M80.076 328.596L72.12 332.58 72.12 324.624 80.076 320.64z" transform="translate(-35) translate(81.944)"/><path fill="url(#prefix__T)" fill-rule="nonzero" d="M72.12 332.58L64.164 328.596 64.164 320.64 72.12 324.624z" transform="translate(-35) translate(81.944)"/><path fill="url(#prefix__U)" fill-rule="nonzero" d="M68.832 326.268L60.876 330.24 52.92 326.268 60.876 322.284z" transform="translate(-35) translate(81.944)"/><path fill="url(#prefix__V)" fill-rule="nonzero" d="M68.832 334.224L60.876 338.208 60.876 330.24 68.832 326.268z" transform="translate(-35) translate(81.944)"/><path fill="url(#prefix__W)" fill-rule="nonzero" d="M60.876 338.208L52.92 334.224 52.92 326.268 60.876 330.24z" transform="translate(-35) translate(81.944)"/><path fill="url(#prefix__ab)" fill-rule="nonzero" d="M57.6 331.884L49.644 335.868 41.676 331.884 49.644 327.9z" transform="translate(-35) translate(81.944)"/><path fill="url(#prefix__S)" fill-rule="nonzero" d="M57.6 339.84L49.644 343.824 49.644 335.868 57.6 331.884z" transform="translate(-35) translate(81.944)"/><path fill="url(#prefix__af)" fill-rule="nonzero" d="M49.644 343.824L41.676 339.84 41.676 331.884 49.644 335.868z" transform="translate(-35) translate(81.944)"/><path fill="#FFF7F0" fill-rule="nonzero" d="M46.356 337.512L38.4 341.484 30.444 337.512 38.4 333.528z" transform="translate(-35) translate(81.944)"/><path fill="#F0E8E1" fill-rule="nonzero" d="M46.356 345.468L38.4 349.44 38.4 341.484 46.356 337.512z" transform="translate(-35) translate(81.944)"/><path fill="#E7D5D8" fill-rule="nonzero" d="M38.4 349.44L30.444 345.468 30.444 337.512 38.4 341.484z" transform="translate(-35) translate(81.944)"/><path fill="url(#prefix__U)" fill-rule="nonzero" d="M80.076 309.456L72.12 313.428 64.164 309.456 72.12 305.472z" transform="translate(-35) translate(81.944)"/><path fill="url(#prefix__ak)" fill-rule="nonzero" d="M80.076 317.412L72.12 321.384 72.12 313.428 80.076 309.456z" transform="translate(-35) translate(81.944)"/><path fill="url(#prefix__ai)" fill-rule="nonzero" d="M72.12 321.384L64.164 317.412 64.164 309.456 72.12 313.428z" transform="translate(-35) translate(81.944)"/><path fill="url(#prefix__R)" fill-rule="nonzero" d="M68.832 315.072L60.876 319.056 52.92 315.072 60.876 311.088z" transform="translate(-35) translate(81.944)"/><path fill="url(#prefix__V)" fill-rule="nonzero" d="M68.832 323.028L60.876 327.012 60.876 319.056 68.832 315.072z" transform="translate(-35) translate(81.944)"/><path fill="url(#prefix__W)" fill-rule="nonzero" d="M60.876 327.012L52.92 323.028 52.92 315.072 60.876 319.056z" transform="translate(-35) translate(81.944)"/><path fill="url(#prefix__ac)" fill-rule="nonzero" d="M57.6 320.688L49.644 324.672 41.676 320.688 49.644 316.716z" transform="translate(-35) translate(81.944)"/><path fill="url(#prefix__S)" fill-rule="nonzero" d="M57.6 328.656L49.644 332.628 49.644 324.672 57.6 320.688z" transform="translate(-35) translate(81.944)"/><path fill="url(#prefix__af)" fill-rule="nonzero" d="M49.644 332.628L41.676 328.656 41.676 320.688 49.644 324.672z" transform="translate(-35) translate(81.944)"/><path fill="#FFF7F0" fill-rule="nonzero" d="M46.356 326.316L38.4 330.288 30.444 326.316 38.4 322.332z" transform="translate(-35) translate(81.944)"/><path fill="#F0E8E1" fill-rule="nonzero" d="M46.356 334.272L38.4 338.256 38.4 330.288 46.356 326.316z" transform="translate(-35) translate(81.944)"/><path fill="#E7D5D8" fill-rule="nonzero" d="M38.4 338.256L30.444 334.272 30.444 326.316 38.4 330.288z" transform="translate(-35) translate(81.944)"/><path fill="#FFF7F0" fill-rule="nonzero" d="M79.98 298.26L72.024 302.232 64.068 298.26 72.024 294.276z" transform="translate(-35) translate(81.944)"/><path fill="#F0E8E1" fill-rule="nonzero" d="M79.98 306.216L72.024 310.2 72.024 302.232 79.98 298.26z" transform="translate(-35) translate(81.944)"/><path fill="#E7D5D8" fill-rule="nonzero" d="M72.024 310.2L64.068 306.216 64.068 298.26 72.024 302.232z" transform="translate(-35) translate(81.944)"/><path fill="#FFF7F0" fill-rule="nonzero" d="M68.748 303.876L60.78 307.86 52.824 303.876 60.78 299.904z" transform="translate(-35) translate(81.944)"/><path fill="#F0E8E1" fill-rule="nonzero" d="M68.748 311.832L60.78 315.816 60.78 307.86 68.748 303.876z" transform="translate(-35) translate(81.944)"/><path fill="#E7D5D8" fill-rule="nonzero" d="M60.78 315.816L52.824 311.832 52.824 303.876 60.78 307.86z" transform="translate(-35) translate(81.944)"/><path fill="#FFF7F0" fill-rule="nonzero" d="M57.504 309.504L49.548 313.476 41.592 309.504 49.548 305.52z" transform="translate(-35) translate(81.944)"/><path fill="#F0E8E1" fill-rule="nonzero" d="M57.504 317.46L49.548 321.432 49.548 313.476 57.504 309.504z" transform="translate(-35) translate(81.944)"/><path fill="#E7D5D8" fill-rule="nonzero" d="M49.548 321.432L41.592 317.46 41.592 309.504 49.548 313.476z" transform="translate(-35) translate(81.944)"/><path fill="#FFF7F0" fill-rule="nonzero" d="M46.26 315.12L38.304 319.104 30.348 315.12 38.304 311.136z" transform="translate(-35) translate(81.944)"/><path fill="#F0E8E1" fill-rule="nonzero" d="M46.26 323.076L38.304 327.06 38.304 319.104 46.26 315.12z" transform="translate(-35) translate(81.944)"/><path fill="#E7D5D8" fill-rule="nonzero" d="M38.304 327.06L30.348 323.076 30.348 315.12 38.304 319.104z" transform="translate(-35) translate(81.944)"/><path fill="url(#prefix__al)" fill-rule="nonzero" d="M91.26 337.416L83.292 341.388 75.336 337.416 83.292 333.432z" transform="translate(-35) translate(81.944)"/><path fill="url(#prefix__am)" fill-rule="nonzero" d="M91.26 345.372L83.292 349.356 83.292 341.388 91.26 337.416z" transform="translate(-35) translate(81.944)"/><path fill="url(#prefix__aa)" fill-rule="nonzero" d="M83.292 349.356L75.336 345.372 75.336 337.416 83.292 341.388z" transform="translate(-35) translate(81.944)"/><path fill="url(#prefix__ab)" fill-rule="nonzero" d="M80.016 343.032L72.06 347.016 64.092 343.032 72.06 339.048z" transform="translate(-35) translate(81.944)"/><path fill="url(#prefix__S)" fill-rule="nonzero" d="M80.016 350.988L72.06 354.972 72.06 347.016 80.016 343.032z" transform="translate(-35) translate(81.944)"/><path fill="url(#prefix__af)" fill-rule="nonzero" d="M72.06 354.972L64.092 350.988 64.092 343.032 72.06 347.016z" transform="translate(-35) translate(81.944)"/><path fill="url(#prefix__U)" fill-rule="nonzero" d="M68.772 348.66L60.816 352.632 52.86 348.66 60.816 344.676z" transform="translate(-35) translate(81.944)"/><path fill="url(#prefix__an)" fill-rule="nonzero" d="M68.772 356.616L60.816 360.588 60.816 352.632 68.772 348.66z" transform="translate(-35) translate(81.944)"/><path fill="url(#prefix__ao)" fill-rule="nonzero" d="M60.816 360.588L52.86 356.616 52.86 348.66 60.816 352.632z" transform="translate(-35) translate(81.944)"/><path fill="#FFF7F0" fill-rule="nonzero" d="M57.54 354.276L49.572 358.26 41.616 354.276 49.572 350.292z" transform="translate(-35) translate(81.944)"/><path fill="#F0E8E1" fill-rule="nonzero" d="M57.54 362.232L49.572 366.216 49.572 358.26 57.54 354.276z" transform="translate(-35) translate(81.944)"/><path fill="#E7D5D8" fill-rule="nonzero" d="M49.572 366.216L41.616 362.232 41.616 354.276 49.572 358.26z" transform="translate(-35) translate(81.944)"/><path fill="url(#prefix__ap)" fill-rule="nonzero" d="M91.26 326.22L83.292 330.204 75.336 326.22 83.292 322.236z" transform="translate(-35) translate(81.944)"/><path fill="url(#prefix__Y)" fill-rule="nonzero" d="M91.26 334.176L83.292 338.16 83.292 330.204 91.26 326.22z" transform="translate(-35) translate(81.944)"/><path fill="url(#prefix__W)" fill-rule="nonzero" d="M83.292 338.16L75.336 334.176 75.336 326.22 83.292 330.204z" transform="translate(-35) translate(81.944)"/><path fill="url(#prefix__ac)" fill-rule="nonzero" d="M80.016 331.836L72.06 335.82 64.092 331.836 72.06 327.864z" transform="translate(-35) translate(81.944)"/><path fill="url(#prefix__S)" fill-rule="nonzero" d="M80.016 339.804L72.06 343.776 72.06 335.82 80.016 331.836z" transform="translate(-35) translate(81.944)"/><path fill="url(#prefix__af)" fill-rule="nonzero" d="M72.06 343.776L64.092 339.804 64.092 331.836 72.06 335.82z" transform="translate(-35) translate(81.944)"/><path fill="url(#prefix__U)" fill-rule="nonzero" d="M68.772 337.464L60.816 341.436 52.86 337.464 60.816 333.48z" transform="translate(-35) translate(81.944)"/><path fill="url(#prefix__V)" fill-rule="nonzero" d="M68.772 345.42L60.816 349.404 60.816 341.436 68.772 337.464z" transform="translate(-35) translate(81.944)"/><path fill="url(#prefix__T)" fill-rule="nonzero" d="M60.816 349.404L52.86 345.42 52.86 337.464 60.816 341.436z" transform="translate(-35) translate(81.944)"/><path fill="#FFF7F0" fill-rule="nonzero" d="M57.54 343.08L49.572 347.064 41.616 343.08 49.572 339.096z" transform="translate(-35) translate(81.944)"/><path fill="#F0E8E1" fill-rule="nonzero" d="M57.54 351.036L49.572 355.02 49.572 347.064 57.54 343.08z" transform="translate(-35) translate(81.944)"/><path fill="#E7D5D8" fill-rule="nonzero" d="M49.572 355.02L41.616 351.036 41.616 343.08 49.572 347.064z" transform="translate(-35) translate(81.944)"/><path fill="url(#prefix__Y)" fill-rule="nonzero" d="M91.26 322.98L83.292 326.964 83.292 319.008 91.26 315.024z" transform="translate(-35) translate(81.944)"/><path fill="url(#prefix__W)" fill-rule="nonzero" d="M83.292 326.964L75.336 322.98 75.336 315.024 83.292 319.008z" transform="translate(-35) translate(81.944)"/><path fill="url(#prefix__S)" fill-rule="nonzero" d="M80.016 328.608L72.06 332.58 72.06 324.624 80.016 320.64z" transform="translate(-35) translate(81.944)"/><path fill="url(#prefix__af)" fill-rule="nonzero" d="M72.06 332.58L64.092 328.608 64.092 320.64 72.06 324.624z" transform="translate(-35) translate(81.944)"/><path fill="url(#prefix__V)" fill-rule="nonzero" d="M68.772 334.224L60.816 338.208 60.816 330.252 68.772 326.268z" transform="translate(-35) translate(81.944)"/><path fill="url(#prefix__T)" fill-rule="nonzero" d="M60.816 338.208L52.86 334.224 52.86 326.268 60.816 330.252z" transform="translate(-35) translate(81.944)"/><path fill="#FFF7F0" fill-rule="nonzero" d="M57.54 331.884L49.572 335.868 41.616 331.884 49.572 327.912z" transform="translate(-35) translate(81.944)"/><path fill="#F0E8E1" fill-rule="nonzero" d="M57.54 339.84L49.572 343.824 49.572 335.868 57.54 331.884z" transform="translate(-35) translate(81.944)"/><path fill="#E7D5D8" fill-rule="nonzero" d="M49.572 343.824L41.616 339.84 41.616 331.884 49.572 335.868z" transform="translate(-35) translate(81.944)"/><path fill="#FFF7F0" fill-rule="nonzero" d="M91.164 303.828L83.208 307.812 75.24 303.828 83.208 299.856z" transform="translate(-35) translate(81.944)"/><path fill="#F0E8E1" fill-rule="nonzero" d="M91.164 311.784L83.208 315.768 83.208 307.812 91.164 303.828z" transform="translate(-35) translate(81.944)"/><path fill="#E7D5D8" fill-rule="nonzero" d="M83.208 315.768L75.24 311.784 75.24 303.828 83.208 307.812z" transform="translate(-35) translate(81.944)"/><path fill="#FFF7F0" fill-rule="nonzero" d="M79.92 309.456L71.964 313.428 64.008 309.456 71.964 305.472z" transform="translate(-35) translate(81.944)"/><path fill="#F0E8E1" fill-rule="nonzero" d="M79.92 317.412L71.964 321.396 71.964 313.428 79.92 309.456z" transform="translate(-35) translate(81.944)"/><path fill="#E7D5D8" fill-rule="nonzero" d="M71.964 321.396L64.008 317.412 64.008 309.456 71.964 313.428z" transform="translate(-35) translate(81.944)"/><path fill="#FFF7F0" fill-rule="nonzero" d="M68.676 315.072L60.72 319.056 52.764 315.072 60.72 311.1z" transform="translate(-35) translate(81.944)"/><path fill="#F0E8E1" fill-rule="nonzero" d="M68.676 323.028L60.72 327.012 60.72 319.056 68.676 315.072z" transform="translate(-35) translate(81.944)"/><path fill="#E7D5D8" fill-rule="nonzero" d="M60.72 327.012L52.764 323.028 52.764 315.072 60.72 319.056z" transform="translate(-35) translate(81.944)"/><path fill="#FFF7F0" fill-rule="nonzero" d="M57.444 320.7L49.488 324.672 41.52 320.7 49.488 316.716z" transform="translate(-35) translate(81.944)"/><path fill="#F0E8E1" fill-rule="nonzero" d="M57.444 328.656L49.488 332.628 49.488 324.672 57.444 320.7z" transform="translate(-35) translate(81.944)"/><path fill="#E7D5D8" fill-rule="nonzero" d="M49.488 332.628L41.52 328.656 41.52 320.7 49.488 324.672z" transform="translate(-35) translate(81.944)"/><path fill="url(#prefix__aq)" fill-rule="nonzero" d="M138.648 327.672L97.068 348.468 55.488 327.672 97.068 306.876z" transform="translate(-35) translate(81.944)"/><path fill="url(#prefix__Q)" fill-rule="nonzero" d="M138.648 369.264L97.068 390.06 97.068 348.468 138.648 327.672z" transform="translate(-35) translate(81.944)"/><path fill="url(#prefix__k)" fill-rule="nonzero" d="M97.068 390.06L55.488 369.264 55.488 327.672 97.068 348.468z" transform="translate(-35) translate(81.944)"/><path fill="#FFF" fill-rule="nonzero" d="M103.572 354.468c-.132.004-.248-.086-.277-.215-.029-.128.037-.26.157-.313l4.14-2.076c.143-.062.31-.005.384.132.033.067.037.144.012.214-.025.07-.077.127-.144.158l-4.14 2.076c-.04.02-.087.029-.132.024zM103.572 356.832c-.132.004-.248-.086-.277-.215-.029-.128.037-.26.157-.313l4.14-2.076c.143-.062.31-.005.384.132.061.14.003.302-.132.372l-4.14 2.076-.132.024zM103.572 359.196c-.132.004-.248-.086-.277-.215-.029-.128.037-.26.157-.313l4.14-2.076c.143-.062.31-.005.384.132.061.14.003.302-.132.372l-4.14 2.076-.132.024zM103.572 361.56c-.132.004-.248-.086-.277-.215-.029-.128.037-.26.157-.313l4.14-2.076c.143-.062.31-.005.384.132.061.14.003.302-.132.372l-4.14 2.076c-.04.02-.087.029-.132.024zM103.572 363.924c-.132.004-.248-.086-.277-.215-.029-.128.037-.26.157-.313l4.14-2.076c.143-.062.31-.005.384.132.061.14.003.302-.132.372l-4.14 2.076c-.04.02-.087.029-.132.024zM103.572 366.288c-.132.004-.248-.086-.277-.215-.029-.128.037-.26.157-.313l4.14-2.076c.143-.062.31-.005.384.132.061.14.003.302-.132.372l-4.14 2.076-.132.024zM103.572 368.652c-.132.004-.248-.086-.277-.215-.029-.128.037-.26.157-.313l4.14-2.076c.143-.062.31-.005.384.132.061.14.003.302-.132.372l-4.14 2.076-.132.024zM103.572 371.016c-.132.004-.248-.086-.277-.215-.029-.128.037-.26.157-.313l4.14-2.076c.143-.062.31-.005.384.132.061.14.003.302-.132.372l-4.14 2.076-.132.024zM103.572 373.38c-.105-.006-.2-.065-.252-.156-.061-.14-.003-.302.132-.372l4.14-2.076c.143-.062.31-.005.384.132.061.14.003.302-.132.372l-4.14 2.076-.132.024zM103.572 375.744c-.105-.006-.2-.065-.252-.156-.061-.14-.003-.302.132-.372l4.14-2.076c.143-.062.31-.005.384.132.061.14.003.302-.132.372l-4.14 2.076-.132.024zM103.572 378.108c-.105-.006-.2-.065-.252-.156-.033-.067-.037-.144-.012-.214.025-.07.077-.127.144-.158l4.14-2.076c.143-.062.31-.005.384.132.061.14.003.302-.132.372l-4.14 2.076-.132.024zM111.456 350.532c-.107.001-.205-.06-.252-.156-.07-.143-.01-.314.132-.384l5.712-2.856c.067-.033.144-.037.214-.012.07.025.127.077.158.144.037.065.045.142.022.213-.023.07-.074.128-.142.159l-5.7 2.856c-.044.025-.094.037-.144.036zM111.456 352.896c-.107.001-.205-.06-.252-.156-.07-.143-.01-.314.132-.384l5.712-2.856c.067-.033.144-.037.214-.012.07.025.127.077.158.144.037.065.045.142.022.213-.023.07-.074.128-.142.159l-5.7 2.856c-.044.025-.094.037-.144.036zM111.456 355.26c-.107.001-.205-.06-.252-.156-.07-.143-.01-.314.132-.384l4.14-2.064c.065-.034.141-.04.21-.017.07.022.129.072.162.137.07.14.018.31-.12.384l-4.128 2.064c-.044.025-.094.037-.144.036zM111.456 357.624c-.107.001-.205-.06-.252-.156-.07-.143-.01-.314.132-.384l1.776-.888c.14-.061.302-.003.372.132.034.065.04.141.017.21-.022.07-.072.129-.137.162l-1.776.888c-.04.023-.086.035-.132.036zM111.456 359.988c-.107.001-.205-.06-.252-.156-.07-.143-.01-.314.132-.384l4.14-2.064c.065-.034.141-.04.21-.017.07.022.129.072.162.137.07.14.018.31-.12.384l-4.128 2.064c-.044.025-.094.037-.144.036zM111.456 362.352c-.107.001-.205-.06-.252-.156-.07-.143-.01-.314.132-.384l1.776-.888c.14-.061.302-.003.372.132.034.065.04.141.017.21-.022.07-.072.129-.137.162l-1.776.888c-.04.023-.086.035-.132.036zM111.456 364.716c-.107.001-.205-.06-.252-.156-.07-.143-.01-.314.132-.384l1.776-.888c.14-.061.302-.003.372.132.034.065.04.141.017.21-.022.07-.072.129-.137.162l-1.764.888c-.044.025-.094.037-.144.036zM111.456 367.08c-.107.001-.205-.06-.252-.156-.07-.143-.01-.314.132-.384l7.284-3.6c.143-.062.31-.005.384.132.036.066.043.145.018.216-.026.07-.08.128-.15.156l-7.284 3.6c-.04.023-.086.035-.132.036zM111.456 369.444c-.107.001-.205-.06-.252-.156-.07-.143-.01-.314.132-.384l7.284-3.6c.143-.062.31-.005.384.132.036.066.043.145.018.216-.026.07-.08.128-.15.156l-7.284 3.6c-.04.023-.086.035-.132.036zM111.456 371.808c-.107.001-.205-.06-.252-.156-.07-.143-.01-.314.132-.384l4.92-2.46c.14-.07.31-.018.384.12.07.143.01.314-.132.384l-4.908 2.46c-.044.025-.094.037-.144.036zM111.456 374.172c-.107.001-.205-.06-.252-.156-.07-.143-.01-.314.132-.384l9.6-4.8c.14-.07.31-.018.384.12.07.143.01.314-.132.384l-9.6 4.8c-.04.023-.086.035-.132.036zM118.548 346.98c-.105.007-.204-.05-.252-.144-.07-.14-.018-.31.12-.384l2.568-1.284c.14-.07.31-.018.384.12.07.143.01.314-.132.384l-2.556 1.284c-.041.02-.087.027-.132.024zM118.548 349.344c-.108.005-.208-.057-.252-.156-.034-.065-.04-.141-.017-.21.022-.07.072-.129.137-.162l2.568-1.284c.14-.07.31-.018.384.12.07.143.01.314-.132.384l-2.556 1.284c-.041.02-.087.028-.132.024zM116.976 352.5c-.107.001-.205-.06-.252-.156-.034-.065-.04-.141-.017-.21.022-.07.072-.129.137-.162l6.504-3.252c.066-.037.145-.046.218-.023.073.023.133.074.166.143.07.143.01.314-.132.384l-6.504 3.252-.12.024zM114.612 356.052c-.107.001-.205-.06-.252-.156-.07-.14-.018-.31.12-.384l5.724-2.856c.065-.034.141-.04.21-.017.07.022.129.072.162.137.07.14.018.31-.12.384l-5.724 2.856c-.036.023-.077.035-.12.036zM116.976 357.228c-.107.001-.205-.06-.252-.156-.034-.065-.04-.141-.017-.21.022-.07.072-.129.137-.162l6.504-3.264c.143-.062.31-.005.384.132.036.066.043.145.018.216-.026.07-.08.128-.15.156l-6.504 3.264-.12.024zM114.612 360.78c-.107.001-.205-.06-.252-.156-.07-.14-.018-.31.12-.384l6.504-3.252c.14-.07.31-.018.384.12.07.143.01.314-.132.384l-6.504 3.252c-.036.023-.077.035-.12.036zM114.612 363.144c-.107.001-.205-.06-.252-.156-.07-.14-.018-.31.12-.384l6.504-3.252c.14-.07.31-.018.384.12.07.143.01.314-.132.384l-6.504 3.252c-.036.023-.077.035-.12.036zM120.12 362.748c-.128-.008-.235-.1-.263-.225-.028-.125.03-.253.143-.315l4.14-2.064c.065-.037.142-.045.213-.022.07.023.128.074.159.142.037.066.046.145.023.218-.023.073-.074.133-.143.166l-4.14 2.064c-.04.023-.086.035-.132.036zM120.12 365.112c-.128-.008-.235-.1-.263-.225-.028-.125.03-.253.143-.315l4.14-2.064c.065-.037.142-.045.213-.022.07.023.128.074.159.142.037.066.046.145.023.218-.023.073-.074.133-.143.166l-4.14 2.064c-.04.023-.086.035-.132.036zM117.756 368.652c-.106-.001-.203-.061-.252-.156-.033-.067-.037-.144-.012-.214.025-.07.077-.127.144-.158l6.504-3.252c.065-.034.141-.04.21-.017.07.022.129.072.162.137.037.066.046.145.023.218-.023.073-.074.133-.143.166l-6.504 3.252-.132.024zM122.484 368.652c-.106-.001-.203-.061-.252-.156-.033-.067-.037-.144-.012-.214.025-.07.077-.127.144-.158l1.776-.888c.065-.037.142-.045.213-.022.07.023.128.074.159.142.037.066.046.145.023.218-.023.073-.074.133-.143.166l-1.776.888-.132.024zM122.484 345c-.106-.001-.203-.061-.252-.156-.033-.067-.037-.144-.012-.214.025-.07.077-.127.144-.158l2.568-1.284c.065-.034.141-.04.21-.017.07.022.129.072.162.137.07.14.018.31-.12.384L122.616 345h-.132zM122.484 347.4c-.106-.001-.203-.061-.252-.156-.033-.067-.037-.144-.012-.214.025-.07.077-.127.144-.158l2.568-1.284c.065-.034.141-.04.21-.017.07.022.129.072.162.137.07.14.018.31-.12.384l-2.568 1.308h-.132zM124.8 348.6c-.128-.008-.235-.1-.263-.225-.028-.125.03-.253.143-.315l4.14-2.064c.065-.037.142-.045.213-.022.07.023.128.074.159.142.037.066.046.145.023.218-.023.073-.074.133-.143.166l-4.14 2.064c-.04.023-.086.035-.132.036zM121.704 352.5c-.107.001-.205-.06-.252-.156-.034-.065-.04-.141-.017-.21.022-.07.072-.129.137-.162l7.296-3.6c.065-.037.142-.045.213-.022.07.023.128.074.159.142.037.066.046.145.023.218-.023.073-.074.133-.143.166l-7.296 3.6-.12.024zM124.8 353.292c-.128-.008-.235-.1-.263-.225-.028-.125.03-.253.143-.315l4.14-2.064c.065-.034.141-.04.21-.017.07.022.129.072.162.137.037.066.046.145.023.218-.023.073-.074.133-.143.166l-4.14 2.064c-.04.023-.086.035-.132.036zM122.484 356.832c-.106-.001-.203-.061-.252-.156-.033-.067-.037-.144-.012-.214.025-.07.077-.127.144-.158l4.14-2.076c.067-.033.144-.037.214-.012.07.025.127.077.158.144.037.065.045.142.022.213-.023.07-.074.128-.142.159l-4.14 2.076-.132.024zM122.484 359.196c-.106-.001-.203-.061-.252-.156-.033-.067-.037-.144-.012-.214.025-.07.077-.127.144-.158l4.14-2.076c.067-.033.144-.037.214-.012.07.025.127.077.158.144.037.065.045.142.022.213-.023.07-.074.128-.142.159l-4.14 2.076-.132.024zM125.64 359.988c-.107.001-.205-.06-.252-.156-.07-.14-.018-.31.12-.384l4.152-2.064c.065-.034.141-.04.21-.017.07.022.129.072.162.137.07.14.018.31-.12.384l-4.152 2.064c-.035.024-.077.037-.12.036zM125.64 362.352c-.107.001-.205-.06-.252-.156-.07-.14-.018-.31.12-.384l4.152-2.064c.065-.034.141-.04.21-.017.07.022.129.072.162.137.07.14.018.31-.12.384l-4.152 2.064c-.035.024-.077.037-.12.036zM125.64 364.716c-.107.001-.205-.06-.252-.156-.07-.14-.018-.31.12-.384l2.568-1.284c.143-.062.31-.005.384.132.033.067.037.144.012.214-.025.07-.077.127-.144.158l-2.568 1.284c-.035.024-.077.037-.12.036zM125.64 367.08c-.107.001-.205-.06-.252-.156-.07-.14-.018-.31.12-.384l2.568-1.284c.143-.062.31-.005.384.132.033.067.037.144.012.214-.025.07-.077.127-.144.158l-2.568 1.284c-.035.024-.077.037-.12.036zM126.432 343.044c-.107.001-.205-.06-.252-.156-.034-.065-.04-.141-.017-.21.022-.07.072-.129.137-.162l5.724-2.868c.14-.061.302-.003.372.132.034.065.04.141.017.21-.022.07-.072.129-.137.162l-5.724 2.868-.12.024zM126.432 345.408c-.107.001-.205-.06-.252-.156-.07-.14-.018-.31.12-.384l5.724-2.856c.14-.061.302-.003.372.132.034.065.04.141.017.21-.022.07-.072.129-.137.162l-5.724 2.868-.12.024zM130.368 345.804c-.107.001-.205-.06-.252-.156-.07-.14-.018-.31.12-.384l1.788-.888c.14-.061.302-.003.372.132.034.065.04.141.017.21-.022.07-.072.129-.137.162l-1.788.888c-.036.023-.077.035-.12.036zM130.368 348.168c-.107.001-.205-.06-.252-.156-.07-.14-.018-.31.12-.384l1.788-.888c.14-.061.302-.003.372.132.034.065.04.141.017.21-.022.07-.072.129-.137.162l-1.788.888c-.036.023-.077.035-.12.036zM130.368 350.532c-.107.001-.205-.06-.252-.156-.07-.14-.018-.31.12-.384l1.788-.888c.14-.061.302-.003.372.132.034.065.04.141.017.21-.022.07-.072.129-.137.162l-1.788.888c-.036.023-.077.035-.12.036zM128.004 354.072c-.108.005-.208-.057-.252-.156-.034-.065-.04-.141-.017-.21.022-.07.072-.129.137-.162l4.152-2.076c.14-.061.302-.003.372.132.034.065.04.141.017.21-.022.07-.072.129-.137.162l-4.152 2.076-.12.024zM128.004 356.436c-.108.005-.208-.057-.252-.156-.034-.065-.04-.141-.017-.21.022-.07.072-.129.137-.162l4.152-2.076c.14-.061.302-.003.372.132.034.065.04.141.017.21-.022.07-.072.129-.137.162l-4.152 2.076-.12.024zM131.16 357.228c-.13-.003-.242-.093-.273-.22-.03-.126.027-.257.141-.32l.996-.492c.14-.061.302-.003.372.132.034.065.04.141.017.21-.022.07-.072.129-.137.162l-.996.492c-.036.023-.077.035-.12.036zM131.16 359.592c-.13-.003-.242-.093-.273-.22-.03-.126.027-.257.141-.32l.996-.492c.14-.061.302-.003.372.132.034.065.04.141.017.21-.022.07-.072.129-.137.162l-.996.492c-.036.023-.077.035-.12.036zM129.6 362.748c-.128-.008-.235-.1-.263-.225-.028-.125.03-.253.143-.315l2.568-1.284c.14-.061.302-.003.372.132.034.065.04.141.017.21-.022.07-.072.129-.137.162l-2.568 1.284c-.04.023-.086.035-.132.036zM129.6 365.112c-.128-.008-.235-.1-.263-.225-.028-.125.03-.253.143-.315l2.568-1.284c.14-.061.302-.003.372.132.034.065.04.141.017.21-.022.07-.072.129-.137.162l-2.568 1.284c-.04.023-.086.035-.132.036z" transform="translate(-35) translate(81.944)"/><path fill="#F5E48C" d="M186.24 351.468L144.648 372.276 103.068 351.468 144.648 330.672z" transform="translate(-35) translate(81.944)"/><path fill="#F5E48C" d="M186.24 393.06L144.648 413.856 144.648 372.276 186.24 351.468z" transform="translate(-35) translate(81.944)"/><path fill="url(#prefix__ar)" d="M144.648 413.856L103.068 393.06 103.068 351.468 144.648 372.276z" transform="translate(-35) translate(81.944)"/><path fill="#FFF" fill-rule="nonzero" d="M152.4 373.068c-1.73.91-2.877 2.637-3.048 4.584 0 1.68 1.368 2.4 3.048 1.524 1.734-.907 2.887-2.635 3.06-4.584-.048-1.692-1.416-2.376-3.06-1.524zm0 8.724c-1.73.91-2.877 2.637-3.048 4.584 0 1.692 1.368 2.4 3.048 1.524 1.735-.906 2.889-2.634 3.06-4.584-.048-1.68-1.416-2.316-3.06-1.524zm0 17.46c-1.73.91-2.877 2.637-3.048 4.584 0 1.68 1.368 2.4 3.048 1.524 1.735-.906 2.889-2.634 3.06-4.584-.048-1.692-1.416-2.376-3.06-1.524zm0-8.736c-1.725.916-2.87 2.64-3.048 4.584 0 1.692 1.368 2.4 3.048 1.536 1.73-.91 2.883-2.636 3.06-4.584-.048-1.692-1.416-2.376-3.06-1.536zm8.676-13.116c-1.725.916-2.87 2.64-3.048 4.584 0 1.692 1.368 2.4 3.048 1.524 1.732-.904 2.885-2.626 3.06-4.572 0-1.668-1.368-2.352-3.06-1.536zm0 17.46c-1.73.91-2.877 2.637-3.048 4.584 0 1.68 1.368 2.4 3.048 1.524 1.735-.906 2.889-2.634 3.06-4.584 0-1.656-1.368-2.34-3.06-1.5v-.024zm0-8.724c-1.726.908-2.873 2.63-3.048 4.572 0 1.692 1.368 2.4 3.048 1.536 1.73-.91 2.883-2.636 3.06-4.584 0-1.668-1.368-2.352-3.06-1.5v-.024zm0-17.46c-1.73.91-2.877 2.637-3.048 4.584 0 1.68 1.368 2.4 3.048 1.524 1.735-.906 2.889-2.634 3.06-4.584 0-1.656-1.368-2.34-3.06-1.5v-.024zm8.736-4.368c-1.735.906-2.889 2.634-3.06 4.584 0 1.692 1.368 2.4 3.06 1.524 1.73-.91 2.877-2.637 3.048-4.584 0-1.632-1.368-2.34-3.048-1.5v-.024zm0 8.736c-1.72.92-2.855 2.651-3.012 4.596 0 1.692 1.368 2.4 3.06 1.536 1.725-.916 2.87-2.64 3.048-4.584-.048-1.692-1.416-2.376-3.096-1.524v-.024zm0 17.448c-1.73.91-2.883 2.636-3.06 4.584 0 1.692 1.368 2.4 3.06 1.524 1.73-.91 2.877-2.637 3.048-4.584 0-1.656-1.368-2.34-3.048-1.5v-.024zm0-8.724c-1.735.906-2.889 2.634-3.06 4.584 0 1.68 1.368 2.4 3.06 1.524 1.73-.91 2.877-2.637 3.048-4.584 0-1.656-1.368-2.292-3.048-1.5v-.024zm8.724-13.092c-1.73.91-2.877 2.637-3.048 4.584 0 1.68 1.368 2.4 3.048 1.524 1.735-.906 2.889-2.634 3.06-4.584 0-1.668-1.368-2.4-3.06-1.5v-.024zm0-2.616c1.73-.91 2.883-2.636 3.06-4.584 0-1.692-1.368-2.4-3.06-1.536-1.725.916-2.87 2.64-3.048 4.584 0 1.716 1.368 2.4 3.048 1.56v-.024zm0 11.34c-1.73.91-2.877 2.637-3.048 4.584 0 1.692 1.368 2.4 3.048 1.524 1.735-.906 2.889-2.634 3.06-4.584 0-1.656-1.368-2.34-3.06-1.524zm0 8.724c-1.725.916-2.87 2.64-3.048 4.584 0 1.692 1.368 2.4 3.048 1.536 1.73-.91 2.883-2.636 3.06-4.584 0-1.668-1.368-2.352-3.06-1.512v-.024zM133.896 374.592c.173 1.95 1.326 3.677 3.06 4.584 1.68.84 3.048.156 3.048-1.524-.17-1.947-1.319-3.673-3.048-4.584-1.692-.852-3.06-.168-3.06 1.524zm0 8.724c.171 1.95 1.325 3.678 3.06 4.584 1.68.84 3.048.168 3.048-1.524-.17-1.947-1.319-3.673-3.048-4.584-1.692-.792-3.06-.156-3.06 1.524zm0 17.46c.171 1.95 1.325 3.678 3.06 4.584 1.68.84 3.048.156 3.048-1.524-.17-1.947-1.319-3.673-3.048-4.584-1.692-.852-3.06-.168-3.06 1.524zm0-8.724c.177 1.948 1.33 3.673 3.06 4.584 1.68.84 3.048.156 3.048-1.536-.177-1.945-1.323-3.668-3.048-4.584-1.692-.84-3.06-.156-3.06 1.536zm-8.724-13.092c.175 1.942 1.322 3.664 3.048 4.572 1.692.852 3.06.168 3.06-1.524-.177-1.948-1.33-3.673-3.06-4.584-1.68-.84-3.048-.156-3.048 1.536zm0 17.448c.17 1.947 1.319 3.673 3.048 4.584 1.692.84 3.06.156 3.06-1.524-.171-1.95-1.325-3.678-3.06-4.584-1.68-.84-3.048-.156-3.048 1.524zm0-8.724c.177 1.945 1.323 3.668 3.048 4.584 1.692.84 3.06.156 3.06-1.536-.175-1.946-1.328-3.668-3.06-4.572-1.68-.852-3.048-.168-3.048 1.524zm0-17.46c.17 1.947 1.319 3.673 3.048 4.584 1.692.84 3.06.156 3.06-1.524-.171-1.95-1.325-3.678-3.06-4.584-1.68-.84-3.048-.156-3.048 1.5v.024zm-8.772-4.368c.171 1.95 1.325 3.678 3.06 4.584 1.692.852 3.06.168 3.06-1.524-.171-1.95-1.325-3.678-3.06-4.584-1.656-.84-3.06-.132-3.06 1.524zm0 8.736c.177 1.948 1.33 3.673 3.06 4.584 1.692.84 3.06.156 3.06-1.536-.175-1.946-1.328-3.668-3.06-4.572-1.656-.852-3.06-.168-3.06 1.524zm0 17.448c.186 1.949 1.353 3.668 3.096 4.56 1.692.852 3.06.168 3.06-1.524-.177-1.948-1.33-3.673-3.06-4.584-1.692-.816-3.096-.132-3.096 1.548zm0-8.724c.171 1.95 1.325 3.678 3.06 4.584 1.692.84 3.06.156 3.06-1.524-.171-1.95-1.325-3.678-3.06-4.584-1.656-.792-3.06-.156-3.06 1.524zm-8.688-13.116c.171 1.95 1.325 3.678 3.06 4.584 1.68.84 3.048.156 3.048-1.524-.17-1.947-1.319-3.673-3.048-4.584-1.692-.876-3.06-.144-3.06 1.524zm6.108-5.676c-.177-1.945-1.323-3.668-3.048-4.584-1.692-.84-3.06-.156-3.06 1.536.177 1.948 1.33 3.673 3.06 4.584 1.68.864 3.048.18 3.048-1.512v-.024zm-6.108 14.4c.171 1.95 1.325 3.678 3.06 4.584 1.68.852 3.048.168 3.048-1.524-.17-1.947-1.319-3.673-3.048-4.584-1.692-.816-3.06-.132-3.06 1.548v-.024zm0 8.736c.177 1.948 1.33 3.673 3.06 4.584 1.68.84 3.048.156 3.048-1.536-.177-1.945-1.323-3.668-3.048-4.584-1.692-.816-3.06-.132-3.06 1.56v-.024z" transform="translate(-35) translate(81.944)"/><path fill="url(#prefix__as)" fill-rule="nonzero" d="M97.2 306.972L138.744 327.672 150.876 327.672 192.336 306.972 192.564 14.672 97.2 14.672z" opacity=".611" transform="translate(-35) translate(81.944)"/><path fill="#FFF" fill-rule="nonzero" d="M131.304 130.5L130.74 130.272 150.684 82.056 123.372 7.476 123.936 7.26 151.32 82.068z" transform="translate(-35) translate(81.944)"/><path fill="#FFF" fill-rule="nonzero" d="M159.454 182.245H160.454V219.949H159.454z" transform="translate(-35) translate(81.944) rotate(-50.26 159.754 201.097)"/><path fill="#FFF" fill-rule="nonzero" d="M156.708 141.54L130.908 130.656 131.136 130.104 156.948 140.988z" transform="translate(-35) translate(81.944)"/><path fill="#FFF" fill-rule="nonzero" d="M126.461 164.875H175.649V165.875H126.461z" transform="translate(-35) translate(81.944) rotate(-76.46 151.055 165.175)"/><path fill="url(#prefix__at)" fill-rule="nonzero" d="M167.22 209.664L174.252 213.18 181.332 209.64 174.3 206.124z" transform="translate(-35) translate(81.944)"/><path fill="url(#prefix__au)" fill-rule="nonzero" d="M167.22 216.744L174.252 220.26 174.252 213.18 167.22 209.664z" transform="translate(-35) translate(81.944)"/><path fill="url(#prefix__av)" fill-rule="nonzero" d="M174.252 220.26L181.332 216.72 181.332 209.64 174.252 213.18z" transform="translate(-35) translate(81.944)"/><path fill="url(#prefix__at)" fill-rule="nonzero" d="M123.996 126.864L131.028 130.38 138.108 126.84 131.076 123.324z" transform="translate(-35) translate(81.944)"/><path fill="url(#prefix__aw)" fill-rule="nonzero" d="M123.996 133.956L131.028 137.472 131.028 130.38 123.996 126.864z" transform="translate(-35) translate(81.944)"/><path fill="url(#prefix__ax)" fill-rule="nonzero" d="M131.028 137.472L138.108 133.932 138.108 126.84 131.028 130.38z" transform="translate(-35) translate(81.944)"/><path fill="url(#prefix__at)" fill-rule="nonzero" d="M116.628 3.852L123.66 7.368 130.74 3.828 123.708 0.312z" transform="translate(-35) translate(81.944)"/><path fill="url(#prefix__au)" fill-rule="nonzero" d="M116.628 10.932L123.66 14.448 123.66 7.368 116.628 3.852z" transform="translate(-35) translate(81.944)"/><path fill="url(#prefix__av)" fill-rule="nonzero" d="M123.66 14.448L130.74 10.908 130.74 3.828 123.66 7.368z" transform="translate(-35) translate(81.944)"/><path fill="#F5C25B" fill-rule="nonzero" d="M163.86 137.748L156.828 141.264 149.748 137.724 156.78 134.208z" transform="translate(-35) translate(81.944)"/><path fill="#F5E48C" fill-rule="nonzero" d="M163.86 144.828L156.828 148.356 156.828 141.264 163.86 137.748z" transform="translate(-35) translate(81.944)"/><path fill="url(#prefix__ay)" fill-rule="nonzero" d="M156.828 148.356L149.748 144.804 149.748 137.724 156.828 141.264z" transform="translate(-35) translate(81.944)"/><path fill="#FFF" fill-rule="nonzero" d="M138.072 185.472L145.104 189 152.196 185.448 145.164 181.932z" transform="translate(-35) translate(81.944)"/><path fill="url(#prefix__az)" fill-rule="nonzero" d="M138.072 192.564L145.104 196.08 145.104 189 138.072 185.472z" transform="translate(-35) translate(81.944)"/><path fill="url(#prefix__aA)" fill-rule="nonzero" d="M145.104 196.08L152.196 192.54 152.196 185.448 145.104 189z" transform="translate(-35) translate(81.944)"/><path fill="#FFF" fill-rule="nonzero" d="M143.976 78.54L151.008 82.056 158.088 78.516 151.056 75z" transform="translate(-35) translate(81.944)"/><path fill="url(#prefix__aB)" fill-rule="nonzero" d="M143.976 85.632L151.008 89.148 151.008 82.056 143.976 78.54z" transform="translate(-35) translate(81.944)"/><path fill="url(#prefix__aC)" fill-rule="nonzero" d="M151.008 89.148L158.088 85.596 158.088 78.516 151.008 82.056z" transform="translate(-35) translate(81.944)"/><path fill="#FFF" fill-rule="nonzero" d="M26.184 177.972c-2.196 1.092-2.556-.444-2.904-1.944-.396-1.716-.804-3.492-3.864-1.956-.132.072-.252 0-.252-.12.017-.155.112-.291.252-.36 3.456-1.728 3.948.396 4.344 2.1.348 1.512.624 2.7 2.4 1.8.132-.072.24 0 .24.12-.007.149-.088.284-.216.36zM19.416 193.608c-.132 0-.252 0-.252-.132.02-.154.115-.288.252-.36 3.06-1.524 3.468-3.72 3.864-5.832.348-1.836.708-3.732 2.904-4.8.132 0 .24 0 .24.12-.015.156-.104.294-.24.372-1.8.888-2.076 2.4-2.4 4.212-.42 2.064-.912 4.68-4.368 6.42zM45.66 168.228c-.132.072-.24 0-.24-.12.012-.153.103-.29.24-.36 1.8-.9 2.076-2.4 2.4-4.224.396-2.1.888-4.716 4.344-6.444.132-.072.24 0 .24.12-.016.152-.106.286-.24.36-3.06 1.536-3.468 3.72-3.864 5.832-.324 1.836-.684 3.744-2.88 4.836zM52.428 177.084c-3.456 1.728-3.948-.396-4.344-2.1-.348-1.512-.624-2.688-2.4-1.8-.132.072-.24 0-.24-.12.016-.152.106-.286.24-.36 2.196-1.092 2.556.444 2.904 1.944.396 1.716.804 3.492 3.864 1.956.132 0 .24 0 .24.12-.017.159-.118.296-.264.36z" transform="translate(-35) translate(81.944)"/><path fill="#FFF" fill-rule="nonzero" d="M18.48 176.808L.924 185.58c-.504.264-.924 0-.924-.456v-3.168c.066-.576.412-1.083.924-1.356l17.556-8.784c.516-.252.936 0 .936.468v3.168c-.07.578-.42 1.085-.936 1.356zM53.364 173.868l17.556-8.772c.504-.264.924 0 .924.456v3.168c-.053.59-.4 1.114-.924 1.392l-17.556 8.784c-.516.252-.936 0-.936-.468v-3.168c.06-.591.41-1.114.936-1.392zM55.392 165.972L16.524 185.4c-.132.06-.24 0-.24-.12.013-.156.103-.296.24-.372l38.868-19.428c.132-.072.24 0 .24.12-.008.158-.1.3-.24.372z" transform="translate(-35) translate(81.944)"/><path fill="#FFF" fill-rule="nonzero" d="M45.66 173.952L26.256 183.66 26.256 176.748 45.66 167.04zM58.8 160.428c-1.924 1.014-3.203 2.934-3.396 5.1 0 1.884 1.524 2.64 3.396 1.704 1.93-1.009 3.214-2.93 3.408-5.1-.012-1.932-1.536-2.64-3.408-1.704zM39.024 158.064l-17.556 8.784c-.516.252-.924 0-.924-.468v-3.168c.053-.59.4-1.114.924-1.392L39.024 153c.516-.264.924 0 .924.456v3.168c-.032.61-.383 1.157-.924 1.44z" transform="translate(-35) translate(81.944)"/><path fill="#FFF" fill-rule="nonzero" d="M35.208 172.884L30.84 161.52 31.308 161.136 35.676 172.488z" transform="translate(-35) translate(81.944)"/><path fill="url(#prefix__aD)" fill-rule="nonzero" d="M146.688 365.004L90.624 364.896 90.624 347.304 168.72 347.712 164.088 348.084 150.636 352.668 143.904 361.896z" transform="translate(-35) translate(81.944)" style="mix-blend-mode:multiply"/><path fill="#37384F" fill-rule="nonzero" d="M143.688 339l-4.44 3.108 1.62 6.684c5.64.948 14.172 0 20.52-.9 1.344-1.836 2.604-4.692.132-5.292l-17.832-3.6z" transform="translate(-35) translate(81.944)"/><path fill="#37384F" fill-rule="nonzero" d="M161.484 347.736l-17.58 14.16c-.54.384-1.524-.216-1.116-.732 4.8-7.56 9.6-14.94 14.832-17.856l3.864 4.428z" transform="translate(-35) translate(81.944)"/><path fill="#37384F" fill-rule="nonzero" d="M142.512 361.8l3.6 3.228c.175.165.449.165.624 0 .12-.156.12-.372 0-.528L144 360.36c-.072-.114-.193-.187-.327-.2-.134-.01-.266.04-.357.14l-.816.9c-.158.17-.153.436.012.6z" transform="translate(-35) translate(81.944)"/><path fill="#0983E2" fill-rule="nonzero" d="M150.072 339.132L147.636 331.452 144.972 332.832 149.316 340.116zM144.972 332.832s-.612-8.04.264-12.6l5.256-.636-2.892 11.856-2.628 1.38z" transform="translate(-35) translate(81.944)"/><path fill="#4C4E6E" fill-rule="nonzero" d="M139.2 342.06l-7.284-.708.132 7.2c2.94 2.628 7.38 4.956 11.784 6.996l4.344-5.136-8.976-8.352z" transform="translate(-35) translate(81.944)"/><path fill="#B6D1FA" fill-rule="nonzero" d="M156.012 342.864L145.572 348.948 138.852 345.072 149.292 338.988z" transform="translate(-35) translate(81.944)"/><path fill="#37384F" fill-rule="nonzero" d="M156.012 342.864L145.572 348.948 151.104 343.236 161.544 337.152z" transform="translate(-35) translate(81.944)"/><path fill="#0983E2" fill-rule="nonzero" d="M132 332.736l-.168 8.616c1.344 2.868 12.504.66 12.792-2.076l-1.02-8.184L132 332.736z" transform="translate(-35) translate(81.944)"/><path fill="#0983E2" fill-rule="nonzero" d="M143.904 336.348c1.2-3.42 7.2-16.092 6.696-18-2.58-2.232-13.308-.504-16.236 3.156l-2.4 11.256 11.94 3.588z" transform="translate(-35) translate(81.944)"/><path fill="#4C4E6E" fill-rule="nonzero" d="M168.72 347.712l-3.984.528c-.375.042-.741-.135-.942-.455-.2-.32-.2-.726 0-1.046.2-.32.567-.497.942-.455l3.984.528c.22.036.382.227.382.45s-.162.414-.382.45z" transform="translate(-35) translate(81.944)"/><path fill="#4C4E6E" fill-rule="nonzero" d="M164.052 346.536l-17.652 2.232-2.604 6.744c7.432-1.13 14.549-3.785 20.904-7.8.528-.408.012-1.248-.648-1.176z" transform="translate(-35) translate(81.944)"/><path fill="#F4ACC8" fill-rule="nonzero" d="M144.912 317.136L143.508 321.048 141.036 318.144 143.064 315z" transform="translate(-35) translate(81.944)"/><path fill="#F4ACC8" fill-rule="nonzero" d="M146.148 318.012c-.3.624-1.2.852-2.124-.204l-.9-1.656.18-3.6 2.208-1.704 3.324 2.016-2.688 5.148z" transform="translate(-35) translate(81.944)"/><path fill="#37384F" fill-rule="nonzero" d="M144.108 314.052c.144 1.092.66.684 1.428-.78l2.94.66 1.68-1.56-.948-.276-3.3-1.74c-1.464-.792-2.652 0-3.06 1.86l-.42 2.304c-.11.62.076 1.255.504 1.716l1.176-2.184z" transform="translate(-35) translate(81.944)"/><path fill="#F4ACC8" fill-rule="nonzero" d="M151.368 339.9l-1.296-.768-.66 1.056.768 1.032.456 1.56.612-.624c.334-.272.537-.672.56-1.101.023-.43-.137-.85-.44-1.155z" transform="translate(-35) translate(81.944)"/><path fill="#0983E2" fill-rule="nonzero" d="M127.5 336.528s4.272-11.196 6.864-15.048c2.015-.012 3.752 1.416 4.128 3.396l-5.736 10.176-5.256 1.476z" transform="translate(-35) translate(81.944)"/><path fill="#0983E2" fill-rule="nonzero" d="M132.516 334.824l8.76 8.4-.636 1.032c-2.976-.504-10.716-4.548-13.2-7.728l5.076-1.704z" transform="translate(-35) translate(81.944)"/><path fill="#F4ACC8" fill-rule="nonzero" d="M140.64 344.256l2.028.624 1.284.972.132-.864c.084-.888-.24-1.776-1.2-1.884l-1.788-.06-.456 1.212z" transform="translate(-35) translate(81.944)"/></g></g></svg>