<svg xmlns="http://www.w3.org/2000/svg" xmlns:xlink="http://www.w3.org/1999/xlink" width="330" height="440" viewBox="0 0 330 440"><defs><path id="prefix__b" d="M0 69.736L137.867 138.684 275.732 69.736 137.867 0.788z"/><path id="prefix__e" d="M0.067 69.084L0.067 75.6 137.932 6.652 137.932 0.136z"/><path id="prefix__h" d="M0 6.652L137.867 75.6 137.867 69.084 0 0.136z"/><path id="prefix__k" d="M83.498 20.86L41.912 41.658 0.329 20.86 41.912 0.064z"/><path id="prefix__n" d="M41.698 41.845L0.112 62.641 0.112 21.058 41.698 0.26z"/><path id="prefix__q" d="M41.912 62.641L0.329 41.845 0.329 0.26 41.912 21.058z"/><path id="prefix__t" d="M83.958 20.804L42.374 41.6 0.79 20.804 42.374 0.007z"/><path id="prefix__w" d="M41.958 41.789L0.374 62.586 0.374 21 41.958 0.204z"/><path id="prefix__z" d="M42.374 62.586L0.79 41.789 0.79 0.204 42.374 21z"/><path id="prefix__C" d="M0.005 41.585L41.59 62.383 41.59 20.797 0.005 0.001z"/><path id="prefix__F" d="M0.114 21.658L41.697 42.455 83.282 21.658 41.697 0.862z"/><path id="prefix__H" d="M0.697 20.855L0.697 62.441 42.282 41.642 42.282 0.058z"/><path id="prefix__K" d="M0.114 41.642L41.697 62.441 41.697 20.855 0.114 0.058z"/><path id="prefix__N" d="M0.698 21.456L42.282 42.253 83.867 21.456 42.282 0.659z"/><path id="prefix__Q" d="M0.282 20.853L0.282 62.437 41.867 41.641 41.867 0.056z"/><path id="prefix__T" d="M0.079 10.449L0.079 31.242 20.871 20.842 20.871 0.051z"/><path id="prefix__W" d="M0.698 41.641L42.282 62.437 42.282 20.853 0.698 0.056z"/><path id="prefix__Y" d="M0.084 10.448L20.871 20.842 20.871 0.051z"/><path id="prefix__ab" d="M0.294 20.842L21.086 31.242 21.086 10.449 0.294 0.051z"/><path id="prefix__ae" d="M0.294 20.842L21.082 10.448 0.294 0.051z"/><path id="prefix__ah" d="M0.079 10.449L0.079 31.242 20.871 20.842 20.871 0.051z"/><path id="prefix__aj" d="M0.079 10.449L0.079 31.242 20.871 20.842 20.871 0.051z"/><path id="prefix__am" d="M0.079 0.649L0.079 11.023 5.296 13.633 5.296 3.258 0.08 0.649z"/><path id="prefix__ap" d="M0.294 20.842L21.086 31.242 21.086 10.449 0.294 0.051z"/><path id="prefix__ar" d="M0.692 10.846L11.066 16.033 11.066 5.658 0.692 0.469z"/><path id="prefix__au" d="M0.294 20.842L21.086 31.242 21.086 10.449 0.294 0.051z"/><path id="prefix__aw" d="M0.79 21.398L42.374 42.197 83.959 21.398 42.374 0.601z"/><path id="prefix__az" d="M0.374 20.797L0.374 62.379 41.959 41.584 41.959 -0.002z"/><path id="prefix__aC" d="M95.729 0.497L95.498 513.05 53.912 533.653 42 533.798 0.374 513.001 0.374 0.497z"/><path id="prefix__aF" d="M0.79 41.584L42.374 62.379 42.374 20.797 0.79 -0.002z"/><path id="prefix__aI" d="M.707.081v41.59c.001.753.575 1.506 1.724 2.082 2.3 1.15 6.029 1.15 8.33 0 1.149-.576 1.724-1.329 1.724-2.082V.08H.707z"/><path id="prefix__aL" d="M.809-.004v41.589c0 .752.575 1.507 1.724 2.082 2.3 1.15 6.029 1.15 8.33 0 1.148-.575 1.724-1.329 1.724-2.082V-.004H.809z"/><path id="prefix__aO" d="M.605.967v41.59c0 .753.576 1.507 1.725 2.082 2.3 1.15 6.028 1.15 8.328 0 1.151-.575 1.726-1.329 1.726-2.082V.967H.604z"/><path id="prefix__aR" d="M.504.853v41.589c0 .753.575 1.508 1.724 2.083 2.3 1.15 6.03 1.15 8.33 0 1.15-.575 1.724-1.329 1.724-2.083V.853H.504z"/><path id="prefix__aU" d="M.809.032v41.59c0 .753.575 1.506 1.724 2.082 2.3 1.15 6.029 1.15 8.33 0 1.148-.576 1.724-1.329 1.724-2.082V.032H.809z"/><path id="prefix__aX" d="M.91.147v41.589c0 .752.574 1.507 1.724 2.082 2.3 1.15 6.029 1.15 8.33 0 1.149-.575 1.724-1.33 1.724-2.082V.147H.91z"/><path id="prefix__ba" d="M.708.918v41.588c0 .755.574 1.509 1.723 2.084 2.3 1.15 6.029 1.15 8.33 0 1.149-.575 1.724-1.329 1.724-2.084V.918H.708z"/><path id="prefix__bd" d="M.605.804v41.588c0 .754.576 1.508 1.725 2.084 2.3 1.15 6.03 1.15 8.328 0 1.151-.576 1.726-1.33 1.726-2.084V.804H.604z"/><path id="prefix__bg" d="M.91.983v41.59c0 .753.574 1.505 1.724 2.081 2.3 1.151 6.029 1.151 8.33 0 1.149-.576 1.724-1.328 1.724-2.082V.982H.91z"/><path id="prefix__bj" d="M.01.096v41.59c0 .753.576 1.506 1.726 2.082 2.298 1.15 6.029 1.151 8.328 0 1.15-.576 1.726-1.33 1.726-2.082V.096H.01z"/><path id="prefix__bm" d="M.809.869v41.588c0 .754.575 1.509 1.724 2.082 2.3 1.152 6.03 1.152 8.33 0 1.148-.573 1.724-1.327 1.724-2.082V.87H.809z"/><path id="prefix__bp" d="M.708.754v41.59c0 .753.574 1.506 1.723 2.082 2.3 1.15 6.029 1.151 8.33 0 1.149-.576 1.724-1.33 1.724-2.083V.753H.708z"/><path id="prefix__bs" d="M.01.934v41.588c0 .755.576 1.507 1.726 2.083 2.3 1.151 6.029 1.151 8.328 0 1.15-.576 1.726-1.328 1.726-2.083V.934H.01z"/><path id="prefix__bv" d="M.114.046v41.591c0 .753.573 1.506 1.723 2.082 2.3 1.15 6.029 1.15 8.329 0 1.15-.576 1.726-1.33 1.726-2.082V.047H.114z"/><path id="prefix__by" d="M.91.82v41.588c0 .754.574 1.507 1.725 2.082 2.3 1.152 6.028 1.152 8.328 0 1.15-.575 1.726-1.328 1.726-2.082V.82H.909z"/><path id="prefix__bB" d="M.809.704v41.59c0 .754.575 1.507 1.724 2.083 2.3 1.15 6.03 1.15 8.33 0 1.148-.576 1.724-1.33 1.724-2.083V.704H.809z"/><path id="prefix__bE" d="M0.328 42.335L41.912 63.132 41.912 21.547 0.328 0.75z"/><path id="prefix__bH" d="M0.134 13.374L23.912 48.582 47.692 13.374 23.912 0.121z"/><path id="prefix__bK" d="M0.313 8.821L15.512 31.327 30.713 8.821 15.512 0.349z"/><path id="prefix__bM" d="M0.112 8.023L0.112 22.927 15.313 0.421z"/><path id="prefix__bP" d="M0.313 0.421L15.512 22.927 15.512 8.023z"/><path id="prefix__bS" d="M0.109 4.019L7.141 7.535 14.226 3.992 7.195 0.476z"/><path id="prefix__bV" d="M0.109 7.504L7.141 11.021 7.141 3.935 0.109 0.419z"/><path id="prefix__bY" d="M0.941 3.935L0.941 11.021 8.026 7.476 8.026 0.392z"/><path id="prefix__cb" d="M0.461 7.559L7.547 11.101 7.547 4.018 0.461 0.474z"/><path id="prefix__ce" d="M0.623 7.128L7.655 10.644 7.655 3.56 0.623 0.043z"/><path id="prefix__ch" d="M0.455 3.56L0.455 10.644 7.538 7.101 7.538 0.016z"/><path id="prefix__ck" d="M0.677 7.656L8.017 11.327 8.017 4.243 0.677 0.572z"/><path id="prefix__cn" d="M0.638 7.237L7.979 10.907 7.979 3.823 0.638 0.151z"/><path id="prefix__cq" d="M0.592 0.889L39.199 7.74 65.588 10.908 69.415 13.853 54.785 16.69 54.425 19.152 0.592 18.992z"/><path id="prefix__cr" d="M71.346.044c-.204.011-.458.142-.56.412l-61.394 160.2-8.924 23.286h1.264l1.003-2.618 4.997 2.618h2.643l-7.199-3.772 3.258-8.5 17.502 9.172-1.188 3.1h1.264L90.457 10.556c.08-.204.029-.373-.01-.457-.034-.083-.129-.233-.33-.302-.071-.023-.143-.033-.215-.029-.206.01-.46.142-.562.41l-2.068 5.394-17.502-9.17L71.903.834c.079-.204.029-.373-.01-.457-.035-.083-.13-.233-.33-.301-.063-.02-.127-.032-.192-.032h-.025zm-5.275 16.01l3.258-8.501 17.502 9.173-3.258 8.5-17.502-9.172zm-3.7 9.654l3.258-8.5 17.502 9.17-3.258 8.502-17.502-9.172zm-3.698 9.654l3.257-8.501 17.502 9.173-3.258 8.5-17.501-9.172zm-3.701 9.654l3.258-8.501 17.502 9.171-3.257 8.501-17.503-9.171zm-3.7 9.654l3.258-8.501 17.502 9.171-3.258 8.501-17.502-9.171zm-3.7 9.655l3.259-8.502 17.502 9.171-3.258 8.501-17.502-9.17zm-3.7 9.654l3.26-8.501 17.501 9.172-3.258 8.5-17.503-9.171zm-3.7 9.654l3.26-8.501 17.502 9.172-3.258 8.5-17.504-9.171zm-3.7 9.654l3.26-8.501 17.502 9.17-3.258 8.501-17.503-9.17zm-3.698 9.654l3.257-8.502 17.503 9.171-3.258 8.501-17.502-9.17zm-3.7 9.653l3.258-8.501 17.503 9.171-3.258 8.501-17.503-9.171zm-3.7 9.654l3.258-8.501 17.502 9.171-3.258 8.501-17.502-9.171zm-3.7 9.654l3.258-8.501 17.502 9.171-3.258 8.501-17.502-9.171zm-3.7 9.654l3.259-8.5 17.502 9.17-3.258 8.5-17.502-9.17zm-3.699 9.652l3.258-8.5 17.502 9.171-1.191 3.108-2.067 5.393-17.502-9.172zm-3.7 9.654l.081-.206 3.178-8.293 15.828 8.293 1.674.878-3.257 8.5-17.503-9.172zm-3.699 9.654l3.258-8.5 17.503 9.171-3.259 8.502-17.502-9.173z"/><linearGradient id="prefix__a" x1="11.652%" x2="93.484%" y1="56.029%" y2="38.807%"><stop offset="0%" stop-color="#EEE" stop-opacity="0"/><stop offset="100%" stop-color="#31263D"/></linearGradient><linearGradient id="prefix__c" x1=".137%" x2="116.626%" y1="57.071%" y2="43.098%"><stop offset="0%" stop-color="#4D8BFF"/><stop offset="100%" stop-color="#FF6985"/></linearGradient><linearGradient id="prefix__f" x1="2.607%" x2="84.679%" y1="37.433%" y2="60.563%"><stop offset="0%" stop-color="#DDD5FF"/><stop offset="100%" stop-color="#AC6EF2"/></linearGradient><linearGradient id="prefix__i" x1="0%" x2="100%" y1="50%" y2="50%"><stop offset="0%" stop-color="#4100B8"/><stop offset="100%" stop-color="#510785"/></linearGradient><linearGradient id="prefix__l" x1="4.578%" x2="87.698%" y1="39.974%" y2="62.505%"><stop offset="0%" stop-color="#C796FF"/><stop offset="100%" stop-color="#E4D0FF"/></linearGradient><linearGradient id="prefix__o" x1="28.938%" x2="65.412%" y1="8.058%" y2="85.254%"><stop offset="0%" stop-color="#6E56D8"/><stop offset="100%" stop-color="#AC6EF2"/></linearGradient><linearGradient id="prefix__r" x1="0%" x2="100%" y1="50%" y2="50%"><stop offset="0%" stop-color="#4100B8"/><stop offset="100%" stop-color="#510785"/></linearGradient><linearGradient id="prefix__u" x1="2.607%" x2="84.679%" y1="39.51%" y2="58.817%"><stop offset="0%" stop-color="#6E56D8"/><stop offset="100%" stop-color="#AC6EF2"/></linearGradient><linearGradient id="prefix__x" x1="28.941%" x2="65.409%" y1="8.058%" y2="85.254%"><stop offset="0%" stop-color="#6E56D8"/><stop offset="100%" stop-color="#AC6EF2"/></linearGradient><linearGradient id="prefix__A" x1="0%" x2="100%" y1="50%" y2="50%"><stop offset="0%" stop-color="#4100B8"/><stop offset="100%" stop-color="#510785"/></linearGradient><linearGradient id="prefix__D" x1="71.638%" x2="28.031%" y1="34.466%" y2="65.771%"><stop offset="0%" stop-color="#F49E5B"/><stop offset="100%" stop-color="#F4C15B"/></linearGradient><linearGradient id="prefix__I" x1="50.001%" x2="50.001%" y1="99.998%" y2=".001%"><stop offset="0%" stop-color="#0B5EE6"/><stop offset="100%" stop-color="#0299ED"/></linearGradient><linearGradient id="prefix__L" x1="0%" x2="100%" y1="50%" y2="50%"><stop offset="0%" stop-color="#4100B8"/><stop offset="100%" stop-color="#510785"/></linearGradient><linearGradient id="prefix__O" x1="2.607%" x2="84.679%" y1="39.509%" y2="58.818%"><stop offset="0%" stop-color="#6E56D8"/><stop offset="100%" stop-color="#AC6EF2"/></linearGradient><linearGradient id="prefix__R" x1="28.939%" x2="65.411%" y1="8.058%" y2="85.254%"><stop offset="0%" stop-color="#6E56D8"/><stop offset="100%" stop-color="#AC6EF2"/></linearGradient><linearGradient id="prefix__U" x1="49.998%" x2="49.998%" y1="99.204%" y2="53%"><stop offset="0%" stop-color="#02B3FF"/><stop offset="100%" stop-color="#0B5EE6"/></linearGradient><linearGradient id="prefix__Z" x1="49.998%" x2="49.998%" y1="100.005%" y2="-.001%"><stop offset="0%" stop-color="#073685"/><stop offset="100%" stop-color="#0049B8"/></linearGradient><linearGradient id="prefix__ac" x1="49.999%" x2="49.999%" y1="99.204%" y2="53%"><stop offset="0%" stop-color="#02B3FF"/><stop offset="100%" stop-color="#0B5EE6"/></linearGradient><linearGradient id="prefix__af" x1="49.999%" x2="49.999%" y1="5.188%" y2="94.383%"><stop offset="0%" stop-color="#0B5EE6"/><stop offset="100%" stop-color="#0299ED"/></linearGradient><linearGradient id="prefix__ak" x1="50%" x2="58.079%" y1="50%" y2="0%"><stop offset="0%" stop-color="#5A00A8"/><stop offset="100%" stop-color="#AC6EF2"/></linearGradient><linearGradient id="prefix__an" x1=".593%" x2=".593%" y1="100.004%" y2="-19.868%"><stop offset="0%" stop-color="#F49E5B"/><stop offset="100%" stop-color="#F4C15B"/></linearGradient><linearGradient id="prefix__as" x1="50.002%" x2="50.002%" y1="100.003%" y2=".002%"><stop offset="0%" stop-color="#F49E5B"/><stop offset="100%" stop-color="#F4C15B"/></linearGradient><linearGradient id="prefix__ax" x1="2.607%" x2="84.679%" y1="39.509%" y2="58.818%"><stop offset="0%" stop-color="#6E56D8"/><stop offset="100%" stop-color="#AC6EF2"/></linearGradient><linearGradient id="prefix__aA" x1="28.939%" x2="65.411%" y1="8.058%" y2="85.254%"><stop offset="0%" stop-color="#DDD5FF"/><stop offset="100%" stop-color="#AC6EF2"/></linearGradient><linearGradient id="prefix__aD" x1="49.994%" x2="49.994%" y1="105.451%" y2=".985%"><stop offset="0%" stop-color="#4000FF"/><stop offset="100%" stop-color="#FFF" stop-opacity="0"/></linearGradient><linearGradient id="prefix__aG" x1="0%" x2="100%" y1="50%" y2="50%"><stop offset="0%" stop-color="#4100B8"/><stop offset="100%" stop-color="#510785"/></linearGradient><linearGradient id="prefix__aJ" x1="-.001%" x2="100.002%" y1="50%" y2="50%"><stop offset="0%" stop-color="#0B5EE6"/><stop offset="100%" stop-color="#0299ED"/></linearGradient><linearGradient id="prefix__aM" x1="-.006%" x2="99.996%" y1="49.999%" y2="49.999%"><stop offset="0%" stop-color="#0B5EE6"/><stop offset="100%" stop-color="#0299ED"/></linearGradient><linearGradient id="prefix__aP" x1=".005%" x2="99.997%" y1="50%" y2="50%"><stop offset="0%" stop-color="#0B5EE6"/><stop offset="100%" stop-color="#0299ED"/></linearGradient><linearGradient id="prefix__aS" x1=".001%" x2="100.003%" y1="50%" y2="50%"><stop offset="0%" stop-color="#0B5EE6"/><stop offset="100%" stop-color="#0299ED"/></linearGradient><linearGradient id="prefix__aV" x1="-.006%" x2="99.997%" y1="49.999%" y2="49.999%"><stop offset="0%" stop-color="#0B5EE6"/><stop offset="100%" stop-color="#0299ED"/></linearGradient><linearGradient id="prefix__aY" x1="0%" x2="100.002%" y1="49.998%" y2="49.998%"><stop offset="0%" stop-color="#0B5EE6"/><stop offset="100%" stop-color="#0299ED"/></linearGradient><linearGradient id="prefix__bb" x1="-.01%" x2="100.003%" y1="49.999%" y2="49.999%"><stop offset="0%" stop-color="#0B5EE6"/><stop offset="100%" stop-color="#0299ED"/></linearGradient><linearGradient id="prefix__be" x1=".006%" x2="99.998%" y1="49.999%" y2="49.999%"><stop offset="0%" stop-color="#0B5EE6"/><stop offset="100%" stop-color="#0299ED"/></linearGradient><linearGradient id="prefix__bh" x1=".001%" x2="100.003%" y1="49.999%" y2="49.999%"><stop offset="0%" stop-color="#0B5EE6"/><stop offset="100%" stop-color="#0299ED"/></linearGradient><linearGradient id="prefix__bk" x1=".005%" x2="99.997%" y1="50.001%" y2="50.001%"><stop offset="0%" stop-color="#0B5EE6"/><stop offset="100%" stop-color="#0299ED"/></linearGradient><linearGradient id="prefix__bn" x1="-.005%" x2="99.998%" y1="49.999%" y2="49.999%"><stop offset="0%" stop-color="#0B5EE6"/><stop offset="100%" stop-color="#0299ED"/></linearGradient><linearGradient id="prefix__bq" x1="-.009%" x2="100.003%" y1="50%" y2="50%"><stop offset="0%" stop-color="#0B5EE6"/><stop offset="100%" stop-color="#0299ED"/></linearGradient><linearGradient id="prefix__bt" x1=".006%" x2="99.998%" y1="49.998%" y2="49.998%"><stop offset="0%" stop-color="#0B5EE6"/><stop offset="100%" stop-color="#0299ED"/></linearGradient><linearGradient id="prefix__bw" x1="-.01%" x2="99.993%" y1="50.001%" y2="50.001%"><stop offset="0%" stop-color="#0B5EE6"/><stop offset="100%" stop-color="#0299ED"/></linearGradient><linearGradient id="prefix__bz" x1=".002%" x2="99.994%" y1="49.999%" y2="49.999%"><stop offset="0%" stop-color="#0B5EE6"/><stop offset="100%" stop-color="#0299ED"/></linearGradient><linearGradient id="prefix__bC" x1="-.004%" x2="99.999%" y1="50%" y2="50%"><stop offset="0%" stop-color="#0B5EE6"/><stop offset="100%" stop-color="#0299ED"/></linearGradient><linearGradient id="prefix__bF" x1="34.772%" x2="68.66%" y1="72.845%" y2="22.008%"><stop offset="0%" stop-color="#F4C15B"/><stop offset="100%" stop-color="#F49E5B"/></linearGradient><linearGradient id="prefix__bI" x1="49.999%" x2="49.999%" y1="6.694%" y2="89.342%"><stop offset="0%" stop-color="#F49E5B"/><stop offset="100%" stop-color="#F4C15B"/></linearGradient><linearGradient id="prefix__bN" x1="50.002%" x2="50.002%" y1="101.315%" y2=".001%"><stop offset="0%" stop-color="#C4DBFD"/><stop offset="100%" stop-color="#85AFEF"/></linearGradient><linearGradient id="prefix__bQ" x1="12.069%" x2="63.85%" y1="106.822%" y2="30.149%"><stop offset="0%" stop-color="#C4DBFD"/><stop offset="100%" stop-color="#85AFEF"/></linearGradient><linearGradient id="prefix__bT" x1="50.006%" x2="50.006%" y1="100.017%" y2="-.002%"><stop offset="0%" stop-color="#00AFFF"/><stop offset="100%" stop-color="#00E1FF"/></linearGradient><linearGradient id="prefix__bW" x1=".014%" x2="100.014%" y1="50%" y2="50%"><stop offset="0%" stop-color="#0093F9"/><stop offset="100%" stop-color="#0075F2"/></linearGradient><linearGradient id="prefix__bZ" x1="50.011%" x2="50.011%" y1="99.996%" y2=".007%"><stop offset="0%" stop-color="#0085FF"/><stop offset="100%" stop-color="#00BAFF"/></linearGradient><linearGradient id="prefix__cc" x1="-12.258%" x2="143.964%" y1="50.003%" y2="50.003%"><stop offset="0%" stop-color="#F49E5B"/><stop offset="100%" stop-color="#F4C15B"/></linearGradient><linearGradient id="prefix__cf" x1="27.729%" x2="135.614%" y1="83.569%" y2="-79.069%"><stop offset="0%" stop-color="#E4F0FF"/><stop offset="100%" stop-color="#BDCDF9"/></linearGradient><linearGradient id="prefix__ci" x1="24.627%" x2="110.357%" y1="11.937%" y2="140.554%"><stop offset="0%" stop-color="#E4F0FF"/><stop offset="100%" stop-color="#DDE8FF"/></linearGradient><linearGradient id="prefix__cl" x1="0%" x2="100.003%" y1="50.002%" y2="50.002%"><stop offset="0%" stop-color="#F49E5B"/><stop offset="100%" stop-color="#F4C15B"/></linearGradient><linearGradient id="prefix__co" x1="-.01%" x2="99.994%" y1="50.007%" y2="50.007%"><stop offset="0%" stop-color="#F49E5B"/><stop offset="100%" stop-color="#F4C15B"/></linearGradient><linearGradient id="prefix__cs" x1="50%" x2="50%" y1="8.199%" y2="52.319%"><stop offset="0%" stop-color="#0090FF"/><stop offset="100%" stop-color="#0770E2"/></linearGradient></defs><g fill="none" fill-rule="evenodd"><path fill="url(#prefix__a)" fill-rule="nonzero" d="M157.395 549L167.229 555.09 228.464 581.548 61.25 663.829 15 618.774z" opacity=".4" transform="translate(-35 -199) rotate(30 121.732 606.414)"/><g><g transform="translate(-35 -199) translate(89) translate(0 493.703)"><mask id="prefix__d" fill="#fff"><use xlink:href="#prefix__b"/></mask><path fill="url(#prefix__c)" fill-rule="nonzero" d="M0 69.736L137.867 138.684 275.732 69.736 137.867 0.788z" mask="url(#prefix__d)"/></g><g transform="translate(-35 -199) translate(89) translate(137.8 563.303)"><mask id="prefix__g" fill="#fff"><use xlink:href="#prefix__e"/></mask><path fill="url(#prefix__f)" fill-rule="nonzero" d="M0.067 69.084L0.067 75.6 137.932 6.652 137.932 0.136z" mask="url(#prefix__g)"/></g><g transform="translate(-35 -199) translate(89) translate(0 563.303)"><mask id="prefix__j" fill="#fff"><use xlink:href="#prefix__h"/></mask><path fill="url(#prefix__i)" fill-rule="nonzero" d="M0 6.652L137.867 75.6 137.867 69.084 0 0.136z" mask="url(#prefix__j)"/></g><g transform="translate(-35 -199) translate(89) translate(96 441.903)"><mask id="prefix__m" fill="#fff"><use xlink:href="#prefix__k"/></mask><path fill="url(#prefix__l)" fill-rule="nonzero" d="M83.498 20.86L41.912 41.658 0.329 20.86 41.912 0.064z" mask="url(#prefix__m)"/></g><g transform="translate(-35 -199) translate(89) translate(137.8 462.503)"><mask id="prefix__p" fill="#fff"><use xlink:href="#prefix__n"/></mask><path fill="url(#prefix__o)" fill-rule="nonzero" d="M41.698 41.845L0.112 62.641 0.112 21.058 41.698 0.26z" mask="url(#prefix__p)"/></g><g transform="translate(-35 -199) translate(89) translate(96 462.503)"><mask id="prefix__s" fill="#fff"><use xlink:href="#prefix__q"/></mask><path fill="url(#prefix__r)" fill-rule="nonzero" d="M41.912 62.641L0.329 41.845 0.329 0.26 41.912 21.058z" mask="url(#prefix__s)"/></g><g transform="translate(-35 -199) translate(89) translate(48 465.903)"><mask id="prefix__v" fill="#fff"><use xlink:href="#prefix__t"/></mask><path fill="url(#prefix__u)" fill-rule="nonzero" d="M83.958 20.804L42.374 41.6 0.79 20.804 42.374 0.007z" mask="url(#prefix__v)"/></g><g transform="translate(-35 -199) translate(89) translate(90 486.503)"><mask id="prefix__y" fill="#fff"><use xlink:href="#prefix__w"/></mask><path fill="url(#prefix__x)" fill-rule="nonzero" d="M41.958 41.789L0.374 62.586 0.374 21 41.958 0.204z" mask="url(#prefix__y)"/></g><g transform="translate(-35 -199) translate(89) translate(48 486.503)"><mask id="prefix__B" fill="#fff"><use xlink:href="#prefix__z"/></mask><path fill="url(#prefix__A)" fill-rule="nonzero" d="M42.374 62.586L0.79 41.789 0.79 0.204 42.374 21z" mask="url(#prefix__B)"/></g><g><path fill="#FFF" d="M97.654 38.2c-2.558 3.838-2.558 7.986 0 9.265 2.559 1.278 6.707-.795 9.265-4.634 2.559-3.838 2.559-7.985 0-9.264-2.558-1.28-6.706.795-9.265 4.633m24.625-18.41c2.559-3.838 2.559-7.986 0-9.264-2.558-1.28-6.705.795-9.265 4.632-2.558 3.837-2.558 7.986 0 9.265 2.56 1.279 6.707-.796 9.265-4.633m-9.265 10.729c-2.558 3.837-2.558 7.986 0 9.264 2.56 1.279 6.707-.796 9.265-4.633 2.559-3.838 2.559-7.985 0-9.266-2.558-1.278-6.705.796-9.265 4.635m-15.36-7.679c-2.558 3.838-2.558 7.985 0 9.265 2.559 1.278 6.707-.795 9.265-4.633 2.559-3.839 2.559-7.987 0-9.265-2.558-1.28-6.706.795-9.265 4.633M71.43 33.566c-2.558 1.28-2.558 5.427 0 9.265 2.558 3.838 6.707 5.912 9.265 4.634 2.559-1.278 2.559-5.427 0-9.266-2.558-3.837-6.707-5.91-9.265-4.633m-6.096-9.144c2.558-1.279 2.558-5.427 0-9.265-2.558-3.836-6.706-5.912-9.265-4.632-2.559 1.278-2.559 5.426 0 9.265 2.56 3.838 6.707 5.911 9.265 4.632m-9.265 1.463c-2.559 1.28-2.559 5.426 0 9.264 2.56 3.839 6.707 5.912 9.265 4.634 2.558-1.279 2.558-5.427 0-9.265-2.558-3.837-6.706-5.912-9.265-4.633m15.361-7.679c-2.558 1.28-2.558 5.428 0 9.265 2.558 3.838 6.707 5.913 9.265 4.634 2.559-1.28 2.559-5.427 0-9.264-2.558-3.84-6.707-5.914-9.265-4.635" transform="translate(-35 -199) translate(89) translate(1.2 488.903)"/><path fill="#F5C25B" d="M83.175 21.601L41.59 42.397 0.005 21.601 41.59 0.804z" transform="translate(-35 -199) translate(89) translate(1.2 488.903)"/><path fill="#F5E48C" d="M83.175 63.186L41.59 83.983 41.59 42.398 83.175 21.602z" transform="translate(-35 -199) translate(89) translate(1.2 488.903)"/></g><g transform="translate(-35 -199) translate(89) translate(1.2 510.503)"><mask id="prefix__E" fill="#fff"><use xlink:href="#prefix__C"/></mask><path fill="url(#prefix__D)" d="M0.005 41.585L41.59 62.383 41.59 20.797 0.005 0.001z" mask="url(#prefix__E)"/></g><g fill="#FFF"><path d="M.514.711C.41.607.311.451.262.303.192.094.248-.018.388.05l4.14 2.071c.14.075.31.297.378.504.07.21.013.323-.125.253L.64.808C.6.786.556.752.514.71M.514 3.076c-.104-.104-.203-.26-.252-.408-.07-.209-.014-.322.126-.253l4.14 2.07c.14.074.31.297.378.504.07.21.013.323-.125.253L.64 3.172c-.04-.02-.084-.054-.126-.096M.514 5.44C.41 5.337.311 5.18.262 5.032c-.07-.209-.014-.322.126-.253l4.14 2.07c.14.075.31.297.378.506.07.209.013.322-.125.252L.64 5.536C.6 5.516.556 5.482.514 5.44M.514 7.803C.41 7.7.311 7.543.262 7.395c-.07-.208-.014-.321.126-.253l4.14 2.071c.14.075.31.297.378.504.07.21.013.323-.125.255L.64 7.9C.6 7.879.556 7.847.514 7.803M.514 10.167c-.104-.103-.203-.26-.252-.408-.07-.209-.014-.322.126-.253l4.14 2.071c.14.074.31.298.378.505.07.21.013.322-.125.253L.64 10.265c-.04-.022-.084-.055-.126-.098M.514 12.53c-.104-.102-.203-.26-.252-.407-.07-.209-.014-.322.126-.253l4.14 2.07c.14.075.31.298.378.506.07.209.013.322-.125.253L.64 12.628c-.04-.022-.084-.054-.126-.097M.514 14.894c-.104-.103-.203-.26-.252-.408-.07-.208-.014-.321.126-.253l4.14 2.071c.14.074.31.298.378.506.07.208.013.321-.125.253L.64 14.992c-.04-.022-.084-.054-.126-.098M.514 17.258c-.104-.103-.203-.26-.252-.407-.07-.21-.014-.322.126-.254l4.14 2.071c.14.073.31.297.378.505.07.21.013.322-.125.254L.64 17.355c-.04-.021-.084-.054-.126-.097M.514 19.622c-.104-.103-.203-.26-.252-.407-.07-.21-.014-.323.126-.254l4.14 2.07c.14.074.31.298.378.506.07.209.013.322-.125.253L.64 19.72c-.04-.022-.084-.054-.126-.097M.514 21.986c-.104-.104-.203-.26-.252-.407-.07-.21-.014-.323.126-.253l4.14 2.07c.14.074.31.296.378.505.07.209.013.321-.125.253L.64 22.083c-.04-.022-.084-.054-.126-.097M.514 24.35c-.104-.104-.203-.26-.252-.408-.07-.21-.014-.322.126-.253l4.14 2.071c.14.075.31.296.378.504.07.21.013.322-.125.254L.64 24.446c-.04-.021-.084-.054-.126-.097M8.392 4.652c-.103-.104-.201-.26-.252-.408-.07-.21-.013-.321.126-.253l5.717 2.86c.14.074.31.297.38.504.069.21.013.322-.127.253L8.518 4.747c-.04-.02-.082-.053-.126-.095M8.392 7.016c-.103-.105-.201-.26-.252-.408-.07-.209-.013-.322.126-.253l5.717 2.86c.14.074.31.297.38.503.069.21.013.323-.127.253l-5.718-2.86c-.04-.02-.082-.053-.126-.095M8.392 9.38c-.103-.104-.201-.26-.252-.408-.07-.21-.013-.322.126-.254l4.142 2.072c.139.073.31.297.378.504.07.21.013.322-.125.253L8.52 9.477c-.041-.022-.084-.055-.128-.097M8.392 11.744c-.103-.104-.201-.26-.252-.408-.07-.208-.013-.321.126-.253l1.778.888c.139.075.31.297.378.504.07.21.013.323-.125.253l-1.777-.886c-.041-.022-.084-.056-.128-.098M8.392 14.108c-.103-.103-.201-.26-.252-.408-.07-.209-.013-.321.126-.253l4.142 2.07c.139.072.31.298.378.504.07.21.013.323-.125.254l-4.141-2.07c-.041-.021-.084-.055-.128-.097M8.392 16.472c-.103-.103-.201-.26-.252-.408-.07-.209-.013-.322.126-.253l1.778.888c.139.073.31.297.378.504.07.21.013.322-.125.253l-1.777-.887c-.041-.022-.084-.054-.128-.097M8.392 18.836c-.103-.104-.201-.26-.252-.408-.07-.21-.013-.322.126-.254l1.778.888c.139.074.31.298.378.504.07.21.013.323-.125.254l-1.777-.887c-.041-.022-.084-.054-.128-.097M8.392 21.2c-.103-.104-.201-.261-.252-.409-.07-.209-.013-.321.126-.253l7.294 3.647c.14.073.308.297.378.505.07.209.013.323-.125.253L8.52 21.296c-.041-.021-.084-.054-.128-.097M8.392 23.563c-.103-.103-.201-.26-.252-.407-.07-.21-.013-.323.126-.254l7.294 3.646c.14.075.308.297.378.506.07.208.013.322-.125.253L8.52 23.66c-.041-.022-.084-.054-.128-.097M8.392 25.926c-.103-.103-.201-.26-.252-.406-.07-.21-.013-.323.126-.255l4.93 2.466c.14.073.31.297.378.504.07.21.013.323-.125.253l-4.93-2.464c-.04-.022-.083-.054-.127-.098M8.392 28.29c-.103-.103-.201-.259-.252-.407-.07-.21-.013-.322.126-.253l9.657 4.83c.14.073.308.295.379.504.068.209.013.323-.127.251l-9.657-4.829c-.04-.02-.082-.053-.126-.096M15.485 8.198c-.105-.103-.203-.26-.252-.408-.071-.208-.015-.321.127-.252l2.564 1.284c.136.07.307.294.378.504.069.208.012.322-.127.251L15.61 8.294c-.04-.02-.082-.052-.124-.096M15.485 10.562c-.105-.103-.203-.26-.252-.408-.071-.209-.015-.322.127-.252l2.564 1.284c.136.07.307.294.378.504.069.208.012.322-.127.25l-2.566-1.282c-.04-.02-.082-.053-.124-.096M13.908 12.138c-.103-.103-.202-.26-.252-.407-.07-.21-.013-.322.126-.254l6.504 3.253c.14.073.31.297.38.504.068.21.013.324-.126.253l-6.506-3.252c-.04-.021-.082-.054-.126-.097M11.545 13.32c-.103-.104-.203-.26-.252-.407-.07-.21-.013-.322.126-.254l5.718 2.861c.134.07.308.297.378.503.068.21.012.323-.126.253l-5.718-2.86c-.04-.02-.083-.053-.126-.095M13.908 16.866c-.103-.104-.202-.26-.252-.407-.07-.21-.013-.323.126-.253l6.504 3.252c.14.072.31.296.38.504.068.21.013.324-.126.254l-6.506-3.253c-.04-.022-.082-.054-.126-.097M11.545 18.048c-.103-.103-.203-.26-.252-.408-.07-.209-.013-.322.126-.253l6.504 3.253c.14.073.308.295.379.504.068.209.013.323-.126.253l-6.505-3.252c-.04-.021-.083-.054-.126-.097M11.545 20.412c-.103-.104-.203-.26-.252-.408-.07-.21-.013-.322.126-.254l6.504 3.254c.14.073.308.295.379.504.068.21.013.322-.126.253l-6.505-3.252c-.04-.022-.083-.054-.126-.097M17.06 25.534c-.102-.103-.202-.26-.251-.407-.07-.21-.013-.321.126-.253l4.14 2.071c.14.072.31.297.38.504.069.209.012.322-.126.253l-4.142-2.07c-.04-.022-.083-.055-.126-.098M17.06 27.898c-.102-.104-.202-.26-.251-.407-.07-.21-.013-.322.126-.253l4.14 2.07c.14.073.31.297.38.505.069.21.012.321-.126.253l-4.142-2.071c-.04-.022-.083-.054-.126-.097M14.696 29.079c-.103-.103-.203-.26-.252-.408-.07-.209-.013-.322.126-.253l6.505 3.255c.138.071.309.295.38.503.068.21.013.324-.128.252l-6.505-3.252c-.04-.022-.083-.054-.126-.097M19.425 33.807c-.104-.103-.203-.26-.252-.408-.07-.208-.014-.321.127-.252l1.776.89c.137.07.308.295.378.504.07.208.013.322-.126.25l-1.779-.888c-.04-.02-.081-.052-.124-.096M19.425 10.17c-.104-.105-.203-.26-.252-.41-.07-.209-.014-.32.127-.25l2.564 1.283c.137.07.309.296.378.503.07.21.013.322-.127.251l-2.566-1.283c-.04-.02-.081-.053-.124-.095M19.425 12.533c-.104-.104-.203-.26-.252-.41-.07-.208-.014-.32.127-.25l2.564 1.284c.137.07.309.295.378.503.07.209.013.322-.127.25l-2.566-1.282c-.04-.02-.081-.053-.124-.095M21.788 16.08c-.103-.104-.203-.261-.252-.408-.07-.21-.013-.322.126-.253l4.141 2.069c.14.073.31.296.378.505.07.209.014.322-.124.253l-4.143-2.07c-.04-.021-.083-.054-.126-.097M18.637 16.866c-.104-.104-.203-.26-.253-.408-.07-.21-.013-.322.127-.251l7.292 3.647c.136.07.309.295.378.505.07.207.014.321-.126.25l-7.293-3.647c-.04-.02-.083-.053-.125-.096M21.788 20.807c-.103-.104-.203-.26-.252-.407-.07-.21-.013-.323.126-.253l4.141 2.07c.14.073.31.297.378.505.07.209.014.321-.124.253l-4.143-2.071c-.04-.022-.083-.054-.126-.097M19.425 21.989c-.104-.103-.203-.26-.252-.408-.07-.209-.014-.322.126-.253l4.14 2.071c.139.07.31.295.379.504.07.21.013.323-.125.254l-4.142-2.07c-.041-.022-.083-.055-.126-.098M19.425 24.353c-.104-.104-.203-.26-.252-.408-.07-.21-.014-.322.126-.254l4.14 2.072c.139.07.31.296.379.505.07.209.013.321-.125.253L19.55 24.45c-.041-.022-.083-.054-.126-.097M22.577 28.292c-.103-.103-.203-.26-.252-.408-.07-.208-.013-.321.126-.253l4.14 2.071c.14.072.31.297.378.506.07.208.014.321-.125.253l-4.141-2.071c-.04-.022-.084-.054-.126-.098M22.577 30.656c-.103-.103-.203-.26-.252-.408-.07-.209-.013-.321.126-.253l4.14 2.071c.14.072.31.298.378.505.07.21.014.322-.125.254l-4.141-2.072c-.04-.021-.084-.054-.126-.097M22.577 33.02c-.103-.103-.203-.26-.252-.408-.07-.209-.013-.322.127-.252l2.565 1.284c.135.07.307.295.378.504.068.207.012.321-.128.25l-2.565-1.282c-.04-.02-.083-.053-.125-.096M22.577 35.385c-.103-.103-.203-.26-.252-.408-.07-.21-.013-.322.126-.253l2.564 1.282c.14.074.309.296.38.504.068.21.012.323-.126.254l-2.566-1.282c-.04-.022-.084-.054-.126-.097M23.364 12.14c-.104-.104-.202-.261-.253-.409-.07-.208-.013-.321.127-.253l5.716 2.86c.142.075.31.297.38.505.069.209.012.322-.127.253l-5.718-2.86c-.04-.021-.083-.053-.125-.097M23.364 14.503c-.104-.103-.202-.26-.253-.408-.07-.209-.013-.322.127-.253l5.716 2.86c.142.075.31.297.38.505.069.208.012.321-.127.253l-5.718-2.861c-.04-.02-.083-.053-.125-.096M27.304 18.838c-.103-.105-.203-.26-.252-.41-.07-.208-.013-.32.127-.25l1.776.888c.136.07.309.296.377.505.071.208.015.322-.126.25l-1.777-.888c-.04-.02-.082-.053-.125-.095M27.304 21.201c-.103-.104-.203-.26-.252-.409-.07-.207-.013-.32.127-.25l1.776.887c.136.07.309.297.377.506.071.207.015.321-.126.25l-1.777-.889c-.04-.02-.082-.053-.125-.095M27.304 23.565c-.103-.104-.203-.26-.252-.409-.07-.208-.013-.32.127-.25l1.776.888c.136.069.309.296.377.504.071.208.015.322-.126.251l-1.777-.889c-.04-.02-.082-.053-.125-.095M24.94 24.746c-.103-.103-.202-.259-.251-.406-.07-.21-.014-.323.126-.254l4.14 2.07c.141.075.31.297.378.506.07.208.014.321-.125.253l-4.141-2.071c-.041-.022-.083-.054-.126-.098M24.94 27.11c-.103-.103-.202-.26-.251-.407-.07-.21-.014-.322.126-.253l4.14 2.071c.141.075.31.296.378.504.07.21.014.322-.125.254l-4.141-2.072c-.041-.021-.083-.054-.126-.097M28.092 31.05c-.105-.103-.203-.26-.252-.407-.071-.21-.015-.321.126-.253l.989.494c.141.076.31.297.378.504.07.21.014.323-.125.254l-.99-.495c-.041-.021-.084-.054-.126-.097M28.092 33.415c-.105-.105-.203-.26-.252-.408-.071-.21-.015-.322.126-.253l.989.494c.141.076.31.296.378.504.07.21.014.323-.125.253l-.99-.494c-.041-.022-.084-.054-.126-.096M26.516 34.99c-.104-.104-.203-.26-.252-.407-.07-.21-.014-.322.126-.253l2.564 1.282c.142.074.31.298.38.503.069.21.012.324-.127.253l-2.565-1.281c-.04-.022-.083-.054-.126-.096M26.516 37.355c-.104-.105-.203-.26-.252-.41-.07-.208-.014-.32.127-.25l2.564 1.284c.136.068.309.296.378.502.07.21.013.322-.127.251L26.64 37.45c-.038-.02-.081-.052-.124-.094" transform="translate(-35 -199) translate(89) translate(7.2 522.303)"/></g><g transform="translate(-35 -199) translate(89) translate(143.8 464.903)"><mask id="prefix__G" fill="#fff"><use xlink:href="#prefix__F"/></mask><path fill="url(#prefix__u)" fill-rule="nonzero" d="M0.114 21.658L41.697 42.455 83.282 21.658 41.697 0.862z" mask="url(#prefix__G)"/></g><g transform="translate(-35 -199) translate(89) translate(184.8 486.503)"><mask id="prefix__J" fill="#fff"><use xlink:href="#prefix__H"/></mask><path fill="url(#prefix__I)" d="M0.697 20.855L0.697 62.441 42.282 41.642 42.282 0.058z" mask="url(#prefix__J)"/></g><g transform="translate(-35 -199) translate(89) translate(143.8 486.503)"><mask id="prefix__M" fill="#fff"><use xlink:href="#prefix__K"/></mask><path fill="url(#prefix__L)" fill-rule="nonzero" d="M0.114 41.642L41.697 62.441 41.697 20.855 0.114 0.058z" mask="url(#prefix__M)"/></g><path fill="#F5E48C" d="M143.913 526.012v2.133l41.585 20.798 41.584-20.798v-2.133l-41.584 20.797-41.585-20.797zm0-6.575v2.134l41.585 20.797 41.584-20.797v-2.134l-41.584 20.797-41.585-20.797zm0-6.575v2.133l41.585 20.797 41.584-20.797v-2.133l-41.584 20.796-41.585-20.796zm0-6.575v2.134l41.585 20.796 41.584-20.796v-2.134l-41.584 20.796-41.585-20.796zm0-6.576v2.134l41.585 20.797 41.584-20.797v-2.134l-41.584 20.798-41.585-20.798zm0-6.574v2.133l41.585 20.797 41.584-20.797v-2.133l-41.584 20.797-41.585-20.797zm41.585 14.22l-41.585-20.796v2.133l41.585 20.797 41.584-20.797v-2.133l-41.584 20.797z" transform="translate(-35 -199) translate(89)"/><g transform="translate(-35 -199) translate(89) translate(190.8 488.903)"><mask id="prefix__P" fill="#fff"><use xlink:href="#prefix__N"/></mask><path fill="url(#prefix__O)" fill-rule="nonzero" d="M0.698 21.456L42.282 42.253 83.867 21.456 42.282 0.659z" mask="url(#prefix__P)"/></g><g transform="translate(-35 -199) translate(89) translate(232.8 510.303)"><mask id="prefix__S" fill="#fff"><use xlink:href="#prefix__Q"/></mask><path fill="url(#prefix__R)" fill-rule="nonzero" d="M0.282 20.853L0.282 62.437 41.867 41.641 41.867 0.056z" mask="url(#prefix__S)"/></g><g transform="translate(-35 -199) translate(89) translate(243.4 525.903)"><mask id="prefix__V" fill="#fff"><use xlink:href="#prefix__T"/></mask><path fill="url(#prefix__U)" d="M0.079 10.449L0.079 31.242 20.871 20.842 20.871 0.051z" mask="url(#prefix__V)"/></g><g transform="translate(-35 -199) translate(89) translate(190.8 510.303)"><mask id="prefix__X" fill="#fff"><use xlink:href="#prefix__W"/></mask><path fill="url(#prefix__r)" fill-rule="nonzero" d="M0.698 41.641L42.282 62.437 42.282 20.853 0.698 0.056z" mask="url(#prefix__X)"/></g><g transform="translate(-35 -199) translate(89) translate(243.4 525.903)"><mask id="prefix__aa" fill="#fff"><use xlink:href="#prefix__Y"/></mask><path fill="url(#prefix__Z)" d="M0.084 10.448L20.871 20.842 20.871 0.051z" mask="url(#prefix__aa)"/></g><g transform="translate(-35 -199) translate(89) translate(201.6 525.903)"><mask id="prefix__ad" fill="#fff"><use xlink:href="#prefix__ab"/></mask><path fill="url(#prefix__ac)" d="M0.294 20.842L21.086 31.242 21.086 10.449 0.294 0.051z" mask="url(#prefix__ad)"/></g><g transform="translate(-35 -199) translate(89) translate(201.6 525.903)"><mask id="prefix__ag" fill="#fff"><use xlink:href="#prefix__ae"/></mask><path fill="url(#prefix__af)" d="M0.294 20.842L21.082 10.448 0.294 0.051z" mask="url(#prefix__ag)"/></g><g transform="translate(-35 -199) translate(89) translate(243.4 525.903)"><mask id="prefix__ai" fill="#fff"><use xlink:href="#prefix__ah"/></mask><path fill="#F5C25B" d="M15.673 7.869L5.298 13.058 -5.077 7.869 5.298 2.681z" mask="url(#prefix__ai)"/><g><mask id="prefix__al" fill="#fff"><use xlink:href="#prefix__aj"/></mask><use fill="url(#prefix__ak)" fill-rule="nonzero" xlink:href="#prefix__aj"/><path fill="#F5E48C" d="M15.673 18.245L5.298 23.434 5.298 13.058 15.673 7.87z" mask="url(#prefix__al)"/><path fill="#F5C25B" fill-rule="nonzero" d="M5.296 13.058L15.673 7.87 -28.396 -11.903 -36.9 -7.115z" mask="url(#prefix__al)"/></g></g><g transform="translate(-35 -199) translate(89) translate(243.4 535.703)"><mask id="prefix__ao" fill="#fff"><use xlink:href="#prefix__am"/></mask><path fill="url(#prefix__an)" d="M0.079 0.649L0.079 11.023 5.296 13.633 5.296 3.258 0.08 0.649z" mask="url(#prefix__ao)"/></g><g transform="translate(-35 -199) translate(89) translate(201.6 525.903)"><mask id="prefix__aq" fill="#fff"><use xlink:href="#prefix__ap"/></mask><path fill="#F5C25B" d="M5.492 7.869L15.867 13.058 26.243 7.869 15.867 2.681z" mask="url(#prefix__aq)"/></g><g transform="translate(-35 -199) translate(89) translate(206.4 533.303)"><mask id="prefix__at" fill="#fff"><use xlink:href="#prefix__ar"/></mask><path fill="url(#prefix__as)" d="M0.692 10.846L11.066 16.033 11.066 5.658 0.692 0.469z" mask="url(#prefix__at)"/></g><g transform="translate(-35 -199) translate(89) translate(201.6 525.903)"><mask id="prefix__av" fill="#fff"><use xlink:href="#prefix__au"/></mask><path fill="#F5E48C" d="M15.867 23.434L26.242 18.245 26.242 7.869 15.867 13.059z" mask="url(#prefix__av)"/></g><g transform="translate(-35 -199) translate(89) translate(48 512.903)"><mask id="prefix__ay" fill="#fff"><use xlink:href="#prefix__aw"/></mask><path fill="url(#prefix__ax)" fill-rule="nonzero" d="M0.79 21.398L42.374 42.197 83.959 21.398 42.374 0.601z" mask="url(#prefix__ay)"/></g><path fill="#FFF" d="M100.282 529.347c5.47 2.736 5.47 7.173 0 9.91-5.472 2.735-14.343 2.735-19.815 0-5.47-2.737-5.47-7.174 0-9.91 5.472-2.736 14.343-2.736 19.815 0" transform="translate(-35 -199) translate(89)"/><g transform="translate(-35 -199) translate(89) translate(90 534.303)"><mask id="prefix__aB" fill="#fff"><use xlink:href="#prefix__az"/></mask><path fill="url(#prefix__aA)" fill-rule="nonzero" d="M0.374 20.797L0.374 62.379 41.959 41.584 41.959 -0.002z" mask="url(#prefix__aB)"/></g><g transform="translate(-35 -199) translate(89) translate(90 .503)"><mask id="prefix__aE" fill="#fff"><use xlink:href="#prefix__aC"/></mask><path fill="url(#prefix__aD)" fill-rule="nonzero" d="M0.374 195.533L0.374 523.424 42.053 536.735 41.958 540.533 54.053 536.735 95.729 523.424 95.729 195.533z" mask="url(#prefix__aE)" opacity=".611"/></g><g transform="translate(-35 -199) translate(89) translate(48 534.303)"><mask id="prefix__aH" fill="#fff"><use xlink:href="#prefix__aF"/></mask><path fill="url(#prefix__aG)" fill-rule="nonzero" d="M0.79 41.584L42.374 62.379 42.374 20.797 0.79 -0.002z" mask="url(#prefix__aH)"/></g><g transform="translate(-35 -199) translate(89) translate(190.8 522.303)"><mask id="prefix__aK" fill="#fff"><use xlink:href="#prefix__aI"/></mask><path fill="url(#prefix__aJ)" d="M.707.081v41.59c.001.753.575 1.506 1.724 2.082 2.3 1.15 6.029 1.15 8.33 0 1.149-.576 1.724-1.329 1.724-2.082V.08H.707z" mask="url(#prefix__aK)"/></g><path fill="#FFF" d="M193.231 520.301c-2.299 1.151-2.299 3.016 0 4.167 2.3 1.15 6.029 1.15 8.33 0 2.299-1.151 2.299-3.016-.002-4.167-2.299-1.15-6.027-1.15-8.328 0" transform="translate(-35 -199) translate(89)"/><g transform="translate(-35 -199) translate(89) translate(178.8 516.503)"><mask id="prefix__aN" fill="#fff"><use xlink:href="#prefix__aL"/></mask><path fill="url(#prefix__aM)" d="M.809-.004v41.589c0 .752.575 1.507 1.724 2.082 2.3 1.15 6.029 1.15 8.33 0 1.148-.575 1.724-1.329 1.724-2.082V-.004H.809z" mask="url(#prefix__aN)"/></g><path fill="#FFF" d="M181.333 514.416c-2.3 1.15-2.3 3.014 0 4.165 2.3 1.15 6.028 1.15 8.328 0s2.3-3.015 0-4.165-6.029-1.15-8.328 0" transform="translate(-35 -199) translate(89)"/><g transform="translate(-35 -199) translate(89) translate(202.8 527.303)"><mask id="prefix__aQ" fill="#fff"><use xlink:href="#prefix__aO"/></mask><path fill="url(#prefix__aP)" d="M.605.967v41.59c0 .753.576 1.507 1.725 2.082 2.3 1.15 6.028 1.15 8.328 0 1.151-.575 1.726-1.329 1.726-2.082V.967H.604z" mask="url(#prefix__aQ)"/></g><path fill="#FFF" d="M205.13 526.188c-2.3 1.15-2.3 3.015 0 4.165s6.028 1.15 8.328 0 2.3-3.015 0-4.165-6.028-1.15-8.328 0" transform="translate(-35 -199) translate(89)"/><g transform="translate(-35 -199) translate(89) translate(214.8 533.303)"><mask id="prefix__aT" fill="#fff"><use xlink:href="#prefix__aR"/></mask><path fill="url(#prefix__aS)" d="M.504.853v41.589c0 .753.575 1.508 1.724 2.083 2.3 1.15 6.03 1.15 8.33 0 1.15-.575 1.724-1.329 1.724-2.083V.853H.504z" mask="url(#prefix__aT)"/></g><path fill="#FFF" d="M217.028 532.074c-2.299 1.15-2.299 3.014 0 4.165 2.3 1.15 6.03 1.15 8.328 0 2.3-1.15 2.3-3.016 0-4.165-2.299-1.151-6.027-1.151-8.328 0" transform="translate(-35 -199) translate(89)"/><g transform="translate(-35 -199) translate(89) translate(178.8 528.303)"><mask id="prefix__aW" fill="#fff"><use xlink:href="#prefix__aU"/></mask><path fill="url(#prefix__aV)" d="M.809.032v41.59c0 .753.575 1.506 1.724 2.082 2.3 1.15 6.029 1.15 8.33 0 1.148-.576 1.724-1.329 1.724-2.082V.032H.809z" mask="url(#prefix__aW)"/></g><path fill="#FFF" d="M181.333 526.252c-2.3 1.15-2.3 3.016 0 4.165 2.3 1.151 6.028 1.151 8.328.001 2.3-1.15 2.3-3.015 0-4.166-2.3-1.15-6.029-1.15-8.328 0" transform="translate(-35 -199) translate(89)"/><g transform="translate(-35 -199) translate(89) translate(166.8 522.303)"><mask id="prefix__aZ" fill="#fff"><use xlink:href="#prefix__aX"/></mask><path fill="url(#prefix__aY)" d="M.91.147v41.589c0 .752.574 1.507 1.724 2.082 2.3 1.15 6.029 1.15 8.33 0 1.149-.575 1.724-1.33 1.724-2.082V.147H.91z" mask="url(#prefix__aZ)"/></g><path fill="#FFF" d="M169.434 520.366c-2.3 1.15-2.3 3.015 0 4.166 2.3 1.15 6.029 1.15 8.328 0 2.3-1.15 2.3-3.016 0-4.166-2.3-1.15-6.028-1.15-8.328 0" transform="translate(-35 -199) translate(89)"/><g transform="translate(-35 -199) translate(89) translate(190.8 533.303)"><mask id="prefix__bc" fill="#fff"><use xlink:href="#prefix__ba"/></mask><path fill="url(#prefix__bb)" d="M.708.918v41.588c0 .755.574 1.509 1.723 2.084 2.3 1.15 6.029 1.15 8.33 0 1.149-.575 1.724-1.329 1.724-2.084V.918H.708z" mask="url(#prefix__bc)"/></g><path fill="#FFF" d="M193.231 532.138c-2.299 1.15-2.299 3.016 0 4.166 2.3 1.15 6.029 1.15 8.33 0 2.299-1.15 2.299-3.016 0-4.166-2.301-1.15-6.03-1.15-8.33 0" transform="translate(-35 -199) translate(89)"/><g transform="translate(-35 -199) translate(89) translate(202.8 539.303)"><mask id="prefix__bf" fill="#fff"><use xlink:href="#prefix__bd"/></mask><path fill="url(#prefix__be)" d="M.605.804v41.588c0 .754.576 1.508 1.725 2.084 2.3 1.15 6.03 1.15 8.328 0 1.151-.576 1.726-1.33 1.726-2.084V.804H.604z" mask="url(#prefix__bf)"/></g><path fill="#FFF" d="M205.13 538.025c-2.3 1.15-2.3 3.014 0 4.165 2.3 1.15 6.028 1.15 8.328 0 2.3-1.151 2.3-3.016 0-4.165-2.3-1.151-6.028-1.151-8.328 0" transform="translate(-35 -199) translate(89)"/><g transform="translate(-35 -199) translate(89) translate(166.8 533.303)"><mask id="prefix__bi" fill="#fff"><use xlink:href="#prefix__bg"/></mask><path fill="url(#prefix__bh)" d="M.91.983v41.59c0 .753.574 1.505 1.724 2.081 2.3 1.151 6.029 1.151 8.33 0 1.149-.576 1.724-1.328 1.724-2.082V.982H.91z" mask="url(#prefix__bi)"/></g><path fill="#FFF" d="M169.435 532.203c-2.3 1.15-2.3 3.015-.001 4.165 2.3 1.15 6.029 1.15 8.33 0 2.298-1.15 2.298-3.016-.002-4.165-2.3-1.15-6.028-1.15-8.327 0" transform="translate(-35 -199) translate(89)"/><g transform="translate(-35 -199) translate(89) translate(155.8 528.303)"><mask id="prefix__bl" fill="#fff"><use xlink:href="#prefix__bj"/></mask><path fill="url(#prefix__bk)" d="M.01.096v41.59c0 .753.576 1.506 1.726 2.082 2.298 1.15 6.029 1.151 8.328 0 1.15-.576 1.726-1.33 1.726-2.082V.096H.01z" mask="url(#prefix__bl)"/></g><path fill="#FFF" d="M157.536 526.316c-2.3 1.151-2.3 3.016 0 4.167 2.3 1.15 6.027 1.15 8.328 0 2.3-1.151 2.3-3.016 0-4.167-2.3-1.15-6.028-1.15-8.328 0" transform="translate(-35 -199) translate(89)"/><g transform="translate(-35 -199) translate(89) translate(178.8 539.303)"><mask id="prefix__bo" fill="#fff"><use xlink:href="#prefix__bm"/></mask><path fill="url(#prefix__bn)" d="M.809.869v41.588c0 .754.575 1.509 1.724 2.082 2.3 1.152 6.03 1.152 8.33 0 1.148-.573 1.724-1.327 1.724-2.082V.87H.809z" mask="url(#prefix__bo)"/></g><path fill="#FFF" d="M181.333 538.089c-2.3 1.15-2.3 3.014 0 4.165 2.3 1.15 6.029 1.15 8.328 0 2.3-1.15 2.3-3.015 0-4.165s-6.028-1.15-8.328 0" transform="translate(-35 -199) translate(89)"/><g transform="translate(-35 -199) translate(89) translate(190.8 545.303)"><mask id="prefix__br" fill="#fff"><use xlink:href="#prefix__bp"/></mask><path fill="url(#prefix__bq)" d="M.708.754v41.59c0 .753.574 1.506 1.723 2.082 2.3 1.15 6.029 1.151 8.33 0 1.149-.576 1.724-1.33 1.724-2.083V.753H.708z" mask="url(#prefix__br)"/></g><path fill="#FFF" d="M193.232 543.974c-2.3 1.151-2.3 3.016 0 4.167 2.3 1.15 6.028 1.15 8.328 0 2.3-1.151 2.3-3.016 0-4.167-2.3-1.15-6.029-1.15-8.328 0" transform="translate(-35 -199) translate(89)"/><g transform="translate(-35 -199) translate(89) translate(155.8 539.303)"><mask id="prefix__bu" fill="#fff"><use xlink:href="#prefix__bs"/></mask><path fill="url(#prefix__bt)" d="M.01.934v41.588c0 .755.576 1.507 1.726 2.083 2.3 1.151 6.029 1.151 8.328 0 1.15-.576 1.726-1.328 1.726-2.083V.934H.01z" mask="url(#prefix__bu)"/></g><path fill="#FFF" d="M157.536 538.154c-2.3 1.15-2.3 3.015 0 4.165s6.029 1.15 8.328 0c2.3-1.15 2.3-3.016 0-4.165-2.3-1.151-6.028-1.151-8.328 0" transform="translate(-35 -199) translate(89)"/><g transform="translate(-35 -199) translate(89) translate(143.8 534.303)"><mask id="prefix__bx" fill="#fff"><use xlink:href="#prefix__bv"/></mask><path fill="url(#prefix__bw)" d="M.114.046v41.591c0 .753.573 1.506 1.723 2.082 2.3 1.15 6.029 1.15 8.329 0 1.15-.576 1.726-1.33 1.726-2.082V.047H.114z" mask="url(#prefix__bx)"/></g><path fill="#FFF" d="M145.638 532.267c-2.3 1.151-2.3 3.016 0 4.165 2.299 1.151 6.027 1.151 8.328 0 2.299-1.15 2.299-3.014 0-4.165-2.3-1.15-6.029-1.15-8.328 0" transform="translate(-35 -199) translate(89)"/><g transform="translate(-35 -199) translate(89) translate(166.8 545.303)"><mask id="prefix__bA" fill="#fff"><use xlink:href="#prefix__by"/></mask><path fill="url(#prefix__bz)" d="M.91.82v41.588c0 .754.574 1.507 1.725 2.082 2.3 1.152 6.028 1.152 8.328 0 1.15-.575 1.726-1.328 1.726-2.082V.82H.909z" mask="url(#prefix__bA)"/></g><path fill="#FFF" d="M169.435 544.039c-2.3 1.15-2.3 3.015 0 4.166 2.3 1.15 6.028 1.15 8.328 0s2.3-3.016 0-4.166c-2.3-1.15-6.029-1.15-8.328 0" transform="translate(-35 -199) translate(89)"/><g transform="translate(-35 -199) translate(89) translate(178.8 551.303)"><mask id="prefix__bD" fill="#fff"><use xlink:href="#prefix__bB"/></mask><path fill="url(#prefix__bC)" d="M.809.704v41.59c0 .754.575 1.507 1.724 2.083 2.3 1.15 6.03 1.15 8.33 0 1.148-.576 1.724-1.33 1.724-2.083V.704H.809z" mask="url(#prefix__bD)"/></g><g><path fill="#FFF" d="M85.333 13.022c-2.3 1.151-2.3 3.016 0 4.165 2.3 1.151 6.029 1.151 8.328 0 2.3-1.15 2.3-3.014 0-4.165-2.3-1.15-6.028-1.15-8.328 0" transform="translate(-35 -199) translate(89) translate(96 536.903)"/><path fill="#F5C25B" d="M83.498 21.15L41.913 41.946 0.327 21.15 41.913 0.353z" transform="translate(-35 -199) translate(89) translate(96 536.903)"/><path fill="#F5E48C" d="M83.498 62.734L41.913 83.532 41.913 41.947 83.498 21.151z" transform="translate(-35 -199) translate(89) translate(96 536.903)"/></g><g transform="translate(-35 -199) translate(89) translate(96 557.303)"><mask id="prefix__bG" fill="#fff"><use xlink:href="#prefix__bE"/></mask><path fill="url(#prefix__bF)" d="M0.328 42.335L41.912 63.132 41.912 21.547 0.328 0.75z" mask="url(#prefix__bG)"/></g><g transform="translate(-35 -199) translate(89) translate(114 553.703)"><mask id="prefix__bJ" fill="#fff"><use xlink:href="#prefix__bH"/></mask><path fill="url(#prefix__bI)" d="M0.134 13.374L23.912 48.582 47.692 13.374 23.912 0.121z" mask="url(#prefix__bJ)"/></g><g transform="translate(-35 -199) translate(89) translate(122.4 559.703)"><mask id="prefix__bL" fill="#fff"><use xlink:href="#prefix__bK"/></mask><path fill="#FFF" d="M30.713 8.821L15.513 16.423 0.312 8.821 15.513 1.219z" mask="url(#prefix__bL)"/></g><g transform="translate(-35 -199) translate(89) translate(137.8 568.103)"><mask id="prefix__bO" fill="#fff"><use xlink:href="#prefix__bM"/></mask><path fill="url(#prefix__bN)" d="M0.112 8.023L0.112 22.927 15.313 0.421z" mask="url(#prefix__bO)"/></g><g transform="translate(-35 -199) translate(89) translate(122.4 568.103)"><mask id="prefix__bR" fill="#fff"><use xlink:href="#prefix__bP"/></mask><path fill="url(#prefix__bQ)" d="M0.313 0.421L15.512 22.927 15.512 8.023z" mask="url(#prefix__bR)"/></g><g fill="#FFF"><path d="M0.91 51.707L0.325 51.581 11.248 0.874 11.835 1z" transform="translate(-35 -199) translate(89) translate(113 255.503)"/><path d="M30.214 56.571L.571 51.941.664 51.347 30.308 55.979zM49.503 143.742L32.378 103.678 32.929 103.442 50.054 143.506zM37.072 59.938L11.267 1.058 11.816.815 37.621 59.697z" transform="translate(-35 -199) translate(89) translate(113 255.503)"/><path d="M32.953 103.592L32.355 103.528 37.047 59.786 37.645 59.849z" transform="translate(-35 -199) translate(89) translate(113 255.503)"/></g><g transform="translate(-35 -199) translate(89) translate(117.4 248.903)"><mask id="prefix__bU" fill="#fff"><use xlink:href="#prefix__bS"/></mask><path fill="url(#prefix__bT)" d="M0.109 4.019L7.141 7.535 14.226 3.992 7.195 0.476z" mask="url(#prefix__bU)"/></g><g transform="translate(-35 -199) translate(89) translate(117.4 252.503)"><mask id="prefix__bX" fill="#fff"><use xlink:href="#prefix__bV"/></mask><path fill="url(#prefix__bW)" d="M0.109 7.504L7.141 11.021 7.141 3.935 0.109 0.419z" mask="url(#prefix__bX)"/></g><g transform="translate(-35 -199) translate(89) translate(123.6 252.503)"><mask id="prefix__ca" fill="#fff"><use xlink:href="#prefix__bY"/></mask><path fill="url(#prefix__bZ)" d="M0.941 3.935L0.941 11.021 8.026 7.476 8.026 0.392z" mask="url(#prefix__ca)"/></g><g><path fill="#F5C25B" d="M14.578 4.101L7.547 7.618 0.461 4.074 7.494 0.557z" transform="translate(-35 -199) translate(89) translate(142.8 307.703)"/><path fill="#F5E48C" d="M14.578 11.185L7.547 14.702 7.547 7.617 14.578 4.101z" transform="translate(-35 -199) translate(89) translate(142.8 307.703)"/></g><g transform="translate(-35 -199) translate(89) translate(142.8 311.303)"><mask id="prefix__cd" fill="#fff"><use xlink:href="#prefix__cb"/></mask><path fill="url(#prefix__cc)" d="M0.461 7.559L7.547 11.101 7.547 4.018 0.461 0.474z" mask="url(#prefix__cd)"/></g><path fill="#FFF" d="M138.622 355.545L145.654 359.063 152.739 355.52 145.707 352.002z" transform="translate(-35 -199) translate(89)"/><g transform="translate(-35 -199) translate(89) translate(138 355.503)"><mask id="prefix__cg" fill="#fff"><use xlink:href="#prefix__ce"/></mask><path fill="url(#prefix__cf)" d="M0.623 7.128L7.655 10.644 7.655 3.56 0.623 0.043z" mask="url(#prefix__cg)"/></g><g transform="translate(-35 -199) translate(89) translate(145.2 355.503)"><mask id="prefix__cj" fill="#fff"><use xlink:href="#prefix__ch"/></mask><path fill="url(#prefix__ci)" d="M0.455 3.56L0.455 10.644 7.538 7.101 7.538 0.016z" mask="url(#prefix__cj)"/></g><path fill="#F5C25B" d="M106.277 303.475L113.617 307.147 120.702 303.602 113.361 299.933z" transform="translate(-35 -199) translate(89)"/><g transform="translate(-35 -199) translate(89) translate(105.6 302.903)"><mask id="prefix__cm" fill="#fff"><use xlink:href="#prefix__ck"/></mask><path fill="url(#prefix__cl)" d="M0.677 7.656L8.017 11.327 8.017 4.243 0.677 0.572z" mask="url(#prefix__cm)"/></g><g><path fill="#F5E48C" d="M0.817 11.328L7.901 7.785 7.901 0.7 0.817 4.244z" transform="translate(-35 -199) translate(89) translate(112.8 302.903)"/><path fill="#F5C25B" d="M42.638 92.552L49.979 96.224 57.063 92.68 49.722 89.009z" transform="translate(-35 -199) translate(89) translate(112.8 302.903)"/></g><g transform="translate(-35 -199) translate(89) translate(154.8 395.303)"><mask id="prefix__cp" fill="#fff"><use xlink:href="#prefix__cn"/></mask><path fill="url(#prefix__co)" d="M0.638 7.237L7.979 10.907 7.979 3.823 0.638 0.151z" mask="url(#prefix__cp)"/></g><g><path fill="#F5E48C" d="M0.779 10.907L7.862 7.365 7.862 0.281 0.779 3.823z" transform="translate(-35 -199) translate(89) translate(162 395.303)"/><path fill="#80EBEB" d="M70.361 124.028c-.014-.305-.276-.653-.552-.734l-3.66-1.12c-.195-.058-.403.024-.506.198-.123.209-.145.617.021.766l3.21 2.198c.876.307 1.538-.005 1.538-.365l-.05-.943zM54.425 130.752l-5.005-1.291c-.252-.065-.403-.322-.339-.574.054-.208.243-.355.46-.352l5.33.032.544.4.056 1.437c-.064.252-.794.414-1.046.348" transform="translate(-35 -199) translate(89) translate(162 395.303)"/><path fill="#37384F" d="M62.703 101.073l6.217 22.624c.207.683 1.437.814 1.425.11-.303-9.912.436-19.392-2.158-25.357l-5.484 2.623z" transform="translate(-35 -199) translate(89) translate(162 395.303)"/><path fill="#B3B3B3" d="M79.648 102.665c-1.32-.66-3.458-.66-4.776 0l-14.115 5.876v1.895c.008.427.335.854.989 1.182l7.605 3.804c1.32.66 3.457.66 4.776 0l13.127-6.565c.659-.329.989-.762.989-1.194v-1.894l-8.595-3.104z" transform="translate(-35 -199) translate(89) translate(162 395.303)"/><path fill="#FFF" d="M87.254 106.971l-13.126 6.564c-1.32.66-3.457.66-4.777 0l-7.606-3.802c-1.318-.66-1.318-1.73 0-2.39l13.127-6.564c1.318-.66 3.457-.66 4.776 0l7.606 3.803c1.319.66 1.319 1.73 0 2.39" transform="translate(-35 -199) translate(89) translate(162 395.303)"/><path fill="#37384F" d="M62.703 101.073l11.556 5.44 7.423-7.07-16.049-5.234c-2.434-.764-4.016.063-3.73 2.42l.8 4.444z" transform="translate(-35 -199) translate(89) translate(162 395.303)"/><path fill="#4C4E6E" d="M51.235 103.697l2.8 24.886c.098.707 1.294 1.027 1.39.331 1.234-9.841 3.558-16.842 1.89-25.308l-6.08.091z" transform="translate(-35 -199) translate(89) translate(162 395.303)"/><path fill="#4C4E6E" d="M54.819 105.62c6.501 2.266 14.45 4.713 21.085 3.367 3.666-1.315 5.637-4.812 5.779-10.663l-13.494.983-15.374.137c-1.52.458-1.692 2.219-1.58 4.253l3.584 1.922z" transform="translate(-35 -199) translate(89) translate(162 395.303)"/><path fill="#B3B3B3" d="M66.624 74.675c-1.32-.66-3.458-.66-4.777 0l-44.078 20.86v1.894c.008.428.336.857.988 1.183l19.157 9.581c1.319.658 3.457.658 4.777 0l43.089-21.55c.66-.33.989-.762.989-1.194v-1.894l-20.145-8.88z" transform="translate(-35 -199) translate(89) translate(162 395.303)"/><path fill="#FFF" d="M85.78 84.757L42.69 106.306c-1.32.66-3.458.66-4.777 0l-19.157-9.58c-1.317-.66-1.317-1.73 0-2.39l43.09-21.549c1.319-.658 3.458-.658 4.777 0l19.156 9.581c1.32.66 1.32 1.73 0 2.39" transform="translate(-35 -199) translate(89) translate(162 395.303)"/><path fill="#EBEFF0" d="M49.509 88.277L53.878 86.093 53.878 85.218 50.46 83.509 50.46 78.344 49.586 77.906 45.218 80.093 45.218 86.131z" transform="translate(-35 -199) translate(89) translate(162 395.303)"/><path fill="#DBDCE0" d="M45.217 86.131L49.509 88.276 49.509 87.404 46.092 85.694 46.092 80.528 45.217 80.092zM36.996 85.555L38.366 86.239 51.897 73.473 57.897 63.451 56.527 62.767 36.996 72.534z" transform="translate(-35 -199) translate(89) translate(162 395.303)"/><path fill="#EBEFF0" d="M38.366 86.24L57.897 76.472 57.897 63.452 38.366 73.219z" transform="translate(-35 -199) translate(89) translate(162 395.303)"/><path fill="#44B8FA" d="M56.697 75.872L56.697 65.251 39.566 73.819 39.566 84.44z" transform="translate(-35 -199) translate(89) translate(162 395.303)"/><path fill="#DBDCE0" d="M68.4 88.697L52.796 96.501 44.994 92.6 44.994 91.29 60.597 84.796 68.4 87.388z" transform="translate(-35 -199) translate(89) translate(162 395.303)"/><path fill="#EBEFF0" d="M68.4 87.388L52.796 95.192 44.994 91.291 60.597 83.487z" transform="translate(-35 -199) translate(89) translate(162 395.303)"/><path fill="#F4ACC8" d="M72.402 73.299c-.027.692 1.778 1.404 2.986.695l1.384-1.292.962-3.496-1.572-2.318-3.795.873.035 5.538z" transform="translate(-35 -199) translate(89) translate(162 395.303)"/><path fill="#F4ACC8" d="M75.114 73.521L75.449 77.971 78.891 77.023 77.368 71.804z" transform="translate(-35 -199) translate(89) translate(162 395.303)"/><path fill="#37384F" d="M71.946 67.752l1.308 1.335c.36.367.565.858.572 1.372l.008.53c.009.505.208.988.557 1.353l.117.123c.627.656 1.617.81 2.414.37.556-.304.935-.854 1.022-1.48l.647-2.824c.202-.877-.37-1.758-1.257-1.903-.98-.157-2.11-.21-2.507-.145l-2.578.428-.985-.028.682.87z" transform="translate(-35 -199) translate(89) translate(162 395.303)"/><path fill="#80EBEB" d="M70.344 92.591l-1.226 7.768c1.164 2.957 12.104 1.807 12.564-.917l1.604-8.756-12.942 1.905z" transform="translate(-35 -199) translate(89) translate(162 395.303)"/><path fill="#80EBEB" d="M83.286 90.686c.986-4.1 2.54-14.968 1.27-16.507-3.963-1.095-12.566 1.954-16.364 5.698l2.251 14.14 12.843-3.331z" transform="translate(-35 -199) translate(89) translate(162 395.303)"/><path fill="#80EBEB" d="M64.385 93.277l2.022.35s3.136-5.425 4.994-9.709c.28-1.84-.51-5.164-3.209-4.04l-4.431 11.787.624 1.612z" transform="translate(-35 -199) translate(89) translate(162 395.303)"/><path fill="#80EBEB" d="M64.269 90.317l-7.578 1.56-.189 1.24c2.76 1.313 6.79 1.168 9.904.51l-2.137-3.31z" transform="translate(-35 -199) translate(89) translate(162 395.303)"/><path fill="#F4ACC8" d="M56.503 93.116l-2.411-1.075-2.094-.37.488-.73c.287-.425.783-.663 1.294-.62l.915.08 1.995 1.477-.187 1.238z" transform="translate(-35 -199) translate(89) translate(162 395.303)"/></g><g transform="translate(-35 -199) translate(89) translate(19 400)"><mask id="prefix__ct" fill="#fff"><use xlink:href="#prefix__cr"/></mask><path fill="url(#prefix__cs)" d="M71.346.044c-.204.011-.458.142-.56.412l-61.394 160.2-8.924 23.286h1.264l1.003-2.618 4.997 2.618h2.643l-7.199-3.772 3.258-8.5 17.502 9.172-1.188 3.1h1.264L90.457 10.556c.08-.204.029-.373-.01-.457-.034-.083-.129-.233-.33-.302-.071-.023-.143-.033-.215-.029-.206.01-.46.142-.562.41l-2.068 5.394-17.502-9.17L71.903.834c.079-.204.029-.373-.01-.457-.035-.083-.13-.233-.33-.301-.063-.02-.127-.032-.192-.032h-.025zm-5.275 16.01l3.258-8.501 17.502 9.173-3.258 8.5-17.502-9.172zm-3.7 9.654l3.258-8.5 17.502 9.17-3.258 8.502-17.502-9.172zm-3.698 9.654l3.257-8.501 17.502 9.173-3.258 8.5-17.501-9.172zm-3.701 9.654l3.258-8.501 17.502 9.171-3.257 8.501-17.503-9.171zm-3.7 9.654l3.258-8.501 17.502 9.171-3.258 8.501-17.502-9.171zm-3.7 9.655l3.259-8.502 17.502 9.171-3.258 8.501-17.502-9.17zm-3.7 9.654l3.26-8.501 17.501 9.172-3.258 8.5-17.503-9.171zm-3.7 9.654l3.26-8.501 17.502 9.172-3.258 8.5-17.504-9.171zm-3.7 9.654l3.26-8.501 17.502 9.17-3.258 8.501-17.503-9.17zm-3.698 9.654l3.257-8.502 17.503 9.171-3.258 8.501-17.502-9.17zm-3.7 9.653l3.258-8.501 17.503 9.171-3.258 8.501-17.503-9.171zm-3.7 9.654l3.258-8.501 17.502 9.171-3.258 8.501-17.502-9.171zm-3.7 9.654l3.258-8.501 17.502 9.171-3.258 8.501-17.502-9.171zm-3.7 9.654l3.259-8.5 17.502 9.17-3.258 8.5-17.502-9.17zm-3.699 9.652l3.258-8.5 17.502 9.171-1.191 3.108-2.067 5.393-17.502-9.172zm-3.7 9.654l.081-.206 3.178-8.293 15.828 8.293 1.674.878-3.257 8.5-17.503-9.172zm-3.699 9.654l3.258-8.5 17.503 9.171-3.259 8.502-17.502-9.173z" mask="url(#prefix__ct)"/></g><g><path fill="#80EBEB" d="M12.44 64.666l4.51-1.63c.227-.083.345-.334.263-.56-.068-.188-.255-.306-.454-.286l-4.922.496c-.283.028-.464.315-.367.583l.41 1.134c.083.228.333.344.56.263M5.125 77.768c.198-.024.388.09.46.277.085.226-.028.478-.252.564L.852 80.323c-.331.116-.774-.19-.687-.575l.236-1.416 4.724-.564z" transform="translate(-35 -199) translate(89) translate(63.4 414.503)"/><path fill="#BBA5FF" d="M19.445 12.132l6.75-8.556 1.012.678c-1.296 3.106-3.789 7.125-5.877 9.96-.198.27-.464.48-.774.603-3.045 1.223-6.546 2.21-10.284 3.077l-3.688-4.456 12.861-1.306z" transform="translate(-35 -199) translate(89) translate(63.4 414.503)"/><path fill="#F4ACC8" d="M15.292 12.088c.14.676-1.52 1.672-2.825 1.171L10.9 12.214l-1.518-3.28 1.169-2.535 3.873.238.87 5.451z" transform="translate(-35 -199) translate(89) translate(63.4 414.503)"/><path fill="#F4ACC8" d="M13.589 11.392L12.503 15.706 9.285 14.189 11.668 9.323z" transform="translate(-35 -199) translate(89) translate(63.4 414.503)"/><path fill="#37384F" d="M14.836 6.56l-1.069 1.526c-.293.42-.414.936-.34 1.443l.08.521c.073.498-.044 1.007-.327 1.423l-.093.138c-.512.748-1.46 1.06-2.316.76-.596-.209-1.058-.686-1.246-1.29L9.095 9.7c-.171-.544-.1-1.135.194-1.625l.793-1.322c.361-.603 1.013-.97 1.715-.97H14.4l.963-.187-.528.965zM4.893 54.072C2.732 48.059 1.21 41.522.387 34.413l6.231-3.247 4.905 1.665-1.397 22.39c.008.53-.086 1.056-.28 1.55L1.727 78.299c-.224.622-1.371.684-1.326.033.767-9.17 1.795-18.86 4.492-24.26" transform="translate(-35 -199) translate(89) translate(63.4 414.503)"/><path fill="#4C4E6E" d="M12.267 34.089l12.076 4.757c1.379.416 2.09 1.938 1.524 3.263L12.752 63.273c-.275.418-1.537.215-1.379-.346 1.8-6.171 3.192-13.863 7.683-18.098-5.682-.241-10.91-.642-15.221-1.657-2.578-.607-4.105-4.693-3.448-8.758l11.88-.325z" transform="translate(-35 -199) translate(89) translate(63.4 414.503)"/><path fill="#BBA5FF" d="M12.267 34.089c-1.344 2.868-11.595 3.064-11.88.325l1.206-9.864c.712-3.977 3.12-10.06 4.991-11.112 3.609.016 8.154 1.693 12.25 4.437l-6.735 10.442.168 5.772z" transform="translate(-35 -199) translate(89) translate(63.4 414.503)"/><path fill="#BBA5FF" d="M18.833 17.875l3.52 11.724 4.133-4.54.975.728c-.741 2.817-2.88 5.52-4.868 6.925-.714.504-1.72.285-2.273-.391-1.987-2.426-3.795-5.728-5.21-10.018l3.723-4.428z" transform="translate(-35 -199) translate(89) translate(63.4 414.503)"/><path fill="#F4ACC8" d="M26.195 3.576l.465-1.419c.325-.998 1.257-1.672 2.308-1.672h1.424l.52 1.094-1.56.293-2.145 2.38-1.012-.676zM26.486 25.06l-.065-.803c-.085-1.07.682-2.02 1.745-2.16l1.247-.164.04 1.614-1.992 2.239-.975-.726z" transform="translate(-35 -199) translate(89) translate(63.4 414.503)"/></g></g></g></svg>