<svg xmlns="http://www.w3.org/2000/svg" width="14" height="14" fill="none" viewBox="0 0 14 14"><path fill="#697886" fill-opacity=".35" fill-rule="evenodd" d="M1.67758 0.507762C1.35067 0.253574 0.877977 0.276682 0.577574 0.577085C0.252137 0.902522 0.252137 1.43016 0.577574 1.7556L5.82165 6.99967L0.577574 12.2438L0.50825 12.3223C0.254063 12.6492 0.27717 13.1219 0.577574 13.4223C0.903011 13.7477 1.43065 13.7477 1.75609 13.4223L7.00016 8.17818L12.2442 13.4223L12.3227 13.4916C12.6497 13.7458 13.1223 13.7227 13.4228 13.4223C13.7482 13.0968 13.7482 12.5692 13.4228 12.2438L8.17867 6.99967L13.4228 1.7556L13.4921 1.67709C13.7463 1.35018 13.7232 0.877489 13.4228 0.577085C13.0973 0.251649 12.5697 0.251649 12.2442 0.577085L7.00016 5.82116L1.75609 0.577085L1.67758 0.507762Z" clip-rule="evenodd"/></svg>