<svg width="65" height="64" viewBox="0 0 65 64" fill="none" xmlns="http://www.w3.org/2000/svg">
<rect x="0.333252" width="64" height="64" rx="12" fill="url(#paint0_linear_855_10006)"/>
<path d="M31.6264 38.352C27.7105 43.2315 21.9425 49.4307 17.9088 49.4307C14.1569 49.4307 10.8337 46.7162 8.78795 42.5427C10.2317 44.2484 12.0622 45.2681 14.0537 45.2681C18.7168 45.2681 26.4702 34.2215 27.4638 32.7802C27.9292 32.1052 29.5063 29.8503 31.6263 27.2087C35.5422 22.3292 41.3103 16.1299 45.344 16.1299C49.0959 16.1299 52.4192 18.8444 54.4649 23.0179C53.0211 21.3122 51.1907 20.2925 49.1992 20.2925C44.5363 20.2925 36.7834 31.338 35.7892 32.7801C35.4838 33.2231 34.6991 34.347 33.5965 35.814C33.0193 36.582 32.3549 37.4442 31.6264 38.352C31.6264 38.352 31.6264 38.3519 31.6264 38.352Z" fill="white"/>
<path d="M33.584 40.7072C37.3025 45.0174 41.9406 49.4307 45.344 49.4307C49.0959 49.4307 52.4192 46.7162 54.4649 42.5427C53.0211 44.2484 51.1907 45.2681 49.1992 45.2681C45.736 45.2681 40.5682 39.1751 37.7309 35.449C36.9574 36.5376 35.6592 38.3147 34.0612 40.3059L33.6644 40.8003C33.6376 40.7692 33.6108 40.7382 33.584 40.7072Z" fill="white"/>
<path d="M14.0537 20.2925C17.5169 20.2925 22.6846 26.3854 25.5218 30.1114C26.2953 29.0228 27.5935 27.2458 29.1915 25.2547L29.5882 24.7603C25.8834 20.48 21.2877 16.1299 17.9088 16.1299C14.1569 16.1299 10.8337 18.8444 8.78796 23.0179C10.2317 21.3122 12.0622 20.2925 14.0537 20.2925Z" fill="white"/>
<path d="M15.0743 23.5835C13.3952 25.8659 12.3428 29.1413 12.3428 32.7801C12.3428 36.419 13.3952 39.6943 15.0743 41.9768C14.7438 42.0864 14.4257 42.146 14.1245 42.146C10.5716 42.146 7.69141 37.9527 7.69141 32.7801C7.69141 27.6075 10.5716 23.4143 14.1245 23.4143C14.4257 23.4143 14.7438 23.4738 15.0743 23.5835Z" fill="white"/>
<path d="M49.1284 42.1459C48.8258 42.1459 48.5062 42.0858 48.1741 41.9752C49.8526 39.6928 50.9045 36.4181 50.9045 32.78C50.9045 29.142 49.8526 25.8672 48.1741 23.5849C48.5062 23.4743 48.8258 23.4142 49.1284 23.4142C52.6813 23.4142 55.5615 27.6074 55.5615 32.78C55.5615 37.9527 52.6813 42.1459 49.1284 42.1459Z" fill="white"/>
<defs>
<linearGradient id="paint0_linear_855_10006" x1="0.333252" y1="0" x2="0.333252" y2="64" gradientUnits="userSpaceOnUse">
<stop stop-color="#86DBA2"/>
<stop offset="1" stop-color="#00A971"/>
</linearGradient>
</defs>
</svg>
