<svg width="64" height="64" viewBox="0 0 64 64" fill="none" xmlns="http://www.w3.org/2000/svg">
<g clip-path="url(#clip0_1081_21938)">
<g clip-path="url(#clip1_1081_21938)">
<path d="M23.8384 28.209C24.8726 26.6626 26.6082 24.1384 28.7446 21.31L29.2751 20.6077C24.3219 14.5274 18.1776 8.34802 13.6602 8.34802C8.64411 8.34802 4.2011 12.204 1.46606 18.1325C3.39629 15.7096 5.84355 14.2611 8.50609 14.2611C13.1362 14.2611 20.0452 22.9161 23.8384 28.209Z" fill="#99D7B9"/>
<path d="M40.1615 35.7911C43.9547 41.084 50.8638 49.7394 55.494 49.7394C58.1566 49.7394 60.6037 48.2908 62.534 45.868C59.799 51.7965 55.356 55.6524 50.3398 55.6524C45.7896 55.6524 39.5887 49.3833 34.6173 43.2606L34.7248 43.3928L35.2552 42.6904C37.3917 39.8619 39.1275 37.3375 40.1615 35.7911Z" fill="#99D7B9"/>
<path d="M32.0001 39.9148C26.7646 46.8462 19.0531 55.6523 13.6602 55.6523C8.6441 55.6523 4.20109 51.7964 1.46606 45.8679C3.3963 48.2908 5.84355 49.7393 8.5061 49.7393C14.7404 49.7393 25.1063 34.0473 26.4347 32C27.0569 31.0411 29.1657 27.838 32.0001 24.0856C37.2354 17.1541 44.947 8.34802 50.3398 8.34802C55.356 8.34802 59.799 12.204 62.534 18.1326C60.6037 15.7096 58.1565 14.2611 55.494 14.2611C49.2597 14.2611 38.8937 29.9526 37.5651 32.0002C37.1569 32.6293 36.108 34.2257 34.634 36.3096C33.8622 37.4006 32.974 38.6253 32.0001 39.9148Z" fill="#55BC8A"/>
<path d="M6.21873 31.9998C6.21873 26.8307 7.62566 22.178 9.87058 18.9358C9.42876 18.78 9.00345 18.6954 8.60077 18.6954C3.8507 18.6954 0 24.652 0 31.9998C0 39.3476 3.85069 45.3041 8.60076 45.3041C9.00345 45.3041 9.42875 45.2195 9.87057 45.0638C7.62566 41.8215 6.21873 37.1688 6.21873 31.9998Z" fill="#324558"/>
<path d="M55.3993 45.3042C54.9948 45.3042 54.5675 45.2188 54.1235 45.0617C56.3675 41.8195 57.7739 37.1678 57.7739 31.9998C57.7739 26.8319 56.3675 22.1801 54.1235 18.9379C54.5675 18.7808 54.9948 18.6955 55.3993 18.6955C60.1494 18.6955 64.0001 24.652 64.0001 31.9998C64.0001 39.3476 60.1494 45.3042 55.3993 45.3042Z" fill="#324558"/>
</g>
</g>
<defs>
<clipPath id="clip0_1081_21938">
<rect width="64" height="64" fill="white"/>
</clipPath>
<clipPath id="clip1_1081_21938">
<rect width="64.0001" height="47.3044" fill="white" transform="translate(0 8.34778)"/>
</clipPath>
</defs>
</svg>
