<svg xmlns="http://www.w3.org/2000/svg" width="64" height="64" viewBox="0 0 64 64"><g fill="none" fill-rule="evenodd"><path d="M0 0H64V64H0z"/><g fill-rule="nonzero"><path fill="#61D59B" d="M51.681 10.749L25.841 21.629 0 10.749 8.16 7.308 14.484 4.656 20.428 2.153 25.936 0 31.254 2.153 37.197 4.656 43.521 7.308z" transform="translate(6 8)"/><path fill="#86DBA2" d="M25.841 21.629L25.841 51.353 0.245 40.568 0 40.472 0 10.749z" transform="translate(6 8)"/><path fill="#55BC8A" d="M51.681 10.749L51.681 40.58 46.268 42.757 40.325 45.26 34.001 47.912 25.841 51.353 25.841 21.629z" transform="translate(6 8)"/><path fill="#242E42" d="M32.19 7.429v4.127c0 1.815-2.954 3.301-6.603 3.301-3.648 0-6.603-1.486-6.603-3.301V7.429c0-1.816 2.955-3.302 6.603-3.302 3.649 0 6.603 1.486 6.603 3.302z" transform="translate(6 8)"/><path fill="#65C194" d="M32.19 7.426c-.094.892-.643 1.673-1.452 2.062-1.575.867-3.354 1.294-5.15 1.237-1.798.057-3.577-.37-5.151-1.237-.81-.39-1.359-1.17-1.453-2.062 0-1.814 2.955-3.299 6.603-3.299 3.649 0 6.603 1.485 6.603 3.299z" transform="translate(6 8)"/></g></g></svg>