<svg width="65" height="64" viewBox="0 0 65 64" fill="none" xmlns="http://www.w3.org/2000/svg">
<g clip-path="url(#clip0_1081_10652)">
<path d="M63.3669 29.1601H62.2705C60.276 29.1352 56.4509 29.3486 52.983 32.3452C44.7027 39.5142 42.8125 50.0667 28.6432 55.7622C16.8404 60.5052 2.28906 56.0152 2.28906 56.0152C2.28906 56.0152 15.2726 55.1123 16.9942 45.2047C18.3387 37.4552 11.2888 31.9532 6.86333 24.9628C2.36348 17.8435 1.20751 11.9297 3.37557 9.37463C9.52255 2.11633 26.4503 21.738 34.8546 24.3824C43.0804 26.9672 48.632 20.9641 55.4438 21.8472C57.6168 22.125 58.6785 23.0627 59.383 24.2583C59.6212 24.6602 60.2066 26.0295 60.7275 26.5356C61.2385 27.0317 61.9182 27.3988 62.5532 27.7709C63.3619 28.2472 64.1607 29.1601 63.3669 29.1601Z" fill="url(#paint0_linear_1081_10652)"/>
<path d="M24.4659 17.8087C22.4318 16.2607 20.3332 14.6384 18.2693 13.16C17.8029 12.8276 17.3366 12.5001 16.8752 12.1826C11.3434 8.39718 6.21346 6.02571 3.37563 9.37454C1.20757 11.9296 2.36354 17.8434 6.86834 24.9628C6.91299 25.0372 6.96261 25.1066 7.00726 25.1811C9.35393 28.8127 16.1607 37.3212 32.2947 36.959C33.3564 35.8328 34.9688 33.7045 37.0525 31.3876C33.6739 25.9252 28.5837 21.1625 24.4659 17.8087Z" fill="url(#paint1_linear_1081_10652)"/>
<path d="M40.7292 43.4781C40.7937 41.057 40.3521 38.6706 39.5137 36.3636C37.3952 36.6812 35.0089 36.8995 32.2951 36.959C30.3205 39.0576 25.8107 44.6638 18.3391 49.7143C8.3918 56.4418 2.29443 56.0151 2.29443 56.0151C2.29443 56.0151 16.8507 60.505 28.6485 55.7621C32.8805 54.0604 36.0209 51.9271 38.5611 49.5754C38.9778 49.1785 40.6399 47.1047 40.7292 43.4781Z" fill="url(#paint2_linear_1081_10652)"/>
<path d="M37.0576 31.3877C34.9739 33.6996 33.3565 35.833 32.2998 36.9592C35.0186 36.8996 37.4049 36.6813 39.5184 36.3638C39.2703 35.6742 38.9826 34.9945 38.6651 34.3248C38.1888 33.3275 37.648 32.3452 37.0576 31.3877Z" fill="url(#paint3_linear_1081_10652)"/>
<path d="M49.1534 22.6112C44.7975 23.9309 40.4465 26.1386 34.8551 24.3824C32.0868 23.5141 28.3906 20.8003 24.4663 17.8087C28.5841 21.1625 33.6744 25.9203 37.0579 31.3876C40.1438 27.9693 44.2617 24.1492 49.1534 22.6112Z" fill="url(#paint4_linear_1081_10652)"/>
<path d="M39.5186 36.3638C40.357 38.6708 40.7986 41.0571 40.7341 43.4782C40.6398 47.0999 38.9778 49.1737 38.561 49.5756C44.5195 44.0637 47.1837 37.3709 52.9883 32.3452C54.0699 31.4125 55.1812 30.7477 56.2677 30.2764H56.2627C52.4575 31.8739 48.3297 35.0342 39.5186 36.3638Z" fill="url(#paint5_linear_1081_10652)"/>
<path d="M63.3671 29.16C64.1609 29.16 63.3621 28.2471 62.5584 27.7758C61.9234 27.3988 61.2437 27.0316 60.7327 26.5405C60.2068 26.0344 59.6213 24.6601 59.3882 24.2632C58.6787 23.0626 57.622 22.1299 55.4489 21.8521C53.266 21.5693 51.212 21.996 49.1581 22.6161C44.2663 24.1541 40.1435 27.9743 37.0576 31.3926C37.648 32.3501 38.1937 33.3274 38.6651 34.3246C38.9826 34.9994 39.2703 35.6791 39.5184 36.3637C48.3345 35.0341 52.4573 31.8738 56.2626 30.2763H56.2675C58.6638 29.2344 60.9063 29.1401 62.2756 29.16H63.3671Z" fill="url(#paint6_linear_1081_10652)"/>
<path d="M18.3391 49.7145C25.8107 44.6639 30.3205 39.0577 32.2951 36.9591C16.1611 37.3213 9.35428 28.8128 7.00761 25.1812C11.438 32.0723 18.3292 37.5396 16.9995 45.2047C15.278 55.1123 2.29443 56.0153 2.29443 56.0153C2.29443 56.0153 8.3918 56.4419 18.3391 49.7145Z" fill="url(#paint7_linear_1081_10652)"/>
<path d="M54.9974 26.8233C55.7098 26.8233 56.2874 26.2502 56.2874 25.5433C56.2874 24.8364 55.7098 24.2633 54.9974 24.2633C54.285 24.2633 53.7075 24.8364 53.7075 25.5433C53.7075 26.2502 54.285 26.8233 54.9974 26.8233Z" fill="white"/>
</g>
<defs>
<linearGradient id="paint0_linear_1081_10652" x1="2.28906" y1="32.8557" x2="63.6943" y2="32.8557" gradientUnits="userSpaceOnUse">
<stop stop-color="#2A59A2"/>
<stop offset="1" stop-color="#2A59A2"/>
</linearGradient>
<linearGradient id="paint1_linear_1081_10652" x1="-0.190312" y1="22.3716" x2="64.7582" y2="22.3716" gradientUnits="userSpaceOnUse">
<stop stop-color="#91D3F2"/>
<stop offset="0.266" stop-color="#6FB2DE"/>
<stop offset="0.521" stop-color="#5598CE"/>
<stop offset="0.673" stop-color="#4B8FC8"/>
</linearGradient>
<linearGradient id="paint2_linear_1081_10652" x1="2.29443" y1="47.1507" x2="64.1479" y2="47.1507" gradientUnits="userSpaceOnUse">
<stop stop-color="#2C9EC7"/>
<stop offset="0.404" stop-color="#2C63A5"/>
<stop offset="1" stop-color="#395DA1"/>
</linearGradient>
<linearGradient id="paint3_linear_1081_10652" x1="2.29318" y1="34.1734" x2="64.1467" y2="34.1734" gradientUnits="userSpaceOnUse">
<stop stop-color="#4FAAC4"/>
<stop offset="0.002" stop-color="#2F75B1"/>
<stop offset="1" stop-color="#356EAC"/>
</linearGradient>
<linearGradient id="paint4_linear_1081_10652" x1="24.4663" y1="24.5982" x2="64.5027" y2="24.5982" gradientUnits="userSpaceOnUse">
<stop stop-color="#4FAAC4"/>
<stop offset="0.002" stop-color="#2F81B6"/>
<stop offset="1" stop-color="#3B5EA9"/>
</linearGradient>
<linearGradient id="paint5_linear_1081_10652" x1="24.4646" y1="39.926" x2="64.501" y2="39.926" gradientUnits="userSpaceOnUse">
<stop stop-color="#4FAAC4"/>
<stop offset="0.002" stop-color="#1E3773"/>
<stop offset="1" stop-color="#203370"/>
</linearGradient>
<linearGradient id="paint6_linear_1081_10652" x1="50.3761" y1="43.2699" x2="50.3761" y2="21.3156" gradientUnits="userSpaceOnUse">
<stop stop-color="#4FAAC4"/>
<stop offset="0.002" stop-color="#2C5A9A"/>
<stop offset="1" stop-color="#374580"/>
</linearGradient>
<linearGradient id="paint7_linear_1081_10652" x1="-4.38364" y1="40.6009" x2="41.1771" y2="40.6009" gradientUnits="userSpaceOnUse">
<stop offset="0.112" stop-color="#38B1DA"/>
<stop offset="1" stop-color="#326FB5"/>
</linearGradient>
<clipPath id="clip0_1081_10652">
<rect width="64" height="52.8372" fill="white" transform="translate(0.921875 6)"/>
</clipPath>
</defs>
</svg>
