<svg width="64" height="64" viewBox="0 0 64 64" fill="none" xmlns="http://www.w3.org/2000/svg">
<path d="M32.1923 4L16.3552 46H56.4406V18L32.1923 4Z" fill="#55BC8A"/>
<path d="M32.1923 4V46H7.94397V18L32.1923 4Z" fill="#A8E9BE"/>
<path d="M56.4407 46L32.1924 60L18.9736 39.6323H45.4111L56.4407 46Z" fill="#86DBA2"/>
<path d="M32.1923 39.6323V60L7.94397 46L18.9736 39.6323H32.1923Z" fill="#CDF6D5"/>
<path d="M46.6298 23.6641V40.3361L32.1923 48.6709L22.5828 23.6641L46.6298 23.6641Z" fill="#4CA986"/>
<path d="M32.192 23.6641V48.6709L17.7545 40.3361V23.6641L32.192 23.6641Z" fill="#86DBA2"/>
<path d="M46.6296 23.664L32.1921 32L25.4424 23.664L32.1921 15.3292L46.6296 23.664Z" fill="#242E42"/>
<path d="M32.192 15.3292V32L17.7545 23.664L32.192 15.3292Z" fill="#242E42"/>
</svg>
