<svg width="64" height="64" viewBox="0 0 64 64" fill="none" xmlns="http://www.w3.org/2000/svg">
<path d="M14.7172 0.105957C14.7172 0.105957 11.1557 12.0843 11.4144 15.6459C11.5971 18.142 16.2393 21.4144 16.2393 21.4144C16.2393 21.4144 13.7127 24.4128 12.7386 26.1022C11.7341 27.8373 10.1968 31.825 10.1968 31.825C10.1968 31.825 2.58667 22.8907 3.2107 18.5073C3.95649 13.2106 14.7172 0.105957 14.7172 0.105957Z" fill="#BFBFBF"/>
<path d="M49.2823 0.105957C49.2823 0.105957 52.8438 12.0843 52.5851 15.6459C52.4024 18.142 47.7603 21.4144 47.7603 21.4144C47.7603 21.4144 50.2868 24.4128 51.2609 26.1022C52.2655 27.8373 53.8027 31.825 53.8027 31.825C53.8027 31.825 61.4129 22.8907 60.7888 18.5073C60.043 13.2106 49.2823 0.105957 49.2823 0.105957Z" fill="#BFBFBF"/>
<path d="M32.1141 14.139C22.023 14.139 13.1192 21.2774 10.1816 31.7489L32.1141 39.0242V14.139Z" fill="#7D9199"/>
<path d="M32.0991 14.0934C42.1902 14.0934 51.094 21.2469 54.0316 31.7033L32.0991 38.9785V14.0934Z" fill="#566366"/>
<path d="M32.0534 31.7338H10.1362V47.0606C10.1362 47.0606 18.9944 50.5308 22.6473 53.3313C25.6761 55.6601 31.5207 63.8942 31.5207 63.8942H32.0687V31.7338H32.0534Z" fill="#7D9199"/>
<path d="M32.068 31.5206H53.9852V46.8475C53.9852 46.8475 45.127 50.3177 41.4742 53.1182C38.354 55.5078 32.5703 63.879 32.5703 63.879H32.0376L32.068 31.5206Z" fill="#566366"/>
<path d="M32.0835 33.7579C33.605 33.7579 34.8384 32.5245 34.8384 31.003C34.8384 29.4816 33.605 28.2482 32.0835 28.2482C30.562 28.2482 29.3286 29.4816 29.3286 31.003C29.3286 32.5245 30.562 33.7579 32.0835 33.7579Z" fill="white"/>
</svg>
