<svg xmlns="http://www.w3.org/2000/svg" width="217" height="20" fill="none" viewBox="0 0 217 20"><g opacity=".55"><path stroke="#01A970" stroke-linecap="round" stroke-miterlimit="10" stroke-width="4.54" d="M3 10.04h95.185" opacity=".15"/><path fill="#01A970" d="M90.722 19.253l-1.537-1.649 8.139-7.564-8.14-7.564L90.723.827l9.906 9.213-9.906 9.213z" opacity=".15"/></g><g opacity=".55"><path fill="#01A970" d="M109.288 18.02V.505h3.719V18.02h-3.719zM117.694 7.803l-1.419-1.185c.96-.544 1.681-1.43 2.02-2.48-.156.066-.326.093-.495.081-.244.001-.486-.048-.71-.143-.224-.096-.426-.237-.594-.415-.167-.177-.296-.387-.379-.616-.083-.23-.118-.474-.103-.717.005-.548.225-1.073.612-1.461.387-.388.911-.61 1.459-.616 1.24 0 2.337.973 2.337 2.678-.03.972-.293 1.923-.768 2.77-.474.85-1.147 1.57-1.96 2.104zM138.411 18.02V5.38l-4.959 12.629h-1.63l-4.96-12.63v12.63h-3.719V.505h5.226l4.252 10.95L136.88.505h5.25V18.02h-3.719zM164.385 18.02v-7.378h-8.27v7.378h-3.719V.505h3.719v6.882h8.27V.505h3.756V18.02h-3.756zM171.582 18.02V.505h12.397v3.28h-8.678v3.677h8.486v3.286h-8.48v3.993h8.679v3.28h-12.404zM196.793 18.02l-3.44-6.2h-2.734v6.2h-3.72V.505h8.189c3.651 0 5.908 2.387 5.908 5.642.065 1.181-.284 2.348-.988 3.298-.705.95-1.719 1.624-2.868 1.904l3.961 6.671h-4.308zm.366-11.897c0-1.445-1.128-2.338-2.598-2.338h-3.942v4.73h3.942c1.47 0 2.598-.892 2.598-2.392zM203.779 18.02V.505h12.398v3.28h-8.678v3.677h8.48v3.286h-8.474v3.993h8.678v3.28h-12.404z" opacity=".15"/></g></svg>