<svg xmlns="http://www.w3.org/2000/svg" width="241" height="24" fill="none" viewBox="0 0 241 24"><path stroke="#ABABAE" stroke-miterlimit="10" stroke-width=".99" d="M125.963 3.962v15.574"/><path fill="#199969" d="M17.556 18.662l-5.09-2.939v5.878l5.09-2.94zM17.556 4.359l-5.09-2.94v5.879l5.09-2.94zM5.164 11.507l4.792-2.765V0L0 5.747v11.526l9.956 5.748v-8.742l-4.792-2.772zM9.993 11.508l9.937 5.74V5.773l-9.937 5.736z"/><path fill="#3D3C48" d="M83.903 5.425h-1.016c-.107.002-.208.045-.284.12-.075.075-.118.177-.12.283v4.73h-3.266v-4.73c0-.053-.01-.107-.03-.156-.02-.05-.05-.095-.088-.133-.039-.038-.084-.067-.134-.087-.05-.02-.104-.028-.157-.027H77.79c-.106.002-.208.045-.283.12-.075.075-.118.177-.12.283v11.315c0 .108.042.21.118.287.075.077.178.12.285.122h1.023c.054.001.108-.009.158-.029.05-.02.095-.05.133-.088.038-.039.068-.084.089-.134.02-.05.03-.104.029-.158v-4.755h3.267v4.755c0 .108.042.21.118.287.075.077.177.12.285.122h1.016c.054.001.108-.009.158-.029.05-.02.096-.05.134-.088.038-.039.068-.084.088-.134.02-.05.03-.104.03-.158V5.828c0-.054-.01-.108-.03-.158-.021-.05-.052-.095-.09-.133-.04-.038-.086-.067-.137-.087-.05-.019-.105-.027-.159-.025zM59.417 16.157c-.001-.108-.045-.211-.121-.288-.077-.076-.18-.12-.288-.121h-4.587v-3.336h4.587c.054.002.107-.007.157-.027s.096-.049.134-.087c.038-.037.069-.082.089-.132.02-.05.03-.103.03-.157v-1.017c-.002-.108-.046-.21-.122-.287-.077-.077-.18-.12-.288-.122h-4.587v-3.33h4.587c.054.002.108-.008.158-.029.05-.02.095-.05.133-.088.039-.038.069-.084.089-.134.02-.05.03-.103.03-.157V5.828c-.002-.108-.046-.21-.123-.286-.076-.075-.18-.117-.287-.117h-6.007c-.107 0-.21.042-.287.117-.076.076-.12.178-.122.286v11.315c.002.108.046.211.122.287.076.077.18.12.287.122h6.007c.054 0 .108-.01.158-.03.05-.02.095-.05.133-.088.039-.038.069-.084.089-.134.02-.05.03-.103.03-.157v-.986zM93.01 16.157c0-.108-.043-.21-.118-.287-.075-.077-.178-.12-.285-.122H88.02v-3.336h4.587c.053.001.106-.009.155-.029.05-.02.094-.05.132-.087.037-.038.067-.082.087-.132.02-.049.03-.102.029-.155v-1.017c0-.107-.043-.21-.118-.287-.075-.076-.178-.12-.285-.122H88.02v-3.33h4.587c.053.002.107-.008.156-.029.05-.02.095-.05.133-.089.038-.038.067-.083.087-.133.02-.05.028-.104.027-.157V5.828c0-.107-.043-.21-.118-.285-.076-.076-.178-.118-.285-.118H86.6c-.107 0-.21.042-.287.117-.077.076-.12.178-.122.286v11.315c.001.108.045.211.121.287.077.077.18.12.288.122h6.007c.053 0 .107-.01.156-.03.05-.02.095-.05.133-.088.038-.039.067-.084.087-.134.02-.05.028-.104.027-.157v-.986zM110.317 16.157c0-.108-.042-.21-.117-.287-.076-.077-.178-.12-.286-.122h-4.587v-3.336h4.587c.054.001.106-.009.156-.029.049-.02.094-.05.131-.087.038-.038.067-.082.087-.132.02-.049.03-.102.029-.155v-1.017c0-.107-.042-.21-.117-.287-.076-.076-.178-.12-.286-.122h-4.587v-3.33h4.587c.054.002.107-.008.157-.029.05-.02.095-.05.133-.089.037-.038.067-.083.086-.133.02-.05.029-.104.027-.157V5.828c0-.107-.042-.21-.118-.285-.075-.076-.178-.118-.285-.118h-6.006c-.108 0-.211.042-.287.117-.077.076-.121.178-.122.286v11.315c.001.108.045.211.121.287.077.077.18.12.288.122h6.006c.054 0 .107-.01.157-.03.05-.02.095-.05.133-.088.037-.039.067-.084.086-.134.02-.05.029-.104.027-.157v-.986zM62.734 8.463v.694c0 .527.514.837 1.097 1.08l2.424 1.016c.457.162.852.462 1.13.858.28.397.428.87.426 1.355v1.296c0 1.073-2.269 2.883-3.472 2.883-.818 0-2.064-.583-3.03-1.116-.119-.056-.21-.157-.254-.28-.044-.123-.038-.259.017-.377l.31-.62c.028-.054.066-.102.112-.141.047-.039.101-.067.16-.084.057-.017.118-.022.178-.014.06.008.118.028.17.06.72.42 1.503.721 2.319.892.545 0 1.698-.93 1.698-1.463v-.782c0-.62-.477-.967-1.134-1.24l-2.244-.917c-.458-.154-.861-.439-1.16-.819-.298-.38-.479-.839-.52-1.32V8.227c0-1.19 2.393-2.901 3.546-2.901.998.145 1.959.484 2.826.998.11.056.192.151.233.267.04.115.034.241-.016.353l-.29.62c-.062.103-.16.18-.275.213-.115.033-.239.021-.346-.033-.663-.358-1.376-.617-2.114-.77-.551.026-1.791.906-1.791 1.489zM98.304 12.666h-1.718v4.477c.002.056-.007.111-.028.163-.022.052-.053.098-.094.137-.04.039-.088.069-.14.087-.053.019-.11.026-.165.022h-.974c-.055.002-.11-.008-.16-.027-.052-.02-.1-.05-.139-.088-.04-.038-.072-.084-.094-.134-.022-.05-.033-.105-.034-.16V6.274c.03-.224.136-.431.3-.586.166-.155.38-.248.605-.263h2.988c1.345 0 3.099 2.102 3.099 3.484-.062.567-.243 1.114-.532 1.605-.288.492-.677.917-1.141 1.247.7.366 1.661 1.346 1.661 2.25v3.132c0 .107-.042.21-.118.287-.075.076-.178.12-.285.122h-1.017c-.055.002-.11-.008-.161-.027-.051-.02-.098-.05-.138-.088-.04-.038-.072-.084-.094-.134-.022-.05-.034-.105-.034-.16V14.29c-.069-.4-.257-.77-.54-1.06-.284-.29-.65-.487-1.047-.565zm.074-5.654h-1.791v4.061h1.81c.756 0 1.642-1.345 1.642-2.065 0-.719-.923-1.996-1.661-1.996zM72.783 12.666h-1.718v4.477c.002.056-.007.111-.028.163-.022.052-.053.098-.094.137-.04.039-.088.069-.14.087-.053.019-.11.026-.165.022h-.98c-.054.002-.109-.008-.16-.027-.051-.02-.098-.05-.137-.088-.04-.039-.07-.084-.092-.135-.021-.05-.032-.104-.032-.16V6.275c.03-.223.135-.43.298-.584.164-.155.376-.249.6-.265h2.951c1.352 0 3.056 2.164 3.056 3.552-.118 1.11-.643 2.138-1.475 2.883-.501.501-1.176.79-1.884.806zm.074-5.654h-1.791v4.061h1.81c.756 0 1.537-1.345 1.537-2.065 0-.719-.818-1.996-1.556-1.996zM38.756 17.682c-1.24 0-3.49-1.537-3.49-2.864v-8.91c.003-.109.05-.212.128-.287.08-.076.184-.117.294-.116h.973c.055-.002.11.007.16.026.052.019.1.048.14.085.039.038.07.083.093.133.022.05.034.105.035.16v8.68c0 .62 1.097 1.426 1.667 1.426.57 0 1.68-.88 1.68-1.526V5.81c-.002-.052.006-.104.024-.153.018-.048.046-.093.082-.13.036-.038.079-.068.127-.089.048-.02.1-.03.151-.03h1.01c.11-.002.217.039.297.114.08.075.127.179.131.288v8.91c-.018 1.29-2.287 2.963-3.502 2.963zM49.338 11.296c.843-.552 1.692-1.63 1.692-2.523 0-1.389-1.86-3.348-3.236-3.348h-2.888c-.226.015-.44.108-.605.263-.165.155-.271.362-.3.586v10.869c0 .054.012.108.034.158.021.05.052.096.092.134.039.038.085.068.136.088.05.02.105.03.159.029h3.434c1.352 0 3.174-2.27 3.174-3.652 0-.874-.85-2.046-1.692-2.604zm-3.509-4.284h1.73c.737 0 1.661 1.06 1.661 1.76 0 .701-.886 1.898-1.643 1.898H45.83V7.012zm1.73 8.978h-1.73v-4.068h1.748c.757 0 1.643 1.278 1.643 2.003 0 .725-.924 2.065-1.661 2.065zM29.62 11.563l4.016-4.656c.037-.04.065-.087.084-.138.018-.05.026-.105.022-.159-.003-.054-.018-.106-.043-.155-.024-.048-.058-.09-.1-.125l-.769-.663c-.083-.07-.19-.104-.297-.095-.108.008-.208.057-.28.138L28.74 9.783V5.828c0-.053-.01-.106-.03-.155-.02-.05-.049-.094-.086-.132-.038-.038-.083-.067-.132-.087-.05-.02-.102-.03-.155-.03h-1.017c-.107 0-.21.043-.287.119-.076.075-.12.177-.122.285v11.315c.002.108.045.211.122.287.076.077.18.12.287.122h1.017c.054 0 .107-.01.157-.03.05-.02.094-.05.132-.088.038-.039.067-.084.087-.134.02-.05.029-.104.027-.157v-3.795l3.515 4.074c.071.081.172.13.28.138.108.007.215-.03.296-.1l.769-.664c.041-.034.076-.076.1-.124.025-.048.039-.1.043-.154.003-.053-.005-.107-.023-.157s-.046-.097-.083-.136l-4.017-4.662z"/><path fill="#040000" d="M164.298 10.503c.385.008.767-.076 1.113-.245.346-.17.647-.42.877-.728l1.041 1.097c-.348.412-.776.75-1.258.991-.482.242-1.009.383-1.547.416-.538.032-1.078-.045-1.585-.227-.508-.182-.974-.465-1.369-.833-.364-.348-.65-.77-.839-1.237-.189-.467-.277-.969-.258-1.472-.014-.509.079-1.015.272-1.486.193-.47.483-.896.85-1.248.394-.372.859-.66 1.367-.846.509-.186 1.049-.268 1.59-.24.541.029 1.07.167 1.556.405.485.24.918.574 1.271.985L166.362 7c-.225-.302-.518-.547-.855-.715-.337-.168-.709-.254-1.085-.252-.589-.005-1.157.217-1.587.62-.225.207-.402.46-.518.744-.115.282-.167.587-.152.893-.015.305.032.61.139.898.106.286.27.548.481.77.42.364.957.566 1.513.57v-.025zm4.339 1.438V4.564h1.643v5.914h3.155v1.463h-4.798zm12.001-.998c-.746.702-1.731 1.092-2.755 1.092-1.024 0-2.009-.39-2.755-1.092-.716-.72-1.118-1.694-1.118-2.71 0-1.014.402-1.988 1.118-2.708.746-.702 1.731-1.092 2.755-1.092 1.024 0 2.009.39 2.755 1.092.356.355.638.778.831 1.243.192.464.292.963.292 1.466s-.1 1.001-.292 1.466c-.193.465-.475.888-.831 1.243zm-.57-2.71c.003-.618-.217-1.216-.62-1.685-.198-.219-.44-.393-.709-.513-.27-.12-.561-.18-.856-.18-.295 0-.586.06-.856.18s-.511.294-.709.513c-.415.461-.637 1.065-.62 1.686-.013.622.208 1.226.62 1.693.198.218.439.392.709.512.27.12.561.18.856.18.295 0 .586-.06.856-.18.269-.12.511-.294.709-.512.421-.469.643-1.082.62-1.712v.019zm5.046 1.86c.131.17.301.306.495.396.194.091.407.134.621.126.211.013.422-.027.613-.119.191-.09.356-.23.478-.402.284-.408.423-.899.397-1.395V4.564h1.642v4.123c.034.453-.029.908-.184 1.336-.155.427-.398.817-.714 1.143-.299.289-.653.514-1.041.664-.387.149-.801.218-1.216.204-.847.026-1.67-.286-2.287-.868-.314-.328-.556-.718-.709-1.145-.154-.427-.217-.882-.184-1.334V4.564h1.637v4.073c-.005.51.154 1.007.452 1.42v.037zm11.598-4.525c.358.346.638.765.822 1.228.184.462.267.959.245 1.457.017.493-.064.985-.238 1.447-.175.462-.44.885-.779 1.243-.865.72-1.977 1.076-3.1.992h-2.56V4.564h2.61c1.086-.066 2.157.28 3 .967v.037zm-1.196 4.402c.213-.22.378-.482.484-.77.107-.286.153-.592.136-.898.018-.305-.028-.61-.135-.896-.107-.286-.272-.547-.485-.765-.253-.222-.548-.391-.868-.498-.319-.106-.656-.148-.992-.122h-.923v4.494h1.047c.631.03 1.251-.178 1.736-.582v.037zm11.617-5.406h1.667v7.377h-1.667l-3.503-4.618v4.618h-1.661V4.564h1.562l3.602 4.767V4.564zm8.716 7.377l-.658-1.587h-3.099l-.694 1.588h-1.786l3.18-7.378h1.587l3.18 7.377h-1.71zm-2.207-5.164l-.93 2.133h1.86l-.918-2.133h-.012zm7.439-.769v5.933h-1.674V5.983h-2.083v-1.42h5.833v1.42l-2.076.025zm3.279-1.444h1.636v7.377h-1.636V4.564zm6.199 4.693l1.859-4.693h1.786l-2.982 7.377h-1.389l-2.956-7.377h1.791l1.891 4.693zm9.862-4.693v1.469h-3.676V7.57h3.304v1.388h-3.304v1.544h3.8v1.438h-5.442V4.564h5.318zm-77.983 13.64c.216.003.43-.044.624-.139.194-.095.363-.234.492-.407l.62.62c-.202.246-.456.444-.743.581-.287.137-.6.21-.918.212-.29.01-.579-.04-.849-.147-.269-.107-.514-.268-.72-.473-.204-.195-.365-.431-.472-.693-.107-.261-.157-.543-.148-.825-.009-.286.042-.57.149-.834.106-.265.267-.505.471-.704.202-.203.443-.362.708-.469.266-.106.55-.158.836-.151.324-.005.645.061.941.194.295.133.558.33.77.575l-.571.62c-.124-.173-.288-.312-.478-.407-.19-.095-.4-.143-.613-.139-.33-.002-.65.122-.892.347-.128.115-.228.257-.294.416-.065.159-.094.33-.084.502-.008.17.019.34.08.499.061.159.154.303.273.425.094.123.214.224.351.297.137.072.288.115.442.124l.025-.025zm5.809.247c-.412.4-.964.623-1.538.62-.286.007-.57-.045-.835-.152-.265-.106-.506-.265-.708-.468-.397-.404-.62-.948-.62-1.515s.223-1.112.62-1.516c.415-.399.968-.62 1.543-.62.285-.007.569.045.833.151.264.107.504.266.705.469.397.404.619.949.619 1.516 0 .567-.222 1.11-.619 1.515zm-.298-1.518c.007-.347-.117-.684-.347-.943-.11-.122-.243-.22-.392-.29-.15-.067-.312-.104-.476-.107-.165-.005-.33.027-.481.096-.15.07-.283.172-.387.301-.119.125-.211.274-.27.436-.06.162-.086.334-.077.507-.003.347.121.684.347.948.11.123.243.221.393.29.149.068.311.104.475.107.166.006.33-.027.481-.096.151-.069.283-.172.387-.3.215-.26.33-.588.322-.925l.025-.024zm5.418-.521l-1.122 2.288h-.546l-1.14-2.264v2.61h-.918v-4.122h1.24l1.066 2.256 1.091-2.256h1.24v4.123h-.917l.006-2.635zm4.767-1.129c.157.144.278.321.356.519.077.198.108.41.09.622.021.208-.009.418-.087.612-.078.195-.201.367-.359.504-.401.276-.886.401-1.37.354h-.545v1.14h-.918v-4.11h1.457c.486-.045.973.082 1.376.36zm-.669 1.612c.119-.156.181-.349.173-.545.011-.095-.004-.192-.044-.279-.039-.087-.101-.162-.179-.217-.202-.105-.43-.152-.657-.137h-.521v1.39h.62c.221.015.439-.057.608-.2v-.012zm2.925 1.073c.075.092.17.166.277.217.107.051.225.078.343.078.119 0 .236-.027.343-.078.108-.05.202-.125.277-.217.162-.234.24-.516.223-.8v-2.27h.918v2.307c.015.254-.022.508-.107.748-.085.24-.217.46-.389.647-.165.158-.359.28-.572.361-.213.081-.44.119-.668.11-.229.005-.457-.037-.67-.123-.213-.085-.406-.212-.57-.372-.171-.188-.304-.408-.389-.648-.085-.24-.121-.494-.107-.748v-2.306h.918v2.331c-.017.277.062.55.223.775l-.05-.012zm5.096-2.263v3.33h-.924v-3.318h-1.165v-.793h3.279v.793l-1.19-.012zm1.86-.794h.917v4.148h-.917v-4.148zm4.816 0h.924v4.123h-.924l-1.959-2.585v2.585h-.917v-4.11h.843l2.033 2.66V14.91zm4.65 2.034h.917v1.47c-.22.232-.487.414-.783.534-.296.12-.615.174-.934.16-.574.004-1.127-.219-1.537-.62-.205-.196-.366-.432-.473-.694-.106-.261-.157-.543-.147-.825 0-.563.223-1.102.621-1.5.397-.397.936-.62 1.499-.62.576-.005 1.13.218 1.543.62l-.471.694c-.144-.152-.326-.264-.527-.323-.159-.059-.326-.092-.496-.099-.331-.002-.65.122-.892.347-.125.122-.223.27-.287.432-.064.162-.093.336-.085.51-.012.35.113.69.347.95.105.11.232.198.373.257.141.06.292.09.445.09.277.015.554-.045.8-.174l.087-1.21zm6.13-2.034v.806h-1.909v.893h1.86v.819h-1.86v1.618h-.924v-4.123l2.833-.013zm4.271 3.553c-.411.4-.963.622-1.537.62-.286.009-.571-.042-.837-.149-.265-.106-.506-.267-.707-.471-.397-.405-.619-.949-.619-1.516 0-.567.222-1.111.619-1.516.416-.398.969-.62 1.544-.62.285-.009.569.042.834.149.265.106.504.267.703.471.398.405.62.949.62 1.516 0 .567-.222 1.111-.62 1.516zm-.322-1.52c.007-.346-.117-.682-.347-.941-.11-.123-.243-.221-.393-.29-.149-.068-.311-.105-.475-.107-.165-.006-.33.027-.481.096-.15.069-.283.171-.387.3-.119.126-.212.273-.273.435-.061.162-.088.335-.08.508-.001.348.125.685.353.948.11.123.243.221.393.29.149.068.311.105.475.107.166.006.33-.027.481-.096.15-.068.283-.171.387-.3.117-.125.209-.273.268-.433.06-.161.087-.332.079-.504v-.012zm2.833 1.024c.074.093.169.168.276.22.107.051.225.078.344.078.119 0 .237-.027.344-.078.107-.052.201-.127.276-.22.161-.234.24-.516.223-.8v-2.27h.905v2.307c.015.254-.022.508-.107.748-.085.24-.217.46-.389.647-.348.311-.798.483-1.265.483-.466 0-.916-.172-1.264-.483-.172-.187-.304-.407-.389-.647-.085-.24-.122-.494-.107-.748v-2.33h.917v2.33c-.025.28.059.558.236.775v-.012zm6.23-3.057h.924v4.123h-.924l-1.959-2.585v2.585h-.917v-4.11h.874l2.033 2.66-.031-2.673zm5.096.546c.206.193.368.427.475.689.107.26.156.542.144.824.014.278-.03.557-.128.818-.098.261-.248.5-.442.7-.49.417-1.126.622-1.767.571h-1.413v-4.135h1.463c.304-.025.61.01.901.104.29.093.559.243.791.441l-.024-.012zm-.67 2.48c.118-.122.21-.267.269-.426.06-.159.087-.328.078-.498.008-.172-.019-.344-.078-.506-.06-.162-.151-.31-.269-.436-.293-.241-.67-.357-1.048-.323h-.52v2.48h.62c.351.003.693-.11.973-.322l-.025.03zm4.891 1.116l-.372-.893h-1.742l-.372.893h-.992l1.786-4.148h.911l1.785 4.148h-1.004zm-1.24-2.908l-.521 1.19h1.048l-.527-1.19zm4.178-.428v3.33h-.948v-3.33h-1.166v-.793h3.28v.793h-1.166zm1.86-.793h.917v4.148h-.917v-4.148zm5.412 3.552c-.412.4-.964.623-1.538.62-.285.01-.569-.041-.833-.148-.265-.107-.505-.267-.704-.472-.402-.402-.627-.947-.627-1.516 0-.568.225-1.113.627-1.516.412-.4.964-.622 1.537-.62.286-.008.57.042.834.149.265.107.504.267.704.471.401.403.627.948.627 1.516 0 .569-.226 1.114-.627 1.516zm-.298-1.519c.007-.346-.117-.683-.347-.942-.109-.123-.243-.221-.392-.29-.15-.068-.312-.104-.476-.107-.165-.006-.33.027-.481.096-.15.069-.283.172-.387.3-.119.126-.211.274-.27.436-.06.162-.086.335-.077.507-.003.348.121.685.347.949.11.122.243.22.393.29.149.067.311.104.475.107.166.006.33-.027.481-.096.151-.069.283-.172.387-.301.219-.266.332-.604.316-.949h.031zm4.594-2.033h.948v4.123h-.948l-1.959-2.586v2.586h-.93v-4.123h.868l2.008 2.66.013-2.66z"/><path fill="#41679F" d="M142.769 14.155h-2.263v5.313h5.294V17.18h-3.031v-3.025zm11.375 0v3h-3.031v2.288h5.287v-5.289h-2.281.025zm-13.638-5.32h2.288v-3h3.031V3.545h-5.294l-.025 5.289zm10.607-5.314V5.81h3.031v3.026h2.256V3.546l-5.287-.025z"/><path fill="#73BBCB" d="M150.815 8.86l-3.031-3.026h3.329V3.546H145.8v2.288l3.025 3.026h1.99zm-2.734 5.295h-1.983l2.479 2.48.496.52h-3.298v2.288h5.313v-2.3l-1.519-1.488-1.488-1.5zm6.063-5.295v3.323l-.521-.52-2.479-2.512v2.015l1.488 1.488 1.518 1.52h2.282V8.86h-2.288zm-8.344 3.007l-3.006-3.007h-2.288v5.295h2.263V10.85l3.031 3.032v-2.015z"/></svg>