<svg xmlns="http://www.w3.org/2000/svg" width="280" height="56" fill="none" viewBox="0 0 280 56"><path fill="#1B9869" d="M31.75 20.353c-.004-.133.032-.264.103-.376.07-.113.173-.201.295-.255.122-.054.256-.07.387-.046.131.023.252.085.347.178.096.093.161.212.188.342.027.13.015.265-.035.388-.05.124-.136.229-.247.303-.11.074-.24.113-.373.113-.173-.002-.338-.07-.462-.19s-.197-.284-.203-.457zm0 8.733c0-.132.039-.261.112-.371.073-.11.177-.197.299-.247.122-.051.256-.065.386-.039.13.026.249.09.342.183.094.093.157.213.183.342.026.13.012.264-.039.386-.05.122-.136.227-.246.3-.11.073-.24.111-.372.111-.175 0-.343-.07-.467-.194-.125-.123-.196-.29-.198-.465v-.006zM34.511 29.977l4.778-14.255h.63l-4.777 14.255h-.63zM39.92 29.977l4.778-14.255h.625l-4.778 14.255h-.625zM251.115 29.977l4.778-14.255h.625l-4.778 14.255h-.625z"/><path fill="#01A970" fill-rule="evenodd" d="M0 23.856c0-1.627 1.319-2.945 2.945-2.945h20.37c1.627 0 2.946 1.318 2.946 2.945 0 1.626-1.319 2.945-2.945 2.945H2.946C1.318 26.8 0 25.482 0 23.856z" clip-rule="evenodd"/><path fill="#6553C0" fill-rule="evenodd" d="M49.442 40.008c0-1.556 1.262-2.818 2.818-2.818h6.407c1.556 0 2.818 1.262 2.818 2.818s-1.262 2.818-2.818 2.818H52.26c-1.556 0-2.818-1.262-2.818-2.818z" clip-rule="evenodd"/><path fill="#FFAB00" fill-rule="evenodd" d="M241.103 40.008c0-1.556 1.261-2.818 2.817-2.818h4.955c1.556 0 2.818 1.262 2.818 2.818s-1.262 2.818-2.818 2.818h-4.955c-1.556 0-2.817-1.262-2.817-2.818z" clip-rule="evenodd"/><path fill="#0171A9" fill-rule="evenodd" d="M264.01 23.417c0-1.627 1.319-2.945 2.945-2.945h10.1c1.627 0 2.945 1.318 2.945 2.945 0 1.626-1.318 2.945-2.945 2.945h-10.1c-1.626 0-2.945-1.319-2.945-2.945z" clip-rule="evenodd"/><path fill="#3D3C48" d="M55.812 29.488l-3.661-4.858-.936 1.143v3.715h-2.574V17.403h2.574v5.383l4.277-5.383h3.173l-4.823 5.67 5.13 6.415h-3.16zM65.663 29.488v-1.106c-.395.421-.872.755-1.403.981-.53.227-1.102.34-1.679.333-1.92 0-2.826-1.051-2.826-2.756V20.73h2.301v5.313c0 1.213.636 1.613 1.613 1.613.386-.006.765-.1 1.11-.272.346-.173.647-.421.884-.727v-5.927h2.303v8.757h-2.303zM70.238 29.488V17.403h2.301v4.466c.313-.42.72-.76 1.19-.994.47-.233.987-.351 1.51-.346 2.23 0 3.88 1.74 3.88 4.585 0 2.937-1.668 4.605-3.88 4.605-.522 0-1.038-.122-1.507-.355-.468-.233-.876-.57-1.193-.987V29.5l-2.3-.013zm4.295-1.839c1.314 0 2.212-1.032 2.212-2.556s-.888-2.538-2.212-2.538c-.387.009-.768.105-1.113.28-.345.177-.646.428-.88.737v3.1c.238.301.54.546.886.716.344.17.723.262 1.107.269v-.008zM80.3 25.1c0-2.537 1.883-4.584 4.53-4.584 2.648 0 4.387 1.957 4.387 4.803v.551h-6.509c.163 1.07 1.035 1.958 2.52 1.958.743 0 1.76-.308 2.321-.851l1.033 1.523c-.87.788-2.249 1.214-3.607 1.214-2.664-.008-4.676-1.802-4.676-4.613zm4.538-2.7c-.53-.033-1.052.144-1.453.494-.4.35-.646.844-.685 1.374h4.313c-.073-.833-.662-1.868-2.175-1.868zM90.106 27.785l1.413-2.012c.495.52 1.091.936 1.752 1.22.66.283 1.372.43 2.09.43 1.432 0 2.102-.636 2.102-1.343 0-2.101-6.96-.635-6.96-5.183 0-2.013 1.74-3.678 4.585-3.678 1.92 0 3.518.58 4.713 1.686l-1.432 1.92c-.967-.86-2.222-1.329-3.517-1.313-1.087 0-1.702.473-1.702 1.198 0 1.902 6.943.615 6.943 5.129 0 2.212-1.597 3.88-4.842 3.88-2.338-.013-4.005-.793-5.145-1.934zM104.062 28.364v4.466h-2.304V20.745h2.304v1.106c.318-.412.727-.745 1.196-.973.468-.228.983-.345 1.504-.34 2.246 0 3.877 1.668 3.877 4.584 0 2.916-1.634 4.584-3.877 4.584-.524.002-1.04-.119-1.509-.352-.469-.233-.877-.572-1.191-.99zm4.202-3.263c0-1.503-.906-2.538-2.227-2.538-.383.007-.76.1-1.102.273-.342.173-.641.42-.873.725v3.082c.233.305.531.554.873.73.342.175.718.272 1.102.284 1.321 0 2.227-1.032 2.227-2.556zM118.251 29.488V24.16c0-1.216-.633-1.597-1.613-1.597-.388.005-.769.1-1.115.276-.345.176-.646.43-.878.74v5.91h-2.32V17.402h2.32v4.466c.386-.427.859-.768 1.387-1 .528-.23 1.099-.346 1.676-.34 1.922 0 2.847 1.051 2.847 2.754V29.5l-2.304-.013zM122.275 25.1c0-2.537 1.886-4.584 4.532-4.584 2.645 0 4.386 1.957 4.386 4.803v.551h-6.506c.163 1.07 1.032 1.958 2.519 1.958.743 0 1.757-.308 2.319-.851l1.033 1.523c-.87.788-2.246 1.214-3.607 1.214-2.663-.008-4.676-1.802-4.676-4.613zm4.532-2.7c-.531-.033-1.053.144-1.454.494-.4.35-.646.844-.685 1.374h4.314c-.074-.833-.652-1.868-2.175-1.868zM132.862 29.488v-8.756h2.301v1.18c.342-.416.767-.755 1.248-.995s1.007-.377 1.544-.4v2.245c-.209-.04-.422-.058-.635-.052-.762 0-1.776.433-2.157.996v5.78l-2.301.002zM138.824 25.1c0-2.537 1.884-4.584 4.531-4.584 2.648 0 4.385 1.957 4.385 4.803v.551h-6.507c.163 1.07 1.035 1.958 2.522 1.958.74 0 1.757-.308 2.319-.851l1.033 1.523c-.87.788-2.249 1.214-3.607 1.214-2.664-.008-4.676-1.802-4.676-4.613zm4.531-2.7c-.53-.033-1.052.145-1.453.495s-.648.843-.687 1.373h4.315c-.073-.833-.654-1.868-2.175-1.868zM159.324 29.488v-.925c-.599.725-1.631 1.143-2.773 1.143-1.395 0-3.027-.943-3.027-2.89 0-2.068 1.632-2.827 3.027-2.827 1.176 0 2.193.378 2.773 1.07v-1.107c0-.888-.761-1.468-1.922-1.468-.941.009-1.843.378-2.52 1.032l-.906-1.613c1.06-.918 2.423-1.408 3.825-1.377 2.012 0 3.843.788 3.843 3.316v5.656l-2.32-.01zm0-2.102v-1.088c-.38-.507-1.105-.788-1.838-.788-.907 0-1.65.489-1.65 1.314 0 .825.743 1.313 1.65 1.313.733.011 1.458-.244 1.838-.75zM169.818 29.488v-5.294c0-1.213-.635-1.631-1.613-1.631-.387.007-.768.103-1.114.279-.345.176-.646.428-.879.738v5.908h-2.307v-8.756h2.304v1.124c.388-.426.861-.766 1.388-.997.528-.23 1.099-.347 1.675-.343 1.938 0 2.863 1.088 2.863 2.79v6.182h-2.317zM180.42 29.488v-1.124c-.315.418-.723.757-1.192.99-.468.233-.985.354-1.509.352-2.193 0-3.877-1.668-3.877-4.605 0-2.846 1.647-4.585 3.877-4.585.524-.006 1.042.113 1.512.346.469.233.876.573 1.189.994V17.39h2.319v12.085l-2.319.013zm0-2.827v-3.1c-.231-.307-.529-.557-.871-.73-.343-.173-.721-.265-1.105-.268-1.313 0-2.23 1.035-2.23 2.538 0 1.502.907 2.556 2.23 2.556.384-.003.762-.095 1.105-.268.343-.173.641-.423.871-.73v.002zM189.737 29.488V17.403h8.556v2.265h-5.981v2.524h5.852v2.268h-5.852v5.02l-2.575.008zM200.032 29.488v-8.756h2.301v1.18c.342-.416.767-.755 1.248-.995s1.007-.377 1.544-.4v2.245c-.209-.04-.422-.058-.636-.052-.759 0-1.775.433-2.156.996v5.78l-2.301.002zM206.339 18.412c0-.363.144-.711.401-.968.256-.257.604-.401.967-.401s.712.144.968.4c.257.258.401.606.401.969s-.144.71-.401.968c-.256.256-.605.4-.968.4s-.711-.144-.967-.4c-.257-.257-.401-.605-.401-.968zm.218 11.076v-8.756h2.301v8.756h-2.301zM210.581 25.1c0-2.537 1.883-4.584 4.531-4.584 2.648 0 4.387 1.957 4.387 4.803v.551h-6.509c.165 1.07 1.035 1.958 2.522 1.958.74 0 1.757-.308 2.319-.851l1.032 1.523c-.869.788-2.246 1.214-3.606 1.214-2.664-.008-4.676-1.802-4.676-4.613zm4.531-2.7c-.53-.033-1.053.144-1.453.494-.4.35-.647.844-.685 1.374h4.313c-.073-.833-.654-1.868-2.175-1.868zM227.074 29.488v-5.294c0-1.213-.635-1.631-1.612-1.631-.388.007-.769.103-1.114.279-.346.176-.647.428-.88.738v5.908h-2.299v-8.756h2.304v1.124c.388-.426.861-.766 1.388-.997.528-.231 1.099-.348 1.675-.343 1.939 0 2.863 1.088 2.863 2.79v6.182h-2.325zM237.677 29.488v-1.124c-.315.418-.723.757-1.192.99-.468.233-.985.354-1.509.352-2.193 0-3.879-1.668-3.879-4.605 0-2.846 1.649-4.585 3.879-4.585.524-.006 1.042.113 1.512.346.469.233.876.573 1.189.994V17.39h2.319v12.085l-2.319.013zm0-2.827v-3.1c-.23-.307-.529-.557-.871-.73-.343-.173-.721-.265-1.105-.268-1.313 0-2.23 1.035-2.23 2.538 0 1.502.907 2.556 2.23 2.556.384-.003.762-.095 1.105-.268.343-.173.641-.423.871-.73v.002zM241.52 28.348l.998-1.668c.843.733 1.909 1.16 3.026 1.213.995 0 1.468-.38 1.468-.925 0-1.431-5.185-.262-5.185-3.699 0-1.466 1.269-2.753 3.591-2.753 1.273-.014 2.514.407 3.514 1.195l-.924 1.632c-.703-.656-1.629-1.019-2.59-1.014-.836 0-1.379.362-1.379.851 0 1.287 5.201.2 5.201 3.733 0 1.613-1.377 2.793-3.804 2.793-1.523 0-2.989-.507-3.916-1.358z"/><path fill="#1B9869" d="M68.226 41.897l-1.639-2.176-.423.513v1.663h-1.153v-5.415h1.153v2.412l1.918-2.412h1.421l-2.151 2.543 2.295 2.872h-1.42zM72.637 41.897v-.494c-.177.188-.39.338-.628.44-.237.102-.493.153-.752.15-.861 0-1.268-.47-1.268-1.234v-2.785h1.032v2.38c0 .544.284.723.722.723.173-.002.344-.044.498-.121.155-.078.29-.189.396-.326v-2.653h1.032v3.92h-1.032zM74.69 41.897v-5.415h1.033v2c.14-.19.323-.343.533-.448.21-.104.443-.157.678-.154.998 0 1.737.788 1.737 2.054 0 1.314-.747 2.063-1.737 2.063-.234 0-.465-.054-.675-.158-.21-.104-.394-.255-.536-.441v.499h-1.032zm1.926-.82c.594 0 .99-.462.99-1.145 0-.684-.396-1.138-.99-1.138-.173.004-.343.047-.498.126-.154.078-.29.19-.395.328v1.39c.107.136.243.245.397.322.155.076.324.117.496.12v-.003zM79.198 39.934c-.007-.27.04-.538.14-.789.1-.25.248-.48.438-.671.19-.192.416-.343.666-.446.25-.102.517-.152.787-.148 1.177 0 1.965.877 1.965 2.151v.245h-2.916c.043.261.183.497.392.66.21.163.473.24.738.217.383 0 .755-.136 1.05-.38l.463.68c-.456.369-1.03.562-1.616.543-1.195 0-2.107-.803-2.107-2.062zm2.031-1.208c-.237-.015-.471.065-.65.22-.18.157-.29.378-.309.615h1.941c-.007-.12-.04-.237-.093-.345-.054-.107-.13-.203-.221-.28-.092-.078-.198-.137-.313-.173-.115-.036-.235-.049-.355-.037zM83.94 41.897v-3.92h1.032v.525c.153-.186.344-.337.56-.445.215-.108.45-.17.69-.18v1.006c-.093-.018-.188-.026-.283-.024-.183.003-.364.045-.53.121-.167.077-.316.188-.437.326v2.59H83.94zM89.512 41.897v-2.365c0-.546-.284-.733-.723-.733-.173.004-.344.046-.498.125-.155.079-.29.191-.395.33v2.643h-1.032v-3.92h1.032v.504c.174-.191.386-.343.623-.447.237-.104.492-.157.75-.155.868 0 1.283.49 1.283 1.251v2.767h-1.04zM91.316 39.934c-.008-.27.04-.538.138-.789.1-.25.248-.479.437-.67.19-.193.416-.344.666-.447.25-.102.517-.152.787-.148 1.179 0 1.967.877 1.967 2.151v.245h-2.916c.043.261.183.497.392.66.209.162.471.24.735.217.384 0 .756-.136 1.051-.38l.462.68c-.455.37-1.029.562-1.615.543-1.203 0-2.104-.803-2.104-2.062zm2.028-1.208c-.238-.016-.471.064-.65.22-.18.157-.29.378-.307.615h1.931c-.008-.12-.04-.236-.093-.343-.053-.107-.128-.202-.219-.28-.09-.077-.196-.136-.31-.173-.113-.036-.233-.05-.352-.04zM96.268 40.917v-2.04h-.66v-.9h.65v-1.072h1.032v1.072h.788v.9h-.788v1.764c0 .262.128.439.357.439.13.005.257-.038.357-.121l.218.788c-.247.184-.552.273-.859.25-.704 0-1.095-.363-1.095-1.08zM98.55 39.934c-.007-.27.04-.538.14-.789.1-.25.248-.48.438-.671.19-.192.416-.343.666-.446.249-.102.517-.152.787-.148 1.177 0 1.965.877 1.965 2.151v.245H99.63c.043.261.183.497.393.66.209.163.472.24.737.217.383 0 .755-.136 1.05-.38l.463.68c-.456.369-1.03.562-1.616.543-1.206 0-2.106-.803-2.106-2.062zm2.031-1.208c-.237-.015-.471.065-.65.22-.18.157-.29.378-.309.615h1.934c-.008-.12-.04-.236-.094-.343-.053-.107-.127-.202-.218-.28-.091-.077-.196-.136-.31-.173-.114-.036-.234-.05-.353-.04zM102.963 41.39l.447-.749c.377.33.855.52 1.355.544.447 0 .657-.171.657-.413 0-.643-2.322-.115-2.322-1.657 0-.657.57-1.235 1.608-1.235.569-.01 1.125.176 1.576.525l-.431.741c-.315-.294-.73-.456-1.161-.454-.373 0-.617.162-.617.383 0 .575 2.332.087 2.332 1.671 0 .722-.617 1.25-1.707 1.25-.633.014-1.25-.201-1.737-.606zM111.608 41.897v-.413c-.158.17-.351.303-.565.391-.215.088-.446.129-.677.119-.176.008-.35-.02-.515-.082-.164-.062-.314-.156-.44-.277-.127-.121-.228-.267-.297-.428-.069-.162-.104-.336-.104-.51 0-.928.731-1.27 1.356-1.27.229-.014.459.022.673.105.215.083.409.211.569.376v-.497c0-.396-.341-.656-.861-.656-.421.004-.825.17-1.127.462l-.407-.722c.474-.412 1.085-.632 1.712-.618.904 0 1.723.357 1.723 1.487v2.533h-1.04zm0-.94v-.49c-.103-.115-.231-.207-.374-.267-.143-.06-.298-.088-.453-.082-.407 0-.741.22-.741.594 0 .373.334.583.741.583.154.01.308-.016.452-.074.143-.058.271-.148.375-.262v-.003zM116.31 41.897v-2.365c0-.546-.284-.733-.722-.733-.174.003-.345.046-.499.125-.155.078-.29.191-.395.33v2.643h-1.032v-3.92h1.032v.504c.174-.19.386-.343.622-.447.236-.103.492-.156.75-.155.869 0 1.284.49 1.284 1.251v2.767h-1.04zM121.062 41.897v-.5c-.142.187-.325.338-.535.442-.21.104-.441.158-.676.157-.982 0-1.739-.746-1.739-2.062 0-1.274.741-2.054 1.739-2.054.235-.003.467.05.678.155.21.105.393.258.533.446v-2h1.051v5.416h-1.051zm0-1.267v-1.387c-.103-.137-.237-.249-.39-.326-.154-.078-.323-.119-.495-.12-.594 0-1.001.465-1.001 1.137 0 .673.407 1.146 1.001 1.146.172-.002.341-.043.495-.12.153-.078.287-.19.39-.327v-.003zM124.976 39.196c0-1.674 1.258-2.804 2.89-2.804.461-.014.918.101 1.317.333.4.233.726.572.942.981l-.993.512c-.121-.233-.302-.429-.525-.568-.223-.138-.479-.214-.741-.22-.455.025-.884.223-1.197.554-.313.33-.488.77-.488 1.225 0 .455.175.894.488 1.225.313.33.742.529 1.197.553.262-.005.518-.081.741-.22.223-.139.404-.335.525-.568l.993.478c-.215.411-.54.754-.94.99-.399.234-.856.353-1.319.342-1.632-.013-2.89-1.148-2.89-2.813zM130.789 41.897v-5.415h1.032v5.415h-1.032zM132.591 39.934c-.002-.411.117-.814.344-1.157.226-.343.55-.611.929-.77.379-.16.797-.202 1.2-.123.404.078.775.275 1.066.565.291.29.49.66.571 1.064.081.403.04.82-.117 1.2s-.423.706-.765.934c-.342.228-.744.35-1.155.35-.275.011-.548-.034-.805-.133-.256-.1-.488-.251-.683-.445-.195-.194-.347-.426-.448-.681-.101-.256-.147-.53-.137-.804zm3.079 0c0-.61-.357-1.138-1.006-1.138s-.998.526-.998 1.138c0 .612.357 1.145.998 1.145s1.006-.528 1.006-1.145zM140.161 41.897v-.494c-.176.188-.391.338-.628.44-.238.102-.495.153-.753.15-.859 0-1.266-.47-1.266-1.234v-2.785h1.032v2.38c0 .544.284.723.722.723.173-.003.343-.044.498-.122.154-.077.29-.188.395-.325v-2.653h1.03v3.92h-1.03zM144.911 41.897v-.5c-.141.187-.324.339-.534.443-.21.104-.441.157-.675.156-.982 0-1.739-.746-1.739-2.062 0-1.274.739-2.054 1.739-2.054.235-.003.467.05.677.155.21.104.392.257.532.446v-2h1.05v5.416h-1.05zm0-1.267v-1.387c-.104-.138-.237-.25-.391-.327-.153-.077-.323-.118-.495-.12-.591 0-.998.465-.998 1.138 0 .673.407 1.146.998 1.146.172-.002.342-.043.495-.12.154-.078.287-.19.391-.327v-.003zM152.82 41.897l-2.574-3.529v3.529h-1.153v-5.415h1.187l2.509 3.415v-3.415h1.134v5.415h-1.103zM157.338 41.897v-.413c-.158.17-.351.303-.565.391-.215.088-.446.129-.677.119-.176.008-.351-.02-.515-.082-.164-.061-.314-.156-.44-.277-.127-.121-.228-.267-.297-.428-.069-.162-.104-.336-.104-.51 0-.928.73-1.27 1.356-1.27.229-.014.459.022.673.105.215.083.409.211.569.376v-.497c0-.396-.341-.656-.861-.656-.421.004-.825.17-1.127.462l-.407-.722c.475-.412 1.086-.632 1.715-.618.901 0 1.72.357 1.72 1.487v2.533h-1.04zm0-.94v-.49c-.103-.115-.231-.207-.374-.267-.143-.06-.298-.088-.453-.082-.407 0-.738.22-.738.594 0 .373.331.583.738.583.154.01.308-.016.452-.074.143-.058.271-.148.375-.262v-.003zM159.603 40.917v-2.04h-.652v-.9h.652v-1.072h1.029v1.072h.788v.9h-.788v1.764c0 .262.132.439.358.439.129.005.257-.038.357-.121l.22.788c-.247.184-.553.272-.861.25-.722 0-1.103-.363-1.103-1.08zM162.038 36.936c.01-.155.079-.301.193-.408.114-.107.264-.166.42-.166.156 0 .307.06.42.166.114.107.183.253.194.408.005.084-.007.169-.035.248-.028.079-.073.152-.13.213-.058.061-.127.11-.204.144-.077.033-.161.05-.245.05-.084 0-.167-.017-.244-.05-.077-.034-.147-.083-.204-.144-.058-.061-.102-.134-.13-.213-.029-.08-.041-.164-.035-.248zm.097 4.963v-3.922h1.032v3.92l-1.032.002zM165.219 41.897l-1.576-3.923h1.105l1.022 2.73 1.025-2.727h1.103l-1.576 3.922-1.103-.002zM168.108 39.934c-.007-.27.04-.538.14-.789.099-.25.248-.48.438-.671.189-.192.416-.343.665-.446.25-.102.518-.152.788-.148 1.179 0 1.965.877 1.965 2.151v.245h-2.919c.043.261.183.497.392.66.209.162.471.24.735.217.384 0 .755-.136 1.051-.38l.462.68c-.456.37-1.029.562-1.615.543-1.204 0-2.102-.803-2.102-2.062zm2.031-1.208c-.238-.016-.471.064-.651.22-.179.157-.289.378-.306.615h1.931c-.008-.12-.04-.237-.093-.344-.054-.107-.129-.203-.22-.28-.092-.078-.198-.137-.312-.173-.115-.037-.235-.05-.355-.038h.006zM179.666 41.897v-3.904l-1.523 3.904h-.505l-1.526-3.907v3.907h-1.153v-5.415h1.615l1.314 3.386 1.313-3.386h1.624v5.415h-1.159zM181.626 39.934c-.008-.27.04-.538.139-.79.099-.25.248-.479.437-.67.19-.193.417-.344.667-.446.249-.102.517-.153.787-.148 1.177 0 1.965.877 1.965 2.151v.245h-2.916c.043.262.183.498.393.66.209.163.473.24.737.217.384 0 .755-.135 1.051-.38l.462.68c-.456.37-1.029.562-1.616.543-1.205 0-2.106-.803-2.106-2.062zm2.03-1.208c-.237-.016-.471.064-.651.22-.179.157-.29.378-.308.615h1.934c-.008-.12-.04-.235-.094-.342-.054-.107-.128-.202-.219-.28-.09-.077-.196-.136-.309-.173-.114-.037-.234-.05-.353-.04zM186.115 39.934c-.007-.27.04-.538.14-.789.099-.25.248-.48.437-.671.19-.192.417-.343.666-.446.25-.102.518-.152.787-.148 1.177 0 1.965.877 1.965 2.151v.245h-2.913c.043.261.183.497.392.66.209.162.471.24.735.217.384 0 .755-.136 1.051-.38l.462.68c-.456.37-1.029.562-1.615.543-1.201 0-2.107-.803-2.107-2.062zm2.03-1.208c-.237-.015-.471.065-.65.22-.179.157-.29.378-.308.615h1.936c-.008-.12-.04-.236-.094-.343-.053-.107-.128-.203-.219-.28-.091-.078-.197-.137-.311-.174-.114-.036-.234-.05-.354-.038zM191.069 40.917v-2.04h-.649v-.9h.649v-1.072h1.033v1.072h.788v.9h-.788v1.764c0 .262.128.439.357.439.13.005.257-.038.357-.121l.218.788c-.247.184-.552.273-.859.25-.725 0-1.106-.363-1.106-1.08zM196.249 41.897v-.494c-.176.189-.39.339-.627.44-.238.102-.494.153-.752.15-.861 0-1.266-.47-1.266-1.234v-2.785h1.035v2.38c0 .544.286.723.722.723.173-.002.343-.044.498-.12.155-.078.29-.19.395-.327v-2.653h1.033v3.92h-1.038zM199.336 41.397v1.997h-1.019v-5.417h1.03v.504c.142-.186.325-.336.535-.439.21-.103.442-.156.676-.155 1.006 0 1.736.746 1.736 2.055 0 1.308-.73 2.062-1.736 2.062-.237.001-.471-.053-.683-.158-.212-.106-.397-.26-.539-.449zm1.884-1.463c0-.673-.405-1.138-.999-1.138-.171.003-.34.045-.493.123-.153.077-.287.188-.392.324v1.382c.105.136.238.248.392.327.153.078.321.122.493.127.594 0 .999-.462.999-1.145zM204.621 42.062l1.923-5.743h.749l-1.926 5.743h-.746zM209.446 41.897v-5.415h2.85c1.033 0 1.561.66 1.561 1.382.015.284-.071.564-.242.791-.171.227-.416.387-.693.451.301.062.571.227.763.467.192.24.293.54.287.847 0 .82-.525 1.469-1.576 1.469l-2.95.008zm3.234-3.834c0-.08-.017-.16-.05-.233-.032-.074-.08-.14-.141-.193-.06-.054-.13-.094-.207-.118-.077-.024-.158-.032-.238-.023h-1.445v1.138h1.445c.08.01.162.003.239-.02.078-.024.149-.064.209-.118.061-.054.109-.12.141-.195.032-.074.048-.154.047-.235v-.003zm.105 2.202c0-.087-.018-.174-.054-.254-.035-.08-.088-.151-.153-.21-.065-.058-.142-.102-.225-.128-.084-.027-.172-.035-.259-.025h-1.495v1.235h1.495c.431.002.691-.226.691-.615v-.003zM214.555 39.934c-.007-.27.04-.538.139-.789.099-.25.248-.479.437-.67.19-.193.416-.344.665-.447.25-.102.518-.152.787-.148 1.18 0 1.968.877 1.968 2.151v.245h-2.916c.043.261.183.497.392.66.208.162.471.24.735.217.384 0 .755-.136 1.051-.38l.462.68c-.456.37-1.029.562-1.615.543-1.204 0-2.105-.803-2.105-2.062zm2.028-1.208c-.237-.016-.471.064-.65.22-.179.157-.289.378-.306.615h1.931c-.008-.12-.04-.236-.093-.343-.054-.107-.128-.202-.219-.28-.091-.077-.196-.136-.31-.173-.114-.036-.234-.05-.353-.04zM219.2 36.936c.01-.155.079-.301.193-.408.114-.107.264-.166.42-.166.156 0 .307.06.421.166.114.107.183.253.193.408.005.084-.007.169-.035.248-.028.079-.072.152-.13.213-.057.061-.127.11-.204.144-.077.033-.16.05-.245.05-.084 0-.167-.017-.244-.05-.077-.034-.147-.083-.204-.144-.058-.061-.102-.134-.13-.213-.029-.08-.04-.164-.035-.248zm.097 4.963v-3.922h1.033v3.92l-1.033.002zM220.011 43.21l.263-.764c.07.067.152.12.242.155s.186.052.283.05c.318 0 .526-.205.526-.642v-4.032h1.032v4.03c0 .893-.454 1.484-1.398 1.484-.339.026-.677-.074-.948-.28zm1.243-6.271c.01-.156.079-.302.193-.409.114-.106.264-.166.42-.166.156 0 .306.06.42.166.114.107.183.253.193.409.006.084-.006.168-.034.247-.029.08-.073.152-.13.213-.058.062-.127.11-.204.144-.078.034-.161.05-.245.05-.084 0-.167-.017-.244-.05-.078-.033-.147-.082-.205-.144-.057-.061-.101-.134-.13-.213-.028-.079-.04-.163-.034-.247zM223.308 36.936c.01-.155.079-.301.193-.408.114-.107.264-.166.42-.166.156 0 .307.06.421.166.113.107.182.253.193.408.005.084-.007.169-.035.248-.028.079-.073.152-.13.213-.058.061-.127.11-.204.144-.077.033-.161.05-.245.05-.084 0-.167-.017-.244-.05-.077-.034-.147-.083-.204-.144-.058-.061-.102-.134-.13-.213-.029-.08-.041-.164-.035-.248zm.097 4.963v-3.922h1.032v3.92l-1.032.002zM228.107 41.897v-2.365c0-.546-.283-.733-.722-.733-.174.004-.344.046-.499.125-.154.079-.289.191-.394.33v2.643h-1.033v-3.92h1.033v.504c.174-.191.386-.343.623-.447.236-.104.492-.157.751-.155.866 0 1.282.49 1.282 1.251v2.767h-1.041zM230.08 42.908l.465-.74c.157.163.348.29.559.373.211.083.438.12.665.107.496 0 1.09-.213 1.09-1.009v-.38c-.142.188-.327.341-.538.447-.211.106-.445.161-.681.162-.974 0-1.728-.684-1.728-1.99 0-1.305.738-1.998 1.728-1.998.236-.003.47.05.681.155.212.104.396.257.538.446v-.504h1.03v3.657c0 1.487-1.154 1.852-2.12 1.852-.617.032-1.221-.175-1.689-.578zm2.779-2.396v-1.277c-.106-.134-.241-.242-.394-.318-.153-.076-.321-.117-.491-.12-.594 0-.999.407-.999 1.082s.405 1.08.999 1.08c.171-.006.339-.049.492-.126.153-.077.287-.186.393-.321z"/><path fill="#01A970" fill-rule="evenodd" d="M123.878 53.062c0-1.484 1.203-2.686 2.687-2.686h25.475c1.483 0 2.686 1.202 2.686 2.686s-1.203 2.687-2.686 2.687h-25.475c-1.484 0-2.687-1.203-2.687-2.687z" clip-rule="evenodd"/><path fill="#0171A9" fill-rule="evenodd" d="M101.427 53.062c0-1.484 1.203-2.686 2.686-2.686h12.157c1.484 0 2.687 1.202 2.687 2.686s-1.203 2.687-2.687 2.687h-12.157c-1.483 0-2.686-1.203-2.686-2.687z" clip-rule="evenodd"/><path fill="#2FACB2" fill-rule="evenodd" d="M166.987 53.062c0-1.484 1.203-2.686 2.687-2.686h18.44c1.484 0 2.687 1.202 2.687 2.686s-1.203 2.687-2.687 2.687h-18.44c-1.484 0-2.687-1.203-2.687-2.687z" clip-rule="evenodd"/><path fill="#01A970" fill-rule="evenodd" d="M194.957 53.062c0-1.484 1.203-2.686 2.687-2.686h6.249c1.484 0 2.686 1.202 2.686 2.686s-1.202 2.687-2.686 2.687h-6.249c-1.484 0-2.687-1.203-2.687-2.687z" clip-rule="evenodd"/><path fill="#FF5630" fill-rule="evenodd" d="M46.958 53.062c0-1.484 1.202-2.686 2.686-2.686h28.874c1.484 0 2.686 1.202 2.686 2.686s-1.202 2.687-2.686 2.687H49.644c-1.484 0-2.686-1.203-2.686-2.687z" clip-rule="evenodd"/><path fill="#01A970" fill-rule="evenodd" d="M81.272 53.05c.006-1.483 1.214-2.68 2.698-2.674l6.788.028c1.483.007 2.681 1.215 2.675 2.698-.007 1.484-1.215 2.682-2.698 2.676l-6.788-.03c-1.484-.006-2.681-1.214-2.675-2.697z" clip-rule="evenodd"/><path fill="#0171A9" fill-rule="evenodd" d="M210.905 53.062c0-1.484 1.203-2.686 2.686-2.686h28.877c1.484 0 2.686 1.202 2.686 2.686s-1.202 2.687-2.686 2.687h-28.877c-1.483 0-2.686-1.203-2.686-2.687z" clip-rule="evenodd"/><path fill="#2FACB2" fill-rule="evenodd" d="M37.496 5.588c0-1.556 1.261-2.817 2.817-2.817h30.3c1.557 0 2.819 1.261 2.819 2.817 0 1.557-1.262 2.818-2.818 2.818h-30.3c-1.557 0-2.818-1.261-2.818-2.818z" clip-rule="evenodd"/><path fill="#0171A9" fill-rule="evenodd" d="M103.549 5.588c0-1.556 1.262-2.817 2.818-2.817h14.314c1.556 0 2.818 1.261 2.818 2.817 0 1.557-1.262 2.818-2.818 2.818h-14.314c-1.556 0-2.818-1.261-2.818-2.818z" clip-rule="evenodd"/><path fill="#FFAB00" fill-rule="evenodd" d="M90.245 5.588c0-1.556 1.261-2.817 2.818-2.817h7.688c1.557 0 2.818 1.261 2.818 2.817 0 1.557-1.261 2.818-2.818 2.818h-7.688c-1.557 0-2.818-1.261-2.818-2.818z" clip-rule="evenodd"/><path fill="#6553C0" fill-rule="evenodd" d="M177.263 5.588c0-1.556 1.261-2.817 2.818-2.817h30.302c1.557 0 2.818 1.261 2.818 2.817 0 1.557-1.261 2.818-2.818 2.818h-30.302c-1.557 0-2.818-1.261-2.818-2.818z" clip-rule="evenodd"/><path fill="#01A970" fill-rule="evenodd" d="M230.661 5.588c0-1.556 1.261-2.817 2.818-2.817h28.12c1.556 0 2.817 1.261 2.817 2.817 0 1.557-1.261 2.818-2.817 2.818h-28.12c-1.557 0-2.818-1.261-2.818-2.818z" clip-rule="evenodd"/><path fill="#2FACB2" fill-rule="evenodd" d="M216.793 5.588c0-1.556 1.262-2.817 2.818-2.817h7.686c1.557 0 2.818 1.261 2.818 2.817 0 1.557-1.261 2.818-2.818 2.818h-7.686c-1.556 0-2.818-1.261-2.818-2.818z" clip-rule="evenodd"/><path fill="#00A971" d="M165.221 0h-32.953c-2.459 0-4.453 1.994-4.453 4.453v2.273c0 2.46 1.994 4.453 4.453 4.453h32.953c2.459 0 4.453-1.994 4.453-4.453V4.453c0-2.46-1.994-4.453-4.453-4.453z"/><g style="mix-blend-mode:color-dodge"><path fill="#FF5630" d="M134.222 9.445v-1.29c3.152-2.328 4.066-3.11 4.066-4.054 0-.68-.612-1.003-1.245-1.003-.386-.006-.769.07-1.124.224-.355.153-.674.379-.935.664l-.933-1.083c.376-.407.834-.73 1.344-.946.51-.216 1.06-.322 1.614-.31 1.647 0 2.937.923 2.937 2.454 0 1.314-1.082 2.454-3.074 3.904h3.129v1.44h-5.779zM142.599 5.61c0-1.981.98-3.962 3.179-3.962 2.198 0 3.178 1.98 3.178 3.962 0 1.98-.977 3.972-3.176 3.972-2.198 0-3.181-1.991-3.181-3.972zm4.689 0c0-1.416-.405-2.512-1.51-2.512-1.106 0-1.508 1.096-1.508 2.512s.415 2.522 1.508 2.522c1.092 0 1.51-1.106 1.51-2.522zM151.502 9.445v-1.29c3.152-2.328 4.063-3.11 4.063-4.054 0-.68-.609-1.003-1.242-1.003-.387-.005-.771.07-1.126.224-.355.153-.674.38-.936.664l-.933-1.083c.376-.407.835-.73 1.345-.946.511-.216 1.061-.322 1.616-.31 1.647 0 2.936.923 2.936 2.454 0 1.314-1.082 2.454-3.076 3.904h3.134v1.44h-5.781zM159.873 5.61c0-1.981.98-3.962 3.178-3.962 2.199 0 3.179 1.98 3.179 3.962 0 1.98-.98 3.972-3.179 3.972-2.198 0-3.178-1.991-3.178-3.972zm4.686 0c0-1.416-.402-2.512-1.508-2.512-1.105 0-1.51 1.096-1.51 2.512s.415 2.522 1.51 2.522c1.096 0 1.508-1.106 1.508-2.522z"/></g><path fill="#fff" d="M133.13 9.445v-1.29c3.152-2.328 4.064-3.11 4.064-4.054 0-.68-.61-1.003-1.243-1.003-.387-.005-.77.07-1.126.224-.355.153-.674.38-.936.664l-.932-1.083c.376-.407.834-.73 1.345-.946.51-.216 1.061-.322 1.615-.31 1.647 0 2.937.923 2.937 2.454 0 1.314-1.083 2.454-3.076 3.904h3.134v1.44h-5.782zM141.501 5.61c0-1.982.98-3.963 3.178-3.963 2.199 0 3.179 1.981 3.179 3.962s-.98 3.973-3.179 3.973c-2.198 0-3.178-1.992-3.178-3.973zm4.686 0c0-1.417-.402-2.512-1.508-2.512-1.105 0-1.507 1.095-1.507 2.511 0 1.416.412 2.522 1.507 2.522 1.096 0 1.508-1.106 1.508-2.522zM150.403 9.445v-1.29c3.152-2.328 4.064-3.11 4.064-4.054 0-.68-.609-1.003-1.242-1.003-.387-.006-.771.07-1.126.223-.356.153-.675.38-.937.665l-.932-1.083c.376-.407.834-.729 1.344-.945.51-.217 1.06-.323 1.614-.31 1.647 0 2.937.922 2.937 2.453 0 1.314-1.083 2.454-3.074 3.904h3.131v1.44h-5.779zM158.772 5.61c0-1.982.98-3.963 3.179-3.963s3.178 1.981 3.178 3.962-.977 3.973-3.178 3.973-3.179-1.992-3.179-3.973zm4.689 0c0-1.417-.404-2.512-1.51-2.512-1.106 0-1.508 1.095-1.508 2.511 0 1.416.415 2.522 1.508 2.522s1.51-1.106 1.51-2.522z"/></svg>