<svg xmlns="http://www.w3.org/2000/svg" width="41" height="41" viewBox="0 0 41 41"><defs><linearGradient id="prefix__a" x1="50%" x2="50%" y1="0%" y2="100%"><stop offset="0%" stop-color="#FFF"/><stop offset="35.329%" stop-color="#FFF" stop-opacity=".929"/><stop offset="100%" stop-color="#FFF" stop-opacity=".8"/></linearGradient></defs><g fill="none" fill-rule="evenodd"><rect width="41" height="41" fill="url(#prefix__a)" rx="4"/><g fill="#21A174" fill-rule="nonzero"><path d="M4.679 8.9l2.539 2.117-2.539 2.116c-.122.102-.189.257-.178.417.011.16.098.305.234.39l4 2.5c.082.05.173.076.265.076.114 0 .228-.04.32-.116L12 14.167l2.68 2.233c.092.077.206.116.32.116.092 0 .184-.025.265-.076l4-2.5c.136-.085.223-.23.234-.39.011-.16-.056-.315-.179-.418l-2.539-2.116L19.32 8.9c.129-.108.196-.274.176-.442-.02-.168-.122-.314-.273-.39l-4-2c-.161-.08-.352-.068-.501.03L12 7.916 9.277 6.1c-.149-.1-.34-.111-.501-.031l-4 2c-.151.076-.253.222-.273.39-.02.168.047.333.176.442zM12 9.107l3.057 1.91L12 12.926l-3.057-1.91L12 9.106z" transform="translate(9 10)"/><path d="M15 17.516c-.35 0-.691-.124-.96-.348l-1.72-1.433c-.186-.154-.455-.154-.641 0L9.96 17.168c-.269.224-.61.348-.96.348-.232 0-.434.16-.487.385-.053.225.056.458.263.562l3 1.5c.071.035.147.053.224.053.077 0 .153-.018.224-.053l3-1.5c.208-.104.316-.336.263-.562-.053-.226-.255-.385-.487-.385z" transform="translate(9 10)"/><path d="M21.5.016h-19C1.122.016 0 1.138 0 2.516v17c0 1.378 1.122 2.5 2.5 2.5h19c1.378 0 2.5-1.122 2.5-2.5v-17c0-1.378-1.122-2.5-2.5-2.5zm-15 2c.276 0 .5.224.5.5s-.224.5-.5.5-.5-.224-.5-.5.224-.5.5-.5zm-2 0c.276 0 .5.224.5.5s-.224.5-.5.5-.5-.224-.5-.5.224-.5.5-.5zm-2 0c.276 0 .5.224.5.5s-.224.5-.5.5-.5-.224-.5-.5.224-.5.5-.5zm20.5 17.5c0 .827-.673 1.5-1.5 1.5h-19c-.827 0-1.5-.673-1.5-1.5v-14.5h22v14.5z" transform="translate(9 10)"/></g></g></svg>