<svg width="64" height="64" viewBox="0 0 64 64" fill="none" xmlns="http://www.w3.org/2000/svg">
<path d="M60 19.3236V51.48L43.9436 60.7547L36.9439 39.0288C38.8262 37.9167 40.2877 36.2133 41.1008 34.1839C41.9139 32.1545 42.0329 29.9132 41.4393 27.8091C40.8457 25.705 39.5727 23.8564 37.8189 22.5512C36.065 21.2461 33.9286 20.5577 31.7427 20.5934C29.5568 20.6291 27.444 21.3868 25.7337 22.7485C24.0233 24.1102 22.8114 25.9993 22.2867 28.1217C21.7621 30.244 21.9542 32.4803 22.8331 34.482C23.712 36.4838 25.2283 38.1386 27.1458 39.1887L20.2261 60.6675L4.30054 51.48V19.3236L32.1466 3.24536L60 19.3236Z" fill="#00A971"/>
</svg>
