<svg width="64" height="64" viewBox="0 0 64 64" fill="none" xmlns="http://www.w3.org/2000/svg">
<rect width="64" height="64" rx="12" fill="url(#paint0_linear_855_9983)"/>
<path d="M31.2929 19.2523L43.0089 26.0166V39.545L32.3235 45.7142V36.4231L19.5769 29.0638V26.0166L31.2929 19.2523Z" fill="white"/>
<path d="M29.2016 38.2255V45.1018L19.5769 39.545V32.6687L29.2016 38.2255Z" fill="white"/>
<path fill-rule="evenodd" clip-rule="evenodd" d="M30.2522 11.5279C30.8962 11.1561 31.6896 11.1561 32.3335 11.5279L49.1781 21.2531C49.822 21.6248 50.2187 22.3119 50.2187 23.0555V42.5059C50.2187 43.2495 49.822 43.9366 49.1781 44.3084L32.3335 54.0335C31.6896 54.4053 30.8962 54.4053 30.2522 54.0335L13.4077 44.3084C12.7638 43.9366 12.3671 43.2495 12.3671 42.5059V23.0555C12.3671 22.3119 12.7638 21.6248 13.4077 21.2531L30.2522 11.5279ZM16.5297 24.2572L31.2929 15.7336L46.0561 24.2572V41.3043L31.2929 49.8278L16.5297 41.3043V24.2572Z" fill="white"/>
<defs>
<linearGradient id="paint0_linear_855_9983" x1="-23.034" y1="31.4201" x2="29.4917" y2="80.8251" gradientUnits="userSpaceOnUse">
<stop stop-color="#6236FF"/>
<stop offset="1" stop-color="#AC6EF2"/>
</linearGradient>
</defs>
</svg>
