<svg xmlns="http://www.w3.org/2000/svg" width="41" height="41" viewBox="0 0 41 41"><defs><linearGradient id="prefix__a" x1="71.36%" x2="71.36%" y1="50%" y2="-49.077%"><stop offset="0%" stop-color="#ECAF24"/><stop offset="100%" stop-color="#FFF8CB"/></linearGradient></defs><g fill="none" fill-rule="evenodd"><rect width="41" height="41" fill="url(#prefix__a)" rx="4"/><g fill="#FFF" fill-rule="nonzero" transform="translate(10 13)"><path d="M5.048 2.694c0-.011.003-.02.003-.032 0-1.395-1.13-2.526-2.525-2.526S0 1.267 0 2.662c0 1.31 1.003 2.376 2.281 2.5.28-1.324 1.397-2.328 2.767-2.468zM19.577.135c-1.396 0-2.526 1.131-2.526 2.526l.002.031c1.371.14 2.488 1.146 2.767 2.47 1.279-.125 2.282-1.19 2.282-2.501 0-1.394-1.13-2.526-2.525-2.526zM10.735 2.662c0-1.395-1.131-2.526-2.525-2.526-1.396 0-2.527 1.131-2.527 2.526 0 .012.003.02.003.032 1.118.113 2.057.808 2.522 1.776.464-.974 1.406-1.662 2.524-1.776 0-.011.003-.021.003-.032zM13.894 4.47c.464-.968 1.405-1.662 2.522-1.776 0-.011.003-.02.003-.032 0-1.395-1.129-2.526-2.525-2.526S11.37 1.267 11.37 2.662l.002.032c1.117.113 2.058.802 2.523 1.776z"/><path d="M7.893 5.82c-.001-1.396-1.13-2.526-2.525-2.526-1.396 0-2.527 1.13-2.527 2.526 0 1.206.847 2.21 1.977 2.463.32-1.41 1.573-2.463 3.075-2.464z"/><path d="M10.412 9.042c0-.023.007-.043.007-.066 0-1.396-1.13-2.526-2.525-2.526-1.396 0-2.526 1.13-2.526 2.526 0 1.395 1.13 2.525 2.526 2.525.022 0 .043-.007.065-.007.253-1.228 1.223-2.2 2.453-2.452z"/><path d="M10.984 8.338c.024 0 .044.007.067.007.022 0 .043-.007.065-.007.253-1.23 1.224-2.202 2.453-2.454.001-.022.007-.044.007-.065 0-1.396-1.13-2.527-2.524-2.527-1.396 0-2.527 1.13-2.527 2.527 0 .02.007.043.007.064 1.229.255 2.2 1.224 2.452 2.455zM16.734 3.292c-1.396 0-2.525 1.13-2.526 2.526h.001c1.502 0 2.756 1.056 3.074 2.463 1.13-.25 1.977-1.256 1.977-2.462 0-1.396-1.131-2.527-2.526-2.527z"/><path d="M14.21 6.45c-1.397 0-2.528 1.13-2.528 2.526 0 .022.007.043.007.065 1.23.252 2.2 1.223 2.454 2.454.023.001.043.007.066.007 1.395 0 2.525-1.13 2.525-2.524 0-1.397-1.131-2.528-2.525-2.528z"/><circle cx="11.051" cy="12.133" r="2.525"/></g></g></svg>