<svg width="472" height="278" viewBox="0 0 472 278" fill="none" xmlns="http://www.w3.org/2000/svg">
    <g filter="url(#filter0_dd)">
        <rect x="16" y="8" width="440" height="246" rx="4" fill="white" />
        <g opacity="0.8">
            <mask id="mask0" mask-type="alpha" maskUnits="userSpaceOnUse" x="16" y="8" width="440" height="246">
                <rect x="16" y="8" width="440" height="246" fill="white" />
            </mask>
            <g mask="url(#mask0)">
                <path d="M410.806 480L256 -20H453.261L504 224.571L410.806 480Z" fill="url(#paint0_linear)"
                    fill-opacity="0.5" />
                <path d="M-4 379L149.224 -18H266.729L392 379H-4Z" fill="url(#paint1_linear)" fill-opacity="0.7" />
                <path d="M16 318V-20H151L16 318Z" fill="url(#paint2_linear)" />
            </g>
        </g>
    </g>
    <path fill-rule="evenodd" clip-rule="evenodd" d="M81 67.4998L74 63V72L81 67.4998Z" fill="#00A971" />
    <path fill-rule="evenodd" clip-rule="evenodd" d="M81 46.5L74 42V51L81 46.5Z" fill="#00A971" />
    <path fill-rule="evenodd" clip-rule="evenodd"
        d="M70 40L56 48.4894V65.5113L70 74V61.085L63.2636 57.0002L70 52.9154V40Z" fill="#00A971" />
    <path fill-rule="evenodd" clip-rule="evenodd" d="M70 56.5L84 65V48L70 56.5Z" fill="#00A971" />
    <path fill-rule="evenodd" clip-rule="evenodd"
        d="M177.727 48.2876H176.256C175.935 48.2876 175.667 48.5656 175.667 48.8987V56.0097H170.931V48.8987C170.931 48.5656 170.691 48.2876 170.343 48.2876H168.871C168.55 48.2876 168.282 48.5656 168.282 48.8987V65.9564C168.282 66.2903 168.55 66.5679 168.871 66.5679H170.343C170.691 66.5679 170.931 66.2903 170.931 65.9564V58.7601H175.667V65.9564C175.667 66.2903 175.935 66.5679 176.256 66.5679H177.727C178.075 66.5679 178.316 66.2903 178.316 65.9564V48.8987C178.316 48.5656 178.075 48.2876 177.727 48.2876Z"
        fill="#443D4E" />
    <path fill-rule="evenodd" clip-rule="evenodd"
        d="M142.246 64.4287C142.246 64.0952 141.978 63.8172 141.657 63.8172L135.012 63.8176V58.8027H141.657C141.978 58.8027 142.245 58.553 142.245 58.1916V56.6639C142.245 56.33 141.977 56.0524 141.657 56.0524H135.012V51.0379H141.657C141.977 51.0379 142.245 50.7878 142.245 50.4268V48.8991C142.245 48.5652 141.977 48.2876 141.657 48.2876H134.425C134.424 48.2876 134.424 48.2876 134.424 48.2876H132.952C132.631 48.2876 132.363 48.5652 132.363 48.8987V65.9564C132.363 66.2899 132.631 66.5679 132.952 66.5679H133.59H133.591H141.657C141.978 66.5679 142.246 66.3178 142.246 65.9564V64.4287Z"
        fill="#443D4E" />
    <path fill-rule="evenodd" clip-rule="evenodd"
        d="M190.923 64.4287C190.923 64.0952 190.655 63.8172 190.334 63.8172L183.689 63.8176V58.8027H190.334C190.655 58.8027 190.923 58.553 190.923 58.1916V56.6639C190.923 56.33 190.655 56.0524 190.334 56.0524H183.689V51.0379H190.334C190.655 51.0379 190.923 50.7878 190.923 50.4268V48.8991C190.923 48.5652 190.655 48.2876 190.334 48.2876H183.102C183.102 48.2876 183.101 48.2876 183.101 48.2876H181.629C181.308 48.2876 181.041 48.5652 181.041 48.8987V65.9564C181.041 66.2899 181.308 66.5679 181.629 66.5679H182.267H182.268H190.334C190.655 66.5679 190.923 66.3178 190.923 65.9564V64.4287Z"
        fill="#443D4E" />
    <path fill-rule="evenodd" clip-rule="evenodd"
        d="M216 64.4287C216 64.0952 215.732 63.8172 215.411 63.8172L208.766 63.8176V58.8027H215.411C215.732 58.8027 216 58.553 216 58.1916V56.6639C216 56.33 215.732 56.0524 215.411 56.0524H208.766V51.0379H215.411C215.732 51.0379 216 50.7878 216 50.4268V48.8991C216 48.5652 215.732 48.2876 215.411 48.2876H208.179C208.179 48.2876 208.178 48.2876 208.178 48.2876H206.706C206.385 48.2876 206.118 48.5652 206.118 48.8987V65.9564C206.118 66.2899 206.385 66.5679 206.706 66.5679H207.344H207.345H215.411C215.732 66.5679 216 66.3178 216 65.9564V64.4287Z"
        fill="#443D4E" />
    <path fill-rule="evenodd" clip-rule="evenodd"
        d="M147.053 52.8867V53.9302C147.053 54.7266 147.794 55.1931 148.64 55.5502L152.157 57.0877C153.48 57.6922 154.405 58.7624 154.405 60.4099V62.3592C154.405 63.9792 151.126 66.6978 149.38 66.6978C148.191 66.6978 146.392 65.8191 144.991 65.0227C144.673 64.8583 144.462 64.4732 144.647 64.0343L145.097 63.1006C145.282 62.7163 145.678 62.6337 146.022 62.826C147.159 63.4302 148.666 64.1716 149.38 64.1716C150.174 64.1716 151.84 62.7714 151.84 61.9749V60.7671C151.84 59.8334 151.152 59.3118 150.201 58.9276L146.921 57.4995C145.652 56.9504 144.488 55.8247 144.488 54.2873V52.5025C144.488 50.7176 147.952 48.1367 149.619 48.1367C150.729 48.1367 152.528 48.9878 153.718 49.647C154.088 49.8394 154.194 50.2787 154.034 50.6079L153.612 51.5416C153.48 51.8708 153.056 51.9809 152.686 51.8157C151.787 51.3768 150.28 50.6629 149.619 50.6629C148.852 50.6629 147.053 51.9809 147.053 52.8867Z"
        fill="#443D4E" />
    <path fill-rule="evenodd" clip-rule="evenodd"
        d="M198.697 50.6769H196.101V56.7891H198.723C199.82 56.7891 201.105 54.7612 201.105 53.6774C201.105 52.6219 199.767 50.6769 198.697 50.6769ZM198.589 59.1781H196.101V65.9572C196.101 66.3182 195.86 66.5679 195.485 66.5679H194.068C193.746 66.5679 193.452 66.3182 193.452 65.9572V49.5656C193.452 48.927 194.175 48.2876 194.763 48.2876H199.045C200.997 48.2876 203.589 51.4501 203.589 53.5335C203.589 54.9229 202.416 57.0109 201.158 57.8171C202.175 58.3723 203.566 59.845 203.566 61.2064V65.9572C203.566 66.2903 203.299 66.5679 202.978 66.5679H201.506C201.185 66.5679 200.918 66.2903 200.918 65.9572V61.6229C200.918 60.6504 199.607 59.1781 198.589 59.1781Z"
        fill="#443D4E" />
    <path fill-rule="evenodd" clip-rule="evenodd"
        d="M161.716 50.6769H159.121V56.7891H161.743C162.84 56.7891 163.971 54.7612 163.971 53.6774C163.971 52.6219 162.786 50.6769 161.716 50.6769ZM161.61 59.1781H159.121V65.9572C159.121 66.3182 158.88 66.5679 158.505 66.5679H157.087C156.766 66.5679 156.472 66.3182 156.472 65.9572V49.5656C156.472 48.927 157.195 48.2876 157.783 48.2876H162.064C164.017 48.2876 166.49 51.5486 166.49 53.632C166.49 55.0214 165.499 56.8899 164.354 57.9706C163.791 58.5018 162.897 59.1781 161.61 59.1781Z"
        fill="#443D4E" />
    <path fill-rule="evenodd" clip-rule="evenodd"
        d="M112.311 66.7299C110.549 66.7299 107.253 64.4158 107.253 62.4189V49.0165C107.253 48.6838 107.545 48.4085 107.867 48.4085H109.279C109.625 48.4085 109.891 48.6838 109.891 49.0165V62.0598C109.891 63.0308 111.483 64.2076 112.311 64.2076C113.138 64.2076 114.741 62.8819 114.741 61.9109V48.868C114.741 48.5349 114.981 48.26 115.303 48.26H116.767C117.09 48.26 117.382 48.5349 117.382 48.868V62.2704C117.382 64.2076 114.071 66.7299 112.311 66.7299Z"
        fill="#443D4E" />
    <path fill-rule="evenodd" clip-rule="evenodd"
        d="M125.062 64.1788H122.557V58.0666H125.088C126.185 58.0666 127.47 59.988 127.47 61.0714C127.47 62.1272 126.132 64.1788 125.062 64.1788ZM122.557 50.6768H125.062C126.132 50.6768 127.47 52.2681 127.47 53.324C127.47 54.4074 126.185 56.1767 125.088 56.1767H122.557V50.6768ZM127.644 57.1221C128.864 56.2884 130.092 54.6687 130.092 53.324C130.092 51.2406 127.363 48.2878 125.41 48.2878H121.219C120.631 48.2878 119.908 48.9269 119.908 49.5655V56.2632V65.2897V65.9571C119.908 66.3185 120.202 66.5678 120.523 66.5678H121.219H121.941H125.5C127.453 66.5678 130.092 63.1551 130.092 61.0714C130.092 59.7274 128.864 57.965 127.644 57.1221Z"
        fill="#443D4E" />
    <path fill-rule="evenodd" clip-rule="evenodd"
        d="M99.0715 57.5287L104.897 50.5239C105.107 50.2715 105.1 49.8981 104.837 49.6619L103.723 48.6635C103.479 48.4452 103.102 48.4739 102.892 48.7263L97.798 54.8517V48.8988C97.798 48.5654 97.5572 48.2874 97.2095 48.2874H95.7377C95.4165 48.2874 95.1491 48.5654 95.1491 48.8988V65.957C95.1491 66.29 95.4165 66.5677 95.7377 66.5677H97.2095C97.5572 66.5677 97.798 66.29 97.798 65.957V60.2058L102.892 66.3315C103.102 66.5836 103.479 66.6123 103.723 66.3944L104.837 65.3959C105.1 65.1594 105.107 64.7859 104.897 64.5339L99.0715 57.5287Z"
        fill="#443D4E" />
    <defs>
        <filter id="filter0_dd" x="0" y="0" width="472" height="278" filterUnits="userSpaceOnUse"
            color-interpolation-filters="sRGB">
            <feFlood flood-opacity="0" result="BackgroundImageFix" />
            <feColorMatrix in="SourceAlpha" type="matrix" values="0 0 0 0 0 0 0 0 0 0 0 0 0 0 0 0 0 0 127 0"
                result="hardAlpha" />
            <feOffset dy="4" />
            <feGaussianBlur stdDeviation="4" />
            <feColorMatrix type="matrix" values="0 0 0 0 0.141176 0 0 0 0 0.180392 0 0 0 0 0.258824 0 0 0 0.06 0" />
            <feBlend mode="normal" in2="BackgroundImageFix" result="effect1_dropShadow" />
            <feColorMatrix in="SourceAlpha" type="matrix" values="0 0 0 0 0 0 0 0 0 0 0 0 0 0 0 0 0 0 127 0"
                result="hardAlpha" />
            <feOffset dy="8" />
            <feGaussianBlur stdDeviation="8" />
            <feColorMatrix type="matrix" values="0 0 0 0 0.141176 0 0 0 0 0.180392 0 0 0 0 0.258824 0 0 0 0.05 0" />
            <feBlend mode="normal" in2="effect1_dropShadow" result="effect2_dropShadow" />
            <feBlend mode="normal" in="SourceGraphic" in2="effect2_dropShadow" result="shape" />
        </filter>
        <filter id="filter1_dd" x="250" y="138" width="211" height="140" filterUnits="userSpaceOnUse"
            color-interpolation-filters="sRGB">
            <feFlood flood-opacity="0" result="BackgroundImageFix" />
            <feColorMatrix in="SourceAlpha" type="matrix" values="0 0 0 0 0 0 0 0 0 0 0 0 0 0 0 0 0 0 127 0"
                result="hardAlpha" />
            <feOffset dy="10" />
            <feGaussianBlur stdDeviation="25" />
            <feColorMatrix type="matrix" values="0 0 0 0 0.133333 0 0 0 0 0.168627 0 0 0 0 0.243137 0 0 0 0.1 0" />
            <feBlend mode="normal" in2="BackgroundImageFix" result="effect1_dropShadow" />
            <feColorMatrix in="SourceAlpha" type="matrix" values="0 0 0 0 0 0 0 0 0 0 0 0 0 0 0 0 0 0 127 0"
                result="hardAlpha" />
            <feOffset dy="8" />
            <feGaussianBlur stdDeviation="8" />
            <feColorMatrix type="matrix" values="0 0 0 0 0.129412 0 0 0 0 0.168627 0 0 0 0 0.239216 0 0 0 0.2 0" />
            <feBlend mode="normal" in2="effect1_dropShadow" result="effect2_dropShadow" />
            <feBlend mode="normal" in="SourceGraphic" in2="effect2_dropShadow" result="shape" />
        </filter>
        <linearGradient id="paint0_linear" x1="303.115" y1="59.1106" x2="429.089" y2="224.731"
            gradientUnits="userSpaceOnUse">
            <stop stop-color="#D8F2F4" stop-opacity="0.62" />
            <stop offset="1" stop-color="white" stop-opacity="0" />
        </linearGradient>
        <linearGradient id="paint1_linear" x1="107.812" y1="37.3112" x2="212.53" y2="219.395"
            gradientUnits="userSpaceOnUse">
            <stop stop-color="#D8F2F4" stop-opacity="0.62" />
            <stop offset="1" stop-color="white" stop-opacity="0" />
        </linearGradient>
        <linearGradient id="paint2_linear" x1="94.923" y1="-20" x2="94.923" y2="284.407" gradientUnits="userSpaceOnUse">
            <stop stop-color="#E2F5F7" stop-opacity="0.39" />
            <stop offset="1" stop-color="white" stop-opacity="0" />
        </linearGradient>
        <linearGradient id="paint3_linear" x1="301.772" y1="178" x2="301.772" y2="216.723"
            gradientUnits="userSpaceOnUse">
            <stop stop-opacity="0.01" />
            <stop offset="1" stop-opacity="0.1" />
        </linearGradient>
        <clipPath id="clip0">
            <rect width="360" height="48" fill="white" transform="translate(56 174)" />
        </clipPath>
    </defs>
</svg>