<svg xmlns="http://www.w3.org/2000/svg" width="336" height="383" fill="none" viewBox="0 0 336 383"><g clip-path="url(#clip0)"><rect width="336" height="383" fill="#fff" rx="4"/><g filter="url(#filter0_dd)"><rect width="408" height="469" fill="#fff" rx="4"/></g><path fill="url(#paint0_linear)" fill-opacity=".5" d="M362 480.5L212.5 -3H403L452 233.5L362 480.5Z"/><path fill="url(#paint1_linear)" fill-opacity=".7" d="M-48.5 383L99.5 -1H213L334 383H-48.5Z"/><path fill="url(#paint2_linear)" d="M-29.5 324.5V-2.5H100.5L-29.5 324.5Z"/><path fill="#324558" d="M123.521 32V23.4688H125.93C126.672 23.4688 127.328 23.6328 127.898 23.9609C128.469 24.2891 128.908 24.7559 129.217 25.3613C129.529 25.9668 129.688 26.6621 129.691 27.4473V27.9922C129.691 28.7969 129.535 29.502 129.223 30.1074C128.914 30.7129 128.471 31.1777 127.893 31.502C127.318 31.8262 126.648 31.9922 125.883 32H123.521ZM124.646 24.3945V31.0801H125.83C126.697 31.0801 127.371 30.8105 127.852 30.2715C128.336 29.7324 128.578 28.9648 128.578 27.9688V27.4707C128.578 26.502 128.35 25.75 127.893 25.2148C127.439 24.6758 126.795 24.4023 125.959 24.3945H124.646ZM133.857 32.1172C132.998 32.1172 132.299 31.8359 131.76 31.2734C131.221 30.707 130.951 29.9512 130.951 29.0059V28.8066C130.951 28.1777 131.07 27.6172 131.309 27.125C131.551 26.6289 131.887 26.2422 132.316 25.9648C132.75 25.6836 133.219 25.543 133.723 25.543C134.547 25.543 135.188 25.8145 135.645 26.3574C136.102 26.9004 136.33 27.6777 136.33 28.6895V29.1406H132.035C132.051 29.7656 132.232 30.2715 132.58 30.6582C132.932 31.041 133.377 31.2324 133.916 31.2324C134.299 31.2324 134.623 31.1543 134.889 30.998C135.154 30.8418 135.387 30.6348 135.586 30.377L136.248 30.8926C135.717 31.709 134.92 32.1172 133.857 32.1172ZM133.723 26.4336C133.285 26.4336 132.918 26.5938 132.621 26.9141C132.324 27.2305 132.141 27.6758 132.07 28.25H135.246V28.168C135.215 27.6172 135.066 27.1914 134.801 26.8906C134.535 26.5859 134.176 26.4336 133.723 26.4336ZM139.6 30.5293L141.17 25.6602H142.277L140.004 32H139.178L136.881 25.6602H137.988L139.6 30.5293ZM145.869 32.1172C145.01 32.1172 144.311 31.8359 143.771 31.2734C143.232 30.707 142.963 29.9512 142.963 29.0059V28.8066C142.963 28.1777 143.082 27.6172 143.32 27.125C143.562 26.6289 143.898 26.2422 144.328 25.9648C144.762 25.6836 145.23 25.543 145.734 25.543C146.559 25.543 147.199 25.8145 147.656 26.3574C148.113 26.9004 148.342 27.6777 148.342 28.6895V29.1406H144.047C144.062 29.7656 144.244 30.2715 144.592 30.6582C144.943 31.041 145.389 31.2324 145.928 31.2324C146.311 31.2324 146.635 31.1543 146.9 30.998C147.166 30.8418 147.398 30.6348 147.598 30.377L148.26 30.8926C147.729 31.709 146.932 32.1172 145.869 32.1172ZM145.734 26.4336C145.297 26.4336 144.93 26.5938 144.633 26.9141C144.336 27.2305 144.152 27.6758 144.082 28.25H147.258V28.168C147.227 27.6172 147.078 27.1914 146.812 26.8906C146.547 26.5859 146.188 26.4336 145.734 26.4336ZM150.779 32H149.695V23H150.779V32ZM152.232 28.7715C152.232 28.1504 152.354 27.5918 152.596 27.0957C152.842 26.5996 153.182 26.2168 153.615 25.9473C154.053 25.6777 154.551 25.543 155.109 25.543C155.973 25.543 156.67 25.8418 157.201 26.4395C157.736 27.0371 158.004 27.832 158.004 28.8242V28.9004C158.004 29.5176 157.885 30.0723 157.646 30.5645C157.412 31.0527 157.074 31.4336 156.633 31.707C156.195 31.9805 155.691 32.1172 155.121 32.1172C154.262 32.1172 153.564 31.8184 153.029 31.2207C152.498 30.623 152.232 29.832 152.232 28.8477V28.7715ZM153.322 28.9004C153.322 29.6035 153.484 30.168 153.809 30.5938C154.137 31.0195 154.574 31.2324 155.121 31.2324C155.672 31.2324 156.109 31.0176 156.434 30.5879C156.758 30.1543 156.92 29.5488 156.92 28.7715C156.92 28.0762 156.754 27.5137 156.422 27.084C156.094 26.6504 155.656 26.4336 155.109 26.4336C154.574 26.4336 154.143 26.6465 153.814 27.0723C153.486 27.498 153.322 28.1074 153.322 28.9004ZM164.719 28.9004C164.719 29.8652 164.498 30.6426 164.057 31.2324C163.615 31.8223 163.018 32.1172 162.264 32.1172C161.494 32.1172 160.889 31.873 160.447 31.3848V34.4375H159.363V25.6602H160.354L160.406 26.3633C160.848 25.8164 161.461 25.543 162.246 25.543C163.008 25.543 163.609 25.8301 164.051 26.4043C164.496 26.9785 164.719 27.7773 164.719 28.8008V28.9004ZM163.635 28.7773C163.635 28.0625 163.482 27.498 163.178 27.084C162.873 26.6699 162.455 26.4629 161.924 26.4629C161.268 26.4629 160.775 26.7539 160.447 27.3359V30.3652C160.771 30.9434 161.268 31.2324 161.936 31.2324C162.455 31.2324 162.867 31.0273 163.172 30.6172C163.48 30.2031 163.635 29.5898 163.635 28.7773ZM168.732 32.1172C167.873 32.1172 167.174 31.8359 166.635 31.2734C166.096 30.707 165.826 29.9512 165.826 29.0059V28.8066C165.826 28.1777 165.945 27.6172 166.184 27.125C166.426 26.6289 166.762 26.2422 167.191 25.9648C167.625 25.6836 168.094 25.543 168.598 25.543C169.422 25.543 170.062 25.8145 170.52 26.3574C170.977 26.9004 171.205 27.6777 171.205 28.6895V29.1406H166.91C166.926 29.7656 167.107 30.2715 167.455 30.6582C167.807 31.041 168.252 31.2324 168.791 31.2324C169.174 31.2324 169.498 31.1543 169.764 30.998C170.029 30.8418 170.262 30.6348 170.461 30.377L171.123 30.8926C170.592 31.709 169.795 32.1172 168.732 32.1172ZM168.598 26.4336C168.16 26.4336 167.793 26.5938 167.496 26.9141C167.199 27.2305 167.016 27.6758 166.945 28.25H170.121V28.168C170.09 27.6172 169.941 27.1914 169.676 26.8906C169.41 26.5859 169.051 26.4336 168.598 26.4336ZM175.529 26.6328C175.365 26.6055 175.188 26.5918 174.996 26.5918C174.285 26.5918 173.803 26.8945 173.549 27.5V32H172.465V25.6602H173.52L173.537 26.3926C173.893 25.8262 174.396 25.543 175.049 25.543C175.26 25.543 175.42 25.5703 175.529 25.625V26.6328ZM180.223 30.3184C180.223 30.0254 180.111 29.7988 179.889 29.6387C179.67 29.4746 179.285 29.334 178.734 29.2168C178.188 29.0996 177.752 28.959 177.428 28.7949C177.107 28.6309 176.869 28.4355 176.713 28.209C176.561 27.9824 176.484 27.7129 176.484 27.4004C176.484 26.8809 176.703 26.4414 177.141 26.082C177.582 25.7227 178.145 25.543 178.828 25.543C179.547 25.543 180.129 25.7285 180.574 26.0996C181.023 26.4707 181.248 26.9453 181.248 27.5234H180.158C180.158 27.2266 180.031 26.9707 179.777 26.7559C179.527 26.541 179.211 26.4336 178.828 26.4336C178.434 26.4336 178.125 26.5195 177.902 26.6914C177.68 26.8633 177.568 27.0879 177.568 27.3652C177.568 27.627 177.672 27.8242 177.879 27.957C178.086 28.0898 178.459 28.2168 178.998 28.3379C179.541 28.459 179.98 28.6035 180.316 28.7715C180.652 28.9395 180.9 29.1426 181.061 29.3809C181.225 29.6152 181.307 29.9023 181.307 30.2422C181.307 30.8086 181.08 31.2637 180.627 31.6074C180.174 31.9473 179.586 32.1172 178.863 32.1172C178.355 32.1172 177.906 32.0273 177.516 31.8477C177.125 31.668 176.818 31.418 176.596 31.0977C176.377 30.7734 176.268 30.4238 176.268 30.0488H177.352C177.371 30.4121 177.516 30.7012 177.785 30.916C178.059 31.127 178.418 31.2324 178.863 31.2324C179.273 31.2324 179.602 31.1504 179.848 30.9863C180.098 30.8184 180.223 30.5957 180.223 30.3184Z"/><path fill="#324558" fill-rule="evenodd" d="M58.1954 25.897V26.3662C58.1954 26.7247 58.5386 26.9345 58.9318 27.0958L60.5646 27.7875C61.1786 28.0595 61.6084 28.5403 61.6084 29.2816V30.1588C61.6084 30.8874 60.0855 32.1105 59.2749 32.1105C58.7236 32.1105 57.8889 31.7151 57.2383 31.3566C57.0908 31.2828 56.9925 31.1099 57.0783 30.9127L57.2875 30.492C57.3723 30.3191 57.5573 30.2822 57.7164 30.3686C58.2446 30.6407 58.9434 30.9739 59.2749 30.9739C59.6441 30.9739 60.4171 30.3444 60.4171 29.9859V29.4419C60.4171 29.0222 60.0981 28.7881 59.6566 28.6142L58.1347 27.972C57.5448 27.7253 57.0051 27.2192 57.0051 26.5275V25.7241C57.0051 24.9216 58.6128 23.7607 59.3858 23.7607C59.9024 23.7607 60.7371 24.1435 61.2884 24.4398C61.461 24.5263 61.5092 24.7235 61.4359 24.8721L61.2393 25.2918C61.1786 25.4404 60.9819 25.4899 60.8104 25.4151C60.392 25.2179 59.6932 24.8964 59.3858 24.8964C59.0301 24.8964 58.1954 25.4899 58.1954 25.897ZM55.69 30.8147C55.8384 30.8147 55.9627 30.9401 55.9627 31.0897L55.9637 31.7775C55.9637 31.9397 55.8394 32.0524 55.69 32.0524H51.9454H51.9444H51.6485C51.5001 32.0524 51.3758 31.9271 51.3758 31.7775V24.1029C51.3758 23.9533 51.5001 23.828 51.6485 23.828H52.3319H55.69C55.8384 23.828 55.9627 23.9533 55.9627 24.1029V24.7907C55.9627 24.9529 55.8384 25.0656 55.69 25.0656H52.6056V27.3214H55.69C55.8384 27.3214 55.9627 27.4467 55.9627 27.5963V28.2841C55.9627 28.4463 55.8384 28.559 55.69 28.559H52.6056V30.8147H55.69ZM71.7515 23.8284H72.4348C72.5968 23.8284 72.7076 23.9527 72.7076 24.1033V31.7769C72.7076 31.9265 72.5968 32.0518 72.4348 32.0518H71.7515C71.603 32.0518 71.4787 31.9265 71.4787 31.7769V28.54H69.2801V31.7769C69.2801 31.9265 69.1674 32.0518 69.0064 32.0518H68.323C68.1746 32.0518 68.0503 31.9265 68.0503 31.7769V24.1033C68.0503 23.9527 68.1746 23.8284 68.323 23.8284H69.0064C69.1674 23.8284 69.2801 23.9527 69.2801 24.1033V27.3023H71.4787V24.1033C71.4787 23.9527 71.603 23.8284 71.7515 23.8284ZM78.5606 31.0897C78.5606 30.9401 78.4363 30.8147 78.2878 30.8147H75.2025V28.559H78.2878C78.4363 28.559 78.5606 28.4463 78.5606 28.2841V27.5963C78.5606 27.4467 78.4363 27.3214 78.2878 27.3214H75.2025V25.0656H78.2878C78.4363 25.0656 78.5606 24.9529 78.5606 24.7907V24.1029C78.5606 23.9533 78.4363 23.828 78.2869 23.828H74.9298H74.9288H74.2454C74.097 23.828 73.9727 23.9533 73.9727 24.1029V31.7775C73.9727 31.9271 74.097 32.0524 74.2454 32.0524H74.5423H78.2878C78.4363 32.0524 78.5606 31.9397 78.5606 31.7775V31.0897ZM89.9294 30.8147C90.0778 30.8147 90.2022 30.9401 90.2022 31.0897V31.7775C90.2022 31.9397 90.0778 32.0524 89.9294 32.0524H86.1839H85.887C85.7386 32.0524 85.6142 31.9271 85.6142 31.7775V24.1029C85.6142 23.9533 85.7386 23.828 85.887 23.828H86.5704H86.5713H89.9284C90.0778 23.828 90.2022 23.9533 90.2022 24.1029V24.7907C90.2022 24.9529 90.0778 25.0656 89.9284 25.0656H86.8441V27.3214H89.9294C90.0778 27.3214 90.2022 27.4467 90.2022 27.5963V28.2841C90.2022 28.4463 90.0778 28.559 89.9294 28.559H86.8441V30.8147H89.9294ZM80.9646 24.9027H82.1694C82.6667 24.9027 83.2875 25.778 83.2875 26.253C83.2875 26.7407 82.6908 27.6529 82.1819 27.6529H80.9646V24.9027ZM80.9646 28.7274H82.1193C82.5916 28.7274 83.1998 29.3899 83.1998 29.827V31.7768C83.1998 31.9264 83.3241 32.0517 83.4745 32.0517H84.1569C84.3063 32.0517 84.4306 31.9264 84.4306 31.7768V29.6396C84.4306 29.0275 83.7848 28.365 83.3125 28.1153C83.8957 27.753 84.4402 26.8126 84.4402 26.1879C84.4402 25.2505 83.2373 23.8283 82.3313 23.8283H80.3429C80.0701 23.8283 79.7347 24.1158 79.7347 24.4034V31.7768C79.7347 31.94 79.8716 32.0517 80.021 32.0517H80.6783C80.8528 32.0517 80.9646 31.94 80.9646 31.7768V28.7274ZM65.0017 24.9027H63.7969V27.6529H65.0152C65.5241 27.6529 66.0494 26.7407 66.0494 26.253C66.0494 25.778 65.499 24.9027 65.0017 24.9027ZM64.9525 28.7274H63.7969V31.7768C63.7969 31.94 63.686 32.0517 63.5116 32.0517H62.8532C62.7038 32.0517 62.5679 31.94 62.5679 31.7768V24.4034C62.5679 24.1158 62.9024 23.8283 63.1761 23.8283H65.1636C66.0696 23.8283 67.2185 25.2952 67.2185 26.2326C67.2185 26.8573 66.7578 27.6976 66.2267 28.1843C65.9646 28.4233 65.5501 28.7274 64.9525 28.7274ZM39.7179 30.1856C39.7179 31.0842 41.2485 32.1247 42.0668 32.1247C42.8842 32.1247 44.4206 30.99 44.4206 30.1186V24.0897C44.4206 23.9391 44.2856 23.8157 44.1353 23.8157H43.4558C43.3064 23.8157 43.1955 23.9391 43.1955 24.0897V29.9573C43.1955 30.3935 42.4505 30.99 42.0668 30.99C41.6832 30.99 40.943 30.4606 40.943 30.0234V24.1557C40.943 24.0061 40.8196 23.8828 40.6596 23.8828H40.0032C39.8538 23.8828 39.7179 24.0061 39.7179 24.1557V30.1856ZM47.9855 30.9773H46.8231V28.227H47.999C48.5079 28.227 49.1036 29.0916 49.1036 29.5793C49.1036 30.0544 48.4828 30.9773 47.9855 30.9773ZM46.8231 24.9027H47.9855C48.4828 24.9027 49.1036 25.6187 49.1036 26.0937C49.1036 26.5814 48.5079 27.377 47.999 27.377H46.8231V24.9027ZM49.1845 27.8025C49.7513 27.4275 50.3209 26.6989 50.3209 26.0937C50.3209 25.1562 49.0534 23.8283 48.1474 23.8283H46.2014C45.9286 23.8283 45.5942 24.1158 45.5942 24.4034V27.4159V31.4776V31.7768C45.5942 31.94 45.7301 32.0517 45.8785 32.0517H46.2014H46.5368H48.1898C49.0958 32.0517 50.3209 30.5168 50.3209 29.5793C50.3209 28.9741 49.7513 28.1824 49.1845 27.8025ZM38.6249 24.8341L35.9203 27.9855L38.6249 31.137C38.7223 31.2506 38.7184 31.4187 38.596 31.5246L38.0794 31.9734C37.9666 32.0725 37.7912 32.0589 37.6948 31.9452L35.3295 29.1902V31.7772C35.3295 31.9268 35.2177 32.0521 35.0567 32.0521H34.3733C34.2239 32.0521 34.0996 31.9268 34.0996 31.7772V24.1026C34.0996 23.953 34.2239 23.8286 34.3733 23.8286H35.0567C35.2177 23.8286 35.3295 23.953 35.3295 24.1026V26.7809L37.6948 24.0258C37.7912 23.9122 37.9666 23.8986 38.0794 23.9977L38.596 24.4465C38.7184 24.5524 38.7223 24.7204 38.6249 24.8341Z" clip-rule="evenodd"/><path fill="#324558" fill-rule="evenodd" d="M92.0898 25.331C92.0898 26.1539 92.7549 26.8232 93.5732 26.8232C94.3992 26.8232 95.0556 26.1539 95.0556 25.331C95.0556 24.5004 94.3992 23.8389 93.5732 23.8389C92.7549 23.8389 92.0898 24.5004 92.0898 25.331ZM93.5732 24.0633C92.8735 24.0633 92.3135 24.6199 92.3135 25.331C92.3135 26.0276 92.8735 26.5978 93.5732 26.5978C94.273 26.5978 94.832 26.0276 94.832 25.331C94.832 24.6199 94.273 24.0633 93.5732 24.0633ZM93.5375 25.5137L93.979 26.1888H94.273L93.818 25.5069C93.9163 25.5069 94.2518 25.3796 94.2518 24.9998C94.2518 24.6831 93.9857 24.4791 93.6985 24.4791H93.0065V26.1888H93.2436V25.5137H93.5375ZM93.2436 24.6899H93.6985C93.845 24.6899 94.006 24.8103 94.006 24.9998C94.006 25.1756 93.845 25.2961 93.6985 25.2961H93.2436V24.6899Z" clip-rule="evenodd"/><path fill="#15A675" fill-rule="evenodd" d="M22.694 20.1582L16 24.047V31.8449L22.694 35.7016V29.8175L19.4728 27.9464L22.694 26.0754V20.1582ZM24.3828 21.1191L27.8044 23.1067L24.3828 25.0943V21.1191ZM27.8046 32.7856L24.3829 34.7742V30.799L27.8046 32.7856ZM29.4031 31.8305L22.7178 27.9465L29.4031 24.0636V31.8305Z" clip-rule="evenodd"/><path fill="url(#paint3_linear)" fill-rule="evenodd" stroke="url(#paint4_linear)" d="M109.266 24.3599C108.711 23.6265 107.869 23.1816 106.962 23.1816C105.329 23.1816 104 24.6036 104 26.3523C104 27.3954 104.476 28.1276 104.859 28.7151C105.97 30.4234 108.766 32.5478 108.884 32.6372C108.998 32.7234 109.132 32.7671 109.265 32.7671C109.398 32.7671 109.532 32.7234 109.646 32.6372C109.764 32.5478 112.56 30.4223 113.673 28.7151C114.055 28.1276 114.531 27.3954 114.531 26.3523C114.531 24.6036 113.202 23.1816 111.569 23.1816C110.662 23.1816 109.821 23.6265 109.266 24.3599Z" clip-rule="evenodd"/></g><defs><filter id="filter0_dd" width="440" height="501" x="-16" y="-8" color-interpolation-filters="sRGB" filterUnits="userSpaceOnUse"><feFlood flood-opacity="0" result="BackgroundImageFix"/><feColorMatrix in="SourceAlpha" type="matrix" values="0 0 0 0 0 0 0 0 0 0 0 0 0 0 0 0 0 0 127 0"/><feOffset dy="4"/><feGaussianBlur stdDeviation="4"/><feColorMatrix type="matrix" values="0 0 0 0 0.141176 0 0 0 0 0.180392 0 0 0 0 0.258824 0 0 0 0.06 0"/><feBlend in2="BackgroundImageFix" mode="normal" result="effect1_dropShadow"/><feColorMatrix in="SourceAlpha" type="matrix" values="0 0 0 0 0 0 0 0 0 0 0 0 0 0 0 0 0 0 127 0"/><feOffset dy="8"/><feGaussianBlur stdDeviation="8"/><feColorMatrix type="matrix" values="0 0 0 0 0.141176 0 0 0 0 0.180392 0 0 0 0 0.258824 0 0 0 0.05 0"/><feBlend in2="effect1_dropShadow" mode="normal" result="effect2_dropShadow"/><feBlend in="SourceGraphic" in2="effect2_dropShadow" mode="normal" result="shape"/></filter><linearGradient id="paint0_linear" x1="258" x2="379.86" y1="73.5" y2="233.5" gradientUnits="userSpaceOnUse"><stop stop-color="#D8F2F4" stop-opacity=".62"/><stop offset="1" stop-color="#fff" stop-opacity="0"/></linearGradient><linearGradient id="paint1_linear" x1="59.5" x2="160.86" y1="52.5" y2="228.5" gradientUnits="userSpaceOnUse"><stop stop-color="#D8F2F4" stop-opacity=".62"/><stop offset="1" stop-color="#fff" stop-opacity="0"/></linearGradient><linearGradient id="paint2_linear" x1="46.5" x2="46.5" y1="-2.5" y2="292" gradientUnits="userSpaceOnUse"><stop stop-color="#E2F5F7" stop-opacity=".39"/><stop offset="1" stop-color="#fff" stop-opacity="0"/></linearGradient><linearGradient id="paint3_linear" x1="105.892" x2="108.833" y1="24.066" y2="29.119" gradientUnits="userSpaceOnUse"><stop stop-color="#FC8690"/><stop offset="1" stop-color="#F74E57"/></linearGradient><linearGradient id="paint4_linear" x1="105.892" x2="108.833" y1="24.066" y2="29.119" gradientUnits="userSpaceOnUse"><stop stop-color="#FC8690"/><stop offset="1" stop-color="#F74E57"/></linearGradient><clipPath id="clip0"><rect width="336" height="383" fill="#fff" rx="4"/></clipPath></defs></svg>