<svg xmlns="http://www.w3.org/2000/svg" width="41" height="41" viewBox="0 0 41 41"><defs><linearGradient id="prefix__a" x1="2.607%" x2="84.679%" y1="8.058%" y2="85.254%"><stop offset="0%" stop-color="#6236FF"/><stop offset="100%" stop-color="#AC6EF2"/></linearGradient></defs><g fill="none" fill-rule="evenodd"><rect width="41" height="41" fill="url(#prefix__a)" rx="4"/><g fill="#FFF" fill-rule="nonzero"><path d="M19.731 17.6c-.2-.1-.4-.1-.5 0-2 1.5-5.4 2.4-9.2 2.4-3.8 0-7.2-.9-9.2-2.4-.2-.1-.4-.1-.5 0-.2.1-.3.3-.3.4v1.5c0 2.5 4.4 4.5 10 4.5s10-2 10-4.5V18c0-.2-.1-.4-.3-.4zM19.731 7.5c-.2-.1-.4-.1-.5 0-2 1.5-5.4 2.4-9.2 2.4-3.8 0-7.2-.9-9.2-2.4-.2-.1-.4-.1-.5 0-.2.1-.3.3-.3.4v1.5c0 2.5 4.4 4.5 10 4.5s10-2 10-4.5V7.9c0-.1-.1-.3-.3-.4z" transform="translate(10 9)"/><path d="M10.031 9c5.6 0 10-2 10-4.5s-4.4-4.5-10-4.5-10 2-10 4.5 4.4 4.5 10 4.5zM19.731 12.5c-.2-.1-.4-.1-.5 0-2 1.5-5.4 2.4-9.2 2.4-3.8 0-7.2-.9-9.2-2.4-.2-.1-.4-.1-.5 0-.2.1-.3.3-.3.4v1.5c0 2.5 4.4 4.5 10 4.5s10-2 10-4.5v-1.5c0-.1-.1-.3-.3-.4z" transform="translate(10 9)"/></g></g></svg>