<svg xmlns="http://www.w3.org/2000/svg" width="41" height="41" viewBox="0 0 41 41"><defs><linearGradient id="prefix__a" x1="50%" x2="50%" y1="0%" y2="100%"><stop offset="0%" stop-color="#FFF"/><stop offset="100%" stop-color="#FFF" stop-opacity=".8"/></linearGradient></defs><g fill="none" fill-rule="evenodd"><rect width="41" height="41" fill="url(#prefix__a)" rx="4"/><g fill="#00A971" fill-rule="nonzero"><path d="M7.82 18.802h8.343c.288 0 .521-.233.521-.52v-6.258c0-.287-.233-.521-.521-.521h-.521v-.521c0-2.013-1.638-3.65-3.65-3.65-2.013 0-3.65 1.637-3.65 3.65v.521h-.521c-.288 0-.522.234-.522.521v6.257c0 .288.234.521.522.521zm4.693-3.288v.682c0 .287-.233.52-.521.52-.288 0-.522-.233-.522-.52v-.682c-.305-.183-.52-.502-.52-.883 0-.574.467-1.042 1.042-1.042.574 0 1.043.468 1.043 1.042 0 .381-.216.701-.522.883zm-3.128-4.532c0-1.437 1.17-2.607 2.607-2.607 1.437 0 2.607 1.17 2.607 2.607v.521H9.385v-.521z" transform="translate(9 9)"/><path d="M21.377.033H2.607C1.17.033 0 1.203 0 2.64v17.727c0 1.437 1.17 2.607 2.607 2.607h18.77c1.437 0 2.607-1.17 2.607-2.607V2.64c0-1.437-1.17-2.607-2.607-2.607zM6.778 2.118c.288 0 .521.234.521.522 0 .287-.233.52-.521.52-.288 0-.521-.233-.521-.52 0-.288.233-.522.521-.522zm-2.086 0c.288 0 .522.234.522.522 0 .287-.234.52-.522.52-.287 0-.52-.233-.52-.52 0-.288.233-.522.52-.522zm-2.085 0c.288 0 .521.234.521.522 0 .287-.233.52-.521.52-.288 0-.521-.233-.521-.52 0-.288.233-.522.52-.522zM22.94 20.367c0 .862-.702 1.564-1.564 1.564H2.607c-.862 0-1.564-.702-1.564-1.564V5.247H22.94v15.12z" transform="translate(9 9)"/></g></g></svg>