<svg xmlns="http://www.w3.org/2000/svg" width="41" height="41" viewBox="0 0 41 41"><defs><linearGradient id="prefix__a" x1="34.731%" x2="50%" y1="-136.133%" y2="100%"><stop offset="0%" stop-color="#B7DB86"/><stop offset="100%" stop-color="#00A96B"/></linearGradient></defs><g fill="none" fill-rule="evenodd"><rect width="41" height="41" fill="url(#prefix__a)" rx="4"/><g fill="#FFF" fill-rule="nonzero"><path d="M17.5 18.031h3c.276 0 .5-.224.5-.5s-.224-.5-.5-.5h-3c-.276 0-.5.224-.5.5s.224.5.5.5zM13.5 10.031h2c.276 0 .5-.224.5-.5v-2c0-.276-.224-.5-.5-.5h-2c-.276 0-.5.224-.5.5v2c0 .276.224.5.5.5zM17.5 15.031h3c.276 0 .5-.224.5-.5s-.224-.5-.5-.5h-3c-.276 0-.5.224-.5.5s.224.5.5.5zM17.5 20.031h3c.276 0 .5-.224.5-.5s-.224-.5-.5-.5h-3c-.276 0-.5.224-.5.5s.224.5.5.5zM13.5 15.031h2c.276 0 .5-.224.5-.5v-2c0-.276-.224-.5-.5-.5h-2c-.276 0-.5.224-.5.5v2c0 .276.224.5.5.5zM17.5 8.031h3c.276 0 .5-.224.5-.5s-.224-.5-.5-.5h-3c-.276 0-.5.224-.5.5s.224.5.5.5zM17.5 10.031h3c.276 0 .5-.224.5-.5s-.224-.5-.5-.5h-3c-.276 0-.5.224-.5.5s.224.5.5.5zM17.5 13.031h3c.276 0 .5-.224.5-.5s-.224-.5-.5-.5h-3c-.276 0-.5.224-.5.5s.224.5.5.5z" transform="translate(9 9)"/><path d="M21.5.031h-19C1.122.031 0 1.153 0 2.531v18c0 1.378 1.122 2.5 2.5 2.5h19c1.378 0 2.5-1.122 2.5-2.5v-18c0-1.378-1.122-2.5-2.5-2.5zm-15 2c.276 0 .5.224.5.5s-.224.5-.5.5-.5-.224-.5-.5.224-.5.5-.5zm-2 0c.276 0 .5.224.5.5s-.224.5-.5.5-.5-.224-.5-.5.224-.5.5-.5zm-2 0c.276 0 .5.224.5.5s-.224.5-.5.5-.5-.224-.5-.5.224-.5.5-.5zm20.5 18.5c0 .827-.673 1.5-1.5 1.5h-19c-.827 0-1.5-.673-1.5-1.5v-15.5h22v15.5z" transform="translate(9 9)"/><path d="M3.5 10.031h2c.276 0 .5-.224.5-.5v-2c0-.276-.224-.5-.5-.5h-2c-.276 0-.5.224-.5.5v2c0 .276.224.5.5.5zM13.5 20.031h2c.276 0 .5-.224.5-.5v-2c0-.276-.224-.5-.5-.5h-2c-.276 0-.5.224-.5.5v2c0 .276.224.5.5.5zM3.5 15.031h2c.276 0 .5-.224.5-.5v-2c0-.276-.224-.5-.5-.5h-2c-.276 0-.5.224-.5.5v2c0 .276.224.5.5.5zM7.5 18.031h3c.276 0 .5-.224.5-.5s-.224-.5-.5-.5h-3c-.276 0-.5.224-.5.5s.224.5.5.5zM3.5 20.031h2c.276 0 .5-.224.5-.5v-2c0-.276-.224-.5-.5-.5h-2c-.276 0-.5.224-.5.5v2c0 .276.224.5.5.5zM7.5 20.031h3c.276 0 .5-.224.5-.5s-.224-.5-.5-.5h-3c-.276 0-.5.224-.5.5s.224.5.5.5zM7.5 10.031h3c.276 0 .5-.224.5-.5s-.224-.5-.5-.5h-3c-.276 0-.5.224-.5.5s.224.5.5.5zM7.5 8.031h3c.276 0 .5-.224.5-.5s-.224-.5-.5-.5h-3c-.276 0-.5.224-.5.5s.224.5.5.5zM7.5 15.031h3c.276 0 .5-.224.5-.5s-.224-.5-.5-.5h-3c-.276 0-.5.224-.5.5s.224.5.5.5zM7.5 13.031h3c.276 0 .5-.224.5-.5s-.224-.5-.5-.5h-3c-.276 0-.5.224-.5.5s.224.5.5.5z" transform="translate(9 9)"/></g></g></svg>