<svg width="64" height="64" viewBox="0 0 64 64" fill="none" xmlns="http://www.w3.org/2000/svg">
<rect x="15.1152" y="6.1012" width="44.8849" height="38.1552" rx="4" fill="#324558"/>
<path fill-rule="evenodd" clip-rule="evenodd" d="M6.244 15.9503H37.5911C36.9192 17.3024 36.5413 18.8265 36.5413 20.4388C36.5413 26.0164 41.0629 30.5379 46.6405 30.5379C47.4118 30.5379 48.1629 30.4515 48.8847 30.2877V51.8583C48.8847 53.0977 47.8799 54.1025 46.6405 54.1025H12.9767L5.62371 57.779C4.87761 58.1521 3.99976 57.6095 3.99976 56.7754V18.1946C3.99976 16.9551 5.00454 15.9503 6.244 15.9503Z" fill="#55BC8A"/>
<path d="M46.6402 27.1715C50.3586 27.1715 53.373 24.1572 53.373 20.4388C53.373 16.7204 50.3586 13.7061 46.6402 13.7061C42.9218 13.7061 39.9075 16.7204 39.9075 20.4388C39.9075 24.1572 42.9218 27.1715 46.6402 27.1715Z" fill="white"/>
<path d="M15.1152 28.3004H36.6V32.7889H15.1152V28.3004Z" fill="white"/>
<path d="M15.1152 37.2777H29.4736V41.7662H15.1152V37.2777Z" fill="#A8DDC3"/>
</svg>
