<svg xmlns="http://www.w3.org/2000/svg" width="64" height="64" viewBox="0 0 64 64"><g fill="none" fill-rule="evenodd"><path d="M0 0H64V64H0z"/><g transform="translate(11 5)"><path fill="#55BC8A" fill-rule="nonzero" d="M41.642 21.964c.194-1.23.316-2.578.346-4.09-.012-6.484-3.115-8.779-3.713-9.854.88-4.913-.145-7.148-.622-7.913-1.759-.624-6.119 1.612-8.501 3.185-3.884-1.137-12.093-1.026-15.17.294C8.301-.48 5.297.14 5.297.14s-1.942 3.482-.514 8.577c-1.868 2.381-3.261 4.065-3.261 8.53 0 1.07.066 2.08.179 3.053 1.61 8.462 8.314 12.112 14.9 12.742-.99.753-2.18 2.178-2.345 3.83-1.246.804-3.75 1.07-5.698.458-2.73-.862-3.775-6.267-7.862-5.496-.884.165-.708.749.057 1.246 1.246.808 2.418 1.812 3.322 3.96.695 1.65 2.155 4.595 6.772 4.595 1.832 0 3.116-.217 3.116-.217S14 45.621 14 47.26c0 1.887-2.546 2.417-2.546 3.322 0 .36.843.394 1.52.394 1.338 0 4.123-1.115 4.123-3.076 0-1.558.025-6.794.025-7.71 0-2.004 1.074-2.642 1.074-2.642s.13 10.695-.259 12.129c-.457 1.686-1.285 1.446-1.285 2.197 0 1.12 3.348.274 4.458-2.178.859-1.914.474-12.403.474-12.403l.896-.019s.01 4.803-.02 6.998c-.033 2.273-.268 5.146 1.082 6.503.887.892 3.601 2.457 3.601 1.026 0-.829-1.9-1.514-1.9-3.76V37.698c1.154 0 1.393 3.4 1.393 3.4l.416 6.318s-.276 2.305 2.49 3.267c.977.342 3.067.435 3.165-.139.098-.576-2.516-1.427-2.541-3.211-.014-1.087.049-1.723.049-6.45 0-4.724-.635-6.472-2.847-7.864 6.414-.659 13.075-3.523 14.275-11.054z"/><path fill="#FFF" d="M33.791 24.273c-1.064.928-2.365 1.367-3.697 1.689-2.613.63-5.274.786-7.944.669-2.638.115-5.247-.051-7.814-.66-1.894-.45-3.623-1.205-4.828-2.845-1.917-2.61-2.407-7.575.761-10.286.808-.69 1.71-1.129 2.774-1.197 1.175-.076 2.351-.224 3.525-.21 2.963.036 5.924.185 8.886.207 1.353.01 2.715-.308 4.058-.226 1.22.074 2.503.3 3.61.796 1.847.826 2.84 2.5 3.14 4.461.448 2.916-.142 5.57-2.471 7.602z"/><ellipse cx="29.07" cy="18.81" fill="#242E42" fill-rule="nonzero" rx="2.85" ry="3.99"/><ellipse cx="16.53" cy="18.81" fill="#242E42" fill-rule="nonzero" rx="2.85" ry="3.99"/></g></g></svg>