<svg width="64" height="64" viewBox="0 0 64 64" fill="none" xmlns="http://www.w3.org/2000/svg">
<path d="M29.3741 3.42859L5.81729 14.7463L0 40.1776L16.301 60.5714H42.4433L58.7444 40.1776L52.9271 14.7463L29.3741 3.42859Z" fill="url(#paint0_linear_1081_12989)"/>
<path d="M52.9309 24.4988C58.7623 24.4988 63.4896 19.7821 63.4896 13.9637C63.4896 8.14532 58.7623 3.42859 52.9309 3.42859C47.0996 3.42859 42.3723 8.14532 42.3723 13.9637C42.3723 19.7821 47.0996 24.4988 52.9309 24.4988Z" fill="#006652"/>
<path d="M31.6164 22.0095H27.1273L15.7371 44.3971H21.7278L29.3738 29.3711L37.0159 44.3971H43.0066L31.6164 22.0095Z" fill="white"/>
<path d="M50.511 12.1705H52.0875V12.6227H50.5268V16.6614C50.5268 17.4243 50.7514 17.5422 51.8353 17.5698V17.9158C51.0746 17.8765 50.3928 17.849 49.7898 17.849C49.5099 17.849 48.9463 17.849 48.0911 17.9158V17.5855C48.9345 17.5855 49.1079 17.3849 49.1079 16.6771V12.6109H48.1187V12.1705H49.1079V11.4744C49.1079 10.6643 49.1079 9.9958 49.502 9.39806C49.9316 8.74134 50.6253 8.41101 51.6303 8.41101C52.8127 8.41101 53.4867 8.86325 53.4867 9.39806C53.4864 9.46779 53.4716 9.5367 53.4434 9.6005C53.4152 9.66429 53.3741 9.72159 53.3227 9.76883C53.2713 9.81606 53.2106 9.85222 53.1446 9.87503C53.0786 9.89784 53.0085 9.90683 52.9389 9.90142C52.6038 9.90142 52.4422 9.71659 52.3082 9.34301C52.1742 8.96942 52.0284 8.7846 51.5752 8.7846C50.8421 8.7846 50.5189 9.26436 50.5189 10.2632L50.511 12.1705Z" fill="white"/>
<path d="M57.0574 11.8755C58.4368 11.8755 58.9965 12.5558 58.9965 13.9676V16.7203C58.9965 17.3613 59.0911 17.5068 59.8911 17.5501V17.9079C59.1857 17.8686 58.6496 17.8529 58.2752 17.8529C57.7826 17.8529 57.2465 17.8529 56.6987 17.9079V17.5501C57.4594 17.5501 57.5776 17.3613 57.5776 16.7203V13.8103C57.5776 12.9294 57.2176 12.489 56.4977 12.489C55.6267 12.489 54.9448 13.2362 54.9448 14.3294V16.6889C54.9448 17.3259 55.067 17.5265 55.8435 17.5422V17.9001C55.134 17.8608 54.5862 17.845 54.2118 17.845C53.7309 17.845 53.1949 17.845 52.6077 17.9001V17.5422C53.4235 17.499 53.5299 17.3417 53.5299 16.7125V13.5665C53.5299 12.8233 53.3841 12.607 52.6747 12.607H52.6077V12.2609C53.3273 12.2082 54.0325 12.0326 54.6926 11.7418C54.7438 12.2098 54.8108 12.6502 54.866 13.0631C55.098 12.6937 55.4215 12.3904 55.8054 12.1823C56.1893 11.9742 56.6205 11.8686 57.0574 11.8755Z" fill="white"/>
<defs>
<linearGradient id="paint0_linear_1081_12989" x1="7.1652" y1="10.8885" x2="55.9696" y2="58.7021" gradientUnits="userSpaceOnUse">
<stop stop-color="#00C6A0"/>
<stop offset="1" stop-color="#009E80"/>
</linearGradient>
</defs>
</svg>
