<svg width="64" height="58" viewBox="0 0 64 58" fill="none" xmlns="http://www.w3.org/2000/svg">
<path d="M29.3741 0.428589L5.81729 11.7463L0 37.1776L16.301 57.5714H42.4433L58.7444 37.1776L52.9271 11.7463L29.3741 0.428589Z" fill="url(#paint0_linear_1081_12990)"/>
<path d="M52.9309 21.4988C58.7623 21.4988 63.4896 16.7821 63.4896 10.9637C63.4896 5.14532 58.7623 0.428589 52.9309 0.428589C47.0996 0.428589 42.3723 5.14532 42.3723 10.9637C42.3723 16.7821 47.0996 21.4988 52.9309 21.4988Z" fill="#006652"/>
<path d="M31.6164 19.0095H27.1273L15.7371 41.3971H21.7278L29.3738 26.3711L37.0159 41.3971H43.0066L31.6164 19.0095Z" fill="white"/>
<path d="M50.511 9.17046H52.0875V9.62269H50.5268V13.6614C50.5268 14.4243 50.7514 14.5422 51.8353 14.5698V14.9158C51.0746 14.8765 50.3928 14.849 49.7898 14.849C49.5099 14.849 48.9463 14.849 48.0911 14.9158V14.5855C48.9345 14.5855 49.1079 14.3849 49.1079 13.6771V9.6109H48.1187V9.17046H49.1079V8.47441C49.1079 7.66432 49.1079 6.9958 49.502 6.39806C49.9316 5.74134 50.6253 5.41101 51.6303 5.41101C52.8127 5.41101 53.4867 5.86325 53.4867 6.39806C53.4864 6.46779 53.4716 6.5367 53.4434 6.6005C53.4152 6.66429 53.3741 6.72159 53.3227 6.76883C53.2713 6.81606 53.2106 6.85222 53.1446 6.87503C53.0786 6.89784 53.0085 6.90683 52.9389 6.90142C52.6038 6.90142 52.4422 6.71659 52.3082 6.34301C52.1742 5.96942 52.0284 5.7846 51.5752 5.7846C50.8421 5.7846 50.5189 6.26436 50.5189 7.26321L50.511 9.17046Z" fill="white"/>
<path d="M57.0574 8.87553C58.4368 8.87553 58.9965 9.55584 58.9965 10.9676V13.7203C58.9965 14.3613 59.0911 14.5068 59.8911 14.5501V14.9079C59.1857 14.8686 58.6496 14.8529 58.2752 14.8529C57.7826 14.8529 57.2465 14.8529 56.6987 14.9079V14.5501C57.4594 14.5501 57.5776 14.3613 57.5776 13.7203V10.8103C57.5776 9.92943 57.2176 9.48899 56.4977 9.48899C55.6267 9.48899 54.9448 10.2362 54.9448 11.3294V13.6889C54.9448 14.3259 55.067 14.5265 55.8435 14.5422V14.9001C55.134 14.8608 54.5862 14.845 54.2118 14.845C53.7309 14.845 53.1949 14.845 52.6077 14.9001V14.5422C53.4235 14.499 53.5299 14.3417 53.5299 13.7125V10.5665C53.5299 9.82325 53.3841 9.60697 52.6747 9.60697H52.6077V9.26091C53.3273 9.20817 54.0325 9.03259 54.6926 8.74182C54.7438 9.20979 54.8108 9.65022 54.866 10.0631C55.098 9.69375 55.4215 9.39035 55.8054 9.1823C56.1893 8.97424 56.6205 8.86858 57.0574 8.87553Z" fill="white"/>
<defs>
<linearGradient id="paint0_linear_1081_12990" x1="7.1652" y1="7.8885" x2="55.9696" y2="55.7021" gradientUnits="userSpaceOnUse">
<stop stop-color="#00C6A0"/>
<stop offset="1" stop-color="#009E80"/>
</linearGradient>
</defs>
</svg>
