<svg xmlns="http://www.w3.org/2000/svg" width="41" height="41" viewBox="0 0 41 41"><defs><linearGradient id="prefix__a" x1="50%" x2="50%" y1="0%" y2="100%"><stop offset="0%" stop-color="#FFF"/><stop offset="100%" stop-color="#FFF" stop-opacity=".8"/></linearGradient></defs><g fill="none" fill-rule="evenodd"><rect width="41" height="41" fill="url(#prefix__a)" rx="4"/><g fill="#21A174" fill-rule="nonzero"><path d="M13.735 23h-.984c-.276 0-.5.224-.5.5s.224.5.5.5h.984c.276 0 .5-.224.5-.5s-.223-.5-.5-.5zM23.5 20.093c-.276 0-.5.224-.5.5l-.002.965.5.019L24 21.5v-.907c0-.276-.224-.5-.5-.5zM21.813 10.033c.24.051.467.163.654.322.095.08.21.119.324.119.142 0 .282-.06.381-.176.179-.21.153-.526-.057-.705-.314-.267-.692-.454-1.094-.539-.263-.055-.536.115-.594.385-.056.271.117.537.386.594zM23.5 11.233c-.276 0-.5.224-.5.5v.984c0 .276.224.5.5.5s.5-.224.5-.5v-.984c0-.276-.224-.5-.5-.5zM10.973 22.905c-.23-.086-.438-.23-.601-.416-.182-.208-.498-.228-.705-.046-.208.182-.229.498-.047.706.271.31.617.549 1.001.693.059.021.117.032.176.032.202 0 .393-.124.468-.325.097-.259-.035-.548-.292-.644zM10 20.971v-.985c0-.276-.224-.5-.5-.5s-.5.224-.5.5v.985c0 .276.224.5.5.5s.5-.223.5-.5zM16.688 23h-.984c-.276 0-.5.224-.5.5s.224.5.5.5h.984c.276 0 .5-.224.5-.5s-.223-.5-.5-.5zM19.953 9h-.984c-.276 0-.5.224-.5.5s.224.5.5.5h.984c.276 0 .5-.224.5-.5s-.224-.5-.5-.5zM19.643 23h-.984c-.276 0-.5.224-.5.5s.224.5.5.5h.984c.276 0 .5-.224.5-.5s-.224-.5-.5-.5zM23.5 14.187c-.276 0-.5.224-.5.5v.984c0 .276.224.5.5.5s.5-.224.5-.5v-.984c0-.277-.224-.5-.5-.5zM22.28 22.782c-.21.128-.45.203-.696.216-.276.015-.487.25-.473.526.014.267.234.474.499.474h.026c.411-.022.814-.147 1.165-.362.236-.144.31-.452.166-.688-.144-.237-.454-.309-.687-.166zM17.5 9.5c0-.276-.224-.5-.5-.5h-.347c-.086-.099-.156-.209-.249-.303L15 7.293V2.5C15 1.122 13.879 0 12.5 0h-10C1.121 0 0 1.122 0 2.5v10C0 13.878 1.121 15 2.5 15h5c.276 0 .5-.224.5-.5s-.224-.5-.5-.5h-5c-.827 0-1.5-.673-1.5-1.5V5h13v1.751c-.484-.075-.996.039-1.354.396-.179.179-.31.394-.384.628-.549-.188-1.196-.049-1.616.372-.224.224-.371.503-.43.808-.479-.069-.974.095-1.32.442-.295.294-.457.687-.457 1.104 0 .037.001.073.004.109-.337.045-.647.199-.892.443-.608.608-.608 1.599 0 2.207l.449.447V15.5c0 .815.397 1.532 1.002 1.989l-.002.01V18c0 .276.224.5.5.5s.5-.224.5-.5v-.051c.162.033.329.051.5.051h2.05c3.005 0 5.45-2.445 5.45-5.45 0-.948-.263-1.847-.714-2.651.126-.09.214-.231.214-.399zM2.5 3c-.276 0-.5-.224-.5-.5s.224-.5.5-.5.5.224.5.5-.224.5-.5.5zm2 0c-.276 0-.5-.224-.5-.5s.224-.5.5-.5.5.224.5.5-.224.5-.5.5zm2 0c-.276 0-.5-.224-.5-.5s.224-.5.5-.5.5.224.5.5-.224.5-.5.5zM23.5 17.14c-.276 0-.5.224-.5.5v.984c0 .276.224.5.5.5s.5-.224.5-.5v-.984c0-.276-.224-.5-.5-.5z" transform="translate(9 9)"/></g></g></svg>