<svg xmlns="http://www.w3.org/2000/svg" width="41" height="41" viewBox="0 0 41 41"><defs><linearGradient id="prefix__a" x1="50%" x2="50%" y1="0%" y2="100%"><stop offset="0%" stop-color="#86DBA2"/><stop offset="100%" stop-color="#00A971"/></linearGradient></defs><g fill="none" fill-rule="evenodd"><rect width="41" height="41" fill="url(#prefix__a)" rx="4"/><g fill="#FFF" fill-rule="nonzero"><path d="M17.076 15.587c.197 0 .296-.099.296-.296l.888-1.874-2.565-1.283-.79 1.875c-.098.098-.098.295 0 .394l.297.296c.493.197.887.395 1.282.79.099.098.197.098.296.098.197.099.197.099.296 0z" transform="translate(9 9)"/><path d="M19.345 14.403c-.197-.099-.493.099-.592.296l-1.085 2.368c0 .098-.099.197 0 .296.296 1.48-.493 3.058-1.283 3.946-.789.789-2.17 1.282-3.65 1.282-1.38 0-2.565-.493-3.354-1.282-.099-.099-.395-.395-.493-.79-.099.1-.198.296-.395.296H3.561c-.296 0-.494-.197-.494-.493v-6.905c0-.296.198-.494.494-.494h4.932c.296 0 .494.198.494.494v6.313c.197-.394.493-.69.887-.789.099 0 .099 0 .198-.099.098-.098.296-.197.493-.394.099-.099.099-.198.099-.296 0-.099 0-.099.098-.197.099-.198.099-.395.198-.691v-.099-3.65c0-.296.197-.493.493-.493h3.058l.395-.987H3.462c-.296 0-.493-.197-.493-.493V7.596c0-.296.197-.493.493-.493h13.22c.098 0 .197 0 .197.099l.986-2.27c.099-.098 0-.295 0-.493-.098-.098-.197-.197-.394-.197H2.476C1.094 4.242.009 5.327.009 6.708v14.798c0 1.381 1.085 2.466 2.467 2.466h14.797c1.381 0 2.466-1.085 2.466-2.466v-6.314c0-.493-.197-.69-.394-.789z" transform="translate(9 9)"/><path d="M12.44 16.376c-.593.592-.79 1.184-.889 1.677-.098.395-.197.69-.493.987-.592.592-.888.69-.888.69-.197.099-.296.198-.296.395s0 .296.099.493c.69.69 1.578.987 2.664.987 1.183 0 2.367-.395 2.96-.987.986-.986 1.578-3.058.492-4.143-.986-1.085-2.565-1.085-3.65-.099zM22.008 0c-.69 0-1.282.395-1.578.986l-4.34 10.26 2.564 1.283 4.834-10.161c.099-.198.198-.494.198-.79 0-.887-.79-1.578-1.678-1.578z" transform="translate(9 9)"/></g></g></svg>