<svg width="65" height="64" viewBox="0 0 65 64" fill="none" xmlns="http://www.w3.org/2000/svg">
<rect x="0.666748" width="64" height="64" rx="12" fill="url(#paint0_linear_855_9996)"/>
<rect x="0.666748" width="64" height="64" rx="12" fill="url(#paint1_linear_855_9996)"/>
<path fill-rule="evenodd" clip-rule="evenodd" d="M11.1467 16.1301C11.1467 14.9807 12.0786 14.0488 13.228 14.0488H50.6914C51.8409 14.0488 52.7727 14.9807 52.7727 16.1301V41.1057C52.7727 42.2552 51.8409 43.187 50.6914 43.187H13.228C12.0786 43.187 11.1467 42.2552 11.1467 41.1057V16.1301ZM33.3221 32.7972L27.8747 18.089L23.1098 29.6517H16.35V32.7736H25.1999L27.7196 26.6592L32.6786 40.0486L38.1374 30.7686L39.2076 32.7736H47.5695V29.6517H41.0801L38.2698 24.3861L33.3221 32.7972Z" fill="white"/>
<path d="M19.4719 47.3496H44.4475V51.5122H19.4719V47.3496Z" fill="white"/>
<defs>
<linearGradient id="paint0_linear_855_9996" x1="0.666748" y1="0" x2="0.666748" y2="64" gradientUnits="userSpaceOnUse">
<stop stop-color="#86DBA2"/>
<stop offset="1" stop-color="#00A971"/>
</linearGradient>
<linearGradient id="paint1_linear_855_9996" x1="-42.8022" y1="33.8664" x2="7.41632" y2="143.361" gradientUnits="userSpaceOnUse">
<stop stop-color="#FA6400"/>
<stop offset="1" stop-color="#FFF8CB"/>
</linearGradient>
</defs>
</svg>
