<svg xmlns="http://www.w3.org/2000/svg" xmlns:xlink="http://www.w3.org/1999/xlink" width="111" height="98" viewBox="0 0 111 98"><defs><linearGradient id="prefix__d" x1="50%" x2="50%" y1="0%" y2="98.37%"><stop offset="0%" stop-color="#65CD9E" stop-opacity="0"/><stop offset="100%" stop-color="#39D790" stop-opacity=".741"/></linearGradient><linearGradient id="prefix__c" x1="50%" x2="50%" y1="0%" y2="100%"><stop offset="0%" stop-color="#FFF"/><stop offset="100%" stop-color="#979797" stop-opacity="0"/></linearGradient><filter id="prefix__a" width="130.9%" height="127.9%" x="-15.4%" y="-11.7%" filterUnits="objectBoundingBox"><feMorphology in="SourceAlpha" operator="dilate" radius=".5" result="shadowSpreadOuter1"/><feOffset dy="2" in="shadowSpreadOuter1" result="shadowOffsetOuter1"/><feGaussianBlur in="shadowOffsetOuter1" result="shadowBlurOuter1" stdDeviation="4"/><feComposite in="shadowBlurOuter1" in2="SourceAlpha" operator="out" result="shadowBlurOuter1"/><feColorMatrix in="shadowBlurOuter1" values="0 0 0 0 0 0 0 0 0 0.662745098 0 0 0 0 0.443137255 0 0 0 1 0"/></filter><path id="prefix__b" d="M1881.439 3016.413l32.743 16.371c3.726 1.863 6.08 5.672 6.08 9.839v30.145c0 4.167-2.354 7.976-6.08 9.839l-32.744 16.371c-3.096 1.549-6.741 1.549-9.838 0l-32.743-16.37c-3.727-1.864-6.08-5.673-6.08-9.84v-30.145c0-4.166 2.353-7.975 6.08-9.839l32.743-16.371c3.097-1.548 6.742-1.548 9.839 0z"/></defs><g fill="none" fill-rule="evenodd" opacity=".827" transform="rotate(21 9089.47 -3357.725)"><use fill="#000" filter="url(#prefix__a)" xlink:href="#prefix__b"/><use fill="url(#prefix__d)" stroke="url(#prefix__c)" xlink:href="#prefix__b"/></g></svg>