<svg xmlns="http://www.w3.org/2000/svg" xmlns:xlink="http://www.w3.org/1999/xlink" width="1135" height="438" viewBox="0 0 1135 438"><defs><filter id="prefix__a" width="109.8%" height="119.2%" x="-4.5%" y="-5.3%" filterUnits="objectBoundingBox"><feOffset dx="4" dy="15" in="SourceAlpha" result="shadowOffsetOuter1"/><feGaussianBlur in="shadowOffsetOuter1" result="shadowBlurOuter1" stdDeviation="9.5"/><feColorMatrix in="shadowBlurOuter1" values="0 0 0 0 0 0 0 0 0 0.662745098 0 0 0 0 0.443137255 0 0 0 1 0"/></filter><filter id="prefix__d" width="144.2%" height="144.2%" x="-22.1%" y="-18.9%" filterUnits="objectBoundingBox"><feMorphology in="SourceAlpha" operator="dilate" radius=".5" result="shadowSpreadOuter1"/><feOffset dy="2" in="shadowSpreadOuter1" result="shadowOffsetOuter1"/><feGaussianBlur in="shadowOffsetOuter1" result="shadowBlurOuter1" stdDeviation="4"/><feComposite in="shadowBlurOuter1" in2="SourceAlpha" operator="out" result="shadowBlurOuter1"/><feColorMatrix in="shadowBlurOuter1" values="0 0 0 0 0 0 0 0 0 0.662745098 0 0 0 0 0.443137255 0 0 0 1 0"/></filter><filter id="prefix__h" width="109.8%" height="114.4%" x="-4.5%" y="-5.3%" filterUnits="objectBoundingBox"><feOffset dx="4" dy="15" in="SourceAlpha" result="shadowOffsetOuter1"/><feMorphology in="SourceAlpha" radius="1" result="shadowInner"/><feOffset dx="4" dy="15" in="shadowInner" result="shadowInner"/><feComposite in="shadowOffsetOuter1" in2="shadowInner" operator="out" result="shadowOffsetOuter1"/><feGaussianBlur in="shadowOffsetOuter1" result="shadowBlurOuter1" stdDeviation="9.5"/><feColorMatrix in="shadowBlurOuter1" values="0 0 0 0 0 0 0 0 0 0.662745098 0 0 0 0 0.443137255 0 0 0 1 0"/></filter><path id="prefix__b" d="M394 367l643.542-116.577c6.883-1.247 12.614-5.999 15.114-12.532l44.014-115.018c2.662-6.955 1.238-14.813-3.693-20.393L1009.88 8.464c-4.643-5.253-11.697-7.691-18.593-6.427L394 111.557V367z"/><path id="prefix__e" d="M492 335L523 366 492 397 461 366z"/><path id="prefix__i" d="M104.864 353.004l538.678-97.581c6.883-1.247 12.614-5.999 15.114-12.532l44.014-115.018c2.662-6.955 1.238-14.813-3.693-20.393L615.88 13.464c-4.643-5.253-11.697-7.691-18.593-6.427L0 116.557V265.43c0 49.154 39.847 89 89 89 5.32 0 10.63-.477 15.864-1.425z"/><linearGradient id="prefix__g" x1="50%" x2="50%" y1="0%" y2="98.37%"><stop offset="0%" stop-color="#65CD9E" stop-opacity="0"/><stop offset="100%" stop-color="#39D790" stop-opacity=".741"/></linearGradient><linearGradient id="prefix__f" x1="50%" x2="50%" y1="0%" y2="100%"><stop offset="0%" stop-color="#FFF"/><stop offset="100%" stop-color="#979797" stop-opacity="0"/></linearGradient><radialGradient id="prefix__c" cx="77.943%" cy="-35.833%" r="227.988%" fx="77.943%" fy="-35.833%" gradientTransform="scale(-.5191 -1) rotate(-41.55 .584 3.006)"><stop offset="0%" stop-color="#CDF6D5"/><stop offset="100%" stop-color="#00A971"/></radialGradient></defs><g fill="none" fill-rule="evenodd"><g opacity=".174" transform="translate(19 33) rotate(180 747.5 183.5)"><use fill="#000" filter="url(#prefix__a)" xlink:href="#prefix__b"/><use fill="url(#prefix__c)" xlink:href="#prefix__b"/></g><g opacity=".602" transform="translate(19 33) rotate(21 492 366)"><use fill="#000" filter="url(#prefix__d)" xlink:href="#prefix__e"/><use fill="url(#prefix__g)" stroke="url(#prefix__f)" xlink:href="#prefix__e"/></g><g opacity=".384" transform="translate(19 33) rotate(180 353.5 188.5)"><use fill="#000" filter="url(#prefix__h)" xlink:href="#prefix__i"/><path stroke="#FFF" stroke-linejoin="square" stroke-opacity=".478" d="M.5 116.974V265.43c0 24.439 9.906 46.564 25.921 62.58 16.015 16.015 38.14 25.92 62.579 25.92 5.29 0 10.57-.474 15.775-1.417l538.678-97.581c6.71-1.216 12.299-5.849 14.736-12.219l44.014-115.018c1.298-3.39 1.6-7.001.976-10.444-.624-3.443-2.173-6.719-4.577-9.439l-83.096-94.015c-4.526-5.122-11.404-7.5-18.127-6.267L.5 116.974z"/></g></g></svg>