<svg xmlns="http://www.w3.org/2000/svg" xmlns:xlink="http://www.w3.org/1999/xlink" width="262" height="253" version="1.1" viewBox="0 0 262 253"><title>90AB11CD-4D58-4361-98F1-AB31C4914358</title><desc>Created with sketchtool.</desc><defs><linearGradient id="linearGradient-1" x1="71.36%" x2="-3.167%" y1="24.367%" y2="135.897%"><stop offset="0%" stop-color="#ECAF24"/><stop offset="100%" stop-color="#FFF8CB"/></linearGradient><path id="path-2" d="M1262,5434.17543 L1342.36568,5480.57457 C1345.76909,5482.53953 1347.86568,5486.17093 1347.86568,5490.10085 L1347.86568,5582.89915 C1347.86568,5586.82907 1345.76909,5590.46047 1342.36568,5592.42543 L1262,5638.82457 C1258.59659,5640.78953 1254.40341,5640.78953 1251,5638.82457 L1170.63432,5592.42543 C1167.23091,5590.46047 1165.13432,5586.82907 1165.13432,5582.89915 L1165.13432,5490.10085 C1165.13432,5486.17093 1167.23091,5482.53953 1170.63432,5480.57457 L1251,5434.17543 C1254.40341,5432.21047 1258.59659,5432.21047 1262,5434.17543 Z"/><filter id="filter-3" width="136.8%" height="148.6%" x="-18.4%" y="-16.7%" filterUnits="objectBoundingBox"><feOffset dx="0" dy="16" in="SourceAlpha" result="shadowOffsetOuter1"/><feGaussianBlur in="shadowOffsetOuter1" result="shadowBlurOuter1" stdDeviation="15"/><feColorMatrix in="shadowBlurOuter1" type="matrix" values="0 0 0 0 0.384313725 0 0 0 0 0.807843137 0 0 0 0 0.552941176 0 0 0 0.1 0"/></filter></defs><g id="页面1" fill="none" fill-rule="evenodd" stroke="none" stroke-width="1" opacity=".12"><g id="homepage" transform="translate(-1119.000000, -5425.000000)"><g id="多边形备份-3" transform="translate(1256.500000, 5536.500000) rotate(21.000000) translate(-1256.500000, -5536.500000)"><use fill="#000" fill-opacity="1" filter="url(#filter-3)" xlink:href="#path-2"/><use fill="url(#linearGradient-1)" fill-rule="evenodd" xlink:href="#path-2"/></g></g></g></svg>