<svg xmlns="http://www.w3.org/2000/svg" width="41" height="41" viewBox="0 0 41 41"><defs><linearGradient id="prefix__a" x1="17.622%" x2="96.089%" y1="13.683%" y2="184.768%"><stop offset="0%" stop-color="#FA6400"/><stop offset="100%" stop-color="#FFF8CB"/></linearGradient></defs><g fill="none" fill-rule="evenodd"><rect width="41" height="41" fill="url(#prefix__a)" rx="4"/><g fill="#FFF" fill-rule="nonzero"><path d="M21.5 0h-6C14.121 0 13 1.122 13 2.5v6c0 1.378 1.121 2.5 2.5 2.5h6c1.379 0 2.5-1.122 2.5-2.5v-6C24 1.122 22.879 0 21.5 0zm-6 2c.276 0 .5.224.5.5s-.224.5-.5.5-.5-.224-.5-.5.224-.5.5-.5zM23 8.5c0 .827-.673 1.5-1.5 1.5h-6c-.827 0-1.5-.673-1.5-1.5V5h9v3.5zM8.5 13h-6C1.121 13 0 14.122 0 15.5v6C0 22.878 1.121 24 2.5 24h6c1.379 0 2.5-1.122 2.5-2.5v-6c0-1.378-1.121-2.5-2.5-2.5zm-6 2c.276 0 .5.224.5.5s-.224.5-.5.5-.5-.224-.5-.5.224-.5.5-.5zm7.5 6.5c0 .827-.673 1.5-1.5 1.5h-6c-.827 0-1.5-.673-1.5-1.5V18h9v3.5zM21.5 13h-6c-1.379 0-2.5 1.122-2.5 2.5v6c0 1.378 1.121 2.5 2.5 2.5h6c1.379 0 2.5-1.122 2.5-2.5v-6c0-1.378-1.121-2.5-2.5-2.5zm-6 2c.276 0 .5.224.5.5s-.224.5-.5.5-.5-.224-.5-.5.224-.5.5-.5zm7.5 6.5c0 .827-.673 1.5-1.5 1.5h-6c-.827 0-1.5-.673-1.5-1.5V18h9v3.5zM8.5 0h-6C1.121 0 0 1.122 0 2.5v6C0 9.878 1.121 11 2.5 11h6C9.879 11 11 9.878 11 8.5v-6C11 1.122 9.879 0 8.5 0zm-6 2c.276 0 .5.224.5.5s-.224.5-.5.5-.5-.224-.5-.5.224-.5.5-.5zM10 8.5c0 .827-.673 1.5-1.5 1.5h-6C1.673 10 1 9.327 1 8.5V5h9v3.5z" transform="translate(9 9)"/></g></g></svg>