<svg xmlns="http://www.w3.org/2000/svg" width="85" height="85" fill="none" viewBox="0 0 85 85"><g filter="url(#filter0_d)"><circle cx="42.189" cy="40.189" r="30.189" fill="#fff"/></g><path fill="#2FB67C" d="M43.6401 35.1181V24.9392C43.6401 22.9406 45.2603 21.3204 47.2589 21.3204C48.222 21.3153 49.1474 21.6943 49.8303 22.3735C50.5131 23.0527 50.897 23.9761 50.897 24.9392V35.1181C50.897 37.1167 49.2768 38.7369 47.2782 38.7369C46.3151 38.742 45.3897 38.363 44.7069 37.6838C44.024 37.0046 43.6401 36.0812 43.6401 35.1181Z"/><path fill="#ECB12F" d="M57.4378 41.6396H47.2589C45.2603 41.6396 43.6401 43.2598 43.6401 45.2584C43.6401 47.257 45.2603 48.8772 47.2589 48.8772H57.4378C59.4364 48.8772 61.0566 47.257 61.0566 45.2584C61.0566 43.2598 59.4364 41.6396 57.4378 41.6396Z"/><path fill="#DE1F59" d="M37.1186 41.6397C36.1555 41.6346 35.23 42.0136 34.5472 42.6928C33.8644 43.372 33.4805 44.2954 33.4805 45.2585V55.4375C33.4805 57.436 35.1006 59.0562 37.0992 59.0562C39.0978 59.0562 40.718 57.436 40.718 55.4375V45.2585C40.718 43.2675 39.1096 41.6504 37.1186 41.6397Z"/><path fill="#36C5EE" d="M37.1185 31.4805H26.9396C24.941 31.4805 23.3208 33.1006 23.3208 35.0992C23.3208 37.0978 24.941 38.718 26.9396 38.718H37.1185C39.1171 38.718 40.7373 37.0978 40.7373 35.0992C40.7373 33.1006 39.1171 31.4805 37.1185 31.4805Z"/><path fill="#36C5EE" d="M37.1187 21.3204C36.1556 21.3153 35.2301 21.6943 34.5473 22.3735C33.8645 23.0527 33.4805 23.9761 33.4805 24.9392C33.4754 25.9023 33.8544 26.8277 34.5336 27.5105C35.2128 28.1934 36.1362 28.5773 37.0993 28.5773H39.7698C40.3042 28.5773 40.7374 28.1441 40.7374 27.6097V24.9392C40.7374 22.9406 39.1173 21.3204 37.1187 21.3204Z"/><path fill="#2FB67C" d="M57.4379 31.4795C56.4748 31.4744 55.5494 31.8534 54.8665 32.5326C54.1837 33.2118 53.7998 34.1352 53.7998 35.0983V37.7689C53.7998 38.3032 54.233 38.7364 54.7674 38.7364H57.4379C59.4365 38.7364 61.0567 37.1163 61.0567 35.1177C61.0618 34.1546 60.6828 33.2292 60.0036 32.5463C59.3244 31.8635 58.401 31.4795 57.4379 31.4795Z"/><path fill="#ECB12F" d="M47.2782 51.7998H44.6077C44.3511 51.7998 44.105 51.9017 43.9235 52.0832C43.7421 52.2647 43.6401 52.5108 43.6401 52.7674V55.4379C43.6401 57.4365 45.2603 59.0567 47.2589 59.0567C49.2575 59.0567 50.8777 57.4365 50.8777 55.4379C50.8828 54.4782 50.5064 53.5557 49.8314 52.8734C49.1564 52.1911 48.238 51.8049 47.2782 51.7998Z"/><path fill="#DE1F59" d="M29.6102 41.6396H26.9397C24.9411 41.6396 23.3209 43.2598 23.3209 45.2584C23.3158 46.2215 23.6947 47.1469 24.3739 47.8298C25.0532 48.5126 25.9765 48.8966 26.9397 48.8966C27.9028 48.9017 28.8282 48.5227 29.511 47.8435C30.1939 47.1643 30.5778 46.2409 30.5778 45.2778V42.6072C30.5778 42.0729 30.1446 41.6396 29.6102 41.6396Z"/><defs><filter id="filter0_d" width="84.377" height="84.377" x="0" y="0" color-interpolation-filters="sRGB" filterUnits="userSpaceOnUse"><feFlood flood-opacity="0" result="BackgroundImageFix"/><feColorMatrix in="SourceAlpha" type="matrix" values="0 0 0 0 0 0 0 0 0 0 0 0 0 0 0 0 0 0 127 0"/><feOffset dy="2"/><feGaussianBlur stdDeviation="6"/><feColorMatrix type="matrix" values="0 0 0 0 0.832587 0 0 0 0 0.899956 0 0 0 0 0.904167 0 0 0 0.7 0"/><feBlend in2="BackgroundImageFix" mode="normal" result="effect1_dropShadow"/><feBlend in="SourceGraphic" in2="effect1_dropShadow" mode="normal" result="shape"/></filter></defs></svg>