<svg xmlns="http://www.w3.org/2000/svg" width="41" height="41" viewBox="0 0 41 41"><defs><linearGradient id="prefix__a" x1="2.607%" x2="84.679%" y1="8.058%" y2="85.254%"><stop offset="0%" stop-color="#6236FF"/><stop offset="100%" stop-color="#AC6EF2"/></linearGradient></defs><g fill="none" fill-rule="evenodd" stroke-linecap="square"><rect width="41" height="41" fill="url(#prefix__a)" rx="4"/><g fill="#FFF" fill-rule="nonzero"><path d="M13.697 14.3l-1.5 3.998c-.1.3 0 .5.3.6.3.1.5 0 .6-.3l.3-.7h1.6l.3.7c.1.2.3.3.5.3h.2c.299-.1.399-.4.299-.6l-1.7-3.999c-.1-.4-.8-.4-.9 0zm0 2.699l.4-1.1.4 1.1h-.8zM18.595 14h-1c-.3 0-.5.2-.5.5v3.998c0 .3.2.5.5.5s.5-.2.5-.5v-1.5h.5c.8 0 1.5-.7 1.5-1.499 0-.8-.7-1.5-1.5-1.5zm0 1.999h-.5v-1h.5c.3 0 .5.2.5.5s-.2.5-.5.5z" transform="translate(8 9)"/><path d="M16.896 19.798c-.2-.1-.3-.1-.5 0-.1 0-.1.1-.2.1-.6.2-1.2 0-1.7-.4-.1-.1-.2-.2-.4-.2-.1 0-.3.1-.4.2-.4.5-1.1.6-1.699.4-.4-.1-.7-.4-.8-.8-.2-.4-.2-.8 0-1.1l1.5-3.999c.2-.6.8-1 1.4-1 .5 0 1 .3 1.3.8.1.2.299.3.399.3.2 0 .4-.1.4-.3.3-.5.8-.8 1.3-.8.3 0 .5-.2.5-.5V.504c0-.3-.2-.5-.5-.5H6.498h-.1-.1c-.1 0-.2.1-.2.1L.1 6.1c-.1.1-.1.1-.1.2V23.497c0 .3.2.5.5.5h16.996c.3 0 .5-.2.5-.5v-3c.1-.299-.1-.499-.4-.499-.3 0-.5-.1-.7-.2zM6.099 6.002h-4.3l4.3-4.3v4.3zM22.594 14h-1c-.3 0-.5.2-.5.5v3.998c0 .3.2.5.5.5s.5-.2.5-.5v-1.5h.5c.8 0 1.5-.7 1.5-1.499 0-.8-.7-1.5-1.5-1.5zm0 1.999h-.5v-1h.5c.3 0 .5.2.5.5s-.2.5-.5.5z" transform="translate(8 9)"/></g></g></svg>