<svg xmlns="http://www.w3.org/2000/svg" xmlns:xlink="http://www.w3.org/1999/xlink" width="35" height="35" version="1.1" viewBox="0 0 35 35"><title>Facebook</title><desc>Created with Sketch.</desc><g id="Page-1" fill="none" fill-rule="evenodd" stroke="none" stroke-width="1"><g id="Facebook" fill="#3B5998"><path id="Fill-1" d="M19.3614815,8 C20.4962963,8 21.3748148,8.04530769 22,8.13738462 L22,11.1510769 L20.1837037,11.1510769 C19.5185185,11.1510769 19.0725926,11.2884615 18.84,11.5632308 C18.6088889,11.8365385 18.4933333,12.2472308 18.4933333,12.7953077 L18.4933333,14.954 L21.8844444,14.954 L21.4325926,18.3330769 L18.4933333,18.3330769 L18.4933333,27 L14.9511111,27 L14.9511111,18.3330769 L12,18.3330769 L12,14.954 L14.9511111,14.954 L14.9511111,12.465 C14.9511111,11.0487692 15.3525926,9.95115385 16.1555556,9.17069231 C16.957037,8.39023077 18.0266667,8 19.3614815,8"/><path id="Shape" d="M17.5,34 L17.5,34 C26.6126984,34 34,26.6126984 34,17.5 C34,8.38730163 26.6126984,1 17.5,1 C8.38730163,1 1,8.38730163 1,17.5 C1,26.6126984 8.38730163,34 17.5,34 L17.5,34 Z M17.5,35 L17.5,35 C7.83501688,35 0,27.1649831 0,17.5 C0,7.83501688 7.83501688,0 17.5,0 C27.1649831,0 35,7.83501688 35,17.5 C35,27.1649831 27.1649831,35 17.5,35 L17.5,35 Z"/></g></g></svg>