<svg xmlns="http://www.w3.org/2000/svg" xmlns:xlink="http://www.w3.org/1999/xlink" width="35" height="35" version="1.1" viewBox="0 0 35 35"><title>Share-HackerNews</title><desc>Created with Sketch.</desc><g id="Page-1" fill="none" fill-rule="evenodd" stroke="none" stroke-width="1"><g id="Share-HackerNews" fill="#F60"><path id="Shape" fill-rule="nonzero" d="M17.5,34 L17.5,34 C26.6126984,34 34,26.6126984 34,17.5 C34,8.38730163 26.6126984,1 17.5,1 C8.38730163,1 1,8.38730163 1,17.5 C1,26.6126984 8.38730163,34 17.5,34 L17.5,34 Z M17.5,35 L17.5,35 C7.83501688,35 0,27.1649831 0,17.5 C0,7.83501688 7.83501688,0 17.5,0 C27.1649831,0 35,7.83501688 35,17.5 C35,27.1649831 27.1649831,35 17.5,35 L17.5,35 Z"/><path id="Combined-Shape" d="M16.9268697,17.9635036 L12.1734032,8 L9,8 L15.6415094,20.7226277 L15.6415094,29 L18.3584906,29 L18.3584906,20.7226277 L25,8 L21.8265968,8 L17.0731303,17.9635036 L16.9268697,17.9635036 Z"/></g></g></svg>