<svg xmlns="http://www.w3.org/2000/svg" xmlns:xlink="http://www.w3.org/1999/xlink" width="35" height="35" version="1.1" viewBox="0 0 35 35"><title>Linkedin</title><desc>Created with Sketch.</desc><g id="Page-1" fill="none" fill-rule="evenodd" stroke="none" stroke-width="1"><g id="Linkedin" fill="#007BB6"><path id="Fill-1" d="M27,18.8087017 L27,25 L23.145,25 L23.145,19.223036 C23.145,18.4599355 22.986,17.8614526 22.6695,17.4303775 C22.353,16.9979074 21.858,16.7816723 21.1875,16.7816723 C20.6955,16.7816723 20.2815,16.9072282 19.9515,17.1569448 C19.6185,17.4080565 19.371,17.719156 19.2075,18.0888482 C19.1205,18.3078734 19.0785,18.6022321 19.0785,18.9719243 L19.0785,25 L15.222,25 C15.2385,22.09966 15.246,19.7503706 15.246,17.9479466 C15.246,16.1455227 15.2415,15.0699276 15.234,14.7211614 L15.222,14.198012 L19.0785,14.198012 L19.0785,15.7674601 L19.0545,15.7674601 C19.2105,15.5344843 19.371,15.3321998 19.5345,15.1578167 C19.6995,14.9834336 19.9185,14.7937048 20.1975,14.5914204 C20.4735,14.3877409 20.814,14.2300985 21.2175,14.1170983 C21.618,14.004098 22.0665,13.9482954 22.5585,13.9482954 C23.895,13.9482954 24.969,14.3612346 25.7805,15.184323 C26.5935,16.0088063 27,17.2169326 27,18.8087017 L27,18.8087017 Z M13.0905,25 L9.2235,25 L9.2235,14.1994071 L13.0905,14.1994071 L13.0905,25 Z M13.3365,10.8638068 C13.344,11.3939315 13.146,11.8375621 12.744,12.1933037 C12.342,12.5490453 11.8125,12.7276136 11.1555,12.7276136 L11.133,12.7276136 C10.4925,12.7276136 9.9765,12.5490453 9.5865,12.1933037 C9.195,11.8375621 9,11.3939315 9,10.8638068 C9,10.3253117 9.201,9.88168105 9.603,9.52872962 C10.005,9.17577818 10.5315,9 11.1795,9 C11.8275,9 12.3465,9.17577818 12.738,9.52872962 C13.128,9.88168105 13.3275,10.3253117 13.3365,10.8638068 L13.3365,10.8638068 Z"/><path id="Shape" d="M17.5,34 L17.5,34 C26.6126984,34 34,26.6126984 34,17.5 C34,8.38730163 26.6126984,1 17.5,1 C8.38730163,1 1,8.38730163 1,17.5 C1,26.6126984 8.38730163,34 17.5,34 L17.5,34 Z M17.5,35 L17.5,35 C7.83501688,35 0,27.1649831 0,17.5 C0,7.83501688 7.83501688,0 17.5,0 C27.1649831,0 35,7.83501688 35,17.5 C35,27.1649831 27.1649831,35 17.5,35 L17.5,35 Z"/></g></g></svg>