<svg xmlns="http://www.w3.org/2000/svg" xmlns:xlink="http://www.w3.org/1999/xlink" width="35" height="35" version="1.1" viewBox="0 0 35 35"><title>Share-Reddit</title><desc>Created with Sketch.</desc><g id="Page-1" fill="none" fill-rule="evenodd" stroke="none" stroke-width="1"><g id="Share-Reddit" fill-rule="nonzero"><path id="Shape" fill="#FF4500" d="M17.5,34 L17.5,34 C26.6126984,34 34,26.6126984 34,17.5 C34,8.38730163 26.6126984,1 17.5,1 C8.38730163,1 1,8.38730163 1,17.5 C1,26.6126984 8.38730163,34 17.5,34 L17.5,34 Z M17.5,35 L17.5,35 C7.83501688,35 0,27.1649831 0,17.5 C0,7.83501688 7.83501688,0 17.5,0 C27.1649831,0 35,7.83501688 35,17.5 C35,27.1649831 27.1649831,35 17.5,35 L17.5,35 Z"/><g id="reddit-2" transform="translate(6.000000, 7.000000)"><path id="Shape" fill="#000" d="M11.4520727,19 C5.78361902,19 1.17227971,15.9673191 1.17227971,12.2395782 C1.17227971,11.9820545 1.1941955,11.7270721 1.23716763,11.4767489 C0.468205521,11.0087426 5.00265813e-05,10.1815452 0,9.29076196 C0.00165715019,7.87378463 1.16651792,6.72543935 2.6041111,6.72357216 C3.245685,6.72357216 3.85717842,6.95483526 4.33030157,7.36822863 C6.11321526,6.24029159 8.51148985,5.53040706 11.1572839,5.48127424 L12.8942174,0.256253065 L13.2732316,0.344353293 L13.2822558,0.346471087 L17.3306601,1.28592447 C17.6682704,0.506844109 18.4444427,0.00103714518 19.3039404,0 C20.4877883,0.00140078337 21.4470657,0.94711098 21.4482497,2.1139819 C21.446829,3.28068741 20.4876207,4.22613991 19.3039404,4.22754024 C18.1211667,4.22637608 17.1622352,3.28233282 17.1596311,2.11652325 L13.4657467,1.25924027 L12.0592689,5.49059254 C14.6088054,5.58843462 16.9112522,6.30043693 18.6301374,7.40380757 C19.1103192,6.96554459 19.7410037,6.72266919 20.3954325,6.72399572 C21.8331935,6.72562958 22.9983157,7.87404306 22.9999733,9.29118552 C23.004238,10.21842 22.4974004,11.0748242 21.6764317,11.5275759 C21.7138174,11.7618039 21.7331549,11.9989968 21.7331549,12.2395782 C21.7322955,15.9673191 17.1205264,19 11.4520727,19 L11.4520727,19 Z M2.11766658,11.438205 C2.06053223,11.7016111 2.031725,11.9702194 2.03172232,12.2395782 C2.03172232,15.5005573 6.25760161,18.1528824 11.4520727,18.1528824 C16.6465438,18.1528824 20.8724231,15.5001338 20.8724231,12.2395782 C20.8724231,11.9803602 20.8457804,11.7249543 20.7937841,11.4742075 C20.7657501,11.4167182 20.7512097,11.3537446 20.7512417,11.2899594 C20.4637582,10.1772705 19.6795168,9.16708279 18.5467714,8.35300281 C18.4746897,8.32720742 18.4110023,8.28272419 18.362421,8.22424094 C16.6405277,7.05733648 14.1803733,6.32585046 11.4520727,6.32585046 C8.75127433,6.32585046 6.31217622,7.04293549 4.59286129,8.18993268 C4.54595813,8.24247441 4.48682966,8.2830237 4.42054304,8.30810558 C3.26330357,9.12260912 2.4588653,10.1395738 2.16020899,11.2620045 C2.15930408,11.3180505 2.14703098,11.3733516 2.1241124,11.4246511 C2.12196379,11.4293103 2.12024491,11.4339694 2.11766658,11.438205 Z M19.3482017,7.91461947 C20.3447254,8.70032101 21.076111,9.63596237 21.4499686,10.6626689 C21.886565,10.3382127 22.1422111,9.82969987 22.1396712,9.29076196 C22.1387237,8.34117942 21.3579714,7.57162367 20.394573,7.57068973 C20.0171248,7.57016754 19.6497864,7.69090728 19.3482017,7.91461947 L19.3482017,7.91461947 Z M2.6041111,7.57068973 C1.64088054,7.57185707 0.860389707,8.34134457 0.859442606,9.29076196 C0.859442606,9.80453877 1.09149211,10.2818895 1.4765224,10.6037942 C1.86284185,9.58513532 2.60153277,8.65711802 3.60192396,7.87904053 C3.3090554,7.67826437 2.96085273,7.57066046 2.6041111,7.57068973 L2.6041111,7.57068973 Z M19.3035106,0.846694012 C18.5953299,0.846694012 18.018644,1.4151099 18.018644,2.11355834 C18.018644,2.81200678 18.5953299,3.37999911 19.3035106,3.37999911 C20.0116914,3.37999911 20.5883773,2.81200678 20.5883773,2.11355834 C20.5883773,1.4151099 20.0121211,0.846694012 19.3035106,0.846694012 L19.3035106,0.846694012 Z M11.4989123,16.5891034 C9.77787853,16.5891034 8.56520501,16.2184895 7.79213639,15.4560836 C7.62434513,15.2905817 7.62444133,15.0223448 7.79235125,14.8569597 C7.96026118,14.6915747 8.23240076,14.6916695 8.40019203,14.8571715 C9.00395046,15.4522716 10.0172333,15.7419858 11.4989123,15.7419858 C12.9801617,15.7419858 13.994304,15.4522716 14.5989218,14.8571715 C14.7074637,14.7502618 14.8656261,14.7085492 15.0138306,14.7477464 C15.1620352,14.7869436 15.2777661,14.9010956 15.3174287,15.0472025 C15.3570913,15.1933093 15.3146599,15.349174 15.206118,15.4560836 C14.43219,16.2184895 13.2199462,16.5891034 11.4989123,16.5891034 L11.4989123,16.5891034 Z"/><path id="Shape" fill="#FF4500" d="M14.436692,9 C13.5728032,9 12.8475266,9.68895466 12.8475266,10.5115028 C12.8475266,11.3336472 13.5728032,12 14.436692,12 C15.3005807,12 16,11.3336472 16,10.5115028 C16,9.68895466 15.3001568,9 14.436692,9 L14.436692,9 Z M7.5874698,9 C6.72442881,9 6,9.68976187 6,10.5115028 C6,11.3332436 6.72400492,12 7.5874698,12 C8.45093468,12 9.15077784,11.3332436 9.15077784,10.5115028 C9.15077784,9.68976187 8.45051079,9 7.5874698,9 L7.5874698,9 Z"/></g></g></g></svg>