<svg xmlns="http://www.w3.org/2000/svg" xmlns:xlink="http://www.w3.org/1999/xlink" width="35" height="35" version="1.1" viewBox="0 0 35 35"><title>Twitter</title><desc>Created with Sketch.</desc><g id="Page-1" fill="none" fill-rule="evenodd" stroke="none" stroke-width="1"><g id="Twitter" fill="#55ACEE"><g id="Fill-1-+-Shape"><path id="Fill-1" d="M24.875731,13.2092 C25.5833333,13.1364 26.2923977,12.953 27,12.6618 C26.4897661,13.3772 25.872807,13.9862 25.1505848,14.4888 C25.1564327,14.591 25.1608187,14.745 25.1608187,14.948 C25.1608187,15.8958 25.0160819,16.8422 24.7266082,17.7872 C24.4371345,18.7308 23.997076,19.6366 23.4078947,20.5046 C22.8172515,21.3726 22.1140351,22.1398 21.3011696,22.8062 C20.4853801,23.474 19.502924,24.006 18.3538012,24.4036 C17.2032164,24.8012 15.9736842,25 14.6652047,25 C12.6008772,25 10.7119883,24.4708 9,23.4138 C9.26608187,23.4432 9.5628655,23.4572 9.89035088,23.4572 C11.6038012,23.4572 13.130117,22.9546 14.4707602,21.948 C13.6710526,21.9326 12.9546784,21.6974 12.3230994,21.2424 C11.6900585,20.7874 11.2573099,20.205 11.0204678,19.498 C11.2719298,19.5358 11.504386,19.5526 11.7178363,19.5526 C12.0453216,19.5526 12.3684211,19.5134 12.6885965,19.4322 C11.8362573,19.2642 11.130117,18.8582 10.5701754,18.2128 C10.0102339,17.5674 9.73099415,16.8184 9.73099415,15.9658 L9.73099415,15.9224 C10.248538,16.1996 10.8040936,16.348 11.3976608,16.3704 C10.8947368,16.0484 10.495614,15.6298 10.1988304,15.1118 C9.90204678,14.5938 9.75292398,14.0338 9.75292398,13.4276 C9.75292398,12.7864 9.92105263,12.1914 10.255848,11.6454 C11.1769006,12.7318 12.2982456,13.6012 13.619883,14.2536 C14.9400585,14.906 16.3552632,15.27 17.8625731,15.3414 C17.8011696,15.0642 17.7719298,14.7954 17.7719298,14.5322 C17.7719298,13.555 18.1315789,12.722 18.8508772,12.0332 C19.5701754,11.3444 20.4400585,11 21.4605263,11 C22.5263158,11 23.4254386,11.371 24.1564327,12.1158 C24.9853801,11.9618 25.7660819,11.6776 26.497076,11.2618 C26.2149123,12.1004 25.6754386,12.75 24.875731,13.2092"/><path id="Shape" d="M17.5,34 L17.5,34 C26.6126984,34 34,26.6126984 34,17.5 C34,8.38730163 26.6126984,1 17.5,1 C8.38730163,1 1,8.38730163 1,17.5 C1,26.6126984 8.38730163,34 17.5,34 L17.5,34 Z M17.5,35 L17.5,35 C7.83501688,35 0,27.1649831 0,17.5 C0,7.83501688 7.83501688,0 17.5,0 C27.1649831,0 35,7.83501688 35,17.5 C35,27.1649831 27.1649831,35 17.5,35 L17.5,35 Z"/></g></g></g></svg>