<svg xmlns="http://www.w3.org/2000/svg" xmlns:xlink="http://www.w3.org/1999/xlink" width="107" height="107" viewBox="0 0 107 107"><defs><path id="prefix__a" d="M57.61 38.98c0 7.048 5.513 12.768 12.328 12.79h14.556c3.4 0 6.162 2.84 6.183 6.356v2.145c0 9.396-7.353 17.019-16.438 17.04h-4.301c-2.261.022-4.089 1.912-4.11 4.25v8.501c.021 2.339 1.849 4.229 4.11 4.25h4.148c18.16-.043 32.872-15.259 32.914-34.041V13.438C106.979 6.39 101.448.688 94.633.688H69.938c-6.809 0-12.329 5.708-12.329 12.75V38.98zM0 38.98c0 7.048 5.513 12.768 12.328 12.79h14.556c3.4 0 6.163 2.84 6.184 6.356v2.145c0 9.396-7.353 17.019-16.438 17.04h-4.302c-2.26.022-4.088 1.912-4.109 4.25v8.501c.02 2.339 1.849 4.229 4.11 4.25h4.147c18.16-.043 32.872-15.259 32.915-34.041V13.438C49.369 6.39 43.839.688 37.024.688H12.328C5.52.688 0 6.396 0 13.438V38.98z"/></defs><g fill="none" fill-rule="evenodd" opacity=".099" transform="translate(0 6)"><mask id="prefix__b" fill="#fff"><use xlink:href="#prefix__a"/></mask><g fill="#FFF" mask="url(#prefix__b)"><path d="M0 0H107V107H0z" transform="translate(0 -6)"/></g></g></svg>