<svg xmlns="http://www.w3.org/2000/svg" xmlns:xlink="http://www.w3.org/1999/xlink" width="126" height="125" viewBox="0 0 126 125"><defs><linearGradient id="prefix__c" x1="50%" x2="50%" y1="0%" y2="100%"><stop offset="0%" stop-color="#75D49A"/><stop offset="100%" stop-color="#54CA82"/></linearGradient><filter id="prefix__a" width="229.8%" height="238.6%" x="-64.9%" y="-47.7%" filterUnits="objectBoundingBox"><feOffset dy="16" in="SourceAlpha" result="shadowOffsetOuter1"/><feGaussianBlur in="shadowOffsetOuter1" result="shadowBlurOuter1" stdDeviation="15"/><feColorMatrix in="shadowBlurOuter1" values="0 0 0 0 0.384313725 0 0 0 0 0.807843137 0 0 0 0 0.552941176 0 0 0 0.3 0"/></filter><path id="prefix__b" d="M130.302 1022.978l21.043 12.149c3.403 1.965 5.5 5.596 5.5 9.526v24.298c0 3.93-2.097 7.562-5.5 9.527l-21.043 12.149c-3.403 1.965-7.596 1.965-11 0l-21.043-12.15c-3.403-1.964-5.5-5.596-5.5-9.526v-24.298c0-3.93 2.097-7.561 5.5-9.526l21.043-12.15c3.404-1.964 7.597-1.964 11 0z"/></defs><g fill="none" fill-rule="evenodd" opacity=".602" transform="scale(1 -1) rotate(21 3156.06 338.728)"><use fill="#000" filter="url(#prefix__a)" xlink:href="#prefix__b"/><use fill="url(#prefix__c)" xlink:href="#prefix__b"/></g></svg>