<svg xmlns="http://www.w3.org/2000/svg" xmlns:xlink="http://www.w3.org/1999/xlink" id="图层_1" x="0" y="0" version="1.1" viewBox="0 0 141.73 141.73" xml:space="preserve" style="enable-background:new 0 0 141.73 141.73"><style type="text/css">.st0{fill:#fff}.st1{fill:#258e6c}.st2{fill:#da8f42}.st3{font-family:&apos;FranklinGothic-Medium&apos;}.st4{font-size:25.7109px}</style><g><circle cx="70.53" cy="59.58" r="52.87" class="st0"/><path d="M22.18,81.02c0,0,2.48-16.32,14.52-21.26c2.43-1,6.18-1.81,11.31-1.21c3.91,0.46,9.5,2.27,11.32,2.54 c2.89,0.43,5.13,0.83,7.6-4.99c3.66-8.63,16.95-38.8,48.17-24.75c0,0-11.75-20.57-37.47-24.04C54.9,4.24,38.82,16.3,32.04,23.33 C25.9,29.69,10.03,52.3,22.18,81.02z" class="st1"/><path d="M30.08,93.47c0,0,2.27-31.96,32.48-20.88c6.99,2.56,8.99,2.82,11.34-3.74c8.49-23.72,29.64-34.07,46.97-25.46 c0,0,8.85,22.45-6.55,45.84c-6.78,10.29-20.1,19.36-31.67,21.83C61.16,115.63,42.97,108.3,30.08,93.47z" class="st2"/><text transform="matrix(1 0 0 1 13.8779 135.0241)"><tspan x="0" y="0" class="st1 st3 st4">mile</tspan><tspan x="48.43" y="0" class="st2 st3 st4">works</tspan></text></g></svg>