<svg xmlns="http://www.w3.org/2000/svg" width="16" height="16" viewBox="0 0 16 16"><g fill="none" fill-rule="evenodd"><g fill-rule="nonzero"><g><g><path fill="#919AA3" d="M7.96 4.154c-1.383 0-2.508 1.126-2.508 2.51 0 1.382 1.125 2.508 2.509 2.508 1.383 0 2.508-1.126 2.508-2.509S9.344 4.154 7.961 4.154zm0 3.685c-.647 0-1.175-.528-1.175-1.176 0-.648.527-1.175 1.176-1.175.648 0 1.175.527 1.175 1.175S8.61 7.84 7.961 7.84zM8 1.333c-3.052 0-5.526 2.664-5.526 5.949C2.474 10.568 8 14.667 8 14.667s5.526-4.1 5.526-7.385S11.052 1.333 8 1.333zm1.827 9.923c-.661.69-1.33 1.285-1.827 1.702-.497-.417-1.166-1.012-1.827-1.702C4.115 9.11 3.807 7.845 3.807 7.282c0-2.545 1.881-4.615 4.193-4.615 2.312 0 4.193 2.07 4.193 4.615 0 .563-.308 1.828-2.366 3.974z" transform="translate(-1010 -341) translate(1010 341)"/></g></g></g></g></svg>