<svg xmlns="http://www.w3.org/2000/svg" width="16" height="16" viewBox="0 0 16 16"><g fill="none" fill-rule="evenodd"><g fill-rule="nonzero"><g><g><path fill="#919AA3" d="M8 1.333C4.318 1.333 1.333 4.318 1.333 8S4.318 14.667 8 14.667 14.667 11.682 14.667 8 11.682 1.333 8 1.333zm0 12c-2.94 0-5.333-2.392-5.333-5.333 0-2.94 2.392-5.333 5.333-5.333 2.94 0 5.333 2.392 5.333 5.333 0 2.94-2.392 5.333-5.333 5.333zM8 4H6.667v5.333h4.666V8H8V4z" transform="translate(-1010 -308) translate(1010 308)"/></g></g></g></g></svg>