<svg xmlns="http://www.w3.org/2000/svg" width="608" height="636" viewBox="0 0 608 636">
    <g fill="none" fill-rule="evenodd">
        <path fill="#E4EBF1" d="M307.083 475.619l20.78-297.156a13 13 0 0 1 6.013-10.076L595.985 2.41a3 3 0 0 1 4.605 2.501l4.405 396.354-297.912 74.353z"/>
        <path fill="#F5F7FA" d="M.192 635.372c1.411.404 2.648.49 3.709.26 1.06-.23 72.692-16.054 214.894-47.471l4.494-1.817 359.973-189.652-276.545 78.84L.192 635.373z"/>
        <path fill="#E4EBF1" d="M164.081 556.666c1.08.31 2.027.375 2.84.199.812-.176 55.65-12.295 164.516-36.355l3.44-1.391 178.318-95.249-201.44 57.052-147.674 75.744z"/>
        <path fill="#C6D1DC" d="M.26 634.395l3.293 1.293a3 3 0 0 0 1.686.149l212.225-42.491a40 40 0 0 0 9.646-3.252l372.3-181.12a15 15 0 0 0 8.436-13.712L602.03 4.484a3.756 3.756 0 0 0-5.098-3.452 2.922 2.922 0 0 1 2.737 2.948l-4.172 390.345a6.543 6.543 0 0 1-12.872 1.586l-359.71 189.008a35 35 0 0 1-8.878 3.225L.26 634.394z"/>
    </g>
</svg>
