<svg xmlns="http://www.w3.org/2000/svg" xmlns:xlink="http://www.w3.org/1999/xlink" width="79" height="18" version="1.1" viewBox="0 0 79 18"><title>编组 3</title><desc>Created with Sketch.</desc><g id="Page-1" fill="none" fill-rule="evenodd" stroke="none" stroke-width="1"><g id="APIDocs/Default" transform="translate(-24.000000, -23.000000)"><g id="编组-3"><g id="编组-18"><rect id="矩形" width="238" height="64" x="0" y="0" fill-rule="nonzero"/><g id="编组" transform="translate(20.000000, 20.000000)"><g id="Glyph/004.Company/011.Kubesphere/Black" fill="#324558"><g id="Group-13" transform="translate(4.000000, 3.000000)"><polygon id="Fill-1" points="13.435 14.044 9.563 11.813 9.563 16.276"/><polygon id="Fill-2" points="13.435 3.356 9.563 1.125 9.563 5.588"/><polygon id="Fill-3" points="7.576 0 0 4.366 0 13.12 7.576 17.486 7.576 10.844 3.931 8.743 7.576 6.642"/><polygon id="Fill-4" points="7.875 8.859 15.44 13.218 15.44 4.5"/></g></g><path id="APIDocs" fill="#242E42" fill-rule="nonzero" d="M34.632,16 L32.378,16 L31.79,14.418 L27.786,14.418 L27.198,16 L24.944,16 L28.542,6.662 L31.034,6.662 L34.632,16 Z M31.244,12.668 L29.788,8.65 L28.332,12.668 L31.244,12.668 Z M37.488,16 L35.5,16 L35.5,6.662 L39.868,6.662 C41.898,6.662 43.004,8.034 43.004,9.672 C43.004,11.296 41.884,12.668 39.868,12.668 L37.488,12.668 L37.488,16 Z M39.588,10.918 C40.372,10.918 40.974,10.442 40.974,9.672 C40.974,8.888 40.372,8.412 39.588,8.412 L37.488,8.412 L37.488,10.918 L39.588,10.918 Z M46.238,16 L44.25,16 L44.25,6.662 L46.238,6.662 L46.238,16 Z M55.38,16 L51.684,16 L51.684,6.662 L55.366,6.662 C58.292,6.662 60.322,8.524 60.322,11.324 C60.322,14.152 58.292,16 55.38,16 Z M55.366,14.25 C57.214,14.25 58.292,12.92 58.292,11.324 C58.292,9.686 57.284,8.412 55.38,8.412 L53.672,8.412 L53.672,14.25 L55.366,14.25 Z M64.83,16.168 C62.604,16.168 61.26,14.53 61.26,12.612 C61.26,10.694 62.604,9.07 64.83,9.07 C67.07,9.07 68.414,10.694 68.414,12.612 C68.414,14.53 67.07,16.168 64.83,16.168 Z M64.83,14.586 C65.95,14.586 66.566,13.676 66.566,12.612 C66.566,11.562 65.95,10.652 64.83,10.652 C63.724,10.652 63.108,11.562 63.108,12.612 C63.108,13.676 63.724,14.586 64.83,14.586 Z M72.894,16.168 C70.822,16.168 69.31,14.698 69.31,12.612 C69.31,10.54 70.822,9.07 72.894,9.07 C74.28,9.07 75.12,9.672 75.568,10.288 L74.406,11.38 C74.084,10.904 73.594,10.652 72.978,10.652 C71.9,10.652 71.144,11.436 71.144,12.612 C71.144,13.788 71.9,14.586 72.978,14.586 C73.594,14.586 74.084,14.306 74.406,13.844 L75.568,14.936 C75.12,15.552 74.28,16.168 72.894,16.168 Z M79.166,16.168 C77.99,16.168 76.856,15.776 76.142,15.118 L76.912,13.83 C77.416,14.306 78.41,14.768 79.25,14.768 C80.02,14.768 80.384,14.474 80.384,14.054 C80.384,12.948 76.38,13.858 76.38,11.198 C76.38,10.064 77.36,9.07 79.152,9.07 C80.286,9.07 81.196,9.462 81.868,9.994 L81.154,11.254 C80.748,10.834 79.978,10.47 79.152,10.47 C78.508,10.47 78.088,10.75 78.088,11.128 C78.088,12.122 82.106,11.282 82.106,14.012 C82.106,15.258 81.042,16.168 79.166,16.168 Z"/></g></g></g></g></g></svg>