<svg xmlns="http://www.w3.org/2000/svg" width="359" height="574" viewBox="0 0 359 574">
    <g fill="none" fill-rule="evenodd">
        <path fill="#EFF4F9" d="M558.573-177.67l-99.09 193.112-117.629-181.134 216.719-11.977zM189.268-66.704a60 60 0 0 1 20.761-23.04c27.791-18.048 64.951-10.15 82.999 17.641L393.18 82.12a60 60 0 0 1 3.12 59.959l-30.658 60.055a58.843 58.843 0 0 0-6.35 29.879c1.725 32.452 29.432 57.361 61.884 55.636l67.333-3.58a60 60 0 0 1 53.506 27.237l100.15 154.218a60 60 0 0 1 9.596 29.491c1.76 33.09-23.638 61.342-56.728 63.103L309.57 573.304a60 60 0 0 1-53.508-27.237L62.41 247.872a60 60 0 0 1-3.12-59.958L189.268-66.705zm382.994 257.453a60 60 0 0 1-30.55-6.494c-29.503-15.088-41.188-51.237-26.1-80.74L614.04-88.942a60 60 0 0 1 20.741-23c27.792-18.048 64.951-10.15 82.999 17.641l117.425 180.82a60 60 0 0 1 9.593 29.448c1.784 33.089-23.593 61.359-56.682 63.143l-215.854 11.639z" opacity=".9"/>
        <path fill="#E3E9EF" fill-rule="nonzero" d="M118.746 128.981L45.722 87.356c-14.394-8.205-32.714-3.187-40.92 11.207a30 30 0 0 0-3.936 14.856v83.254c0 16.568 13.431 30 30 30a30 30 0 0 0 14.857-3.938l73.024-41.628c14.394-8.206 19.41-26.526 11.205-40.92a30 30 0 0 0-11.206-11.206z" opacity=".6"/>
    </g>
</svg>
