<svg xmlns="http://www.w3.org/2000/svg" width="45" height="60" viewBox="0 0 45 60">
    <g fill="none" fill-rule="nonzero">
        <path fill="#FFF" d="M18.205 50.648a.58.58 0 0 0-.49-.22.668.668 0 0 0-.503.214.722.722 0 0 0-.13.226c-.028.083-.049.169-.061.256h1.354a.89.89 0 0 0-.048-.256.58.58 0 0 0-.116-.22M13.56 50.468c-.107 0-.213.015-.315.042a.89.89 0 0 0-.25.103v1.87l.193.027h.256a.74.74 0 0 0 .635-.29c.152-.229.227-.5.213-.775 0-.662-.244-.993-.732-.993M29.208 50.648a.592.592 0 0 0-.193-.159.635.635 0 0 0-.296-.062.668.668 0 0 0-.504.215.774.774 0 0 0-.131.226 1.64 1.64 0 0 0-.062.256h1.355a.968.968 0 0 0-.049-.256.58.58 0 0 0-.116-.22M36.157 50.648a.58.58 0 0 0-.492-.22.668.668 0 0 0-.503.214.722.722 0 0 0-.13.226 1.64 1.64 0 0 0-.062.256h1.355a1.045 1.045 0 0 0-.048-.256.554.554 0 0 0-.118-.22"/>
        <path fill="#FFF" d="M1.287 58.825h41.928v-47.16H1.287v47.16zm13.876-13.473L8.115 36.59a1.912 1.912 0 0 1-.374-1.634l2.517-10.925a1.935 1.935 0 0 1 1.055-1.31l10.17-4.864a1.957 1.957 0 0 1 1.692 0l10.181 4.86c.532.253.92.736 1.053 1.31l2.516 10.928a1.92 1.92 0 0 1-.375 1.633l-7.045 8.762c-.372.46-.931.727-1.522.726H16.686a1.955 1.955 0 0 1-1.523-.726v.002zm-8.92 7.951a6.596 6.596 0 0 0-.255-.387c-.096-.135-.193-.292-.296-.435a5.098 5.098 0 0 0-.338-.416 2.685 2.685 0 0 0-.345-.34v1.588H3.981v-5.195l1.028-.166v3.034c.1-.11.205-.226.31-.346.104-.12.216-.236.317-.35.1-.115.194-.233.283-.339.089-.106.17-.194.234-.275h1.221c-.244.281-.482.55-.716.807-.23.252-.484.515-.759.786.153.139.295.288.426.447.147.17.29.349.428.532.137.184.265.368.387.552.122.184.213.35.29.503H6.244zm4.754-.124c-.222.06-.449.106-.677.138a5.431 5.431 0 0 1-.867.068 2.069 2.069 0 0 1-.774-.124 1.171 1.171 0 0 1-.484-.345 1.43 1.43 0 0 1-.256-.538 2.88 2.88 0 0 1-.075-.681v-2.02h1.04v1.894c-.018.247.027.493.13.718a.52.52 0 0 0 .49.22h.235c.083 0 .156-.017.22-.026v-2.807h1.028l-.01 3.503zm4.212-.904a1.591 1.591 0 0 1-.968.986 2.295 2.295 0 0 1-.801.131c-.124 0-.254 0-.387-.021-.134-.021-.267-.023-.399-.04a6.264 6.264 0 0 1-.373-.063c-.12-.023-.225-.056-.318-.083v-5.067l1.028-.166v1.805a1.887 1.887 0 0 1 .759-.157c.235-.005.468.042.683.138.194.086.365.22.495.387.14.178.243.382.304.6.073.252.108.513.105.774.003.268-.041.534-.132.786l.004-.01zm4.146-.634c0 .07 0 .131-.014.193h-2.33a.681.681 0 0 0 .298.503c.208.137.454.204.703.194.185 0 .37-.017.551-.048a2.26 2.26 0 0 0 .45-.132l.137.834c-.072.033-.146.06-.221.083a2.39 2.39 0 0 1-.31.068 3.677 3.677 0 0 1-.747.077 2.309 2.309 0 0 1-.855-.145 1.742 1.742 0 0 1-.6-.387c-.16-.18-.28-.392-.352-.623a2.433 2.433 0 0 1-.11-.745 2.241 2.241 0 0 1 .144-.842c.088-.226.22-.431.387-.606.157-.158.345-.283.552-.366.206-.082.426-.124.648-.124.457-.023.901.15 1.222.477.298.31.447.773.447 1.39v.199zm2.984-1.061a4.436 4.436 0 0 0-.323-.07 1.684 1.684 0 0 0-.635-.02.894.894 0 0 0-.193.036v2.777H20.16v-3.435c.212-.072.429-.132.648-.178.276-.063.558-.092.84-.09.065.001.13.006.194.014.078.004.157.014.234.027.078 0 .157.024.234.04.067.012.132.031.194.057l-.165.842zm3.854 2.71H25.16v-1.924a1.4 1.4 0 0 0-.13-.705.536.536 0 0 0-.49-.207c-.077 0-.156.006-.233.016a2.18 2.18 0 0 0-.22.019v2.814h-1.029V49.8c.222-.06.448-.106.676-.137.287-.048.578-.071.869-.07.26-.009.52.034.764.124.191.067.36.184.49.338.123.154.21.332.256.523.052.222.077.45.075.677l.004 2.035zm4.165-1.663c0 .07-.01.132-.015.194H28.02a.685.685 0 0 0 .296.503 1.2 1.2 0 0 0 .705.193c.185 0 .37-.016.551-.048.154-.028.303-.072.447-.132l.14.835c-.072.032-.146.06-.22.083-.103.03-.207.052-.313.068a3.677 3.677 0 0 1-.745.077 2.309 2.309 0 0 1-.855-.145 1.728 1.728 0 0 1-.6-.387 1.695 1.695 0 0 1-.352-.6 2.433 2.433 0 0 1-.11-.745 2.241 2.241 0 0 1 .144-.842c.088-.226.22-.432.387-.606.158-.158.345-.283.552-.366.206-.082.426-.124.648-.124.457-.023.901.15 1.222.476.298.313.447.774.447 1.386v.194l-.006-.014zm2.762 1.703c-.183.04-.37.058-.557.055a1.891 1.891 0 0 1-.697-.11 1.144 1.144 0 0 1-.441-.316 1.26 1.26 0 0 1-.235-.498 3.114 3.114 0 0 1-.062-.64v-3.047l1.028-.164v1.068h1.233v.856h-1.233v1.275c-.008.179.03.357.11.517a.497.497 0 0 0 .461.193 1.897 1.897 0 0 0 .662-.118l.145.8a2.903 2.903 0 0 1-.414.131v-.002zm4.192-1.687c0 .07-.01.131-.013.193h-2.323a.685.685 0 0 0 .296.503c.208.137.454.204.703.194.185 0 .37-.017.551-.048a2.26 2.26 0 0 0 .45-.132l.137.834a1.548 1.548 0 0 1-.22.083c-.102.03-.206.053-.31.068a3.571 3.571 0 0 1-.746.077 2.309 2.309 0 0 1-.855-.145 1.742 1.742 0 0 1-.6-.387 1.692 1.692 0 0 1-.35-.6 2.433 2.433 0 0 1-.11-.745 2.282 2.282 0 0 1 .143-.842c.087-.225.219-.431.387-.606.156-.157.343-.282.55-.365.206-.082.426-.124.648-.124.456-.024.9.15 1.221.476.298.311.449.774.449 1.386v.193l-.008-.013zm2.979 1.496c-.342.204-.738.3-1.136.276a3.356 3.356 0 0 1-.807-.083 3.29 3.29 0 0 1-.442-.137l.173-.836a2.756 2.756 0 0 0 1.082.22c.135.009.272-.01.4-.054a.213.213 0 0 0 .116-.213.255.255 0 0 0-.15-.215 2.63 2.63 0 0 0-.463-.212 3.597 3.597 0 0 1-.441-.194 1.386 1.386 0 0 1-.331-.226.977.977 0 0 1-.213-.326 1.186 1.186 0 0 1-.076-.447.968.968 0 0 1 .387-.807c.303-.213.67-.317 1.04-.296.213 0 .425.02.635.062.164.026.326.068.483.124l-.18.8a4.04 4.04 0 0 0-.387-.111 2.129 2.129 0 0 0-.468-.049c-.323 0-.484.091-.484.27 0 .037.007.075.021.11.019.04.047.073.084.097.04.027.096.06.164.096.068.037.167.07.277.11.191.07.378.152.557.248.12.065.229.151.32.254a.722.722 0 0 1 .18.31c.039.13.058.265.056.4a.921.921 0 0 1-.409.813l.012.016z"/>
        <path fill="#326CE5" d="M34.44 7.72h.252l.193-.023v-1.85a.877.877 0 0 0-.248-.102 1.204 1.204 0 0 0-.31-.041c-.477 0-.717.327-.717.977-.014.268.06.533.209.755a.73.73 0 0 0 .625.285M14.323 6.099a.617.617 0 0 0-.31-.374.645.645 0 0 0-.296-.062.68.68 0 0 0-.292.058.598.598 0 0 0-.194.153.689.689 0 0 0-.126.22c-.029.084-.05.17-.064.256h1.338a1.088 1.088 0 0 0-.045-.251M30.94 6.099a.617.617 0 0 0-.309-.374.645.645 0 0 0-.296-.062.68.68 0 0 0-.292.058.598.598 0 0 0-.204.153.689.689 0 0 0-.125.22c-.03.084-.05.17-.064.256h1.337a1.088 1.088 0 0 0-.044-.251"/>
        <path fill="#FFF" d="M9.211 8.046c.162.174.36.31.58.399.27.102.555.151.843.145.194.001.389-.017.58-.055a2.39 2.39 0 0 0 .441-.13l-.143-.828a1.67 1.67 0 0 1-.387.11c-.128.021-.257.032-.387.034-.344 0-.58-.09-.724-.266a1.192 1.192 0 0 1-.207-.747c-.012-.262.066-.52.22-.731a.801.801 0 0 1 .67-.279c.13-.002.26.012.388.04a2.5 2.5 0 0 1 .313.096l.2-.802c-.31-.134-.646-.2-.984-.193a1.918 1.918 0 0 0-.774.149c-.22.093-.417.231-.58.404-.158.17-.279.37-.357.587a2.129 2.129 0 0 0-.126.73c-.002.251.034.502.107.743.064.22.177.423.33.594M12.457 8.057c.163.17.361.302.58.388.268.1.553.149.838.143a4.509 4.509 0 0 0 .743-.072c.103-.018.203-.042.303-.071.074-.021.147-.049.216-.082l-.135-.82c-.14.057-.288.1-.437.125-.181.034-.364.05-.548.05a1.161 1.161 0 0 1-.691-.193.666.666 0 0 1-.292-.495h2.293c0-.055 0-.116.014-.194.013-.077 0-.135 0-.193 0-.602-.147-1.058-.442-1.369a1.58 1.58 0 0 0-1.202-.464c-.217 0-.432.041-.634.122-.205.08-.391.203-.546.36-.168.17-.3.372-.387.594-.1.271-.144.56-.13.85a2.36 2.36 0 0 0 .112.733c.072.217.19.415.347.58m.644-1.962a.689.689 0 0 1 .126-.22.598.598 0 0 1 .194-.153.68.68 0 0 1 .292-.059.645.645 0 0 1 .296.062.625.625 0 0 1 .31.374c.024.082.04.166.044.252h-1.337c.013-.087.035-.173.064-.256M17.145 5.766a1.798 1.798 0 0 1 .809-.017c.121.025.228.048.319.071l.17-.834a1.049 1.049 0 0 0-.193-.058l-.23-.04a3.161 3.161 0 0 0-.233-.028c-.077-.006-.141-.012-.193-.012a3.71 3.71 0 0 0-.825.086c-.248.058-.46.118-.643.18v3.38h1.013l.006-2.728zM19.254 8.152c.117.14.266.247.436.312.219.082.451.12.685.112a2.342 2.342 0 0 0 .958-.184l-.143-.787c-.102.039-.208.067-.316.085-.11.02-.224.03-.337.03a.482.482 0 0 1-.45-.193.993.993 0 0 1-.113-.509V5.766h1.216v-.842h-1.216V3.87l-1.01.164v3c-.002.213.02.424.064.631.036.178.114.344.226.486M22.01 4.924h1.012v3.571H22.01zM22.514 4.49a.62.62 0 0 0 .423-.16.621.621 0 0 0 0-.875.639.639 0 0 0-.847 0 .621.621 0 0 0 0 .875.62.62 0 0 0 .424.16M27.32 4.49a.62.62 0 0 0 .423-.16.621.621 0 0 0 0-.875.639.639 0 0 0-.848 0 .621.621 0 0 0 0 .875.62.62 0 0 0 .424.16M26.816 4.924h1.012v3.571h-1.012zM24.983 5.766h1.25v-.842h-1.25v-.176c0-.09.01-.179.031-.265a.478.478 0 0 1 .296-.35.84.84 0 0 1 .308-.051c.09 0 .18.007.27.021a.912.912 0 0 1 .24.068l.175-.796a2.265 2.265 0 0 0-.315-.1 1.883 1.883 0 0 0-.473-.049c-.516 0-.903.137-1.16.409-.27.3-.41.696-.388 1.1v3.76h1.01l.006-2.73zM29.067 8.057c.164.17.362.302.58.388.268.1.553.149.839.143a4.384 4.384 0 0 0 .743-.072c.102-.018.203-.042.302-.071.074-.021.147-.049.217-.082l-.136-.82c-.14.057-.287.1-.437.125-.18.034-.364.05-.548.05a1.173 1.173 0 0 1-.69-.193.672.672 0 0 1-.293-.495h2.291c0-.055.01-.116.014-.194.004-.077 0-.135 0-.193 0-.602-.147-1.058-.441-1.369a1.58 1.58 0 0 0-1.202-.464 1.72 1.72 0 0 0-.635.122c-.205.08-.39.203-.546.36-.168.17-.3.372-.387.594a2.156 2.156 0 0 0-.147.83 2.36 2.36 0 0 0 .112.734c.072.216.19.414.347.58m.644-1.962a.689.689 0 0 1 .126-.22.598.598 0 0 1 .203-.154.68.68 0 0 1 .292-.058.645.645 0 0 1 .297.062.617.617 0 0 1 .31.374c.024.081.039.166.044.251h-1.338c.014-.087.035-.172.064-.255M33.062 8.085c.164.164.362.29.58.37.254.088.52.131.788.127.122 0 .25 0 .387-.016.138-.015.264-.027.388-.044.123-.017.251-.04.37-.064.117-.023.222-.052.313-.08V3.227l-1.013.163v1.616a2.106 2.106 0 0 0-.336-.116 1.583 1.583 0 0 0-.376-.04 1.688 1.688 0 0 0-.675.13 1.355 1.355 0 0 0-.5.373 1.701 1.701 0 0 0-.311.594 2.594 2.594 0 0 0-.109.784c-.004.263.038.525.124.774.079.217.203.415.364.58m1.262-2.38c.105 0 .209.014.31.04.087.022.17.056.247.103v1.84l-.193.024h-.252a.73.73 0 0 1-.625-.285 1.246 1.246 0 0 1-.209-.754c0-.65.24-.978.718-.978"/>
        <path fill="#326CE5" d="M25.959 37.568l.015-.012-.015.012M27.29 36.314a6.267 6.267 0 0 0 .997-1.793l-3.164-.536a.544.544 0 0 0-.122 0 .53.53 0 0 0-.463.741l1.204 2.973a6.194 6.194 0 0 0 1.535-1.385M18.931 37.688l1.215-2.936-.01-.012a.532.532 0 0 0-.482-.741.569.569 0 0 0-.098.01l-3.137.532a6.306 6.306 0 0 0 2.516 3.156M17.905 27.871l2.611 1.852a.53.53 0 0 0 .844-.406h.014l.18-3.188a6.286 6.286 0 0 0-3.648 1.742M25.072 26.71a6.288 6.288 0 0 0-1.968-.581l.18 3.182a.532.532 0 0 0 .846.406l2.61-1.846a6.315 6.315 0 0 0-1.668-1.171M25.161 31.488a.532.532 0 0 0 .378.633v.008l3.073.885a6.387 6.387 0 0 0-.913-3.945l-2.373 2.13v.009a.52.52 0 0 0-.169.28M23.748 38.534c.21-.049.417-.105.614-.17l-1.548-2.796H22.8a.53.53 0 0 0-.468-.28h-.02a.534.534 0 0 0-.449.28l-1.548 2.79a6.315 6.315 0 0 0 3.43.174M27.118 36.523v-.012.012M16.949 29.073a6.277 6.277 0 0 0-.884 3.958l3.06-.883v-.019a.528.528 0 0 0 .207-.914v-.013l-2.383-2.13zM21.846 31.376l-.608.757.217.944.879.424.874-.422.22-.946-.607-.757z"/>
        <path fill="#326CE5" d="M27.985 46.076c.59 0 1.15-.266 1.521-.726l7.046-8.77a1.92 1.92 0 0 0 .375-1.633L34.411 24.02a1.935 1.935 0 0 0-1.053-1.308l-10.18-4.862a1.957 1.957 0 0 0-1.692 0l-10.179 4.864a1.935 1.935 0 0 0-1.055 1.31L7.736 34.95a1.912 1.912 0 0 0 .374 1.634l7.047 8.762c.372.46.932.726 1.523.725l11.305.006zm-9.782-6.625l.109-.261a7.935 7.935 0 0 1-3.511-4.384l-.264.046-.02-.013a.604.604 0 0 0-.32-.109c-.357.069-.706.17-1.043.306h-.018a2.67 2.67 0 0 0-.18.074c-.119.054-.242.1-.368.135l-.11.025-.048.01h-.02a.617.617 0 1 1-.275-1.198h.016l.043-.017.114-.026c.128-.022.257-.034.387-.036l.193-.012h.016a5.795 5.795 0 0 0 1.076-.178.716.716 0 0 0 .234-.23l.025-.033.252-.072a7.881 7.881 0 0 1 1.243-5.493l-.194-.174v-.03a.614.614 0 0 0-.118-.32 5.715 5.715 0 0 0-.904-.635l-.174-.097a2.243 2.243 0 0 1-.331-.194 1.27 1.27 0 0 1-.091-.073l-.037-.03a.718.718 0 0 1-.263-.44.58.58 0 0 1 .58-.682h.024a.74.74 0 0 1 .428.161l.036.029.099.08c.097.086.188.18.271.28.04.048.083.097.13.147h.011c.246.27.517.514.81.732a.428.428 0 0 0 .315.04h.042l.217.153a7.837 7.837 0 0 1 5.079-2.44l.013-.256a.668.668 0 0 0 .194-.313 5.7 5.7 0 0 0-.068-1.092v-.012c-.01-.065-.023-.131-.033-.193a2.348 2.348 0 0 1-.05-.492v-.07a.617.617 0 1 1 1.229 0v.175c-.006.13-.023.26-.05.387a5.024 5.024 0 0 0-.033.193v.033a5.464 5.464 0 0 0-.064 1.073.418.418 0 0 0 .164.27l.033.03c0 .046.01.193.016.269.958.087 1.892.35 2.756.774a7.97 7.97 0 0 1 2.294 1.666l.23-.162h.033a.61.61 0 0 0 .335-.043c.29-.214.557-.456.799-.722l.021-.021a4.14 4.14 0 0 0 .13-.143c.084-.101.175-.196.273-.283l.097-.077.038-.031a.62.62 0 0 1 .774.967l-.042.035a1.892 1.892 0 0 1-.093.074 2.634 2.634 0 0 1-.331.193l-.176.097a5.715 5.715 0 0 0-.904.635.422.422 0 0 0-.11.298v.044l-.093.084-.12.106a7.935 7.935 0 0 1 1.27 5.48l.243.071.018.025c.057.1.142.182.244.236.352.095.713.155 1.078.178h.013l.194.012c.13.002.259.013.387.035l.11.027.066.016a.617.617 0 1 1-.273 1.198h-.017l-.058-.012-.1-.023a2.499 2.499 0 0 1-.363-.134l-.184-.077h-.017a5.613 5.613 0 0 0-1.043-.306h-.035a.428.428 0 0 0-.265.103l-.04.025-.255-.045a7.905 7.905 0 0 1-1.343 2.516 7.82 7.82 0 0 1-2.166 1.893c0 .023.02.05.031.082a.91.91 0 0 0 .068.16.405.405 0 0 1-.015.045.412.412 0 0 0-.031.311c.147.34.328.664.54.968.038.058.077.11.114.163a2.421 2.421 0 0 1 .267.435l.025.052a.652.652 0 0 1-.261.873.58.58 0 0 1-.478.01.716.716 0 0 1-.372-.356l-.021-.045c-.02-.038-.04-.08-.054-.112-.05-.12-.091-.245-.122-.372l-.055-.193v-.014a5.632 5.632 0 0 0-.412-1.01.424.424 0 0 0-.265-.172l-.043-.014-.061-.11-.066-.12a7.885 7.885 0 0 1-5.619-.015l-.137.247a.476.476 0 0 0-.26.126c-.155.222-.27.47-.34.732-.041.118-.084.24-.13.361a3.18 3.18 0 0 0-.056.194c-.03.125-.07.248-.12.368l-.05.104-.026.05a.687.687 0 0 1-.604.401.567.567 0 0 1-.243-.054.65.65 0 0 1-.262-.873l.027-.06.05-.104c.064-.114.135-.224.214-.327a5.971 5.971 0 0 0 .666-1.15.623.623 0 0 0-.055-.343l-.03.01z"/>
        <path fill="#FFF" d="M17.706 40.783c-.037.056-.076.108-.114.16-.08.104-.15.213-.213.327-.016.03-.033.068-.05.105l-.028.06a.65.65 0 0 0 .262.873c.076.036.16.054.243.054a.687.687 0 0 0 .604-.4l.025-.051c.018-.037.037-.074.05-.105.05-.119.09-.242.12-.367l.057-.194c.046-.122.089-.244.13-.362.069-.262.184-.51.34-.731a.476.476 0 0 1 .26-.126l.137-.248a7.885 7.885 0 0 0 5.619.016l.066.12.061.11.043.013a.424.424 0 0 1 .265.173c.17.322.308.66.412 1.01v.014c.02.063.037.127.055.193.03.127.072.251.122.372.013.033.034.073.054.112l.021.044c.076.161.208.288.372.357a.58.58 0 0 0 .478-.01.652.652 0 0 0 .261-.873l-.025-.052a2.421 2.421 0 0 0-.267-.435c-.037-.053-.076-.105-.114-.163a5.592 5.592 0 0 1-.54-.968.418.418 0 0 1 .03-.314.277.277 0 0 0 .016-.042.91.91 0 0 1-.068-.16c-.011-.032-.023-.059-.03-.082a7.82 7.82 0 0 0 2.165-1.893 7.905 7.905 0 0 0 1.343-2.516c.08.011.213.037.256.044l.039-.025a.428.428 0 0 1 .265-.102h.035c.356.068.706.17 1.043.305h.017l.184.078c.118.054.24.098.364.133l.099.024.058.011h.021a.617.617 0 1 0 .273-1.198l-.066-.015-.11-.027a2.499 2.499 0 0 0-.387-.035l-.194-.012h-.013a5.512 5.512 0 0 1-1.078-.178.612.612 0 0 1-.244-.236l-.018-.025-.244-.072a7.935 7.935 0 0 0-1.27-5.48l.12-.106.094-.083v-.044a.422.422 0 0 1 .11-.298c.28-.24.583-.453.904-.635l.176-.097c.115-.056.225-.121.33-.194.028-.019.06-.046.094-.073l.042-.035a.62.62 0 0 0-.774-.968l-.037.031c-.034.027-.071.054-.098.078-.098.087-.19.181-.273.282a4.14 4.14 0 0 1-.13.143l-.021.022c-.242.266-.51.508-.8.722a.61.61 0 0 1-.334.042h-.033l-.23.165a7.97 7.97 0 0 0-2.298-1.674 7.868 7.868 0 0 0-2.756-.775c0-.079-.014-.222-.014-.269l-.033-.029a.418.418 0 0 1-.164-.27 5.464 5.464 0 0 1 .064-1.073v-.033c.01-.068.021-.131.033-.193.027-.128.044-.257.05-.387v-.178a.617.617 0 1 0-1.229 0v.07a.94.94 0 0 0 0 .104c.006.13.023.26.05.387.01.062.024.126.033.193v.012c.058.36.08.726.068 1.092-.034.12-.101.229-.194.313l-.013.256a7.837 7.837 0 0 0-5.079 2.44l-.217-.153h-.042a.437.437 0 0 1-.316-.04 5.74 5.74 0 0 1-.809-.732l-.011-.012a2.917 2.917 0 0 1-.13-.145 2.443 2.443 0 0 0-.271-.28l-.099-.08-.036-.029a.74.74 0 0 0-.428-.16h-.023a.58.58 0 0 0-.581.68c.03.175.124.333.263.442l.037.03c.03.026.064.053.09.073.106.073.217.138.332.193l.174.097c.321.182.624.395.904.635a.614.614 0 0 1 .118.348l.194.175a7.889 7.889 0 0 0-1.21 5.51l-.252.073-.025.033a.716.716 0 0 1-.234.23 5.795 5.795 0 0 1-1.076.179h-.016l-.193.011c-.13.003-.26.015-.387.037l-.118.018-.049.011h-.015a.617.617 0 1 0 .275 1.198h.019l.048-.01.11-.025c.126-.035.25-.08.368-.135a2.67 2.67 0 0 1 .18-.074h.018a5.654 5.654 0 0 1 1.043-.305c.117.005.23.045.325.114l.027.015.263-.044a7.935 7.935 0 0 0 3.511 4.384l-.108.26c.05.107.069.225.054.341-.151.348-.336.68-.551.991l-.006-.003zm1.633-9.556a.528.528 0 0 1-.209.914v.011l-3.065.879a6.277 6.277 0 0 1 .888-3.958l2.386 2.129v.025zM19.55 34a.532.532 0 0 1 .579.732l.009.01-1.216 2.937a6.306 6.306 0 0 1-2.516-3.157L19.548 34zm4.59-4.291a.528.528 0 1 1-.846-.406l-.18-3.183a6.337 6.337 0 0 1 3.628 1.752l-2.596 1.84-.006-.003zm-2.75-.403h-.014a.53.53 0 0 1-.843.407l-2.627-1.841a6.286 6.286 0 0 1 3.66-1.754l-.176 3.188zm.474 6.265a.534.534 0 0 1 .45-.28h.019a.53.53 0 0 1 .468.28h.014l1.548 2.793a6.298 6.298 0 0 1-4.043-.004l1.544-2.789zm1.355-2.49l-.875.42-.878-.423-.227-.948.608-.757h.968l.605.757-.2.95zm1.314 1.652a.53.53 0 0 1 .463-.741.544.544 0 0 1 .122 0l3.164.536a6.29 6.29 0 0 1-2.54 3.172l-1.209-2.967zm.807-3.534l2.373-2.129a6.387 6.387 0 0 1 .914 3.945l-3.078-.885a.534.534 0 0 1-.209-.915v-.016z"/>
        <path fill="#326DE5" d="M6.753 52.258a9.698 9.698 0 0 0-.428-.532 4.581 4.581 0 0 0-.426-.447c.275-.271.529-.534.757-.786.229-.252.474-.527.718-.807H6.153c-.064.077-.141.17-.234.275-.093.104-.182.218-.283.338-.1.12-.207.233-.317.353l-.31.344v-3.044l-1.028.166v5.185H5.01v-1.587c.125.106.24.222.345.349.12.133.233.274.338.42.105.143.203.288.296.435.097.141.182.273.256.387h1.179a6.213 6.213 0 0 0-.29-.503 5.974 5.974 0 0 0-.388-.552M9.97 52.475c-.064.01-.138.02-.221.027-.083.008-.16 0-.234 0a.52.52 0 0 1-.49-.22 1.475 1.475 0 0 1-.131-.719v-1.895H7.866v2.029c-.002.23.023.458.075.681.046.196.133.38.256.538.129.155.295.273.484.345.247.09.51.132.774.124.29 0 .581-.023.869-.068.228-.032.453-.078.675-.138v-3.503H9.972l-.002 2.799zM14.932 50.117c-.13-.167-.3-.3-.495-.387a1.589 1.589 0 0 0-.683-.137 1.806 1.806 0 0 0-.759.159v-1.808l-1.028.166v5.067c.093.028.194.057.318.084.123.027.243.042.373.062.13.019.265.032.399.04.133.008.269.022.387.022.273.004.544-.041.801-.132.456-.164.812-.527.968-.985.09-.252.134-.518.13-.786a2.663 2.663 0 0 0-.103-.774 1.719 1.719 0 0 0-.304-.6m-.853 2.11a.74.74 0 0 1-.635.29h-.256c-.077 0-.143-.018-.193-.027v-1.868a.89.89 0 0 1 .25-.103 1.26 1.26 0 0 1 .315-.04c.488 0 .731.33.731.993.013.27-.061.539-.212.764M17.694 49.58c-.222 0-.442.041-.648.123a1.635 1.635 0 0 0-.552.366c-.167.175-.299.38-.387.606a2.241 2.241 0 0 0-.145.842c-.004.25.03.5.103.741.074.222.194.427.352.6.17.17.375.3.6.387.273.102.563.151.855.145a3.677 3.677 0 0 0 .747-.077 2.39 2.39 0 0 0 .31-.068c.076-.022.15-.05.22-.083l-.137-.834a2.26 2.26 0 0 1-.449.131 3.248 3.248 0 0 1-.551.049 1.177 1.177 0 0 1-.703-.194.677.677 0 0 1-.298-.503h2.332c0-.054 0-.116.014-.194.013-.077 0-.139 0-.193 0-.612-.15-1.074-.447-1.386-.32-.326-.765-.5-1.222-.476l.006.017zm-.689 1.53c.015-.086.036-.172.064-.255a.722.722 0 0 1 .13-.227.668.668 0 0 1 .503-.215.635.635 0 0 1 .296.062.596.596 0 0 1 .194.16.58.58 0 0 1 .116.22.89.89 0 0 1 .048.255h-1.35zM22.08 49.641a1.935 1.935 0 0 0-.234-.027 1.665 1.665 0 0 0-.194-.013 3.645 3.645 0 0 0-.84.089c-.22.046-.436.106-.648.178v3.435h1.028v-2.771a.917.917 0 0 1 .193-.035 1.684 1.684 0 0 1 .635.02c.124.022.232.046.323.069l.172-.848a.914.914 0 0 0-.193-.056 2.47 2.47 0 0 0-.234-.04M25.864 50.055c-.13-.154-.3-.271-.49-.338a2.019 2.019 0 0 0-.764-.124 5.226 5.226 0 0 0-.87.07 5.307 5.307 0 0 0-.675.137v3.503h1.028v-2.8c.064 0 .137-.016.22-.02.078-.009.156-.013.235-.013a.536.536 0 0 1 .49.205c.104.22.15.462.131.704v1.924h1.026v-2.048a2.812 2.812 0 0 0-.076-.677 1.32 1.32 0 0 0-.255-.523M28.697 49.58c-.222 0-.442.041-.648.123a1.635 1.635 0 0 0-.552.366c-.167.175-.298.38-.387.606a2.241 2.241 0 0 0-.145.842c-.002.252.035.504.11.745.075.222.195.427.353.6.17.17.375.301.6.387.273.102.563.151.855.145a3.677 3.677 0 0 0 .745-.077c.106-.016.21-.038.312-.068.076-.022.15-.05.22-.083l-.139-.834c-.144.06-.294.103-.447.131a3.248 3.248 0 0 1-.551.049 1.186 1.186 0 0 1-.705-.194.681.681 0 0 1-.296-.503h2.323c0-.054.01-.116.015-.194.006-.077 0-.14 0-.193 0-.612-.149-1.074-.447-1.386-.32-.326-.765-.5-1.221-.476l.005.013zm-.689 1.534a1.64 1.64 0 0 1 .062-.255.774.774 0 0 1 .132-.227.668.668 0 0 1 .503-.215.635.635 0 0 1 .296.062.615.615 0 0 1 .31.38.968.968 0 0 1 .048.255h-1.35zM33.062 52.488c-.112.02-.225.03-.339.03a.497.497 0 0 1-.46-.194 1.045 1.045 0 0 1-.11-.517v-1.275h1.232v-.856h-1.233v-1.068l-1.027.164v3.049c-.002.215.019.43.061.64.04.181.12.351.235.498.12.139.27.248.44.317.224.08.46.116.698.109.188.003.375-.015.56-.055.14-.033.277-.077.411-.131l-.145-.8c-.104.04-.213.07-.323.09M35.646 49.58c-.222 0-.441.041-.647.123a1.635 1.635 0 0 0-.551.366c-.168.174-.3.38-.387.606a2.241 2.241 0 0 0-.146.842c-.002.252.036.504.11.745.074.222.194.427.351.6.171.169.376.3.6.387.274.102.564.151.856.145a3.706 3.706 0 0 0 .745-.077c.104-.016.208-.038.31-.068.075-.021.15-.049.22-.083l-.137-.834c-.145.06-.295.103-.45.131a3.213 3.213 0 0 1-.551.049 1.177 1.177 0 0 1-.703-.194.681.681 0 0 1-.296-.503h2.323c0-.054.01-.116.013-.194.004-.077 0-.14 0-.193 0-.612-.15-1.074-.449-1.386-.32-.326-.764-.5-1.22-.476l.009.013zm-.691 1.534a1.64 1.64 0 0 1 .062-.255.691.691 0 0 1 .131-.227.56.56 0 0 1 .206-.153.672.672 0 0 1 .298-.062.58.58 0 0 1 .49.22.554.554 0 0 1 .117.222c.027.083.043.168.049.255h-1.353zM40.452 51.6a1.161 1.161 0 0 0-.345-.263 4.154 4.154 0 0 0-.557-.248c-.11-.04-.194-.077-.277-.11a1.7 1.7 0 0 1-.165-.097.236.236 0 0 1-.083-.097.273.273 0 0 1-.021-.11c0-.178.16-.27.484-.27.157 0 .314.016.468.05.13.03.26.066.387.11l.18-.8a2.739 2.739 0 0 0-.484-.124 3.192 3.192 0 0 0-.633-.062 1.649 1.649 0 0 0-1.04.296.968.968 0 0 0-.388.808c-.004.153.022.305.076.449.049.12.12.23.212.323.1.091.21.167.331.226.134.066.281.128.442.194.16.056.315.127.462.213.086.038.144.12.151.215a.213.213 0 0 1-.116.212 1.034 1.034 0 0 1-.4.055c-.183 0-.365-.019-.544-.055a3.677 3.677 0 0 1-.538-.164l-.173.834c.144.056.291.102.442.138.264.06.535.088.807.083.398.024.794-.073 1.136-.277a.921.921 0 0 0 .408-.813 1.308 1.308 0 0 0-.056-.4.722.722 0 0 0-.18-.31"/>
        <path fill="#326CE5" d="M44.528 11.065V7.068A7.078 7.078 0 0 0 37.469.012H7.199A7.078 7.078 0 0 0 .14 7.068v52.905h44.393V11.065h-.006zM32.609 5.986c.063-.216.17-.418.312-.594.135-.161.306-.29.499-.373.214-.089.444-.132.675-.128a1.612 1.612 0 0 1 .722.155V3.43l1.013-.163V8.42a5.058 5.058 0 0 1-.683.143c-.13.018-.26.033-.388.045a4.342 4.342 0 0 1-.387.016 2.265 2.265 0 0 1-.787-.128 1.537 1.537 0 0 1-.959-.947 2.195 2.195 0 0 1-.125-.774A2.594 2.594 0 0 1 32.609 6v-.014zm-3.87-.027c.087-.222.218-.424.386-.594.155-.156.341-.279.546-.36a1.72 1.72 0 0 1 .635-.122 1.58 1.58 0 0 1 1.202.465c.285.306.427.757.427 1.355v.193c0 .07 0 .132-.013.194h-2.296c.018.2.125.383.293.495.205.133.447.197.69.184.184 0 .368-.017.548-.05a2.11 2.11 0 0 0 .438-.126l.135.82c-.07.034-.142.06-.216.082-.1.03-.2.053-.302.071-.113.022-.23.037-.357.053-.125.015-.253.02-.387.02a2.255 2.255 0 0 1-.838-.144 1.637 1.637 0 0 1-.59-.387 1.566 1.566 0 0 1-.346-.58 2.303 2.303 0 0 1-.107-.754 2.156 2.156 0 0 1 .147-.83l.004.015zm-1.762-2.465a.639.639 0 0 1 .848 0c.24.242.24.632 0 .874a.639.639 0 0 1-.848 0 .621.621 0 0 1 0-.874zm.933 5.032h-1.007V4.965h1.01l-.003 3.56zm-3.856-3.751c-.022-.404.117-.8.387-1.1.258-.273.645-.41 1.162-.408a2.001 2.001 0 0 1 .787.15l-.178.795a.89.89 0 0 0-.24-.068 1.78 1.78 0 0 0-.269-.021.8.8 0 0 0-.308.052.482.482 0 0 0-.193.137.58.58 0 0 0-.103.211c-.02.087-.03.176-.029.265v.177h1.253v.841h-1.249v2.73h-1.012l-.008-3.761zm-1.883-1.28a.639.639 0 0 1 .848 0c.24.243.24.633 0 .875a.639.639 0 0 1-.848 0 .621.621 0 0 1 0-.875zm.933 5.033h-1.01V4.965h1.01v3.563zm-4.065-4.452l1.01-.164v1.053h1.216v.841H20.05v1.257c-.008.176.03.352.112.509a.486.486 0 0 0 .453.193c.112 0 .224-.01.335-.03.107-.018.213-.047.315-.086l.143.788a2.323 2.323 0 0 1-.958.184 1.798 1.798 0 0 1-.685-.113 1.066 1.066 0 0 1-.433-.311 1.161 1.161 0 0 1-.229-.486 2.89 2.89 0 0 1-.064-.631V4.076zm-2.831 1.078c.182-.062.387-.122.642-.18.271-.058.548-.086.825-.083a1.96 1.96 0 0 1 .193 0c.076 0 .153.015.23.027.078.012.154.025.231.04.066.014.131.033.194.059l-.17.834a6.189 6.189 0 0 0-.32-.072 1.798 1.798 0 0 0-.809.017v2.74h-1.012l-.004-3.382zm-3.987.792c.087-.222.219-.424.387-.594.157-.158.346-.28.553-.36a1.72 1.72 0 0 1 .635-.122 1.58 1.58 0 0 1 1.202.464c.294.31.441.766.441 1.369v.193c0 .07-.01.132-.015.194h-2.305c.018.2.125.382.292.495.206.133.448.197.693.184.183 0 .366-.017.546-.05.15-.026.296-.068.437-.126l.136.82c-.07.034-.143.06-.217.082-.1.03-.2.053-.302.071a5.4 5.4 0 0 1-.356.053c-.126.015-.254.02-.387.02a2.255 2.255 0 0 1-.838-.144 1.653 1.653 0 0 1-.59-.387 1.566 1.566 0 0 1-.347-.58 2.36 2.36 0 0 1-.112-.734 2.193 2.193 0 0 1 .147-.83v-.018zm-3.246.09c.16-.449.502-.812.94-1 .245-.103.51-.153.775-.149.175-.001.35.016.522.05.159.035.314.084.463.148l-.211.807a2.406 2.406 0 0 0-.314-.095 1.628 1.628 0 0 0-.387-.04.8.8 0 0 0-.668.278 1.146 1.146 0 0 0-.22.733c-.017.265.056.528.207.746.137.176.387.265.722.265.13-.002.259-.013.387-.033.133-.021.263-.058.387-.11l.143.828c-.142.057-.29.1-.441.13a2.872 2.872 0 0 1-.58.054 2.197 2.197 0 0 1-.84-.145 1.583 1.583 0 0 1-.581-.4 1.514 1.514 0 0 1-.333-.591 2.555 2.555 0 0 1-.107-.744c0-.249.042-.497.126-.731h.01zm34.24 52.79H1.287v-47.16h41.928v47.16z"/>
        <path fill="#326CE5" d="M30.92 6.14a.617.617 0 0 0-.31-.374.645.645 0 0 0-.296-.062.68.68 0 0 0-.293.058.598.598 0 0 0-.193.153.689.689 0 0 0-.126.22c-.03.084-.05.169-.064.256h1.33a1.088 1.088 0 0 0-.045-.252M34.366 7.761h.252l.194-.023v-1.85a.852.852 0 0 0-.248-.103c-.1-.027-.204-.04-.308-.04-.48 0-.72.327-.72.967-.014.268.06.533.211.755.147.193.381.3.623.285M14.412 6.14a.612.612 0 0 0-.308-.374.645.645 0 0 0-.296-.062.67.67 0 0 0-.29.058.58.58 0 0 0-.206.153.728.728 0 0 0-.126.22c-.029.084-.05.169-.063.256h1.337a.995.995 0 0 0-.045-.252"/>
        <path fill="#FFF" d="M9.29 8.086c.161.175.36.312.581.4a2.2 2.2 0 0 0 .842.144c.195.002.39-.016.58-.054a2.39 2.39 0 0 0 .442-.13l-.143-.828c-.124.052-.254.09-.387.11-.129.02-.258.032-.388.033-.344 0-.58-.087-.722-.265a1.173 1.173 0 0 1-.207-.745 1.146 1.146 0 0 1 .221-.734.8.8 0 0 1 .668-.278c.13-.002.26.012.387.04.106.025.21.057.311.095l.211-.807a2.623 2.623 0 0 0-.462-.147 2.574 2.574 0 0 0-.523-.05 1.918 1.918 0 0 0-.774.149c-.22.093-.417.231-.58.404-.16.173-.284.375-.364.596a2.129 2.129 0 0 0-.124.732c-.002.252.033.502.104.743.063.22.175.422.327.592M12.538 8.098c.167.17.368.302.59.387.268.102.552.15.838.143.13 0 .259-.006.388-.019.125-.014.245-.03.356-.052.102-.018.202-.042.302-.072.074-.02.147-.048.216-.081l-.135-.82c-.14.057-.288.1-.438.125-.18.033-.362.05-.545.05a1.161 1.161 0 0 1-.693-.184.672.672 0 0 1-.292-.495h2.295c0-.054.004-.119.012-.194v-.193c0-.601-.147-1.058-.442-1.368a1.58 1.58 0 0 0-1.202-.465 1.72 1.72 0 0 0-.634.122c-.205.081-.391.204-.546.36-.168.17-.3.372-.387.594a2.16 2.16 0 0 0-.147.832c0 .252.04.503.12.742.072.216.19.414.346.58m.645-1.962a.728.728 0 0 1 .125-.22.598.598 0 0 1 .204-.154.685.685 0 0 1 .292-.058.645.645 0 0 1 .296.062.612.612 0 0 1 .308.374c.025.081.04.166.044.251h-1.337c.013-.087.035-.172.064-.255M17.226 5.806a1.798 1.798 0 0 1 .809-.017c.124.025.228.048.32.072l.17-.835a1.006 1.006 0 0 0-.194-.058 4.784 4.784 0 0 0-.46-.067 1.96 1.96 0 0 0-.194 0 3.714 3.714 0 0 0-.825.083c-.247.058-.46.118-.642.18v3.371h1.016V5.806zM19.337 8.193c.116.139.265.246.434.312.219.081.452.12.685.112a2.36 2.36 0 0 0 .958-.184l-.143-.786a1.742 1.742 0 0 1-.316.083c-.11.02-.222.031-.334.031a.486.486 0 0 1-.453-.193 1.014 1.014 0 0 1-.11-.51V5.807h1.213v-.841h-1.214V3.912l-1.012.164v3c-.002.212.02.424.064.631.037.178.115.344.228.486M22.094 4.965h1.012v3.571h-1.012zM22.595 4.531a.62.62 0 0 0 .424-.16.621.621 0 0 0 0-.876.639.639 0 0 0-.848 0 .621.621 0 0 0 0 .875.62.62 0 0 0 .424.161M25.066 5.806h1.257v-.841h-1.249v-.177c0-.089.01-.178.031-.265a.548.548 0 0 1 .1-.21.482.482 0 0 1 .194-.138.801.801 0 0 1 .31-.052c.09 0 .179.007.267.02a.89.89 0 0 1 .24.069l.178-.796a2.001 2.001 0 0 0-.788-.149c-.51 0-.898.136-1.16.408-.271.3-.41.696-.388 1.1v3.76h1.012l-.004-2.729zM27.4 4.531a.62.62 0 0 0 .425-.16.621.621 0 0 0 0-.876.639.639 0 0 0-.848 0 .621.621 0 0 0 0 .875.62.62 0 0 0 .424.161M26.899 4.965h1.012v3.571h-1.012zM29.046 8.098c.166.17.368.303.59.387.268.102.552.15.838.143.13 0 .259-.006.387-.019.126-.014.244-.03.356-.052.102-.018.203-.042.302-.072.075-.02.147-.048.217-.081l-.135-.82c-.141.057-.288.099-.438.125-.18.033-.364.05-.548.05a1.161 1.161 0 0 1-.69-.184.666.666 0 0 1-.293-.495h2.294c0-.054.01-.116.013-.194.004-.077 0-.135 0-.193 0-.601-.147-1.058-.44-1.368a1.58 1.58 0 0 0-1.203-.465c-.217 0-.433.041-.635.122-.205.081-.39.204-.546.36-.167.17-.299.372-.387.594a2.16 2.16 0 0 0-.147.832c-.001.249.037.496.113.732.071.216.19.415.346.58m.65-1.945a.689.689 0 0 1 .126-.22.598.598 0 0 1 .194-.153.68.68 0 0 1 .292-.058.645.645 0 0 1 .296.062.617.617 0 0 1 .31.374c.03.08.05.162.06.247H29.63c.014-.087.035-.172.064-.255M32.988 8.129c.164.164.363.29.581.37.253.089.52.132.788.127.122 0 .25 0 .387-.015.137-.016.265-.027.387-.045.122-.017.254-.04.372-.063.118-.024.22-.053.311-.08V3.267l-1.012.163v1.616a1.612 1.612 0 0 0-.722-.155 1.688 1.688 0 0 0-.675.128 1.355 1.355 0 0 0-.5.373 1.701 1.701 0 0 0-.311.594 2.594 2.594 0 0 0-.109.775c-.005.263.038.525.126.774.077.217.2.415.362.58m1.285-2.37c.104 0 .207.013.308.04.087.021.17.056.248.103v1.84l-.194.024h-.252a.726.726 0 0 1-.623-.285 1.233 1.233 0 0 1-.21-.755c0-.65.24-.967.72-.967"/>
    </g>
</svg>
