<?xml version="1.0" encoding="UTF-8"?>
<svg width="50px" height="56px" viewBox="0 0 50 56" version="1.1" xmlns="http://www.w3.org/2000/svg" xmlns:xlink="http://www.w3.org/1999/xlink">
    <!-- Generator: Sketch 50.2 (55047) - http://www.bohemiancoding.com/sketch -->
    <title>timer</title>
    <desc>Created with Sketch.</desc>
    <defs></defs>
    <g id="Page-1" stroke="none" stroke-width="1" fill="none" fill-rule="evenodd">
        <g id="首页" transform="translate(-296.000000, -1333.000000)">
            <g id="Group-20" transform="translate(140.000000, 1042.000000)">
                <g id="timer" transform="translate(150.000000, 290.000000)">
                    <rect id="bound" x="0" y="0" width="60" height="60"></rect>
                    <g id="Timer" transform="translate(6.000000, 1.500000)">
                        <path d="M21,4.5 L16.5,4.5 L16.5,0 L31.129755,0 L31.129755,4.5 L27,4.5 L27,8.54347826 L21,8.54347826 L21,4.5 Z" id="Combined-Shape" fill="#242E42" fill-rule="nonzero"></path>
                        <circle id="Oval" fill="#55BC8A" cx="24" cy="31.5" r="24"></circle>
                        <polygon id="Shape" fill="#242E42" points="45.7285714 15 40.0714286 9.36521739 45.6107143 5.60869565 49.5 9.4826087"></polygon>
                        <path d="M20.8607143,31.7869565 L33.4714286,21.4565217 L34.7678571,22.7478261 L24.3964286,35.1913043 C23.5714286,36.2478261 22.1571429,36.3652174 21.0964286,35.5434783 C20.9785714,35.426087 20.9785714,35.426087 20.8607143,35.3086957 L20.8607143,35.3086957 C19.9178571,34.3695652 19.9178571,32.9608696 20.7428571,32.0217391 C20.7428571,31.9043478 20.8607143,31.9043478 20.8607143,31.7869565 Z" id="Shape" fill="#FFFFFF" fill-rule="nonzero"></path>
                    </g>
                </g>
            </g>
        </g>
    </g>
</svg>