<?xml version="1.0" encoding="UTF-8"?>
<svg width="54px" height="55px" viewBox="0 0 54 55" version="1.1" xmlns="http://www.w3.org/2000/svg" xmlns:xlink="http://www.w3.org/1999/xlink">
    <!-- Generator: Sketch 50.2 (55047) - http://www.bohemiancoding.com/sketch -->
    <title>Icon-Qualified</title>
    <desc>Created with Sketch.</desc>
    <defs></defs>
    <g id="Page-1" stroke="none" stroke-width="1" fill="none" fill-rule="evenodd">
        <g id="首页" transform="translate(-1093.000000, -1334.000000)">
            <g id="Group-20" transform="translate(140.000000, 1042.000000)">
                <g id="Group-15-Copy-2" transform="translate(800.000000, 224.000000)">
                    <g id="Icon-Qualified" transform="translate(150.000000, 66.000000)">
                        <rect id="Bound" x="0" y="0" width="60" height="60"></rect>
                        <path d="M54.6742946,33.3136983 C51.573354,36.078386 50.1422858,39.5342456 50.3793339,43.6812772 C50.616382,47.8283088 48.662052,49.7842903 44.5145879,49.5474674 C40.3671238,49.3088903 36.911489,50.740353 34.1459277,53.8418555 C31.3821222,56.9416037 28.6165609,56.9416037 25.8527554,53.8418555 C23.087194,50.740353 19.6315593,49.3088903 15.4840952,49.5474674 C11.3366311,49.7842903 9.38230106,47.8283088 9.61934917,43.6812772 C9.85639729,39.5342456 8.42532903,36.078386 5.32438848,33.3136983 C2.22520384,30.5490105 2.22520384,27.7843228 5.32438848,25.0196351 C8.42532903,22.2549473 9.85639729,18.7990877 9.61934917,14.6520561 C9.38230106,10.5050245 11.3366311,8.54904302 15.4840952,8.78586589 C19.6315593,9.024443 23.087194,7.59298032 25.8527554,4.49147784 C28.6165609,1.39172961 31.3821222,1.39172961 34.1459277,4.49147784 C36.911489,7.59298032 40.3671238,9.024443 44.5145879,8.78586589 C48.662052,8.54904302 50.616382,10.5050245 50.3793339,14.6520561 C50.1422858,18.7990877 51.573354,22.2549473 54.6742946,25.0196351 C57.7752351,27.7843228 57.7752351,30.5490105 54.6742946,33.3136983" id="Shape" fill="#55BC8A"></path>
                        <polygon id="Shape" fill="#FFFFFF" fill-rule="nonzero" points="17.552968 27.4253514 16.5 28.559033 28.7634706 39.4598958 42.0789474 19.6187381 41.0137348 18.6666667 27.7174392 31.9327536"></polygon>
                    </g>
                </g>
            </g>
        </g>
    </g>
</svg>