<?xml version="1.0" encoding="UTF-8"?>
<svg width="54px" height="54px" viewBox="0 0 54 54" version="1.1" xmlns="http://www.w3.org/2000/svg" xmlns:xlink="http://www.w3.org/1999/xlink">
    <!-- Generator: Sketch 50.2 (55047) - http://www.bohemiancoding.com/sketch -->
    <title>dots</title>
    <desc>Created with Sketch.</desc>
    <defs></defs>
    <g id="Page-1" stroke="none" stroke-width="1" fill="none" fill-rule="evenodd">
        <g id="首页" transform="translate(-693.000000, -1335.000000)">
            <g id="Group-20" transform="translate(140.000000, 1042.000000)">
                <g id="dots" transform="translate(550.000000, 290.000000)">
                    <rect id="bound" transform="translate(30.000000, 30.000000) rotate(-270.000000) translate(-30.000000, -30.000000) " x="0" y="0" width="60" height="60"></rect>
                    <g id="Group" transform="translate(3.000000, 3.000000)" fill="#55BC8A">
                        <circle id="Oval-2" cx="27" cy="4.5" r="4.5"></circle>
                        <circle id="Oval-2" cx="27" cy="49.5" r="4.5"></circle>
                        <circle id="Oval-2" transform="translate(49.500000, 27.000000) rotate(-270.000000) translate(-49.500000, -27.000000) " cx="49.5" cy="27" r="4.5"></circle>
                        <circle id="Oval-2" transform="translate(4.500000, 27.000000) rotate(-270.000000) translate(-4.500000, -27.000000) " cx="4.5" cy="27" r="4.5"></circle>
                        <circle id="Oval-2" transform="translate(42.909903, 11.090097) rotate(-315.000000) translate(-42.909903, -11.090097) " cx="42.9099026" cy="11.0900974" r="4.5"></circle>
                        <circle id="Oval-2" transform="translate(11.090097, 42.909903) rotate(-315.000000) translate(-11.090097, -42.909903) " cx="11.0900974" cy="42.9099026" r="4.5"></circle>
                        <circle id="Oval-2" transform="translate(42.909903, 42.909903) rotate(-585.000000) translate(-42.909903, -42.909903) " cx="42.9099026" cy="42.9099026" r="4.5"></circle>
                        <circle id="Oval-2" transform="translate(11.090097, 11.090097) rotate(-585.000000) translate(-11.090097, -11.090097) " cx="11.0900974" cy="11.0900974" r="4.5"></circle>
                    </g>
                    <polygon id="Line" fill="#86DBA2" fill-rule="nonzero" points="28.5 13.5 28.5 22.5 31.5 22.5 31.5 13.5"></polygon>
                    <polygon id="Line" fill="#86DBA2" fill-rule="nonzero" points="28.5 37.5 28.5 46.5 31.5 46.5 31.5 37.5"></polygon>
                    <polygon id="Line" fill="#86DBA2" fill-rule="nonzero" points="46.5 28.5 37.5 28.5 37.5 31.5 46.5 31.5"></polygon>
                    <polygon id="Line" fill="#86DBA2" fill-rule="nonzero" points="22.5 28.5 13.5 28.5 13.5 31.5 22.5 31.5"></polygon>
                    <polygon id="Line" fill="#86DBA2" fill-rule="nonzero" transform="translate(38.485281, 21.514719) rotate(-315.000000) translate(-38.485281, -21.514719) " points="36.9852814 17.0147186 36.9852814 26.0147186 39.9852814 26.0147186 39.9852814 17.0147186"></polygon>
                    <polygon id="Line" fill="#86DBA2" fill-rule="nonzero" transform="translate(21.514719, 38.485281) rotate(-315.000000) translate(-21.514719, -38.485281) " points="20.0147186 33.9852814 20.0147186 42.9852814 23.0147186 42.9852814 23.0147186 33.9852814"></polygon>
                    <polygon id="Line" fill="#86DBA2" fill-rule="nonzero" transform="translate(38.485281, 38.485281) rotate(-315.000000) translate(-38.485281, -38.485281) " points="42.9852814 36.9852814 33.9852814 36.9852814 33.9852814 39.9852814 42.9852814 39.9852814"></polygon>
                    <polygon id="Line" fill="#86DBA2" fill-rule="nonzero" transform="translate(21.514719, 21.514719) rotate(-315.000000) translate(-21.514719, -21.514719) " points="26.0147186 20.0147186 17.0147186 20.0147186 17.0147186 23.0147186 26.0147186 23.0147186"></polygon>
                    <circle id="Oval" fill="#242E42" cx="30" cy="30" r="6"></circle>
                </g>
            </g>
        </g>
    </g>
</svg>