<?xml version="1.0" encoding="UTF-8"?>
<svg width="40px" height="40px" viewBox="0 0 40 40" version="1.1" xmlns="http://www.w3.org/2000/svg" xmlns:xlink="http://www.w3.org/1999/xlink">
    <!-- Generator: Sketch 55.2 (78181) - https://sketchapp.com -->
    <title>TemplateIcon/hadoop</title>
    <desc>Created with Sketch.</desc>
    <g id="TemplateIcon/hadoop" stroke="none" stroke-width="1" fill="none" fill-rule="evenodd">
        <g id="hadoop" transform="translate(4.000000, 8.000000)" fill-rule="nonzero">
            <polyline id="路径" fill="#FFFF00" points="11.7922521 5.29230229 9.66496889 5.63779607 7.72423224 6.48873444 6.07592332 7.52559213 4.50727619 9.43973304 3.62121136 10.3783621 2.76412585 10.6942493 2.53756022 10.1402549 2.9338619 9.56832096 3.02293256 8.761667 3.28826275 8.77245584 3.5783069 9.03703332 3.50002509 8.21532517 3.17849257 7.99954837 3.1885287 7.68642112 2.42691188 8.117222 1.7373043 8.93090124 1.59341128 9.65801887 1.8884735 10.2403653 2.16346347 11.2295514 2.72285227 11.4943798 3.31122039 11.4655259 3.86922923 11.1413589 3.49701425 13.0290295 3.86922923 15.1293406 3.45950422 16.0990817 2.11742272 17.5451626 2.35603171 18.4090225 2.99182055 19.410001 4.19051084 20.2534123 4.82629968 20.3406012 5.53321959 20.364437 5.09213167 22.1750803 6.71397029 22.8395976 8.73449418 23.105555 9.42573264 22.6536782 9.47892413 21.4305249 10.2500753 20.1543055 10.3032668 19.1440436 12.1643416 19.2770223 13.8924378 19.1175733 12.1643416 20.1543055 12.4568948 21.4040546 13.5468185 23.105555 14.610272 23.5574318 15.4610849 23.2118125 15.8065787 22.5205741 17.5879918 21.1646929 17.933611 21.4569952 20.725286 21.5635036 21.2835458 21.1116269 21.3366118 20.3137545 21.1506925 19.9683862 21.0175883 17.8147581 20.0871136 15.9536833 20.2466881 15.1294661 20.8049478 15.4220193 22.3735949 16.884158 23.1446206 16.9374749 23.9953081 16.5917302 24.8462465 15.9536833 25.2715275 14.5712063 27.7707748 14.7306554 29.2862304 14.1459253 30.5091329 13.0025592 31.3865415 11.3541248 31.5990566 9.4133882 31.4130118 7.15337716 30.9345393 5.13297872 30.4559414 4.49493175 29.7914241 4.2821658 28.6214623 5.55825974 27.5580088 5.93047471 26.6274087 4.38842332 25.696934 3.53773585 25.1917403 3.21871236 23.1710909 1.54368226 21.5493778 0.666273585 19.9275391 0.533420313 18.039994 0.852443798 16.3915596 1.46376957 15.2483189 2.39436973 14.34444 3.48454436 13.4139653 3.75050181 11.7920012 5.29242774"></polyline>
            <path d="M5.62341931,10.0907015 C3.8016108,12.2157266 4.20631774,14.7927539 4.71126054,17.3179697 C4.4418546,16.6371601 4.17238451,15.956376 3.90285026,15.2756172 L3.60490265,13.4030008 C3.63325472,12.7647029 3.66148133,12.1264051 3.6900843,11.4882326 L4.45584103,9.65852067 L5.60472702,7.95639301 L7.39191088,6.46728222 L9.34920715,5.65874649 L11.6471046,5.36092433 L9.519445,7.78628061 C7.81104476,8.34027499 6.80379366,8.71361903 5.62329386,10.0907015" id="路径" fill="#FFFFCC"></path>
            <path d="M14.2001706,3.61614312 C12.9337365,4.85184163 12.2418707,5.78394721 11.4357186,7.23078081 C10.8592684,8.26575672 10.2125652,9.26272079 9.60625753,10.2832698 C9.29977921,10.7998796 9.27079988,11.2329386 9.17909474,11.8287084 L8.28550281,10.7648786 C8.42751405,10.3393466 8.56927439,9.91381473 8.71103473,9.48840827 L10.1578683,6.89281413 L13.2216479,3.87156263 C13.5478222,3.78638097 13.8739964,3.70145022 14.2001706,3.61614312 M20.4553141,0.552614412 C19.4407868,0.93285829 17.7562224,1.05818446 17.6393015,2.22237555 C17.5561271,3.04935267 17.7016509,3.46484845 18.2000703,4.33974809 C16.9690134,3.06578683 16.6645424,3.26287134 14.2853523,3.65879667 L15.3065285,2.21208852 L17.0937124,1.10560518 L19.3916098,0.595017061 L20.4554396,0.552614412" id="形状" fill="#FFFFCC"></path>
            <path d="M23.2545163,16.3018115 C23.592232,16.5103121 23.5849558,16.6613559 23.5285026,16.8042453 C23.7948364,16.6976114 24.0612957,16.5909775 24.3276295,16.48472 L24.8454938,15.7893416 L25.2297521,14.7987756 L24.738609,14.4295715 L22.5921317,14.7035578 C22.5391911,14.8480781 22.4857487,14.9927238 22.4324318,15.137495 C22.4476114,15.3428593 22.463042,15.5484745 22.4780961,15.7538388 C22.5465927,15.8757778 22.6152148,15.9974659 22.6838368,16.1192794 C22.7903452,16.1724709 22.8967282,16.2259133 23.0033621,16.2791048 C23.0872892,16.2866319 23.17084,16.2944099 23.2545163,16.3018115 M23.0547973,12.6312224 C21.9787987,12.9417152 21.9872039,13.0272732 21.6695604,14.0947411 C22.0889452,13.4218185 22.399438,13.082221 23.0547973,12.6312224 M30.2085508,4.64359193 C30.0173625,4.73203533 29.8309414,4.77443798 29.7115114,4.94944299 C29.4540847,5.32604878 29.2335407,5.64281413 28.8078834,5.90714071 C28.5934866,6.04037033 28.3718135,6.12668105 28.1444952,6.19756122 C27.9559414,6.25614713 27.8425331,6.20370835 27.6820805,6.3192493 C27.7774237,6.33555801 27.8726415,6.35236853 27.9678593,6.36905359 L28.5976265,6.36905359 L29.3740466,5.88970293 L29.8306905,5.41010136 L30.2085508,4.64359193 M13.0703533,7.03118727 C12.6472049,8.18948214 12.2772481,9.1823063 11.6361903,10.230831 C12.4576475,9.34564432 12.9558159,8.59318547 13.426385,7.59245785 C13.6092935,7.20355781 13.6437927,6.7474157 14.1530008,6.91702629 C14.175833,7.30542453 14.2578784,7.69332096 14.2807106,8.08146829 C14.555826,6.10961963 15.3316188,5.28477519 17.1349859,4.51939482 L15.6051034,4.70217784 L14.1664241,5.02182858 L13.4586261,6.0492774 L13.0703533,7.03118727 M16.5640556,6.98552288 C16.9529556,8.8158621 17.5129717,10.5726867 17.7562224,12.4321307 C17.914166,13.6403553 17.9313529,14.22082 17.3235397,15.263323 C16.6591479,15.2202931 16.246663,15.2951877 15.6039743,15.505821 C13.0456393,16.3444651 11.5782316,17.5776546 9.85452629,15.0929597 L11.5054697,15.8710106 C11.8977569,15.7938579 12.2900442,15.716956 12.6822059,15.6395524 C13.3749498,15.2363509 14.0675682,14.8328984 14.7603121,14.4295715 L16.381398,14.1096698 L16.906664,11.9179045 L16.5183912,9.01783922 C16.503337,8.5611953 16.4880319,8.10455138 16.4727268,7.64790747 C16.503337,7.42711261 16.5338218,7.20631774 16.5640556,6.98564833 M20.9710458,18.3112957 C20.7561471,19.7983992 21.4659524,20.597777 21.1720193,21.0085056 C21.0888448,21.1246738 20.9760638,21.3276546 20.8502358,21.3833551 C20.4004918,21.581945 19.7821407,21.3460959 19.7381072,21.4623896 L18.253889,21.4623896 L17.6602519,21.2112354 L18.5735397,20.1379968 C18.8703583,19.4911682 19.1673023,18.8440887 19.4639954,18.1970092 L20.0348003,16.2334404 L20.3317443,16.2334404 L20.9710458,18.3112957" id="形状" fill="#CCCC00"></path>
            <path d="M18.4764402,13.9881072 C18.5969992,14.6632878 18.806378,14.8237405 19.1240215,15.4773434 C18.9126355,16.5436823 18.5730379,17.8116218 18.1643165,18.752509 C17.991946,19.1493125 17.8529456,19.3681002 17.5488509,19.6747039 C17.0357537,20.1928191 16.5172621,20.6439432 15.935543,21.09306 C15.5165345,21.415847 15.2242322,21.2540145 14.707497,21.1808762 C14.4877057,21.5791851 14.4271126,21.8006072 14.0225311,22.0028352 C13.400542,22.3137043 12.8439131,21.6436672 12.3556554,21.2492473 C12.7081744,21.7999799 13.0606935,22.3503362 13.4129617,22.9009434 C13.6565887,23.1292654 13.9002158,23.3574619 14.1437174,23.5859093 L14.7603121,23.6773635 L15.5821457,23.1748043 C15.7269169,22.9009434 15.8714372,22.6268316 16.0160829,22.3529707 C16.320554,22.1246487 16.6251505,21.8963268 16.9293707,21.6677539 C17.3024639,21.3482286 17.6754316,21.0284524 18.0483992,20.7088017 L18.7561973,19.7040596 L19.3953733,18.5167854 C19.6696106,17.6948264 19.9435969,16.8727419 20.2177088,16.0507828 C20.2404155,15.7386592 20.2631222,15.426661 20.2860799,15.1144119 C19.9435969,14.9623645 19.601114,14.8099408 19.2585056,14.657768 C19.0073515,14.4219189 18.7275943,14.2240817 18.4764402,13.9881072 M10.2846999,18.7451074 C11.4370986,18.7451074 12.6542302,18.6811271 13.7099057,18.1970092 C14.0084805,17.7491469 14.3034173,17.3830791 14.6688579,16.9870283 C14.3362856,17.61529 14.2319099,17.9703181 14.1437174,18.6766108 L13.8012344,19.1790446 C12.9334855,19.2017513 12.0658621,19.2245835 11.1981132,19.2475411 C10.9163489,19.216931 10.6348354,19.1865717 10.3531965,19.1562124 C10.3227118,19.1254767 10.2923525,19.0951174 10.2618677,19.0647581 C10.2696457,18.9581242 10.2771728,18.8516158 10.2846999,18.7451074 M10.125,17.9459805 L10.0354275,17.1350612 C9.83859394,18.3203282 9.8858892,19.1146879 9.34042553,20.176385 C8.93295865,20.648334 8.4312776,21.0778804 7.85670915,21.3078332 C7.90525893,21.598881 7.91981132,21.7807858 7.8915847,21.994179 C7.79034524,22.761943 6.25481734,22.4227218 5.62304295,22.3921116 L8.66348856,23.1749297 L9.34845444,22.9009434 C9.42472902,22.4596046 9.50087816,22.0178894 9.57690185,21.5765506 L10.2162033,20.3892764 L10.3303643,19.6585207 L10.1248745,17.946106 M8.41220895,11.2555199 C8.38046969,11.8319701 8.34321056,12.07221 8.59737555,12.5810418 C8.92041349,13.2278703 9.31709153,13.8358089 9.66810518,14.4751104 L9.78226616,13.196382 C9.32574769,12.5493025 8.86897832,11.9024739 8.4123344,11.2556453 M3.72495986,15.6088167 C3.62597852,15.8190737 3.52737354,16.0295815 3.42839221,16.2399639 C3.70037134,17.156388 3.94236752,17.7368527 4.46035729,18.5373595 C4.37003212,18.8616519 4.30253914,19.0035377 4.09504215,19.2678643 C3.63915094,19.1978623 3.23431855,19.1775391 2.77228021,19.1790446 C3.28224107,19.5745935 3.79220193,19.9706443 4.30216279,20.3664442 C4.55331694,20.3205289 4.80459655,20.2748645 5.0557507,20.2293256 L5.80933862,19.4758631 L4.73609996,17.8088619 C4.39888599,17.0755971 4.06192292,16.3420815 3.72495986,15.6088167 M30.2118125,4.3405008 C30.5224308,5.73765556 30.9231232,7.02717282 30.8858641,8.45832497 C30.8401997,10.2140205 30.4980931,12.4318798 28.8712365,13.490566 C27.0494279,14.6763348 24.9107286,14.1154406 22.9119079,13.6073615 L25.3552037,14.6121036 C26.1163187,14.6502409 26.8775592,14.6883782 27.6386742,14.7262646 C28.1562876,14.5740917 28.673901,14.4219189 29.1912635,14.2696206 C29.594716,13.9346648 29.9981684,13.5999599 30.4016208,13.2648786 L31.3149087,11.3469741 L31.6573916,9.1320002 C31.5661883,8.40877158 31.4746086,7.68579386 31.3834053,6.96269069 L30.8810969,4.81633882 C30.658044,4.65764251 30.434991,4.49894621 30.2118125,4.3405008 M3.02418707,8.50499297 C2.19720996,9.0433059 1.87229024,9.27965676 1.96299177,10.2773735 L2.21013147,11.1737254 L2.56051786,11.410829 L2.99332597,11.5550984 L3.77639502,11.3695554 C3.91050281,10.9539342 4.04435969,10.5384384 4.17821658,10.1228171 L3.06546066,10.6690335 L2.80790847,10.6690335 C2.71177277,10.5213066 2.61559318,10.3736082 2.51936973,10.2259384 L2.86975612,9.71070855 L3.05517363,8.73180951 C3.13420815,8.75577077 3.21324267,8.77998294 3.29215175,8.80381875 C3.38837314,8.87959153 3.48446909,8.95511341 3.58069049,9.03050984 L3.5394169,8.51540546 L3.34371236,8.18571859 C3.27847752,8.13051987 3.21324267,8.07582296 3.14800783,8.0207497 L3.02418707,8.50499297 M21.5797371,0.643566841 C22.31388,1.32527098 23.2147481,1.91765355 23.8018617,2.75065235 C24.0290546,3.07306303 24.2814633,3.23803191 23.7980982,3.69354677 C24.3088117,3.54764653 24.4987455,3.56345343 24.9077178,3.61300682 C25.6516459,3.70308109 26.3489061,4.7606383 26.3933159,5.51836612 C26.3845343,5.58924629 26.1866971,5.75020072 25.6115014,5.90902248 C25.6002108,5.93110197 25.2868326,5.86611802 25.2946106,5.8874448 C25.354451,6.05090827 25.4342383,6.07599859 25.5563027,6.15239864 C25.5826475,6.33430349 25.599709,6.61493878 25.7236552,6.81390506 C26.0855831,6.80738157 26.4393567,6.84689884 26.7937575,6.91702629 C26.9129366,7.11486351 26.8951224,7.31270072 26.8850863,7.51066339 L27.2960658,7.44229225 C27.2581794,7.13016861 27.2200422,6.81817041 27.1820303,6.50604677 C27.3037184,6.30055701 27.4254065,6.09494179 27.5473454,5.88970293 L27.0220795,4.70217784 C26.6872491,4.3825271 26.3524187,4.0627509 26.0173374,3.74310016 L25.9207397,3.738333 C25.544075,3.50719535 25.1674274,3.27602982 24.7907969,3.04483641 L22.9479125,1.53715877 L21.5797371,0.643566841 M22.8163137,6.26969591 C22.7775492,6.33743978 22.7190887,6.44557908 22.6441941,6.52059916 C22.9499197,6.80976515 23.100838,7.00346246 23.2098555,7.41256022 C22.8641108,7.58405259 22.518617,7.75579587 22.1729978,7.92716279 L21.2955891,8.76831594 C20.9105781,8.56106985 20.814733,8.40199719 20.6284374,8.00682457 C20.4114061,8.06440686 20.2060418,8.11973103 20.0268968,8.05386893 C20.140556,8.05474709 20.2103071,8.02639502 20.3239663,7.95614211 L20.882226,7.37617925 C21.2109093,7.12728322 21.5395925,6.87813629 21.8682758,6.62936572 L22.5137244,6.41898334 C22.5958952,6.38523685 22.7341429,6.30356784 22.8163137,6.26969591" id="形状" fill="#CCCC00"></path>
            <path d="M23.7703733,7.30115917 C22.6706644,7.89329085 21.6176234,8.48868426 21.0553493,9.61310719 C21.0553493,8.18584404 22.4883832,7.5575823 23.7702479,7.30103372 M20.8370634,4.49342633 C20.0204988,5.05018065 19.4431704,6.17372541 19.5156815,7.2686672 C19.249724,6.32050381 19.3439382,5.42465375 20.1605028,4.76979627 C20.2984996,4.70293055 20.43612,4.63581393 20.5739914,4.56894821 C20.6616821,4.54385789 20.7492473,4.51876756 20.8370634,4.49342633" id="形状" fill="#CCCC00"></path>
            <path d="M31.824995,7.07848254 C31.6769621,6.14474609 31.4314532,5.23835809 31.0907266,4.58663689 C31.0493276,4.50697511 30.9863509,4.42618426 30.90832,4.34915697 C30.7390857,4.1823063 30.4885588,4.02423725 30.2297521,3.93529205 C29.9555149,3.84095243 29.6663489,3.82175833 29.4367724,3.94169008 C29.3771829,3.97305299 29.3217332,4.01319751 29.2724308,4.06337816 C29.1237706,4.21392011 28.9983189,4.39707949 28.8727419,4.58036431 C28.7331142,4.78459956 28.5926084,4.98983842 28.4245032,5.13322963 C28.2296768,5.29982939 27.9859243,5.4009434 27.7559715,5.49327579 C27.6591682,5.25848956 27.5427994,5.03225644 27.4080941,4.81696608 C27.2509033,4.56631373 27.0718838,4.33159374 26.8749247,4.09687375 C26.730851,3.9239901 26.5674995,3.76813059 26.388047,3.63232637 C26.2181855,3.50273485 26.0443095,3.39359193 25.8418306,3.26688579 C25.2990014,2.92691188 24.8367122,2.52145223 24.365265,2.10771277 C24.1509936,1.91978623 23.9345895,1.73010337 23.7229526,1.55560016 C22.6001606,0.629767162 21.5528904,0.180775793 20.4328583,0.110397431 C19.3204787,0.0403954235 18.1458752,0.345995584 16.7590074,0.929847451 C16.0895976,1.21148635 15.5925582,1.54443497 15.1594992,1.9447511 C14.7458852,2.32737856 14.3947461,2.76796467 14.0087314,3.28244179 C13.784173,3.29837415 13.5852067,3.33161883 13.3821006,3.41291148 C13.1582949,3.50248394 12.9329837,3.64750602 12.6630118,3.88573866 C12.4751081,4.05153189 12.2910632,4.22164794 12.1110247,4.39595042 C11.9460898,4.55596789 11.7840634,4.71895622 11.6250251,4.88483541 C10.3624799,5.08769069 9.3337766,5.31162184 8.41245986,5.66840626 C7.47031815,6.03347049 6.63982838,6.5355279 5.78688278,7.2917503 C5.45103453,7.588445 5.14486845,7.91713132 4.87271678,8.27315837 C4.61328282,8.61300682 4.39123344,8.97029305 4.19640707,9.34702429 C4.02579285,9.53582898 3.85480229,9.72639 3.66976114,9.89311521 C3.4893617,10.0555751 3.29704436,10.1924428 3.08151847,10.2753663 L3.08164392,10.2754918 C2.95631774,10.3237906 2.90450622,10.3520173 2.8988609,10.3501355 C2.89258832,10.3466228 2.88907567,10.3278051 2.88029406,10.2931804 C3.18978322,9.99786732 3.23845845,9.56393015 3.26706142,9.13312927 C3.3041951,9.17753914 3.33982336,9.23223605 3.37683159,9.28944199 C3.41772882,9.35254416 3.45962967,9.41765355 3.50981032,9.48100662 L3.71994179,9.74608591 L3.79370735,9.41539542 C3.85568045,9.13827278 3.90209755,8.76931955 3.82983741,8.4494179 C3.78316941,8.24179546 3.68682256,8.05675432 3.51896829,7.92565737 C3.53502609,7.88375652 3.55020574,7.84511742 3.56513448,7.80698013 C3.61782417,7.67211963 3.67214472,7.53374649 3.71818547,7.40302589 L3.80926335,7.14396829 L3.53828784,7.19088719 C3.17773986,7.25361301 2.40295062,7.67939582 1.85723605,8.24555901 C1.65463167,8.45594139 1.48037937,8.68840325 1.36609293,8.93228121 C1.24716479,9.18606985 1.19384785,9.45165094 1.24001405,9.71735749 C1.28015857,9.9496939 1.39645223,10.177765 1.60758731,10.392789 C1.64610096,10.5479727 1.68160377,10.6825823 1.71961562,10.8040195 C1.76314733,10.9421417 1.80994079,11.0657116 1.8685267,11.1873996 C2.02734845,11.5175883 2.28050984,11.7193145 2.57356483,11.8134033 C2.80903754,11.8890506 3.06947511,11.8928141 3.32489462,11.8368627 C3.27303452,12.1411374 3.24176784,12.4485651 3.23130771,12.7570504 C3.21512445,13.1879767 3.23093135,13.6640656 3.27835207,14.2165546 C3.28876455,14.3378663 3.30444601,14.4712214 3.32464372,14.6162435 C3.34220695,14.7399388 3.36303191,14.861376 3.38548776,14.981935 C3.33781614,15.1121538 3.28976817,15.2426234 3.24184564,15.3728422 L3.01891811,15.9796517 L2.52840225,16.4657768 C2.37572762,16.6166951 2.22305299,16.7679898 2.07050381,16.919159 C2.05795865,16.9317041 2.00639803,16.9811321 1.95973003,17.0261692 C1.65049177,17.3237405 1.58927138,17.3828282 1.67708752,17.9064633 C1.73334362,18.2415702 1.84273385,18.5655482 2.00112906,18.8661682 C2.15292553,19.1553342 2.35665897,19.4368477 2.61810016,19.6990415 C2.94427439,20.0259685 3.47894922,20.4321809 4.03871437,20.6449468 C4.35861602,20.766384 4.68830289,20.8258481 4.99779205,20.7761692 C4.98198515,20.8238408 4.96668005,20.8712615 4.94924227,20.9191841 C4.90026091,21.0550403 4.84585489,21.1888791 4.78615516,21.3203784 C4.40641309,22.1527499 4.79619129,22.5874398 5.40287535,22.8640606 C5.70584103,23.0020574 6.06601265,23.0958952 6.40059213,23.1832096 C6.46908872,23.2007728 6.53758531,23.2188378 6.62389603,23.2421718 C7.02032316,23.3493075 7.70541449,23.5461411 8.3311672,23.5856584 C9.01412585,23.6288137 9.63009334,23.4878061 9.79518768,22.8748495 C9.86042252,22.6318497 9.89843436,22.4458049 9.91386491,22.2635237 C9.92804095,22.0944149 9.92264653,21.9235498 9.90282517,21.7120383 C10.0975261,21.2804847 10.1800733,21.159173 10.3224609,20.9510488 C10.3503111,20.9099006 10.3840576,20.8607236 10.3942192,20.8451676 C10.5468938,20.6189783 10.6184012,20.4584002 10.6443697,20.2776244 C10.6694601,20.1031212 10.6481333,19.9292453 10.6166449,19.6635387 C10.6136341,19.638323 10.6091178,19.6014402 10.6024689,19.5526395 C10.9957168,19.6036989 11.3917009,19.6308464 11.7882377,19.6339322 C11.9872039,19.6351867 12.1860448,19.6292904 12.3848856,19.618878 C12.3340777,19.6448464 12.2842734,19.6706895 12.2298274,19.6986652 L12.1558109,19.736677 C11.6284123,20.0079035 11.6064582,20.5216279 11.7715526,21.0501556 C11.9203382,21.5267463 12.2266911,22.0133731 12.418883,22.3093135 C12.8228372,22.9319299 13.2083501,23.4589522 13.6757828,23.7453583 C14.1656714,24.045564 14.7254366,24.0809414 15.4479125,23.6899087 C15.8154857,23.4909424 15.9314031,23.2880871 16.0874649,23.0146026 C16.1352619,22.9311772 16.1879516,22.8402248 16.246663,22.7505269 C16.3984595,22.6499147 16.7764452,22.3381674 17.1474057,22.0314382 C17.2737354,21.9270624 17.3999398,21.8231885 17.5423274,21.7071457 C17.6404305,21.7792804 17.7588569,21.8293356 17.9019972,21.8634585 C18.0879165,21.9079938 18.3093386,21.928066 18.5746688,21.9471347 C18.7732587,21.9616871 19.42084,21.9611853 19.8392212,21.9610598 C19.9684364,21.9610598 20.0756975,21.9610598 20.1400542,21.9614362 C20.5719841,21.9640707 20.9206142,21.9413639 21.1840626,21.7920765 C21.4648234,21.6328784 21.6312977,21.3509886 21.6676786,20.8454185 C21.6834855,20.6208601 21.6864964,20.4823615 21.6552589,20.3409775 C21.6261542,20.2085006 21.5693246,20.0884434 21.4717232,19.9128111 C21.4658064,19.6943179 21.4599519,19.475823 21.45416,19.2573264 C21.4481383,19.0256172 21.4416148,18.7936572 21.4355931,18.561948 C21.4281915,18.2887144 21.3980831,18.066665 21.3426335,17.8482537 C21.2876857,17.6313479 21.209153,17.4227218 21.1040245,17.1723204 C21.0386424,17.014576 20.9768209,16.8553794 20.918607,16.6948515 L20.7670614,16.7503011 L20.7903954,16.7417704 L20.918607,16.6948515 L20.918607,16.6942242 C20.8282818,16.4505971 20.7392112,16.2133681 20.6145122,15.9595795 C20.6225411,15.9106534 20.6306955,15.8579637 20.638599,15.8017613 L20.8794661,16.0338468 L21.2344942,16.3759534 C21.5052188,16.6367674 21.7527348,16.8739964 22.0435317,17.0453633 C22.3442393,17.2228774 22.6823314,17.3258731 23.1201576,17.3050482 C23.5785578,17.2834705 24.0690737,17.0904004 24.4729024,16.7924528 C24.8635588,16.5040395 25.1770624,16.1151395 25.3079085,15.684715 L25.4213167,15.3113709 L25.5118928,15.0134233 C26.1547069,15.1223153 26.8446909,15.1574418 27.5110899,15.0876907 C28.154155,15.0200723 28.7753914,14.8563579 29.3111953,14.5705791 C30.0987806,14.1503161 30.6892814,13.5313378 31.1136843,12.7963167 L31.1139352,12.7963167 C31.5881423,11.9748595 31.8537234,11.0068747 31.9545865,10.0107888 C32.0355028,9.21191289 31.9913438,8.12587816 31.824995,7.07848254 L31.824995,7.07848254 Z M23.4966379,13.7924026 C23.1261792,13.6677037 22.8686271,13.4857989 22.5432055,13.2806855 C22.6317744,13.679998 22.6720444,14.1022682 22.5541198,14.500828 C22.366946,15.1333551 22.0646076,16.1680801 22.923324,16.3590175 C23.2501255,16.4315285 23.3984093,16.421116 23.8596949,16.1830088 C23.4863509,16.2675632 23.298048,16.2469892 23.0413739,16.1993175 C22.8087866,16.1565385 22.6854677,16.008882 22.6204837,15.8346297 C22.7017764,15.8932156 22.8342533,15.9250803 23.0608189,15.9796517 C23.6973605,16.1332045 24.3039191,15.8266008 24.4225963,15.3852619 C24.4915947,15.1273334 24.4799277,14.9918456 24.6265807,14.6403302 C24.7583049,14.681102 24.8944199,14.7181102 25.034173,14.7519821 L24.7975713,15.5233842 C24.5930851,16.1907868 23.79584,16.7289743 23.0920564,16.7165546 C22.4414643,16.7051385 22.0288539,16.2975462 21.5796116,15.8979827 C21.2702479,15.622491 20.9724257,15.359168 20.6773635,15.0982286 C19.8675733,14.8426837 19.2184866,14.5441088 18.4669059,13.9877308 C19.0018316,14.6162435 19.3645122,14.9642463 20.1104476,15.2769972 C20.0020574,16.3834805 19.6174227,17.1903854 19.2896176,18.2493226 C19.1410829,18.728046 17.9697411,20.6468286 17.6450723,20.833877 C17.413614,20.967232 15.9636441,22.1883782 15.6910377,22.3495835 C15.4878061,22.6193045 15.3095393,22.9921467 15.0040646,23.1534775 C14.0734645,23.6456242 13.4754366,22.7033571 12.9746337,21.9076174 C12.7466881,21.5450622 12.1134083,20.5008029 12.6653954,20.2082497 C13.1872742,19.9318798 13.4795765,19.7344189 14.0121186,19.3846598 C14.0904004,19.5272983 14.2245082,19.6650442 14.311948,19.8074318 L14.2539894,19.339999 C14.2188629,19.0577328 14.2203683,18.8285327 14.2426987,18.5445102 C14.2645273,18.2695203 14.286105,17.9945303 14.3076827,17.7194149 C14.2275191,17.9990466 14.0674428,18.2785528 13.9875301,18.5579336 C13.9555399,18.6698364 13.9290697,18.7601616 13.9137646,18.8439633 C12.7189633,19.0880921 11.5328181,19.1032718 10.337766,18.8901295 C10.2614914,18.4476616 10.1686572,17.9866269 10.0907517,17.6560618 C10.0671668,18.0261441 10.0823464,19.0495785 10.0804647,19.6226415 C10.0789593,20.0664894 10.0603924,20.2185367 9.83131774,20.5961461 C9.61704637,20.9496688 9.52634484,21.0299578 9.2261391,21.6273585 C9.25122943,22.0043406 9.25160578,22.2533621 9.15149538,22.6111501 C8.98502108,23.2059163 7.30484745,22.7451325 6.86175231,22.6236953 C6.31591228,22.4744079 5.18760036,22.2523585 5.47137194,21.5247391 C5.72102067,20.884434 5.87934063,20.2092533 6.00140506,19.3132778 C5.00143015,17.8727168 4.0715827,15.8987354 3.89306503,14.1496889 C3.75444099,12.791675 3.83761542,11.9557908 4.13142312,11.1250502 C4.59709956,9.80881172 5.2486953,8.66946006 6.29395825,7.75203232 C7.70403452,6.51470293 9.02202931,6.01791449 11.0859595,5.70365817 C10.5896728,6.25940887 10.0986552,6.84677338 9.56347852,7.476666 C9.02165295,8.11433661 8.69986953,8.75840526 8.35575572,9.45604175 C7.88054496,10.4193848 7.890832,10.7859544 8.52072461,11.6317493 C9.06355379,12.3606232 9.35660879,12.6886792 9.59371236,13.4018717 C9.39800783,13.8053242 9.3267513,14.1464271 9.26101465,14.6972852 C9.92565737,15.4240265 10.4196859,15.9218185 11.065009,16.0751204 C11.6981634,16.2256624 12.2266911,16.1965576 12.7932306,15.9070153 C14.0511341,15.2639502 15.2150743,14.4334605 16.6340576,14.3990867 C17.290546,12.785277 17.2241821,11.436672 16.9090476,9.87517563 C16.6937726,8.80871136 16.6073364,7.79895122 16.5404707,6.71178743 C16.2743878,7.8314432 16.2243326,8.81598756 16.4217935,9.93137796 C16.6599006,11.2753412 16.8449418,12.7603121 16.1828081,13.9415646 C14.8995634,14.0397933 13.7999799,14.8204787 12.6435668,15.4193848 C12.1786431,15.6602519 11.6946507,15.6837114 11.1801736,15.5424528 C10.7025793,15.4112304 10.3802941,15.0952178 9.86581694,14.5018316 C9.85766259,13.9060618 9.99214673,13.6311973 10.2657567,13.0915044 C10.7053392,12.22501 11.1904607,11.4184815 11.7228774,10.5660377 C11.0710307,11.3528703 10.4533069,12.0103623 9.94020976,12.8015857 C9.74400341,12.2428242 9.46349358,11.9590526 8.99894621,11.3297872 C8.54518768,10.7151997 8.49776696,10.4462314 8.83711361,9.73492071 C9.17821658,9.0202228 9.46750803,8.39208651 10.0482236,7.76507929 C11.0514603,6.68155359 11.9706443,5.47571257 13.0678442,4.40862104 C13.663614,3.82928543 13.9054847,3.84923224 14.6957045,3.72955138 C15.4100261,3.62116118 16.1072862,3.48454436 16.8356584,3.31543557 C16.1312475,3.38104677 15.4502961,3.40513348 14.764452,3.42206945 L14.7431253,3.42269671 C15.418055,2.56096949 15.8095895,2.08074067 16.9054095,1.60452629 C19.603623,0.432808109 21.318045,0.306101967 23.4375502,2.08764051 C23.9869029,2.54955339 24.4666299,2.99779205 25.0235096,3.39610096 C24.8215325,3.41341329 24.6475311,3.44966881 24.4173274,3.53999398 C24.6974609,3.48655159 25.0210006,3.53949217 25.3117975,3.59268366 C25.393341,3.64562425 25.4773936,3.69731032 25.5630771,3.74786732 C25.9563679,3.97957648 26.1795464,4.10753713 26.4455038,4.47799578 C26.7265155,4.86953031 26.9608591,5.26081393 27.167227,5.69211662 C27.0319902,5.64369229 26.9184564,5.60292051 26.8173424,5.57293758 C26.5883298,5.46794647 26.3219865,5.48442519 26.1076626,5.61684564 L26.0913539,5.62437274 C25.8738208,5.73037937 25.5368577,5.85106383 25.3114211,5.8876957 C25.4264603,5.92733842 25.6808762,5.94226716 25.8008079,5.894721 C25.8168657,5.88844841 25.8331744,5.88343035 25.8499849,5.87954135 C25.7943477,5.97419016 25.760093,6.07986601 25.7496236,6.18915596 C25.7355778,6.33345037 25.7635013,6.47873104 25.8300381,6.60753713 L25.8306654,6.6089171 C25.8509886,6.65683962 25.8793406,6.70087314 25.9104526,6.73273786 C25.8074568,6.7707497 25.7022029,6.81415596 25.5936873,6.86120032 C26.0966228,6.78467483 26.550005,6.77150241 27.0406463,6.83611 C27.0730128,6.99079185 27.1056303,7.15475713 27.1359896,7.32148234 L26.9535829,7.33578382 C26.9486857,7.33614636 26.9437928,7.33656456 26.9389051,7.33703834 C26.7066941,7.15149538 26.4480128,7.18273284 26.0946156,7.26339823 C25.0197461,7.50840526 25.2722802,8.11145122 24.7780008,9.0202228 C25.2913489,8.39271377 25.2532116,7.73609996 26.0898485,7.53788639 C26.2848003,7.49184564 26.4175281,7.43401244 26.5495032,7.4538338 C26.3120233,7.57326375 26.106659,7.77135187 26.0251154,8.0013047 C25.7955389,8.64976415 25.938052,9.19610598 25.6857688,9.80178643 C25.9981433,9.26033721 26.0170865,8.73193497 26.2965927,8.16213368 C26.396954,7.95764753 26.7692945,7.63021879 26.9978673,7.62520072 L27.1860448,7.62106082 C27.2412435,7.98135789 27.2747391,8.33927138 27.2534123,8.63608992 C27.2143968,9.17779004 27.0736401,9.98180951 26.9894621,10.2895424 C27.2724809,9.92560719 27.4014452,9.15495785 27.5257678,8.61225411 C27.6552338,8.0474709 27.622491,7.36965576 27.5092081,6.76272079 C27.3536481,5.93009835 28.2112354,6.06558611 28.7090275,5.67317342 C29.0749699,5.38463468 29.3270022,4.92410177 29.6624599,4.59767664 C29.995283,4.27401144 30.5192945,4.74959855 30.6501405,5.0658621 C31.2176837,6.43918105 31.4762395,8.5995835 31.3264502,9.98394219 C31.1580941,11.5372842 30.4078934,13.2330138 29.0378362,13.997767 C27.2912987,14.9725261 25.2320102,14.3770072 23.4966379,13.7924026 L23.4966379,13.7924026 Z M21.0149538,20.6914894 C20.9579988,21.3324217 20.7443547,21.3746989 20.1815787,21.3649137 C19.9259083,21.3603974 18.9077429,21.3557557 18.6493125,21.3335508 C18.2842483,21.3020624 18.0792603,21.269445 17.9677338,21.1861451 C18.5412987,20.7651295 19.5158069,19.0268717 19.7058661,18.428342 C19.9068396,17.7960658 20.1267563,17.2443296 20.2903452,16.6599759 C20.3656162,16.9042302 20.4249548,17.1462264 20.5344741,17.4056604 C20.7172571,17.8392212 20.8067041,18.1070604 20.8197511,18.5721096 L20.8611501,20.0440335 C21.018341,20.3190235 21.0428041,20.3777348 21.0149538,20.6913639 L21.0149538,20.6914894 Z M3.75368828,15.8362605 C4.11787435,17.0961712 4.73835809,18.3342533 5.42620935,19.3751255 L5.42620935,19.3933159 C5.38292854,19.5723354 5.33312425,19.7464623 5.22862304,19.8863408 C4.73685267,20.5442092 3.48635086,19.578608 3.12429747,19.2092784 C2.72862304,18.8050733 2.46379466,18.3267262 2.40069249,17.8778603 C2.3547772,17.5506825 2.39943798,17.5426536 2.62775994,17.3110699 L3.55133481,16.3760789 L3.75368828,15.8362605 L3.75368828,15.8362605 Z M3.05805901,7.91273585 C2.964723,8.1130821 2.89848454,8.26500401 2.85344741,8.42131674 C2.65736652,9.09850462 2.94214171,9.70293055 2.32730329,10.1938228 C2.61621839,10.776671 2.60292051,11.0092583 3.27496487,10.7399137 C3.53414793,10.6357888 3.7479175,10.490265 3.93885488,10.3178944 C3.84642757,10.5579975 3.76145612,10.8009045 3.68406263,11.0462666 C3.67076475,11.0876656 3.65809414,11.129441 3.64592533,11.17084 C3.16532015,11.3748244 2.53316941,11.5044159 2.29129868,10.9993477 C2.17387595,10.7540897 2.10751204,10.5134735 2.02182858,10.203608 C1.23035428,9.38365616 2.41348856,8.30100863 3.05805901,7.91273585 Z M3.4470845,8.78136291 C3.34935769,8.68351064 3.27120132,8.61739763 3.14487154,8.63169912 C3.15553493,8.54890104 3.16971096,8.46898836 3.18965777,8.39396829 C3.1996939,8.35532919 3.21048274,8.31744279 3.22202429,8.27943095 C3.38586411,8.37489964 3.42901947,8.54789743 3.4470845,8.78123745 L3.4470845,8.78136291 Z M27.1797722,5.71858691 C27.2096297,5.78156363 27.2389853,5.84566941 27.2678392,5.9105279 C27.2440034,5.92809113 27.2212967,5.94653252 27.2000953,5.96597752 C27.1611127,5.87497285 27.1048306,5.79240314 27.0343737,5.72285227 C27.0815436,5.72109595 27.1299679,5.71959053 27.1798976,5.71858691 L27.1797722,5.71858691 Z M3.13985347,10.4262846 L3.13972802,10.4262846 L3.1343336,10.4124849 L3.13972802,10.4264101 L3.13985347,10.4262846 Z M0.347049378,10.2290747 C0.47300281,8.80306604 0.750250903,8.18734946 1.76339823,7.1141108 C0.492573264,8.0095845 0.175431554,8.41654958 0.347049378,10.2289492 L0.347049378,10.2290747 Z" id="形状" fill="#000000"></path>
            <path d="M0.0192442794,9.06425632 C0.159122842,8.4224458 0.289592533,8.18019872 0.685392413,7.65342734 C0.0432055399,8.1019169 -0.0403452429,8.28607989 0.0191188278,9.06425632 M14.92917,0.117171819 C14.1678041,0.300707547 14.0226566,0.441464271 13.7943346,1.18777599 C14.1586461,0.641308711 14.3684012,0.463543758 14.92917,0.117171819" id="形状" fill="#000000"></path>
            <path d="M16.1297421,0.00853071056 C14.6196809,0.378613007 14.1759585,0.641810518 13.6744029,2.39198615 C14.311948,1.11012144 14.7946859,0.638172421 16.1297421,0.00840525893 M19.38195,6.38849859 C19.5429045,5.67543155 19.8289342,4.988333 20.9362957,4.45666901 C19.4685116,4.82424227 19.1932708,5.44083701 19.38195,6.38862405 M28.7215727,6.43780108 C29.590827,6.12793557 30.0098354,5.42904456 30.2179597,4.6068346 C29.8777348,5.29594039 29.3527198,5.87226515 28.6395273,6.22528603 C28.2567744,6.41471798 28.0122692,6.34860498 27.5848555,6.3080841 C28.0195454,6.43290847 28.2949117,6.58984845 28.7215727,6.43780108 M22.800005,7.13656664 C22.6885335,6.90282766 22.4897227,6.72221746 22.246387,6.63363107 C22.4596548,6.51984645 22.6690335,6.40029105 22.8323715,6.25163087 C22.3537736,6.47317844 21.7966429,6.41910879 21.3859143,6.69648234 C21.0242373,6.9408621 20.5249398,7.71514954 20.1573665,8.04345644 C20.4235749,7.9400843 20.6801234,7.76131574 20.9163489,7.57301285 C20.919003,7.93749564 21.1228332,8.2706806 21.4461311,8.43900542 C21.3102342,8.61699391 21.202042,8.8145145 21.1252258,9.02486451 C21.8251204,8.19537836 22.8398986,7.56887294 23.7940837,7.30103372 C23.5273735,7.29727017 23.2116118,7.34707447 22.8899538,7.45283019 C22.8779486,7.3431049 22.8475399,7.23618691 22.800005,7.13656664 M21.7930048,13.4043808 C21.7590074,13.619154 21.7123394,13.886115 21.678342,14.1010136 C21.7692945,13.8578884 21.8786883,13.5753713 21.984444,13.3435367 C22.0965978,13.0981534 22.1596999,13.0750703 22.3976817,12.9456042 C22.5664141,12.8537736 22.872767,12.7275692 23.0414994,12.6357387 C22.8678743,12.6649689 22.5567543,12.7288238 22.3831293,12.758054 C21.9194601,12.8363358 21.8648886,12.9477369 21.7930048,13.4043808 M13.8722401,5.11165195 C13.3340526,5.64356684 12.8112957,7.468888 12.6443196,8.19926736 C12.9073916,7.5925833 13.5657617,5.89547371 14.07083,5.46379466 C14.2103322,5.34449016 14.3078081,5.27122642 14.4125602,5.21790947 C14.0510086,5.82421718 14.0776044,5.97501004 14.204436,6.78730931 C14.3121989,5.96146126 14.5977268,5.64243778 15.0662886,5.02634484 C15.5798876,4.89750602 16.0606182,4.74307507 16.5875151,4.53758531 C15.99408,4.60467557 15.4000415,4.66631673 14.8054747,4.722501 C14.3064281,4.76979627 14.2260136,4.76176736 13.8721146,5.11165195" id="形状" fill="#000000"></path>
            <path d="M21.2036331,8.21883782 C21.1057627,8.01298335 21.193115,7.76675787 21.3988358,7.66860699 C21.5078475,7.61694538 21.6339538,7.61532275 21.7442586,7.66416239 C21.8545634,7.71300203 21.9381279,7.80746053 21.9731534,7.92289743 C21.7766961,8.06879767 21.596673,8.2404155 21.4456293,8.43938177 C21.3440134,8.39848454 21.2539392,8.32421718 21.2035076,8.21883782 M25.7993025,6.44093737 C25.8158621,6.27095042 25.9607587,6.14562425 26.1307457,6.16205841 C26.3010054,6.17885028 26.4256963,6.33006046 26.4097501,6.50040145 C26.4062298,6.53548953 26.3967698,6.56972376 26.3817744,6.60164091 C26.2262144,6.6283621 26.0706544,6.67377559 25.9103272,6.73273786 C25.843336,6.66411582 25.7898936,6.53891509 25.7993025,6.44093737" id="形状" fill="#FFFFCC"></path>
        </g>
    </g>
</svg>