<svg xmlns="http://www.w3.org/2000/svg" width="406" height="494" viewBox="0 0 406 494">
    <g fill="#FFF" fill-rule="evenodd">
        <path d="M38.472 0h224.095a4 4 0 0 1 3.548 5.847l-103.039 198a4 4 0 0 1-3.548 2.153H-64.567a4 4 0 0 1-3.548-5.847l103.039-198A4 4 0 0 1 38.472 0z" opacity=".2"/>
        <path d="M134.007 150h166.565a4 4 0 0 1 3.548 5.848l-76.58 147a4 4 0 0 1-3.547 2.152H57.428a4 4 0 0 1-3.548-5.848l76.58-147a4 4 0 0 1 3.547-2.152zM306.267 244h95.31a4 4 0 0 1 3.555 5.834l-43.844 85a4 4 0 0 1-3.555 2.166h-95.31a4 4 0 0 1-3.555-5.834l43.844-85a4 4 0 0 1 3.555-2.166z" opacity=".1"/>
        <path d="M159.267 259h95.31a4 4 0 0 1 3.555 5.834l-43.844 85a4 4 0 0 1-3.555 2.166h-95.31a4 4 0 0 1-3.555-5.834l43.844-85a4 4 0 0 1 3.555-2.166z" opacity=".1"/>
        <path d="M117.91 372h33.674a4 4 0 0 1 3.554 5.836l-15.495 30A4 4 0 0 1 136.09 410h-33.673a4 4 0 0 1-3.554-5.836l15.495-30A4 4 0 0 1 117.91 372z" opacity=".2"/>
        <path d="M158.91 390h33.674a4 4 0 0 1 3.554 5.836l-15.495 30A4 4 0 0 1 177.09 428h-33.673a4 4 0 0 1-3.554-5.836l15.495-30A4 4 0 0 1 158.91 390z" opacity=".3"/>
        <path d="M102.91 428h33.674a4 4 0 0 1 3.554 5.836l-15.495 30A4 4 0 0 1 121.09 466H87.416a4 4 0 0 1-3.554-5.836l15.495-30A4 4 0 0 1 102.91 428zM176.91 456h33.674a4 4 0 0 1 3.554 5.836l-15.495 30A4 4 0 0 1 195.09 494h-33.673a4 4 0 0 1-3.554-5.836l15.495-30A4 4 0 0 1 176.91 456z" opacity=".1"/>
        <path d="M221.91 362h33.674a4 4 0 0 1 3.554 5.836l-15.495 30A4 4 0 0 1 240.09 400h-33.673a4 4 0 0 1-3.554-5.836l15.495-30A4 4 0 0 1 221.91 362z" opacity=".05"/>
    </g>
</svg>
