<svg width="24" height="24" viewBox="0 0 24 24" fill="none" xmlns="http://www.w3.org/2000/svg">
<path fill-rule="evenodd" clip-rule="evenodd" d="M0.927612 9.69331C0.927612 11.7013 2.01989 13.5358 3.70796 14.7505C3.85691 14.8496 3.93138 14.9984 3.93138 15.1967C3.93138 15.2463 3.90656 15.3206 3.90656 15.3702C3.78243 15.866 3.55901 16.6841 3.53419 16.7089C3.50936 16.7832 3.48454 16.8328 3.48454 16.9072C3.48454 17.0559 3.60866 17.1799 3.75761 17.1799C3.80726 17.1799 3.85691 17.1551 3.90656 17.1303L5.6691 16.1139C5.79322 16.0395 5.94217 15.99 6.09111 15.99C6.16559 15.99 6.26489 15.99 6.33936 16.0147C7.15857 16.2626 8.05225 16.3866 8.97076 16.3866C13.4144 16.3866 17.0139 13.387 17.0139 9.69331C17.0139 5.99961 13.4144 3.00003 8.97076 3.00003C4.52717 3.00003 0.927612 5.99961 0.927612 9.69331Z" fill="url(#paint0_linear_1406_15837)"/>
<path fill-rule="evenodd" clip-rule="evenodd" d="M16.4648 20.3256C17.2325 20.3256 17.9754 20.2257 18.6441 20.0259C18.6936 20.0009 18.7679 20.0009 18.8422 20.0009C18.966 20.0009 19.0899 20.0509 19.1889 20.1008L20.65 20.95C20.6996 20.975 20.7243 21 20.7739 21C20.8977 21 20.9967 20.9001 20.9967 20.7752C20.9967 20.7253 20.972 20.6753 20.972 20.6004C20.972 20.5754 20.7739 19.901 20.6748 19.4764C20.65 19.4265 20.65 19.3765 20.65 19.3266C20.65 19.1767 20.7243 19.0518 20.8481 18.9519C22.2597 17.9279 23.1513 16.4044 23.1513 14.706C23.1513 11.6089 20.1547 9.08633 16.4648 9.08633C12.7749 9.08633 9.77832 11.584 9.77832 14.706C9.77832 17.803 12.7749 20.3256 16.4648 20.3256Z" fill="url(#paint1_linear_1406_15837)"/>
<path d="M6.28976 8.5684C6.86669 8.5684 7.32342 8.11065 7.32342 7.53243C7.32342 6.95421 6.86669 6.49646 6.28976 6.49646C5.71284 6.49646 5.2561 6.95421 5.2561 7.53243C5.2561 8.11065 5.71284 8.5684 6.28976 8.5684Z" fill="#168743"/>
<path d="M11.6518 8.5684C12.2288 8.5684 12.6855 8.11065 12.6855 7.53243C12.6855 6.95421 12.2288 6.49646 11.6518 6.49646C11.0749 6.49646 10.6182 6.95421 10.6182 7.53243C10.6182 8.11065 11.0749 8.5684 11.6518 8.5684Z" fill="#168743"/>
<path d="M14.3004 13.8778C13.798 13.8778 13.396 13.475 13.396 12.9714C13.396 12.4678 13.798 12.0649 14.3004 12.0649C14.8029 12.0649 15.2049 12.4678 15.2049 12.9714C15.2049 13.475 14.8029 13.8778 14.3004 13.8778Z" fill="#919191"/>
<path d="M18.7581 13.8778C18.2557 13.8778 17.8537 13.475 17.8537 12.9714C17.8537 12.4678 18.2557 12.0649 18.7581 12.0649C19.2606 12.0649 19.6626 12.4678 19.6626 12.9714C19.6626 13.475 19.2606 13.8778 18.7581 13.8778Z" fill="#919191"/>
<defs>
<linearGradient id="paint0_linear_1406_15837" x1="8.9797" y1="16.3504" x2="8.9797" y2="3.06193" gradientUnits="userSpaceOnUse">
<stop stop-color="#05CD66"/>
<stop offset="1" stop-color="#9EEE69"/>
</linearGradient>
<linearGradient id="paint1_linear_1406_15837" x1="16.4767" y1="20.2298" x2="16.4767" y2="9.08204" gradientUnits="userSpaceOnUse">
<stop stop-color="#E4E6E6"/>
<stop offset="1" stop-color="#F0F0F0"/>
</linearGradient>
</defs>
</svg>
