<svg width="89" height="28" viewBox="0 0 89 28" fill="none" xmlns="http://www.w3.org/2000/svg">
<rect width="89" height="28" rx="4" fill="#EFF4F9"/>
<path d="M18.0001 5.66666C13.3959 5.66666 9.66675 9.39582 9.66675 14C9.6658 15.7494 10.2158 17.4547 11.2386 18.8739C12.2614 20.2931 13.7052 21.3542 15.3651 21.9067C15.7818 21.9792 15.9376 21.7292 15.9376 21.51C15.9376 21.3125 15.9268 20.6567 15.9268 19.9583C13.8334 20.3442 13.2917 19.4483 13.1251 18.9792C13.0309 18.7392 12.6251 18 12.2709 17.8017C11.9792 17.6458 11.5626 17.26 12.2601 17.25C12.9167 17.2392 13.3851 17.8542 13.5417 18.1042C14.2917 19.3642 15.4901 19.01 15.9684 18.7917C16.0417 18.25 16.2601 17.8858 16.5001 17.6775C14.6459 17.4692 12.7084 16.75 12.7084 13.5625C12.7084 12.6558 13.0309 11.9067 13.5626 11.3225C13.4792 11.1142 13.1876 10.26 13.6459 9.11416C13.6459 9.11416 14.3434 8.89582 15.9376 9.96916C16.616 9.78087 17.3169 9.68611 18.0209 9.68749C18.7293 9.68749 19.4376 9.78082 20.1043 9.96832C21.6976 8.88499 22.3959 9.11499 22.3959 9.11499C22.8543 10.2608 22.5626 11.115 22.4793 11.3233C23.0101 11.9067 23.3334 12.6458 23.3334 13.5625C23.3334 16.7608 21.3859 17.4692 19.5318 17.6775C19.8334 17.9375 20.0943 18.4375 20.0943 19.2192C20.0943 20.3333 20.0834 21.2292 20.0834 21.5108C20.0834 21.7292 20.2401 21.9892 20.6568 21.9058C22.3109 21.3473 23.7484 20.2842 24.7667 18.8659C25.785 17.4477 26.3329 15.7459 26.3334 14C26.3334 9.39582 22.6043 5.66666 18.0001 5.66666Z" fill="black"/>
<path d="M40.1206 14.628H41.7586V18.352C41.2453 18.7347 40.6386 19.0473 39.9386 19.29C39.2386 19.5233 38.5526 19.64 37.8806 19.64C36.9193 19.64 36.0419 19.416 35.2486 18.968C34.4646 18.52 33.8439 17.9133 33.3866 17.148C32.9293 16.3733 32.7006 15.5193 32.7006 14.586C32.7006 13.6527 32.9339 12.808 33.4006 12.052C33.8673 11.2867 34.5019 10.6847 35.3046 10.246C36.1166 9.798 37.0126 9.574 37.9926 9.574C38.6926 9.574 39.3833 9.7 40.0646 9.952C40.7459 10.204 41.3339 10.5493 41.8286 10.988L40.7646 12.374C40.3913 12.0193 39.9573 11.744 39.4626 11.548C38.9773 11.352 38.4873 11.254 37.9926 11.254C37.3766 11.254 36.8073 11.4033 36.2846 11.702C35.7713 11.9913 35.3653 12.3927 35.0666 12.906C34.7679 13.4193 34.6186 13.9793 34.6186 14.586C34.6186 15.202 34.7679 15.7667 35.0666 16.28C35.3746 16.7933 35.7853 17.1993 36.2986 17.498C36.8119 17.7967 37.3813 17.946 38.0066 17.946C38.3426 17.946 38.6926 17.8947 39.0566 17.792C39.4299 17.68 39.7846 17.526 40.1206 17.33V14.628ZM43.8596 12.01H45.6796V19.5H43.8596V12.01ZM44.7556 8.79C45.0543 8.79 45.3016 8.89267 45.4976 9.098C45.6936 9.30333 45.7916 9.56467 45.7916 9.882C45.7916 10.19 45.6936 10.4467 45.4976 10.652C45.3016 10.8573 45.0543 10.96 44.7556 10.96C44.4569 10.96 44.2096 10.8573 44.0136 10.652C43.8176 10.4467 43.7196 10.19 43.7196 9.882C43.7196 9.56467 43.8176 9.30333 44.0136 9.098C44.2096 8.89267 44.4569 8.79 44.7556 8.79ZM52.3158 19.038C51.7185 19.402 51.0931 19.584 50.4398 19.584C49.7958 19.584 49.2685 19.3973 48.8578 19.024C48.4471 18.6413 48.2418 18.0813 48.2418 17.344V13.648H47.1918L47.1778 12.318H48.2418V10.26H50.0478V12.318H52.1898V13.648H50.0478V17.022C50.0478 17.3673 50.1131 17.6147 50.2438 17.764C50.3745 17.904 50.5705 17.974 50.8318 17.974C51.1118 17.974 51.4665 17.8713 51.8958 17.666L52.3158 19.038ZM58.3364 11.94C59.195 11.94 59.8717 12.2013 60.3664 12.724C60.861 13.2373 61.1084 13.9373 61.1084 14.824V19.5H59.2744V15.356C59.2744 14.8333 59.125 14.4227 58.8264 14.124C58.5277 13.816 58.1217 13.662 57.6084 13.662C57.0017 13.6713 56.521 13.8767 56.1664 14.278C55.8117 14.6793 55.6344 15.1927 55.6344 15.818V19.5H53.8144V9.112H55.6344V13.438C56.1477 12.458 57.0484 11.9587 58.3364 11.94ZM70.0666 12.01V19.5H68.2326V18.114C67.7286 19.0847 66.8606 19.57 65.6286 19.57C64.7886 19.57 64.1259 19.3133 63.6406 18.8C63.1553 18.2867 62.9126 17.5867 62.9126 16.7V12.01H64.7466V16.168C64.7466 16.6907 64.8866 17.1013 65.1666 17.4C65.4559 17.6987 65.8526 17.848 66.3566 17.848C66.9353 17.8387 67.3926 17.6333 67.7286 17.232C68.0646 16.8307 68.2326 16.322 68.2326 15.706V12.01H70.0666ZM76.7481 11.954C77.4481 11.954 78.0641 12.1173 78.5961 12.444C79.1374 12.7613 79.5528 13.2093 79.8421 13.788C80.1408 14.3667 80.2901 15.034 80.2901 15.79C80.2901 16.5367 80.1454 17.1947 79.8561 17.764C79.5668 18.3333 79.1561 18.7767 78.6241 19.094C78.0921 19.4113 77.4761 19.57 76.7761 19.57C76.2161 19.57 75.7214 19.4627 75.2921 19.248C74.8628 19.024 74.5081 18.702 74.2281 18.282V19.5H72.4081V9.112H74.2281V13.242C74.4988 12.822 74.8441 12.5047 75.2641 12.29C75.6934 12.066 76.1881 11.954 76.7481 11.954ZM76.3421 18.002C76.9581 18.002 77.4621 17.792 77.8541 17.372C78.2461 16.9427 78.4421 16.3967 78.4421 15.734C78.4421 15.0713 78.2461 14.53 77.8541 14.11C77.4621 13.69 76.9581 13.48 76.3421 13.48C75.7168 13.48 75.2081 13.69 74.8161 14.11C74.4241 14.53 74.2281 15.0713 74.2281 15.734C74.2281 16.406 74.4241 16.952 74.8161 17.372C75.2081 17.792 75.7168 18.002 76.3421 18.002Z" fill="#171C34"/>
<a href="https://github.com/kubesphere/community/tree/master/sig-advocacy-and-outreach">
<rect fill="black" fill-opacity="0" x="0.266602" y="-0.033" width="48.4715" height="17.066"/>
</a>
</svg>
