<svg xmlns="http://www.w3.org/2000/svg" width="100" height="113" viewBox="0 0 100 113"><g fill="#FFF" fill-rule="evenodd"><path fill-rule="nonzero" d="M88.565 100.47c.77-.21 1.55-.373 2.34-.489a19.321 19.321 0 0 1 3.008-.225 7.32 7.32 0 0 1 2.662.417c.655.24 1.235.646 1.684 1.18.425.53.726 1.15.883 1.811.183.765.271 1.55.263 2.336v7.081h-3.558v-6.651a4.783 4.783 0 0 0-.454-2.432 1.853 1.853 0 0 0-1.694-.715c-.255 0-.526.011-.812.035-.288.025-.542.053-.764.084v9.68h-3.558V100.47zM82 106.288a4.461 4.461 0 0 0-.657-2.587 2.148 2.148 0 0 0-1.874-.942 2.178 2.178 0 0 0-1.886.942 4.4 4.4 0 0 0-.669 2.587 4.515 4.515 0 0 0 .67 2.61 2.16 2.16 0 0 0 1.885.965 2.132 2.132 0 0 0 1.875-.965 4.578 4.578 0 0 0 .656-2.61zm3.63 0c.01.92-.135 1.834-.43 2.706a5.902 5.902 0 0 1-1.242 2.098 5.601 5.601 0 0 1-1.946 1.347 6.503 6.503 0 0 1-2.543.476 6.435 6.435 0 0 1-2.519-.476 5.596 5.596 0 0 1-1.946-1.347 6.183 6.183 0 0 1-1.266-2.098 7.767 7.767 0 0 1-.453-2.706 7.472 7.472 0 0 1 .465-2.695 6.109 6.109 0 0 1 1.29-2.074 5.809 5.809 0 0 1 1.958-1.335 6.71 6.71 0 0 1 4.966 0c.735.304 1.398.759 1.946 1.335.558.6.988 1.305 1.265 2.074.312.864.466 1.777.454 2.695zm-19.34 6.627c-2.69 0-4.74-.747-6.148-2.24-1.409-1.495-2.113-3.617-2.113-6.366a9.781 9.781 0 0 1 .645-3.66 7.902 7.902 0 0 1 1.766-2.718 7.393 7.393 0 0 1 2.675-1.68 9.637 9.637 0 0 1 3.366-.572c.64-.005 1.28.047 1.91.155.509.088 1.011.207 1.505.357a7.445 7.445 0 0 1 1.695.751l-1.074 3.004a9.017 9.017 0 0 0-1.779-.691 8.487 8.487 0 0 0-2.304-.287c-.574 0-1.142.097-1.683.287-.55.19-1.048.505-1.456.918a4.555 4.555 0 0 0-1.015 1.632 6.837 6.837 0 0 0-.383 2.432c-.005.719.08 1.436.252 2.134.147.619.423 1.2.81 1.704.392.49.896.879 1.47 1.133a5.227 5.227 0 0 0 2.196.418 10.138 10.138 0 0 0 2.603-.323c.301-.077.597-.176.883-.297.255-.112.485-.215.692-.311l1.028 2.98a8.724 8.724 0 0 1-2.222.858c-1.085.27-2.2.399-3.319.382zm-14.157-7.867a3.631 3.631 0 0 0-.155-.882 2.15 2.15 0 0 0-1.098-1.312 2.263 2.263 0 0 0-1.039-.215c-.353-.009-.704.06-1.027.204a2.118 2.118 0 0 0-.716.536 2.406 2.406 0 0 0-.442.775 5.07 5.07 0 0 0-.227.894h4.704zm-8.357 1.359a7.644 7.644 0 0 1 .514-2.92 6.245 6.245 0 0 1 1.349-2.087c.546-.549 1.2-.98 1.922-1.263a6.02 6.02 0 0 1 2.232-.43 5.552 5.552 0 0 1 4.226 1.634c1.035 1.088 1.553 2.689 1.552 4.803 0 .206-.008.433-.024.68a27.54 27.54 0 0 1-.048.656h-8.07a2.36 2.36 0 0 0 1.027 1.74 4.128 4.128 0 0 0 2.436.643c.645 0 1.288-.059 1.922-.178a7.264 7.264 0 0 0 1.54-.442l.478 2.885a4.89 4.89 0 0 1-.765.286c-.35.103-.704.187-1.062.251-.39.072-.809.131-1.254.178-.444.048-.89.072-1.337.072a7.927 7.927 0 0 1-2.949-.5 5.731 5.731 0 0 1-2.078-1.371 5.434 5.434 0 0 1-1.216-2.063 8.132 8.132 0 0 1-.395-2.574zm-2.338-.096a7.932 7.932 0 0 1-.442 2.718 5.732 5.732 0 0 1-1.277 2.074 5.606 5.606 0 0 1-2.054 1.323 7.708 7.708 0 0 1-2.77.465c-.429 0-.878-.02-1.348-.059-.47-.04-.931-.092-1.385-.155a18.293 18.293 0 0 1-1.302-.228 13.7 13.7 0 0 1-1.098-.273V94.654l3.558-.573v6.246c.4-.175.816-.31 1.242-.405.455-.098.92-.146 1.385-.142a5.677 5.677 0 0 1 2.363.464c.67.298 1.258.752 1.718 1.323a5.93 5.93 0 0 1 1.052 2.062 9.4 9.4 0 0 1 .358 2.682zm-3.629-.095c0-2.29-.844-3.433-2.532-3.433-.366 0-.731.048-1.085.143a3.092 3.092 0 0 0-.872.358v6.46c.175.032.398.06.669.084.27.024.564.036.883.036a2.56 2.56 0 0 0 2.197-1.001c.526-.78.785-1.708.74-2.647zm-11.578 5.936c-.77.21-1.552.373-2.341.49-.996.153-2.001.228-3.009.225a7.157 7.157 0 0 1-2.662-.428 4.05 4.05 0 0 1-1.683-1.204 4.696 4.696 0 0 1-.883-1.849 9.949 9.949 0 0 1-.263-2.36v-6.985h3.558v6.556a5.08 5.08 0 0 0 .453 2.48c.38.547 1.032.84 1.695.762.255 0 .527-.01.812-.035.287-.024.542-.052.764-.084v-9.68h3.559v12.112zm-16.427.43a31.028 31.028 0 0 0-2.662-3.636 32.89 32.89 0 0 0-1.66-1.812 17.502 17.502 0 0 0-1.72-1.537v6.984H.04v-16.52h3.724v6.245c.971-1.017 1.947-2.077 2.926-3.182.979-1.105 1.89-2.126 2.734-3.064h4.417a131.315 131.315 0 0 1-3.402 3.862 117.401 117.401 0 0 1-3.594 3.743 28.432 28.432 0 0 1 3.832 3.91 46.88 46.88 0 0 1 3.546 5.006H9.804z"/><path d="M39.666 39.674l-2.044.436a11.82 11.82 0 0 1 1.71-7.063l4.005 3.567.214.188a6.37 6.37 0 0 0-.452 1.892c-.133.036-.265.072-.397.11l-3.036.87zm7.79-12.147v5.617a6.424 6.424 0 0 0-1.567.775c-.18-.134-.36-.267-.543-.397l-4.066-2.886a11.872 11.872 0 0 1 6.175-3.11zm-27.93 12.94l5.558-24.322c.884-3.866 1.45-4.85 4.938-6.85l13.6-7.804c3.221-1.85 3.834-1.71 3.834 2.229v19.825c-3.6.464-6.931 2.151-9.432 4.779l-1.721-1.221a1.104 1.104 0 0 1-.422-.556 2.696 2.696 0 0 0-.912-1.369 1.893 1.893 0 0 0-3.048 1.195c-.1.667.163 1.336.691 1.757.273.225.592.388.934.48.226.057.452.073.68.111a.923.923 0 0 1 .516.239l1.61 1.435a15.736 15.736 0 0 0-2.705 8.844c0 .568.031 1.135.092 1.7l-3.476.741a2.42 2.42 0 0 0-.722.068c-.175.04-.344.105-.5.194-2.279.487-4.578.978-6.92 1.482-3.18.684-3.287.064-2.596-2.957zm32.011-7.323v-5.617a11.877 11.877 0 0 1 6.14 3.076l-4.437 3.15-.186.134a6.396 6.396 0 0 0-1.517-.743zm9.854 6.6l-5.518-1.257a6.327 6.327 0 0 0-.453-1.737l.152-.133L59.632 33a11.825 11.825 0 0 1 1.759 6.744zM54.213 9.433l8.098 3.894 12.432 5.977 3.07 13.43 1.548 6.773c.952 4.166.858 4.528-3.447 3.547l-10.63-2.422a15.735 15.735 0 0 0-2.675-10.282L64.123 29c.175-.162.399-.263.637-.287.561-.03 1.1-.234 1.539-.583.816-.65.95-1.838.3-2.653a1.893 1.893 0 0 0-2.658-.299c-.28.217-.51.49-.676.803-.106.206-.173.423-.26.637a.92.92 0 0 1-.348.449l-1.72 1.222a15.816 15.816 0 0 0-9.4-4.744v-12.11c0-2.84.252-3.167 2.676-2.002zM50.579 45.54a6.485 6.485 0 0 1-2.104.011c-.063.117-.126.236-.191.352l-2.55 4.617c2.462.815 5.122.809 7.58-.019l-2.519-4.56a32.726 32.726 0 0 1-.216-.4zm4.457-3.078l5.493 1.252a11.94 11.94 0 0 1-4.45 5.431l-2.186-5.253c.448-.42.832-.902 1.143-1.43zm-16.573 1.252l5.494-1.252a6.41 6.41 0 0 0 1.192 1.475c-.05.114-.099.229-.147.344l-2.037 4.898a11.936 11.936 0 0 1-4.502-5.465zm45.083 9.644l-6.457 8.085-8.382 10.496c-2.149 2.69-3.65 2.772-7.195 2.772h-24.1c-4.62 0-4.922-.013-7.741-3.544l-7.768-9.724-4.927-6.169c-3.397-4.254-3.95-5.763 1.311-6.962l16.294-3.713a15.88 15.88 0 0 0 6.851 8.265l-.718 1.725c-.087.222-.245.41-.449.535-.492.27-.888.687-1.132 1.192a1.885 1.885 0 0 0 .141 1.882 1.892 1.892 0 0 0 3.266-.244c.158-.316.247-.663.26-1.016.005-.232-.029-.457-.043-.687a.922.922 0 0 1 .118-.555l.93-1.684a15.928 15.928 0 0 0 11.436-.021l.913 1.652c.12.207.168.447.139.684a2.699 2.699 0 0 0 .227 1.627 1.89 1.89 0 1 0 3.406-1.638 2.464 2.464 0 0 0-.634-.837c-.176-.15-.375-.263-.563-.395a.918.918 0 0 1-.361-.438l-.755-1.814a15.878 15.878 0 0 0 6.798-8.234l17.973 4.097c3.49.795 3.234 2.07 1.162 4.663z"/><path d="M51.537 33.144v-5.617a11.877 11.877 0 0 1 6.14 3.076l-4.437 3.15-.186.134a6.396 6.396 0 0 0-1.517-.743m9.854 6.6l-5.518-1.257a6.327 6.327 0 0 0-.453-1.737l.152-.133L59.632 33a11.825 11.825 0 0 1 1.759 6.744M54.213 9.433l8.098 3.894 12.432 5.977 3.07 13.43 1.548 6.773c.952 4.166.858 4.528-3.447 3.547l-10.63-2.422a15.735 15.735 0 0 0-2.675-10.282L64.123 29c.175-.162.399-.263.637-.287.561-.03 1.1-.234 1.539-.583a1.886 1.886 0 0 0-.488-3.233 1.893 1.893 0 0 0-1.87.281c-.28.217-.51.49-.676.803-.106.206-.173.423-.26.637a.92.92 0 0 1-.348.449l-1.72 1.222a15.816 15.816 0 0 0-9.4-4.744v-12.11c0-2.84.252-3.167 2.676-2.002m.823 33.029l5.493 1.252a11.94 11.94 0 0 1-4.45 5.431l-2.186-5.253c.448-.42.832-.902 1.143-1.43m-5.54 8.664v-5.494c.363 0 .725-.031 1.083-.092.072.135.143.268.216.401l2.519 4.56c-1.23.415-2.52.626-3.818.625m34.05 2.233l-6.457 8.084-8.382 10.496c-2.149 2.69-3.65 2.772-7.195 2.772H49.496V55.063a15.84 15.84 0 0 0 5.745-1.072l.913 1.652c.12.207.168.447.139.684a2.699 2.699 0 0 0 .227 1.627 1.89 1.89 0 1 0 3.406-1.638 2.464 2.464 0 0 0-.634-.837c-.176-.15-.375-.263-.563-.395a.918.918 0 0 1-.361-.438l-.755-1.814a15.878 15.878 0 0 0 6.798-8.234l17.973 4.097c3.49.795 3.234 2.07 1.162 4.663"/></g></svg>