<svg xmlns="http://www.w3.org/2000/svg" width="151" height="158" viewBox="0 0 151 158"><g fill="#FFF" fill-rule="evenodd" opacity=".098"><path d="M18.696 57.766l-5.958 1.274a36.303 36.303 0 0 1-.092-2.542A34.524 34.524 0 0 1 17.72 38.43L29.39 48.84l.627.548A18.604 18.604 0 0 0 28.7 54.91c-.386.104-.771.209-1.155.32l-8.848 2.537zm22.699-35.444v16.39a18.711 18.711 0 0 0-4.566 2.263 87.6 87.6 0 0 0-1.58-1.16l-11.85-8.421a34.583 34.583 0 0 1 17.996-9.072zM-40.002 60.08c5.703-24.973 10.5-45.991 16.202-70.968 2.575-11.278 4.226-14.148 14.39-19.987l39.632-22.772c9.389-5.395 11.174-4.989 11.174 6.506v57.845A46.061 46.061 0 0 0 13.91 24.648l-5.015-3.563a3.222 3.222 0 0 1-1.23-1.622 7.868 7.868 0 0 0-2.656-3.993 5.511 5.511 0 0 0-8.884 3.485 5.507 5.507 0 0 0 2.013 5.127 7.212 7.212 0 0 0 2.723 1.4c.657.169 1.317.216 1.98.326a2.688 2.688 0 0 1 1.505.696l4.694 4.187a45.955 45.955 0 0 0-7.884 25.807c0 1.657.09 3.312.267 4.96l-10.13 2.163a7.042 7.042 0 0 0-2.104.199 5.397 5.397 0 0 0-1.458.563c-6.64 1.422-13.34 2.856-20.167 4.327-9.27 1.995-9.579.185-7.565-8.63zm93.293-21.367v-16.39a34.597 34.597 0 0 1 17.892 8.976l-12.93 9.192c-.18.129-.364.26-.542.39a18.63 18.63 0 0 0-4.422-2.168h.002zm28.717 19.26l-16.081-3.669a18.479 18.479 0 0 0-1.32-5.068c.149-.127.297-.258.442-.387l11.832-10.555a34.534 34.534 0 0 1 5.127 19.679zm-20.92-88.445L84.69-19.111l36.228 17.442 8.947 39.188 4.513 19.76c2.773 12.156 2.5 13.214-10.046 10.349l-30.98-7.067c.12-1.352.18-2.706.18-4.065a45.952 45.952 0 0 0-7.975-25.938l4.414-3.936a3.192 3.192 0 0 1 1.855-.839 7.874 7.874 0 0 0 4.485-1.7 5.507 5.507 0 0 0 .872-7.741 5.51 5.51 0 0 0-7.743-.872 7.279 7.279 0 0 0-1.972 2.343c-.309.601-.502 1.235-.759 1.86-.19.53-.544.988-1.01 1.308l-5.016 3.565a46.072 46.072 0 0 0-27.394-13.84v-35.337c0-8.288.736-9.24 7.799-5.842zM50.498 74.884c-2.028.344-4.1.355-6.132.031-.183.342-.368.687-.556 1.028l-7.43 13.47a34.837 34.837 0 0 0 22.088-.053l-7.34-13.306a95.536 95.536 0 0 1-.63-1.169v-.001zm12.99-8.983l16.007 3.653a34.829 34.829 0 0 1-12.968 15.85l-6.37-15.33a18.783 18.783 0 0 0 3.33-4.173zM15.19 69.554l16.01-3.653a18.7 18.7 0 0 0 3.474 4.305c-.145.333-.288.667-.43 1.004L28.309 85.5A34.818 34.818 0 0 1 15.19 69.557v-.002zm131.385 28.141l-18.82 23.59-24.427 30.626C97.066 159.759 92.693 160 82.36 160H12.126c-13.462 0-14.343-.038-22.56-10.34l-22.638-28.375c-6.363-7.976-7.992-10.022-14.359-17.998-9.9-12.415-11.51-16.818 3.822-20.316L3.875 72.138a46.321 46.321 0 0 0 19.967 24.115l-2.092 5.034a3.212 3.212 0 0 1-1.309 1.562 7.88 7.88 0 0 0-3.3 3.477 5.506 5.506 0 0 0 5.376 7.882 5.51 5.51 0 0 0 4.552-3.102c.462-.923.72-1.935.757-2.966.018-.677-.082-1.331-.122-2.003-.059-.563.06-1.13.342-1.62l2.71-4.913a46.367 46.367 0 0 0 33.33-.063l2.66 4.82a3.21 3.21 0 0 1 .404 1.996 7.883 7.883 0 0 0 .662 4.749 5.51 5.51 0 1 0 9.926-4.78 7.188 7.188 0 0 0-1.847-2.443c-.514-.436-1.092-.767-1.64-1.153a2.678 2.678 0 0 1-1.054-1.277l-2.199-5.293A46.316 46.316 0 0 0 90.81 72.134l52.38 11.954c10.168 2.32 9.423 6.041 3.385 13.607z"/><path d="M52.967 38.91V22.547a34.775 34.775 0 0 1 17.953 8.961l-12.974 9.177c-.18.13-.364.26-.542.39a18.73 18.73 0 0 0-4.437-2.165M81.78 58.14l-16.134-3.663a18.376 18.376 0 0 0-1.323-5.06c.149-.127.297-.257.443-.386l11.87-10.538A34.351 34.351 0 0 1 81.78 58.14m-20.989-88.3l23.68 11.343L120.82-1.405l8.977 39.124 4.527 19.728c2.782 12.136 2.508 13.192-10.08 10.332l-31.08-7.056c.119-1.349.179-2.702.18-4.058a45.718 45.718 0 0 0-8.001-25.895l4.428-3.93a3.21 3.21 0 0 1 1.86-.837 7.922 7.922 0 0 0 4.5-1.698 5.485 5.485 0 0 0-1.426-9.419 5.551 5.551 0 0 0-5.467.82 7.276 7.276 0 0 0-1.978 2.339c-.31.6-.504 1.233-.762 1.857-.191.53-.546.987-1.013 1.306l-5.032 3.56a46.306 46.306 0 0 0-27.485-13.819v-35.278c0-8.274.739-9.225 7.824-5.833M63.2 66.055l16.06 3.647a34.809 34.809 0 0 1-13.01 15.823l-6.39-15.304a18.768 18.768 0 0 0 3.34-4.166M47 91.295V75.29c1.061 0 2.12-.09 3.167-.266.21.392.419.78.632 1.168l7.364 13.283A34.977 34.977 0 0 1 47 91.295m99.56 6.504l-18.881 23.55-24.508 30.575C96.889 159.76 92.5 160 82.134 160H47v-57.236a46.467 46.467 0 0 0 16.8-3.124l2.668 4.812a3.19 3.19 0 0 1 .406 1.993 7.836 7.836 0 0 0 .663 4.74 5.527 5.527 0 0 0 4.574 3.155 5.538 5.538 0 0 0 5.014-2.403 5.474 5.474 0 0 0 .371-5.524 7.18 7.18 0 0 0-1.852-2.438c-.517-.435-1.096-.766-1.646-1.151a2.677 2.677 0 0 1-1.058-1.275l-2.206-5.285a46.292 46.292 0 0 0 19.878-23.986l52.551 11.934c10.202 2.316 9.455 6.031 3.397 13.585"/></g></svg>