<svg xmlns="http://www.w3.org/2000/svg" width="251" height="66" viewBox="0 0 251 66"><g fill="#FFF" fill-rule="nonzero"><path d="M12.373 50.498a22.822 22.822 0 0 0 7.02 4.962l-.858 1.535a18.87 18.87 0 0 1-2.223-1.228v1.484h-3.636v2.302h4.495v1.638h-4.495v2.404h5.96v1.689H5v-1.689h5.96v-2.404H6.463v-1.638h4.495v-2.302H7.323v-1.484c-.707.46-1.465.87-2.323 1.28l-.808-1.535c2.828-1.33 5.151-3.019 7.02-5.014h1.161zm3.687 5.065a20.624 20.624 0 0 1-4.242-3.53c-1.162 1.279-2.626 2.455-4.243 3.53h8.485zM25.05 56.433v-3.326H23.23v-1.586h5.253v1.586h-1.717v3.326h1.363v1.586h-1.363v2.711a17.771 17.771 0 0 0 1.717-.818v1.637c-1.616.818-3.333 1.484-5.152 2.046l-.404-1.688c.707-.154 1.414-.307 2.121-.563V58.02h-1.666v-1.586h1.666zm7.07-3.224V50.6h1.616v2.61h1.97c-.404-.512-.96-1.024-1.616-1.536l.96-.92a14.636 14.636 0 0 1 2.02 1.841l-.607.614h.91v1.638h-3.637v1.483c.202.614.404 1.177.657 1.74a16.767 16.767 0 0 0 1.666-2.405l1.263.972a19.812 19.812 0 0 1-2.222 2.916 14.353 14.353 0 0 0 2.929 3.582l-1.111 1.381a15.787 15.787 0 0 1-3.182-4.656v4.145c0 1.074-.556 1.637-1.667 1.637h-1.717L30 64.056c.505.051 1.01.102 1.515.102.404 0 .606-.205.606-.563v-3.07c-1.01 1.382-2.121 2.559-3.333 3.53l-.859-1.483c1.566-1.074 2.98-2.507 4.192-4.298V54.95h-3.535v-1.74h3.535zm-.657 5.321l-1.161.819c-.455-.87-1.01-1.79-1.768-2.814l1.313-.819c.707 1.126 1.263 2.047 1.616 2.814zM47.018 55.205v2.148h1.768v1.535h-1.768v1.689c.707-.154 1.414-.307 2.07-.46v1.585c-.656.205-1.363.358-2.07.512v3.479h-1.666v-3.172c-.96.153-1.97.307-3.081.46l-.202-1.688c1.162-.153 2.273-.256 3.283-.46v-1.996h-2.727l-.354-1.535c.404-.818.758-1.842 1.111-3.07H42.07v-1.688h1.717c.152-.665.303-1.381.404-2.097l1.616.255c-.151.614-.252 1.228-.404 1.842h3.636v1.689h-4.04a31.068 31.068 0 0 1-1.01 3.07h1.313v-2.15h1.717v.052zm6.364.255c0 1.126-.05 2.2-.202 3.173.707 2.353 2.02 4.297 3.838 5.679l-1.212 1.432a13.323 13.323 0 0 1-3.131-4.451c-.556 1.79-1.667 3.326-3.435 4.502l-1.11-1.381c1.514-1.074 2.525-2.354 3.03-3.888.404-1.28.606-2.968.606-5.014h1.616v-.052zm-1.263-4.86c-.1.819-.202 1.586-.353 2.302h4.898v1.075c-.303 1.381-.656 2.814-1.161 4.195l-1.667-.46a19.28 19.28 0 0 0 1.06-3.172h-3.534c-.404 1.279-.859 2.302-1.415 3.07l-1.414-1.024c1.01-1.484 1.616-3.581 1.92-6.242l1.666.256zM65.603 51.163a19.198 19.198 0 0 1-1.565 3.632v10.95H62.37v-8.443a35.441 35.441 0 0 1-1.313 1.535l-.555-1.842c1.565-1.842 2.777-4.042 3.535-6.6l1.565.768zm2.829.665a12.728 12.728 0 0 1-.455 1.995h1.768V50.6h1.717v3.223h3.535v1.689h-3.535v3.376h4.141v1.638h-4.141v5.116h-1.717v-5.116H65.25v-1.638h4.495v-3.376h-2.323a16.377 16.377 0 0 1-1.465 2.814l-1.06-1.433c.908-1.433 1.565-3.172 1.868-5.27l1.667.205zM93.33 51.367v1.638h-2.526v3.786h3.334v1.637h-3.334v7.06h-1.717v-7.06h-4.191c-.152 1.586-.505 2.967-.96 4.093-.657 1.381-1.667 2.456-3.131 3.172l-.91-1.484c1.314-.767 2.172-1.74 2.627-2.865.303-.818.505-1.79.656-2.916h-3.484V56.79h3.585V53.055h-2.777V51.42H93.33v-.052zm-8.283 5.168v.256h4.09v-3.786h-4.04v3.53h-.05zM100.45 51.01l1.667.255-.808 2.968h2.222c.303-1.177.556-2.456.707-3.786l1.717.204c-.202 1.28-.404 2.456-.707 3.582h7.374v1.637h-7.778c-.151.511-.303.972-.454 1.432h6.414v1.433c-.404 1.279-1.162 2.456-2.324 3.53 1.213.665 2.677 1.28 4.344 1.842l-.859 1.637c-1.919-.716-3.535-1.484-4.848-2.353-1.263.87-2.778 1.688-4.596 2.404l-.909-1.586c1.566-.562 2.93-1.176 4.04-1.893a10.478 10.478 0 0 1-2.272-2.558c-1.162 2.354-2.576 4.247-4.344 5.68l-.909-1.587c2.172-1.944 3.839-4.604 4.9-7.981h-3.94l1.364-4.86zm6.616 10.334c.96-.767 1.667-1.637 2.071-2.507h-4.495c.505.921 1.313 1.74 2.424 2.507zm4.445-8.34l-1.212 1.229a15.305 15.305 0 0 0-2.728-2.66l1.162-1.126c1.111.87 2.07 1.688 2.778 2.558zM123.43 54.642c.1-.87.15-1.74.201-2.66v-1.484h1.717v1.074c0 1.075-.05 2.098-.202 3.019h6.515v1.688h-6.11c1.161 3.428 3.333 6.088 6.464 7.93l-1.06 1.433c-3.03-1.893-5.202-4.554-6.415-7.93-1.11 3.632-3.282 6.344-6.514 8.083l-1.061-1.432c3.283-1.586 5.353-4.298 6.212-8.033h-5.858v-1.688h6.11zM143.883 50.498c2.02 2.25 4.343 4.042 7.02 5.32l-.909 1.689a25.842 25.842 0 0 1-2.626-1.637v1.177h-8.08v-1.28a28.934 28.934 0 0 1-2.778 1.74l-.91-1.688c2.829-1.433 5.202-3.172 7.071-5.321h1.212zm5.96 8.186v1.688h-7.525a14.89 14.89 0 0 1-2.374 3.377c2.171-.154 4.343-.307 6.414-.563-.455-.614-.96-1.177-1.515-1.842l1.313-.818c1.464 1.586 2.626 3.018 3.434 4.195l-1.414 1.023c-.253-.41-.556-.87-.859-1.279-2.525.41-5.656.716-9.393.921l-.455-1.484c.404-.102.707-.255.859-.46.808-.972 1.464-1.995 2.07-3.019h-3.636v-1.688h13.08v-.051zm-3.081-3.275c-1.313-1.023-2.475-2.097-3.535-3.376a20.382 20.382 0 0 1-3.536 3.376h7.07z"/><g><path d="M31.817 41.186c-1.515.87-3.232 1.484-5.05 1.944-1.869.46-3.788.665-5.859.665-6.313 0-11.363-1.995-15.15-5.935C1.918 33.87.05 28.6.05 22c0-3.581.555-6.856 1.717-9.67 1.161-2.865 2.878-5.27 5.201-7.316 1.869-1.586 3.94-2.814 6.263-3.633C15.555.563 18.13.153 20.908.153c6.313 0 11.363 1.996 15.151 5.935 3.788 3.991 5.707 9.26 5.707 15.86 0 2.764-.303 5.27-.96 7.47-.656 2.303-1.616 4.35-2.929 6.14 1.212 1.075 2.475 1.893 3.889 2.507a14.963 14.963 0 0 0 4.495 1.177l-3.08 7.418c-2.324-.255-4.445-.818-6.364-1.74-1.92-.92-3.586-2.148-5-3.734zm-10.909-6.14c3.283 0 5.808-1.125 7.677-3.427 1.818-2.303 2.727-5.526 2.727-9.619s-.91-7.316-2.778-9.619c-1.818-2.302-4.394-3.479-7.626-3.479s-5.757 1.177-7.626 3.48c-1.868 2.353-2.777 5.525-2.777 9.567 0 4.093.909 7.265 2.777 9.567 1.818 2.354 4.344 3.53 7.626 3.53zM83.987 33.205c-1.97 3.53-4.445 6.19-7.424 7.981-2.98 1.79-6.414 2.66-10.354 2.66-6.211 0-11.11-1.944-14.797-5.883-3.636-3.94-5.454-9.21-5.454-15.912 0-6.549 1.919-11.818 5.707-15.81C55.452 2.252 60.503.257 66.664.257c3.889 0 7.272.92 10.151 2.711 2.879 1.791 5.1 4.4 6.717 7.828l-7.98 4.042c-.909-1.995-2.171-3.53-3.686-4.553-1.515-1.024-3.283-1.535-5.303-1.535-3.131 0-5.656 1.177-7.474 3.53-1.819 2.354-2.728 5.628-2.728 9.772 0 4.196.91 7.419 2.728 9.721 1.818 2.302 4.343 3.48 7.625 3.48 2.071 0 3.839-.461 5.354-1.485 1.515-.972 2.777-2.455 3.788-4.4l8.13 3.838zM102.168 43.744c-4.95 0-8.94-1.484-11.97-4.502-3.03-3.019-4.545-7.01-4.545-11.921 0-4.912 1.515-8.902 4.545-11.921 3.03-3.019 7.02-4.553 11.92-4.553 4.999 0 8.989 1.534 12.019 4.553 3.03 3.019 4.545 7.01 4.545 11.972 0 4.912-1.515 8.902-4.545 11.921-3.03 2.967-7.02 4.451-11.97 4.451zm-7.02-16.423c0 2.814.656 5.065 1.919 6.702 1.262 1.637 2.98 2.507 5.1 2.507 2.122 0 3.839-.818 5.152-2.507 1.262-1.688 1.919-3.888 1.919-6.702s-.657-5.065-1.92-6.754c-1.262-1.688-2.979-2.507-5.15-2.507-2.122 0-3.839.82-5.101 2.559-1.313 1.688-1.92 3.888-1.92 6.702zM122.722 42.772V11.82h9.242v2.865c1.162-1.228 2.526-2.098 4.04-2.712 1.516-.563 3.182-.87 5.05-.87 3.334 0 5.809 1.075 7.425 3.172 1.616 2.15 2.424 5.373 2.424 9.773V42.72h-9.242V24.558c0-2.098-.354-3.632-1.111-4.605-.707-.972-1.869-1.483-3.434-1.483-1.869 0-3.182.46-3.94 1.381-.808.921-1.161 2.507-1.161 4.707v18.214h-9.293z"/><path d="M150.853 23.228c-3.132.205-6.212.358-9.243.512v19.032h9.243V24.098c.05-.307 0-.563 0-.87zM122.722 42.772h9.242V24.558v-.41c-3.13.103-6.211.257-9.242.308v18.316zM109.036 24.763c.152.767.202 1.637.202 2.558 0 2.814-.657 5.014-1.92 6.702-1.312 1.689-2.979 2.507-5.15 2.507-2.122 0-3.839-.818-5.101-2.507-1.263-1.637-1.92-3.888-1.92-6.702 0-.87.051-1.688.203-2.456-3.182 0-6.313 0-9.495-.051a20.251 20.251 0 0 0-.151 2.507c0 4.963 1.515 8.902 4.545 11.92 3.03 3.02 7.02 4.503 11.97 4.503 4.948 0 8.938-1.484 11.968-4.553 3.03-3.019 4.546-7.01 4.546-11.921 0-.972-.05-1.842-.202-2.712-3.233.102-6.364.154-9.495.205zM72.118 33.716c-1.515.972-3.282 1.484-5.353 1.484-3.283 0-5.808-1.177-7.626-3.48-1.465-1.892-2.374-4.45-2.626-7.622-3.434-.103-6.919-.256-10.505-.41.303 5.884 2.07 10.591 5.404 14.172 3.636 3.94 8.586 5.884 14.797 5.884 3.94 0 7.374-.87 10.354-2.66 2.98-1.791 5.454-4.4 7.424-7.982l-8.081-3.888c-1.01 2.098-2.273 3.53-3.788 4.502zM20.908 43.744c2.07 0 3.99-.204 5.859-.665 1.818-.46 3.535-1.074 5.05-1.944a15.856 15.856 0 0 0 5 3.786c1.919.92 4.04 1.484 6.363 1.74l3.08-7.42a14.216 14.216 0 0 1-4.494-1.176c-1.414-.614-2.677-1.484-3.889-2.507a18.573 18.573 0 0 0 2.93-6.037c.504-1.79.807-3.786.908-5.935a8211.79 8211.79 0 0 0-10.454-.46c-.151 3.581-1.06 6.446-2.727 8.493-1.818 2.302-4.394 3.428-7.676 3.428-3.232 0-5.808-1.177-7.626-3.48-1.818-2.302-2.727-5.474-2.778-9.516C7.07 21.898 3.586 21.693 0 21.54V22c0 6.6 1.92 11.87 5.707 15.81 3.838 3.99 8.888 5.934 15.201 5.934z"/></g><g><path d="M238.576 4.656l2.626-2.405v1.33h2.223v1.177h-2.223v3.275c0 .767.354 1.125 1.01 1.125.506 0 1.01-.153 1.566-.46v1.228c-.555.307-1.111.409-1.768.409-.656 0-1.161-.154-1.616-.512a1.188 1.188 0 0 1-.353-.358 1.544 1.544 0 0 1-.202-.512c-.05-.204-.101-.613-.101-1.227V4.758h-1.212v-.102h.05zM244.788.153h1.414v4.298c.606-.665 1.313-1.023 2.172-1.023.454 0 .909.102 1.262.358.354.205.657.512.859.921.202.41.252.972.252 1.74v3.786h-1.414V6.14c0-.512-.1-.87-.404-1.177a1.265 1.265 0 0 0-1.01-.46c-.303 0-.606.05-.858.204-.253.153-.556.41-.91.767v4.759h-1.413V.153h.05z"/></g><g><path d="M241.707 29.981l-4.444.41c.404 4.4-.202 8.749-1.818 12.893-3.434 8.85-10.808 15.297-20.353 17.395a26.561 26.561 0 0 1-10.05.256c-11.716-1.995-20.554-10.642-23.03-22.41-.706-3.274-.757-6.702-.201-9.976 1.919-11.41 9.898-20.158 20.858-23.023a27.144 27.144 0 0 1 13.433 0c4.495 1.176 8.535 3.325 11.92 6.395L231 8.544a32.33 32.33 0 0 0-9.747-6.088c-8.333-3.275-17.424-3.019-25.555.818a32.575 32.575 0 0 0-14.292 13.303V2.456h-17.474v4.4h13.08v53.056h-4.293V11.256h-8.737v4.4h4.344V64.26h13.08V49.32c.252.461.555.922.808 1.382 2.677 4.247 6.363 7.88 10.656 10.386 5.202 3.07 10.858 4.605 16.515 4.605 5.504 0 11.06-1.433 16.06-4.349 6.464-3.684 11.464-9.67 14.14-16.679 1.869-4.656 2.576-9.67 2.121-14.684z"/><path d="M196.608 12.433c-11.16 7.214-14.444 22.255-7.373 33.614 3.434 5.474 8.737 9.26 15 10.693 3.635.818 7.272.767 10.807-.052 2.525-.614 5-1.688 7.272-3.12 5.404-3.48 9.141-8.903 10.555-15.247 1.415-6.344.253-12.842-3.13-18.368-1.87-2.967-4.243-5.423-7.071-7.316L220.9 15.4c2.475 1.637 4.545 3.735 6.111 6.293 2.98 4.707 3.94 10.335 2.727 15.86-1.212 5.475-4.444 10.182-9.09 13.15-4.647 3.018-10.202 3.99-15.606 2.762-5.404-1.228-10-4.502-12.979-9.21-6.11-9.771-3.283-22.818 6.363-29.008a20.205 20.205 0 0 1 9.141-3.173l-.303-3.325c-3.888.358-7.424 1.586-10.656 3.684z"/><path d="M193.275 29.316c-.252 1.075-.353 2.2-.404 3.326-.101 4.451 1.566 8.698 4.646 11.972 3.081 3.223 7.172 5.065 11.616 5.167 2.525.052 4.95-.46 7.171-1.483a16.48 16.48 0 0 0 4.596-3.172c3.182-3.121 5-7.266 5.101-11.768.101-4.451-1.566-8.698-4.646-11.972-3.081-3.223-7.172-5.065-11.616-5.167-1.818-.052-3.687.255-5.404.818l.707 2.149c1.515-.512 3.08-.716 4.697-.716 3.838.05 7.373 1.637 10.05 4.45 2.677 2.815 4.09 6.499 3.99 10.336-.05 3.888-1.616 7.47-4.394 10.181-2.778 2.712-6.414 4.144-10.201 4.042-3.839-.051-7.374-1.637-10.05-4.451-2.677-2.814-4.091-6.498-3.99-10.335 0-.972.151-1.944.353-2.916l-2.222-.46z"/></g></g></svg>