<svg xmlns="http://www.w3.org/2000/svg" width="380" height="150" viewBox="0 0 380 150"><g fill="#FFF" fill-rule="nonzero" opacity=".08"><path d="M15.512 164.167v-9.674h-5.263v-4.614h15.204v4.614h-4.97v9.674h3.946v4.614h-3.947v7.889c1.755-.744 3.363-1.489 4.97-2.382v4.763c-4.677 2.382-9.648 4.316-14.91 5.954l-1.17-4.912c2.046-.446 4.093-.893 6.14-1.637v-9.675h-4.825v-4.614h4.825zm20.467-9.376V147.2h4.678v7.59h5.701c-1.17-1.488-2.777-2.976-4.678-4.464l2.778-2.68c2.339 1.787 4.24 3.573 5.848 5.359l-1.755 1.786h2.632v4.762H40.657v4.317c.585 1.786 1.17 3.423 1.9 5.06 1.755-2.083 3.363-4.465 4.825-6.995l3.655 2.828c-2.047 3.274-4.24 6.102-6.433 8.484 2.34 4.018 5.117 7.441 8.48 10.418l-3.217 4.019c-3.801-3.87-6.871-8.335-9.21-13.544v12.055c0 3.126-1.608 4.763-4.824 4.763h-4.971l-1.023-4.614c1.462.149 2.923.298 4.385.298 1.17 0 1.755-.595 1.755-1.637v-8.93c-2.924 4.018-6.14 7.441-9.649 10.27l-2.485-4.317c4.532-3.126 8.625-7.293 12.134-12.502v-9.675H25.745v-5.06H35.98zm-1.9 15.479l-3.363 2.381a61.086 61.086 0 0 0-5.117-8.186l3.801-2.381c2.047 3.274 3.655 5.953 4.678 8.186zM79.106 160.595v6.252h5.116v4.465h-5.116v4.911c2.046-.446 4.093-.893 5.994-1.34v4.615c-1.901.595-3.948 1.042-5.994 1.488v10.121H74.28v-9.228c-2.777.447-5.701.893-8.918 1.34l-.584-4.912c3.362-.447 6.578-.744 9.502-1.34v-5.804h-7.894l-1.024-4.465c1.17-2.382 2.193-5.358 3.217-8.93h-3.801v-4.912h4.97c.439-1.935.877-4.019 1.17-6.103l4.678.745c-.439 1.786-.731 3.572-1.17 5.358h10.526v4.911H73.258c-.877 3.275-1.9 6.252-2.924 8.93h3.801v-6.25h4.97v.148zm18.42.745c0 3.274-.146 6.4-.585 9.227 2.047 6.847 5.848 12.503 11.11 16.521l-3.508 4.168c-3.8-3.572-6.87-7.889-9.064-12.949-1.608 5.21-4.824 9.674-9.94 13.098l-3.217-4.019c4.386-3.126 7.31-6.846 8.771-11.312 1.17-3.72 1.755-8.632 1.755-14.586h4.678v-.148zM93.87 147.2c-.292 2.381-.585 4.614-1.023 6.698h14.18v3.125c-.877 4.019-1.9 8.186-3.362 12.205l-4.824-1.34c1.17-2.679 2.193-5.655 3.07-9.228H91.678c-1.17 3.721-2.485 6.698-4.093 8.93l-4.094-2.976c2.924-4.316 4.679-10.419 5.556-18.158l4.824.744zM132.905 148.837a55.995 55.995 0 0 1-4.532 10.568v31.85h-4.825v-24.557c-1.17 1.488-2.485 2.976-3.8 4.465l-1.609-5.358c4.532-5.358 8.04-11.758 10.234-19.2l4.532 2.232zm8.186 1.935c-.292 1.935-.73 4.019-1.315 5.805h5.116V147.2h4.971v9.377h10.234v4.911h-10.234v9.824h11.988v4.762h-11.988v14.884h-4.97v-14.884H131.88v-4.762h13.011v-9.824h-6.724c-1.17 2.977-2.632 5.656-4.24 8.186l-3.07-4.167c2.631-4.167 4.532-9.228 5.41-15.33l4.823.595zM213.165 149.433v4.762h-7.31v11.014h9.649v4.763h-9.65v20.54h-4.97v-20.54H188.75c-.438 4.614-1.462 8.633-2.777 11.907-1.9 4.019-4.825 7.144-9.064 9.228l-2.632-4.316c3.801-2.233 6.287-5.06 7.602-8.335.877-2.382 1.462-5.21 1.9-8.484h-10.087v-4.763h10.38V154.345h-8.04v-4.764h37.133v-.148zm-23.976 15.032v.744h11.842v-11.014h-11.696v10.27h-.146zM233.778 148.39l4.824.745-2.339 8.632h6.433a81.629 81.629 0 0 0 2.046-11.014l4.97.596c-.584 3.72-1.169 7.144-2.046 10.418h21.344v4.763h-22.513c-.439 1.489-.878 2.828-1.316 4.168h18.566v4.167c-1.17 3.721-3.362 7.144-6.725 10.27 3.51 1.935 7.749 3.72 12.573 5.358l-2.485 4.763c-5.556-2.084-10.234-4.316-14.035-6.847-3.655 2.53-8.04 4.912-13.303 6.996l-2.632-4.614c4.532-1.638 8.48-3.424 11.696-5.507-2.924-2.382-4.97-4.912-6.579-7.442-3.362 6.846-7.456 12.353-12.573 16.52l-2.631-4.613c6.286-5.656 11.11-13.396 14.18-23.219h-11.402l3.947-14.14zm19.151 30.066c2.778-2.233 4.824-4.763 5.994-7.293h-13.011c1.462 2.679 3.8 5.06 7.017 7.293zm12.865-24.26l-3.509 3.571a44.408 44.408 0 0 0-7.894-7.74l3.362-3.274c3.217 2.53 5.994 4.912 8.041 7.442zM300.296 158.958c.292-2.53.438-5.06.584-7.74v-4.316h4.97v3.126c0 3.125-.145 6.102-.584 8.781h18.859v4.912h-17.69c3.363 9.972 9.65 17.712 18.713 23.07l-3.07 4.167c-8.771-5.507-15.058-13.246-18.566-23.07-3.216 10.568-9.503 18.456-18.86 23.517l-3.07-4.168c9.503-4.614 15.497-12.502 17.983-23.367h-16.959v-4.912h17.69zM359.504 146.902c5.847 6.55 12.572 11.758 20.32 15.48l-2.63 4.911c-2.779-1.488-5.264-3.126-7.603-4.763v3.423h-23.39v-3.72c-2.486 1.786-5.118 3.423-8.041 5.06l-2.632-4.912c8.187-4.167 15.058-9.228 20.467-15.479h3.509zm17.25 23.814v4.912h-21.782a43.315 43.315 0 0 1-6.871 9.823c6.286-.446 12.572-.893 18.566-1.637-1.316-1.786-2.778-3.423-4.386-5.358l3.801-2.382c4.24 4.614 7.602 8.782 9.942 12.205l-4.094 2.977a54.911 54.911 0 0 0-2.485-3.721c-7.31 1.19-16.374 2.084-27.192 2.679l-1.316-4.316c1.17-.298 2.047-.745 2.485-1.34 2.34-2.828 4.24-5.805 5.994-8.781h-10.525v-4.912h37.863v-.149zm-8.917-9.525c-3.801-2.977-7.164-6.103-10.234-9.824a59.127 59.127 0 0 1-10.233 9.824h20.467z"/><g><path d="M35.102 119.814c-4.386 2.53-9.357 4.316-14.62 5.656-5.409 1.34-10.964 1.935-16.958 1.935-18.274 0-32.894-5.805-43.858-17.265-11.11-11.61-16.52-26.94-16.52-46.14 0-10.419 1.608-19.944 4.97-28.13 3.363-8.335 8.334-15.33 15.059-21.284C-31.416 9.972-25.422 6.4-18.697 4.019-11.973 1.637-4.517.447 3.523.447c18.275 0 32.894 5.804 43.859 17.265 10.964 11.609 16.52 26.94 16.52 46.14 0 8.036-.878 15.33-2.778 21.73-1.9 6.697-4.678 12.65-8.48 17.86 3.51 3.125 7.164 5.507 11.258 7.293 4.093 1.786 8.479 2.977 13.01 3.423l-8.917 21.582c-6.725-.745-12.865-2.382-18.42-5.06-5.556-2.68-10.38-6.252-14.473-10.866zm-31.578-17.86c9.502 0 16.812-3.275 22.221-9.973C31.008 85.284 33.64 75.907 33.64 64s-2.632-21.284-8.041-27.981C20.336 29.32 12.88 25.898 3.524 25.898s-16.666 3.423-22.075 10.12c-5.41 6.847-8.04 16.075-8.04 27.833 0 11.907 2.63 21.135 8.04 27.833 5.263 6.846 12.572 10.27 22.075 10.27zM186.119 96.595c-5.702 10.27-12.865 18.01-21.49 23.219-8.626 5.21-18.567 7.74-29.97 7.74-17.982 0-32.162-5.656-42.835-17.117C81.3 98.977 76.036 83.647 76.036 64.15c0-19.051 5.555-34.382 16.52-45.99C103.52 6.548 118.138.743 135.974.743c11.257 0 21.051 2.68 29.384 7.889 8.333 5.209 14.766 12.8 19.444 22.772l-23.098 11.758c-2.632-5.805-6.287-10.27-10.672-13.247-4.386-2.976-9.503-4.465-15.35-4.465-9.065 0-16.374 3.423-21.637 10.27-5.263 6.846-7.895 16.372-7.895 28.428 0 12.204 2.632 21.581 7.895 28.279s12.572 10.12 22.075 10.12c5.994 0 11.11-1.339 15.496-4.315 4.386-2.828 8.04-7.145 10.965-12.8l23.537 11.162zM238.748 127.256c-14.327 0-25.876-4.316-34.647-13.098-8.772-8.781-13.158-20.39-13.158-34.679 0-14.288 4.386-25.898 13.158-34.679 8.771-8.781 20.32-13.247 34.501-13.247 14.473 0 26.022 4.466 34.794 13.247 8.772 8.781 13.157 20.39 13.157 34.828 0 14.288-4.385 25.898-13.157 34.679-8.772 8.633-20.32 12.949-34.648 12.949zm-20.32-47.777c0 8.186 1.9 14.735 5.555 19.498 3.655 4.763 8.625 7.293 14.765 7.293 6.14 0 11.111-2.382 14.912-7.293 3.655-4.912 5.555-11.312 5.555-19.498 0-8.186-1.9-14.735-5.555-19.646-3.655-4.912-8.625-7.293-14.912-7.293-6.14 0-11.11 2.38-14.765 7.441-3.801 4.912-5.555 11.312-5.555 19.498zM298.249 124.428V34.38h26.753v8.335c3.363-3.572 7.31-6.102 11.696-7.888 4.385-1.637 9.21-2.53 14.619-2.53 9.649 0 16.812 3.125 21.49 9.228 4.678 6.25 7.018 15.627 7.018 28.427v54.326H353.07V71.442c0-6.102-1.023-10.568-3.216-13.395-2.047-2.828-5.41-4.317-9.941-4.317-5.41 0-9.21 1.34-11.403 4.019-2.34 2.679-3.363 7.293-3.363 13.693v52.986h-26.9z"/><path d="M379.678 67.572c-9.064.595-17.981 1.042-26.753 1.488V124.428h26.753V70.102c.147-.893 0-1.637 0-2.53zM298.249 124.428h26.753V71.442v-1.19c-9.064.297-17.982.743-26.753.892v53.284zM258.63 72.037c.44 2.233.585 4.763.585 7.442 0 8.186-1.9 14.586-5.555 19.498-3.801 4.911-8.625 7.293-14.912 7.293-6.14 0-11.11-2.382-14.765-7.293-3.655-4.763-5.555-11.312-5.555-19.498 0-2.53.146-4.912.584-7.144-9.21 0-18.274 0-27.484-.149a59.201 59.201 0 0 0-.439 7.293c0 14.437 4.386 25.898 13.158 34.68 8.771 8.78 20.32 13.097 34.648 13.097 14.326 0 25.876-4.316 34.647-13.247 8.772-8.781 13.158-20.39 13.158-34.679 0-2.828-.147-5.358-.585-7.888-9.357.298-18.42.446-27.484.595zM151.764 98.084c-4.386 2.828-9.503 4.316-15.497 4.316-9.502 0-16.812-3.423-22.075-10.12-4.24-5.508-6.871-12.95-7.602-22.178-9.941-.297-20.029-.744-30.408-1.19.877 17.116 5.994 30.809 15.642 41.228 10.526 11.46 24.853 17.116 42.835 17.116 11.403 0 21.344-2.53 29.97-7.74 8.625-5.209 15.788-12.8 21.49-23.218l-23.391-11.312c-2.924 6.102-6.579 10.27-10.964 13.098zM3.524 127.256c5.994 0 11.55-.596 16.958-1.935 5.263-1.34 10.234-3.126 14.62-5.656 4.093 4.614 8.917 8.335 14.473 11.014 5.555 2.68 11.695 4.316 18.42 5.06l8.918-21.58c-4.678-.447-9.064-1.638-13.011-3.424-4.094-1.786-7.749-4.316-11.257-7.293a54.143 54.143 0 0 0 8.479-17.563c1.462-5.21 2.339-11.014 2.631-17.265-9.94-.447-20.028-.893-30.262-1.34-.438 10.419-3.07 18.754-7.894 24.707-5.263 6.698-12.719 9.972-22.221 9.972-9.357 0-16.813-3.423-22.075-10.12-5.263-6.698-7.895-15.926-8.041-27.684-9.795-.447-19.882-1.042-30.262-1.489V64c0 19.2 5.555 34.53 16.52 45.99 11.11 11.61 25.73 17.266 44.004 17.266z"/></g></g></svg>