<svg xmlns="http://www.w3.org/2000/svg" width="64" height="64" viewBox="0 0 64 64"><g fill="none" fill-rule="evenodd"><path fill="#23C18D" fill-rule="nonzero" d="M55.732 28.722h-.856c-1.559-.019-4.548.148-7.259 2.49-6.47 5.602-7.948 13.85-19.021 18.3C19.372 53.22 8 49.71 8 49.71s10.147-.706 11.492-8.449c1.05-6.056-4.459-10.356-7.917-15.819-3.517-5.563-4.42-10.185-2.726-12.182 4.804-5.672 18.033 9.662 24.601 11.729 6.429 2.02 10.767-2.672 16.09-1.982 1.699.218 2.528.95 3.08 1.885.185.314.643 1.384 1.05 1.78.4.387.93.674 1.427.965.632.372 1.256 1.085.635 1.085z"/><path fill="#90E0C5" fill-rule="nonzero" d="M25.331 19.851c-1.59-1.21-3.23-2.477-4.842-3.633-.365-.26-.73-.515-1.09-.763-4.323-2.959-8.332-4.812-10.55-2.195-1.694 1.997-.79 6.619 2.73 12.182.035.058.073.113.108.17 1.834 2.84 7.154 9.488 19.762 9.205.83-.88 2.09-2.543 3.719-4.354-2.64-4.268-6.619-7.99-9.837-10.612z"/><path fill="#11B27D" fill-rule="nonzero" d="M38.04 39.912c.051-1.892-.294-3.757-.95-5.56-1.655.248-3.52.419-5.64.465-1.544 1.64-5.068 6.022-10.907 9.969-7.774 5.257-12.54 4.924-12.54 4.924s11.377 3.509 20.597-.198c3.307-1.33 5.761-2.997 7.746-4.835.326-.31 1.625-1.93 1.695-4.765z"/><path fill="#23C18D" fill-rule="nonzero" d="M35.172 30.463c-1.629 1.807-2.893 3.474-3.719 4.354a44.42 44.42 0 0 0 5.642-.465 17.754 17.754 0 0 0-.667-1.593 24.525 24.525 0 0 0-1.256-2.296zM44.624 23.605c-3.404 1.03-6.804 2.756-11.174 1.384-2.163-.679-5.052-2.8-8.119-5.138 3.218 2.621 7.196 6.34 9.84 10.612 2.412-2.671 5.63-5.657 9.453-6.858z"/><path fill="#008A5C" fill-rule="nonzero" d="M37.095 34.352c.655 1.803 1 3.668.95 5.56-.074 2.83-1.373 4.451-1.699 4.765 4.657-4.307 6.739-9.538 11.275-13.465a10.005 10.005 0 0 1 2.563-1.617h-.004c-2.974 1.248-6.2 3.718-13.085 4.757z"/><path fill="#00AA72" fill-rule="nonzero" d="M55.732 28.722c.62 0-.003-.713-.632-1.081-.496-.295-1.027-.582-1.426-.966-.411-.395-.869-1.47-1.051-1.78-.555-.938-1.38-1.667-3.079-1.884-1.706-.22-3.31.113-4.916.597-3.823 1.202-7.045 4.188-9.456 6.86.461.748.887 1.511 1.256 2.29.248.528.473 1.06.667 1.594 6.89-1.039 10.111-3.509 13.085-4.757h.004c1.873-.814 3.625-.888 4.695-.873h.853z"/><path fill="#23C18D" fill-rule="nonzero" d="M20.543 44.786c5.839-3.947 9.363-8.328 10.906-9.969-12.608.283-17.928-6.366-19.762-9.204 3.463 5.385 8.848 9.658 7.809 15.648-1.345 7.743-11.492 8.449-11.492 8.449s4.765.333 12.539-4.924z"/><ellipse cx="49.192" cy="25.896" fill="#FFF" fill-rule="nonzero" rx="1.008" ry="1"/><path d="M0 0h64v64H0z"/></g></svg>