<svg xmlns="http://www.w3.org/2000/svg" width="65" height="64" viewBox="0 0 65 64"><g fill="none" fill-rule="evenodd"><path fill="#00AA72" d="M19.632 30.126h9.652c.898 0 1.683-.166 2.357-.497a4.537 4.537 0 0 0 1.655-1.351c.43-.57.748-1.223.954-1.96.205-.736.309-1.49.309-2.263 0-.809-.104-1.582-.309-2.318a5.526 5.526 0 0 0-.954-1.93 4.663 4.663 0 0 0-1.655-1.326c-.674-.332-1.459-.497-2.357-.497h-9.652v12.142zm9.652-19.372c1.983 0 3.731.331 5.247.994 1.514.663 2.777 1.582 3.787 2.759 1.01 1.178 1.776 2.558 2.3 4.14.525 1.581.787 3.275.787 5.077 0 1.766-.245 3.45-.73 5.05-.486 1.6-1.235 2.999-2.245 4.195-1.009 1.195-2.272 2.152-3.787 2.87-1.516.717-3.302 1.076-5.36 1.076h-9.65v16.097h-7.35V10.754h17zM45.378 35.477V10.754h7.35v28.277z"/><path fill="#90E0C5" d="M52.728 46.447v6.565l-7.35-.001V42.895z"/></g></svg>