<svg xmlns="http://www.w3.org/2000/svg" width="64" height="64" viewBox="0 0 64 64"><g fill="none" fill-rule="evenodd"><path d="M0 0h64v64H0z"/><path fill="#00AA72" d="M43.176 35.927l8.669 4.996-8.669 5.069V35.927zm.661-1.175l8.669-4.995v9.99l-8.669-4.995zm-.66-11.166l8.668 4.995-8.669 4.996v-9.991zm-31.516-7.42l8.669-4.995v9.99l-8.669-4.995zM11 17.342l8.669 5.068L11 27.406V17.342zm0 12.415l8.669 4.995L11 39.747v-9.99zM43.176 11.17l8.669 4.995-8.669 4.996V11.17zm.661 11.24l8.669-5.07v10.065l-8.669-4.996zm-10.725-6.245l8.669-4.995v9.99l-8.669-4.995zm0 24.757l8.669-4.996v10.065l-8.669-5.07zM22.387 9.995L31.055 5v9.99l-8.668-4.995zM32.45 5l8.668 4.995-8.668 4.996V5zm0 37.172l8.668 4.995-8.668 4.996v-9.991zm.661 11.166l8.669-4.995v9.99l-8.669-4.995zm-11.387-17.41l8.669 4.995-8.669 5.069V35.927zm0-24.757l8.669 4.995-8.669 4.996V11.17zM11.661 28.58l8.669-4.995v9.99l-8.669-4.995zm0 12.342l8.669-4.996v10.065l-8.669-5.07zm10.726 6.244l8.668-4.995v9.99l-8.668-4.995z"/></g></svg>