<svg width="16" height="16" viewBox="0 0 16 16" fill="none" xmlns="http://www.w3.org/2000/svg">
<path d="M8.66663 2.36792V0.333252H7.33329V2.36792C7.55238 2.345 7.7748 2.33325 7.99996 2.33325C8.22512 2.33325 8.44753 2.345 8.66663 2.36792Z" fill="#BD3633"/>
<path d="M13.9901 2.95254L12.6143 4.32842C12.3086 4.00343 11.969 3.71073 11.6011 3.45598L13.0473 2.00974L13.9901 2.95254Z" fill="#BD3633"/>
<path d="M4.39881 3.45601C4.03091 3.71075 3.6913 4.00346 3.38564 4.32846L2.00972 2.95255L2.95253 2.00974L4.39881 3.45601Z" fill="#BD3633"/>
<path fill-rule="evenodd" clip-rule="evenodd" d="M14.3333 13.3333V14.6666H1.66663V13.3333H2.66663V8.66659C2.66663 5.72107 5.05444 3.33325 7.99996 3.33325C10.9455 3.33325 13.3333 5.72107 13.3333 8.66659V13.3333H14.3333ZM8.49996 8.74992V5.99992L5.99996 9.24992H7.49996V11.9999L9.99996 8.74992H8.49996Z" fill="#BD3633"/>
</svg>
