<svg width="24" height="24" viewBox="0 0 24 24" fill="none" xmlns="http://www.w3.org/2000/svg">
<path fill-rule="evenodd" clip-rule="evenodd" d="M12 10.8206L15.47 8.65186L16.53 10.3479L13 12.5541V16.4999H11V12.5541L7.46997 10.3479L8.52997 8.65186L12 10.8206Z" fill="#15A675"/>
<path fill-rule="evenodd" clip-rule="evenodd" d="M12.5 1.78876C12.1906 1.61013 11.8094 1.61013 11.5 1.78876L3.40674 6.46141C3.09734 6.64004 2.90674 6.97017 2.90674 7.32744V16.6727C2.90674 17.03 3.09734 17.3601 3.40674 17.5388L11.5 22.2114C11.8094 22.39 12.1906 22.39 12.5 22.2114L20.5933 17.5388C20.9027 17.3601 21.0933 17.03 21.0933 16.6727V7.32743C21.0933 6.97017 20.9027 6.64004 20.5933 6.46141L12.5 1.78876ZM15.47 8.65204L12 10.8208L8.52997 8.65204L7.46997 10.348L11 12.5543V16.5001H13V12.5543L16.53 10.348L15.47 8.65204Z" fill="#9DDFC9"/>
</svg>
