<svg width="24" height="24" viewBox="0 0 24 24" fill="none" xmlns="http://www.w3.org/2000/svg">
<path d="M9.60036 16.5L12.0754 7.5H14.1496L11.6746 16.5H9.60036Z" fill="#15A675"/>
<path d="M7.79292 8.79289L9.20714 10.2071L7.66424 11.75L9.20714 13.2929L7.79292 14.7071L4.83582 11.75L7.79292 8.79289Z" fill="#15A675"/>
<path d="M16.2071 8.79289L19.1642 11.75L16.2071 14.7071L14.7929 13.2929L16.3358 11.75L14.7929 10.2071L16.2071 8.79289Z" fill="#15A675"/>
<path fill-rule="evenodd" clip-rule="evenodd" d="M3 4C2.44772 4 2 4.44772 2 5V19C2 19.5523 2.44772 20 3 20H21C21.5523 20 22 19.5523 22 19V5C22 4.44772 21.5523 4 21 4H3ZM9.60036 16.5L12.0754 7.5H14.1496L11.6746 16.5H9.60036ZM7.79292 8.79289L9.20714 10.2071L7.66424 11.75L9.20714 13.2929L7.79292 14.7071L4.83582 11.75L7.79292 8.79289ZM19.1642 11.75L16.2071 8.79289L14.7929 10.2071L16.3358 11.75L14.7929 13.2929L16.2071 14.7071L19.1642 11.75Z" fill="#9DDFC9"/>
</svg>
