<svg width="24" height="24" viewBox="0 0 24 24" fill="none" xmlns="http://www.w3.org/2000/svg">
<path fill-rule="evenodd" clip-rule="evenodd" d="M8 3.5H5C4.44772 3.5 4 3.94772 4 4.5V21C4 21.5523 4.44772 22 5 22H19C19.5523 22 20 21.5523 20 21V4.5C20 3.94772 19.5523 3.5 19 3.5H16V5H8V3.5ZM10.945 11.8161L9.5 11.5253C9.75364 10.2985 10.7539 9.5 12.029 9.5C13.2234 9.5 14.2975 10.2739 14.4722 11.5972C14.5957 12.5327 14.3077 13.115 13.6111 13.8137C13.5907 13.8342 13.5404 13.8841 13.4926 13.9315L13.4919 13.9322C13.4496 13.9741 13.4095 14.0139 13.3939 14.0295C12.8896 14.5348 12.7148 14.8616 12.7148 15.5H11.24C11.24 14.4191 11.5919 13.7614 12.343 13.0089C12.3619 12.9898 12.4078 12.9443 12.4531 12.8994L12.4588 12.8937C12.5018 12.8511 12.5435 12.8098 12.5596 12.7935C12.9698 12.3821 13.0635 12.1926 13.0097 11.7851C12.9388 11.2477 12.5324 10.9549 12.029 10.9549C11.4521 10.9549 11.0581 11.2694 10.945 11.8161ZM12 18.5C12.4142 18.5 12.75 18.1642 12.75 17.75C12.75 17.3358 12.4142 17 12 17C11.5858 17 11.25 17.3358 11.25 17.75C11.25 18.1642 11.5858 18.5 12 18.5Z" fill="#9DDFC9"/>
<path d="M9 2C8.44772 2 8 2.44772 8 3V5H16V3C16 2.44772 15.5523 2 15 2H9Z" fill="#15A675"/>
<path d="M10.945 11.8161L9.5 11.5253C9.75364 10.2985 10.7539 9.5 12.029 9.5C13.2234 9.5 14.2975 10.2739 14.4722 11.5972C14.5957 12.5327 14.3077 13.115 13.6111 13.8137C13.5907 13.8342 13.5404 13.8841 13.4926 13.9315L13.4919 13.9322C13.4496 13.9741 13.4095 14.0139 13.3939 14.0295C12.8896 14.5348 12.7148 14.8616 12.7148 15.5H11.24C11.24 14.4191 11.5919 13.7614 12.343 13.0089C12.3619 12.9898 12.4078 12.9443 12.4531 12.8994L12.4553 12.8972C12.4996 12.8533 12.543 12.8103 12.5596 12.7935C12.9698 12.3821 13.0635 12.1926 13.0097 11.7851C12.9388 11.2477 12.5324 10.9549 12.029 10.9549C11.4521 10.9549 11.0581 11.2694 10.945 11.8161Z" fill="#15A675"/>
<path d="M12.75 17.75C12.75 18.1642 12.4142 18.5 12 18.5C11.5858 18.5 11.25 18.1642 11.25 17.75C11.25 17.3358 11.5858 17 12 17C12.4142 17 12.75 17.3358 12.75 17.75Z" fill="#15A675"/>
</svg>
