<svg width="16" height="16" viewBox="0 0 16 16" fill="none" xmlns="http://www.w3.org/2000/svg">
<path d="M7.99026 7.44631C8.02776 7.31312 8.10725 7.18391 8.27908 7.07864C8.27692 7.09558 8.27432 7.11361 8.27123 7.13276C8.23451 7.35983 8.14112 7.66935 8.00529 8.026C7.95369 7.80818 7.9445 7.60889 7.99026 7.44631Z" fill="#324558"/>
<path d="M7.87495 9.90157C7.92185 9.81317 7.96806 9.72414 8.01341 9.63487C8.05673 9.72179 8.10008 9.80578 8.14342 9.88691C8.05172 9.89047 7.96224 9.89538 7.87495 9.90157Z" fill="#324558"/>
<path d="M9.87024 11.0476C9.74149 10.9549 9.59639 10.8226 9.43955 10.6409C9.79136 10.7223 10.022 10.845 10.1598 10.9612C10.3304 11.1051 10.3346 11.1938 10.3297 11.2239C10.3185 11.2271 10.2985 11.23 10.2657 11.2271C10.1872 11.2204 10.0527 11.179 9.87024 11.0476Z" fill="#324558"/>
<path d="M5.71215 11.4571C5.79989 11.2828 6.03971 11.0371 6.53314 10.8448C6.44003 10.9792 6.34953 11.101 6.26333 11.2074C6.10523 11.4025 5.97627 11.5272 5.88453 11.5883C5.75932 11.6717 5.69696 11.6699 5.67535 11.6642C5.66761 11.6475 5.64736 11.5857 5.71215 11.4571Z" fill="#324558"/>
<path d="M5.6663 11.6602C5.6663 11.6602 5.66788 11.6605 5.67065 11.6627C5.66762 11.6615 5.6663 11.6602 5.6663 11.6602Z" fill="#324558"/>
<path fill-rule="evenodd" clip-rule="evenodd" d="M2.66663 1.99992C2.66663 1.63173 2.9651 1.33325 3.33329 1.33325H9.33329L13.3333 5.33325V13.9999C13.3333 14.3681 13.0348 14.6666 12.6666 14.6666H3.33329C2.9651 14.6666 2.66663 14.3681 2.66663 13.9999V1.99992ZM8.92935 7.23917C8.85944 7.67154 8.64367 8.27147 8.36962 8.88767C8.385 8.91376 8.39893 8.93665 8.41092 8.95596C8.42583 8.97997 8.43766 8.99831 8.44547 9.0102C8.44937 9.01615 8.45226 9.02047 8.45401 9.02308L8.45578 9.02569L8.45599 9.02601L8.47163 9.04874L8.48343 9.07416C8.62913 9.3879 8.7728 9.65944 8.91216 9.89364C9.69651 9.94836 10.2475 10.163 10.5897 10.4517C10.9632 10.7668 11.1697 11.2916 10.8339 11.6672C10.6755 11.8444 10.4431 11.9116 10.2082 11.8913C9.97597 11.8712 9.72869 11.7673 9.48064 11.5886C9.18308 11.3743 8.86281 11.0374 8.53566 10.5467L8.5075 10.5467C8.11405 10.5467 7.77157 10.571 7.47423 10.6125C7.4233 10.6973 7.3722 10.7804 7.32115 10.8612C7.13999 11.1479 6.95685 11.4104 6.78131 11.6271C6.60967 11.8389 6.43019 12.026 6.25394 12.1433C5.91703 12.3675 5.50337 12.422 5.21683 12.1507C4.94432 11.8927 4.95046 11.4874 5.1167 11.1572C5.36263 10.6688 5.97866 10.2196 7.05571 10.0078C7.25643 9.65612 7.45165 9.28015 7.62574 8.91083C7.53824 8.73153 7.44639 8.51268 7.38174 8.27785C7.29812 7.97415 7.25107 7.61192 7.34854 7.26566C7.4512 6.90096 7.70395 6.59181 8.14049 6.40151C8.24505 6.35592 8.37433 6.31912 8.51091 6.33856C8.66678 6.36073 8.78942 6.4501 8.86354 6.57475C8.92868 6.68431 8.94834 6.80617 8.95305 6.90676C8.95797 7.0118 8.94781 7.12499 8.92935 7.23917Z" fill="#324558"/>
</svg>
