<svg width="24" height="24" viewBox="0 0 24 24" fill="none" xmlns="http://www.w3.org/2000/svg">
<path d="M6.93933 16L10.9393 12L6.93935 8H3C2.44772 8 2 8.44771 2 9L2 15C2 15.5523 2.44772 16 3 16H6.93933Z" fill="#9DDFC9"/>
<path d="M17.0607 16H21C21.5523 16 22 15.5523 22 15V9C22 8.44771 21.5523 8 21 8H17.0607L13.0607 12L17.0607 16Z" fill="#9DDFC9"/>
<path d="M8 21V17.0607L12 13.0607L16 17.0607V21C16 21.5523 15.5523 22 15 22H9C8.44772 22 8 21.5523 8 21Z" fill="#9DDFC9"/>
<path d="M16 6.93933L12 10.9393L8 6.93933V3C8 2.44772 8.44772 2 9 2H15C15.5523 2 16 2.44772 16 3V6.93933Z" fill="#15A675"/>
</svg>
