<svg width="16" height="16" viewBox="0 0 16 16" fill="none" xmlns="http://www.w3.org/2000/svg">
<path d="M8.00004 1.33325C4.31671 1.33325 1.33337 4.31659 1.33337 7.99992C1.33262 9.39944 1.77258 10.7637 2.59085 11.899C3.40912 13.0344 4.56414 13.8833 5.89204 14.3253C6.22538 14.3833 6.35004 14.1833 6.35004 14.0079C6.35004 13.8499 6.34138 13.3253 6.34138 12.7666C4.66671 13.0753 4.23337 12.3586 4.10004 11.9833C4.02471 11.7913 3.70004 11.1999 3.41671 11.0413C3.18338 10.9166 2.85004 10.6079 3.40804 10.5999C3.93338 10.5913 4.30804 11.0833 4.43338 11.2833C5.03338 12.2913 5.99204 12.0079 6.37471 11.8333C6.43338 11.3999 6.60804 11.1086 6.80004 10.9419C5.31671 10.7753 3.76671 10.1999 3.76671 7.64992C3.76671 6.92459 4.02471 6.32525 4.45004 5.85792C4.38338 5.69125 4.15004 5.00792 4.51671 4.09125C4.51671 4.09125 5.07471 3.91659 6.35004 4.77525C6.89275 4.62463 7.45349 4.54881 8.01671 4.54992C8.58338 4.54992 9.15004 4.62459 9.68338 4.77459C10.958 3.90792 11.5167 4.09192 11.5167 4.09192C11.8834 5.00859 11.65 5.69192 11.5834 5.85859C12.008 6.32525 12.2667 6.91659 12.2667 7.64992C12.2667 10.2086 10.7087 10.7753 9.22538 10.9419C9.46671 11.1499 9.67538 11.5499 9.67538 12.1753C9.67538 13.0666 9.66671 13.7833 9.66671 14.0086C9.66671 14.1833 9.79204 14.3913 10.1254 14.3246C11.4487 13.8778 12.5987 13.0272 13.4133 11.8927C14.228 10.7581 14.6663 9.39666 14.6667 7.99992C14.6667 4.31659 11.6834 1.33325 8.00004 1.33325Z" fill="#324558"/>
</svg>
