<svg width="16" height="16" viewBox="0 0 16 16" fill="none" xmlns="http://www.w3.org/2000/svg">
<path fill-rule="evenodd" clip-rule="evenodd" d="M8.00004 14.6666C11.6819 14.6666 14.6667 11.6818 14.6667 7.99992C14.6667 4.31802 11.6819 1.33325 8.00004 1.33325C4.31814 1.33325 1.33337 4.31802 1.33337 7.99992C1.33337 11.6818 4.31814 14.6666 8.00004 14.6666ZM9.00004 4.99992C9.00004 5.36811 8.70156 5.66659 8.33337 5.66659C7.96518 5.66659 7.66671 5.36811 7.66671 4.99992C7.66671 4.63173 7.96518 4.33325 8.33337 4.33325C8.70156 4.33325 9.00004 4.63173 9.00004 4.99992ZM9.3961 11.6062C9.03345 11.7535 8.70355 11.8584 8.40763 11.9253C8.11174 11.9907 7.83091 12.0248 7.56509 12.0248C7.30332 12.0248 7.10561 11.9539 6.97057 11.8121C6.83564 11.6703 6.76879 11.4644 6.76879 11.1917C6.76879 11.1222 6.77566 11.0363 6.78932 10.9327C6.80288 10.8304 6.82885 10.675 6.867 10.4691L7.44238 7.58553L6.56295 7.44919V7.07287L8.40352 6.66659H8.87395L8.18814 10.2878C8.16766 10.3995 8.15272 10.4896 8.14309 10.5605C8.13358 10.63 8.12945 10.6873 8.12945 10.7336C8.12945 10.9245 8.17448 11.0718 8.26578 11.1699C8.35583 11.2694 8.48668 11.3198 8.6585 11.3198C8.73489 11.3198 8.83575 11.3076 8.96253 11.283C9.08796 11.2585 9.23252 11.2203 9.39609 11.1672L9.3961 11.6062Z" fill="#1286F1"/>
</svg>
