<svg width="16" height="16" viewBox="0 0 16 16" fill="none" xmlns="http://www.w3.org/2000/svg">
<path fill-rule="evenodd" clip-rule="evenodd" d="M10 10L11.1388 10.3175C11.2493 10.3483 11.35 10.4072 11.4311 10.4883L14.6661 13.7233L13.7233 14.6661L10.4883 11.4311C10.4072 11.35 10.3483 11.2493 10.3175 11.1388L10 10Z" fill="#324558"/>
<path fill-rule="evenodd" clip-rule="evenodd" d="M6.66659 10.6666C8.87572 10.6666 10.6666 8.87572 10.6666 6.66659C10.6666 4.45745 8.87572 2.66659 6.66659 2.66659C4.45745 2.66659 2.66659 4.45745 2.66659 6.66659C2.66659 8.87572 4.45745 10.6666 6.66659 10.6666ZM6.66659 11.9999C9.6121 11.9999 11.9999 9.6121 11.9999 6.66659C11.9999 3.72107 9.6121 1.33325 6.66659 1.33325C3.72107 1.33325 1.33325 3.72107 1.33325 6.66659C1.33325 9.6121 3.72107 11.9999 6.66659 11.9999Z" fill="#B6C2CD"/>
</svg>
