<svg width="132" height="24" viewBox="0 0 132 24" fill="none" xmlns="http://www.w3.org/2000/svg">
<g clip-path="url(#clip0_1404_7754)">
<path d="M11.6185 17.1197C11.6147 17.1212 11.6107 17.122 11.6067 17.122C11.6026 17.122 11.5986 17.1212 11.5949 17.1197L4.44611 13.0631C4.44434 13.0601 4.44341 13.0567 4.44341 13.0532C4.44341 13.0497 4.44434 13.0463 4.44611 13.0433V4.93685C4.44393 4.93399 4.44275 4.93051 4.44275 4.92693C4.44275 4.92335 4.44393 4.91987 4.44611 4.91701L11.5949 0.857178H11.6185L18.7672 4.91701C18.769 4.92003 18.7699 4.92345 18.7699 4.92693C18.7699 4.93041 18.769 4.93383 18.7672 4.93685V13.0433C18.7687 13.0464 18.7695 13.0498 18.7695 13.0532C18.7695 13.0566 18.7687 13.06 18.7672 13.0631L11.6185 17.1197Z" fill="#0FA06D"/>
<path d="M23.2133 19.0935H0V23.6559H23.2133V19.0935Z" fill="#0FA06D"/>
<path d="M43.3067 11.1323C43.3067 13.6052 42.536 15.7607 41.082 17.2617L43.2158 20.6934H40.604L39.3116 18.5543C38.1648 19.1225 36.8934 19.4052 35.6093 19.3776C30.5607 19.3776 27.8682 15.7673 27.8682 11.1323C27.8682 6.49717 30.5607 2.88696 35.6093 2.88696C40.6579 2.88696 43.3235 6.49717 43.3235 11.1323H43.3067ZM37.9956 16.3955L35.2761 11.8927H37.7701L39.6078 14.8681C40.2623 13.7368 40.5839 12.4492 40.5367 11.1488C40.5367 8.00473 39.0188 5.33014 35.5925 5.33014C32.1662 5.33014 30.628 7.9882 30.628 11.1323C30.628 14.2763 32.1494 16.9476 35.5958 16.9476C36.4311 16.9724 37.2584 16.782 37.9956 16.3955" fill="#221714"/>
<path d="M44.9996 2.88696H47.6316V5.31361H44.9996V2.88696ZM47.5879 19.0866H45.0232V7.74356H47.5879V19.0866Z" fill="#221714"/>
<path d="M58.0451 19.0867V12.4746C58.0451 10.6266 57.1835 9.69095 55.4804 9.69095C53.6428 9.69095 52.485 11.2283 52.485 12.997V19.0867H49.9203V7.74368H52.3941V8.83798H52.9393C53.6125 7.96849 54.7333 7.45605 56.2748 7.45605C59.1558 7.45605 60.6098 9.1719 60.6098 12.0019V19.0867H58.0451Z" fill="#221714"/>
<path d="M73.4669 7.74364V18.5313C73.4669 21.7415 71.2657 23.7449 67.8865 23.7449C64.8204 23.7449 62.7572 22.4754 62.5014 20.0917H65.0425C65.2916 21.2257 66.2912 21.672 67.8562 21.672C70.0339 21.672 70.919 20.3496 70.919 18.366V17.5957H70.3435C69.8016 18.3759 68.7784 18.9776 67.1225 18.9776C63.9688 18.9776 62.0403 16.5245 62.0403 13.2284C62.0403 9.93225 64.0294 7.46924 67.136 7.46924C68.8592 7.46924 69.9261 8.13045 70.4478 8.85117H70.9931V7.74364H73.4669ZM70.9931 13.2284C70.9931 11.2646 69.9261 9.59172 67.7721 9.59172C65.7762 9.59172 64.6184 11.0828 64.6184 13.2284C64.6184 15.374 65.7762 16.8386 67.7721 16.8386C69.9261 16.8386 70.9931 15.1657 70.9931 13.2284Z" fill="#221714"/>
<path d="M89.3867 14.273C88.8549 17.2815 86.4585 19.3709 82.7966 19.3709C77.9197 19.3709 75.1766 15.9161 75.1766 11.1256C75.1766 6.33518 77.9298 2.88696 82.7966 2.88696C86.2465 2.88696 88.6058 4.75819 89.1915 7.58817H86.334C85.8123 6.074 84.6982 5.31691 82.7932 5.31691C79.4578 5.31691 77.9163 7.9882 77.9163 11.1323C77.9163 14.2763 79.4511 16.9476 82.7966 16.9476C84.7958 16.9476 86.1118 15.9558 86.5393 14.273H89.3867Z" fill="#221714"/>
<path d="M93.5804 2.88696H91.0157V19.0899H93.5804V2.88696Z" fill="#221714"/>
<path d="M106.848 13.4201C106.848 16.8981 104.647 19.3942 101.019 19.3942C97.3903 19.3942 95.1858 16.8816 95.1858 13.4201C95.1858 9.9587 97.387 7.46924 101.019 7.46924C104.65 7.46924 106.848 9.96861 106.848 13.4201ZM104.283 13.4201C104.283 11.4365 103.274 9.61156 101.019 9.61156C98.7635 9.61156 97.7505 11.4365 97.7505 13.4201C97.7505 15.4038 98.7602 17.2552 101.019 17.2552C103.277 17.2552 104.283 15.4501 104.283 13.4201Z" fill="#221714"/>
<path d="M110.86 7.74365V14.3558C110.86 16.2038 111.722 17.1395 113.421 17.1395C115.259 17.1395 116.417 15.6021 116.417 13.8334V7.74365H118.981V19.0867H116.508V17.9957H115.962C115.289 18.8652 114.172 19.3777 112.63 19.3777C109.749 19.3777 108.295 17.6618 108.295 14.8318V7.74365H110.86Z" fill="#221714"/>
<path d="M128.907 8.83786H129.452V2.88696H132.017V19.0866H129.543V17.9956H128.998C128.362 18.7759 127.315 19.3776 125.595 19.3776C122.465 19.3776 120.604 16.7922 120.604 13.4035C120.604 10.0148 122.485 7.45262 125.595 7.45262C127.298 7.45262 128.288 8.03449 128.907 8.83786V8.83786ZM129.503 13.42C129.503 11.4364 128.55 9.61147 126.305 9.61147C124.195 9.61147 123.152 11.2381 123.152 13.42C123.152 15.602 124.195 17.2551 126.305 17.2551C128.55 17.2551 129.503 15.45 129.503 13.42Z" fill="#221714"/>
</g>
<defs>
<clipPath id="clip0_1404_7754">
<rect width="132" height="24" fill="white"/>
</clipPath>
</defs>
</svg>
