<svg width="24" height="24" viewBox="0 0 24 24" fill="none" xmlns="http://www.w3.org/2000/svg">
<path d="M20.75 14.768L15.9557 17.536L11.1615 14.768V10.4768L8.1615 8.89786V15.9227C8.1615 16.28 8.3521 16.6101 8.6615 16.7888L15.4557 20.7114C15.7651 20.89 16.1463 20.89 16.4557 20.7114L23.25 16.7888C23.5594 16.6101 23.75 16.28 23.75 15.9227V8.07743C23.75 7.72017 23.5594 7.39004 23.25 7.21141L16.4557 3.28876C16.301 3.19944 16.1284 3.15479 15.9557 3.15479V6.46418L20.75 9.23213V14.768Z" fill="#9DDFC9"/>
<path d="M3.25 9.23214L8.04423 6.46419L12.8385 9.23214V13.5234L15.8385 15.1023V8.07743C15.8385 7.72017 15.6479 7.39004 15.3385 7.21141L8.54423 3.28876C8.23483 3.11013 7.85363 3.11013 7.54423 3.28876L0.75 7.21141C0.440599 7.39004 0.25 7.72017 0.25 8.07744V15.9227C0.25 16.28 0.440599 16.6101 0.75 16.7888L7.54423 20.7114C7.69893 20.8007 7.87158 20.8454 8.04423 20.8454V17.536L3.25 14.768V9.23214Z" fill="#15A675"/>
</svg>
