<svg width="24" height="24" viewBox="0 0 24 24" fill="none" xmlns="http://www.w3.org/2000/svg">
<path fill-rule="evenodd" clip-rule="evenodd" d="M10.6086 10.4453C10.8993 11.0972 11.3121 11.7078 11.8469 12.2426C12.3043 12.7 12.8172 13.0681 13.3639 13.347L8.9268 17.784C9.15822 18.8999 8.84091 20.1069 7.97487 20.9729C6.60804 22.3397 4.39196 22.3397 3.02513 20.9729C1.65829 19.6061 1.65829 17.39 3.02513 16.0232C3.84059 15.2077 4.95832 14.8787 6.01766 15.0363L10.6086 10.4453ZM4.79281 19.2052C5.18334 19.5957 5.8165 19.5957 6.20703 19.2052C6.59755 18.8146 6.59755 18.1815 6.20703 17.7909C5.8165 17.4004 5.18334 17.4004 4.79281 17.7909C4.40229 18.1815 4.40229 18.8146 4.79281 19.2052Z" fill="#9DDFC9"/>
<path d="M17.6433 2.20363C15.6416 1.66907 13.4173 2.18698 11.847 3.75736C9.50381 6.1005 9.50381 9.89949 11.847 12.2426C14.1901 14.5858 17.9891 14.5858 20.3322 12.2426C21.9026 10.6723 22.4205 8.44797 21.886 6.44627L19.2716 9.06066L16.0896 8L15.0289 4.81802L17.6433 2.20363Z" fill="#15A675"/>
</svg>
