<svg width="64" height="64" viewBox="0 0 64 64" fill="none" xmlns="http://www.w3.org/2000/svg">
<path fill-rule="evenodd" clip-rule="evenodd" d="M10.6667 8C9.19391 8 8 9.19391 8 10.6667V53.3333C8 54.8061 9.19391 56 10.6667 56H53.3333C54.8061 56 56 54.8061 56 53.3333V10.6667C56 9.19391 54.8061 8 53.3333 8H10.6667ZM50.6667 18.6667H13.3333V50.6667H50.6667V18.6667Z" fill="#55BC8A"/>
<path d="M24.0001 26.6666H18.6667V32H24.0001V26.6666Z" fill="#A2D8BB"/>
<path d="M45.3334 26.6666H29.3334V32H45.3334V26.6666Z" fill="#A2D8BB"/>
<path d="M18.6667 37.3333H24.0001V42.6666H18.6667V37.3333Z" fill="#A2D8BB"/>
<path d="M45.3334 37.3333H29.3334V42.6666H45.3334V37.3333Z" fill="#A2D8BB"/>
</svg>
