<svg xmlns="http://www.w3.org/2000/svg" viewBox="0 0 25 25">
<g fill-rule="evenodd">
<path d="M20.1317 11.6464L17.1261 14.652L15.7119 13.2377L18.7175 10.2322C20.0843 8.86536 20.0843 6.64928 18.7175 5.28245C17.3506 3.91562 15.1346 3.91562 13.7677 5.28245L10.7622 8.288L9.34797 6.87379L12.3535 3.86824C14.5014 1.72035 17.9838 1.72035 20.1317 3.86824C22.2796 6.01612 22.2796 9.49853 20.1317 11.6464Z" fill="#CCD3DB"/>
<path d="M3.86824 12.3535C1.72035 14.5014 1.72035 17.9838 3.86824 20.1317C6.01612 22.2796 9.49853 22.2796 11.6464 20.1317L14.6513 17.1268L13.2371 15.7126L10.2322 18.7175C8.86536 20.0843 6.64929 20.0843 5.28245 18.7175C3.91562 17.3506 3.91562 15.1346 5.28245 13.7677L8.28731 10.7629L6.8731 9.34865L3.86824 12.3535Z" fill="#CCD3DB"/>
<path d="M4.39859 4.04578L2.98438 5.45999L10.0552 12.5308L7.75735 14.8286L9.17157 16.2428L11.4694 13.945L18.5407 21.0163L19.9549 19.6021L4.39859 4.04578Z" fill="#36435C"/>
<path d="M12.53 10.0559L13.9443 11.4701L16.2426 9.17175L14.8284 7.75754L12.53 10.0559Z" fill="#36435C"/>
</g></svg>
