<svg width="24" height="24" viewBox="0 0 24 24" fill="none" xmlns="http://www.w3.org/2000/svg">
<path d="M4.04005 10.0889C5.08707 5.72441 9.45952 3.01198 13.8415 4.02364C18.2467 5.04066 20.9934 9.43625 19.9764 13.8415C18.9593 18.2467 14.5637 20.9934 10.1585 19.9763C7.95593 19.4678 6.16795 18.1147 5.05776 16.338L6.75386 15.2781C7.59281 16.6208 8.94396 17.6433 10.6084 18.0276C13.9374 18.7961 17.2591 16.7205 18.0276 13.3916C18.7962 10.0626 16.7206 6.74093 13.3916 5.97238C10.0973 5.21182 6.81006 7.23658 5.99722 10.5049L7.96905 10.9241L4.54841 13.1455L2.32703 9.72481L4.04005 10.0889Z" fill="#B6C2CD"/>
<path d="M11 7.24219H13V11.5858L15.7071 14.2929L14.2929 15.7071L11.5858 13C11.2107 12.6249 11 12.1162 11 11.5858V7.24219Z" fill="#324558"/>
</svg>
