<svg xmlns="http://www.w3.org/2000/svg" viewBox="0 0 25 25"><g fill-rule="evenodd"><path fill="currentColor" d="M12 13.695l1.248-2.677-.906-.422-.342.733V5h8a1 1 0 011 1v12a1 1 0 01-1 1h-8v-5.305zM19.5 7a.5.5 0 100-1 .5.5 0 000 1zm-2 0a.5.5 0 100-1 .5.5 0 000 1zm-2 0a.5.5 0 100-1 .5.5 0 000 1zM14 10.61L16.39 13 14 15.39l.61.61 3-3-3-3-.61.61z"/><path d="M12 11.329l-1.771 3.798.906.423.865-1.855V19H4a1 1 0 01-1-1V6a1 1 0 011-1h8v6.329zm-2.39-.718L9 10l-3 3 3 3 .61-.61L7.223 13l2.389-2.39z"/><path fill="currentColor" fill-rule="nonzero" d="M9.61 10.61L9 10l-3 3 3 3 .61-.61L7.223 13z"/><path fill-rule="nonzero" d="M14 10.61l.61-.61 3 3-3 3-.61-.61L16.39 13z"/><circle cx="15.5" cy="6.5" r="1"/><circle cx="17.5" cy="6.5" r="1"/><circle cx="19.5" cy="6.5" r="1"/></g></svg>
