<svg width="24" height="24" viewBox="0 0 24 24" fill="none" xmlns="http://www.w3.org/2000/svg">
<path fill-rule="evenodd" clip-rule="evenodd" d="M15 6H10.5C9.67157 6 9 6.67157 9 7.5V18H6.5C5.67157 18 5 17.3284 5 16.5V3.5C5 2.67157 5.67157 2 6.5 2H13.5C14.3284 2 15 2.67157 15 3.5V6Z" fill="#B6C2CD"/>
<path fill-rule="evenodd" clip-rule="evenodd" d="M10.5 6H17.5C18.3284 6 19 6.67157 19 7.5V20.5C19 21.3284 18.3284 22 17.5 22H10.5C9.67157 22 9 21.3284 9 20.5V7.5C9 6.67157 9.67157 6 10.5 6Z" fill="#324558"/>
</svg>
