<svg xmlns="http://www.w3.org/2000/svg" viewBox="0 0 25 25"><rect fill="#242e42" width="25" height="25"/><g fill-rule="evenodd"><path fill="rgba(255, 255, 255, 0.4)" d="M10.65 5.293c-.79-1.033-2.6-1.303-5.434-.81 1.837-1.52 3.938-2.293 6.303-2.32 1.863-.023 4.445.619 5.361 2.42.436.254 1.67.955 3.7 2.104a.5.5 0 01.188.682l-1.455 2.57a.5.5 0 01-.68.188l-2.832-1.6a1.5 1.5 0 00-2.067.61l-.856 1.632-2.506-1.474c.889-1.746.981-3.08.277-4.002z"/><path fill="rgba(255, 255, 255, 0.9)" d="M10.371 9.294l2.51 1.476L7.1 21.671a.5.5 0 01-.708.19l-2.327-1.459a.5.5 0 01-.16-.687l6.465-10.42z"/></g></svg>
