<svg width="24" height="24" viewBox="0 0 24 24" fill="none" xmlns="http://www.w3.org/2000/svg">
<path d="M4 3C3.44772 3 3 3.44772 3 4V7C3 7.55228 3.44772 8 4 8H9C9.55228 8 10 7.55228 10 7V4C10 3.44772 9.55229 3 9 3H4Z" fill="#CCD3DB"/>
<path d="M21 4.5H12V6.5H21V4.5Z" fill="#CCD3DB"/>
<path d="M3 17C3 16.4477 3.44772 16 4 16H9C9.55229 16 10 16.4477 10 17V20C10 20.5523 9.55228 21 9 21H4C3.44772 21 3 20.5523 3 20V17Z" fill="#CCD3DB"/>
<path d="M21 17.5H12V19.5H21V17.5Z" fill="#CCD3DB"/>
<path d="M4 9.5C3.44772 9.5 3 9.94771 3 10.5V13.5C3 14.0523 3.44772 14.5 4 14.5H9C9.55228 14.5 10 14.0523 10 13.5V10.5C10 9.94771 9.55229 9.5 9 9.5H4Z" fill="#242E42"/>
<path d="M21 11H12V13H21V11Z" fill="#242E42"/>
</svg>
