<svg width="24" height="24" viewBox="0 0 24 24" fill="none" xmlns="http://www.w3.org/2000/svg">
<path d="M11.5511 1.41475C11.7341 1.04176 12.2658 1.04176 12.4489 1.41475L15.3217 7.26916C15.4669 7.56509 15.7486 7.77045 16.0748 7.81812L22.5022 8.75744C22.9114 8.81724 23.0752 9.3197 22.7799 9.60922L18.1237 14.174C17.8896 14.4035 17.7829 14.7331 17.838 15.0562L18.9368 21.4995C19.0065 21.9084 18.5768 22.2195 18.2102 22.0256L12.4674 18.9891C12.175 18.8345 11.825 18.8345 11.5326 18.9891L5.78982 22.0256C5.42317 22.2195 4.99349 21.9084 5.06322 21.4995L6.16202 15.0562C6.21713 14.7331 6.11038 14.4035 5.87631 14.174L1.2201 9.60922C0.924773 9.3197 1.0886 8.81724 1.49782 8.75744L7.92517 7.81812C8.25135 7.77045 8.53309 7.56509 8.67831 7.26916L11.5511 1.41475Z" fill="#F5A623"/>
</svg>
