<svg width="24" height="24" viewBox="0 0 24 24" fill="none" xmlns="http://www.w3.org/2000/svg">
<path fill-rule="evenodd" clip-rule="evenodd" d="M8.61763 7.37576C8.46196 7.61397 8.21058 7.77641 7.92517 7.81812L1.49782 8.75744C1.0886 8.81724 0.924773 9.3197 1.2201 9.60922L5.87631 14.174C6.11038 14.4035 6.21713 14.7331 6.16202 15.0562L5.06322 21.4995C4.99349 21.9084 5.42317 22.2195 5.78982 22.0256L11.5326 18.9891C11.825 18.8345 12.175 18.8345 12.4674 18.9891L18.2102 22.0256C18.5768 22.2195 19.0065 21.9084 18.9368 21.4995L17.838 15.0562C17.8345 15.036 17.8317 15.0158 17.8295 14.9956C17.7967 14.6923 17.9042 14.3891 18.1237 14.174L22.7799 9.60922C23.0752 9.3197 22.9114 8.81724 22.5022 8.75744L16.0748 7.81812C15.7486 7.77045 15.4669 7.56509 15.3217 7.26916L12.4489 1.41475C12.356 1.22551 12.1734 1.13228 11.9921 1.13507C11.9501 1.13572 11.9081 1.14152 11.8673 1.15249C11.7374 1.18746 11.6198 1.27488 11.5511 1.41475L8.67831 7.26916C8.66015 7.30615 8.63987 7.34173 8.61763 7.37576ZM13.4023 17.2211C12.9636 16.9891 12.4818 16.8731 12 16.8731V5.04002L13.5262 8.15022C13.9619 9.03802 14.8071 9.65409 15.7856 9.7971L19.2195 10.2989L16.7236 12.7458C16.0214 13.4342 15.7011 14.423 15.8664 15.3924L16.4534 18.8343L13.4023 17.2211ZM10.5977 17.2211C11.0364 16.9891 11.5182 16.8731 12 16.8731V5.04002L10.4738 8.15022C10.0381 9.03802 9.19293 9.65409 8.21439 9.7971L4.78052 10.2989L7.27643 12.7458C7.97862 13.4342 8.29887 14.423 8.13356 15.3924L7.54659 18.8343L10.5977 17.2211Z" fill="#36435C"/>
</svg>
