<svg width="1668" height="936" viewBox="0 0 1668 936" fill="none" xmlns="http://www.w3.org/2000/svg">
<path d="M1082.47 729.559C1076.66 729.559 1071.2 728.648 1066.09 726.825C1061.06 724.916 1056.69 722.139 1052.96 718.494C1049.23 714.849 1046.29 710.336 1044.12 704.955C1042.04 699.488 1041 693.196 1041 686.08C1041 679.05 1042.08 672.802 1044.25 667.334C1046.42 661.78 1049.36 657.093 1053.09 653.275C1056.9 649.456 1061.32 646.549 1066.35 644.553C1071.38 642.557 1076.71 641.559 1082.34 641.559C1088.5 641.559 1093.78 642.687 1098.2 644.944C1102.62 647.2 1106.22 649.76 1108.99 652.624L1098.98 664.861C1096.82 662.951 1094.52 661.346 1092.09 660.044C1089.67 658.742 1086.63 658.092 1082.99 658.092C1079.7 658.092 1076.66 658.742 1073.89 660.044C1071.2 661.259 1068.86 663.038 1066.87 665.381C1064.88 667.725 1063.32 670.589 1062.19 673.973C1061.15 677.358 1060.63 681.176 1060.63 685.429C1060.63 694.194 1062.58 701.007 1066.48 705.867C1070.47 710.64 1076.45 713.026 1084.42 713.026C1086.15 713.026 1087.85 712.809 1089.49 712.376C1091.14 711.942 1092.48 711.291 1093.52 710.423V695.843H1079.48V680.222H1110.42V719.275C1107.48 722.139 1103.58 724.569 1098.72 726.565C1093.87 728.561 1088.45 729.559 1082.47 729.559Z" fill="#8C929D"/>
<path d="M1127.79 727.997V643.121H1146.9V727.997H1127.79Z" fill="#8C929D"/>
<path d="M1184.7 727.997V659.263H1161.43V643.121H1227.22V659.263H1203.94V727.997H1184.7Z" fill="#8C929D"/>
<path d="M1241.8 727.997V643.121H1260.91V711.855H1294.45V727.997H1241.8Z" fill="#8C929D"/>
<path d="M1337.03 685.038L1334.95 692.849H1353.03L1351.07 685.038C1349.86 680.786 1348.69 676.273 1347.56 671.5C1346.44 666.727 1345.31 662.127 1344.18 657.701H1343.66C1342.62 662.214 1341.54 666.857 1340.41 671.63C1339.37 676.316 1338.25 680.786 1337.03 685.038ZM1306.35 727.997L1332.87 643.121H1355.89L1382.41 727.997H1362.13L1356.93 707.819H1331.05L1325.85 727.997H1306.35Z" fill="#8C929D"/>
<path d="M1395.65 727.997V643.121H1424.64C1429.06 643.121 1433.13 643.468 1436.86 644.163C1440.67 644.77 1443.97 645.898 1446.74 647.547C1449.6 649.196 1451.81 651.366 1453.37 654.056C1455.02 656.746 1455.84 660.131 1455.84 664.21C1455.84 666.119 1455.58 668.028 1455.06 669.938C1454.54 671.847 1453.8 673.626 1452.85 675.275C1451.9 676.924 1450.73 678.399 1449.34 679.701C1448.04 681.003 1446.52 681.957 1444.79 682.565V683.086C1446.96 683.606 1448.95 684.431 1450.77 685.559C1452.59 686.6 1454.19 687.946 1455.58 689.594C1456.97 691.243 1458.05 693.196 1458.83 695.452C1459.61 697.622 1460 700.139 1460 703.003C1460 707.342 1459.13 711.074 1457.4 714.198C1455.75 717.322 1453.41 719.926 1450.38 722.009C1447.43 724.005 1443.97 725.523 1439.98 726.565C1435.99 727.52 1431.7 727.997 1427.11 727.997H1395.65ZM1414.76 677.097H1423.73C1428.41 677.097 1431.79 676.186 1433.87 674.364C1436.04 672.541 1437.12 670.111 1437.12 667.074C1437.12 663.776 1436.04 661.433 1433.87 660.044C1431.7 658.656 1428.37 657.961 1423.86 657.961H1414.76V677.097ZM1414.76 713.157H1425.55C1436.04 713.157 1441.28 709.338 1441.28 701.701C1441.28 697.969 1439.98 695.322 1437.38 693.76C1434.78 692.111 1430.84 691.287 1425.55 691.287H1414.76V713.157Z" fill="#8C929D"/>
<g clip-path="url(#clip0)">
<path d="M918 608V483.222C915 488 910.296 495.777 905.982 499.7C898.181 506.796 887.947 513 876 513V485C878.053 485 881.819 483.828 887.143 478.986C892.291 474.304 897.569 467.355 902.365 459.018C912.19 441.941 918 422.646 918 412H888V384H918V334H946V384H976V412H946C946 429.457 953.296 444.208 962.85 454.697C972.981 465.819 983.51 470 988 470V498C973.987 498 958.374 489.577 946 477.532V608H918Z" fill="#8C929D"/>
<path fill-rule="evenodd" clip-rule="evenodd" d="M976 374H1004V426C1004 453.008 999.98 493.698 990.582 527.22C985.861 544.06 980.053 558.091 973.405 567.608C966.719 577.18 960.854 580 956 580V608C973.896 608 987.156 596.819 996.36 583.641C1005.6 570.408 1012.45 552.939 1017.54 534.779C1021.7 519.933 1024.87 503.956 1027.17 488.273C1033.35 501.999 1040.56 515.532 1048.52 528.202C1052.67 534.799 1057.07 541.24 1061.7 547.418C1053.8 555.345 1045.78 562.153 1038.1 567.49C1025.29 576.402 1015.19 580 1009 580V608C1023.81 608 1039.71 600.472 1054.09 590.478C1062.69 584.492 1071.4 577.169 1079.83 568.876C1084.92 574.175 1090.2 579.09 1095.65 583.52C1113.37 597.921 1133.91 608 1156 608V580C1142.59 580 1128.13 573.828 1113.31 561.791C1108.36 557.765 1103.48 553.172 1098.72 548.107C1124.89 516.023 1147 473.596 1147 434V430C1147 424.477 1142.52 420 1137 420H1098.57L1125.3 360.072C1128.25 353.458 1123.41 346 1116.16 346H976V374ZM1080.64 525.87C1099.5 501.561 1113.81 473.485 1117.85 448H1070.84C1063.59 448 1058.75 440.541 1061.7 433.927L1088.43 374H1032V398C1032 427.462 1047.43 473.869 1072.23 513.297C1074.94 517.62 1077.75 521.82 1080.64 525.87Z" fill="#8C929D"/>
</g>
<path d="M1219.84 422.782C1222.15 432.26 1224.07 442.825 1225.54 454.649C1225.31 456.175 1224.32 459.262 1221.38 463.837C1218.17 468.85 1213.47 474.32 1207.97 479.421C1202.47 484.513 1196.56 488.886 1191.15 491.903C1185.39 495.108 1181.61 496 1180 496V524C1188.64 524 1197.43 520.454 1204.77 516.362C1212.46 512.082 1220.16 506.299 1227 499.953C1227.61 499.39 1228.22 498.818 1228.82 498.241C1229.41 511.445 1229.64 522.822 1229.22 532.659C1228.65 546.251 1226.87 555.671 1223.91 562.277C1221.2 568.328 1217.4 572.278 1211.43 575.049C1204.91 578.075 1195.07 580 1180 580V608C1196.93 608 1211.41 605.924 1223.21 600.45C1235.56 594.721 1244.11 585.671 1249.46 573.723C1254.57 562.328 1256.57 548.749 1257.2 533.84C1257.83 518.825 1257.1 501.201 1255.98 481.213C1254.17 449.08 1249.72 423.022 1242.99 401.574C1257 386.461 1269.59 368.289 1276.11 350.915L1249.89 341.084C1246.2 350.934 1239.46 361.958 1231.13 372.44C1222.9 356.58 1212.89 344.026 1201.4 333.623L1182.6 354.376C1193.16 363.937 1202.78 376.351 1210.49 394.248C1204.79 399.282 1199.17 403.468 1194.02 406.541C1186.95 410.763 1182.24 412 1180 412V440C1189.76 440 1199.74 435.736 1208.37 430.583C1212.18 428.311 1216.02 425.685 1219.84 422.782Z" fill="#8C929D"/>
<path d="M1358.19 345.047C1391.75 341.878 1427.55 338.455 1437.36 337.358L1440.47 365.184C1435.87 365.699 1425.88 366.695 1413.21 367.925C1413.94 388.36 1416.74 437.257 1424.11 483.893C1428.46 511.391 1434.27 537.193 1441.78 555.774C1445.56 565.111 1449.41 571.721 1453.05 575.77C1456.58 579.696 1458.89 580.01 1460 580V608C1448.23 608.103 1439.06 602.098 1432.22 594.483C1425.49 586.992 1420.17 577.013 1415.83 566.272C1407.1 544.696 1400.9 516.382 1396.46 488.267C1389.08 441.61 1386.14 392.993 1385.29 370.604C1378.32 371.267 1371.16 371.946 1364.09 372.614C1364.7 460.992 1362.93 505.692 1346.38 564.261L1370.07 556.259C1365.32 544.312 1360.63 532.199 1357.19 522.604L1383.54 513.147C1388.64 527.349 1396.72 547.666 1403.6 564.591C1407.02 573.019 1410.12 580.547 1412.37 585.968C1413.49 588.677 1414.4 590.859 1415.02 592.362C1415.34 593.113 1415.58 593.694 1415.75 594.087L1415.99 594.678L1415.99 594.68C1415.99 594.68 1415.99 594.68 1403.08 600.093C1390.17 605.507 1390.17 605.506 1390.17 605.506L1389.91 604.89C1389.75 604.489 1389.5 603.899 1389.18 603.139C1388.55 601.618 1387.63 599.416 1386.5 596.684C1384.89 592.805 1382.85 587.854 1380.56 582.267L1321.85 602.103C1314.03 604.742 1306.56 597.322 1309.15 589.492L1311.67 581.882C1334.14 513.878 1336.73 473.781 1336.1 375.249C1328.68 375.945 1321.85 376.585 1316.01 377.13C1313.52 377.363 1311.21 377.579 1309.11 377.775C1309.38 431.186 1308.24 483.945 1302.72 524.536C1299.75 546.321 1295.39 565.775 1288.66 580.17C1282.12 594.148 1271.08 607.745 1253.15 607.902L1252.91 579.903C1254.23 579.891 1258.19 579.233 1263.29 568.311C1268.21 557.806 1272.12 541.718 1274.97 520.763C1280.63 479.133 1281.53 422.914 1281.03 365.149L1281 361.472C1280.95 356.275 1284.89 351.909 1290.07 351.427C1312.78 349.314 1335.48 347.19 1358.19 345.047Z" fill="#8C929D"/>
<path d="M739.419 408.071L770.946 505.269C773.809 514.095 770.717 523.837 763.16 529.339L489.981 728L739.419 408.071Z" fill="#FCA326"/>
<path d="M240.695 408.071L209.054 505.269C206.191 514.095 209.283 523.837 216.84 529.339L489.982 727.998L240.695 408.071Z" fill="#FCA326"/>
<path d="M489.981 728L593.885 408.071H739.419L489.981 728Z" fill="#FC6D26"/>
<path d="M489.982 728L240.695 408.071H386.229L489.982 728Z" fill="#FC6D26"/>
<path d="M739.419 408.071H593.885L656.403 215.393C659.609 205.536 673.579 205.536 676.9 215.393L739.419 408.071Z" fill="#E24329"/>
<path d="M240.695 408.071H386.229L323.595 215.393C320.39 205.536 306.419 205.536 303.098 215.393L240.695 408.071Z" fill="#E24329"/>
<path d="M489.981 728L593.885 408.071H386.229L489.981 728Z" fill="#E24329"/>
<defs>
<clipPath id="clip0">
<rect width="280" height="280" fill="white" transform="translate(876 328)"/>
</clipPath>
</defs>
</svg>
