<?xml version="1.0" encoding="utf-8"?>
<!-- Generator: Adobe Illustrator 25.0.0, SVG Export Plug-In . SVG Version: 6.00 Build 0)  -->
<svg version="1.1" id="图层_1" xmlns="http://www.w3.org/2000/svg" xmlns:xlink="http://www.w3.org/1999/xlink" x="0px" y="0px"
	 viewBox="0 0 2174.5 961.5" style="enable-background:new 0 0 2174.5 961.5;" xml:space="preserve">
<style type="text/css">
	.st0{fill-rule:evenodd;clip-rule:evenodd;fill:url(#SVGID_1_);}
	.st1{fill-rule:evenodd;clip-rule:evenodd;fill:url(#SVGID_2_);}
	.st2{fill-rule:evenodd;clip-rule:evenodd;fill:url(#SVGID_3_);}
	.st3{fill-rule:evenodd;clip-rule:evenodd;fill:url(#SVGID_4_);}
	.st4{fill-rule:evenodd;clip-rule:evenodd;fill:url(#SVGID_5_);}
	.st5{fill:#464646;}
	.st6{enable-background:new    ;}
</style>
<g>
	
		<linearGradient id="SVGID_1_" gradientUnits="userSpaceOnUse" x1="519.0311" y1="4066.2666" x2="519.0311" y2="3534.1223" gradientTransform="matrix(1 0 0 1 0 -3384.6667)">
		<stop  offset="0" style="stop-color:#008DFF"/>
		<stop  offset="0.92" style="stop-color:#5171EC"/>
	</linearGradient>
	<path class="st0" d="M960.7,474c0,33.4-16.6,62.1-45.4,78.8L692.4,681.6c20.7-98.4-5.4-200.8-70.5-277.4
		c-5.5-6.5-11.5-12.8-17.7-19c-41.4-41.6-93.4-71-150.3-85.3c-11-3.3-22.3-5.5-33.7-6.6c-143.9-20.4-283.8,57.1-342.7,189.9
		c-2.6-89.2,31.7-175.6,95-238.6c20.3-20.3,43.2-37.8,68-52.2c29.5-17,61.5-29.1,94.8-36c38.9-7.5,84.6-12.1,147.8,3.3l0,0
		c1.2,0.8,26.1,4.8,67.5,25.7c1.5,1,3.9,1.7,19.9,11.2l344.8,198.9C944.1,412,960.7,440.6,960.7,474z"/>
	
		<linearGradient id="SVGID_2_" gradientUnits="userSpaceOnUse" x1="299.7584" y1="3737.4771" x2="265.307" y2="4109.5322" gradientTransform="matrix(1 0 0 1 0 -3384.6667)">
		<stop  offset="0" style="stop-color:#1535D2"/>
		<stop  offset="1" style="stop-color:#4985FF"/>
	</linearGradient>
	<path class="st1" d="M483.1,642.8c-104.6,72.6-242.4,76.7-350.7,12.3c-34.2-51-53.3-110.6-54.9-172
		c59-132.8,198.9-210.4,342.7-190.1c-99.9-9.9-189.1,62.9-199,163c-1.2,12-1.2,24,0,36c0.3,3,0.7,5.9,1.1,9
		c3.6,23.2,11.9,49.1,28,73.2c1.8,1.4,0.6,4.4,23.3,28.6c50.8,50.8,126.8,66.9,193.9,41.1C472.5,641.8,478,641.5,483.1,642.8z"/>
	
		<linearGradient id="SVGID_3_" gradientUnits="userSpaceOnUse" x1="631.5647" y1="3828.6738" x2="540.7958" y2="3901.0583" gradientTransform="matrix(1 0 0 1 0 -3384.6667)">
		<stop  offset="0" style="stop-color:#1546D2"/>
		<stop  offset="1" style="stop-color:#4985FF"/>
	</linearGradient>
	<path class="st2" d="M699.1,605.6c-1.9-74.1-29.3-145.2-77.4-201.5c-5.5-6.5-11.5-12.8-17.7-19c-41.4-41.6-93.4-71-150.3-85.3
		c11.7,3.9,27.3,8.6,49.8,23.5c9.7,6.6,18.7,14.1,27.1,22.4c29.7,29.8,48.2,68.9,52.3,110.7c1,10.1,1.1,20.2,0.4,30.4
		c-0.1,2.1,0.1-1-0.7,8.3c-0.6,1.8,0.1,9.1-7,33.5c-4,10.8-10.5,26.8,2.1,38.6l91.6,91.6l22.9,22.9l0,0
		C697.6,656.6,699.9,631.1,699.1,605.6z"/>
	
		<linearGradient id="SVGID_4_" gradientUnits="userSpaceOnUse" x1="223.7702" y1="4056.8247" x2="585.0165" y2="4145.0996" gradientTransform="matrix(1 0 0 1 0 -3384.6667)">
		<stop  offset="0" style="stop-color:#00A6FF"/>
		<stop  offset="1" style="stop-color:#5171EC"/>
	</linearGradient>
	<path class="st3" d="M586.8,741.4c-5.5,3.9-11.2,7.5-17,10.9c-35.6,21.5-81,38.9-130.2,44.3c-3.2-0.1,1.7,1.2-37.5,2.2
		c-36.6,0-73-6.1-107.5-18.2c-2.5-0.8-5-1.8-7.5-2.6c-43.1-16.3-82.3-41.6-114.8-74.3c-14.9-14.9-28.3-31.1-40-48.6
		c108.4,64.5,246.1,60.3,350.7-12.3c4.5,1.2,8.7,3.6,12,6.9L586.8,741.4z"/>
	
		<linearGradient id="SVGID_5_" gradientUnits="userSpaceOnUse" x1="271.4034" y1="3737.7063" x2="369.8212" y2="3816.3472" gradientTransform="matrix(1 0 0 1 0 -3384.6667)">
		<stop  offset="0" style="stop-color:#1D2F99"/>
		<stop  offset="1" style="stop-color:#5171EC"/>
	</linearGradient>
	<path class="st4" d="M420.2,293.1c-14.2-1.3-26.9,9.1-28.3,23.3c-0.3,3.4,0,6.9,1,10.2c18,58.3-14.6,120.1-72.9,138.2
		c-21.2,6.6-43.9,6.6-65.1,0c-13.6-4.3-28.2,3.4-32.4,17v0.1c-1,3.3-1.3,6.7-1,10.1c-9.9-99.9,63.1-189,163-198.9
		C396.3,291.8,408.3,291.8,420.2,293.1z"/>
	<path class="st5" d="M1278.7,400.9c-2.2,15.3-2.8,37.6-2.2,49.4c-120.2,21.3-141.3,27.2-154.6,34.1c-3.3-10.3-12.4-36.6-19.4-51.4
		c13.5-1.9,25.3-13.3,41-31.1c7.6-8,22.7-25.7,39.9-49.4c-44.2,5-56.5,8.4-64.7,11.8c-3.3-11.4-14-39.1-21.6-54.9
		c11.3-3,19.9-13.3,31.2-29.2c10.7-14.3,43.6-74.7,60.9-130.5l60.9,25.7c-18.8,44-46.4,91.5-74.4,130l41-3
		c10.2-16.4,19.9-33.2,28.6-49.9l51.7,29.2c-26.4,45.5-59.8,91.5-94.4,131.1L1278.7,400.9z M1528.8,153.2
		c-1.1,61.4-3.3,118.7-8.7,171.1c12.9,81.6,37.7,179.9,89.4,232.3c-13.5,11.4-37.1,35.6-46.9,51.9c-30.7-36.6-52.3-88-66.9-142
		c-16.6,57.4-40.4,105.4-75.9,144.4c-10.7-9.9-42.6-31.1-58.2-39.6c26.4-25.7,46.4-56.8,61.5-93.4l-38.2,21.7
		c-4.3-11.4-11.3-25.2-19.4-40.6c-13.5,59.3-35.1,110.7-65.8,151.9c-10.7-9.4-43.6-29.7-58.7-37.6c9.2-10.3,16.6-21.7,23.7-34.1
		c-50.6,18.3-102.9,36.6-146.1,50.9l-14.6-56.4c42.1-10.3,106.2-29.7,168.1-49.4l6.5,29.2c42.1-89.5,50.6-217.1,51.7-362.5l65.2,1.5
		c-1.7,80.6-5.4,155.3-14.6,222.6c17.2,25.2,37.1,56.8,49.1,81c27.5-80.6,32.9-184.5,33.4-303.6L1528.8,153.2z"/>
	<path class="st5" d="M2091.4,176.4v429.7h-68v-30.7h-249.5v30.7h-64.7V176.4H2091.4z M1774,233.8v56.8h249.5v-56.8H1774z M1774,346
		v58.3h249.5V346H1774z M2023.6,518.1v-58.3H1774v58.3H2023.6z"/>
	<g class="st6">
		<path class="st5" d="M1092.6,661.1h79.8v12.9l-55.6,67.6h58.6V758h-84.7v-13.7l54.9-66.9h-53V661.1z"/>
		<path class="st5" d="M1268.3,674.8c4.4-6,9-10.2,13.9-12.7c4.4-2.4,9.9-3.6,16.5-3.6c10,0,18.2,3.3,24.7,9.9
			c6.5,6.7,9.7,15.4,9.7,26V758h-19.9v-60.1c0-8-1.7-13.7-5.1-17.2c-3.2-3.6-8.7-5.4-16.5-5.4c-5.5,0-10.1,2.1-13.9,6.2
			c-3.7,4.1-5.6,9.8-5.6,17V758h-19.9V698c0-15.2-6.6-22.9-19.9-22.9c-6.5,0-11.6,2.4-15.4,7.3c-4,4.5-6,10.2-6,17.2V758h-19.9
			v-96.8h19.9v10.7c7.7-8.9,16.6-13.3,26.6-13.3C1252.1,658.5,1262.3,664,1268.3,674.8z"/>
		<path class="st5" d="M1435.4,673.1c8.7,9.7,13.1,21.9,13.1,36.5c0,14.7-4.3,26.8-12.9,36.2c-9.1,9.9-20.9,14.8-35.4,14.8
			c-14.5,0-26.3-4.9-35.4-14.8c-8.6-9.4-12.9-21.4-12.9-36.2c0-14.9,4.4-27,13.1-36.5c8.9-9.7,20.6-14.6,35.2-14.6
			C1414.9,658.5,1426.6,663.4,1435.4,673.1z M1378.8,685.7c-4.4,6-6.6,14-6.6,24c0,9.9,2.2,17.8,6.6,23.8
			c5.1,7.2,12.2,10.9,21.4,10.9c9,0,16.2-3.6,21.5-10.9c4.5-6.4,6.7-14.3,6.7-23.8c0-9.9-2.2-17.9-6.7-24
			c-5.2-7.2-12.4-10.9-21.5-10.9C1390.9,674.8,1383.8,678.4,1378.8,685.7z"/>
		<path class="st5" d="M1549.5,673.7c7.5,9.4,11.2,21.5,11.2,36.3c0,14.1-3.7,25.9-11.1,35.4c-7.9,10.1-18.8,15.2-32.8,15.2
			c-11.9,0-21.7-5.6-29.6-16.9v51.3h-19.9V661.1h18.5v11.6c6.7-9.5,16.7-14.2,30-14.2C1530,658.5,1541.2,663.6,1549.5,673.7z
			 M1492.9,684.9c-4.1,6-6.2,14-6.2,24v1.7c0,10.5,2.6,18.9,7.7,25.1c4.5,5.9,10.5,8.8,18,8.8c9.7,0,16.9-3.2,21.5-9.6
			c4.2-6.1,6.4-14.4,6.4-24.9c0-10.4-1.9-18.7-5.8-24.9c-4.6-7-11.8-10.5-21.5-10.5C1504.2,674.6,1497.5,678.1,1492.9,684.9z"/>
		<path class="st5" d="M1656.8,689.1h-19.3c-1.5-5.2-3.8-8.9-6.9-10.9c-3.4-2.2-8.5-3.4-15.4-3.4c-6.2,0-10.7,0.9-13.5,2.6
			c-3.5,1.9-5.2,4.7-5.2,8.6c0,3.2,2.6,6.1,7.9,8.6c3.2,1.4,9.7,3.3,19.5,5.8c10.9,2.6,19,5.7,24.5,9.2c7.7,4.9,11.6,11.6,11.6,20.2
			c0,20.5-14.4,30.7-43.1,30.7c-26.5,0-40.8-11.3-43.1-33.9h19.5c1.1,6.5,3.4,11.1,6.9,13.9c3.5,2.5,8.9,3.7,16.1,3.7
			c15.5,0,23.2-4.4,23.2-13.1c0-4.7-2.9-8.4-8.6-11.1c-3-1.5-9.5-3.4-19.5-5.6c-11.5-2.6-19.5-5.4-24-8.4
			c-7.5-4.7-11.2-11.2-11.2-19.5c0-8.9,3.6-15.7,10.9-20.6c7.2-5,16.7-7.5,28.5-7.5C1640.8,658.5,1654.5,668.7,1656.8,689.1z"/>
		<path class="st5" d="M1701,734.9c2.6,2.4,3.9,5.6,3.9,9.6c0,3.7-1.4,7-4.1,9.7c-2.7,2.5-6,3.7-9.7,3.7c-3.9,0-7.1-1.3-9.7-3.9
			c-2.6-2.6-3.9-5.8-3.9-9.6c0-4,1.3-7.2,3.9-9.6c2.5-2.5,5.7-3.7,9.7-3.7C1695.2,731.2,1698.5,732.5,1701,734.9z"/>
		<path class="st5" d="M1800.6,667c7.6,6.1,12.4,15.1,14.2,27h-19.7c-1.4-6.7-4.1-11.5-8.1-14.4c-4-3.1-9.4-4.7-16.3-4.7
			c-8.2,0-14.7,3.1-19.3,9.2c-4.7,5.9-7.1,14.4-7.1,25.5c0,11,2.3,19.5,6.9,25.7c4.4,6.1,10.8,9.2,19.3,9.2c14.7,0,23-7.4,24.9-22.1
			h19.7c-2.2,12.9-7.2,22.5-14.8,29c-7.6,6.2-17.6,9.4-30,9.4c-14.7,0-26.2-4.9-34.5-14.6c-8-9.2-12-21.4-12-36.3
			c0-14.6,3.9-26.6,11.8-36c8.5-10.1,20.2-15.2,35-15.2C1783.2,658.5,1793.1,661.3,1800.6,667z"/>
		<path class="st5" d="M1912.1,673.1c8.7,9.7,13.1,21.9,13.1,36.5c0,14.7-4.3,26.8-12.9,36.2c-9.1,9.9-20.9,14.8-35.4,14.8
			c-14.5,0-26.3-4.9-35.4-14.8c-8.6-9.4-12.9-21.4-12.9-36.2c0-14.9,4.4-27,13.1-36.5c8.9-9.7,20.6-14.6,35.2-14.6
			C1891.6,658.5,1903.3,663.4,1912.1,673.1z M1855.5,685.7c-4.4,6-6.6,14-6.6,24c0,9.9,2.2,17.8,6.6,23.8
			c5.1,7.2,12.2,10.9,21.4,10.9c9,0,16.2-3.6,21.5-10.9c4.5-6.4,6.7-14.3,6.7-23.8c0-9.9-2.2-17.9-6.7-24
			c-5.2-7.2-12.4-10.9-21.5-10.9C1867.6,674.8,1860.5,678.4,1855.5,685.7z"/>
		<path class="st5" d="M2021.1,674.8c4.4-6,9-10.2,13.9-12.7c4.4-2.4,9.9-3.6,16.5-3.6c10,0,18.2,3.3,24.7,9.9
			c6.5,6.7,9.7,15.4,9.7,26V758h-19.9v-60.1c0-8-1.7-13.7-5.1-17.2c-3.2-3.6-8.7-5.4-16.5-5.4c-5.5,0-10.1,2.1-13.9,6.2
			c-3.7,4.1-5.6,9.8-5.6,17V758h-19.9V698c0-15.2-6.6-22.9-19.9-22.9c-6.5,0-11.6,2.4-15.4,7.3c-4,4.5-6,10.2-6,17.2V758h-19.9
			v-96.8h19.9v10.7c7.7-8.9,16.6-13.3,26.6-13.3C2004.9,658.5,2015.1,664,2021.1,674.8z"/>
	</g>
</g>
</svg>
