<svg xmlns="http://www.w3.org/2000/svg" viewBox="0 0 604.79 179.68"><g id="图层_2" data-name="图层 2"><g id="图层_1-2" data-name="图层 1"><polygon points="323.93 109.98 268.95 0.99 238.81 0.99 238.81 179.3 266.94 179.3 266.94 50.97 316.14 148.16 331.71 148.16 379.42 50.97 379.42 179.3 407.8 179.3 407.8 0.99 377.67 0.99 323.93 109.98"/><path d="M196.32,143.07H47.93v0l-.63,0a14.06,14.06,0,1,0,0,28.12l.63,0v0H196.32a14.06,14.06,0,0,0,0-28.12Z"/><path d="M196.32,9.1H47.93v0l-.63,0a14.06,14.06,0,1,0,0,28.12l.63,0v0H196.32a14.06,14.06,0,1,0,0-28.12Z"/><path d="M142,104.21v-.07a14.05,14.05,0,0,0,0-28v-.07H14.69v0c-.21,0-.42,0-.63,0a14.07,14.07,0,0,0,0,28.13l.63,0v0Z"/><path d="M519.8,0c-46.6,0-84.38,40.14-84.38,89.65s37.78,89.66,84.38,89.66,84.38-40.14,84.38-89.66S566.4,0,519.8,0Zm0,151.63c-30.92,0-56-27.75-56-62s25.07-62,56-62,56,27.75,56,62S550.73,151.63,519.8,151.63Z"/><polygon points="604.79 179.67 551.13 119.16 513.2 119.16 566.88 179.68 604.78 179.68 604.79 179.67"/></g></g></svg>