<svg id="图层_1" data-name="图层 1" xmlns="http://www.w3.org/2000/svg" viewBox="0 0 820.24 177.36"><defs><style>.cls-1{fill:#e5f797;}.cls-2{fill:#8db4e2;}.cls-3{fill:#f4e07f;}.cls-4{fill:#fe9959;}.cls-5{fill:#ffe100;}</style></defs><polygon class="cls-1" points="173.49 55.1 173.49 90.84 151.86 90.84 151.86 33.01 164.84 33.01 164.84 55.1 173.49 55.1"/><rect class="cls-1" x="97.22" y="68.76" width="27.55" height="57.83"/><rect class="cls-1" x="200.58" y="102.68" width="35.52" height="74.68"/><polygon class="cls-2" points="128.87 45.08 128.87 102.91 82.19 102.91 82.21 53.05 98.59 53.05 98.59 45.08 128.87 45.08"/><path class="cls-2" d="M256.47,171.14v.05h0Z" transform="translate(-91.63 -68.05)"/><polygon class="cls-2" points="227.91 33.01 227.91 103.14 180.78 103.14 180.78 98.58 164.84 98.58 164.84 55.1 173.49 55.1 180.78 33.01 227.91 33.01"/><path class="cls-2" d="M259.66,135v31.65h-3.19v4.55h0v23H221.41V135Z" transform="translate(-91.63 -68.05)"/><rect class="cls-2" x="301.9" y="25.73" width="30.96" height="67.85"/><rect class="cls-2" x="470.67" y="9.79" width="23.91" height="97.22"/><rect class="cls-2" x="551.5" y="88.34" width="35.06" height="66.48"/><rect class="cls-2" x="416.26" y="38.25" width="62.16" height="43.03"/><rect class="cls-2" x="489.34" y="71.49" width="62.16" height="54.64"/><polygon class="cls-2" points="670.35 54.41 670.35 102.91 594.99 102.91 594.99 101.77 614.34 101.77 614.34 75.13 594.99 75.13 594.99 54.41 670.35 54.41"/><rect class="cls-2" x="670.35" y="30.28" width="38.71" height="75.82"/><polygon class="cls-2" points="779.63 55.55 779.63 127.5 753.9 127.5 753.9 95.63 736.15 95.63 736.15 127.5 733.41 127.5 733.41 64.2 734.78 64.2 734.78 57.17 735.01 57.17 735.01 55.55 779.63 55.55"/><rect class="cls-1" x="758.69" y="35.52" width="35.29" height="44.4"/><polygon class="cls-2" points="734.78 64.2 734.78 104.5 696.08 104.5 696.08 57.15 709.05 57.15 709.05 64.2 734.78 64.2"/><rect class="cls-2" x="413.3" y="122.04" width="30.05" height="43.26"/><rect class="cls-2" x="248.85" y="54.42" width="59.65" height="29.37"/><path class="cls-2" d="M480.05,112.45V157.3c-.08-1.3-.2-2.59-.37-3.87H464.11v.26c0,.15,0,.31.05.46h-.05V164.8h15.76c.06-.75.13-1.44.18-2.12v34H412.2V112.45Z" transform="translate(-91.63 -68.05)"/><rect class="cls-1" x="123.4" y="105.19" width="17.3" height="57.83"/><rect class="cls-3" x="226.54" width="25.73" height="83.79"/><rect class="cls-1" x="320.12" y="44.4" width="16.39" height="84.47"/><rect class="cls-1" x="410.79" y="107.01" width="61.47" height="19.12"/><polygon class="cls-2" points="295.53 81.74 295.53 128.64 268.2 128.64 268.2 95.85 252.27 95.85 252.27 125.58 251.13 125.58 251.13 81.74 295.53 81.74"/><path class="cls-2" d="M256.47,171.14v.05h0Z" transform="translate(-91.63 -68.05)"/><polygon class="cls-2" points="200.58 91.75 200.58 138.66 180.78 138.66 180.78 98.58 164.84 98.58 164.84 91.75 200.58 91.75"/><rect class="cls-4" x="128.87" y="8.42" width="23" height="59.88"/><rect class="cls-1" x="443.58" y="125.45" width="9.56" height="39.84"/><rect class="cls-1" x="551.5" y="75.13" width="24.13" height="27.55"/><rect class="cls-1" x="594.99" y="101.77" width="19.35" height="25.96"/><rect class="cls-1" x="594.99" y="27.55" width="19.35" height="47.58"/><rect class="cls-3" x="670.8" y="104.5" width="46.67" height="41.44"/><rect class="cls-4" x="123.4" y="90.84" width="17.3" height="35.29"/><rect class="cls-4" x="227.45" y="56.01" width="17.3" height="70.12"/><rect class="cls-4" x="71.04" y="126.13" width="52.37" height="39.39"/><rect class="cls-4" x="500.04" y="46.67" width="51.46" height="25.27"/><rect class="cls-4" x="594.99" y="102.46" width="51.46" height="25.27"/><rect class="cls-4" x="707.91" y="103.82" width="28.23" height="23.68"/><rect class="cls-4" x="779.4" y="79.92" width="14.57" height="63.07"/><rect class="cls-4" x="411.7" y="72.4" width="58.97" height="40.76"/><rect class="cls-5" x="121.35" y="68.3" width="8.42" height="15.25"/><path d="M232.33,162.58l-2.81-3.68-8.11-10.66-.92-1.2-4.09-5.38-.49-.63.49-.5,4-4.17.06-.07.92-.94.34-.36,21.74-22.48,11.06-11.44.11-.11H234.55l-14.06,14.86-19.86,21-10.41,11V121.1H173.84v73.06h16.38v-27l14.51-14.91L215,165.79l1.37,1.8L219,171l1.73,2.28.73,1,10.92,14.4,4.22,5.56h19.84Z" transform="translate(-91.63 -68.05)"/><path d="M303.39,123.86v39.67a22.09,22.09,0,0,1-1.12,7.21l-.16.45a14.41,14.41,0,0,1-9.9,9.18,17.5,17.5,0,0,1-4.66.6c-7.16,0-12-3.48-14-9.78a24.15,24.15,0,0,1-1-7.39V123.86H256.39v44.73c0,.87,0,1.72.08,2.55v-4.5h15.94v27.63a28.69,28.69,0,0,0,9,1.35,25.08,25.08,0,0,0,10.79-2.27,28.1,28.1,0,0,0,11.18-10.11v10.92H319.5v-70.3Z" transform="translate(-91.63 -68.05)"/><path d="M399.92,151.84a37.11,37.11,0,0,0-6.39-16.11,31.78,31.78,0,0,0-23.62-13.26c-.74,0-1.47-.08-2.21-.08s-1.48,0-2.2.08c-10.06.71-16.76,6.24-21.6,13.06l0,0V97H327.76v97.2h16.11V183.24l0,0V163.91a27.69,27.69,0,0,1-.43-4.91,26.37,26.37,0,0,1,.95-7.16c.2-.7.42-1.39.67-2.05A20.2,20.2,0,0,1,364,136.37c8.24,0,15.5,5,18.56,13.42.24.66.45,1.35.64,2.05a27.58,27.58,0,0,1,.9,7.16c0,14-9.05,22.64-20.1,22.64a19.66,19.66,0,0,1-4.14-.44v13.42a30.14,30.14,0,0,0,7.87,1A31.66,31.66,0,0,0,387.15,189c7.35-5.72,12.58-15,13.23-27.34.05-.86.07-1.73.07-2.63A47,47,0,0,0,399.92,151.84Z" transform="translate(-91.63 -68.05)"/><path d="M448.45,182.64c-10.38,0-18.37-6.39-20.24-17.84h35.9V154.15h-36l.06-.4c1.57-10.7,8.45-18.1,18.18-18.1,10.49,0,16.59,7.88,17.79,18v-.26h15.57c-2.33-17.24-13.46-31-33.23-31a33.19,33.19,0,0,0-18.31,5.34,31.49,31.49,0,0,0-3.65,2.76,37.27,37.27,0,0,0-12.29,25.8c-.06.94-.1,1.89-.1,2.85s0,1.62.07,2.42l0,.5c.82,12.43,6.88,22.31,15.94,28.07a37.07,37.07,0,0,0,20.05,5.63c12.91,0,22.1-5.2,28.75-13.19l-9.45-8.38C461.9,179.72,456.31,182.64,448.45,182.64Z" transform="translate(-91.63 -68.05)"/><path d="M575.58,97v97.2h16.11V97Z" transform="translate(-91.63 -68.05)"/><path d="M678.08,156.39a36.67,36.67,0,0,0-3.42-13.2H656a23.14,23.14,0,0,1,5.88,13.2,25.84,25.84,0,0,1-2.53,14.35,20.05,20.05,0,0,1-16.23,10.92c-.77.07-1.57.11-2.38.11-12.51,0-21.43-10.25-21.43-22.77,0-8,3.42-15,9.3-19a20.87,20.87,0,0,1,11.87-3.5q1,0,2,.09l.69.07v-14.2l-.69,0c-.56,0-1.12,0-1.69,0a36.72,36.72,0,0,0-37.54,36.88,36.08,36.08,0,0,0,27.84,35.37,39.75,39.75,0,0,0,9.44,1.11c.89,0,1.77,0,2.64-.08,20.34-1.29,35-17.38,35-36.67Q678.17,157.7,678.08,156.39Z" transform="translate(-91.63 -68.05)"/><path d="M742.08,173a42.27,42.27,0,0,1-4,3.63,22.34,22.34,0,0,1-14.23,5.15A20.18,20.18,0,0,1,706,171.39l-.24-.43-.24-.45-.34-.68h-17l.2.68.15.45A35.58,35.58,0,0,0,706,191.67,36.77,36.77,0,0,0,723,195.75a37.7,37.7,0,0,0,15-2.81,38.91,38.91,0,0,0,13.73-10.37ZM726,122.47c-.91,0-1.85-.08-2.82-.08s-1.66,0-2.47.08a35.82,35.82,0,0,0-30.47,20.72H706v3.51A19.47,19.47,0,0,1,723,136.5c8.12,0,13.31,3.6,18.24,8.79l10-10.78C745.21,127.84,737.67,123.12,726,122.47Z" transform="translate(-91.63 -68.05)"/><path d="M826.41,125.22v.36l.23-.24.12-.12ZM825,191.71l-13.27-19.15-.48-.68-10.61-15.31-1.88-2.72,1.88-1.93,19.2-19.66h-19.2v-.09L787.7,146,778,156.38v-58H761.91v97.19H778v-20.1l1.22-1.27,1.53-1.59,6.93-7.21.18-.18,5.15,7.39,1.12,1.59,5.39,7.74,9.51,13.63h18.64Z" transform="translate(-91.63 -68.05)"/><path d="M871.26,155.28l-.23-.09c-2.38-1-4.86-1.83-7.26-2.58-4.68-1.51-9.14-2.84-12.13-4.64a14,14,0,0,1-1.33-.9,5.42,5.42,0,0,1-2.39-4.31v-.26a6.13,6.13,0,0,1,2.39-4.93,11.91,11.91,0,0,1,7.47-2.13,34.36,34.36,0,0,1,13.48,3.32,55.48,55.48,0,0,1,6.36,3.34L884,130.65a49.07,49.07,0,0,0-12.75-5.94c-1.41-.44-2.84-.8-4.27-1.1a43.17,43.17,0,0,0-8.81-1,32.83,32.83,0,0,0-7.87.92l-.09,0c-10,2.5-17.07,9.83-17.07,20.48v.27c0,13.45,11.58,17.71,22,20.64,8.26,2.53,15.72,4.39,15.72,9.85v.27c0,4.66-4,7.59-10.92,7.59a34.66,34.66,0,0,1-14.38-3.44v14a47.22,47.22,0,0,0,14,2.21A35.46,35.46,0,0,0,871,193.71l.23-.08c8.58-3,14.35-9.76,14.35-20.24v-.27C885.61,163.53,879,158.53,871.26,155.28Z" transform="translate(-91.63 -68.05)"/><rect class="cls-2" x="550.82" y="46.67" width="0.68" height="28.46"/><path class="cls-2" d="M256.47,171.19h0v0Z" transform="translate(-91.63 -68.05)"/><rect class="cls-2" x="98.59" y="45.08" width="0.44" height="7.97"/><rect class="cls-2" x="734.78" y="57.17" width="0.23" height="7.04"/><path class="cls-2" d="M464.16,154.15h-.05v-.46C464.13,153.84,464.15,154,464.16,154.15Z" transform="translate(-91.63 -68.05)"/><path class="cls-2" d="M480.05,153.43v3.87c-.08-1.3-.2-2.59-.37-3.87Z" transform="translate(-91.63 -68.05)"/><path class="cls-2" d="M479.87,164.8c.06-.75.13-1.44.18-2.12v2.14H464.11v0Z" transform="translate(-91.63 -68.05)"/><polygon class="cls-2" points="180.78 33.01 180.78 55.1 173.49 55.1 180.78 33.01"/><rect class="cls-2" x="52.82" y="20.72" width="12.52" height="25.73"/><rect class="cls-4" x="810.22" y="73.77" width="10.02" height="35.52"/><rect class="cls-3" x="110.53" y="148.65" width="10.02" height="47.81" transform="translate(196.46 -11.03) rotate(90)"/><rect class="cls-1" x="387.8" y="71.95" width="26.64" height="53.73"/><rect class="cls-4" x="387.8" y="29.37" width="29.6" height="43.03"/><path d="M562.3,155.06a22.45,22.45,0,0,0-6.46-5.72,41,41,0,0,0-8-3.65,28.4,28.4,0,0,0,7.31-5.23c3.54-3.6,6-8.56,6-15.67a21.27,21.27,0,0,0-9.77-18.49c-5.21-3.44-12.31-5.34-20.85-5.34H488.7v93.2h43.14c1.07,0,2.11,0,3.14-.08h.23a53.75,53.75,0,0,0,5.84-.57c9.14-1.37,16.28-4.9,20.61-10.47l.64-.87a21.31,21.31,0,0,0,1.6-2.68,22.58,22.58,0,0,0,1.63-4.42,26.64,26.64,0,0,0,.8-6.6C566.33,162.85,564.87,158.5,562.3,155.06Zm-57.49-1h26c12.91,0,19.17,4.66,19.17,12.65a11.32,11.32,0,0,1-3.21,8.33c-3,3-8.13,4.58-14.76,4.58H504.81Zm0-38.61h23.57c10.52,0,16.38,4.39,16.38,12,0,8.66-7.06,12.78-17.58,12.78H504.81Z" transform="translate(-91.63 -68.05)"/></svg>