<svg width="99" height="32" viewBox="0 0 99 32" fill="none" xmlns="http://www.w3.org/2000/svg">
<g clip-path="url(#clip0_277_5873)">
<path d="M96.5687 23.9336V24.5426H97.1603V23.9336H96.5687ZM97.7519 23.9336V24.5426H98.3783V23.9336H97.7519ZM98.3783 25.1168H97.7519V26.7118H97.1603V25.1168H96.5687V25.3952H95.9655V22.1936H97.1603V21.3468H97.7519V22.1936H98.9815V25.3894H98.3783V25.1168ZM98.3783 23.3826V22.7678H97.7519V23.3826H98.3783ZM97.1603 23.3826V22.7678H96.5687V23.3826H97.1603ZM94.5793 24.5136C94.3995 24.6992 94.2023 24.8906 93.9935 25.0762L93.8021 24.4382C94.4807 23.835 94.9447 23.2434 95.1941 22.6692H93.9297V22.0892H94.6663C94.5909 21.8746 94.5039 21.6658 94.4111 21.4686L94.9795 21.3062C95.0897 21.5904 95.1767 21.8514 95.2405 22.0892H95.8031V22.5996C95.6697 22.9998 95.4609 23.4 95.1767 23.8002V23.835C95.4435 23.9974 95.6929 24.183 95.9191 24.3918L95.6001 24.8906C95.4551 24.734 95.3159 24.5948 95.1767 24.4788V26.7234H94.5793V24.5136Z" fill="#1C8B7F"/>
<path d="M86.6912 23.7131C86.5288 23.9103 86.3606 24.0959 86.1808 24.2757L85.9778 23.6261C86.5636 22.9823 86.9986 22.2225 87.2828 21.3467L87.857 21.6135C87.7178 22.0427 87.5264 22.4603 87.2944 22.8547V26.7349H86.6912V23.7131ZM87.8222 22.0369H88.9242L89.0808 21.3467L89.6724 21.4047C89.626 21.6251 89.5738 21.8339 89.5274 22.0369H91.1746V22.6169H89.3766C89.3302 22.7909 89.2838 22.9591 89.2374 23.1157H91.4124V23.6899H89.046C88.9706 23.8929 88.8952 24.0843 88.8256 24.2583H91.105V24.7803C90.8788 25.1399 90.5308 25.4995 90.0668 25.8591C90.2988 25.9809 90.5192 26.1085 90.7338 26.2477L90.3974 26.7697C89.6898 26.2999 88.959 25.9287 88.2166 25.6619L88.5356 25.1863C88.8836 25.3139 89.22 25.4473 89.539 25.5981C89.9218 25.3429 90.2234 25.0819 90.4554 24.8151H88.0368C88.1876 24.4555 88.3268 24.0785 88.4602 23.6899H87.567V23.1157H88.64C88.6864 22.9475 88.7328 22.7793 88.7792 22.6169H87.8222V22.0369Z" fill="#1C8B7F"/>
<path d="M82.9676 25.2616H81.071C81.2914 25.4414 81.4596 25.598 81.5814 25.7372L81.1696 26.0272C81.0188 25.8532 80.8216 25.656 80.578 25.4414L80.8622 25.2616H78.7974V24.8324H82.3876V24.612H79.0584V24.2118H82.3876V23.9914H78.867V23.5622H79.4818V23.3302H78.5074V22.9126H79.4818V22.698H78.722V22.2804H79.4818V22.0716H78.6176V21.654H79.4818V21.3872H80.0734V21.654H80.8448V22.0716H80.0734V22.2804H80.7578V22.698H80.0734V22.9126H80.839V23.3302H80.0734V23.5622H81.8482V23.3302H81.0072V22.9126H81.8482V22.698H81.129V22.2804H81.8482V22.0716H81.0362V21.654H81.8482V21.3872H82.4398V21.654H83.2982V22.0716H82.4398V22.2804H83.1764V22.698H82.4398V22.9126H83.3794V23.3302H82.4398V23.5622H82.9676V25.2616ZM78.8032 25.453L79.3252 25.569C79.2092 25.9808 79.0468 26.3346 78.838 26.6362L78.3566 26.3346C78.5654 26.0562 78.7104 25.7662 78.8032 25.453ZM81.7554 26.6188H80.1952C79.8008 26.6188 79.6036 26.439 79.6036 26.0794V25.4356H80.1894V25.9518C80.1894 26.0562 80.2416 26.1084 80.3518 26.1084H81.6394C81.7322 26.1084 81.796 26.0852 81.8366 26.0388C81.8888 25.9866 81.9236 25.8358 81.941 25.5864L82.492 25.7604C82.4456 26.178 82.3644 26.4274 82.2542 26.5086C82.1382 26.5782 81.9758 26.6188 81.7554 26.6188ZM82.927 25.3428C83.246 25.6792 83.4896 25.9808 83.6636 26.2418L83.2228 26.5492C83.043 26.265 82.7994 25.9518 82.4978 25.6096L82.927 25.3428Z" fill="#1C8B7F"/>
<path d="M71.3734 22.2456C71.269 22.3964 71.153 22.524 71.037 22.64H71.791C71.8142 22.5124 71.8316 22.3848 71.8432 22.2456H71.3734ZM71.617 23.191H70.5788V22.64H70.834L70.5498 22.2862C70.8166 22.0542 71.0486 21.7236 71.2516 21.2944L71.7968 21.4162C71.7562 21.5206 71.7156 21.625 71.6692 21.7178H73.2294V22.2456H72.4116C72.4 22.3848 72.3884 22.5124 72.371 22.64H73.3918V23.191H72.2492L72.2318 23.2432C72.661 23.4636 73.0206 23.6782 73.3164 23.8986L72.9742 24.2408H75.2014V26.7406H74.5866V26.526H71.907V26.7406H71.298V24.38C71.1588 24.4612 71.0138 24.5424 70.863 24.6178L70.457 24.1248C71.0486 23.8638 71.4372 23.5506 71.617 23.191ZM71.907 25.9924H74.5866V25.656H71.907V25.9924ZM71.907 25.134H74.5866V24.7744H71.907V25.134ZM71.501 24.2408H72.7886C72.5798 24.0552 72.3304 23.8754 72.0346 23.6898C71.9012 23.887 71.7214 24.0726 71.501 24.2408ZM73.5484 21.7352H75.6248V23.9566H73.5484V21.7352ZM75.0332 23.4288V22.2688H74.14V23.4288H75.0332Z" fill="#1C8B7F"/>
<path d="M61.699 23.7363C61.6178 23.8465 61.5366 23.9451 61.4554 24.0379L61.0958 23.5797C61.5366 23.0229 61.8382 22.2805 61.9948 21.3467L62.5864 21.4511C62.54 21.7063 62.482 21.9441 62.424 22.1761H64.0016V22.7619H63.6304C63.584 23.6841 63.3694 24.4729 62.9808 25.1283C63.3346 25.6039 63.7464 25.9693 64.222 26.2303L63.874 26.7465C63.3926 26.4739 62.9808 26.1027 62.6328 25.6271C62.2848 26.0563 61.8498 26.4159 61.3394 26.7059L61.0088 26.1839C60.9334 26.4971 60.6782 26.6537 60.249 26.6537C60.1678 26.6537 60.0344 26.6421 59.8372 26.6189L59.698 26.1027C59.872 26.1143 60.0228 26.1259 60.1562 26.1259C60.336 26.1259 60.4404 26.0331 60.4752 25.8591C60.4984 25.6851 60.5158 25.0587 60.5274 23.9915H59.9648C59.8836 25.1979 59.64 26.1085 59.234 26.7233L58.7584 26.3057C59.1992 25.6619 59.4196 24.6237 59.4312 23.1911V22.7503H58.8918V22.1645H59.9068C59.8082 21.9209 59.698 21.6889 59.5762 21.4627L60.162 21.3003C60.307 21.6135 60.423 21.9035 60.5158 22.1645H61.3452V22.7503H59.9938V23.1911C59.9938 23.2723 59.988 23.3535 59.988 23.4347H61.0958C61.0958 24.8963 61.0668 25.8011 61.0204 26.1375C61.5482 25.8649 61.9716 25.5169 62.2906 25.0993C62.0586 24.6933 61.8614 24.2409 61.699 23.7363ZM62.2268 22.7619C62.1688 22.9069 62.105 23.0403 62.047 23.1621C62.2036 23.6899 62.395 24.1539 62.6212 24.5599C62.8764 24.0437 63.0272 23.4463 63.062 22.7619H62.2268Z" fill="#1C8B7F"/>
<path d="M51.433 21.6484H56.0266V22.2342H55.116V23.5682H56.3166V24.154H55.116V26.6422H54.507V24.154H53.0048C52.9468 24.7224 52.8308 25.2038 52.6626 25.5924C52.4364 26.0796 52.0652 26.4566 51.549 26.7176L51.2184 26.2014C51.6882 25.9288 52.0014 25.5866 52.1638 25.1806C52.2682 24.8906 52.3436 24.5484 52.39 24.154H51.1372V23.5682H52.4306C52.4306 23.5334 52.4364 23.5044 52.4364 23.4696V22.2342H51.433V21.6484ZM53.0512 22.2342V23.4696C53.0512 23.5044 53.0454 23.5334 53.0454 23.5682H54.507V22.2342H53.0512Z" fill="#1C8B7F"/>
<path d="M43.7828 21.4395C44.1888 21.7353 44.5368 22.0311 44.821 22.3211L44.4092 22.7271C44.1656 22.4487 43.8234 22.1529 43.3768 21.8281L43.7828 21.4395ZM43.6784 22.8605C44.0612 23.1447 44.3802 23.4289 44.6412 23.7073L44.2352 24.1191C44.0148 23.8523 43.69 23.5623 43.2724 23.2491L43.6784 22.8605ZM44.1888 24.4497L44.7108 24.6585C44.4672 25.3893 44.1888 26.0737 43.8872 26.7117L43.3246 26.4623C43.661 25.8011 43.9452 25.1341 44.1888 24.4497ZM45.8244 22.4777H46.6074C46.6538 22.3385 46.6944 22.2051 46.7234 22.0717H45.5402V23.5217C45.517 24.8557 45.2966 25.9229 44.8732 26.7349L44.415 26.3289C44.763 25.6561 44.9428 24.7165 44.9602 23.5217V21.5381H48.5272V22.0717H47.2918C47.257 22.2109 47.2222 22.3443 47.1758 22.4777H48.243V24.6295H47.3324V26.1317C47.3324 26.5145 47.1526 26.7059 46.793 26.7059H46.3058L46.1782 26.1607C46.3174 26.1839 46.4566 26.1955 46.5958 26.1955C46.7002 26.1955 46.7582 26.1259 46.7582 25.9867V24.6295H45.8244V22.4777ZM47.7152 24.1539V23.7711H46.3522V24.1539H47.7152ZM46.3522 23.3361H47.7152V22.9417H46.3522V23.3361ZM45.894 24.9601L46.4276 25.0761C46.2884 25.5981 46.097 26.0447 45.8418 26.4275L45.3546 26.1201C45.6098 25.7605 45.7896 25.3719 45.894 24.9601ZM48.0632 24.9253C48.2778 25.3197 48.4634 25.7431 48.6258 26.1955L48.1154 26.4217C47.9472 25.9229 47.7616 25.4821 47.5644 25.0993L48.0632 24.9253Z" fill="#1C8B7F"/>
<path d="M35.889 21.6484H40.4826V22.2342H39.572V23.5682H40.7726V24.154H39.572V26.6422H38.963V24.154H37.4608C37.4028 24.7224 37.2868 25.2038 37.1186 25.5924C36.8924 26.0796 36.5212 26.4566 36.005 26.7176L35.6744 26.2014C36.1442 25.9288 36.4574 25.5866 36.6198 25.1806C36.7242 24.8906 36.7996 24.5484 36.846 24.154H35.5932V23.5682H36.8866C36.8866 23.5334 36.8924 23.5044 36.8924 23.4696V22.2342H35.889V21.6484ZM37.5072 22.2342V23.4696C37.5072 23.5044 37.5014 23.5334 37.5014 23.5682H38.963V22.2342H37.5072Z" fill="#1C8B7F"/>
<path d="M22.1642 15.7601C22.1642 16.0806 22.1549 16.4015 22.1669 16.7215C22.1794 17.0486 22.1165 17.3628 22.043 17.6775C21.9837 17.9297 21.9427 18.1878 21.8598 18.432C21.7546 18.7413 21.6343 19.0484 21.4863 19.339C21.2853 19.7338 21.0473 20.1073 20.7639 20.4532C20.525 20.7442 20.2621 21.008 19.9866 21.263C19.6319 21.5906 19.2374 21.8597 18.8198 22.0982C18.3675 22.3567 17.8812 22.5354 17.387 22.6892C17.1744 22.7556 16.9422 22.7578 16.7269 22.818C16.5308 22.8728 16.3298 22.8376 16.1399 22.8763C15.5409 22.998 14.9379 22.9093 14.3376 22.9321C14.187 22.9379 14.0327 22.8688 13.8821 22.8759C13.5519 22.8911 13.2336 22.8193 12.9185 22.7533C12.4951 22.6646 12.0873 22.5145 11.6898 22.3375C11.0921 22.0714 10.5493 21.7207 10.0653 21.2844C9.81392 21.0575 9.58662 20.803 9.35665 20.5539C8.95598 20.1198 8.66138 19.6144 8.42116 19.08C8.25804 18.7172 8.11408 18.3469 8.03966 17.9493C7.99464 17.7095 7.95408 17.468 7.90283 17.2318C7.86138 17.041 7.85336 16.857 7.85202 16.6702C7.84667 15.9937 7.84935 15.3171 7.85069 14.6406C7.85069 14.5287 7.82796 14.4124 7.9064 14.3117C7.92155 14.2925 7.91977 14.2564 7.91887 14.2288C7.90595 13.9502 8.0089 13.694 8.06907 13.4292C8.16757 12.9965 8.32935 12.5846 8.52901 12.1933C8.73537 11.7891 8.9845 11.4085 9.27241 11.0506C9.51843 10.7453 9.79609 10.4752 10.0795 10.2109C10.3893 9.92214 10.7414 9.68905 11.11 9.47646C11.3965 9.31111 11.6876 9.15824 11.996 9.04548C12.3824 8.90465 12.7755 8.79189 13.1828 8.70899C13.9289 8.55746 14.6776 8.60648 15.426 8.59311C15.5472 8.59089 15.6684 8.59401 15.7892 8.59267C16.1288 8.58821 16.4617 8.63323 16.7915 8.713C16.8869 8.73618 16.9849 8.75222 17.0826 8.76114C17.4079 8.791 17.7025 8.92559 18.0033 9.033C18.6375 9.25986 19.2156 9.59991 19.7353 10.0206C20.1809 10.3812 20.5923 10.7872 20.9176 11.2672C21.0719 11.4945 21.2403 11.7138 21.374 11.9522C21.5416 12.2508 21.6775 12.5655 21.797 12.8886C21.9017 13.1725 21.9552 13.4675 22.0363 13.7563C22.2097 14.3727 22.1575 15.0043 22.1633 15.6318C22.1633 15.6746 22.1633 15.7173 22.1633 15.7601H22.1642ZM18.9696 15.5841C18.9415 15.3394 19.0168 15.0256 18.9161 14.719C18.8769 14.6005 18.888 14.4641 18.8421 14.3491C18.6781 13.94 18.5145 13.5308 18.2471 13.1707C17.9962 12.8329 17.7078 12.5361 17.3709 12.2892C16.9533 11.983 16.4778 11.7953 15.9804 11.6621C15.8525 11.6278 15.7197 11.5885 15.59 11.5912C15.0351 11.6019 14.4789 11.5333 13.9276 11.7035C13.5982 11.8056 13.2737 11.9161 12.98 12.085C12.5049 12.3578 12.1043 12.7215 11.7807 13.1738C11.3087 13.8339 11.0498 14.5572 11.0444 15.3697C11.0431 15.5903 11.0498 15.8114 11.0431 16.032C11.0346 16.3168 11.0792 16.6016 11.1617 16.8636C11.315 17.3494 11.5227 17.8152 11.8476 18.223C12.0606 18.4904 12.2946 18.7377 12.5642 18.9392C12.9127 19.1995 13.2929 19.4036 13.719 19.5368C14.1268 19.6643 14.5359 19.7289 14.9562 19.7454C15.1242 19.7521 15.2936 19.708 15.462 19.7089C15.8725 19.7102 16.2496 19.5734 16.6208 19.4277C17.0652 19.2538 17.4565 18.9851 17.7979 18.6553C18.0506 18.4115 18.2823 18.1436 18.4441 17.8263C18.5359 17.6463 18.6179 17.4618 18.708 17.2808C18.884 16.9283 18.9509 16.5503 18.9678 16.1621C18.9754 15.9914 18.9691 15.8203 18.9691 15.585L18.9696 15.5841Z" fill="#1C8B7F"/>
<path d="M45.0852 10.5618C45.0736 11.4496 44.9609 12.2942 44.587 13.0813C43.8623 14.6073 42.6705 15.5249 40.989 15.7776C40.0726 15.9154 39.1639 15.8672 38.293 15.537C36.8664 14.9964 35.9247 13.974 35.4946 12.5193C35.0997 11.1844 35.1327 9.83313 35.6435 8.53486C36.3534 6.73163 37.6998 5.71725 39.6372 5.50689C40.4484 5.41909 41.2497 5.47035 42.0194 5.75023C43.4683 6.27703 44.3793 7.31859 44.8357 8.77374C45.0202 9.36294 45.075 9.97263 45.0852 10.5614V10.5618ZM42.7013 10.6986C42.6977 10.0609 42.6246 9.43469 42.3635 8.84416C41.928 7.85876 41.1298 7.37163 40.0566 7.42555C39.2762 7.46477 38.6661 7.80706 38.2315 8.45107C38.1014 8.64405 37.9953 8.85709 37.9048 9.07235C37.7061 9.54433 37.6428 10.0453 37.6343 10.5538C37.6227 11.237 37.6998 11.9056 38.0123 12.5251C38.6478 13.7846 39.8195 14.093 40.9163 13.785C41.6807 13.5702 42.1535 13.0291 42.4374 12.3107C42.6416 11.7941 42.7044 11.2513 42.7017 10.6986H42.7013Z" fill="#1C8B7F"/>
<path d="M98.5154 5.91466C98.5154 6.54619 98.5154 7.15811 98.5154 7.77003C98.5154 7.8409 98.5154 7.91132 98.5154 8.00402C98.4548 7.98263 98.4098 7.97237 98.3697 7.95232C97.3464 7.43622 96.2581 7.27756 95.1305 7.40324C93.9147 7.53873 92.927 8.4341 92.6266 9.66151C92.4319 10.4575 92.4484 11.2584 92.6921 12.045C93.0318 13.1405 93.9392 13.854 95.0855 13.9307C95.5057 13.9588 95.9265 13.9583 96.3387 13.8505C96.4617 13.8184 96.5812 13.7738 96.7095 13.7324V11.7647H94.7303V9.97081H98.9705V15.0164C98.7485 15.1198 98.5154 15.2415 98.2725 15.3395C97.5661 15.6243 96.8267 15.762 96.0695 15.8164C95.4705 15.8596 94.8733 15.8565 94.2779 15.7718C92.9859 15.5877 91.8832 15.0578 91.073 14.0038C90.5845 13.3678 90.3149 12.6396 90.199 11.8516C90.0689 10.9683 90.0755 10.0862 90.3238 9.22563C90.8577 7.37471 92.0829 6.20881 93.928 5.69048C94.704 5.47254 95.5013 5.44134 96.3022 5.48903C96.9511 5.52736 97.5911 5.62095 98.2137 5.81393C98.3086 5.84335 98.4022 5.87678 98.5154 5.91466Z" fill="#1C8B7F"/>
<path d="M46.8261 8.51643H49.0175V9.53348C49.0313 9.53749 49.0451 9.5415 49.0594 9.54596C49.0879 9.5103 49.1178 9.47509 49.1445 9.4381C49.8001 8.54406 50.699 8.23298 51.77 8.35955C52.9827 8.50261 53.7056 9.2322 54.0408 10.3584C54.3768 11.4878 54.3398 12.6234 53.949 13.738C53.7497 14.3063 53.4186 14.7925 52.9542 15.1807C52.3365 15.6973 51.6122 15.8787 50.8229 15.8354C50.1148 15.7967 49.5345 15.5065 49.108 14.9298C49.0955 14.9129 49.0794 14.8982 49.0638 14.8839C49.0603 14.8808 49.0514 14.8834 49.0242 14.8834V18.9231C48.8544 18.9721 47.1162 18.9846 46.8368 18.945C46.7962 18.7912 46.7824 8.82974 46.8247 8.51688L46.8261 8.51643ZM48.964 12.1692C48.9858 12.4309 48.9867 12.696 49.0331 12.9532C49.1499 13.6039 49.6174 14.0728 50.2115 14.1383C50.8831 14.2123 51.4277 13.9404 51.7326 13.2852C51.7776 13.189 51.8177 13.0891 51.8476 12.9875C51.9995 12.4745 52.0205 11.95 51.955 11.4241C51.9287 11.215 51.873 11.0042 51.7963 10.8077C51.6671 10.4748 51.4304 10.2354 51.085 10.1169C50.7811 10.0126 50.4686 9.99431 50.1593 10.071C49.5764 10.2158 49.2528 10.6272 49.0781 11.1749C48.9747 11.498 48.9747 11.8332 48.964 12.1701V12.1692Z" fill="#1C8B7F"/>
<path d="M88.3637 5.87046V7.92417C88.3102 7.89787 88.2723 7.88227 88.238 7.86177C87.4335 7.38667 86.5622 7.19904 85.6352 7.27035C85.2764 7.29798 84.9315 7.38935 84.6409 7.61798C84.2487 7.92684 84.1948 8.42333 84.5143 8.80573C84.5959 8.90333 84.6912 8.99291 84.7942 9.0669C84.9439 9.17475 85.0999 9.2777 85.2644 9.35971C85.5701 9.51169 85.8866 9.64138 86.1936 9.79068C86.5903 9.98322 86.9883 10.1744 87.3734 10.3879C87.7054 10.572 87.992 10.8198 88.2353 11.1135C88.5829 11.5333 88.7666 12.0187 88.8013 12.5602C88.8232 12.902 88.8178 13.2438 88.7443 13.5808C88.5883 14.2939 88.1872 14.8336 87.5726 15.2187C87.0805 15.5271 86.5337 15.6808 85.9654 15.7606C84.9029 15.9099 83.8471 15.8671 82.8069 15.5957C82.5266 15.5226 82.2574 15.4076 81.9806 15.3114V13.0687C82.059 13.1235 82.1156 13.1614 82.1705 13.2019C83.0092 13.8232 83.951 14.1093 84.9934 14.0581C85.3009 14.0429 85.6013 13.9846 85.8812 13.8473C86.5043 13.5407 86.6304 12.881 86.1402 12.3886C85.9574 12.2049 85.7341 12.0494 85.5051 11.9268C85.1485 11.7356 84.7697 11.5863 84.4029 11.4134C84.0815 11.2619 83.7526 11.121 83.4478 10.941C83.1986 10.7935 82.9624 10.6134 82.7503 10.416C82.1112 9.82144 81.8768 9.0669 81.9378 8.21208C82.0207 7.04885 82.6683 6.30322 83.7076 5.85754C84.23 5.63336 84.783 5.53174 85.3473 5.4952C86.2846 5.43503 87.212 5.48896 88.1163 5.76974C88.1774 5.7889 88.238 5.8094 88.2981 5.83169C88.3178 5.83882 88.3347 5.85353 88.3637 5.87135V5.87046Z" fill="#1C8B7F"/>
<path d="M80.3744 13.2709V15.3165C80.2941 15.3517 80.2059 15.3936 80.115 15.4302C79.5677 15.649 78.9945 15.756 78.4107 15.8054C77.7921 15.858 77.1739 15.8567 76.5553 15.7778C74.5662 15.5238 73.0607 14.1275 72.6877 12.1531C72.4599 10.9471 72.5027 9.74952 72.9792 8.60545C73.6539 6.9845 74.8706 5.97503 76.5874 5.60957C77.785 5.35509 78.9816 5.43486 80.1604 5.76823C80.2081 5.7816 80.2554 5.7981 80.3026 5.81459C80.3222 5.82172 80.3405 5.83241 80.3717 5.84757V7.99932C80.295 7.96144 80.2277 7.92801 80.1604 7.89459C79.2348 7.43286 78.2592 7.29336 77.2524 7.5162C76.1502 7.75999 75.4318 8.4557 75.1095 9.53291C74.8608 10.3654 74.8626 11.2118 75.1626 12.0323C75.5485 13.089 76.3195 13.7009 77.4369 13.8511C78.4044 13.9813 79.3221 13.8012 80.1894 13.3569C80.2447 13.3288 80.3017 13.3047 80.3744 13.2713V13.2709Z" fill="#1C8B7F"/>
<path d="M64.0423 8.51894H66.2275V9.63538C66.2912 9.56273 66.3251 9.53198 66.3496 9.49499C67.101 8.35894 68.3307 8.16284 69.3794 8.44273C69.9325 8.59025 70.3314 8.94011 70.5867 9.45265C70.8033 9.88763 70.8907 10.3543 70.9223 10.8334C70.9361 11.0464 70.9352 11.2603 70.9352 11.4743C70.9361 12.7779 70.9357 14.0811 70.9357 15.3847V15.6664C70.2034 15.6762 69.4877 15.669 68.7487 15.6713C68.7447 15.5732 68.738 15.4908 68.738 15.4083C68.7376 14.1974 68.742 12.9865 68.734 11.776C68.7322 11.5072 68.701 11.2358 68.6542 10.9706C68.6266 10.8133 68.5584 10.6564 68.4791 10.5156C68.3182 10.2304 68.0615 10.0757 67.7353 10.0401C66.991 9.95894 66.3982 10.4198 66.2676 11.1872C66.2413 11.341 66.2293 11.4988 66.2293 11.6548C66.2262 12.9085 66.2275 14.1617 66.2275 15.4154V15.6579H64.0548C64.0102 15.5046 63.9973 8.79972 64.0419 8.5185L64.0423 8.51894Z" fill="#1C8B7F"/>
<path d="M62.4143 12.7219H57.7471C57.7939 13.3018 58.0011 13.7501 58.5065 14.0256C58.8074 14.1896 59.1358 14.252 59.4719 14.2689C60.2411 14.3081 60.9747 14.1735 61.6544 13.7942C61.6842 13.7778 61.7154 13.7639 61.7667 13.739V15.3145C61.4864 15.4758 61.1788 15.5832 60.8602 15.6572C59.9545 15.8671 59.0409 15.9286 58.1281 15.7294C56.849 15.45 56.0201 14.6736 55.6978 13.3998C55.4679 12.4915 55.4875 11.5774 55.7856 10.6834C56.2491 9.29329 57.5385 8.36093 59.0061 8.33419C59.4362 8.32616 59.8614 8.35736 60.2741 8.48171C61.3629 8.80928 62.0082 9.5616 62.2783 10.641C62.3639 10.9829 62.3875 11.343 62.4102 11.6969C62.4316 12.028 62.4147 12.3618 62.4147 12.7215L62.4143 12.7219ZM60.3601 11.3523C60.3686 11.0167 60.3218 10.7181 60.193 10.4351C60.1021 10.2355 59.9639 10.0746 59.7687 9.97073C59.3899 9.76884 58.7548 9.72561 58.318 10.1437C58.0542 10.3964 57.8781 10.6994 57.7912 11.0533C57.768 11.1469 57.7569 11.2436 57.7377 11.3523H60.3601Z" fill="#1C8B7F"/>
<path d="M2.02161 21.4793C2.21103 21.4793 2.38707 21.4713 2.56133 21.4842C2.61125 21.4882 2.67454 21.5435 2.70083 21.5921C2.82117 21.814 2.92412 22.0453 3.0449 22.2673C3.17548 22.5075 3.31899 22.7406 3.45671 22.9768C3.53782 23.1159 3.61136 23.2603 3.70139 23.3935C3.88145 23.66 4.05749 23.9306 4.25894 24.1806C4.59587 24.5987 4.92702 25.0261 5.3054 25.4044C5.73905 25.8381 6.21326 26.2334 6.68568 26.6265C7.38184 27.2063 8.1542 27.6739 8.96445 28.0754C9.40345 28.2934 9.85136 28.497 10.3095 28.67C10.6991 28.817 11.1086 28.9129 11.5102 29.0283C11.7718 29.1032 12.033 29.1798 12.2977 29.2418C12.4675 29.2814 12.6436 29.2926 12.816 29.322C12.9948 29.3523 13.1726 29.3888 13.3504 29.4232C13.378 29.4285 13.4048 29.4419 13.4324 29.4437C13.6722 29.461 13.912 29.4869 14.1522 29.49C14.6723 29.4971 15.1929 29.4976 15.713 29.49C16.0102 29.486 16.308 29.4722 16.6035 29.4419C16.8107 29.4205 17.0139 29.3603 17.2198 29.3229C17.4404 29.2828 17.6646 29.26 17.883 29.2115C18.4276 29.0902 18.9607 28.9316 19.4892 28.7475C19.947 28.588 20.3984 28.4173 20.833 28.2069C21.2435 28.0077 21.6441 27.7853 22.0381 27.5553C22.3479 27.3744 22.6469 27.1729 22.9411 26.967C23.1603 26.8137 23.3729 26.6475 23.5744 26.4714C23.9456 26.1465 24.3191 25.8225 24.6685 25.4753C25.1004 25.047 25.489 24.5804 25.8576 24.0937C26.1353 23.7278 26.3773 23.3414 26.6268 22.959C26.7632 22.7495 26.8729 22.5222 26.9905 22.3012C27.1318 22.0351 27.2691 21.7668 27.4162 21.4842C27.6234 21.4775 27.8396 21.4561 28.0865 21.5038C28.0316 21.6286 27.9915 21.7311 27.9425 21.8287C27.7985 22.118 27.6586 22.4095 27.5026 22.6925C27.3257 23.0129 27.1438 23.332 26.9451 23.6387C26.7503 23.939 26.5377 24.2292 26.3207 24.5144C26.0992 24.8054 25.8754 25.0965 25.6299 25.367C25.3451 25.6803 25.0429 25.9794 24.7345 26.27C24.4158 26.5704 24.0891 26.8636 23.7491 27.1395C23.4817 27.3565 23.1871 27.5402 22.9072 27.7421C22.3915 28.1138 21.8295 28.4088 21.2671 28.6976C20.8579 28.9075 20.4207 29.0657 19.9893 29.2284C19.5855 29.3808 19.1746 29.515 18.7628 29.6442C18.5707 29.7044 18.3684 29.7329 18.1709 29.777C17.9133 29.835 17.6579 29.9032 17.3985 29.9504C17.2189 29.9834 17.0313 29.9749 16.8521 30.0101C16.4782 30.0841 16.0923 30.0382 15.7206 30.1305C15.6733 30.1421 15.6212 30.134 15.5713 30.134C15.229 30.134 14.8867 30.1421 14.5448 30.1318C14.2346 30.1224 13.9213 30.1166 13.6165 30.0658C13.317 30.0159 13.0175 29.9878 12.7167 29.9571C12.4902 29.9339 12.2687 29.8608 12.045 29.8105C11.9559 29.7904 11.865 29.7761 11.7767 29.753C11.4808 29.6745 11.1817 29.6059 10.8916 29.5101C10.4882 29.3768 10.0902 29.2271 9.69315 29.0764C9.39899 28.9646 9.10395 28.8509 8.81961 28.7168C8.55309 28.5906 8.2986 28.44 8.04234 28.2934C7.53381 28.0023 7.03732 27.6917 6.57292 27.3325C6.30462 27.1252 6.03543 26.9189 5.7698 26.7081C5.67621 26.6336 5.59108 26.5485 5.50507 26.4652C5.26083 26.2294 5.00501 26.0043 4.77771 25.7534C4.34674 25.2774 3.90239 24.8117 3.54852 24.2706C3.32167 23.9239 3.06852 23.5941 2.85548 23.2398C2.63532 22.8734 2.44546 22.4879 2.2498 22.1073C2.16735 21.9464 2.10184 21.7766 2.03231 21.6095C2.01983 21.58 2.02562 21.5431 2.02072 21.4789L2.02161 21.4793Z" fill="#1C8B7F"/>
<path d="M2.32066 9.81446C2.33136 9.58047 2.45303 9.43607 2.53727 9.27875C2.81225 8.76354 3.1122 8.2617 3.45715 7.79195C3.94206 7.13189 4.45459 6.49234 5.05537 5.93033C5.36022 5.6451 5.65214 5.34382 5.97615 5.08175C6.48601 4.6695 7.0137 4.27819 7.57481 3.93501C8.10295 3.61189 8.64356 3.31017 9.21136 3.06638C9.7181 2.84889 10.2431 2.67373 10.7614 2.48387C10.9638 2.40944 11.1679 2.33635 11.3756 2.2793C11.5646 2.2276 11.7593 2.19774 11.9519 2.15986C12.2322 2.1046 12.5121 2.04443 12.7942 1.99897C13.017 1.96331 13.2466 1.96465 13.4667 1.91919C13.8322 1.84387 14.203 1.89201 14.5658 1.84655C14.7762 1.82025 14.9896 1.76766 15.1933 1.80376C15.5597 1.86838 15.9273 1.83629 16.2924 1.86838C16.6476 1.89958 16.9979 1.99139 17.3535 2.01992C17.797 2.05557 18.2133 2.20933 18.6491 2.27618C18.9152 2.31719 19.175 2.41613 19.4295 2.5115C19.926 2.69824 20.4221 2.88766 20.9087 3.09936C21.8108 3.49156 22.6496 3.99741 23.4398 4.57992C23.9051 4.92265 24.3445 5.29836 24.7648 5.69724C25.3107 6.21602 25.8108 6.77267 26.2774 7.36365C26.6193 7.79641 26.917 8.25635 27.2036 8.72432C27.3796 9.01178 27.5347 9.31217 27.6934 9.61033C27.7197 9.6598 27.7152 9.72576 27.7295 9.81134C27.5236 9.81134 27.3471 9.81713 27.171 9.80866C27.0899 9.80465 27.0413 9.7476 27.0021 9.66827C26.7525 9.16376 26.4619 8.68331 26.1255 8.23095C25.9191 7.95329 25.7341 7.6578 25.5091 7.39663C25.1855 7.02092 24.841 6.66259 24.4929 6.30872C24.2545 6.06627 24.0022 5.83585 23.7424 5.61657C23.4572 5.3759 23.1608 5.14727 22.859 4.92755C22.6264 4.75819 22.3862 4.59685 22.1353 4.45646C21.657 4.18772 21.1748 3.9261 20.6846 3.68053C20.1021 3.38905 19.4861 3.17557 18.8631 2.99017C18.5087 2.88499 18.1433 2.81724 17.7818 2.73613C17.5037 2.67373 17.2261 2.60376 16.9444 2.56097C16.7068 2.52487 16.4617 2.53914 16.2242 2.50259C15.6394 2.41256 15.052 2.43173 14.4655 2.44421C14.1156 2.45178 13.7671 2.50838 13.4182 2.54359C13.2078 2.56499 12.9974 2.58504 12.788 2.61267C12.6712 2.62783 12.5553 2.65368 12.4403 2.68131C12.0339 2.7798 11.6238 2.8676 11.2227 2.98482C10.8555 3.09178 10.4954 3.22638 10.1357 3.3583C9.49526 3.59273 8.88601 3.89535 8.29548 4.23496C7.57927 4.64677 6.89871 5.11028 6.27699 5.65579C5.94807 5.9446 5.6147 6.23117 5.31208 6.54671C4.85704 7.02136 4.43498 7.52543 4.04768 8.05936C3.66974 8.58081 3.33548 9.12766 3.02974 9.69278C2.98562 9.77434 2.93169 9.82203 2.82919 9.81668C2.6674 9.80822 2.50473 9.81446 2.32111 9.81446H2.32066Z" fill="#1C8B7F"/>
<path d="M-5.72612e-06 21.4889H0.416707C0.511638 21.7046 0.598991 21.9091 0.691248 22.1119C0.848128 22.456 0.992529 22.8072 1.17125 23.1397C1.40701 23.5773 1.66417 24.0043 1.92534 24.4281C2.24757 24.9509 2.62551 25.4345 3.01504 25.9091C3.50885 26.5113 4.04456 27.0684 4.62885 27.5854C5.05894 27.966 5.49927 28.3328 5.96679 28.6635C6.53459 29.0655 7.1113 29.4568 7.7464 29.7523C8.20991 29.968 8.66451 30.2042 9.13247 30.4096C9.61871 30.6236 10.1206 30.8018 10.6349 30.9356C11.0119 31.0336 11.3809 31.1575 11.7709 31.2163C12.0994 31.2658 12.4261 31.3438 12.7554 31.4026C13.1405 31.4713 13.5318 31.4592 13.9133 31.5136C14.5591 31.6059 15.2027 31.543 15.8467 31.5608C15.9982 31.5649 16.1506 31.5203 16.3031 31.5038C16.4573 31.4873 16.6124 31.4779 16.767 31.4659C16.8094 31.4628 16.8526 31.465 16.8945 31.4583C17.1365 31.42 17.378 31.3808 17.6192 31.3402C17.7426 31.3193 17.8652 31.2908 17.9891 31.2725C18.564 31.1887 19.1224 31.0354 19.6742 30.8598C20.4136 30.6245 21.1427 30.362 21.8317 29.9996C22.1798 29.8164 22.5368 29.648 22.8764 29.4505C23.2245 29.2486 23.5588 29.0231 23.8948 28.8012C24.5468 28.3711 25.1383 27.8639 25.7105 27.3353C25.9744 27.0915 26.2101 26.817 26.4588 26.5567C26.5078 26.5055 26.5609 26.4582 26.6095 26.4065C27.1808 25.7959 27.6845 25.1323 28.1364 24.4295C28.4631 23.9214 28.767 23.4004 29.0188 22.85C29.1499 22.5643 29.2898 22.2822 29.4222 21.9974C29.4721 21.89 29.5256 21.7812 29.5554 21.6671C29.5987 21.5031 29.7021 21.459 29.854 21.4768C29.9097 21.4835 29.9663 21.4862 30.0515 21.4929C30.0372 21.5909 30.0434 21.6868 30.0091 21.7647C29.7974 22.2421 29.5799 22.7163 29.3584 23.1891C29.1441 23.6469 28.8771 24.0752 28.6159 24.5075C28.3129 25.0084 27.9666 25.4782 27.6082 25.9368C27.0979 26.5901 26.5297 27.1963 25.9093 27.748C25.4565 28.1505 24.9965 28.5485 24.5107 28.909C24.0593 29.2442 23.5815 29.5499 23.0926 29.8285C22.5386 30.144 21.9704 30.4413 21.387 30.6971C20.8963 30.9124 20.3953 31.1147 19.8721 31.2502C19.6296 31.313 19.3934 31.3995 19.1528 31.4686C18.9651 31.5225 18.7757 31.5715 18.5845 31.6125C18.3122 31.6709 18.039 31.7257 17.764 31.7717C17.563 31.8051 17.3589 31.8184 17.157 31.8474C16.9021 31.8844 16.648 31.9294 16.3935 31.9682C16.3445 31.9758 16.2941 31.9713 16.2442 31.9727C15.8605 31.9825 15.4763 32.0012 15.0926 32.0003C14.6304 31.9994 14.1682 31.982 13.7061 31.9718C13.473 31.8465 13.21 31.9432 12.9613 31.8595C12.706 31.7734 12.4198 31.7823 12.1484 31.74C11.9011 31.7017 11.6541 31.6571 11.4099 31.6027C11.2267 31.5617 11.0485 31.4989 10.8671 31.4494C10.6857 31.4 10.4985 31.3688 10.3224 31.305C9.85626 31.137 9.38562 30.985 8.92568 30.7961C8.43765 30.5951 7.95988 30.3762 7.49593 30.1289C6.99944 29.8641 6.51765 29.5735 6.04969 29.258C5.19041 28.6782 4.39175 28.0288 3.67331 27.2823C3.33459 26.9302 2.9825 26.5884 2.67409 26.2104C2.2957 25.7465 1.94272 25.2607 1.60668 24.7651C1.3357 24.3649 1.09593 23.9419 0.861498 23.5185C0.559326 22.973 0.307069 22.4025 0.0784344 21.8227C0.0409971 21.7278 0.029855 21.6226 -0.00134277 21.4889H-5.72612e-06Z" fill="#1C8B7F"/>
<path d="M29.7627 9.79498C29.7136 9.80255 29.6726 9.81236 29.6316 9.81414C29.3589 9.82484 29.3673 9.82083 29.2604 9.57169C29.1534 9.32166 29.0322 9.07743 28.9074 8.83542C28.7759 8.58005 28.6436 8.32378 28.492 8.07999C28.2736 7.72924 28.0397 7.38785 27.807 7.04645C27.6483 6.81381 27.491 6.57849 27.3123 6.36099C27.0208 6.00623 26.7227 5.65637 26.4089 5.32166C26.1139 5.00656 25.8081 4.69904 25.485 4.41292C25.1204 4.0898 24.7372 3.78629 24.3507 3.48946C24.0437 3.25414 23.7272 3.02863 23.3997 2.82272C23.0734 2.61681 22.7218 2.45147 22.3938 2.24824C21.9614 1.98038 21.4957 1.78383 21.0309 1.58773C20.6324 1.41971 20.2215 1.27888 19.8119 1.13938C19.3961 0.99765 18.9736 0.877316 18.5413 0.792637C18.2828 0.742274 18.031 0.65804 17.7725 0.610798C17.4953 0.55999 17.2145 0.516313 16.9337 0.502497C16.5821 0.485116 16.2367 0.384391 15.8814 0.42896C15.397 0.313082 14.9041 0.367455 14.4178 0.38662C14.1451 0.397316 13.8634 0.391077 13.5964 0.440547C13.2831 0.498932 12.9662 0.495812 12.6556 0.550631C12.3949 0.596982 12.139 0.668737 11.8806 0.725338C11.6898 0.766787 11.495 0.792637 11.3061 0.840325C10.8541 0.954419 10.4009 1.06317 9.96768 1.24278C9.72256 1.34439 9.46094 1.405 9.21537 1.50617C8.85927 1.6528 8.50807 1.81191 8.16088 1.97949C7.48835 2.30395 6.8381 2.67342 6.22885 3.10305C5.6927 3.48099 5.18061 3.89548 4.67743 4.31709C4.34228 4.59787 4.03387 4.91253 3.72857 5.22629C3.50751 5.45403 3.30696 5.70227 3.10462 5.9474C2.84746 6.25849 2.58673 6.56734 2.34829 6.89225C2.14506 7.16901 1.96724 7.46495 1.78406 7.75598C1.64946 7.96946 1.51309 8.18339 1.39587 8.40668C1.17793 8.82205 0.97069 9.24322 0.766567 9.66573C0.733587 9.73392 0.711748 9.80344 0.630189 9.80746C0.531693 9.8128 0.423838 9.82439 0.336484 9.79052C0.255815 9.75932 0.263392 9.65147 0.295927 9.5806C0.432751 9.282 0.568684 8.9825 0.721999 8.69236C1.00902 8.15041 1.30763 7.61425 1.65481 7.10885C1.92133 6.72066 2.2088 6.34673 2.49403 5.97191C2.92724 5.40278 3.41971 4.88534 3.94384 4.40177C4.40601 3.97526 4.88646 3.56612 5.38116 3.17748C5.98685 2.70149 6.63398 2.28211 7.31765 1.92467C7.72634 1.71074 8.13682 1.49815 8.55799 1.31007C9.02328 1.10239 9.49704 0.913416 9.98595 0.765004C10.166 0.710185 10.3394 0.633528 10.5199 0.5796C10.6941 0.527901 10.8742 0.494921 11.0502 0.449907C11.2789 0.391522 11.5062 0.328235 11.7344 0.269851C11.7749 0.2596 11.8195 0.265394 11.8609 0.257818C12.156 0.204781 12.451 0.150408 12.7461 0.0964805C12.767 0.0924693 12.788 0.0897953 12.8089 0.0880125C13.0897 0.0666198 13.37 0.0327479 13.6512 0.0273997C14.47 0.0118008 15.2887 0.00511559 16.1078 0.000658766C16.328 -0.000678281 16.5495 0.00556127 16.7683 0.0296281C16.9818 0.0532493 17.1917 0.108514 17.4043 0.142386C17.6744 0.185171 17.9463 0.218152 18.2168 0.2596C18.3403 0.278765 18.4633 0.304169 18.585 0.333584C18.8836 0.406675 19.1822 0.480659 19.479 0.560436C19.6131 0.596536 19.7446 0.644224 19.8752 0.691912C20.295 0.845227 20.7198 0.986954 21.1316 1.15943C21.6165 1.36266 22.1023 1.56991 22.5645 1.81815C23.1728 2.14484 23.7593 2.51074 24.3236 2.9123C25.017 3.40612 25.6633 3.95475 26.2752 4.54395C26.5279 4.78684 26.7646 5.04668 26.9994 5.30785C27.3658 5.71475 27.7067 6.13993 28.0285 6.58027C28.2901 6.93771 28.5192 7.31876 28.7639 7.68868C29.0968 8.19141 29.3491 8.73782 29.6151 9.2762C29.6771 9.40188 29.7257 9.53425 29.7725 9.66662C29.785 9.70183 29.7676 9.74818 29.7631 9.79587L29.7627 9.79498Z" fill="#1C8B7F"/>
<path d="M11.4442 27.2671C11.3564 27.2109 11.2931 27.1703 11.233 27.1316C11.5521 26.1475 11.8672 25.1768 12.1903 24.1812C12.2866 24.2061 12.369 24.2275 12.4466 24.2476C12.4822 24.4744 12.3619 24.6375 12.308 24.8154C12.1488 25.3404 11.9795 25.8618 11.8128 26.3846C11.7326 26.636 11.6532 26.8878 11.565 27.1365C11.5485 27.1833 11.4932 27.2158 11.4442 27.2671Z" fill="#1C8B7F"/>
<path d="M18.7766 27.1554C18.7392 27.1781 18.7035 27.1995 18.6683 27.2209C18.5792 27.2753 18.5252 27.2503 18.4936 27.1514C18.4218 26.9263 18.3452 26.703 18.2716 26.4784C18.1148 26.0011 17.9597 25.5229 17.8014 25.046C17.7279 24.8236 17.649 24.603 17.5728 24.3815C17.5434 24.2955 17.5799 24.2487 17.707 24.209C17.8077 24.1778 17.8705 24.2117 17.9008 24.3093C18.0145 24.6752 18.125 25.0424 18.244 25.4065C18.4183 25.9414 18.6001 26.4735 18.7753 27.0079C18.7895 27.052 18.777 27.105 18.777 27.1554H18.7766Z" fill="#1C8B7F"/>
<path d="M11.1857 23.7858C11.1474 23.8878 11.1153 24.0037 11.0618 24.1084C10.7721 24.6762 10.4758 25.2409 10.1838 25.8078C10.0657 26.0374 9.95386 26.27 9.83665 26.5062C9.75464 26.545 9.65882 26.5432 9.61603 26.4594C9.58617 26.401 9.59152 26.3034 9.6196 26.2401C9.72523 26.0035 9.84422 25.7726 9.96188 25.5413C10.1736 25.1246 10.388 24.7088 10.601 24.2925C10.6937 24.1116 10.7855 23.9297 10.88 23.7497C10.9402 23.6347 11.0146 23.6405 11.1857 23.7853V23.7858Z" fill="#1C8B7F"/>
<path d="M20.275 22.9583C20.5419 23.3157 20.8049 23.6624 21.0616 24.0132C21.3758 24.4424 21.6856 24.8747 21.9962 25.3061C22.0631 25.3993 22.0506 25.4728 21.9623 25.5356C21.8567 25.6105 21.8304 25.6074 21.7439 25.4897C21.46 25.1024 21.1797 24.7129 20.8958 24.3261C20.6253 23.957 20.3521 23.5898 20.0793 23.2217C19.9915 23.1031 20.0352 22.985 20.1823 22.9556C20.2157 22.9489 20.2522 22.9578 20.275 22.9587V22.9583Z" fill="#1C8B7F"/>
<path d="M22.0537 6.55503C22.0145 6.6259 21.9926 6.67849 21.9601 6.7235C21.7404 7.02523 21.5175 7.32473 21.2974 7.62556C21.0554 7.95626 20.8156 8.28874 20.5745 8.61988C20.5 8.72239 20.4261 8.82534 20.3481 8.92517C20.2754 9.01876 20.2005 9.02857 20.1127 8.96305C20.0187 8.89308 20.02 8.85966 20.1052 8.73932C20.3289 8.42467 20.5468 8.10556 20.7732 7.79269C21.0892 7.35637 21.4106 6.92361 21.7301 6.48952C21.7818 6.4191 21.8545 6.383 21.9334 6.424C21.9828 6.44985 22.0145 6.50957 22.0537 6.55369V6.55503Z" fill="#1C8B7F"/>
<path d="M18.8631 23.7602C18.9045 23.7334 18.9268 23.7156 18.9513 23.7036C19.0801 23.6416 19.1006 23.6461 19.1648 23.7709C19.2967 24.0276 19.4246 24.2861 19.5561 24.5432C19.8155 25.0491 20.0766 25.554 20.3365 26.0599C20.3962 26.1762 20.4532 26.2934 20.5148 26.4173C20.4595 26.4525 20.427 26.4797 20.3895 26.4962C20.2696 26.5497 20.2264 26.5354 20.168 26.4227C20.0713 26.2355 19.9777 26.0474 19.8814 25.8598C19.6929 25.4912 19.5031 25.1235 19.3145 24.7554C19.1777 24.4884 19.04 24.2219 18.9085 23.9527C18.8795 23.8939 18.8764 23.8226 18.8626 23.7611L18.8631 23.7602Z" fill="#1C8B7F"/>
<path d="M7.97504 6.56834C8.09849 6.36377 8.20635 6.35397 8.34183 6.53581C8.51921 6.77336 8.68679 7.01804 8.86194 7.25737C9.05314 7.51854 9.25147 7.77481 9.44089 8.03731C9.60891 8.2704 9.77114 8.50795 9.93114 8.74639C10.0056 8.85692 9.99353 8.95631 9.91286 9.004C9.82596 9.05525 9.77693 9.03609 9.69002 8.9162C9.3054 8.38539 8.92167 7.85414 8.53571 7.32422C8.3503 7.06929 8.16044 6.81748 7.97548 6.56834H7.97504Z" fill="#1C8B7F"/>
<path d="M20.5223 5.50628C20.443 5.6752 20.3762 5.82673 20.3022 5.97425C20.0731 6.43107 19.8427 6.88745 19.6096 7.34249C19.4696 7.61614 19.3275 7.8889 19.179 8.15854C19.1519 8.20756 19.0948 8.26327 19.0445 8.27174C18.9099 8.29403 18.839 8.1835 18.8987 8.05291C18.9624 7.91341 19.0324 7.77614 19.1024 7.63976C19.3796 7.09737 19.6573 6.55586 19.9358 6.01436C20.0031 5.88377 20.0709 5.75364 20.1448 5.62662C20.2527 5.44166 20.2554 5.44299 20.5223 5.50628Z" fill="#1C8B7F"/>
<path d="M10.0466 23.0847C9.42617 23.9132 8.83876 24.7693 8.20411 25.5979C8.12077 25.5569 8.05926 25.5261 7.9826 25.4882C7.98884 25.4472 7.9826 25.3929 8.00489 25.3563C8.07531 25.2422 8.15419 25.1326 8.23442 25.0247C8.48578 24.6856 8.73893 24.3477 8.99163 24.0099C9.13113 23.8232 9.27375 23.6387 9.41146 23.451C9.49391 23.3387 9.57057 23.2224 9.64723 23.1061C9.77469 22.9131 9.85046 22.9042 10.0466 23.0847Z" fill="#1C8B7F"/>
<path d="M13.5095 24.5473C13.5608 24.5432 13.6093 24.5352 13.6575 24.5357C13.8251 24.5379 13.8415 24.5651 13.7845 24.7228C13.7702 24.7621 13.7604 24.8035 13.7555 24.845C13.7199 25.1454 13.7056 25.4498 13.645 25.7448C13.5929 25.9979 13.5661 26.2542 13.514 26.5047C13.4623 26.7529 13.4239 26.9989 13.4057 27.2508C13.3968 27.3747 13.3566 27.4963 13.3268 27.6381H13.0834C13.0603 27.4732 13.0567 27.3105 13.0941 27.1407C13.1378 26.9428 13.149 26.7378 13.1828 26.5377C13.214 26.3527 13.2586 26.17 13.2938 25.9855C13.3188 25.8544 13.3428 25.7225 13.3589 25.5901C13.3803 25.415 13.3874 25.2385 13.4119 25.0638C13.4351 24.8989 13.473 24.7362 13.5095 24.5464V24.5473Z" fill="#1C8B7F"/>
<path d="M11.5401 4.75195C11.6198 5.02738 11.68 5.25602 11.7531 5.48109C11.8436 5.75875 11.9487 6.03106 12.0401 6.30828C12.1734 6.71251 12.2995 7.11853 12.4287 7.52365C12.4724 7.66048 12.455 7.72287 12.3637 7.75362C12.2598 7.78883 12.1832 7.74961 12.1413 7.62259C12.0129 7.23218 11.8939 6.83864 11.7642 6.44867C11.5935 5.93435 11.4166 5.42226 11.2414 4.90928C11.2187 4.84198 11.2383 4.78939 11.3021 4.77468C11.3801 4.75641 11.4625 4.75819 11.5401 4.75195Z" fill="#1C8B7F"/>
<path d="M9.61069 5.48245C9.67799 5.47265 9.74618 5.46284 9.81971 5.45215C10.1067 6.01995 10.3889 6.58151 10.6745 7.14084C10.8051 7.39622 10.9451 7.64669 11.0783 7.90073C11.1585 8.05404 11.1563 8.05538 11.126 8.26173H10.8987C10.6317 7.72602 10.3666 7.1863 10.0947 6.6497C9.95877 6.3814 9.80902 6.12023 9.66684 5.8546C9.60623 5.7414 9.55542 5.62552 9.61069 5.48245Z" fill="#1C8B7F"/>
<path d="M6.78372 24.4215C6.56667 24.2816 6.55731 24.2192 6.70751 24.069C7.29269 23.4847 7.87742 22.9004 8.4626 22.3166C8.53748 22.2417 8.61235 22.1668 8.6899 22.0946C8.75453 22.0349 8.85347 22.0425 8.91497 22.1049C8.98717 22.178 8.96667 22.2404 8.9016 22.3054C8.67252 22.5358 8.44567 22.7689 8.21614 22.9994C7.92199 23.2948 7.62695 23.5885 7.33102 23.8823C7.15141 24.0605 6.96957 24.2375 6.78283 24.4211L6.78372 24.4215Z" fill="#1C8B7F"/>
<path d="M18.5114 4.75641C18.5765 4.75106 18.6046 4.74482 18.6322 4.74705C18.7695 4.7573 18.8167 4.81434 18.777 4.93735C18.634 5.3817 18.4874 5.82471 18.3416 6.26816C18.207 6.67774 18.072 7.08688 17.9392 7.49691C17.9155 7.56955 17.9008 7.64532 17.8781 7.7349C17.8496 7.74203 17.8099 7.75986 17.7707 7.7603C17.6357 7.76164 17.584 7.70994 17.6102 7.57891C17.6406 7.42872 17.6847 7.28031 17.7315 7.13412C17.8264 6.83774 17.9253 6.54315 18.0252 6.24855C18.1433 5.90003 18.2658 5.55329 18.3822 5.20387C18.4303 5.05902 18.4673 4.91061 18.5114 4.75685V4.75641Z" fill="#1C8B7F"/>
<path d="M21.2693 9.95585C21.0674 9.8119 21.054 9.76555 21.1949 9.61446C21.3977 9.39697 21.612 9.19106 21.8211 8.97981C22.1344 8.66427 22.4463 8.34739 22.761 8.03318C22.8911 7.90304 23.0257 7.7778 23.1585 7.65123C23.2281 7.58482 23.2998 7.56298 23.385 7.63028C23.4719 7.69847 23.4848 7.7417 23.4108 7.82193C23.3052 7.93647 23.1929 8.04477 23.0823 8.15441C22.7507 8.48377 22.4183 8.81223 22.0867 9.14115C21.8161 9.40945 21.5465 9.67864 21.2689 9.95541L21.2693 9.95585Z" fill="#1C8B7F"/>
<path d="M16.2491 24.542H16.5312C16.5749 24.8375 16.6034 25.1352 16.6667 25.4253C16.7055 25.6027 16.6792 25.789 16.7648 25.9619C16.812 26.0573 16.8049 26.1799 16.8209 26.2904C16.849 26.4838 16.8744 26.6777 16.9038 26.8707C16.931 27.0507 16.964 27.2295 16.9903 27.4095C17.0006 27.4781 16.9992 27.5481 17.0046 27.6417C16.915 27.6475 16.841 27.6524 16.775 27.6564C16.685 27.5766 16.6663 27.4875 16.6569 27.3832C16.6387 27.1813 16.5977 26.9817 16.5687 26.7811C16.5406 26.5881 16.5339 26.3898 16.4845 26.2026C16.4056 25.9044 16.4212 25.5947 16.3325 25.2956C16.2643 25.0652 16.2759 24.8112 16.2496 24.5424L16.2491 24.542Z" fill="#1C8B7F"/>
<path d="M23.4768 24.201C23.4242 24.2648 23.3814 24.3276 23.3275 24.3793C23.2798 24.4248 23.2307 24.4141 23.1808 24.3637C22.8435 24.0214 22.5043 23.6809 22.1638 23.3413C21.8634 23.0414 21.5608 22.7437 21.2591 22.4446C21.2238 22.4098 21.1864 22.3769 21.1548 22.3385C21.0821 22.2512 21.0884 22.1732 21.1695 22.0996C21.2426 22.0332 21.2822 22.0413 21.3767 22.1349C22.0038 22.7584 22.6309 23.3819 23.2588 24.0045C23.323 24.0682 23.393 24.1257 23.4763 24.2006L23.4768 24.201Z" fill="#1C8B7F"/>
<path d="M13.8072 7.38049C13.7787 7.38628 13.7444 7.3894 13.7127 7.4001C13.4877 7.47452 13.4975 7.47408 13.4774 7.23207C13.4618 7.04667 13.4159 6.86349 13.3874 6.67898C13.3584 6.49224 13.3379 6.30461 13.3076 6.11831C13.276 5.92578 13.235 5.73503 13.2016 5.54294C13.1739 5.38427 13.1481 5.22472 13.128 5.06472C13.0995 4.83608 13.0772 4.607 13.05 4.35742H13.3415C13.3803 4.64979 13.415 4.93993 13.4583 5.22873C13.4863 5.41503 13.5291 5.59865 13.5612 5.78405C13.5946 5.97569 13.6223 6.16823 13.6535 6.36032C13.6838 6.54617 13.7168 6.73202 13.7453 6.91831C13.7671 7.06138 13.7841 7.20533 13.8077 7.38049H13.8072Z" fill="#1C8B7F"/>
<path d="M8.95687 9.69892C8.97604 9.83931 8.87353 9.88343 8.76166 9.95029C8.7162 9.90438 8.66896 9.8558 8.62127 9.80856C7.97325 9.16544 7.32523 8.52232 6.67676 7.8792C6.59208 7.79497 6.5845 7.72276 6.6576 7.64923C6.73871 7.56722 6.79442 7.56588 6.89292 7.66304C7.17414 7.94204 7.45136 8.22505 7.73125 8.50583C8.09091 8.86683 8.45102 9.22783 8.81292 9.58705C8.85615 9.63029 8.90963 9.66327 8.95732 9.69937L8.95687 9.69892Z" fill="#1C8B7F"/>
<path d="M16.5228 7.46783C16.4172 7.42772 16.3472 7.40097 16.2696 7.37156C16.2612 7.23473 16.2723 7.10281 16.3031 6.96064C16.3699 6.65312 16.3868 6.33535 16.4345 6.02337C16.4617 5.84599 16.5116 5.67217 16.546 5.49568C16.5727 5.35841 16.5945 5.2198 16.6119 5.08075C16.632 4.92031 16.6507 4.75897 16.6596 4.59763C16.6725 4.35607 16.7274 4.31373 16.9925 4.36721C16.9961 4.39975 17.0063 4.4354 17.0023 4.46883C16.9711 4.7193 16.9422 4.97067 16.9012 5.21936C16.8731 5.38961 16.8223 5.55629 16.7911 5.7261C16.7572 5.91106 16.7345 6.09824 16.7055 6.28409C16.6743 6.48376 16.6409 6.68253 16.6101 6.8822C16.5816 7.06671 16.5549 7.25167 16.5228 7.46783Z" fill="#1C8B7F"/>
<path d="M14.9063 4.18314C14.9945 4.17913 15.0627 4.17601 15.1287 4.17334C15.1764 4.34582 15.1835 7.09211 15.1385 7.31808H14.9067V4.18314H14.9063Z" fill="#1C8B7F"/>
<path d="M14.9143 24.6689H15.1309C15.1737 24.8281 15.1848 27.4812 15.1438 27.7526H14.9263C14.8849 27.5962 14.8729 24.9658 14.9143 24.6689Z" fill="#1C8B7F"/>
<path d="M7.54585 21.376V21.6015C7.23164 21.8244 6.91387 22.0459 6.601 22.2732C6.30997 22.4849 6.0225 22.7019 5.73504 22.9185C5.61426 23.0094 5.50863 23.0215 5.45872 22.9417C5.40612 22.8575 5.44356 22.7527 5.5483 22.6752C5.94897 22.3783 6.34696 22.078 6.74941 21.7838C6.93125 21.651 7.12512 21.5347 7.30562 21.4005C7.37916 21.3461 7.44423 21.3426 7.54495 21.376H7.54585Z" fill="#1C8B7F"/>
<path d="M22.6986 21.4101C22.7962 21.4649 22.892 21.5077 22.9749 21.5674C23.4959 21.944 24.0138 22.3247 24.533 22.703C24.6578 22.794 24.6757 22.8461 24.6035 22.9335C24.5353 23.0155 24.4394 23.0168 24.3436 22.9459C23.8841 22.6072 23.4237 22.2703 22.9633 21.932C22.8894 21.8776 22.8185 21.8179 22.7418 21.7676C22.5497 21.6414 22.5489 21.6432 22.6982 21.4097L22.6986 21.4101Z" fill="#1C8B7F"/>
<path d="M6.71376 9.7658C6.74808 9.86206 6.71465 9.93917 6.63488 9.98596C6.55911 10.0305 6.49092 9.99265 6.42362 9.94229C6.16557 9.74841 5.90307 9.55945 5.64279 9.36825C5.59153 9.33081 5.53983 9.29337 5.49304 9.25014C5.43064 9.19265 5.41683 9.0741 5.46852 9.0224C5.53092 8.95956 5.59599 8.95465 5.67443 9.01348C5.961 9.2292 6.25248 9.43867 6.54262 9.64992C6.59878 9.69092 6.65761 9.72836 6.71376 9.76624V9.7658Z" fill="#1C8B7F"/>
<path d="M23.3841 9.98643C23.364 9.91914 23.3448 9.85273 23.3217 9.77518C23.5931 9.57774 23.8592 9.38432 24.1248 9.19C24.193 9.14008 24.2563 9.08304 24.3262 9.03579C24.418 8.9734 24.521 8.98454 24.5945 9.05719C24.6654 9.12716 24.6614 9.1793 24.5772 9.24081C24.2531 9.47657 23.9269 9.70833 23.606 9.94855C23.5343 10.002 23.471 10.0123 23.3836 9.98643H23.3841Z" fill="#1C8B7F"/>
</g>
<defs>
<clipPath id="clip0_277_5873">
<rect width="98.9705" height="32" fill="white"/>
</clipPath>
</defs>
</svg>
