<svg width="64" height="64" viewBox="0 0 64 64" fill="none" xmlns="http://www.w3.org/2000/svg">
<path d="M30.6769 6.08936C31.4967 5.62089 32.5031 5.62089 33.323 6.08936L57.974 20.1757C58.8698 20.6875 58.8698 21.9791 57.974 22.491L33.323 36.5773C32.5031 37.0458 31.4967 37.0458 30.6769 36.5773L6.02582 22.491C5.13007 21.9791 5.13007 20.6875 6.02582 20.1757L30.6769 6.08936Z" fill="#C1C9D1"/>
<path d="M22.6666 32L6.02582 41.509C5.13007 42.0209 5.13007 43.3125 6.02582 43.8243L30.6769 57.9106C31.4967 58.3791 32.5031 58.3791 33.323 57.9106L57.974 43.8243C58.8698 43.3125 58.8698 42.0209 57.974 41.509L41.3332 32L33.323 36.5773C32.5031 37.0457 31.4967 37.0457 30.6769 36.5773L22.6666 32Z" fill="#36435C"/>
</svg>
