<svg width="64" height="64" viewBox="0 0 64 64" fill="none" xmlns="http://www.w3.org/2000/svg">
<path d="M63.3271 12.0287C62.6493 11.6903 62.3563 12.3353 61.9605 12.6631C61.8255 12.7689 61.7106 12.9063 61.5951 13.0332C60.6049 14.1117 59.4482 14.8202 57.9347 14.7356C55.7241 14.6087 53.8363 15.3171 52.1683 17.0407C51.8135 14.9153 50.6352 13.6465 48.8411 12.8323C47.9015 12.4093 46.9536 11.9864 46.2953 11.0665C45.8376 10.4109 45.7131 9.6813 45.4828 8.96228C45.3372 8.52875 45.1915 8.08432 44.7017 8.01064C44.1682 7.92605 43.9604 8.38072 43.7512 8.76138C42.9172 10.3157 42.5928 12.0287 42.6259 13.7628C42.6971 17.6645 44.3152 20.7732 47.5268 22.9835C47.8922 23.2373 47.9862 23.491 47.871 23.8611C47.6526 24.6221 47.3905 25.3623 47.1614 26.1236C47.0158 26.61 46.7974 26.7157 46.2847 26.5043C44.523 25.7535 43.0006 24.6433 41.6545 23.3007C39.3709 21.0482 37.305 18.5633 34.7308 16.6177C34.1344 16.169 33.5218 15.7423 32.8942 15.3383C30.2664 12.7371 33.2384 10.6012 33.9268 10.3475C34.6454 10.0831 34.1771 9.17376 31.851 9.18433C29.525 9.1949 27.3976 9.98794 24.6863 11.0453C24.2892 11.2039 23.8722 11.3202 23.4459 11.4154C20.9835 10.9396 18.4285 10.8338 15.7582 11.1405C10.7316 11.7115 6.71629 14.1329 3.76409 18.2672C0.218803 23.2369 -0.616551 28.8834 0.40679 34.773C1.47911 40.9798 4.58885 46.1187 9.36533 50.1367C14.3192 54.3028 20.0237 56.3436 26.5318 55.9524C30.4848 55.7197 34.8853 55.1805 39.8498 50.8981C41.1022 51.5325 42.4167 51.7866 44.5958 51.9766C46.2758 52.1352 47.8922 51.892 49.1433 51.6277C51.1036 51.2047 50.9675 49.3543 50.2593 49.0159C44.5124 46.2879 45.7737 47.3981 44.6273 46.4997C47.548 42.9783 51.9485 39.3197 53.6695 27.4668C53.8055 26.5254 53.6907 25.9333 53.6695 25.172C53.6589 24.7067 53.7622 24.5269 54.2851 24.4741C55.7241 24.3049 57.1221 23.9031 58.405 23.1841C62.1273 21.1116 63.6302 17.7068 63.985 13.6253C64.038 13.0015 63.9748 12.3565 63.3271 12.0287ZM30.8803 48.7621C25.3122 44.3003 22.6102 42.8302 21.4942 42.8937C20.451 42.9571 20.639 44.1731 20.868 44.9661C21.1076 45.7486 21.4214 46.2879 21.8596 46.9752C22.1614 47.4298 22.3706 48.1066 21.5564 48.6141C19.7626 49.7455 16.6449 48.2335 16.4993 48.1594C12.8692 45.9812 9.83364 43.1052 7.69561 39.1717C5.6304 35.3866 4.43231 31.3259 4.23373 26.9906C4.18078 25.9438 4.48394 25.5741 5.50463 25.3834C6.84871 25.1204 8.2275 25.0846 9.58344 25.2777C15.2681 26.1236 20.1081 28.7142 24.1644 32.8168C26.4798 35.1536 28.2313 37.9451 30.037 40.6735C31.9553 43.5707 34.0205 46.3302 36.6484 48.5933C37.5764 49.3863 38.3164 49.9887 39.0257 50.4331C36.888 50.6763 33.3199 50.7292 30.8803 48.7621ZM33.5502 31.2625C33.5502 30.7972 33.9156 30.4271 34.3753 30.4271C34.4792 30.4291 34.5729 30.4466 34.6556 30.48C34.8137 30.5406 34.9495 30.6481 35.0447 30.7879C35.1399 30.9278 35.1899 31.0934 35.1882 31.2625C35.1898 31.4266 35.1428 31.5875 35.0531 31.7251C34.9781 31.8391 34.876 31.9328 34.7559 31.9979C34.6357 32.0629 34.5014 32.0972 34.3647 32.0978C34.2559 32.0974 34.1483 32.0755 34.048 32.0334C33.8976 31.969 33.7697 31.8615 33.6806 31.7244C33.5921 31.5868 33.5467 31.426 33.5502 31.2625ZM41.8419 35.5977C41.311 35.8198 40.7785 36.0101 40.2665 36.0313C39.4745 36.0736 38.609 35.7458 38.14 35.344C37.4096 34.7201 36.888 34.3712 36.6695 33.2821C36.5752 32.8168 36.6272 32.0978 36.7106 31.6858C36.8986 30.7972 36.6894 30.2262 36.0751 29.7081C35.5747 29.2852 34.9379 29.1689 34.2389 29.1689C33.9781 29.1689 33.7382 29.0529 33.5611 28.9574C33.4746 28.9164 33.3975 28.8578 33.3351 28.7852C33.2722 28.7131 33.2252 28.6285 33.1971 28.5371C33.1685 28.4457 33.1594 28.3493 33.1706 28.2542C33.1809 28.1594 33.211 28.0675 33.2593 27.9849C33.3321 27.8366 33.6866 27.477 33.7703 27.4139C34.7195 26.8641 35.814 27.0438 36.8258 27.4562C37.7644 27.8471 38.4723 28.5665 39.496 29.5816C40.5392 30.8078 40.7272 31.1465 41.3199 32.0664C41.7902 32.7851 42.2178 33.5256 42.5088 34.3712C42.6875 34.8999 42.4571 35.3334 41.8419 35.5977Z" fill="#4D6BFE"/>
</svg>
