<svg width="64" height="64" viewBox="0 0 64 64" fill="none" xmlns="http://www.w3.org/2000/svg">
<g clip-path="url(#clip0_1290_65505)">
<g clip-path="url(#clip1_1290_65505)">
<path d="M23.8387 28.209C24.8728 26.6626 26.6085 24.1383 28.7448 21.3099L29.2753 20.6076C24.3221 14.5273 18.1779 8.34796 13.6605 8.34796C8.64435 8.34796 4.20135 12.2039 1.46631 18.1325C3.39654 15.7095 5.84379 14.261 8.50634 14.261C13.1364 14.261 20.0454 22.916 23.8387 28.209Z" fill="#99D7B9"/>
<path d="M40.1617 35.791C43.955 41.084 50.864 49.7393 55.4943 49.7393C58.1568 49.7393 60.604 48.2908 62.5343 45.8679C59.7992 51.7965 55.3563 55.6524 50.3401 55.6524C45.7898 55.6524 39.5889 49.3832 34.6175 43.2605L34.7251 43.3927L35.2554 42.6904C37.3919 39.8619 39.1277 37.3375 40.1617 35.791Z" fill="#99D7B9"/>
<path d="M32.0003 39.9147C26.7649 46.8461 19.0533 55.6523 13.6605 55.6523C8.64434 55.6523 4.20134 51.7964 1.46631 45.8678C3.39654 48.2907 5.8438 49.7392 8.50634 49.7392C14.7407 49.7392 25.1066 34.0472 26.435 32C27.0572 31.041 29.166 27.8379 32.0003 24.0855C37.2356 17.1541 44.9472 8.34796 50.34 8.34796C55.3562 8.34796 59.7992 12.2039 62.5342 18.1325C60.6039 15.7095 58.1568 14.261 55.4942 14.261C49.26 14.261 38.8939 29.9526 37.5654 32.0001C37.1572 32.6293 36.1083 34.2256 34.6342 36.3095C33.8624 37.4005 32.9742 38.6252 32.0003 39.9147Z" fill="#55BC8A"/>
<path d="M6.21873 31.9998C6.21873 26.8308 7.62566 22.1781 9.87058 18.9358C9.42876 18.7801 9.00345 18.6955 8.60077 18.6955C3.8507 18.6955 0 24.6521 0 31.9998C0 39.3476 3.85069 45.3042 8.60076 45.3042C9.00345 45.3042 9.42875 45.2196 9.87057 45.0638C7.62566 41.8216 6.21873 37.1689 6.21873 31.9998Z" fill="#324558"/>
<path d="M55.3993 45.3042C54.9948 45.3042 54.5675 45.2189 54.1235 45.0618C56.3675 41.8196 57.7739 37.1678 57.7739 31.9999C57.7739 26.8319 56.3675 22.1802 54.1235 18.938C54.5675 18.7809 54.9948 18.6955 55.3993 18.6955C60.1494 18.6955 64.0001 24.6521 64.0001 31.9999C64.0001 39.3477 60.1494 45.3042 55.3993 45.3042Z" fill="#324558"/>
</g>
</g>
<defs>
<clipPath id="clip0_1290_65505">
<rect width="64" height="64" fill="white"/>
</clipPath>
<clipPath id="clip1_1290_65505">
<rect width="64.0001" height="47.3044" fill="white" transform="translate(0 8.34784)"/>
</clipPath>
</defs>
</svg>
