<svg width="64" height="64" viewBox="0 0 64 64" fill="none" xmlns="http://www.w3.org/2000/svg">
<path fill-rule="evenodd" clip-rule="evenodd" d="M32.0002 58.6666C46.7278 58.6666 58.6668 46.7276 58.6668 32C58.6668 17.2724 46.7278 5.33331 32.0002 5.33331C17.2726 5.33331 5.3335 17.2724 5.3335 32C5.3335 46.7276 17.2726 58.6666 32.0002 58.6666ZM29.3335 18.6666H24.0002V26.6666H20.0002V32C20.0002 37.4395 24.0717 41.928 29.3335 42.5841V48H34.6668V42.5841C39.9286 41.928 44.0002 37.4395 44.0002 32V26.6666H40.0002V18.6666H34.6668V26.6666H29.3335V18.6666Z" fill="#C1C9D1"/>
<path d="M24 18.6667H29.3333V26.6667H34.6667V18.6667H40V26.6667H44V32C44 37.4395 39.9284 41.928 34.6667 42.5842V48H29.3333V42.5842C24.0716 41.928 20 37.4395 20 32V26.6667H24V18.6667Z" fill="#36435C"/>
</svg>
