<svg width="64" height="64" viewBox="0 0 64 64" fill="none" xmlns="http://www.w3.org/2000/svg">
<circle cx="32.0003" cy="32" r="27.2815" fill="#55BC8A"/>
<path d="M32.5093 4.72455C47.3415 4.99596 59.2817 17.1029 59.2817 31.9999C59.2817 46.897 47.3415 59.0029 32.5093 59.2744V4.72455Z" fill="white" fill-opacity="0.4"/>
<mask id="mask0_1290_65515" style="mask-type:alpha" maskUnits="userSpaceOnUse" x="4" y="4" width="56" height="56">
<circle cx="32.0003" cy="32" r="27.2815" fill="#55BC8A"/>
</mask>
<g mask="url(#mask0_1290_65515)">
<path d="M16.4007 21.9327L26.4681 32.0001L16.4007 42.0675V36.027H4.31982V27.9731H16.4007V21.9327Z" fill="white"/>
<path d="M48.6164 36.027V42.0675L38.549 32.0001L48.6164 21.9327V27.9731H60.6973V36.027H48.6164Z" fill="white"/>
<path d="M28.4818 14.7859H22.4414L32.5088 4.71846L42.5762 14.7859H36.5358V26.8668H28.4818V14.7859Z" fill="#324558"/>
<path d="M28.4818 49.2095H22.4414L32.5088 59.2769L42.5762 49.2095H36.5358V37.1286H28.4818V49.2095Z" fill="#324558"/>
<path d="M16.4007 21.8626L26.4681 31.93L16.4007 41.9974V35.957H4.31982V27.9031H16.4007V21.8626Z" fill="white"/>
<path d="M48.6164 35.957V41.9974L38.549 31.93L48.6164 21.8626V27.9031H60.6973V35.957H48.6164Z" fill="white"/>
</g>
</svg>
