<svg width="64" height="64" viewBox="0 0 64 64" fill="none" xmlns="http://www.w3.org/2000/svg">
<path d="M61.3004 28.2652C61.1952 27.1956 61.0199 25.9682 60.6692 24.6005C60.3185 23.2504 59.7925 21.76 59.021 20.2169C58.2495 18.6739 57.25 17.0783 55.9525 15.5178C55.444 14.9041 54.8829 14.3079 54.2867 13.7293C55.181 10.1698 53.1996 7.08379 53.1996 7.08379C49.7804 6.87337 47.6062 8.15337 46.7996 8.73201C46.6593 8.6794 46.5366 8.60927 46.3963 8.55666C45.8177 8.32872 45.2215 8.10077 44.5903 7.9079C43.9766 7.71502 43.3454 7.53968 42.6966 7.38187C42.0478 7.22406 41.3991 7.10132 40.7328 6.99611C40.61 6.97858 40.5048 6.96105 40.3821 6.94351C38.8917 2.1742 34.6133 0.175293 34.6133 0.175293C29.8265 3.20872 28.9322 7.452 28.9322 7.452C28.9322 7.452 28.9147 7.53968 28.8796 7.69748C28.6166 7.76762 28.3536 7.85529 28.0906 7.92543C27.7224 8.03063 27.3541 8.17091 27.0035 8.31118C26.6352 8.45146 26.2846 8.59173 25.9163 8.74954C25.1974 9.06516 24.4785 9.41584 23.7772 9.80159C23.0933 10.1873 22.427 10.6082 21.7783 11.0465C21.6906 11.0115 21.6029 10.9764 21.6029 10.9764C14.975 8.45146 9.10099 11.4849 9.10099 11.4849C8.55743 18.5336 11.7487 22.9698 12.3799 23.7764C12.2221 24.2147 12.0818 24.6531 11.9415 25.0915C11.4506 26.6871 11.0824 28.3178 10.8544 30.0186C10.8193 30.2641 10.7843 30.5095 10.7667 30.755C4.62976 33.7884 2.82373 39.978 2.82373 39.978C7.9262 45.852 13.8878 46.2202 13.8878 46.2202L13.9054 46.2027C14.6593 47.5528 15.5361 48.8328 16.518 50.0427C16.9388 50.5512 17.3596 51.0246 17.8155 51.498C15.9569 56.8284 18.0785 61.2471 18.0785 61.2471C23.7596 61.4575 27.4944 58.7572 28.2835 58.1435C28.8446 58.3364 29.4232 58.5117 30.0018 58.652C31.7552 59.1079 33.5437 59.3709 35.3322 59.441C35.7706 59.4586 36.2265 59.4761 36.6648 59.4586H36.8752H37.0155H37.2961L37.5766 59.441V59.4586C40.2593 63.281 44.9585 63.8246 44.9585 63.8246C48.3076 60.3002 48.5004 56.7934 48.5004 56.0394C48.5004 56.0394 48.5004 56.0219 48.5004 55.9868C48.5004 55.9167 48.5004 55.8816 48.5004 55.8816C48.5004 55.829 48.5004 55.7764 48.5004 55.7238C49.2018 55.2328 49.8681 54.7068 50.4993 54.1282C51.832 52.9183 53.0067 51.5331 53.9887 50.0427C54.0763 49.9024 54.164 49.7621 54.2517 49.6219C58.0391 49.8323 60.7218 47.2723 60.7218 47.2723C60.0906 43.3271 57.8462 41.3983 57.3728 41.0301C57.3728 41.0301 57.3552 41.0126 57.3202 40.995C57.2851 40.9775 57.2851 40.9599 57.2851 40.9599C57.2676 40.9424 57.2325 40.9249 57.1974 40.9073C57.215 40.6619 57.2325 40.4339 57.25 40.1884C57.2851 39.7676 57.2851 39.3293 57.2851 38.9084V38.5928V38.435V38.3473C57.2851 38.2421 57.2851 38.2772 57.2851 38.2421L57.2676 37.9791L57.25 37.6284C57.25 37.5057 57.2325 37.4005 57.215 37.2953C57.1974 37.1901 57.1974 37.0673 57.1799 36.9621L57.1448 36.629L57.0922 36.2958C57.0221 35.8575 56.952 35.4367 56.8467 34.9983C56.4435 33.2975 55.7772 31.6843 54.918 30.229C54.0413 28.7736 52.9541 27.4936 51.7092 26.4065C50.4818 25.3194 49.0966 24.4427 47.6588 23.7939C46.2035 23.1452 44.6955 22.7243 43.1876 22.5315C42.4336 22.4263 41.6796 22.3912 40.9257 22.4087H40.6451H40.575C40.5574 22.4087 40.4698 22.4087 40.4873 22.4087H40.3646L40.084 22.4263C39.9788 22.4263 39.8736 22.4438 39.7859 22.4438C39.4002 22.4789 39.0144 22.5315 38.6462 22.6016C37.1383 22.8821 35.718 23.4257 34.473 24.1797C33.2281 24.9336 32.141 25.863 31.2643 26.915C30.3876 27.9671 29.7037 29.1419 29.2303 30.3517C28.7569 31.5616 28.4939 32.8241 28.4237 34.0339C28.4062 34.332 28.4062 34.6476 28.4062 34.9457C28.4062 35.0158 28.4062 35.1035 28.4062 35.1736L28.4237 35.4191C28.4413 35.5594 28.4413 35.7172 28.4588 35.8575C28.5114 36.4712 28.6341 37.0673 28.792 37.6284C29.1251 38.7682 29.6511 39.8027 30.2999 40.6794C30.9487 41.5561 31.7377 42.275 32.5618 42.8536C33.3859 43.4147 34.2802 43.818 35.1569 44.081C36.0336 44.3441 36.9103 44.4493 37.7344 44.4493C37.8396 44.4493 37.9448 44.4493 38.0325 44.4493C38.0851 44.4493 38.1377 44.4493 38.1903 44.4493C38.2429 44.4493 38.2955 44.4493 38.3481 44.4317C38.4358 44.4317 38.5235 44.4142 38.6111 44.4142C38.6287 44.4142 38.6637 44.4142 38.6813 44.3967L38.7689 44.3791C38.8215 44.3791 38.8741 44.3616 38.9267 44.3616C39.0319 44.3441 39.1196 44.3265 39.2248 44.309C39.33 44.2915 39.4177 44.2739 39.5054 44.2389C39.6982 44.2038 39.8736 44.1336 40.0489 44.081C40.3996 43.9583 40.7503 43.818 41.0484 43.6602C41.364 43.5024 41.6446 43.3095 41.9251 43.1342C41.9952 43.0816 42.0829 43.029 42.153 42.9589C42.4336 42.7309 42.4862 42.3101 42.2583 42.0295C42.0654 41.7841 41.7147 41.7139 41.4341 41.8717C41.364 41.9068 41.2939 41.9419 41.2237 41.9769C40.9783 42.0997 40.7328 42.2049 40.4698 42.2925C40.2067 42.3802 39.9262 42.4504 39.6456 42.503C39.5054 42.5205 39.3651 42.538 39.2073 42.5556C39.1372 42.5556 39.067 42.5731 38.9793 42.5731C38.9092 42.5731 38.8215 42.5731 38.7689 42.5731C38.6988 42.5731 38.6287 42.5731 38.5585 42.5731C38.4709 42.5731 38.3832 42.5731 38.2955 42.5556C38.2955 42.5556 38.2429 42.5556 38.278 42.5556H38.2429H38.1903C38.1552 42.5556 38.1026 42.5556 38.0676 42.538C37.9799 42.5205 37.9098 42.5205 37.8221 42.503C37.1733 42.4153 36.5246 42.2224 35.9109 41.9419C35.2796 41.6613 34.6835 41.2756 34.1399 40.7846C33.5963 40.2936 33.1229 39.715 32.7547 39.0487C32.3865 38.3824 32.1235 37.646 32.0007 36.8745C31.9481 36.4887 31.913 36.0854 31.9306 35.6997C31.9306 35.5945 31.9481 35.4893 31.9481 35.3841C31.9481 35.4191 31.9481 35.3665 31.9481 35.3665V35.3315V35.2438C31.9481 35.1912 31.9656 35.1386 31.9656 35.086C31.9832 34.8756 32.0183 34.6652 32.0533 34.4547C32.3514 32.7715 33.193 31.1232 34.4906 29.8783C34.8237 29.5627 35.1744 29.2821 35.5426 29.0191C35.9109 28.7561 36.3141 28.5282 36.735 28.3353C37.1558 28.1424 37.5766 27.9846 38.0325 27.8619C38.4709 27.7391 38.9267 27.669 39.4002 27.6164C39.6281 27.5989 39.8561 27.5813 40.1015 27.5813C40.1717 27.5813 40.2067 27.5813 40.2593 27.5813H40.4522H40.575C40.6276 27.5813 40.575 27.5813 40.5925 27.5813H40.6451L40.838 27.5989C41.3465 27.6339 41.8374 27.7041 42.3284 27.8268C43.3103 28.0372 44.2747 28.4054 45.1689 28.8964C46.9574 29.8958 48.4829 31.4389 49.4122 33.2975C49.8857 34.2268 50.2188 35.2262 50.3766 36.2608C50.4117 36.5238 50.4467 36.7868 50.4643 37.0498L50.4818 37.2427L50.4993 37.4356C50.4993 37.5057 50.4993 37.5758 50.4993 37.6284C50.4993 37.6986 50.4993 37.7687 50.4993 37.8213V37.9967V38.1895C50.4993 38.3123 50.4818 38.5227 50.4818 38.6454C50.4643 38.926 50.4292 39.2241 50.3941 39.5046C50.3591 39.7852 50.3065 40.0657 50.2539 40.3463C50.2013 40.6268 50.1311 40.9073 50.061 41.1704C49.9207 41.7139 49.7454 42.2575 49.535 42.801C49.1141 43.8531 48.553 44.8701 47.8867 45.7994C46.5366 47.658 44.6955 49.166 42.5914 50.1304C41.5393 50.6038 40.4347 50.9545 39.295 51.1298C38.7339 51.235 38.1552 51.2876 37.5766 51.3052H37.4714H37.3837H37.1909H36.9103H36.77C36.8402 51.3052 36.7525 51.3052 36.7525 51.3052H36.6999C36.3843 51.3052 36.0862 51.2876 35.7706 51.2525C34.5432 51.1649 33.3333 50.9369 32.141 50.6038C30.9662 50.2706 29.8265 49.7972 28.7393 49.2361C26.5826 48.0788 24.6363 46.5008 23.1284 44.5895C22.3744 43.6427 21.7081 42.6082 21.1646 41.5386C20.621 40.469 20.1826 39.3293 19.867 38.1895C19.5514 37.0323 19.3585 35.8575 19.2709 34.6652L19.2533 34.4372V34.3846V34.332V34.2268V34.0339V33.9813V33.9112V33.7709V33.4904V33.4378C19.2533 33.4378 19.2533 33.4553 19.2533 33.4202V33.315C19.2533 33.1747 19.2533 33.0169 19.2533 32.8767C19.2709 32.298 19.3235 31.6843 19.3936 31.0882C19.4637 30.492 19.5689 29.8783 19.6917 29.2821C19.8144 28.686 19.9547 28.0898 20.13 27.4936C20.4632 26.3189 20.884 25.1791 21.375 24.1095C22.3744 21.9704 23.672 20.0591 25.2325 18.5336C25.6183 18.1479 26.0215 17.7972 26.4424 17.4465C26.8632 17.1134 27.3015 16.7978 27.7574 16.4997C28.1958 16.2016 28.6692 15.9386 29.1426 15.6931C29.3706 15.5704 29.6161 15.4476 29.8615 15.3424C29.9843 15.2898 30.107 15.2372 30.2298 15.1846C30.3525 15.132 30.4752 15.0794 30.598 15.0268C31.0889 14.8164 31.5974 14.641 32.1235 14.4832C32.2462 14.4482 32.3865 14.4131 32.5092 14.3605C32.632 14.3254 32.7722 14.2904 32.895 14.2553C33.158 14.1852 33.421 14.115 33.684 14.0624C33.8067 14.0273 33.947 14.0098 34.0873 13.9747C34.2276 13.9397 34.3503 13.9221 34.4906 13.8871C34.6309 13.8695 34.7536 13.8345 34.8939 13.8169L35.0867 13.7819L35.2972 13.7468C35.4374 13.7293 35.5602 13.7117 35.7004 13.6942C35.8583 13.6767 35.9985 13.6591 36.1563 13.6416C36.2791 13.6241 36.4895 13.6065 36.6122 13.589C36.6999 13.5715 36.8051 13.5715 36.8928 13.5539L37.0856 13.5364L37.1733 13.5189H37.2785C37.4363 13.5013 37.5766 13.5013 37.7344 13.4838L37.9624 13.4663C37.9624 13.4663 38.05 13.4663 37.9799 13.4663H38.0325H38.1377C38.2604 13.4663 38.4007 13.4487 38.5235 13.4487C39.032 13.4312 39.558 13.4312 40.0665 13.4487C41.0835 13.4838 42.0829 13.6065 43.0473 13.7819C44.9936 14.1501 46.8172 14.7638 48.4829 15.5879C50.1487 16.3945 51.6215 17.3939 52.9191 18.481C53.0067 18.5512 53.0769 18.6213 53.1646 18.6915C53.2347 18.7616 53.3224 18.8317 53.3925 18.9019C53.5503 19.0421 53.6906 19.1824 53.8484 19.3227C54.0062 19.463 54.1465 19.6032 54.2867 19.7435C54.427 19.8838 54.5673 20.0241 54.7076 20.1819C55.2511 20.7605 55.7596 21.3391 56.2155 21.9353C57.1273 23.1101 57.8637 24.3024 58.4424 25.4246C58.4774 25.4947 58.5125 25.5649 58.5476 25.635C58.5826 25.7052 58.6177 25.7753 58.6528 25.8454C58.7229 25.9857 58.793 26.126 58.8456 26.2663C58.9158 26.4065 58.9684 26.5293 59.0385 26.6695C59.0911 26.8098 59.1613 26.9326 59.2139 27.0728C59.4243 27.5989 59.6347 28.1073 59.7925 28.5808C60.0555 29.3523 60.2484 30.0361 60.4062 30.6323C60.4588 30.8778 60.6867 31.0356 60.9322 31.0005C61.1952 30.983 61.3881 30.7726 61.3881 30.5095C61.4057 29.8783 61.3881 29.1243 61.3004 28.2652Z" fill="url(#paint0_linear_866_22095)"/>
<defs>
<linearGradient id="paint0_linear_866_22095" x1="32.1059" y1="19.1999" x2="32.1059" y2="63.3599" gradientUnits="userSpaceOnUse">
<stop stop-color="#F05A28"/>
<stop offset="1" stop-color="#FBCA0A"/>
</linearGradient>
</defs>
</svg>
