<svg width="64" height="64" viewBox="0 0 64 64" fill="none" xmlns="http://www.w3.org/2000/svg">
<path d="M53.5635 35.625C56.6111 36.6409 58.667 39.4935 58.667 42.7061V50.8662C54.1972 51.753 49.1207 52.2539 43.7393 52.2539C39.5998 52.2539 35.6411 51.9574 32 51.417C33.0923 51.2549 34.156 51.0708 35.1875 50.8662V42.7061C35.1875 40.2252 33.9619 37.9592 32 36.5879C32.5787 36.1834 33.2219 35.8564 33.916 35.625L40.0078 33.5947H47.4717L53.5635 35.625ZM43.7393 11.7461C47.8183 11.7461 51.1249 15.0528 51.125 19.1318C51.125 19.4028 51.1108 19.674 51.0811 19.9434L50.6035 24.2568C50.2168 27.7563 47.26 30.4053 43.7393 30.4053C40.2186 30.4052 37.2617 27.7562 36.875 24.2568L36.3984 19.9434C35.9504 15.8889 38.8743 12.239 42.9287 11.791C43.1979 11.7613 43.4685 11.7461 43.7393 11.7461Z" fill="#C1C9D1"/>
<path fill-rule="evenodd" clip-rule="evenodd" d="M27.6475 19.132C27.6475 15.0529 24.3407 11.7461 20.2616 11.7461C19.9905 11.7461 19.7197 11.761 19.4504 11.7908C15.3959 12.2388 12.4723 15.8887 12.9203 19.9432L13.397 24.257C13.7837 27.7564 16.7408 30.4048 20.2616 30.4048C23.7823 30.4048 26.7394 27.7564 27.1261 24.257L27.6028 19.9432C27.6325 19.6738 27.6475 19.403 27.6475 19.132ZM5.33333 42.7061V50.8662C9.80315 51.7529 14.8791 52.2539 20.2606 52.2539C25.6421 52.2539 30.718 51.7529 35.1878 50.8662V42.7061C35.1878 39.4935 33.1321 36.6414 30.0844 35.6255L23.9924 33.5948H16.5288L10.4368 35.6255C7.38904 36.6414 5.33333 39.4935 5.33333 42.7061Z" fill="#36435C"/>
</svg>
