<svg width="64" height="64" viewBox="0 0 64 64" fill="none" xmlns="http://www.w3.org/2000/svg">
<g clip-path="url(#clip0_866_21759)">
<path d="M27.2322 23.936V20.32C27.5708 20.2933 27.9148 20.2746 28.2668 20.264C37.8562 19.952 44.1522 28.7546 44.1522 28.7546C44.1522 28.7546 37.3575 38.48 30.0668 38.48C29.1025 38.4844 28.1442 38.3266 27.2322 38.0133V27.056C30.9655 27.52 31.7148 29.2213 33.9602 33.0773L38.9548 28.7386C37.7764 27.2594 36.2913 26.0532 34.6017 25.2034C32.9121 24.3535 31.0583 23.8802 29.1682 23.816C28.5185 23.8191 27.8695 23.8583 27.2242 23.9333M27.2242 11.9973V17.3973C27.5708 17.3706 27.9148 17.3466 28.2588 17.3333C41.5975 16.8693 50.2882 28.6026 50.2882 28.6026C50.2882 28.6026 40.3068 41.1093 29.9068 41.1093C29.0055 41.1093 28.1068 41.0267 27.2215 40.864V44.1973C27.9628 44.2986 28.7095 44.3493 29.4562 44.3493C39.1335 44.3493 46.1308 39.256 52.9068 33.232C54.0295 34.1573 58.6295 36.4133 59.5762 37.4026C53.1335 42.9573 38.1148 47.4373 29.6028 47.4373C28.7815 47.4373 27.9948 47.384 27.2188 47.3093V52H64.0002V12H27.2268L27.2242 11.9973ZM27.2242 38.0133V40.8613C18.2748 39.2186 15.7922 29.6346 15.7922 29.6346C18.8369 26.4803 22.8727 24.4675 27.2242 23.9333V27.0586H27.2108C25.934 27.0465 24.671 27.3227 23.5157 27.8666C22.3605 28.4105 21.3429 29.2081 20.5388 30.2C20.5388 30.2 22.1788 36.2666 27.2242 38.0133ZM11.3282 29.216C15.1575 24.056 20.9388 20.8213 27.2242 20.32V17.3946C15.4935 18.3653 5.3335 28.5946 5.3335 28.5946C5.3335 28.5946 11.0882 45.7333 27.2268 47.3013V44.192C15.3868 42.6666 11.3335 29.2213 11.3335 29.2213H11.3282V29.216Z" fill="#74B71B"/>
</g>
<defs>
<clipPath id="clip0_866_21759">
<rect width="64" height="64" fill="white"/>
</clipPath>
</defs>
</svg>
