<svg width="64" height="64" viewBox="0 0 64 64" fill="none" xmlns="http://www.w3.org/2000/svg">
<g clip-path="url(#clip0_1290_65494)">
<path d="M36.5239 7.45258C38.3208 9.24947 40.4598 10.6484 42.7681 11.7114C51.6559 15.8036 57.8256 24.7939 57.8257 35.2241C57.8257 36.0172 57.7897 36.8014 57.7183 37.5756C57.485 40.1011 57.6175 42.6476 58.2739 45.0971L59.9614 51.3989L53.686 53.0795C51.2312 53.7375 48.9499 54.8892 46.8765 56.3578C42.6582 59.3452 37.5082 61.103 31.9468 61.103C26.3853 61.1029 21.2353 59.3453 17.0171 56.3578C14.943 54.8893 12.6625 53.7375 10.2085 53.0795L3.93311 51.3989L5.62158 45.0981C6.2788 42.6478 6.40974 40.1011 6.17725 37.5756C6.1066 36.8015 6.06982 36.0172 6.06982 35.2241C6.06989 24.794 12.2397 15.8036 21.1274 11.7114C23.4356 10.6484 25.5747 9.24944 27.3716 7.45258L31.9478 2.8764L36.5239 7.45258ZM31.9497 15.8149C30.3078 15.8149 28.7064 16.0169 27.186 16.4135C18.7838 18.5402 12.5407 26.166 12.5405 35.2231C12.5405 37.0534 12.8005 38.8235 13.2769 40.5034C13.3642 40.8231 13.4674 41.1398 13.5737 41.4565C13.6064 41.553 13.6382 41.6498 13.6724 41.7455C13.7566 41.9832 13.8499 42.2194 13.9448 42.4555C14.036 42.6812 14.1314 42.9053 14.231 43.1264C14.3137 43.3124 14.3963 43.4986 14.4858 43.683C14.5747 43.8661 14.67 44.0458 14.7642 44.225C14.8318 44.3549 14.8998 44.4844 14.9712 44.6127C15.0829 44.8133 15.1964 45.0134 15.3149 45.2094C15.3559 45.2777 15.3982 45.345 15.4399 45.4125C16.0681 46.4266 16.7854 47.3813 17.5845 48.2602C17.589 48.264 17.5934 48.2693 17.5972 48.2739C21.1499 52.1767 26.2695 54.6313 31.9487 54.6313C37.628 54.6313 42.7476 52.1775 46.3003 48.2739C46.3041 48.2693 46.3082 48.2648 46.312 48.2602C47.1113 47.3812 47.8292 46.4275 48.4575 45.4125C48.4993 45.3449 48.5415 45.2778 48.5825 45.2094C48.701 45.0134 48.8146 44.8133 48.9263 44.6127C48.9969 44.4844 49.0657 44.3549 49.1333 44.225C49.2275 44.0451 49.3228 43.866 49.4116 43.683C49.5004 43.4993 49.583 43.3124 49.6665 43.1264C49.766 42.9053 49.8615 42.6812 49.9526 42.4555C50.0475 42.2201 50.1408 41.9832 50.2251 41.7455C50.2593 41.6498 50.2911 41.553 50.3237 41.4565C50.43 41.1398 50.5325 40.8231 50.6206 40.5034C51.0962 38.8235 51.3564 37.0534 51.3579 35.2231C51.3577 26.1659 45.1147 18.5401 36.7124 16.4135C35.1922 16.0169 33.5915 15.8149 31.9497 15.8149Z" fill="#E75225"/>
<g clip-path="url(#clip1_1290_65494)">
<path d="M42.1818 44.3269C37.0973 49.9737 28.3979 50.4297 22.7511 45.3452C17.1043 40.2608 16.6484 31.5614 21.7328 25.9146C26.8172 20.2678 35.5166 19.8119 41.1634 24.8963C46.8103 29.9807 47.2662 38.6801 42.1818 44.3269ZM26.4361 30.1494C23.6905 33.1987 23.9367 37.8964 26.986 40.642C30.0352 43.3876 34.7329 43.1414 37.4785 40.0921C40.2241 37.0428 39.9779 32.3451 36.9286 29.5995C33.8793 26.854 29.1817 27.1002 26.4361 30.1494Z" fill="#E75225"/>
<path opacity="0.4" d="M45.6472 36.492C45.3105 39.8534 43.7488 42.9735 41.2597 45.2577C38.7707 47.5419 35.5282 48.8304 32.1503 48.8778L32.0615 42.5496C33.8856 42.524 35.6365 41.8282 36.9806 40.5947C38.3247 39.3613 39.168 37.6764 39.3498 35.8612L45.6472 36.492Z" fill="white"/>
<path opacity="0.6" d="M32.1508 48.8778C28.6758 48.9267 25.3111 47.6587 22.7326 45.3285C20.1541 42.9984 18.553 39.7788 18.251 36.3166L24.5559 35.7665C24.719 37.6361 25.5836 39.3747 26.9759 40.633C28.3683 41.8912 30.1853 42.576 32.0618 42.5496L32.1508 48.8778Z" fill="white"/>
</g>
</g>
<defs>
<clipPath id="clip0_1290_65494">
<rect width="62.5618" height="58.2472" fill="white" transform="translate(0.666504 2.8764)"/>
</clipPath>
<clipPath id="clip1_1290_65494">
<rect width="27.9874" height="27.9874" fill="white" transform="translate(30.9121 15.3469) rotate(42)"/>
</clipPath>
</defs>
</svg>
