<svg xmlns="http://www.w3.org/2000/svg" width="32" height="32" viewBox="0 0 32 32"><g fill="none" fill-rule="evenodd"><circle cx="16" cy="16" r="16" fill="#56BC8A"/><path fill="#FFF" fill-rule="nonzero" d="M10 17.134c0 .125.1.226.224.226h6.463l-1.103 2.83c-.037.095-.007.203.073.264.08.062.192.061.271-.001l5.485-4.273c.055-.043.087-.11.087-.18 0-.07-.032-.137-.087-.18l-5.485-4.273c-.04-.031-.088-.047-.136-.047-.047 0-.095.015-.135.046-.08.061-.11.17-.073.264l1.103 2.83h-6.463c-.124 0-.224.101-.224.226v2.268z"/></g></svg>