<svg xmlns="http://www.w3.org/2000/svg" width="373" height="107" viewBox="0 0 373 107"><g fill="#F7B500" fill-rule="evenodd" opacity=".7"><path d="M26.725 79.433c4.39.917 18.842-11.905 43.357-38.467 24.515-26.563 49.45-24.66 74.806 5.707 49.953 60.832 91.276 62.18 123.972 4.044 49.042-87.204 84.18-40.4 95.195-17.356 11.015 23.043 53.608 150.871 128.055 40.512C541.742.299 579.178 8.578 604.42 98.707l-67.348 87.587L0 197.555 26.725 79.433z" opacity=".102" transform="translate(-45)"/><path d="M27.058 69.825c20.744 34.73 44.728 43.413 71.95 26.047 40.833-26.047 33.364-32.224 67.568-32.224s49.898-41.375 88.541-42.577c38.644-1.202 43.1 12.945 71.797 37.588 28.697 24.644 80.505 20.295 114.414-3.67 33.91-23.965 74.324-12.479 90.684 3.67 10.907 10.767 24.791 9.543 41.653-3.67l-45.247 115.885L0 176.205l27.058-106.38z" opacity=".102" transform="translate(-45)"/></g></svg>