<svg xmlns="http://www.w3.org/2000/svg" width="16" height="16" viewBox="0 0 16 16"><g fill="none" fill-rule="evenodd"><path d="M0 0H16V16H0z"/><g fill-rule="nonzero"><path fill="#3E464C" d="M9.344 13.977v-3.886h1.273l.194-1.542H9.344v-.986c0-.252.052-.436.149-.562.102-.126.29-.19.582-.19h.787v-1.38c-.268-.04-.65-.064-1.141-.064-.576 0-1.038.178-1.386.533-.348.356-.52.86-.52 1.508v1.135H6.537v1.542H7.81V14C5.1 13.662 3 11.34 3 8.526 3 5.476 5.459 3 8.5 3S14 5.47 14 8.526c0 2.763-2.02 5.044-4.656 5.451zM9.05 14h-.1.1z"/></g></g></svg>