<svg xmlns="http://www.w3.org/2000/svg" width="16" height="16" viewBox="0 0 16 16"><g fill="none"><path fill="#56BC8A" d="M13.531 2.468c.304.303.46.679.469 1.127v7.103c-.008.448-.165.822-.469 1.12-.304.3-.681.458-1.131.475h-8l-1.838 1.595c-.083.075-.173.112-.269.112-.096 0-.169-.037-.218-.112-.034-.042-.054-.083-.062-.125-.008-.042-.013-.083-.013-.125V3.595c.008-.448.165-.824.469-1.127.304-.304.681-.46 1.131-.468h8.8c.45.008.827.164 1.131.468zm-2.256 3.788c.158-.137.237-.308.237-.512 0-.203-.067-.372-.2-.505s-.304-.203-.513-.211H5.275c-.2.008-.368.08-.507.211-.137.133-.206.301-.206.505 0 .203.068.374.206.512.139.137.307.205.507.205h5.45c.208 0 .391-.069.55-.205zm0 2.634c.158-.133.237-.303.237-.51 0-.209-.067-.38-.2-.512-.133-.133-.304-.203-.513-.212H5.275c-.2.009-.368.08-.507.212-.137.133-.206.303-.206.511 0 .208.068.378.206.511.138.134.307.204.507.212h5.45c.208-.007.391-.078.55-.212z"/></g></svg>