<svg xmlns="http://www.w3.org/2000/svg" width="40" height="40" viewBox="0 0 40 40"><g fill="none" fill-rule="evenodd"><path d="M0 0H40V40H0z"/><path fill="#00A971" fill-rule="nonzero" d="M26.653 30.97v6.37l-5.527-3.185 5.527-3.184zm-5.948-3.933l5.526 3.185-5.526 3.184v-6.369zm-.89 0v6.37l-5.526-3.185 5.526-3.185zm7.727-3.98l5.527 3.184-5.527 3.231v-6.416zm-.89 0v6.415l-5.526-3.231 5.527-3.185zm-12.785 0l5.527 3.184-5.527 3.231v-6.416zm-.89 0v6.415l-5.526-3.231 5.527-3.185zm20.513-3.935v6.37l-5.526-3.185 5.526-3.185zm-26.46 0l5.526 3.185-5.526 3.185v-6.37zm20.512-3.934l5.527 3.185-5.527 3.185v-6.37zm-14.564 0v6.37L7.45 18.373l5.527-3.185zm-5.948-3.98l5.526 3.231-5.526 3.185v-6.416zm26.46 0v6.416l-5.526-3.185 5.526-3.231zM12.978 7.274v6.369L7.45 10.458l5.527-3.184zm14.564 0l5.527 3.184-5.527 3.185v-6.37zm-.89 0v6.369l-5.526-3.185 5.527-3.184zm-12.785 0l5.527 3.184-5.527 3.185v-6.37zm5.948-3.934v6.37L14.29 6.524l5.526-3.185zm.89 0l5.526 3.185-5.526 3.184V3.34z"/></g></svg>