<svg xmlns="http://www.w3.org/2000/svg" width="186" height="114" viewBox="0 0 186 114"><g fill="none" fill-rule="evenodd"><rect width="186" height="114" fill="#FFF" rx="11"/><g><g fill="#00A971"><path d="M29.054 27.686L36.867 32.163 29.054 36.642zM29.674 26.627L37.481 22.148 37.481 31.1zM29.054 16.609L36.867 21.09 29.054 25.569zM.7 10.016L8.511 5.537 8.511 14.491zM.083 11.074L7.896 15.552.083 20.028zM.083 22.148L7.896 26.627.083 31.104zM29.054 5.536L36.869 10.016 29.054 14.494zM29.674 15.552L37.481 11.077 37.481 20.027zM20.018 10.014L27.826 5.537 27.826 14.49zM20.018 32.156L27.826 27.685 27.826 36.632zM10.359 4.48L18.167 8.956 18.167 0zM19.398 0L19.398 8.957 27.211 4.48zM19.398 33.22L27.211 37.697 19.398 42.177zM20.018 43.235L27.826 38.758 27.826 47.712zM9.741 27.686L17.552 32.163 9.741 36.642zM9.741 5.532L17.552 10.011 9.741 14.49zM.7 21.09L8.511 16.614 8.511 25.567zM.7 32.163L8.511 27.689 8.511 36.639zM10.359 37.701L18.168 33.223 18.168 42.177z" transform="translate(57 18) translate(16.8)"/></g><g fill="#3D3E49"><path d="M1.802 9.03c0 .623 1.18 1.474 1.746 1.474.6 0 1.783-.851 1.783-1.473V3.242c0-.622-1.167-1.473-1.783-1.473-.566 0-1.746.851-1.746 1.473v5.789zm5.328.233c0 .814-1.056 1.81-1.983 2.289.802.392 1.237.622 1.62.872.289.176.381.337.274.638-.073.23-.438.746-.71.746-.22 0-.347-.072-.673-.303-.546-.336-1.71-1.046-3.038-1.58C1.455 11.462 0 10.237 0 9.262V3.01C0 1.786 2.33.135 3.548.135c1.256 0 3.582 1.65 3.582 2.876v6.252zM11.02 11.588c0 .214-.164.393-.4.393h-1c-.218 0-.4-.18-.4-.393V.686c0-.214.182-.392.4-.392h1c.236 0 .4.178.4.392v10.902zM15.059 4.129v7.46c0 .23-.184.392-.436.392h-.912c-.219 0-.415-.162-.415-.393V.686c0-.214.196-.392.415-.392h.764c.292 0 .418.142.565.392l3.675 7.528V.686c0-.232.162-.392.4-.392h.926c.237 0 .418.16.418.392v10.902c0 .23-.18.393-.418.393h-.745c-.273 0-.457-.198-.565-.393L15.06 4.13zM26.444 5.675c0-.214.2-.391.416-.391h2.22c.238 0 .58.338.58.55v3.429c0 1.19-2.29 2.876-3.545 2.876-1.218 0-3.565-1.687-3.565-2.876V3.01c0-1.225 2.365-2.876 3.565-2.876.782 0 1.947.585 2.8 1.1.221.125.291.374.183.587l-.31.585c-.108.196-.4.267-.634.143-.657-.337-1.547-.78-2.039-.78-.546 0-1.763.85-1.763 1.473V9.03c0 .605 1.198 1.474 1.763 1.474.545 0 1.747-.889 1.747-1.474V6.829H26.86c-.217 0-.416-.178-.416-.39v-.764zM33.117 9.03c0 .642 1.253 1.493 1.745 1.493.51 0 1.255-.39 1.911-.747.254-.123.564-.052.672.179l.293.586c.108.23.035.48-.164.585-.84.497-1.856 1.013-2.712 1.013-1.183 0-3.546-1.58-3.546-2.876V3.01c0-1.26 2.347-2.876 3.565-2.876.764 0 1.82.515 2.673.995.219.105.292.39.165.603l-.274.569c-.108.213-.399.282-.636.158-.654-.32-1.418-.71-1.928-.71-.511 0-1.764.852-1.764 1.492v5.789zM39.263 11.25V.686c0-.214.2-.392.419-.392h.946c.234 0 .434.178.434.392v9.748h3.422c.235 0 .416.177.416.39v.764c0 .214-.18.393-.416.393H39.97c-.254 0-.708-.5-.708-.73M47.465 9.03c0 .623 1.183 1.474 1.745 1.474.602 0 1.785-.851 1.785-1.473V3.242c0-.622-1.164-1.473-1.785-1.473-.562 0-1.745.851-1.745 1.473v5.789zm5.328.233c0 1.223-2.328 2.876-3.583 2.876-1.218 0-3.547-1.635-3.547-2.876V3.01c0-1.225 2.329-2.876 3.547-2.876 1.255 0 3.583 1.65 3.583 2.876v6.252zM58.34 12.139c-1.202 0-3.545-1.58-3.545-2.86V.685c0-.213.196-.39.414-.39h.968c.235 0 .415.177.415.39V9.05c0 .622 1.184 1.474 1.748 1.474.564 0 1.747-.852 1.747-1.474V.685c0-.213.163-.39.381-.39h1c.218 0 .418.177.418.39V9.28c0 1.244-2.347 2.86-3.546 2.86M69.25 3.295c0-.587-1.09-1.473-1.745-1.473H65.87v8.63h1.673c.635 0 1.707-.904 1.707-1.473V3.295zm1.801 5.93c0 1.067-2.036 2.756-3.272 2.756H64.94c-.51 0-.872-.303-.872-.66V.987c0-.373.4-.692.872-.692h2.8c1.275 0 3.311 1.562 3.311 2.753v6.179z" transform="translate(57 18) translate(0 56)"/></g></g></g></svg>