<svg xmlns="http://www.w3.org/2000/svg" width="16" height="16" viewBox="0 0 16 16"><g fill="none"><path fill="#56BC8A" d="M12.002 9.997c-.76 0-1.413.43-1.75 1.057L5.82 8.804c.11-.25.174-.523.174-.813 0-.308-.075-.596-.199-.857l4.627-1.91c.365.47.93.779 1.571.779 1.104 0 1.998-.896 1.998-2.002 0-1.105-.894-2.001-1.998-2.001-1.103 0-1.997.896-1.997 2.001 0 .104.015.204.03.304l-4.91 2.027c-.32-.216-.705-.343-1.12-.343C2.895 5.99 2 6.886 2 7.991c0 1.105.894 2.001 1.998 2.001.443 0 .848-.149 1.18-.393l4.832 2.454c.03 1.08.908 1.947 1.992 1.947C13.106 14 14 13.104 14 11.999c0-1.106-.894-2.002-1.998-2.002z"/></g></svg>