<?xml version="1.0" encoding="UTF-8"?>
<svg width="262px" height="253px" viewBox="0 0 262 253" version="1.1" xmlns="http://www.w3.org/2000/svg" xmlns:xlink="http://www.w3.org/1999/xlink">
    <!-- Generator: sketchtool 63.1 (101010) - https://sketch.com -->
    <title>90AB11CD-4D58-4361-98F1-AB31C4914358</title>
    <desc>Created with sketchtool.</desc>
    <defs>
        <linearGradient x1="71.3598293%" y1="24.3672644%" x2="-3.16748091%" y2="135.896638%" id="linearGradient-1">
            <stop stop-color="#ECAF24" offset="0%"></stop>
            <stop stop-color="#FFF8CB" offset="100%"></stop>
        </linearGradient>
        <path d="M1262,5434.17543 L1342.36568,5480.57457 C1345.76909,5482.53953 1347.86568,5486.17093 1347.86568,5490.10085 L1347.86568,5582.89915 C1347.86568,5586.82907 1345.76909,5590.46047 1342.36568,5592.42543 L1262,5638.82457 C1258.59659,5640.78953 1254.40341,5640.78953 1251,5638.82457 L1170.63432,5592.42543 C1167.23091,5590.46047 1165.13432,5586.82907 1165.13432,5582.89915 L1165.13432,5490.10085 C1165.13432,5486.17093 1167.23091,5482.53953 1170.63432,5480.57457 L1251,5434.17543 C1254.40341,5432.21047 1258.59659,5432.21047 1262,5434.17543 Z" id="path-2"></path>
        <filter x="-18.4%" y="-16.7%" width="136.8%" height="148.6%" filterUnits="objectBoundingBox" id="filter-3">
            <feOffset dx="0" dy="16" in="SourceAlpha" result="shadowOffsetOuter1"></feOffset>
            <feGaussianBlur stdDeviation="15" in="shadowOffsetOuter1" result="shadowBlurOuter1"></feGaussianBlur>
            <feColorMatrix values="0 0 0 0 0.384313725   0 0 0 0 0.807843137   0 0 0 0 0.552941176  0 0 0 0.1 0" type="matrix" in="shadowBlurOuter1"></feColorMatrix>
        </filter>
    </defs>
    <g id="页面1" stroke="none" stroke-width="1" fill="none" fill-rule="evenodd" opacity="0.12">
        <g id="homepage" transform="translate(-1119.000000, -5425.000000)">
            <g id="多边形备份-3" transform="translate(1256.500000, 5536.500000) rotate(21.000000) translate(-1256.500000, -5536.500000) ">
                <use fill="black" fill-opacity="1" filter="url(#filter-3)" xlink:href="#path-2"></use>
                <use fill="url(#linearGradient-1)" fill-rule="evenodd" xlink:href="#path-2"></use>
            </g>
        </g>
    </g>
</svg>