<svg width="504" height="366" viewBox="0 0 504 366" fill="none" xmlns="http://www.w3.org/2000/svg">
<path d="M23.6504 0H201.029C214.104 0 224.679 9.55998 224.679 21.3815V284.538C224.679 296.359 214.104 305.919 201.029 305.919H23.6504C10.5745 305.919 0 296.359 0 284.538V21.3815C0 9.55998 10.5745 0 23.6504 0Z" fill="white" fill-opacity="0.43"/>
<path fill-rule="evenodd" clip-rule="evenodd" d="M18.1558 285.525V19.1454H27.5798H36.0956H46.5415H55.9656H65.3897H74.8137H84.2378H93.6619H104.108H111.715H122.161H130.677H141.123H149.639H159.063H167.578H178.024H187.448H195.964H205.388V285.525H18.1558Z" fill="white"/>
<path d="M53.8479 112.937L48.8882 112.937V114.797L53.8479 114.797V112.937Z" fill="#324558"/>
<path d="M53.8479 117.277L48.8882 117.277V119.137L53.8479 119.137V117.277Z" fill="#324558"/>
<path d="M48.8882 121.617L53.8479 121.617V123.476L48.8882 123.476V121.617Z" fill="#324558"/>
<path fill-rule="evenodd" clip-rule="evenodd" d="M62.5274 113.557C59.7882 113.557 57.5677 115.778 57.5677 118.517V129.676L68.727 129.676V127.196L67.4871 127.196V118.517C67.4871 115.778 65.2665 113.557 62.5274 113.557ZM62.5274 120.377C63.5545 120.377 64.3872 119.544 64.3872 118.517C64.3872 117.49 63.5545 116.657 62.5274 116.657C61.5002 116.657 60.6675 117.49 60.6675 118.517C60.6675 119.544 61.5002 120.377 62.5274 120.377Z" fill="#324558"/>
<path fill-rule="evenodd" clip-rule="evenodd" d="M49.5081 104.878C49.1657 104.878 48.8882 105.155 48.8882 105.498V107.358L46.4083 107.358C45.7235 107.358 45.1684 107.913 45.1684 108.597V127.196L43.9285 127.196V129.676L57.5676 129.676V108.597C57.5676 107.913 57.0125 107.358 56.3277 107.358L53.8479 107.358V105.498C53.8479 105.155 53.5703 104.878 53.2279 104.878L49.5081 104.878ZM48.8882 112.937L53.8479 112.937V114.797L48.8882 114.797V112.937ZM48.8882 117.277L53.8479 117.277V119.137L48.8882 119.137V117.277ZM48.8882 121.617L53.8479 121.617V123.477L48.8882 123.477V121.617Z" fill="#B6C2CD"/>
<path d="M196.094 23.4491L204.254 19.7723V285.525H19.2913V19.7723L27.4514 23.4491L27.9047 23.6534L28.3581 23.4491L36.4049 19.3637L46.3785 23.4491L46.7184 23.5512L47.0584 23.347L56.1252 19.2616L65.192 23.347L65.6455 23.5512L66.0987 23.347L75.1655 19.2616L84.2323 23.347L84.6856 23.5512L85.1391 23.347L94.2059 19.2616L104.179 23.347L104.633 23.5512L105.086 23.347L112.226 19.3637L122.2 23.4491L122.653 23.6534L123.106 23.4491L131.153 19.3637L141.127 23.4491L141.58 23.6534L142.033 23.4491L150.08 19.3637L159.034 23.4491L159.487 23.6534L159.94 23.4491L167.987 19.3637L177.96 23.4491L178.3 23.6534L178.64 23.4491L187.594 19.3637L195.641 23.4491L196.094 23.6534V23.4491Z" stroke="white" stroke-opacity="0.3" stroke-width="1.70832"/>
<path d="M35.4043 92.0024H188.254" stroke="#DBE1E8" stroke-width="0.888325" stroke-linecap="square" stroke-dasharray="2.67 2.67"/>
<path d="M35.4043 146.388H188.254" stroke="#DBE1E8" stroke-width="0.888325" stroke-linecap="square" stroke-dasharray="2.67 2.67"/>
<path d="M75.0062 47.1343H148.651C150.467 47.1343 151.942 48.6072 151.942 50.4201C151.942 52.2329 150.467 53.7059 148.651 53.7059H75.0062C73.1906 53.7059 71.7156 52.2329 71.7156 50.4201C71.7156 48.6072 73.1906 47.1343 75.0062 47.1343Z" fill="#191E29"/>
<path d="M135.601 123.274H176.225C178.041 123.274 179.516 124.747 179.516 126.56C179.516 128.373 178.041 129.846 176.225 129.846H135.601C133.786 129.846 132.311 128.373 132.311 126.56C132.311 124.747 133.786 123.274 135.601 123.274Z" fill="#CDD5E2"/>
<path d="M82.0412 123.274H122.665C124.481 123.274 125.956 124.747 125.956 126.56C125.956 128.373 124.481 129.846 122.665 129.846H82.0412C80.2257 129.846 78.7505 128.373 78.7505 126.56C78.7505 124.747 80.2257 123.274 82.0412 123.274Z" fill="#CDD5E2"/>
<path d="M54.1275 164.97H111.092C112.907 164.97 114.382 166.443 114.382 168.256C114.382 170.069 112.907 171.542 111.092 171.542H54.1275C52.3119 171.542 50.8367 170.069 50.8367 168.256C50.8367 166.443 52.3119 164.97 54.1275 164.97Z" fill="#CDD5E2"/>
<path d="M54.1275 196.695H111.092C112.907 196.695 114.382 198.168 114.382 199.981C114.382 201.793 112.907 203.266 111.092 203.266H54.1275C52.3119 203.266 50.8367 201.793 50.8367 199.981C50.8367 198.168 52.3119 196.695 54.1275 196.695Z" fill="#CDD5E2"/>
<path d="M54.1275 180.379H111.092C112.907 180.379 114.382 181.852 114.382 183.665C114.382 185.478 112.907 186.951 111.092 186.951H54.1275C52.3119 186.951 50.8367 185.478 50.8367 183.665C50.8367 181.852 52.3119 180.379 54.1275 180.379Z" fill="#CDD5E2"/>
<path d="M38.6949 164.97H42.0992C43.9147 164.97 45.39 166.443 45.39 168.256C45.39 170.069 43.9147 171.542 42.0992 171.542H38.6949C36.8793 171.542 35.4043 170.069 35.4043 168.256C35.4043 166.443 36.8793 164.97 38.6949 164.97Z" fill="#CDD5E2"/>
<path d="M81.5886 106.052H146.723C148.538 106.052 150.014 107.525 150.014 109.338C150.014 111.151 148.538 112.624 146.723 112.624H81.5886C79.773 112.624 78.2979 111.151 78.2979 109.338C78.2979 107.525 79.773 106.052 81.5886 106.052Z" fill="#CDD5E2"/>
<path d="M78.6379 67.0757H143.772C145.588 67.0757 147.063 68.5486 147.063 70.3615C147.063 72.1743 145.588 73.6473 143.772 73.6473H78.6379C76.8223 73.6473 75.3472 72.1743 75.3472 70.3615C75.3472 68.5486 76.8223 67.0757 78.6379 67.0757Z" fill="#CDD5E2"/>
<path d="M166.694 164.97H184.623C186.439 164.97 187.914 166.443 187.914 168.256C187.914 170.069 186.439 171.542 184.623 171.542H166.694C164.878 171.542 163.403 170.069 163.403 168.256C163.403 166.443 164.878 164.97 166.694 164.97Z" fill="#CDD5E2"/>
<path d="M38.6949 196.695H42.0992C43.9147 196.695 45.39 198.168 45.39 199.981C45.39 201.793 43.9147 203.266 42.0992 203.266H38.6949C36.8793 203.266 35.4043 201.793 35.4043 199.981C35.4043 198.168 36.8793 196.695 38.6949 196.695Z" fill="#CDD5E2"/>
<path d="M38.6949 252.893H64.794C66.6096 252.893 68.0849 254.366 68.0849 256.179C68.0849 257.992 66.6096 259.465 64.794 259.465H38.6949C36.8793 259.465 35.4043 257.992 35.4043 256.179C35.4043 254.366 36.8793 252.893 38.6949 252.893Z" fill="#CDD5E2"/>
<path d="M166.694 196.695H184.623C186.439 196.695 187.914 198.168 187.914 199.981C187.914 201.793 186.439 203.266 184.623 203.266H166.694C164.878 203.266 163.403 201.793 163.403 199.981C163.403 198.168 164.878 196.695 166.694 196.695Z" fill="#CDD5E2"/>
<path d="M163.061 252.893H184.622C186.437 252.893 187.912 254.366 187.912 256.179C187.912 257.992 186.437 259.465 184.622 259.465H163.061C161.246 259.465 159.771 257.992 159.771 256.179C159.771 254.366 161.246 252.893 163.061 252.893Z" fill="#CDD5E2"/>
<path d="M38.6949 180.379H42.0992C43.9147 180.379 45.39 181.852 45.39 183.665C45.39 185.478 43.9147 186.951 42.0992 186.951H38.6949C36.8793 186.951 35.4043 185.478 35.4043 183.665C35.4043 181.852 36.8793 180.379 38.6949 180.379Z" fill="#CDD5E2"/>
<path d="M38.6949 236.578H82.9499C84.7655 236.578 86.2407 238.051 86.2407 239.863C86.2407 241.676 84.7655 243.149 82.9499 243.149H38.6949C36.8793 243.149 35.4043 241.676 35.4043 239.863C35.4043 238.051 36.8793 236.578 38.6949 236.578Z" fill="#CDD5E2"/>
<path d="M166.694 180.379H184.623C186.439 180.379 187.914 181.852 187.914 183.665C187.914 185.478 186.439 186.951 184.623 186.951H166.694C164.878 186.951 163.403 185.478 163.403 183.665C163.403 181.852 164.878 180.379 166.694 180.379Z" fill="#CDD5E2"/>
<path d="M163.061 236.578H184.622C186.437 236.578 187.912 238.051 187.912 239.863C187.912 241.676 186.437 243.149 184.622 243.149H163.061C161.246 243.149 159.771 241.676 159.771 239.863C159.771 238.051 161.246 236.578 163.061 236.578Z" fill="#CDD5E2"/>
<path fill-rule="evenodd" clip-rule="evenodd" d="M213.331 32.8581C213.331 44.7549 203.686 54.3857 191.771 54.3857C179.856 54.3857 170.211 44.7549 170.211 32.8581C170.211 20.9612 179.856 11.3304 191.771 11.3304C203.686 11.3304 213.331 20.9612 213.331 32.8581Z" fill="#69C292"/>
<path fill-rule="evenodd" clip-rule="evenodd" d="M203.8 23.0006C203.119 22.4341 202.098 22.4341 201.417 23.0006L187.573 34.5575L182.013 30.9318C181.445 30.4786 180.538 30.4786 179.857 30.9318C178.949 31.4983 178.722 32.7447 179.289 33.5378L184.509 41.469C185.644 43.1686 188.027 43.7351 189.842 42.4888C190.183 42.2622 190.41 42.0355 190.637 41.8089L204.027 25.7198C204.708 24.9267 204.708 23.6804 203.8 23.0006Z" fill="white"/>
<path d="M271.024 0H448.402C461.478 0 472.052 9.55998 472.052 21.3815V284.538C472.052 296.359 461.478 305.919 448.402 305.919H271.024C257.948 305.919 247.373 296.359 247.373 284.538V21.3815C247.373 9.55998 257.948 0 271.024 0Z" fill="white" fill-opacity="0.43"/>
<path fill-rule="evenodd" clip-rule="evenodd" d="M265.529 285.525V19.1454H274.953H283.469H293.915H303.339H312.763H322.187H331.611H341.035H351.481H359.088H369.534H378.05H388.496H397.012H406.436H414.952H425.398H434.822H443.337H452.761V285.525H265.529Z" fill="white"/>
<path d="M301.479 112.937L296.519 112.937V114.797L301.479 114.797V112.937Z" fill="#55BC8A"/>
<path d="M301.479 117.277L296.519 117.277V119.137L301.479 119.137V117.277Z" fill="#55BC8A"/>
<path d="M296.519 121.616L301.479 121.616V123.476L296.519 123.476V121.616Z" fill="#55BC8A"/>
<path fill-rule="evenodd" clip-rule="evenodd" d="M310.158 113.557C307.419 113.557 305.199 115.778 305.199 118.517V129.676L316.358 129.676V127.196L315.118 127.196V118.517C315.118 115.778 312.898 113.557 310.158 113.557ZM310.158 120.377C311.186 120.377 312.018 119.544 312.018 118.517C312.018 117.489 311.186 116.657 310.158 116.657C309.131 116.657 308.298 117.489 308.298 118.517C308.298 119.544 309.131 120.377 310.158 120.377Z" fill="#55BC8A"/>
<path fill-rule="evenodd" clip-rule="evenodd" d="M297.139 104.878C296.797 104.878 296.519 105.155 296.519 105.498V107.357L294.039 107.357C293.355 107.357 292.799 107.913 292.799 108.597V127.196L291.559 127.196V129.676L305.199 129.676V108.597C305.199 107.913 304.643 107.357 303.959 107.357L301.479 107.357V105.498C301.479 105.155 301.201 104.878 300.859 104.878L297.139 104.878ZM296.519 112.937L301.479 112.937V114.797L296.519 114.797V112.937ZM296.519 117.277L301.479 117.277V119.137L296.519 119.137V117.277ZM296.519 121.617L301.479 121.617V123.476L296.519 123.476V121.617Z" fill="#A2D8BB"/>
<path d="M443.467 23.3485L451.628 19.6703V285.525H266.665V19.6703L274.825 23.3485L275.278 23.5529L275.731 23.3485L283.778 19.2616L293.752 23.3485L294.092 23.5529L294.432 23.3485L303.498 19.2616L312.565 23.3485L313.019 23.5529L313.472 23.3485L322.539 19.2616L331.606 23.3485L332.059 23.5529L332.512 23.3485L341.579 19.2616L351.553 23.3485L352.006 23.5529L352.459 23.3485L359.599 19.3638L369.573 23.4507L370.026 23.655L370.48 23.4507L378.526 19.3638L388.5 23.4507L388.953 23.655L389.407 23.4507L397.453 19.3638L406.407 23.4507L406.86 23.655L407.313 23.4507L415.36 19.3638L425.334 23.4507L425.674 23.655L426.014 23.4507L434.967 19.3638L443.014 23.4507L443.467 23.655V23.3485Z" stroke="white" stroke-opacity="0.3" stroke-width="1.70832"/>
<path d="M282.779 92.0024H435.628" stroke="#DBE1E8" stroke-width="0.888325" stroke-linecap="square" stroke-dasharray="2.67 2.67"/>
<path d="M282.779 146.388H435.628" stroke="#DBE1E8" stroke-width="0.888325" stroke-linecap="square" stroke-dasharray="2.67 2.67"/>
<path d="M322.38 47.1343H396.024C397.84 47.1343 399.315 48.6072 399.315 50.4201C399.315 52.2329 397.84 53.7059 396.024 53.7059H322.38C320.564 53.7059 319.089 52.2329 319.089 50.4201C319.089 48.6072 320.564 47.1343 322.38 47.1343Z" fill="#191E29"/>
<path d="M382.975 123.274H423.598C425.414 123.274 426.889 124.747 426.889 126.56C426.889 128.373 425.414 129.846 423.598 129.846H382.975C381.159 129.846 379.684 128.373 379.684 126.56C379.684 124.747 381.159 123.274 382.975 123.274Z" fill="#C1EDD6"/>
<path d="M329.416 123.274H370.039C371.855 123.274 373.33 124.747 373.33 126.56C373.33 128.373 371.855 129.846 370.039 129.846H329.416C327.6 129.846 326.125 128.373 326.125 126.56C326.125 124.747 327.6 123.274 329.416 123.274Z" fill="#C1EDD6"/>
<path d="M301.501 164.97H358.465C360.28 164.97 361.756 166.443 361.756 168.256C361.756 170.069 360.28 171.542 358.465 171.542H301.501C299.685 171.542 298.21 170.069 298.21 168.256C298.21 166.443 299.685 164.97 301.501 164.97Z" fill="#CDD5E2"/>
<path d="M301.501 196.695H358.465C360.28 196.695 361.756 198.168 361.756 199.981C361.756 201.793 360.28 203.266 358.465 203.266H301.501C299.685 203.266 298.21 201.793 298.21 199.981C298.21 198.168 299.685 196.695 301.501 196.695Z" fill="#CDD5E2"/>
<path d="M301.501 180.379H358.465C360.28 180.379 361.756 181.852 361.756 183.665C361.756 185.478 360.28 186.951 358.465 186.951H301.501C299.685 186.951 298.21 185.478 298.21 183.665C298.21 181.852 299.685 180.379 301.501 180.379Z" fill="#CDD5E2"/>
<path d="M286.069 164.97H289.474C291.289 164.97 292.764 166.443 292.764 168.256C292.764 170.069 291.289 171.542 289.474 171.542H286.069C284.254 171.542 282.779 170.069 282.779 168.256C282.779 166.443 284.254 164.97 286.069 164.97Z" fill="#CDD5E2"/>
<path d="M328.962 106.052H394.096C395.912 106.052 397.387 107.525 397.387 109.338C397.387 111.151 395.912 112.624 394.096 112.624H328.962C327.146 112.624 325.671 111.151 325.671 109.338C325.671 107.525 327.146 106.052 328.962 106.052Z" fill="#C1EDD6"/>
<path d="M326.012 67.0757H391.147C392.962 67.0757 394.437 68.5486 394.437 70.3615C394.437 72.1743 392.962 73.6473 391.147 73.6473H326.012C324.197 73.6473 322.722 72.1743 322.722 70.3615C322.722 68.5486 324.197 67.0757 326.012 67.0757Z" fill="#CDD5E2"/>
<path d="M414.067 164.97H431.996C433.812 164.97 435.287 166.443 435.287 168.256C435.287 170.069 433.812 171.542 431.996 171.542H414.067C412.252 171.542 410.777 170.069 410.777 168.256C410.777 166.443 412.252 164.97 414.067 164.97Z" fill="#CDD5E2"/>
<path d="M286.069 196.695H289.474C291.289 196.695 292.764 198.168 292.764 199.981C292.764 201.793 291.289 203.266 289.474 203.266H286.069C284.254 203.266 282.779 201.793 282.779 199.981C282.779 198.168 284.254 196.695 286.069 196.695Z" fill="#CDD5E2"/>
<path d="M286.069 252.893H312.169C313.984 252.893 315.459 254.366 315.459 256.179C315.459 257.992 313.984 259.465 312.169 259.465H286.069C284.254 259.465 282.779 257.992 282.779 256.179C282.779 254.366 284.254 252.893 286.069 252.893Z" fill="#CDD5E2"/>
<path d="M414.067 196.695H431.996C433.812 196.695 435.287 198.168 435.287 199.981C435.287 201.793 433.812 203.266 431.996 203.266H414.067C412.252 203.266 410.777 201.793 410.777 199.981C410.777 198.168 412.252 196.695 414.067 196.695Z" fill="#CDD5E2"/>
<path d="M410.437 252.893H431.997C433.813 252.893 435.288 254.366 435.288 256.179C435.288 257.992 433.813 259.465 431.997 259.465H410.437C408.621 259.465 407.146 257.992 407.146 256.179C407.146 254.366 408.621 252.893 410.437 252.893Z" fill="#CDD5E2"/>
<path d="M286.069 180.379H289.474C291.289 180.379 292.764 181.852 292.764 183.665C292.764 185.478 291.289 186.951 289.474 186.951H286.069C284.254 186.951 282.779 185.478 282.779 183.665C282.779 181.852 284.254 180.379 286.069 180.379Z" fill="#CDD5E2"/>
<path d="M286.069 236.578H330.324C332.14 236.578 333.615 238.051 333.615 239.863C333.615 241.676 332.14 243.149 330.324 243.149H286.069C284.254 243.149 282.779 241.676 282.779 239.863C282.779 238.051 284.254 236.578 286.069 236.578Z" fill="#CDD5E2"/>
<path d="M414.067 180.379H431.996C433.812 180.379 435.287 181.852 435.287 183.665C435.287 185.478 433.812 186.951 431.996 186.951H414.067C412.252 186.951 410.777 185.478 410.777 183.665C410.777 181.852 412.252 180.379 414.067 180.379Z" fill="#CDD5E2"/>
<path d="M410.437 236.578H431.997C433.813 236.578 435.288 238.051 435.288 239.863C435.288 241.676 433.813 243.149 431.997 243.149H410.437C408.621 243.149 407.146 241.676 407.146 239.863C407.146 238.051 408.621 236.578 410.437 236.578Z" fill="#CDD5E2"/>
<path fill-rule="evenodd" clip-rule="evenodd" d="M460.704 32.8581C460.704 44.7549 451.059 54.3857 439.144 54.3857C427.23 54.3857 417.584 44.7549 417.584 32.8581C417.584 20.9612 427.23 11.3304 439.144 11.3304C451.059 11.3304 460.704 20.9612 460.704 32.8581Z" fill="#69C292"/>
<path fill-rule="evenodd" clip-rule="evenodd" d="M451.173 23.0006C450.492 22.4341 449.471 22.4341 448.79 23.0006L434.946 34.5575L429.386 30.9318C428.819 30.4786 427.911 30.4786 427.23 30.9318C426.322 31.4983 426.095 32.7447 426.663 33.5378L431.882 41.469C433.017 43.1686 435.4 43.7351 437.102 42.4888C437.443 42.2622 437.67 42.0355 437.897 41.8089L451.287 25.7198C452.081 24.9267 452.081 23.6804 451.173 23.0006Z" fill="white"/>
<mask id="mask0_1406_12194" style="mask-type:alpha" maskUnits="userSpaceOnUse" x="312" y="101" width="172" height="186">
<path d="M312.727 101.973H460.658L483.967 286.548H312.727V101.973Z" fill="#C4C4C4"/>
</mask>
<g mask="url(#mask0_1406_12194)">
<path fill-rule="evenodd" clip-rule="evenodd" d="M466.35 173.058C465.625 170.822 453.63 167.797 456.464 167.599C456.002 168.915 455.409 170.23 454.487 171.546L454.157 172.203C443.612 172.072 420.346 173.979 415.864 171.546C404.244 164.194 392.982 156.292 382.118 147.867C383.305 148.525 399.716 191.672 428.387 190.817C431.155 193.448 433.791 195.29 433.791 195.29L438.405 193.448C430.298 206.866 428.518 215.548 426.673 222.914C424.959 226.598 426.146 227.124 426.541 227.19V231.399C423.596 269.95 431.061 308.584 448.159 343.279C449.214 345.449 453.63 344.923 453.893 342.161C453.893 342.161 453.432 323.481 453.234 310.327C453.234 309.011 452.971 307.696 452.575 306.38C449.873 297.435 445.918 294.738 447.237 289.74C448.687 285.53 449.873 281.518 450.862 277.835C459.066 298.421 469.102 318.232 480.85 337.03C482.366 339.267 488.1 338.74 486.914 334.728C484.146 325.388 481.707 310.063 480.982 302.039C480.85 301.053 480.718 300.132 480.389 299.211C477.489 290.003 471.952 290.2 472.677 283.886C474.523 266.785 472.216 245.08 470.568 240.476C471.79 237.62 472.483 234.567 472.612 231.465L472.743 229.952C474.062 228.439 472.743 226.532 472.216 224.361C476.368 220.678 480.257 216.469 483.75 211.799C485.859 204.564 484.343 197.329 481.114 190.291C482.827 184.371 482.959 175.295 470.7 173.716L466.416 173.058H466.35Z" fill="#001B69" fill-opacity="0.1"/>
</g>
<path fill-rule="evenodd" clip-rule="evenodd" d="M501.604 353.748L501.487 353.513L500.603 352.808C498.955 352.22 497.247 351.691 495.598 351.221L495.422 351.162C493.655 350.575 491.83 350.163 490.063 349.693L489.592 349.517C485.058 348.871 480.465 348.342 475.814 347.931L470.809 347.696L465.332 347.46H456.912L454.91 347.578L452.084 347.872L451.495 347.931L447.667 348.459H447.55L441.956 349.341L439.718 349.752L439.129 349.811L435.114 349.517C433.289 349.341 431.651 350.163 429.767 350.105H428.53C427.176 350.222 425.468 350.457 424.173 350.692C419.109 351.633 418.402 351.809 413.162 352.984H413.103L412.102 353.572L411.749 354.042L411.631 354.571C411.749 355.158 411.749 355.158 411.984 355.57L412.926 356.275H412.985C418.108 357.979 418.756 358.214 423.702 359.624L425.998 360.212L426.116 360.329H426.293C429.566 361.3 432.864 362.182 436.185 362.974H436.362C439.188 363.62 442.074 364.208 445.018 364.736H445.135L449.022 365.324L449.316 365.383L452.555 365.735H452.849C454.321 365.912 455.793 365.97 457.265 365.97H463.448L469.69 365.677H469.925L474.93 365.324H475.048L477.286 365.03C481.408 364.56 485.412 363.737 489.533 362.974H489.651L500.662 360.094C501.016 359.918 501.428 359.8 501.722 359.565C502.311 359.095 502.9 358.39 503.077 357.509C503.194 357.039 503.194 356.333 503.194 356.333C503.135 355.922 503.077 355.452 502.9 355.158C502.547 354.277 502.193 354.101 501.722 353.748H501.604Z" fill="url(#paint0_linear_1406_12194)"/>
<path fill-rule="evenodd" clip-rule="evenodd" d="M461.54 357.025C462.273 357.56 462.806 358.324 463.055 359.196C463.267 359.764 463.379 360.365 463.385 360.971C463.385 361.826 462.924 362.616 462.199 363.076C461.408 363.471 460.551 363.734 459.43 363.734C457.453 363.734 456.53 363.405 455.476 362.682C455.212 362.484 454.949 362.484 454.751 362.55C454.179 362.703 453.608 362.856 453.037 363.01C449.808 363.273 446.446 363.01 444.799 361.695C444.535 361.498 444.469 361.3 444.469 361.037V360.971C444.469 360.577 444.733 360.182 445.128 360.116C446.974 359.59 452.576 358.143 453.037 357.946H453.103L457.717 356.302H458.244L461.54 356.959V357.025ZM489.617 349.33L489.683 349.132C487.562 347.55 485.062 346.552 482.433 346.238C482.433 346.238 482.235 346.238 482.103 346.37C481.979 346.4 481.863 346.455 481.761 346.532C481.66 346.609 481.576 346.706 481.514 346.818C481.452 346.929 481.414 347.052 481.402 347.178C481.39 347.305 481.404 347.433 481.444 347.554C481.978 349.337 483.006 350.933 484.41 352.158L484.871 352.618L486.717 355.315C488.035 357.091 489.485 357.157 490.671 357.025C491.159 356.996 491.634 356.864 492.066 356.637C492.498 356.41 492.876 356.094 493.176 355.71C493.391 355.469 493.554 355.188 493.656 354.883C493.758 354.577 493.796 354.254 493.769 353.934C493.769 353.276 493.637 352.618 493.44 351.961C493.176 351.171 492.78 350.514 492.253 349.987L491.924 349.856L489.617 349.33Z" fill="#313647"/>
<path fill-rule="evenodd" clip-rule="evenodd" d="M457.256 354.197C457.134 353.761 457.191 353.294 457.413 352.9C457.636 352.505 458.006 352.215 458.443 352.092C458.879 351.971 459.347 352.027 459.742 352.249C460.138 352.471 460.429 352.84 460.552 353.276L461.606 357.486C461.708 357.912 461.642 358.362 461.421 358.742C461.201 359.121 460.842 359.402 460.42 359.525C459.983 359.646 459.515 359.589 459.12 359.368C458.725 359.146 458.434 358.776 458.311 358.341L457.256 354.197Z" fill="#FFC1B1"/>
<path fill-rule="evenodd" clip-rule="evenodd" d="M487.573 347.356C487.503 347.136 487.478 346.904 487.5 346.674C487.522 346.444 487.59 346.221 487.701 346.018C487.812 345.815 487.963 345.637 488.145 345.494C488.327 345.351 488.536 345.246 488.759 345.186C489.196 345.064 489.664 345.121 490.059 345.343C490.454 345.565 490.745 345.934 490.868 346.37L492.121 350.513C492.242 350.95 492.186 351.416 491.963 351.811C491.741 352.205 491.371 352.495 490.934 352.618C490.497 352.74 490.03 352.683 489.635 352.461C489.239 352.239 488.948 351.87 488.825 351.434L487.573 347.356ZM481.509 171.743C487.639 183.45 492.055 195.224 489.155 207.26C481.564 219.147 471.657 229.391 460.023 237.384L466.482 204.563L481.509 171.743Z" fill="#FF9898"/>
<path fill-rule="evenodd" clip-rule="evenodd" d="M450.269 246.132C454.223 275.993 473.007 321.574 486.519 347.159C487.837 349.79 493.241 349.132 492.121 344.66C489.55 334.334 487.309 317.364 486.584 308.287C486.519 306.972 486.321 305.657 485.925 304.473C483.157 294.672 478.28 294.804 478.939 287.832C480.916 266.127 477.819 237.713 476.369 238.437" fill="#171C34"/>
<path fill-rule="evenodd" clip-rule="evenodd" d="M436.297 229.228C433.502 271.872 440.326 314.599 456.267 354.263C457.256 356.696 461.342 356.104 461.54 352.947L460.947 317.693C460.947 315.983 460.683 314.273 460.288 312.628C457.651 302.828 454.158 299.803 455.41 294.344C462.792 268.692 462.594 251.46 463.385 247.184C469.647 246.066 477.754 247.513 478.874 229.163C479.006 227.387 479.401 225.085 477.49 224.032C467.604 218.442 437.549 216.666 436.297 223.44" fill="#242E42"/>
<path fill-rule="evenodd" clip-rule="evenodd" d="M465.033 220.217C452.642 218.31 437.153 218.705 436.296 223.046V226.203C446.446 221.862 466.483 224.23 479.005 229.097L478.874 228.044C478.61 226.532 479.401 224.493 477.489 223.506C475.314 222.454 472.085 221.533 468.46 220.809L465.033 220.152V220.217Z" fill="#1E1E5F"/>
<path fill-rule="evenodd" clip-rule="evenodd" d="M464.704 151.09C464.704 151.09 465.033 157.075 462.067 162.272C459.365 167.27 474.59 167.928 474.59 167.928C474.59 167.928 471.295 160.693 472.02 154.642C472.745 148.525 464.77 151.09 464.77 151.09H464.704Z" fill="#FFC1B1"/>
<path fill-rule="evenodd" clip-rule="evenodd" d="M458.575 161.285C460.957 159.924 463.617 159.116 466.356 158.922C469.094 158.729 471.842 159.154 474.393 160.167C475.711 160.759 476.7 161.943 476.897 163.455C477.425 166.152 478.084 170.69 478.084 170.69L457.586 169.704L458.575 161.285Z" fill="url(#paint1_linear_1406_12194)"/>
<path fill-rule="evenodd" clip-rule="evenodd" d="M457.388 134.515C457.388 134.515 451.324 144.184 455.213 151.879C458.706 158.917 463.451 158.128 465.956 157.602C468.527 157.01 473.008 154.51 474.722 145.828C477.424 132.279 461.276 126.754 457.454 134.515H457.388Z" fill="#FFC1B1"/>
<path fill-rule="evenodd" clip-rule="evenodd" d="M463.846 157.931C464.307 157.931 464.307 155.3 464.242 153.524C464.226 153.446 464.188 153.374 464.131 153.318C464.075 153.262 464.002 153.225 463.924 153.211C463.846 153.197 463.765 153.206 463.692 153.239C463.619 153.271 463.558 153.325 463.517 153.392C462.923 154.445 461.935 156.023 460.221 157.273C461.473 157.865 462.726 157.931 463.846 157.931ZM382.646 144.447C381.526 144.71 388.116 144.25 388.116 144.25L379.68 138.33L378.23 136.094C378.18 136.004 378.109 135.927 378.023 135.869C377.937 135.811 377.839 135.774 377.736 135.762C377.634 135.749 377.529 135.76 377.432 135.795C377.334 135.83 377.247 135.887 377.176 135.962C376.714 136.357 376.516 137.081 376.714 137.673C377.241 138.988 377.966 140.303 378.823 141.224C378.823 141.224 380.866 143.658 382.646 144.513V144.447Z" fill="#FF9898"/>
<path fill-rule="evenodd" clip-rule="evenodd" d="M480.784 133.923C479.268 129.911 475.973 128.267 472.875 127.938C469.777 127.609 463.516 127.346 461.275 125.11C459.034 122.939 457.123 117.217 452.838 118.927C447.5 121.032 450.334 129.056 452.048 132.082C453.827 135.042 457.32 137.475 459.1 138.133C460.945 138.791 463.977 138.001 463.977 138.001C463.977 138.001 463.977 140.895 465.163 142.079C467.141 141.093 467.866 143 467.866 143C468.327 144.25 467.009 148.985 464.307 147.144C464.307 147.144 464.373 153.063 468.261 154.379C472.216 155.694 473.534 155.234 474.391 153.721C475.182 152.34 473.204 149.051 474.654 146.42C475.973 143.789 483.289 140.501 480.784 133.923Z" fill="#171C34"/>
<path fill-rule="evenodd" clip-rule="evenodd" d="M388.777 144.842C388.249 144.184 385.679 142.408 382.186 140.895C379.22 139.58 375.331 138.725 373.881 138.133L367.949 135.765C367.776 135.696 367.591 135.662 367.405 135.664C367.218 135.666 367.034 135.705 366.863 135.778C366.691 135.852 366.536 135.958 366.406 136.091C366.276 136.224 366.173 136.382 366.104 136.554C366.035 136.727 366 136.912 366.002 137.098C366.005 137.284 366.044 137.468 366.117 137.639C366.19 137.81 366.297 137.965 366.43 138.094C366.564 138.224 366.722 138.327 366.895 138.396L372.365 141.356L376.32 142.869C376.517 145.499 376.979 148.13 378.429 149.906C380.933 153.195 385.02 152.866 386.206 153.655C387.327 154.445 412.438 185.884 439.461 183.779C466.549 181.543 461.474 166.349 461.474 166.349C461.474 166.349 442.163 165.955 427.663 170.23C422.654 166.086 421.006 166.021 418.436 165.1C407.956 161.153 404.595 160.496 400.508 157.865C392.467 152.537 390.622 150.695 390.622 150.695C390.622 150.695 390.292 146.749 388.777 144.842Z" fill="#FFC1B1"/>
<mask id="mask1_1406_12194" style="mask-type:alpha" maskUnits="userSpaceOnUse" x="366" y="135" width="96" height="49">
<path d="M388.84 144.842C388.247 144.184 385.677 142.342 382.25 140.895C379.218 139.58 375.395 138.725 373.879 138.067L367.947 135.765C367.774 135.696 367.589 135.662 367.403 135.664C367.216 135.666 367.032 135.705 366.861 135.778C366.689 135.852 366.534 135.958 366.404 136.091C366.274 136.224 366.171 136.382 366.102 136.554C366.033 136.727 365.998 136.912 366 137.098C366.003 137.284 366.042 137.468 366.115 137.639C366.188 137.81 366.295 137.965 366.428 138.094C366.562 138.224 366.72 138.327 366.893 138.396L372.363 141.29L376.318 142.737C376.515 145.368 376.977 147.999 378.427 149.84C380.931 153.063 385.018 152.8 386.204 153.589C387.325 154.379 412.436 185.818 439.525 183.648C466.547 181.543 461.472 166.415 461.472 166.415C461.472 166.415 442.227 165.955 427.727 170.23C422.718 166.021 421.07 166.021 418.5 165.034C408.086 161.088 404.659 160.496 400.572 157.799C392.531 152.537 390.752 150.695 390.752 150.695C390.752 150.695 390.356 146.749 388.84 144.842Z" fill="white"/>
</mask>
<g mask="url(#mask1_1406_12194)">
<path d="M429.305 168.768C427.328 169.557 424.23 171.793 423.703 173.043" stroke="white" stroke-opacity="0.3" stroke-width="2.1354" stroke-linecap="round"/>
</g>
<path fill-rule="evenodd" clip-rule="evenodd" d="M453.433 180.622C453.103 178.846 452.51 177.136 451.653 175.558C449.215 171.217 436.758 164.574 436.033 169.77C435.769 171.94 437.351 176.084 435.901 177.334C433.792 179.175 417.71 175.229 413.492 172.861C396.356 163.324 386.074 153.59 386.206 153.655C387.326 154.445 412.438 185.884 439.46 183.779C444.271 183.53 449 182.439 453.433 180.556V180.622Z" fill="#FF9898"/>
<path fill-rule="evenodd" clip-rule="evenodd" d="M485.663 169.638L493.506 186.673C491.66 195.684 485.728 199.499 478.149 201.012L485.663 169.638Z" fill="#4F4EA5"/>
<path fill-rule="evenodd" clip-rule="evenodd" d="M432.935 168.389C427.596 175.755 442.953 188.778 442.953 188.778L447.237 186.805C439.724 201.801 438.142 211.47 436.428 219.757C434.451 224.69 436.428 224.559 436.428 224.559C436.428 224.559 439.46 221.138 451.653 221.467C462.99 221.862 474.524 224.098 478.808 227.782C480.653 225.677 478.346 222.914 478.346 219.757C478.281 209.431 479.928 196.342 484.74 188.844C486.058 186.673 493.308 167.139 477.094 164.64C463.385 162.009 446.776 162.14 432.935 168.389Z" fill="#4A499A"/>
<mask id="mask2_1406_12194" style="mask-type:alpha" maskUnits="userSpaceOnUse" x="431" y="163" width="57" height="65">
<path d="M432.934 168.389C427.661 175.755 443.018 188.778 443.018 188.778L447.236 186.805C439.789 201.801 438.141 211.47 436.427 219.691C434.516 224.69 436.427 224.493 436.427 224.493C436.427 224.493 439.525 221.073 451.718 221.467C463.054 221.796 474.523 224.032 478.807 227.716C480.718 225.677 478.411 222.849 478.345 219.691C478.345 209.365 479.927 196.276 484.739 188.778C486.123 186.608 493.307 167.139 477.093 164.64C463.384 162.009 446.775 162.14 432.934 168.389Z" fill="white"/>
</mask>
<g mask="url(#mask2_1406_12194)">
<path fill-rule="evenodd" clip-rule="evenodd" d="M477.552 164.837C478.936 170.625 479.332 176.216 476.761 181.017C474.125 183.977 466.348 207.523 472.807 223.506C474.916 228.834 471.884 237.384 479.2 238.239C480.848 238.437 483.023 238.437 484.341 237.187C492.646 229.557 484.209 211.075 486.186 200.815C487.175 195.75 495.809 166.81 477.552 164.837Z" fill="url(#paint2_linear_1406_12194)"/>
</g>
<path d="M440.317 228.307C438.604 274.217 446.051 313.155 457.849 354.394M461.079 274.151C467.948 298.893 477.174 322.921 488.629 345.909" stroke="white" stroke-opacity="0.12" stroke-width="2.1354" stroke-linecap="round"/>
<path d="M465.495 143C467.34 142.671 467.274 145.039 465.56 146.289" stroke="#FF9898" stroke-width="4.27079" stroke-linecap="round"/>
<path d="M463.583 138.199C461.381 138.97 458.999 139.076 456.736 138.502C454.473 137.929 452.43 136.702 450.863 134.976M463.583 138.199C457.322 139.119 452.247 136.489 449.018 128.859L463.583 138.199Z" stroke="#171C34" stroke-width="4.27079" stroke-linecap="round"/>
<defs>
<linearGradient id="paint0_linear_1406_12194" x1="503.211" y1="356.831" x2="414.733" y2="351.408" gradientUnits="userSpaceOnUse">
<stop stop-color="#C8E0FF" stop-opacity="0.29"/>
<stop offset="1" stop-color="#C8E0FF" stop-opacity="0"/>
</linearGradient>
<linearGradient id="paint1_linear_1406_12194" x1="478.924" y1="164.04" x2="472.901" y2="171.911" gradientUnits="userSpaceOnUse">
<stop offset="0.0979909" stop-color="#6463B9"/>
<stop offset="1" stop-color="#3F3E94"/>
</linearGradient>
<linearGradient id="paint2_linear_1406_12194" x1="498.585" y1="170.416" x2="485.832" y2="228.339" gradientUnits="userSpaceOnUse">
<stop offset="0.0979909" stop-color="#4A499A"/>
<stop offset="1" stop-color="#39387E"/>
</linearGradient>
</defs>
</svg>
