<svg width="64" height="64" viewBox="0 0 64 64" fill="none" xmlns="http://www.w3.org/2000/svg">
<path d="M30.6769 6.08939C31.4967 5.62092 32.5031 5.62092 33.323 6.08939L57.974 20.1757C58.8698 20.6876 58.8698 21.9792 57.974 22.491L33.323 36.5773C32.5031 37.0458 31.4967 37.0458 30.6769 36.5773L6.02582 22.491C5.13007 21.9792 5.13007 20.6876 6.02582 20.1757L30.6769 6.08939Z" fill="#55BC8A"/>
<path d="M22.6669 32L6.02606 41.509C5.13031 42.0209 5.13031 43.3125 6.02606 43.8244L30.6771 57.9107C31.4969 58.3791 32.5034 58.3791 33.3232 57.9107L57.9743 43.8244C58.87 43.3125 58.87 42.0209 57.9743 41.509L41.3335 32L33.3232 36.5773C32.5034 37.0458 31.4969 37.0458 30.6771 36.5773L22.6669 32Z" fill="#A2D8BB"/>
</svg>
