<svg width="333" height="255" viewBox="0 0 333 255" fill="none" xmlns="http://www.w3.org/2000/svg">
<path d="M16.6837 0H141.812C151.036 0 158.495 6.6612 158.495 14.8982V198.26C158.495 206.497 151.036 213.158 141.812 213.158H16.6837C7.45955 213.158 0 206.497 0 198.26V14.8982C0 6.6612 7.45955 0 16.6837 0Z" fill="white" fill-opacity="0.43"/>
<path fill-rule="evenodd" clip-rule="evenodd" d="M12.8079 198.948V13.3403H19.4559H25.4631H32.832H39.4801H46.1281H52.7761H59.4241H66.0722H73.441H78.8075H86.1764H92.1837H99.5526H105.56H112.208H118.215H125.584H132.232H138.239H144.887V198.948H12.8079Z" fill="white"/>
<path d="M37.9858 78.707L34.4871 78.7173V80.0095L37.9858 79.9992V78.707Z" fill="#324558"/>
<path d="M37.9858 81.7221L34.4871 81.7323V83.0245L37.9858 83.0142V81.7221Z" fill="#324558"/>
<path d="M34.4871 84.7474L37.9858 84.7371V86.0293L34.4871 86.0396V84.7474Z" fill="#324558"/>
<path fill-rule="evenodd" clip-rule="evenodd" d="M44.1086 79.1197C42.1763 79.1254 40.6098 80.6727 40.6098 82.5758V90.3288L48.482 90.3056V88.5828L47.6073 88.5853V82.5552C47.6073 80.6522 46.0409 79.1141 44.1086 79.1197ZM44.1086 83.8577C44.8332 83.8555 45.4206 83.2753 45.4206 82.5617C45.4206 81.848 44.8332 81.2712 44.1086 81.2733C43.384 81.2755 42.7966 81.8557 42.7966 82.5694C42.7966 83.283 43.384 83.8598 44.1086 83.8577Z" fill="#324558"/>
<path fill-rule="evenodd" clip-rule="evenodd" d="M34.9244 73.1164C34.6828 73.1171 34.487 73.3105 34.487 73.5484V74.8405L32.7376 74.8457C32.2546 74.8471 31.863 75.2339 31.863 75.7097V88.6313L30.9883 88.6339V90.3568L40.6098 90.3285V75.684C40.6098 75.2082 40.2182 74.8237 39.7351 74.8251L37.9857 74.8303V73.5381C37.9857 73.3002 37.7899 73.1079 37.5484 73.1087L34.9244 73.1164ZM34.487 78.717L37.9857 78.7067V79.9989L34.487 80.0092V78.717ZM34.487 81.7321L37.9857 81.7218V83.014L34.487 83.0242V81.7321ZM34.487 84.7471L37.9857 84.7369V86.029L34.487 86.0393V84.7471Z" fill="#B6C2CD"/>
<path d="M138.33 16.3391L144.087 13.7772V198.948H13.6084V13.7772L19.3648 16.3391L19.6846 16.4815L20.0044 16.3391L25.6809 13.4926L32.7165 16.3391L32.9563 16.4103L33.1962 16.268L39.5922 13.4214L45.9882 16.268L46.308 16.4103L46.6278 16.268L53.0238 13.4214L59.4198 16.268L59.7396 16.4103L60.0595 16.268L66.4555 13.4214L73.491 16.268L73.8109 16.4103L74.1306 16.268L79.1674 13.4926L86.203 16.3391L86.5228 16.4815L86.8426 16.3391L92.5191 13.4926L99.5547 16.3391L99.8745 16.4815L100.194 16.3391L105.871 13.4926L112.187 16.3391L112.507 16.4815L112.826 16.3391L118.503 13.4926L125.538 16.3391L125.778 16.4815L126.018 16.3391L132.334 13.4926L138.011 16.3391L138.33 16.4815V16.3391Z" stroke="white" stroke-opacity="0.3" stroke-width="1.26953"/>
<path d="M24.9751 64.1055H132.8" stroke="#DBE1E8" stroke-width="0.660158" stroke-linecap="square" stroke-dasharray="1.98 1.98"/>
<path d="M24.9751 102H132.8" stroke="#DBE1E8" stroke-width="0.660158" stroke-linecap="square" stroke-dasharray="1.98 1.98"/>
<path d="M52.9116 32.8423H104.863C106.144 32.8423 107.184 33.8686 107.184 35.1318C107.184 36.3949 106.144 37.4212 104.863 37.4212H52.9116C51.6309 37.4212 50.5903 36.3949 50.5903 35.1318C50.5903 33.8686 51.6309 32.8423 52.9116 32.8423Z" fill="#191E29"/>
<path d="M95.6573 85.895H124.315C125.595 85.895 126.636 86.9213 126.636 88.1845C126.636 89.4477 125.595 90.474 124.315 90.474H95.6573C94.3766 90.474 93.3359 89.4477 93.3359 88.1845C93.3359 86.9213 94.3766 85.895 95.6573 85.895Z" fill="#CDD5E2"/>
<path d="M57.8741 85.895H86.5314C87.8121 85.895 88.8528 86.9213 88.8528 88.1845C88.8528 89.4477 87.8121 90.474 86.5314 90.474H57.8741C56.5934 90.474 55.5527 89.4477 55.5527 88.1845C55.5527 86.9213 56.5934 85.895 57.8741 85.895Z" fill="#CDD5E2"/>
<path d="M38.183 114.948H78.3672C79.648 114.948 80.6885 115.974 80.6885 117.237C80.6885 118.5 79.648 119.527 78.3672 119.527H38.183C36.9023 119.527 35.8616 118.5 35.8616 117.237C35.8616 115.974 36.9023 114.948 38.183 114.948Z" fill="#CDD5E2"/>
<path d="M38.183 137.053H78.3672C79.648 137.053 80.6885 138.079 80.6885 139.342C80.6885 140.605 79.648 141.632 78.3672 141.632H38.183C36.9023 141.632 35.8616 140.605 35.8616 139.342C35.8616 138.079 36.9023 137.053 38.183 137.053Z" fill="#CDD5E2"/>
<path d="M38.183 125.684H78.3672C79.648 125.684 80.6885 126.71 80.6885 127.974C80.6885 129.237 79.648 130.263 78.3672 130.263H38.183C36.9023 130.263 35.8616 129.237 35.8616 127.974C35.8616 126.71 36.9023 125.684 38.183 125.684Z" fill="#CDD5E2"/>
<path d="M27.2964 114.948H29.6979C30.9786 114.948 32.0193 115.974 32.0193 117.237C32.0193 118.5 30.9786 119.527 29.6979 119.527H27.2964C26.0156 119.527 24.9751 118.5 24.9751 117.237C24.9751 115.974 26.0156 114.948 27.2964 114.948Z" fill="#CDD5E2"/>
<path d="M57.5548 73.895H103.502C104.783 73.895 105.824 74.9213 105.824 76.1845C105.824 77.4477 104.783 78.474 103.502 78.474H57.5548C56.274 78.474 55.2334 77.4477 55.2334 76.1845C55.2334 74.9213 56.274 73.895 57.5548 73.895Z" fill="#CDD5E2"/>
<path d="M55.4737 46.7368H101.421C102.702 46.7368 103.743 47.7631 103.743 49.0263C103.743 50.2895 102.702 51.3158 101.421 51.3158H55.4737C54.193 51.3158 53.1523 50.2895 53.1523 49.0263C53.1523 47.7631 54.193 46.7368 55.4737 46.7368Z" fill="#CDD5E2"/>
<path d="M117.591 114.948H130.239C131.52 114.948 132.56 115.974 132.56 117.237C132.56 118.5 131.52 119.527 130.239 119.527H117.591C116.31 119.527 115.27 118.5 115.27 117.237C115.27 115.974 116.31 114.948 117.591 114.948Z" fill="#CDD5E2"/>
<path d="M27.2964 137.053H29.6979C30.9786 137.053 32.0193 138.079 32.0193 139.342C32.0193 140.605 30.9786 141.632 29.6979 141.632H27.2964C26.0156 141.632 24.9751 140.605 24.9751 139.342C24.9751 138.079 26.0156 137.053 27.2964 137.053Z" fill="#CDD5E2"/>
<path d="M27.2964 176.211H45.7075C46.9883 176.211 48.029 177.237 48.029 178.5C48.029 179.764 46.9883 180.79 45.7075 180.79H27.2964C26.0156 180.79 24.9751 179.764 24.9751 178.5C24.9751 177.237 26.0156 176.211 27.2964 176.211Z" fill="#CDD5E2"/>
<path d="M117.591 137.053H130.239C131.52 137.053 132.56 138.079 132.56 139.342C132.56 140.605 131.52 141.632 130.239 141.632H117.591C116.31 141.632 115.27 140.605 115.27 139.342C115.27 138.079 116.31 137.053 117.591 137.053Z" fill="#CDD5E2"/>
<path d="M115.028 176.211H130.237C131.518 176.211 132.559 177.237 132.559 178.5C132.559 179.764 131.518 180.79 130.237 180.79H115.028C113.747 180.79 112.707 179.764 112.707 178.5C112.707 177.237 113.747 176.211 115.028 176.211Z" fill="#CDD5E2"/>
<path d="M27.2964 125.684H29.6979C30.9786 125.684 32.0193 126.71 32.0193 127.974C32.0193 129.237 30.9786 130.263 29.6979 130.263H27.2964C26.0156 130.263 24.9751 129.237 24.9751 127.974C24.9751 126.71 26.0156 125.684 27.2964 125.684Z" fill="#CDD5E2"/>
<path d="M27.2964 164.843H58.5152C59.796 164.843 60.8367 165.869 60.8367 167.132C60.8367 168.395 59.796 169.422 58.5152 169.422H27.2964C26.0156 169.422 24.9751 168.395 24.9751 167.132C24.9751 165.869 26.0156 164.843 27.2964 164.843Z" fill="#CDD5E2"/>
<path d="M117.591 125.684H130.239C131.52 125.684 132.56 126.71 132.56 127.974C132.56 129.237 131.52 130.263 130.239 130.263H117.591C116.31 130.263 115.27 129.237 115.27 127.974C115.27 126.71 116.31 125.684 117.591 125.684Z" fill="#CDD5E2"/>
<path d="M115.028 164.843H130.237C131.518 164.843 132.559 165.869 132.559 167.132C132.559 168.395 131.518 169.422 130.237 169.422H115.028C113.747 169.422 112.707 168.395 112.707 167.132C112.707 165.869 113.747 164.843 115.028 164.843Z" fill="#CDD5E2"/>
<path fill-rule="evenodd" clip-rule="evenodd" d="M150.49 22.8951C150.49 31.1845 143.686 37.8951 135.281 37.8951C126.876 37.8951 120.072 31.1845 120.072 22.8951C120.072 14.6056 126.876 7.89502 135.281 7.89502C143.686 7.89502 150.49 14.6056 150.49 22.8951Z" fill="#69C292"/>
<path fill-rule="evenodd" clip-rule="evenodd" d="M143.766 16.0265C143.286 15.6318 142.566 15.6318 142.085 16.0265L132.32 24.0792L128.397 21.5528C127.997 21.2371 127.357 21.2371 126.876 21.5528C126.236 21.9476 126.076 22.816 126.476 23.3686L130.158 28.895C130.959 30.0792 132.64 30.4739 133.92 29.6055C134.161 29.4476 134.321 29.2897 134.481 29.1318L143.927 17.9213C144.407 17.3686 144.407 16.5002 143.766 16.0265Z" fill="white"/>
<path d="M191.188 0H316.316C325.54 0 333 6.6612 333 14.8982V198.26C333 206.497 325.54 213.158 316.316 213.158H191.188C181.964 213.158 174.504 206.497 174.504 198.26V14.8982C174.504 6.6612 181.964 0 191.188 0Z" fill="white" fill-opacity="0.43"/>
<path fill-rule="evenodd" clip-rule="evenodd" d="M187.312 198.948V13.3403H193.96H199.968H207.336H213.984H220.632H227.28H233.929H240.577H247.945H253.312H260.681H266.688H274.057H280.064H286.712H292.719H300.088H306.736H312.744H319.392V198.948H187.312Z" fill="white"/>
<path d="M212.672 78.6924L209.173 78.6924V79.9883L212.672 79.9883V78.6924Z" fill="#55BC8A"/>
<path d="M212.672 81.7162L209.173 81.7162V83.0122L212.672 83.0122V81.7162Z" fill="#55BC8A"/>
<path d="M209.173 84.7401L212.672 84.7401V86.036L209.173 86.036V84.7401Z" fill="#55BC8A"/>
<path fill-rule="evenodd" clip-rule="evenodd" d="M218.795 79.1244C216.863 79.1244 215.296 80.6716 215.296 82.5802V90.3558L223.168 90.3558V88.6279L222.294 88.6279V82.5802C222.294 80.6716 220.727 79.1244 218.795 79.1244ZM218.795 83.8761C219.519 83.8761 220.107 83.2959 220.107 82.5802C220.107 81.8645 219.519 81.2842 218.795 81.2842C218.07 81.2842 217.483 81.8645 217.483 82.5802C217.483 83.2959 218.07 83.8761 218.795 83.8761Z" fill="#55BC8A"/>
<path fill-rule="evenodd" clip-rule="evenodd" d="M209.611 73.0767C209.369 73.0767 209.173 73.2701 209.173 73.5086V74.8046L207.424 74.8046C206.941 74.8046 206.549 75.1914 206.549 75.6685V88.6278L205.675 88.6278V90.3557L215.296 90.3557V75.6685C215.296 75.1914 214.904 74.8046 214.421 74.8046L212.672 74.8046V73.5086C212.672 73.2701 212.476 73.0767 212.235 73.0767L209.611 73.0767ZM209.173 78.6924L212.672 78.6924V79.9883L209.173 79.9883V78.6924ZM209.173 81.7162L212.672 81.7162V83.0121L209.173 83.0121V81.7162ZM209.173 84.74L212.672 84.74V86.036L209.173 86.036V84.74Z" fill="#A2D8BB"/>
<path d="M312.835 16.2691L318.592 13.7062V198.948H188.113V13.7062L193.87 16.2691L194.189 16.4115L194.509 16.2691L200.186 13.4214L207.221 16.2691L207.461 16.4115L207.701 16.2691L214.097 13.4214L220.493 16.2691L220.813 16.4115L221.133 16.2691L227.529 13.4214L233.925 16.2691L234.244 16.4115L234.564 16.2691L240.96 13.4214L247.996 16.2691L248.316 16.4115L248.635 16.2691L253.672 13.4926L260.708 16.3403L261.028 16.4826L261.348 16.3403L267.024 13.4926L274.06 16.3403L274.379 16.4826L274.699 16.3403L280.376 13.4926L286.692 16.3403L287.011 16.4826L287.331 16.3403L293.008 13.4926L300.043 16.3403L300.283 16.4826L300.523 16.3403L306.839 13.4926L312.516 16.3403L312.835 16.4826V16.2691Z" stroke="white" stroke-opacity="0.3" stroke-width="1.26953"/>
<path d="M199.481 64.1055H307.306" stroke="#DBE1E8" stroke-width="0.660158" stroke-linecap="square" stroke-dasharray="1.98 1.98"/>
<path d="M199.481 102H307.306" stroke="#DBE1E8" stroke-width="0.660158" stroke-linecap="square" stroke-dasharray="1.98 1.98"/>
<path d="M227.416 32.8423H279.368C280.648 32.8423 281.689 33.8686 281.689 35.1318C281.689 36.3949 280.648 37.4212 279.368 37.4212H227.416C226.136 37.4212 225.095 36.3949 225.095 35.1318C225.095 33.8686 226.136 32.8423 227.416 32.8423Z" fill="#191E29"/>
<path d="M270.162 85.895H298.819C300.1 85.895 301.14 86.9213 301.14 88.1845C301.14 89.4477 300.1 90.474 298.819 90.474H270.162C268.881 90.474 267.84 89.4477 267.84 88.1845C267.84 86.9213 268.881 85.895 270.162 85.895Z" fill="#C1EDD6"/>
<path d="M232.38 85.895H261.037C262.318 85.895 263.358 86.9213 263.358 88.1845C263.358 89.4477 262.318 90.474 261.037 90.474H232.38C231.099 90.474 230.058 89.4477 230.058 88.1845C230.058 86.9213 231.099 85.895 232.38 85.895Z" fill="#C1EDD6"/>
<path d="M212.688 114.948H252.872C254.153 114.948 255.193 115.974 255.193 117.237C255.193 118.5 254.153 119.527 252.872 119.527H212.688C211.407 119.527 210.366 118.5 210.366 117.237C210.366 115.974 211.407 114.948 212.688 114.948Z" fill="#CDD5E2"/>
<path d="M212.688 137.053H252.872C254.153 137.053 255.193 138.079 255.193 139.342C255.193 140.605 254.153 141.632 252.872 141.632H212.688C211.407 141.632 210.366 140.605 210.366 139.342C210.366 138.079 211.407 137.053 212.688 137.053Z" fill="#CDD5E2"/>
<path d="M212.688 125.684H252.872C254.153 125.684 255.193 126.71 255.193 127.974C255.193 129.237 254.153 130.263 252.872 130.263H212.688C211.407 130.263 210.366 129.237 210.366 127.974C210.366 126.71 211.407 125.684 212.688 125.684Z" fill="#CDD5E2"/>
<path d="M201.802 114.948H204.204C205.484 114.948 206.525 115.974 206.525 117.237C206.525 118.5 205.484 119.527 204.204 119.527H201.802C200.521 119.527 199.481 118.5 199.481 117.237C199.481 115.974 200.521 114.948 201.802 114.948Z" fill="#CDD5E2"/>
<path d="M232.06 73.895H278.007C279.288 73.895 280.329 74.9213 280.329 76.1845C280.329 77.4477 279.288 78.474 278.007 78.474H232.06C230.779 78.474 229.738 77.4477 229.738 76.1845C229.738 74.9213 230.779 73.895 232.06 73.895Z" fill="#C1EDD6"/>
<path d="M229.979 46.7368H275.927C277.207 46.7368 278.248 47.7631 278.248 49.0263C278.248 50.2895 277.207 51.3158 275.927 51.3158H229.979C228.698 51.3158 227.657 50.2895 227.657 49.0263C227.657 47.7631 228.698 46.7368 229.979 46.7368Z" fill="#CDD5E2"/>
<path d="M292.095 114.948H304.743C306.024 114.948 307.064 115.974 307.064 117.237C307.064 118.5 306.024 119.527 304.743 119.527H292.095C290.815 119.527 289.774 118.5 289.774 117.237C289.774 115.974 290.815 114.948 292.095 114.948Z" fill="#CDD5E2"/>
<path d="M201.802 137.053H204.204C205.484 137.053 206.525 138.079 206.525 139.342C206.525 140.605 205.484 141.632 204.204 141.632H201.802C200.521 141.632 199.481 140.605 199.481 139.342C199.481 138.079 200.521 137.053 201.802 137.053Z" fill="#CDD5E2"/>
<path d="M201.802 176.211H220.213C221.494 176.211 222.535 177.237 222.535 178.5C222.535 179.764 221.494 180.79 220.213 180.79H201.802C200.521 180.79 199.481 179.764 199.481 178.5C199.481 177.237 200.521 176.211 201.802 176.211Z" fill="#CDD5E2"/>
<path d="M292.095 137.053H304.743C306.024 137.053 307.064 138.079 307.064 139.342C307.064 140.605 306.024 141.632 304.743 141.632H292.095C290.815 141.632 289.774 140.605 289.774 139.342C289.774 138.079 290.815 137.053 292.095 137.053Z" fill="#CDD5E2"/>
<path d="M289.535 176.211H304.744C306.025 176.211 307.065 177.237 307.065 178.5C307.065 179.764 306.025 180.79 304.744 180.79H289.535C288.254 180.79 287.213 179.764 287.213 178.5C287.213 177.237 288.254 176.211 289.535 176.211Z" fill="#CDD5E2"/>
<path d="M201.802 125.684H204.204C205.484 125.684 206.525 126.71 206.525 127.974C206.525 129.237 205.484 130.263 204.204 130.263H201.802C200.521 130.263 199.481 129.237 199.481 127.974C199.481 126.71 200.521 125.684 201.802 125.684Z" fill="#CDD5E2"/>
<path d="M201.802 164.843H233.021C234.302 164.843 235.342 165.869 235.342 167.132C235.342 168.395 234.302 169.422 233.021 169.422H201.802C200.521 169.422 199.481 168.395 199.481 167.132C199.481 165.869 200.521 164.843 201.802 164.843Z" fill="#CDD5E2"/>
<path d="M292.095 125.684H304.743C306.024 125.684 307.064 126.71 307.064 127.974C307.064 129.237 306.024 130.263 304.743 130.263H292.095C290.815 130.263 289.774 129.237 289.774 127.974C289.774 126.71 290.815 125.684 292.095 125.684Z" fill="#CDD5E2"/>
<path d="M289.535 164.843H304.744C306.025 164.843 307.065 165.869 307.065 167.132C307.065 168.395 306.025 169.422 304.744 169.422H289.535C288.254 169.422 287.213 168.395 287.213 167.132C287.213 165.869 288.254 164.843 289.535 164.843Z" fill="#CDD5E2"/>
<path fill-rule="evenodd" clip-rule="evenodd" d="M324.994 22.8951C324.994 31.1845 318.19 37.8951 309.785 37.8951C301.38 37.8951 294.576 31.1845 294.576 22.8951C294.576 14.6056 301.38 7.89502 309.785 7.89502C318.19 7.89502 324.994 14.6056 324.994 22.8951Z" fill="#69C292"/>
<path fill-rule="evenodd" clip-rule="evenodd" d="M318.271 16.0265C317.791 15.6318 317.071 15.6318 316.59 16.0265L306.824 24.0792L302.902 21.5528C302.502 21.2371 301.861 21.2371 301.381 21.5528C300.741 21.9476 300.581 22.816 300.981 23.3686L304.663 28.895C305.464 30.0792 307.145 30.4739 308.345 29.6055C308.585 29.4476 308.746 29.2897 308.906 29.1318L318.351 17.9213C318.912 17.3686 318.912 16.5002 318.271 16.0265Z" fill="white"/>
<mask id="mask0_1494_15127" style="mask-type:alpha" maskUnits="userSpaceOnUse" x="99" y="71" width="122" height="129">
<path d="M99.2502 71.0527H203.605L220.048 199.661H99.2502V71.0527Z" fill="#C4C4C4"/>
</mask>
<g mask="url(#mask0_1494_15127)">
<path fill-rule="evenodd" clip-rule="evenodd" d="M207.62 120.583C207.109 119.025 198.647 116.917 200.646 116.779C200.321 117.696 199.902 118.612 199.251 119.529L199.019 119.987C191.58 119.895 175.167 121.224 172.006 119.529C163.809 114.406 155.864 108.901 148.201 103.03C149.038 103.489 160.615 133.553 180.84 132.957C182.792 134.79 184.652 136.073 184.652 136.073L187.907 134.79C182.188 144.139 180.933 150.189 179.631 155.321C178.422 157.888 179.259 158.254 179.538 158.3V161.233C177.46 188.095 182.726 215.015 194.788 239.189C195.532 240.701 198.647 240.335 198.833 238.41C198.833 238.41 198.508 225.394 198.368 216.228C198.368 215.312 198.182 214.395 197.903 213.479C195.997 207.246 193.207 205.367 194.137 201.884C195.16 198.951 195.997 196.155 196.694 193.589C202.482 207.933 209.562 221.737 217.849 234.835C218.918 236.393 222.963 236.027 222.127 233.231C220.174 226.723 218.454 216.045 217.942 210.454C217.849 209.766 217.756 209.125 217.524 208.483C215.478 202.067 211.572 202.205 212.084 197.805C213.386 185.889 211.758 170.766 210.596 167.558C211.458 165.568 211.946 163.441 212.037 161.279L212.13 160.225C213.06 159.171 212.13 157.842 211.758 156.33C214.688 153.763 217.431 150.83 219.895 147.576C221.383 142.535 220.313 137.494 218.035 132.59C219.244 128.465 219.337 122.141 210.689 121.041L207.667 120.583H207.62Z" fill="#001B69" fill-opacity="0.1"/>
</g>
<path fill-rule="evenodd" clip-rule="evenodd" d="M232.491 246.484L232.407 246.32L231.784 245.829C230.621 245.419 229.417 245.051 228.254 244.723L228.129 244.682C226.883 244.273 225.595 243.986 224.349 243.659L224.017 243.536C220.818 243.086 217.578 242.717 214.297 242.431L210.766 242.267L206.903 242.103H200.963L199.551 242.185L197.557 242.39L197.142 242.431L194.442 242.799H194.359L190.413 243.413L188.834 243.7L188.419 243.741L185.586 243.536C184.298 243.413 183.143 243.986 181.814 243.945H180.942C179.986 244.027 178.782 244.191 177.868 244.355C174.296 245.01 173.797 245.133 170.1 245.952H170.059L169.353 246.361L169.104 246.689L169.02 247.057C169.104 247.467 169.104 247.467 169.27 247.753L169.934 248.245H169.976C173.59 249.432 174.047 249.596 177.536 250.578L179.156 250.988L179.239 251.07H179.363C181.672 251.746 183.999 252.36 186.342 252.912H186.466C188.46 253.363 190.496 253.772 192.572 254.141H192.656L195.397 254.55L195.605 254.591L197.889 254.837H198.097C199.136 254.959 200.174 255 201.212 255H205.574L209.977 254.796H210.143L213.674 254.55H213.757L215.335 254.345C218.243 254.018 221.068 253.444 223.975 252.912H224.058L231.826 250.906C232.075 250.783 232.366 250.701 232.574 250.537C232.989 250.21 233.404 249.719 233.529 249.104C233.612 248.777 233.612 248.286 233.612 248.286C233.571 247.999 233.529 247.671 233.404 247.467C233.155 246.853 232.906 246.73 232.574 246.484H232.491Z" fill="url(#paint0_linear_1494_15127)"/>
<path fill-rule="evenodd" clip-rule="evenodd" d="M204.228 248.767C204.745 249.14 205.121 249.672 205.297 250.279C205.447 250.676 205.525 251.094 205.53 251.517C205.53 252.113 205.204 252.662 204.693 252.983C204.135 253.258 203.531 253.442 202.74 253.442C201.345 253.442 200.694 253.212 199.951 252.708C199.765 252.571 199.579 252.571 199.439 252.617C199.036 252.723 198.633 252.83 198.23 252.937C195.952 253.121 193.581 252.937 192.418 252.021C192.233 251.883 192.186 251.746 192.186 251.563V251.517C192.186 251.242 192.372 250.967 192.651 250.921C193.953 250.554 197.905 249.546 198.23 249.409H198.277L201.531 248.263H201.903L204.228 248.721V248.767ZM224.035 243.405L224.081 243.267C222.585 242.165 220.821 241.469 218.967 241.251C218.967 241.251 218.827 241.251 218.734 241.343C218.647 241.363 218.565 241.402 218.493 241.456C218.422 241.509 218.362 241.577 218.318 241.655C218.275 241.732 218.248 241.818 218.239 241.906C218.231 241.994 218.241 242.083 218.269 242.168C218.646 243.41 219.371 244.522 220.362 245.376L220.687 245.696L221.989 247.575C222.919 248.813 223.942 248.859 224.779 248.767C225.122 248.747 225.458 248.655 225.762 248.497C226.067 248.339 226.334 248.118 226.545 247.85C226.697 247.683 226.812 247.487 226.884 247.274C226.956 247.061 226.983 246.836 226.964 246.613C226.964 246.155 226.871 245.696 226.731 245.238C226.545 244.688 226.266 244.23 225.894 243.863L225.662 243.772L224.035 243.405V243.405Z" fill="#313647"/>
<path fill-rule="evenodd" clip-rule="evenodd" d="M201.206 246.797C201.121 246.493 201.16 246.168 201.317 245.893C201.474 245.618 201.735 245.416 202.043 245.33C202.352 245.246 202.681 245.285 202.96 245.44C203.239 245.594 203.444 245.852 203.531 246.155L204.275 249.088C204.347 249.386 204.3 249.699 204.145 249.964C203.989 250.228 203.736 250.423 203.438 250.509C203.13 250.594 202.8 250.554 202.521 250.4C202.242 250.245 202.037 249.988 201.95 249.684L201.206 246.797Z" fill="#FFC1B1"/>
<path fill-rule="evenodd" clip-rule="evenodd" d="M222.593 242.03C222.543 241.877 222.525 241.715 222.541 241.555C222.557 241.394 222.605 241.239 222.683 241.097C222.761 240.956 222.868 240.832 222.996 240.732C223.124 240.633 223.272 240.56 223.429 240.518C223.738 240.433 224.067 240.472 224.346 240.627C224.625 240.782 224.831 241.039 224.917 241.343L225.801 244.23C225.887 244.534 225.847 244.859 225.69 245.134C225.533 245.408 225.272 245.611 224.964 245.696C224.656 245.781 224.326 245.742 224.047 245.587C223.768 245.432 223.563 245.175 223.476 244.871L222.593 242.03ZM218.315 119.666C222.639 127.824 225.754 136.027 223.708 144.414C218.354 152.696 211.365 159.834 203.158 165.404L207.714 142.535L218.315 119.666V119.666Z" fill="#FF9898"/>
<path fill-rule="evenodd" clip-rule="evenodd" d="M196.277 171.499C199.067 192.305 212.318 224.065 221.849 241.893C222.779 243.726 226.591 243.267 225.801 240.151C223.988 232.956 222.407 221.132 221.895 214.807C221.849 213.891 221.709 212.974 221.43 212.149C219.478 205.321 216.037 205.413 216.502 200.555C217.897 185.431 215.712 165.633 214.689 166.137" fill="#171C34"/>
<path fill-rule="evenodd" clip-rule="evenodd" d="M186.421 159.72C184.45 189.434 189.264 219.205 200.509 246.842C201.206 248.537 204.089 248.125 204.228 245.925L203.81 221.361C203.81 220.169 203.624 218.977 203.345 217.832C201.485 211.003 199.021 208.895 199.904 205.091C205.112 187.218 204.972 175.211 205.53 172.232C209.947 171.453 215.666 172.461 216.456 159.674C216.549 158.437 216.828 156.833 215.48 156.1C208.506 152.204 187.305 150.967 186.421 155.687" fill="#242E42"/>
<path fill-rule="evenodd" clip-rule="evenodd" d="M206.692 153.442C197.951 152.113 187.025 152.388 186.421 155.412V157.612C193.581 154.587 207.715 156.237 216.549 159.629L216.456 158.895C216.27 157.841 216.828 156.421 215.479 155.733C213.945 155 211.667 154.358 209.11 153.854L206.692 153.396V153.442Z" fill="#1E1E5F"/>
<path fill-rule="evenodd" clip-rule="evenodd" d="M206.46 105.276C206.46 105.276 206.692 109.447 204.6 113.067C202.694 116.55 213.434 117.008 213.434 117.008C213.434 117.008 211.109 111.967 211.621 107.751C212.132 103.489 206.506 105.276 206.506 105.276H206.46Z" fill="#FFC1B1"/>
<path fill-rule="evenodd" clip-rule="evenodd" d="M202.137 112.379C203.817 111.431 205.694 110.868 207.626 110.733C209.558 110.598 211.496 110.895 213.295 111.6C214.225 112.013 214.923 112.838 215.062 113.892C215.434 115.771 215.899 118.933 215.899 118.933L201.439 118.246L202.137 112.379V112.379Z" fill="url(#paint1_linear_1494_15127)"/>
<path fill-rule="evenodd" clip-rule="evenodd" d="M201.299 93.7269C201.299 93.7269 197.022 100.464 199.765 105.826C202.229 110.73 205.577 110.18 207.344 109.813C209.157 109.401 212.318 107.659 213.527 101.61C215.434 92.1688 204.042 88.3191 201.346 93.7269H201.299Z" fill="#FFC1B1"/>
<path fill-rule="evenodd" clip-rule="evenodd" d="M205.855 110.042C206.18 110.042 206.18 108.209 206.134 106.971C206.123 106.917 206.096 106.867 206.056 106.828C206.016 106.789 205.965 106.763 205.91 106.753C205.855 106.743 205.798 106.75 205.746 106.772C205.695 106.795 205.652 106.832 205.623 106.879C205.204 107.613 204.507 108.713 203.298 109.583C204.181 109.996 205.065 110.042 205.855 110.042V110.042ZM148.574 100.647C147.784 100.83 152.433 100.509 152.433 100.509L146.482 96.3846L145.459 94.8264C145.423 94.7636 145.373 94.7098 145.313 94.6696C145.252 94.6294 145.183 94.6038 145.111 94.5948C145.038 94.5859 144.965 94.5939 144.896 94.6182C144.827 94.6425 144.765 94.6825 144.715 94.7347C144.39 95.0097 144.25 95.5138 144.39 95.9263C144.762 96.8429 145.273 97.7595 145.877 98.4011C145.877 98.4011 147.319 100.097 148.574 100.693V100.647Z" fill="#FF9898"/>
<path fill-rule="evenodd" clip-rule="evenodd" d="M217.804 93.3146C216.734 90.519 214.41 89.3733 212.225 89.1442C210.039 88.915 205.622 88.7317 204.042 87.1735C202.461 85.6611 201.112 81.674 198.09 82.8656C194.324 84.3321 196.323 89.9233 197.532 92.0314C198.788 94.0937 201.252 95.7894 202.507 96.2477C203.809 96.706 205.948 96.156 205.948 96.156C205.948 96.156 205.948 98.1725 206.785 98.9974C208.179 98.31 208.691 99.6391 208.691 99.6391C209.016 100.51 208.087 103.81 206.18 102.526C206.18 102.526 206.227 106.651 208.97 107.568C211.76 108.484 212.689 108.163 213.294 107.109C213.852 106.147 212.457 103.855 213.48 102.022C214.41 100.189 219.571 97.8975 217.804 93.3146Z" fill="#171C34"/>
<path fill-rule="evenodd" clip-rule="evenodd" d="M152.899 100.922C152.527 100.464 150.713 99.2267 148.249 98.1726C146.157 97.2561 143.414 96.6603 142.391 96.2478L138.206 94.598C138.084 94.5498 137.954 94.5258 137.822 94.5274C137.691 94.529 137.561 94.5561 137.44 94.6072C137.319 94.6582 137.21 94.7323 137.118 94.8251C137.026 94.9178 136.953 95.0275 136.905 95.1479C136.856 95.2683 136.831 95.3969 136.833 95.5266C136.835 95.6562 136.862 95.7843 136.914 95.9034C136.966 96.0226 137.041 96.1305 137.135 96.221C137.229 96.3116 137.34 96.383 137.462 96.4311L141.321 98.4934L144.111 99.5475C144.251 101.381 144.576 103.214 145.599 104.451C147.366 106.743 150.248 106.514 151.085 107.063C151.876 107.613 169.59 129.52 188.653 128.053C207.762 126.495 204.182 115.909 204.182 115.909C204.182 115.909 190.559 115.634 180.33 118.612C176.797 115.725 175.634 115.679 173.821 115.038C166.428 112.288 164.057 111.83 161.175 109.997C155.502 106.284 154.2 105.001 154.2 105.001C154.2 105.001 153.968 102.251 152.899 100.922V100.922Z" fill="#FFC1B1"/>
<mask id="mask1_1494_15127" style="mask-type:alpha" maskUnits="userSpaceOnUse" x="136" y="94" width="69" height="35">
<path d="M152.944 100.922C152.526 100.464 150.713 99.1804 148.295 98.1721C146.156 97.2556 143.46 96.6598 142.39 96.2015L138.206 94.5975C138.084 94.5493 137.953 94.5253 137.822 94.5269C137.69 94.5285 137.56 94.5556 137.439 94.6067C137.318 94.6577 137.209 94.7318 137.117 94.8246C137.025 94.9173 136.953 95.027 136.904 95.1474C136.855 95.2678 136.831 95.3965 136.832 95.5261C136.834 95.6557 136.861 95.7838 136.913 95.9029C136.965 96.0221 137.04 96.13 137.134 96.2206C137.228 96.3111 137.34 96.3825 137.462 96.4306L141.321 98.4471L144.11 99.4554C144.25 101.289 144.575 103.122 145.598 104.405C147.365 106.651 150.248 106.467 151.085 107.017C151.875 107.567 169.589 129.473 188.698 127.961C207.761 126.495 204.181 115.954 204.181 115.954C204.181 115.954 190.605 115.633 180.376 118.612C176.842 115.679 175.68 115.679 173.867 114.991C166.521 112.242 164.103 111.829 161.22 109.95C155.548 106.284 154.293 105.001 154.293 105.001C154.293 105.001 154.014 102.251 152.944 100.922V100.922Z" fill="white"/>
</mask>
<g mask="url(#mask1_1494_15127)">
<path d="M181.489 117.593C180.094 118.143 177.908 119.702 177.537 120.573" stroke="white" stroke-opacity="0.3" stroke-width="1.58692" stroke-linecap="round"/>
</g>
<path fill-rule="evenodd" clip-rule="evenodd" d="M198.51 125.853C198.277 124.616 197.859 123.424 197.254 122.324C195.534 119.3 186.747 114.671 186.235 118.291C186.049 119.804 187.165 122.691 186.142 123.562C184.654 124.845 173.31 122.095 170.334 120.445C158.246 113.8 150.993 107.017 151.086 107.063C151.876 107.613 169.59 129.52 188.653 128.053C192.047 127.879 195.383 127.119 198.51 125.807V125.853Z" fill="#FF9898"/>
<path fill-rule="evenodd" clip-rule="evenodd" d="M221.245 118.2L226.777 130.069C225.476 136.348 221.291 139.006 215.944 140.06L221.245 118.2Z" fill="#4F4EA5"/>
<path fill-rule="evenodd" clip-rule="evenodd" d="M184.05 117.329C180.284 122.462 191.117 131.536 191.117 131.536L194.139 130.161C188.839 140.61 187.723 147.347 186.514 153.122C185.119 156.559 186.514 156.467 186.514 156.467C186.514 156.467 188.653 154.084 197.254 154.313C205.251 154.588 213.388 156.146 216.41 158.713C217.712 157.246 216.084 155.322 216.084 153.122C216.038 145.927 217.2 136.807 220.594 131.582C221.524 130.07 226.638 116.458 215.201 114.717C205.53 112.884 193.813 112.975 184.05 117.329V117.329Z" fill="#4A499A"/>
<mask id="mask2_1494_15127" style="mask-type:alpha" maskUnits="userSpaceOnUse" x="183" y="113" width="40" height="46">
<path d="M184.049 117.329C180.33 122.462 191.163 131.536 191.163 131.536L194.138 130.161C188.884 140.61 187.722 147.347 186.513 153.075C185.165 156.558 186.513 156.421 186.513 156.421C186.513 156.421 188.699 154.038 197.3 154.313C205.297 154.542 213.387 156.1 216.409 158.667C217.757 157.246 216.13 155.275 216.084 153.075C216.084 145.88 217.2 136.76 220.594 131.536C221.57 130.023 226.638 116.458 215.2 114.716C205.529 112.883 193.813 112.975 184.049 117.329Z" fill="white"/>
</mask>
<g mask="url(#mask2_1494_15127)">
<path fill-rule="evenodd" clip-rule="evenodd" d="M215.524 114.854C216.501 118.887 216.779 122.782 214.966 126.128C213.106 128.19 207.62 144.597 212.177 155.734C213.664 159.446 211.526 165.404 216.687 165.999C217.849 166.137 219.383 166.137 220.313 165.266C226.171 159.95 220.22 147.072 221.615 139.923C222.312 136.394 228.403 116.229 215.524 114.854Z" fill="url(#paint2_linear_1494_15127)"/>
</g>
<path d="M189.257 159.08C188.048 191.068 193.302 218.199 201.625 246.934M203.903 191.023C208.749 208.262 215.257 225.005 223.337 241.022" stroke="white" stroke-opacity="0.12" stroke-width="1.58692" stroke-linecap="round"/>
<path d="M207.018 99.6393C208.32 99.4101 208.273 101.06 207.064 101.931" stroke="#FF9898" stroke-width="3.17383" stroke-linecap="round"/>
<path d="M205.67 96.2934C204.116 96.8309 202.436 96.9045 200.84 96.505C199.243 96.1056 197.802 95.2508 196.697 94.0478M205.67 96.2934C201.253 96.935 197.673 95.1018 195.395 89.7856L205.67 96.2934Z" stroke="#171C34" stroke-width="3.17383" stroke-linecap="round"/>
<defs>
<linearGradient id="paint0_linear_1494_15127" x1="233.624" y1="248.632" x2="171.215" y2="244.76" gradientUnits="userSpaceOnUse">
<stop stop-color="#C8E0FF" stop-opacity="0.29"/>
<stop offset="1" stop-color="#C8E0FF" stop-opacity="0"/>
</linearGradient>
<linearGradient id="paint1_linear_1494_15127" x1="216.492" y1="114.299" x2="212.308" y2="119.834" gradientUnits="userSpaceOnUse">
<stop offset="0.0979909" stop-color="#6463B9"/>
<stop offset="1" stop-color="#3F3E94"/>
</linearGradient>
<linearGradient id="paint2_linear_1494_15127" x1="230.361" y1="118.742" x2="221.574" y2="159.146" gradientUnits="userSpaceOnUse">
<stop offset="0.0979909" stop-color="#4A499A"/>
<stop offset="1" stop-color="#39387E"/>
</linearGradient>
</defs>
</svg>
