<svg width="64" height="64" viewBox="0 0 64 64" fill="none" xmlns="http://www.w3.org/2000/svg">
<path d="M23.9999 5.33337C22.5272 5.33337 21.3333 6.52728 21.3333 8.00004V13.3334H42.6666V8.00004C42.6666 6.52728 41.4727 5.33337 39.9999 5.33337H23.9999Z" fill="#55BC8A"/>
<path d="M57.8461 32L63.9999 38.1537L59.8974 42.2562L53.7435 36.1025L57.8461 32Z" fill="#55BC8A"/>
<path d="M51.6922 38.1545L57.846 44.3081L43.4871 58.6667H37.3333V52.513L51.6922 38.1545Z" fill="#55BC8A"/>
<path d="M21.3334 9.33337H13.3334C11.8607 9.33337 10.6667 10.5273 10.6667 12V56C10.6667 57.4728 11.8607 58.6667 13.3334 58.6667H33.3334V50.8562L53.3334 30.8561V12C53.3334 10.5273 52.1395 9.33337 50.6667 9.33337H42.6667V13.3334H21.3334V9.33337Z" fill="#A2D8BB"/>
</svg>
