<svg width="222" height="201" viewBox="0 0 222 201" fill="none" xmlns="http://www.w3.org/2000/svg">
<g opacity="0.8">
<g opacity="0.2" filter="url(#filter0_d_1406_11757)">
<path fill-rule="evenodd" clip-rule="evenodd" d="M78.2156 79.1156C82.0971 78.5008 86.0118 80.0035 88.4849 83.0576L106.608 105.438C109.081 108.492 109.737 112.634 108.329 116.303L98.0087 143.188C96.6003 146.857 93.3416 149.496 89.4601 150.111L61.0163 154.616C57.1348 155.231 53.2201 153.728 50.747 150.674L32.6236 128.293C30.1504 125.239 29.4945 121.098 30.9028 117.429L41.2232 90.5431C42.6316 86.8743 45.8903 84.2354 49.7718 83.6206L78.2156 79.1156Z" fill="url(#paint0_linear_1406_11757)"/>
</g>
<g opacity="0.100969" filter="url(#filter1_d_1406_11757)">
<path fill-rule="evenodd" clip-rule="evenodd" d="M144.358 25.3088C148.24 24.694 152.155 26.1967 154.628 29.2508L189.334 72.1091C191.807 75.1632 192.463 79.3048 191.054 82.9737L171.291 134.459C169.883 138.128 166.624 140.767 162.743 141.382L108.273 150.009C104.392 150.623 100.477 149.121 98.0038 146.067L63.2978 103.208C60.8246 100.154 60.1687 96.0127 61.577 92.3438L81.3404 40.8584C82.7488 37.1895 86.0075 34.5506 89.889 33.9359L144.358 25.3088Z" fill="url(#paint1_linear_1406_11757)"/>
</g>
</g>
<defs>
<filter id="filter0_d_1406_11757" x="0.172119" y="64.9799" width="138.888" height="135.772" filterUnits="userSpaceOnUse" color-interpolation-filters="sRGB">
<feFlood flood-opacity="0" result="BackgroundImageFix"/>
<feColorMatrix in="SourceAlpha" type="matrix" values="0 0 0 0 0 0 0 0 0 0 0 0 0 0 0 0 0 0 127 0" result="hardAlpha"/>
<feOffset dy="16"/>
<feGaussianBlur stdDeviation="15"/>
<feColorMatrix type="matrix" values="0 0 0 0 0.384314 0 0 0 0 0.807843 0 0 0 0 0.552941 0 0 0 0.3 0"/>
<feBlend mode="normal" in2="BackgroundImageFix" result="effect1_dropShadow_1406_11757"/>
<feBlend mode="normal" in="SourceGraphic" in2="effect1_dropShadow_1406_11757" result="shape"/>
</filter>
<filter id="filter1_d_1406_11757" x="30.8462" y="11.1731" width="190.939" height="184.971" filterUnits="userSpaceOnUse" color-interpolation-filters="sRGB">
<feFlood flood-opacity="0" result="BackgroundImageFix"/>
<feColorMatrix in="SourceAlpha" type="matrix" values="0 0 0 0 0 0 0 0 0 0 0 0 0 0 0 0 0 0 127 0" result="hardAlpha"/>
<feOffset dy="16"/>
<feGaussianBlur stdDeviation="15"/>
<feColorMatrix type="matrix" values="0 0 0 0 0.384314 0 0 0 0 0.807843 0 0 0 0 0.552941 0 0 0 0.1 0"/>
<feBlend mode="normal" in2="BackgroundImageFix" result="effect1_dropShadow_1406_11757"/>
<feBlend mode="normal" in="SourceGraphic" in2="effect1_dropShadow_1406_11757" result="shape"/>
</filter>
<linearGradient id="paint0_linear_1406_11757" x1="45.7446" y1="63.2498" x2="16.0001" y2="140.737" gradientUnits="userSpaceOnUse">
<stop stop-color="#75D49A"/>
<stop offset="1" stop-color="#54CA82"/>
</linearGradient>
<linearGradient id="paint1_linear_1406_11757" x1="176.056" y1="170.138" x2="230.523" y2="28.2462" gradientUnits="userSpaceOnUse">
<stop stop-color="white"/>
<stop offset="1" stop-color="#31383E"/>
</linearGradient>
</defs>
</svg>
