<svg xmlns="http://www.w3.org/2000/svg" xmlns:xlink="http://www.w3.org/1999/xlink" width="40" height="40" viewBox="0 0 40 40"><defs><linearGradient id="x2roophgib" x1="50%" x2="50%" y1="0%" y2="96.807%"><stop offset="0%" stop-opacity="0"/><stop offset="100%" stop-opacity=".1"/></linearGradient><rect id="oup9cb8fka" width="40" height="40" x="0" y="0" rx="20"/></defs><g fill="none" fill-rule="evenodd" opacity=".502"><g><g><g><g transform="translate(-1199 -427) translate(926 419) translate(273 8)"><use fill="#D5DEE7" xlink:href="#oup9cb8fka"/><use fill="url(#x2roophgib)" xlink:href="#oup9cb8fka"/></g><g fill-rule="nonzero"><path fill="#3D3E49" d="M14.018 9.329l-7.26 4.868c-.734.492-1.728.296-2.22-.438-.177-.264-.271-.574-.271-.891V3.132c0-.883.716-1.6 1.6-1.6.317 0 .627.095.89.271l7.26 4.868c.735.492.93 1.486.439 2.22-.116.173-.265.322-.438.438z" transform="translate(-1199 -427) translate(926 419) translate(273 8) translate(12 12)"/></g></g></g></g></g></svg>