<svg xmlns="http://www.w3.org/2000/svg" width="16" height="16" viewBox="0 0 16 16"><g fill="none"><path fill="#3E464C" d="M6.621 5.428c.148.155.224.352.23.591 0 .234-.078.43-.23.588-.152.158-.354.237-.603.237H6.01c-.24 0-.434-.08-.584-.237-.15-.158-.226-.354-.226-.588 0-.239.077-.436.23-.591.152-.156.354-.234.603-.234.244 0 .44.078.588.234zM5.201 11.8h1.65V7.4H5.2v4.4zM14 5.2v6.6c0 1.215-.985 2.2-2.2 2.2H5.2C3.986 14 3 13.015 3 11.8V5.2C3 3.986 3.986 3 5.2 3h6.6c1.215 0 2.2.986 2.2 2.2zm-1.101.55c0-.911-.738-1.649-1.65-1.649H5.75c-.911 0-1.649.738-1.649 1.65v5.499c0 .911.738 1.65 1.65 1.65h5.499c.91 0 1.649-.739 1.649-1.65v-5.5zM10.15 7.4c-.504 0-.779.067-1.1.55V7.4H7.4l.086 1.008-.085 3.392H9.05V9.05c0-.265-.065-.285.08-.428.145-.143.241-.214.46-.214.225 0 .542.08.542.289 0 .399.018.578.018.903v2.2h1.65V9.233c0-.606-.151-1.077-.455-1.417-.303-.338-.702-.416-1.195-.416z"/></g></svg>