<?xml version="1.0" encoding="UTF-8"?><svg id="_图层_1" xmlns="http://www.w3.org/2000/svg" viewBox="0 0 800 500"><defs><style>.cls-1{fill:#888;}.cls-1,.cls-2,.cls-3,.cls-4{stroke-width:0px;}.cls-2{fill:#221714;}.cls-3{fill:#0fa06d;}.cls-4{fill:#fff;}</style></defs><rect class="cls-4" width="800" height="500" rx="34.11" ry="34.11"/><path class="cls-3" d="m152.63,258.13s-.07.02-.11,0l-32.47-18.76s-.05-.06-.05-.09v-37.5s.02-.07.05-.09l32.47-18.76s.08-.02.11,0l32.48,18.76s.05.06.05.09v37.5s-.02.07-.05.09l-32.48,18.76Z"/><rect class="cls-3" x="99.86" y="267.26" width="105.44" height="21.09"/><polygon class="cls-1" points="513.32 288.35 505.14 288.35 505.14 310.19 500.83 310.19 500.83 288.35 492.6 288.35 492.6 284.55 513.32 284.55 513.32 288.35"/><path class="cls-1" d="m528,301.4h-13.51c.11,3.73,1.84,5.82,5.13,5.82,2.19,0,3.45-.87,3.99-2.34h4.13c-.69,3.42-3.41,5.79-8.15,5.79-5.75,0-9.13-4.02-9.13-9.74s3.41-9.48,9.01-9.48,8.41,3.84,8.51,8.58v1.37Zm-13.33-3.02h9.16c-.25-2.05-1.69-3.7-4.39-3.7-2.87,0-4.3,1.58-4.77,3.7"/><path class="cls-1" d="m546.55,304.33c-.58,3.78-3.63,6.32-8.04,6.32-5.68,0-9.05-4.02-9.05-9.62s3.37-9.59,9.05-9.59c4.49,0,7.36,2.44,7.9,6.03h-4.02c-.54-1.58-1.69-2.59-3.84-2.59-3.63,0-5.03,2.83-5.03,6.11s1.44,6.21,5.03,6.21c2.3,0,3.6-1.04,3.99-2.88h4.02Z"/><path class="cls-1" d="m561.84,310.19v-10.63c0-2.87-1.33-4.49-4.06-4.49-2.9,0-4.74,2.47-4.74,5.35v9.77h-4.06v-26.11h4.06v9.59h.86c1.01-1.4,2.77-2.23,5.21-2.23,4.49,0,6.78,2.77,6.78,7.32v11.42h-4.06Z"/><path class="cls-1" d="m582.16,310.19v-10.63c0-2.98-1.36-4.49-4.06-4.49-2.9,0-4.74,2.47-4.74,5.35v9.77h-4.06v-18.28h3.91v1.76h.86c1.04-1.4,2.84-2.23,5.28-2.23,4.56,0,6.86,2.77,6.86,7.32v11.42h-4.06Z"/><path class="cls-1" d="m607.01,301.03c0,5.6-3.48,9.62-9.23,9.62s-9.23-4.02-9.23-9.62,3.49-9.59,9.23-9.59,9.23,4.02,9.23,9.59m-4.06,0c0-3.2-1.62-6.14-5.17-6.14s-5.18,2.95-5.18,6.14,1.62,6.18,5.18,6.18,5.17-2.91,5.17-6.18"/><rect class="cls-1" x="609.57" y="284.08" width="4.06" height="26.11"/><path class="cls-1" d="m634.66,301.03c0,5.6-3.48,9.62-9.23,9.62s-9.23-4.02-9.23-9.62,3.49-9.59,9.23-9.59,9.23,4.02,9.23,9.59m-4.06,0c0-3.2-1.62-6.14-5.18-6.14s-5.17,2.95-5.17,6.14,1.62,6.18,5.17,6.18,5.18-2.91,5.18-6.18"/><path class="cls-1" d="m654.21,291.91v17.38c0,5.18-3.48,8.41-8.83,8.41-4.85,0-8.12-2.05-8.55-5.89h4.02c.39,1.83,1.97,2.55,4.45,2.55,3.45,0,4.85-2.15,4.85-5.35v-1.22h-.86c-.86,1.26-2.48,2.23-5.1,2.23-4.99,0-8.05-3.95-8.05-9.26s3.13-9.3,8.05-9.3c2.72,0,4.42,1.08,5.24,2.23h.86v-1.76h3.91Zm-3.91,8.84c0-3.16-1.69-5.85-5.1-5.85-3.16,0-5,2.41-5,5.85s1.84,5.82,5,5.82c3.41,0,5.1-2.69,5.1-5.82"/><path class="cls-1" d="m657.87,284.08h4.17v3.91h-4.17v-3.91Zm4.1,26.11h-4.06v-18.28h4.06v18.28Z"/><path class="cls-1" d="m682.12,301.4h-13.51c.11,3.73,1.84,5.82,5.13,5.82,2.19,0,3.45-.87,3.99-2.34h4.13c-.69,3.42-3.41,5.79-8.15,5.79-5.75,0-9.13-4.02-9.13-9.74s3.41-9.48,9.02-9.48,8.4,3.84,8.51,8.58v1.37Zm-13.33-3.02h9.16c-.25-2.05-1.69-3.7-4.39-3.7-2.87,0-4.3,1.58-4.77,3.7"/><path class="cls-1" d="m694.9,296.8c-.25-1.54-1.72-1.98-3.59-1.98-1.98,0-3.31.58-3.31,1.9,0,1.18.79,1.58,2.34,1.83l3.55.57c3.34.54,5.56,2.26,5.56,5.67,0,3.05-2.65,5.86-7.82,5.86s-7.97-2.37-8.37-6h4.06c.32,1.87,1.83,2.62,4.24,2.62s3.84-.68,3.84-2.37c0-1.4-.86-2.05-2.98-2.44l-3.8-.65c-2.73-.47-4.67-1.94-4.67-4.81,0-3.09,2.33-5.57,7.51-5.57,4.45,0,7.11,2.16,7.5,5.35h-4.06Z"/><path class="cls-2" d="m296.57,230.44c0,11.44-3.51,21.33-10.1,28.34l9.68,15.87h-11.85l-5.88-9.89c-4.84,2.58-10.51,3.81-16.9,3.81-22.88,0-35.15-16.7-35.15-38.13s12.26-38.13,35.15-38.13,35.04,16.7,35.04,38.13m-24.12,24.32l-12.36-20.82h11.33l8.35,13.71c2.89-4.64,4.23-10.61,4.23-17.21,0-14.53-6.91-26.9-22.46-26.9s-22.57,12.37-22.57,26.9,6.91,26.9,22.57,26.9c4.22,0,7.83-.82,10.92-2.58"/><path class="cls-2" d="m304.27,192.31h11.96v11.23h-11.96v-11.23Zm11.75,74.92h-11.65v-52.45h11.65v52.45Z"/><path class="cls-2" d="m363.52,267.23v-30.51c0-8.55-3.91-12.88-11.64-12.88-8.34,0-13.6,7.11-13.6,15.35v28.03h-11.65v-52.45h11.24v5.05h2.47c2.98-4.02,8.14-6.39,15.15-6.39,13.09,0,19.69,7.94,19.69,21.03v32.77h-11.65Z"/><path class="cls-2" d="m433.58,214.78v49.88c0,14.84-10,24.11-25.35,24.11-13.92,0-23.29-5.88-24.53-16.9h11.54c1.13,5.26,5.66,7.32,12.78,7.32,9.89,0,13.91-6.18,13.91-15.36v-3.5h-2.47c-2.47,3.61-7.11,6.39-14.63,6.39-14.33,0-23.09-11.34-23.09-26.59s8.97-26.69,23.09-26.69c7.83,0,12.67,3.09,15.04,6.39h2.47v-5.05h11.24Zm-11.24,25.35c0-9.07-4.84-16.8-14.63-16.8-9.07,0-14.33,6.91-14.33,16.8s5.26,16.7,14.33,16.7c9.79,0,14.63-7.73,14.63-16.7"/><path class="cls-2" d="m505.9,244.97c-2.48,13.91-13.3,23.6-29.99,23.6-22.16,0-34.63-15.98-34.63-38.13s12.58-38.13,34.73-38.13c15.67,0,26.38,8.66,29.06,21.75h-12.98c-2.37-7.01-7.42-10.51-16.08-10.51-15.15,0-22.15,12.36-22.15,26.9s6.91,26.9,22.05,26.9c9.07,0,15.05-4.53,17-12.36h12.99Z"/><rect class="cls-2" x="513.29" y="192.31" width="11.65" height="74.92"/><path class="cls-2" d="m585.22,240.96c0,16.08-10,27.62-26.49,27.62s-26.49-11.54-26.49-27.62,10-27.52,26.49-27.52,26.49,11.54,26.49,27.52m-11.65,0c0-9.17-4.64-17.63-14.84-17.63s-14.84,8.46-14.84,17.63,4.63,17.73,14.84,17.73,14.84-8.35,14.84-17.73"/><path class="cls-2" d="m603.43,214.78v30.51c0,8.55,3.91,12.88,11.64,12.88,8.34,0,13.6-7.11,13.6-15.36v-28.03h11.65v52.45h-11.23v-5.05h-2.48c-2.98,4.02-8.14,6.39-15.15,6.39-13.09,0-19.69-7.94-19.69-21.03v-32.77h11.65Z"/><path class="cls-2" d="m685.34,219.83h2.47v-27.52h11.65v74.92h-11.24v-5.05h-2.47c-2.88,3.61-7.63,6.39-15.45,6.39-14.23,0-22.68-11.96-22.68-27.62s8.55-27.52,22.68-27.52c7.73,0,12.26,2.68,15.05,6.39m2.78,21.13c0-9.17-4.33-17.63-14.53-17.63-9.59,0-14.33,7.52-14.33,17.63s4.74,17.73,14.33,17.73c10.2,0,14.53-8.35,14.53-17.73"/></svg>