<svg xmlns="http://www.w3.org/2000/svg" width="16" height="16" viewBox="0 0 16 16"><g fill="none" fill-rule="evenodd"><g fill-rule="nonzero"><g><path fill="#3E464C" d="M14 7.067c0-.802-.67-1.451-1.496-1.451-.327.003-.642.111-.898.307-.926-.522-1.965-.827-3.035-.888l.371-2.06c.01-.07.071-.122.144-.122h.042l1.88.557c.057.553.51.989 1.08 1.04.571.05 1.099-.298 1.26-.831.16-.534-.092-1.102-.601-1.357-.51-.255-1.133-.124-1.488.313L9.367 2.04C9.272 2.015 9.173 2 9.074 2c-.508.001-.942.356-1.03.842l-.382 2.193c-1.139.033-2.251.338-3.238.888-.256-.196-.572-.304-.898-.307-.655-.015-1.244.386-1.45.99-.206.602.018 1.265.552 1.633-.006.093-.006.186 0 .279 0 1.92 2.394 3.482 5.387 3.482 2.992 0 5.386-1.561 5.386-3.482.006-.093.006-.186 0-.279.38-.276.603-.711.599-1.172zm-8.978.58c0-.48.402-.87.898-.87s.898.39.898.87-.402.87-.898.87-.898-.39-.898-.87zm4.914 2.577c-.021.08-.075.147-.15.186-1.107.572-2.436.572-3.543 0-.074-.04-.128-.107-.15-.186-.017-.08 0-.164.048-.232l.174-.238c.09-.116.254-.149.383-.076.832.39 1.801.39 2.633 0 .134-.069.3-.029.383.093l.174.238c.043.063.06.14.048.215zm.174-1.706c-.496 0-.898-.39-.898-.87 0-.482.402-.871.898-.871.495 0 .897.39.897.87s-.402.87-.897.87z" transform="translate(-1102 -354) translate(1102 354)"/></g></g></g></svg>