<svg xmlns="http://www.w3.org/2000/svg" width="16" height="16" viewBox="0 0 16 16"><g fill="none" fill-rule="evenodd"><path d="M0 0H16V16H0z"/><path fill="#3E464C" fill-rule="nonzero" d="M13 5.065c-.372.181-.768.3-1.181.36.425-.282.75-.724.902-1.256-.397.262-.834.446-1.3.55C11.044 4.275 10.508 4 9.923 4 8.788 4 7.874 5.02 7.874 6.271c0 .18.014.354.048.518-1.704-.092-3.213-.997-4.226-2.375-.177.34-.28.729-.28 1.148 0 .786.365 1.483.91 1.887-.33-.007-.652-.113-.926-.28v.025c0 1.104.71 2.02 1.643 2.232-.167.05-.35.074-.538.074-.131 0-.264-.008-.388-.038.266.899 1.02 1.56 1.915 1.582-.697.604-1.583.968-2.541.968-.169 0-.33-.008-.491-.031C3.908 12.63 4.984 13 6.145 13c3.773 0 5.835-3.462 5.835-6.462 0-.1-.003-.197-.008-.294.407-.32.75-.719 1.028-1.179z"/></g></svg>