<svg version="1.0" xmlns="http://www.w3.org/2000/svg" width="933.333" height="933.333" viewBox="0 0 700 700"><path d="M336 13.7c-18 10.6-31.5 18.6-34.6 20.3-6.9 3.9-54.6 31.7-64.7 37.6-5.9 3.5-11.2 6.4-11.7 6.4-.6 0-1 .4-1 1 0 .5-.4 1-.8 1-.7 0-12.6 6.6-18.2 10.1-2 1.2-21.5 12.5-26.5 15.4-2.2 1.2-10.7 6.2-19 11-13.5 7.9-19.2 11.2-30.5 17.8-1.9 1.1-4.7 2.7-6.2 3.6-3.4 2-35.3 20.6-42.2 24.6-2.9 1.6-10.3 5.9-16.4 9.5l-11.1 6.5-.1 9.5c-.4 82.2.1 333.5.7 334 .4.4 3.3 2.1 6.3 3.7 5.7 3.2 59.9 34.6 90 52.2 9.6 5.7 19.3 11.4 21.5 12.6 9.5 5.4 63.1 36.6 64.5 37.5.8.5 3.5 2.1 6 3.5 5.3 3 11.7 6.7 25.9 15 5.6 3.3 11 6.4 11.9 7 1 .5 6.5 3.8 12.2 7.1 29.1 17.1 52.5 30.4 53.3 30.4.6 0 1.1-142.4.8-236.7l-.1-21.1-2.8-2.6c-2.7-2.6-24.7-15.6-26.3-15.6-.5 0-.9-.5-.9-1 0-.6-.4-1-.9-1s-4.2-1.9-8.3-4.3c-4-2.4-9.3-5.5-11.8-6.9-2.5-1.4-13.5-7.8-24.5-14.3-11-6.4-22-12.9-24.5-14.3-2.5-1.3-4.9-2.8-5.5-3.2-2-1.5-27.5-16-28.1-16-.3 0-1.7-.9-3-1.9l-2.4-1.9 4.7-3.3c2.7-1.7 6.3-4 8.1-5 11-6.4 82.1-47.7 94.7-55.1 6.1-3.6 15-8.7 19.9-11.4 4.9-2.7 9.6-6 10.5-7.3 1.4-2.2 1.6-15 1.6-128.5 0-69.4-.2-127.3-.5-128.8l-.5-2.7-9.5 5.6zM419.8 53c-.2 2.1-.3 38-.2 79.7.2 68.2.6 91.8 1.7 93 .5.4 17.1-8.2 28.7-15 4.7-2.7 9.9-5.7 11.5-6.7 1.7-.9 15.4-8.8 30.5-17.5 58-33.2 80.9-46.6 80.9-47.5.1-1.2-29.9-20-31.9-20-.6 0-1-.4-1-.8s-1.2-1.3-2.7-2c-1.6-.6-4.1-2-5.8-3-3.6-2.3-35.1-20.5-41.5-24-2.5-1.4-4.9-2.8-5.5-3.2-.5-.4-2.7-1.7-4.8-2.9-2.1-1.2-15-8.6-28.7-16.6-13.7-7.9-26.2-15.1-27.8-15.9l-3-1.5-.4 3.9zM640.5 183.3c-2.2 1.3-8.9 4.9-14.9 8.1-6.1 3.2-12.7 6.9-14.8 8.2-2.1 1.3-3.9 2.4-4.1 2.4-.3 0-6.5 3.4-13.8 7.6-7.4 4.2-15.4 8.7-17.9 10.1-2.5 1.4-15.5 8.8-29 16.5-13.5 7.8-26.1 14.9-28 16-1.9 1.1-4.8 2.7-6.5 3.7-3.1 1.8-60.9 34.7-67.8 38.5-2.1 1.1-4.6 2.6-5.5 3.1-2.3 1.4-22 12.6-25.5 14.5-1.5.8-12.8 7.2-25 14.2-12.2 6.9-24.9 14.1-28.2 15.8-10 5.4-12.5 7.1-11.9 8.1.7 1.1 9.4 6.7 14.9 9.6 3.4 1.7 49.5 27.8 60.2 34 6.4 3.7 31 17.6 36.3 20.6 3 1.6 6.7 3.8 8.2 4.9 1.4 1 2.9 1.8 3.3 1.8.3 0 3.7 1.7 7.3 3.9 3.7 2.1 8.5 4.9 10.7 6.1 2.2 1.3 5.4 3.1 7 4.1 1.7 1 5.7 3.2 9 5 3.3 1.7 7.2 4 8.7 5 1.4 1.1 2.9 1.9 3.2 1.9.3 0 2.9 1.4 5.8 3.1 2.9 1.7 17.6 10.1 32.6 18.6 15 8.5 29 16.3 31 17.5 2 1.2 8.7 4.9 14.8 8.4 6.1 3.4 13 7.4 15.2 8.8 2.3 1.4 4.3 2.6 4.6 2.6.2 0 5.1 2.7 11 6 5.9 3.4 11.8 6.5 13.1 7 2.5.9 2.5.9 2.6-4.8 0-3.1.3-15.6.5-27.7.5-27.2.5-208.1 0-245-.2-14.9-.5-33.9-.6-42.4-.2-14.9-.5-18.1-1.9-18.1-.3 0-2.4 1.1-4.6 2.3zM420.9 474.3c-.8 9-1 23.8-1.2 92.3-.1 44 0 81 .3 82.2.5 2 2.5 1 28-13.6 15.1-8.7 32-18.5 37.5-21.7 5.5-3.2 12-6.9 14.5-8.3 2.5-1.4 6.3-3.7 8.5-5.1 2.2-1.3 6.9-4.1 10.5-6.1 15.3-8.6 21.5-12.2 25.5-14.8 1.1-.6 2.7-1.5 3.5-1.9 1.9-.9 25.4-14.3 25.9-14.8.2-.2-2.2-2-5.2-3.9-4.8-3.1-61.6-36.5-73.2-43.1-2.2-1.2-14.3-8.2-27-15.5-12.6-7.3-25-14.4-27.5-15.8-2.5-1.3-5.8-3.2-7.5-4.2-9.3-5.4-12.5-6.9-12.6-5.7z"/></svg>