<svg width="131" height="128" viewBox="0 0 131 128" fill="none" xmlns="http://www.w3.org/2000/svg">
<g opacity="0.4" filter="url(#filter0_d_1417_566)">
<path fill-rule="evenodd" clip-rule="evenodd" d="M72.2698 81.7469C76.1513 82.3617 80.066 80.859 82.5392 77.8048L97.8306 58.9215C100.304 55.8674 100.96 51.7259 99.5514 48.057L90.8437 25.3725C89.4353 21.7036 86.1766 19.0648 82.295 18.45L58.2959 14.6489C54.4144 14.0342 50.4997 15.5369 48.0265 18.591L32.7351 37.4743C30.2619 40.5284 29.606 44.67 31.0143 48.3389L39.7221 71.0233C41.1304 74.6922 44.3891 77.331 48.2707 77.9458L72.2698 81.7469Z" fill="url(#paint0_linear_1417_566)"/>
</g>
<defs>
<filter id="filter0_d_1417_566" x="0.283691" y="0.513275" width="129.999" height="127.369" filterUnits="userSpaceOnUse" color-interpolation-filters="sRGB">
<feFlood flood-opacity="0" result="BackgroundImageFix"/>
<feColorMatrix in="SourceAlpha" type="matrix" values="0 0 0 0 0 0 0 0 0 0 0 0 0 0 0 0 0 0 127 0" result="hardAlpha"/>
<feOffset dy="16"/>
<feGaussianBlur stdDeviation="15"/>
<feColorMatrix type="matrix" values="0 0 0 0 0.384314 0 0 0 0 0.807843 0 0 0 0 0.552941 0 0 0 0.3 0"/>
<feBlend mode="normal" in2="BackgroundImageFix" result="effect1_dropShadow_1417_566"/>
<feBlend mode="normal" in="SourceGraphic" in2="effect1_dropShadow_1417_566" result="shape"/>
</filter>
<linearGradient id="paint0_linear_1417_566" x1="44" y1="96" x2="17.4808" y2="26.9151" gradientUnits="userSpaceOnUse">
<stop stop-color="#75D49A"/>
<stop offset="1" stop-color="#54CA82"/>
</linearGradient>
</defs>
</svg>