<svg width="16" height="16" viewBox="0 0 16 16" fill="none" xmlns="http://www.w3.org/2000/svg">
<path d="M14.0041 11.4845H1.81035C1.19941 11.4845 0.704102 10.9892 0.704102 10.3782V1.12041C0.704102 0.509473 1.19941 0.0141602 1.81035 0.0141602H14.0057C14.6166 0.0141602 15.1119 0.509473 15.1119 1.12041V10.3782C15.1119 10.9892 14.615 11.4845 14.0041 11.4845Z" fill="#ABB4BE"/>
<path d="M11.3074 2.68135C11.3074 3.15338 11.69 3.53604 12.1621 3.53604C12.6341 3.53604 13.0167 3.15338 13.0167 2.68135C13.0167 2.20932 12.6341 1.82666 12.1621 1.82666C11.69 1.82666 11.3074 2.20932 11.3074 2.68135H11.3074Z" fill="white"/>
<path d="M12.8245 8.2079L10.5948 4.8454C10.5542 4.6829 10.4511 4.53446 10.2932 4.44383C9.987 4.26727 9.59637 4.37196 9.41981 4.67821L8.17137 6.84071L6.12762 3.30321C6.0745 3.17977 5.98387 3.07196 5.85887 3.00008C5.55262 2.82352 5.162 2.92821 4.98544 3.23446L3.49168 5.82352H3.49481L0.758872 10.561C0.58231 10.8673 0.686997 11.2579 0.993247 11.4345C1.2995 11.611 1.69012 11.5063 1.86668 11.2001L5.21669 5.39852C5.22762 5.38133 5.237 5.36258 5.24481 5.34383L5.537 4.83758L7.59481 8.40165C7.69481 8.57352 7.862 8.6829 8.04325 8.71258C8.31043 8.77508 8.5995 8.65946 8.74325 8.40946L9.95887 6.30321L11.7151 8.84696C11.8917 9.15321 12.2839 9.2579 12.5886 9.08133C12.8964 8.90477 13.0011 8.51415 12.8245 8.2079Z" fill="white"/>
</svg>
