<svg width="16" height="16" viewBox="0 0 16 16" fill="none" xmlns="http://www.w3.org/2000/svg">
<path fill-rule="evenodd" clip-rule="evenodd" d="M9.87552 4.39883H13.4245V7.0655H2.50297V0.67334H9.77748L9.87552 4.39883ZM10.1696 3.98707V0.67334L13.4245 3.98707H10.1696ZM3.98007 10.2117H3.61897V11.2069H4.15003C4.48987 11.2069 4.65984 11.0289 4.65984 10.6728C4.65984 10.3657 4.43317 10.2117 3.98007 10.2117ZM0.679443 14.34V8.0655H15.2677V14.34H0.679443ZM4.25623 12.2508H3.61897V13.6344H2.34446V9.16785H4.21372C5.30399 9.18416 5.86329 9.68597 5.89184 10.6729C5.87756 11.7087 5.33231 12.2348 4.25623 12.2508ZM7.52752 12.2508H8.16478C9.24078 12.2348 9.78611 11.7087 9.80046 10.6729C9.77183 9.68597 9.21262 9.18416 8.12234 9.16785H6.25301V13.6344H7.52752V12.2508ZM13.6027 10.333H12.4556V13.6344H11.1598V10.333H10.0128V9.16785H13.6027V10.333ZM7.52752 10.2117H7.88862C8.34164 10.2117 8.56838 10.3657 8.56838 10.6728C8.56838 11.0289 8.39842 11.2069 8.05858 11.2069H7.52752V10.2117Z" fill="#ABB4BE"/>
</svg>
