<svg xmlns="http://www.w3.org/2000/svg" xmlns:xlink="http://www.w3.org/1999/xlink" width="12" height="12" version="1.1" viewBox="0 0 12 12"><title>icon / time</title><desc>Created with Sketch.</desc><g id="页面1" fill="none" fill-rule="evenodd" stroke="none" stroke-width="1"><g id="开源社区/学堂" transform="translate(-172.000000, -3549.000000)"><g id="编组备份-4" transform="translate(140.000000, 3444.000000)"><g id="编组-17"><g id="编组-23"><g id="icon-/-time" transform="translate(30.000000, 103.000000)"><g id="编组-25"><g><rect id="矩形" width="16" height="16" x="0" y="0"/><g id="时间" fill="#CCD3DB" fill-rule="nonzero" transform="translate(2.000000, 2.000000)"><path id="形状" d="M5.97922585,0.0119850852 C2.68332741,0.0119850852 0.0119850852,2.68332741 0.0119850852,5.97922585 C0.0119850852,9.27512429 2.68465909,11.9477983 5.98055753,11.9477983 C9.27645597,11.9477983 11.9477983,9.27645597 11.9477983,5.97922585 C11.9477983,2.68332741 9.27645597,0.0119850852 5.97922585,0.0119850852 Z M8.36958452,8.24440696 C8.26571378,8.37091619 8.11523438,8.4375 7.96209162,8.4375 C7.84490412,8.4375 7.72771662,8.39888139 7.62917259,8.31898082 L5.56507457,6.63041548 C5.44291699,6.53094639 5.37198153,6.38178704 5.37198153,6.22425426 L5.37198153,3.75799006 C5.37198153,3.46768466 5.60768821,3.23197798 5.89799361,3.23197798 C6.18829901,3.23197798 6.42400568,3.46768466 6.42400568,3.75799006 L6.42400568,5.97389915 L8.29634233,7.5053267 C8.52006392,7.68909801 8.55335582,8.02068537 8.36958452,8.24440696 L8.36958452,8.24440696 Z"/></g></g></g></g></g></g></g></g></g></svg>