<svg xmlns="http://www.w3.org/2000/svg" width="24" height="24" viewBox="0 0 24 24"><g fill="none" fill-rule="evenodd"><g><g><g><g><g><g><path d="M0 0H24V24H0z" transform="translate(-1103 -196) translate(931 127) translate(24 24) translate(110 34) translate(38 11)"/><g fill="#00A971" fill-rule="nonzero"><path d="M19.137 5.598h-5.324L13.666.01H2.755v9.588h16.382v-4zM14.255.01v4.97h4.882L14.255.01zM4.97 14.318H4.43v1.492h.796c.51 0 .765-.266.765-.8 0-.461-.34-.692-1.02-.692zm-4.95-3.22v9.412h21.882v-9.412H.019zm5.364 6.278H4.43v2.076H2.517v-6.7H5.32c1.635.024 2.474.777 2.517 2.257-.022 1.554-.84 2.343-2.454 2.367zm5.863 0h-.956v2.076H8.38v-6.7h2.804c1.635.024 2.474.777 2.517 2.257-.022 1.554-.84 2.343-2.454 2.367zm8.157-2.876h-1.72v4.952H15.74V14.5h-1.72v-1.748h5.384V14.5zm-8.57-.182h-.543v1.492h.797c.51 0 .765-.266.765-.8 0-.461-.34-.692-1.02-.692z" transform="translate(-1103 -196) translate(931 127) translate(24 24) translate(110 34) translate(38 11) translate(1 1)"/></g></g></g></g></g></g></g></g></svg>