<svg xmlns="http://www.w3.org/2000/svg" width="24" height="24" viewBox="0 0 24 24"><g fill="none" fill-rule="evenodd"><g><g><g><g><g><path d="M0 0H24V24H0z" transform="translate(-993 -321) translate(931 127) translate(24 150) translate(0 34) translate(38 10)"/><g fill-rule="nonzero"><path fill="#8F94A1" d="M20.006 17.227H1.716c-.917 0-1.66-.743-1.66-1.66V1.68C.056.764.8.021 1.716.021h18.293c.916 0 1.659.743 1.659 1.66v13.886c0 .917-.745 1.66-1.662 1.66z" transform="translate(-993 -321) translate(931 127) translate(24 150) translate(0 34) translate(38 10) translate(1 3)"/><path fill="#FFF" d="M15.96 4.022c0 .708.575 1.282 1.283 1.282s1.282-.574 1.282-1.282c0-.708-.574-1.282-1.282-1.282-.708 0-1.282.574-1.282 1.282zM18.237 12.312l-3.345-5.044c-.06-.244-.215-.466-.452-.602-.46-.265-1.045-.108-1.31.351l-1.873 3.244-3.066-5.306c-.08-.185-.215-.347-.403-.455-.46-.265-1.045-.108-1.31.352l-2.24 3.883h.004L.138 15.841c-.265.46-.108 1.046.352 1.31.46.265 1.045.108 1.31-.351l5.025-8.702c.016-.026.03-.054.042-.082l.438-.76 3.087 5.346c.15.258.401.422.673.467.4.093.834-.08 1.05-.455l1.823-3.16 2.635 3.816c.264.46.853.617 1.31.352.462-.265.619-.85.354-1.31z" transform="translate(-993 -321) translate(931 127) translate(24 150) translate(0 34) translate(38 10) translate(1 3)"/></g></g></g></g></g></g></g></svg>