<svg width="12" height="12" viewBox="0 0 12 12" fill="none" xmlns="http://www.w3.org/2000/svg">
<path fill-rule="evenodd" clip-rule="evenodd" d="M0 6C0 2.67273 2.67273 0 6 0C9.32727 0 12 2.67273 12 6C12 9.32727 9.32727 12 6 12C2.67273 12 0 9.32727 0 6ZM4.77286 8.42732L8.59104 6.2455C8.72741 6.16368 8.78195 6.00004 8.67286 5.89095C8.64559 5.83641 8.61831 5.80914 8.56377 5.78186L4.77286 3.60004C4.69104 3.57277 4.60922 3.57277 4.52741 3.60004C4.47286 3.60004 4.41831 3.65459 4.39104 3.70914C4.36377 3.73641 4.36377 3.76368 4.36377 3.81823V8.18186C4.36377 8.23641 4.36377 8.29095 4.39104 8.31823C4.47286 8.45459 4.6365 8.50914 4.77286 8.42732Z" fill="#4CA986"/>
</svg>
