<svg xmlns="http://www.w3.org/2000/svg" width="92" height="63" viewBox="0 0 92 63"><g fill="none" fill-rule="evenodd" opacity=".6"><g fill-rule="nonzero"><g><g fill="#CDF6D5"><path d="M24.748 26.799L30.748 26.799 30.748 48.001 24.748 48.001z" transform="translate(-613 -1535) translate(613 1535) translate(52.2 13.8)"/><path d="M7.774 -2.599L13.773 -2.599 13.773 18.602 7.774 18.602z" transform="translate(-613 -1535) translate(613 1535) translate(52.2 13.8) rotate(-59.999 10.774 8.002)"/></g><path fill="#CDF6D5" d="M9.052 40.599L15.052 40.599 15.052 61.801 9.052 61.801z" transform="translate(-613 -1535) translate(613 1535)"/><path fill="#CDF6D5" d="M18.424 18.8L39.626 18.8 39.626 24.8 18.424 24.8z" transform="translate(-613 -1535) translate(613 1535) rotate(-30.001 29.025 21.8)"/><path fill="#4CA986" d="M46 0l-7.263 12L46 24c6.617 0 12-5.383 12-12S52.617 0 46 0z" transform="translate(-613 -1535) translate(613 1535)"/><path fill="#86DBA2" d="M34 12c0 6.617 5.383 12 12 12V0c-6.617 0-12 5.383-12 12z" transform="translate(-613 -1535) translate(613 1535)"/><path fill="#4CA986" d="M12.048 19.596l-7.263 12 7.263 12c6.617 0 12-5.383 12-12s-5.383-12-12-12z" transform="translate(-613 -1535) translate(613 1535)"/><path fill="#86DBA2" d="M.048 31.596c0 6.617 5.383 12 12 12v-24c-6.617 0-12 5.383-12 12z" transform="translate(-613 -1535) translate(613 1535)"/><path fill="#4CA986" d="M12.048 58.804l-7.263 12 7.263 12c6.617 0 12-5.383 12-12s-5.383-12-12-12z" transform="translate(-613 -1535) translate(613 1535)"/><path fill="#86DBA2" d="M.048 70.804c0 6.617 5.383 12 12 12v-24c-6.617 0-12 5.383-12 12z" transform="translate(-613 -1535) translate(613 1535)"/><path fill="#4CA986" d="M79.952 58.804l-7.263 12 7.263 12c6.617 0 12-5.383 12-12s-5.383-12-12-12z" transform="translate(-613 -1535) translate(613 1535)"/><path fill="#86DBA2" d="M67.952 70.804c0 6.617 5.383 12 12 12v-24c-6.617 0-12 5.383-12 12z" transform="translate(-613 -1535) translate(613 1535)"/><path fill="#4CA986" d="M79.952 19.595l-7.263 12 7.263 12c6.617 0 12-5.383 12-12s-5.383-12-12-12z" transform="translate(-613 -1535) translate(613 1535)"/><path fill="#86DBA2" d="M67.952 31.595c0 6.617 5.383 12 12 12v-24c-6.617 0-12 5.383-12 12zM46 30.036L37 51.2 46 72.364 64.329 61.782 64.329 40.618z" transform="translate(-613 -1535) translate(613 1535)"/><path fill="#CDF6D5" d="M27.671 40.618L27.671 61.782 46 72.364 46 30.036z" transform="translate(-613 -1535) translate(613 1535)"/></g></g></g></svg>