<svg xmlns="http://www.w3.org/2000/svg" xmlns:xlink="http://www.w3.org/1999/xlink" width="10" height="12" version="1.1" viewBox="0 0 10 12"><title>icon/position</title><desc>Created with Sketch.</desc><g id="页面1" fill="none" fill-rule="evenodd" stroke="none" stroke-width="1"><g id="开源社区/学堂" transform="translate(-173.000000, -3521.000000)"><g id="编组备份-4" transform="translate(140.000000, 3444.000000)"><g id="编组-17"><g id="编组-23"><g id="icon/position" transform="translate(30.000000, 75.000000)"><g id="编组-25"><g><rect id="矩形" width="16" height="16" x="0" y="0"/><path id="形状" fill="#CCD3DB" fill-rule="nonzero" d="M7.83072917,2 C9.69325521,2 11.1770833,3.50986979 11.1770833,5.37239583 C11.1770833,6.31709635 10.7490234,7.17259115 9.89291667,7.93885417 C9.8071875,8.01558594 9.79989583,8.14729167 9.87664062,8.23302083 C9.90044324,8.25961979 9.93068071,8.27965704 9.96445312,8.29121094 L11.6045573,8.85209635 C12.2367187,9.06828125 12.6614583,9.66244792 12.6614583,10.3305339 L12.6614583,12 C12.6614583,12.9204688 11.9152604,13.6666667 10.9947917,13.6666667 L4.66666667,13.6666667 C3.74619792,13.6666667 3,12.9204688 3,12 L3,10.3305339 C3,9.66244792 3.4247526,9.06828125 4.05690104,8.85209635 L5.69700521,8.29121094 C5.8058724,8.25397135 5.86394531,8.13553385 5.82671875,8.02666667 C5.81516855,7.99289565 5.79513587,7.96265831 5.76854167,7.93885417 C4.91242187,7.17257813 4.484375,6.31710938 4.484375,5.37239583 C4.484375,3.50986979 5.96820312,2 7.83072917,2 Z M7.83072917,9.8515625 C7.57184896,9.8515625 7.36197917,10.0614323 7.36197917,10.3203125 L7.36197917,11.4661458 C7.36197917,11.725026 7.57184896,11.9348958 7.83072917,11.9348958 C8.08960937,11.9348958 8.29947917,11.725026 8.29947917,11.4661458 L8.29947917,10.3203125 C8.29947917,10.0614323 8.08960937,9.8515625 7.83072917,9.8515625 Z"/></g></g></g></g></g></g></g></g></svg>