<svg xmlns="http://www.w3.org/2000/svg" xmlns:xlink="http://www.w3.org/1999/xlink" width="14" height="14" version="1.1" viewBox="0 0 14 14"><title>时间</title><desc>Created with Sketch.</desc><g id="页面1" fill="none" fill-rule="evenodd" stroke="none" stroke-width="1"><g id="开源社区/学堂/图文讲解" fill-rule="nonzero" transform="translate(-166.000000, -149.000000)"><g id="编组-19" transform="translate(135.000000, 126.000000)"><g id="编组-15" transform="translate(30.000000, 20.000000)"><g id="时间" transform="translate(0.000000, 2.000000)"><rect id="矩形" width="16" height="16" x="0" y="0" fill="#000" opacity="0"/><path id="形状" fill="#919AA3" d="M8,1.33328125 C4.318125,1.33328125 1.33328125,4.318125 1.33328125,8 C1.33328125,11.681875 4.318125,14.6667188 8,14.6667188 C11.681875,14.6667188 14.6667188,11.681875 14.6667188,8 C14.6667188,4.318125 11.681875,1.33328125 8,1.33328125 Z M8,13.3332813 C5.05921875,13.3332813 2.66671875,10.9407812 2.66671875,8 C2.66671875,5.05921875 5.05921875,2.66671875 8,2.66671875 C10.9407812,2.66671875 13.3332813,5.05921875 13.3332813,8 C13.3332813,10.9407812 10.9407812,13.3332813 8,13.3332813 Z M8,4 L6.66671875,4 L6.66671875,9.33328125 L11.3332813,9.33328125 L11.3332813,8 L8,8 L8,4 Z"/></g></g></g></g></g></svg>