<svg xmlns="http://www.w3.org/2000/svg" xmlns:xlink="http://www.w3.org/1999/xlink" width="12" height="12" version="1.1" viewBox="0 0 12 12"><title>视频</title><desc>Created with Sketch.</desc><g id="页面1" fill="none" fill-rule="evenodd" stroke="none" stroke-width="1"><g id="开源社区/学堂/图文讲解" fill="#666" fill-rule="nonzero" transform="translate(-1164.000000, -157.000000)"><g id="编组-21" transform="translate(931.000000, 127.000000)"><g id="编组-36" transform="translate(24.000000, 24.000000)"><g id="编组-19"><g id="视频" transform="translate(209.000000, 6.000000)"><path id="形状" d="M6,0 C2.67272727,0 0,2.67272727 0,6 C0,9.32727273 2.67272727,12 6,12 C9.32727273,12 12,9.32727273 12,6 C12,2.67272727 9.32727273,0 6,0 Z M8.59090909,6.24545455 L4.77272727,8.42727273 C4.63636363,8.50909091 4.47272727,8.45454546 4.39090909,8.31818182 C4.36363636,8.29090909 4.36363636,8.23636364 4.36363636,8.18181818 L4.36363636,3.81818182 C4.36363636,3.76363637 4.36363636,3.73636364 4.39090909,3.70909091 C4.41818182,3.65454546 4.47272727,3.6 4.52727273,3.6 C4.60909091,3.57272727 4.69090909,3.57272727 4.77272727,3.6 L8.56363636,5.78181818 C8.61818181,5.80909091 8.64545454,5.83636363 8.67272727,5.89090909 C8.78181818,6 8.72727272,6.16363636 8.59090909,6.24545455 L8.59090909,6.24545455 Z"/></g></g></g></g></g></g></svg>