<svg xmlns="http://www.w3.org/2000/svg" width="641" height="533" viewBox="0 0 641 533"><path fill="#D5DEE7" fill-rule="evenodd" d="M158.163-130.828c27.791-18.048 64.951-10.15 82.999 17.642L341.315 41.036c11.684 17.992 12.873 40.852 3.12 59.959l-30.658 60.055c-4.71 9.227-6.9 19.534-6.35 29.88 1.725 32.452 29.432 57.36 61.884 55.635l67.333-3.58c21.422-1.14 41.822 9.245 53.506 27.237L590.3 424.44c5.728 8.82 9.037 18.99 9.596 29.49 1.76 33.09-23.637 61.343-56.728 63.103l-285.465 15.187c-21.423 1.14-41.824-9.245-53.508-27.237L10.545 206.79c-11.684-17.992-12.873-40.852-3.12-59.958l129.977-254.62c4.781-9.367 11.941-17.312 20.761-23.04zm424.752-22.198c27.792-18.048 64.951-10.15 83 17.642L783.338 45.435c5.72 8.807 9.028 18.962 9.593 29.448 1.784 33.089-23.593 61.36-56.682 63.143l-215.854 11.639c-10.578.57-21.118-1.67-30.55-6.494-29.503-15.088-41.188-51.236-26.1-80.739l98.429-192.458c4.781-9.35 11.933-17.28 20.74-23zm-292.927-53.748l216.719-11.978-99.09 193.111-117.629-181.133z" opacity=".542"/></svg>