<?xml version="1.0" encoding="UTF-8"?><svg xmlns="http://www.w3.org/2000/svg" xmlns:xlink="http://www.w3.org/1999/xlink" viewBox="0 0 286.88 313.94"><defs><style>.e{fill:none;stroke:url(#d);stroke-linecap:round;stroke-linejoin:round;stroke-width:1.5px;}</style><linearGradient id="d" x1="29.51" y1="46.28" x2="245.93" y2="262.69" gradientTransform="matrix(1, 0, 0, 1, 0, 0)" gradientUnits="userSpaceOnUse"><stop offset="0" stop-color="#f3d92e"/><stop offset=".31" stop-color="#97c87a"/><stop offset=".51" stop-color="#63bfa6"/><stop offset="1" stop-color="#2d6fb7"/></linearGradient></defs><g id="a"/><g id="b"><g id="c"><path class="e" d="M115.94,241c-15.69,0-28.4,12.72-28.4,28.4s12.72,28.4,28.4,28.4,28.4-12.72,28.4-28.4-12.72-28.4-28.4-28.4Zm0,0c-10.86,0-19.67,12.72-19.67,28.4s8.81,28.4,19.67,28.4,19.67-12.72,19.67-28.4-8.81-28.4-19.67-28.4Zm-9.3,38.65c1.44,10.62,5.06,18.16,9.3,18.16s7.85-7.5,9.29-18.1m.64-12.9c-.46-14.47-4.73-25.81-9.93-25.81s-9.47,11.34-9.93,25.81m9.93,12.9v17.84m0-56.55v18.46m28.4,9.94c0-10.86-12.72-19.67-28.4-19.67s-28.4,8.81-28.4,19.67,12.72,19.67,28.4,19.67,28.4-8.81,28.4-19.67Zm0,0c0-5.51-12.72-9.97-28.4-9.97s-28.4,4.46-28.4,9.97,12.72,9.97,28.4,9.97,28.4-4.46,28.4-9.97Zm-42.34,0h-14.21m56.55,0h-14.48M63.65,180.27h0c0,7.47-6.06,13.53-13.53,13.53H14.57c-7.47,0-13.53-6.06-13.53-13.53h0c0-7.09,5.46-12.9,12.4-13.47,1.64-8.95,9.48-15.73,18.91-15.73s17.26,6.78,18.91,15.73c6.94,.57,12.4,6.39,12.4,13.47ZM196.6,78.43h0c0,7.18-5.82,13-13,13h-34.17c-7.18,0-13-5.82-13-13h0c0-6.81,5.24-12.4,11.92-12.95,1.58-8.6,9.11-15.12,18.17-15.12s16.59,6.52,18.17,15.12c6.67,.55,11.92,6.14,11.92,12.95Zm42.81,170.25h0c0,6.19-5.02,11.21-11.21,11.21h-29.48c-6.19,0-11.21-5.02-11.21-11.21h0c0-5.88,4.52-10.7,10.28-11.17,1.36-7.42,7.86-13.04,15.68-13.04s14.31,5.62,15.68,13.04c5.76,.48,10.28,5.29,10.28,11.17ZM28.12,180.26c0-7.47-6.06-13.53-13.53-13.53-.74,0-1.46,.06-2.17,.17m127.6-30.42h0c0,4.98-4.03,9.01-9.01,9.01h-23.69c-4.98,0-9.01-4.03-9.01-9.01h0c0-4.72,3.63-8.6,8.26-8.98,1.09-5.96,6.32-10.48,12.6-10.48s11.5,4.52,12.6,10.48c4.62,.38,8.26,4.25,8.26,8.98Zm13.97,28.15h0c0,2.97-2.41,5.38-5.38,5.38h-14.14c-2.97,0-5.38-2.41-5.38-5.38h0c0-2.82,2.17-5.13,4.93-5.36,.65-3.56,3.77-6.26,7.52-6.26s6.87,2.7,7.52,6.26c2.76,.23,4.93,2.54,4.93,5.36ZM175.72,12.37h0c0,2.97-2.41,5.38-5.38,5.38h-14.14c-2.97,0-5.38-2.41-5.38-5.38h0c0-2.82,2.17-5.13,4.93-5.36,.65-3.56,3.77-6.26,7.52-6.26s6.87,2.7,7.52,6.26c2.76,.23,4.93,2.54,4.93,5.36Zm14.78,189.14h0c0,2.48-2.01,4.49-4.49,4.49h-11.82c-2.48,0-4.49-2.01-4.49-4.49h0c0-2.36,1.81-4.29,4.12-4.48,.55-2.97,3.15-5.23,6.28-5.23s5.74,2.25,6.28,5.23c2.31,.19,4.12,2.12,4.12,4.48Zm21.42-155.8V24.82l-18.09-10.44-18.09,10.44v20.89l18.09,10.44,18.09-10.44Zm-30.22-17.16l12.13,7,12.13-7m-12.13,7v13.67m-67.03,38.3v-9.28l-8.04-4.64-8.04,4.64v9.28l8.04,4.64,8.04-4.64Zm-16.07-9.28l8.04,4.69,8.04-4.69m-8.04,4.69v9.23m-.03,9.24v-9.28l-8.04-4.64-8.04,4.64v9.28l8.04,4.64,8.04-4.64Zm-16.07-9.28l8.04,4.69,8.04-4.69m-8.04,4.69v9.23m24.17-4.6v-9.28l-8.04-4.64-8.04,4.64v9.28l8.04,4.64,8.04-4.64Zm-16.07-9.28l8.04,4.69,8.04-4.69m-8.04,4.69v9.23m130.74,74.96c-3.82,0-6.92,12.79-6.92,28.56s3.1,28.56,6.92,28.56,6.92-12.79,6.92-28.56-3.1-28.56-6.92-28.56Zm20.19,8.36c-2.7-2.7-13.93,4.15-25.08,15.3-11.15,11.15-18,22.38-15.3,25.08,2.7,2.7,13.93-4.15,25.08-15.3,11.15-11.15,18-22.38,15.3-25.08Zm0,40.39c2.7-2.7-4.15-13.93-15.3-25.08-11.15-11.15-22.38-18-25.08-15.3-2.7,2.7,4.15,13.93,15.3,25.08,11.15,11.15,22.38,18,25.08,15.3Zm8.36-20.19c0-3.82-12.79-6.92-28.56-6.92s-28.56,3.1-28.56,6.92,12.79,6.92,28.56,6.92,28.56-3.1,28.56-6.92Zm-79.97-28.67h-52.13v35.96h52.13v-35.96Zm-2.85,3.09h-46.42v29.77h46.42v-29.77Zm-23.21,32.87c-6.89,0-12.9,3.72-16.18,9.25h32.37c-3.28-5.53-9.29-9.25-16.18-9.25ZM74.11,47.53c-6.96-.95-12.45-2.94-16.36-5.91-5.44,3.68-10.88,5.71-16.2,6.05v19.59c0,5.42,5.49,10.84,16.32,16.12,10.78-4.75,16.25-10.18,16.25-16.12v-19.73Zm-24.03,12.64l6.2,7.01,10.05-12.35m219.73,111.88v-38.76c0-1.82-1.48-3.3-3.3-3.3h-33.75c-1.82,0-3.3,1.48-3.3,3.3v38.76c0,1.82,1.48,3.3,3.3,3.3h33.75c1.82,0,3.3-1.48,3.3-3.3Zm.01-26.94h-40.36m40.36,15.12h-40.36m15.72-24.34h-10.73v3.33h10.73v-3.33Zm0,15.12h-10.73v3.33h10.73v-3.33Zm0,15.12h-10.73v3.33h10.73v-3.33ZM49.24,203.86c-13.04,0-23.6,3.68-23.6,8.21s10.57,8.21,23.6,8.21,23.6-3.68,23.6-8.21-10.57-8.21-23.6-8.21Zm-23.6,8.21v35.14c0,3.63,6.76,6.71,16.13,7.79m-16.13-31.23c0,4.54,10.57,8.21,23.6,8.21m-23.6,3.49c0,4.08,8.55,7.47,19.76,8.11m27.44-31.53v18.43m2.25,12.14c-.92-4.99-5.29-8.77-10.54-8.77s-9.63,3.78-10.54,8.77c-3.87,.32-6.91,3.56-6.91,7.52h0c0,4.17,3.38,7.54,7.54,7.54h19.83c4.17,0,7.54-3.38,7.54-7.54h0c0-3.95-3.04-7.2-6.91-7.52Zm-11.67,10.97l4.25-6.51h-6.25l3.98-6.11m135.14-110.2v-28.27c0-1.74-1.41-3.15-3.15-3.15h-44.94c-1.74,0-3.15,1.41-3.15,3.15v28.27m0-23h51.23m-44.82-5.41c-.81,0-1.47,.66-1.47,1.47s.66,1.47,1.47,1.47,1.47-.66,1.47-1.47-.66-1.47-1.47-1.47Zm5.54,0c-.81,0-1.47,.66-1.47,1.47s.66,1.47,1.47,1.47,1.47-.66,1.47-1.47-.66-1.47-1.47-1.47Zm5.54,0c-.81,0-1.47,.66-1.47,1.47s.66,1.47,1.47,1.47,1.47-.66,1.47-1.47-.66-1.47-1.47-1.47Zm-7.56,11.32h-4.99v4.23h4.99v-4.23Zm2.29,.25h34.06m-34.06,3.57h18.87m-21.16,6.21h-4.99v4.23h4.99v-4.23Zm2.29,.25h34.06m-34.06,3.57h18.87m-.74,45.45v-20.85h6.89l-12.29-15.47-12.29,15.47h6.89v20.85h10.8ZM95.09,83.86v-13.02h4.3l-7.67-9.66-7.67,9.66h4.3v13.02h6.74Zm88.61,206.83v-13.82h5.39l-9.61-12.1-9.62,12.1h5.39v13.82h8.45Zm-7.49-21.98v-11.2h5.39l-9.61-12.1-9.62,12.1h5.39v37.57h8.45v-4.2m19.87-135.64l-6.19,5.9v12.55h6.19v-18.45Zm11.67-5.63l-6.19,5.9v18.18h6.19v-24.08Zm11.67-6.29l-6.19,5.9v24.47h6.19v-30.37Zm11.67-5.79l-6.19,5.9v30.26h6.19v-36.16Zm-41.18,17.64l5.9-5.23,2.78,2.59,11.38-11.12,2.69,2.34,9.66-9.25,2.62,2.59,6.16-5.92m.13,3.61v-3.78h-3.86m-198.77-7c5.2,0,9.41-4.21,9.41-9.41s-4.21-9.41-9.41-9.41c-1.03,0-2.02,.17-2.95,.47m10.26,35.69h8.41c0-9.58-7.24-17.35-16.18-17.35m-10.16-21.9c-5.64,0-10.21,4.57-10.21,10.21s4.57,10.21,10.21,10.21,10.21-4.57,10.21-10.21-4.57-10.21-10.21-10.21Zm17.93,39.25c0-10.4-7.86-18.83-17.56-18.83S.75,130.96,.75,141.36H35.87Zm-20.96-18.49l1.87,2.83-2.06,7.36,3.22,2.37,3.22-2.37-2.06-7.36,1.87-2.83m91.84,36.13l-19.54-10.26-19.54,10.26,19.54,10.26,19.54-10.26Zm-34.17,2.57l-4.9,2.57,19.54,10.26,19.54-10.26-4.9-2.57m-29.27,5.15l-4.9,2.57,19.54,10.26,19.54-10.26-4.9-2.57m-29.27,5.15l-4.9,2.57,19.54,10.26,19.54-10.26-4.9-2.57m115.55,78.24v-11.56l-10.01-5.78-10.01,5.78v11.56l10.01,5.78,10.01-5.78Zm-11.49-10.79h-3.97v3.63h3.97v-3.63Zm6.93,0h-3.97v3.63h3.97v-3.63Zm-6.93,6.4h-3.97v3.63h3.97v-3.63Zm6.93,0h-3.97v3.63h3.97v-3.63ZM162.72,62.9h-6.92v6.92m0-6.92l7.81,7.81m13.61-.89v-6.92h-6.92m6.92,0l-7.81,7.81m.89,13.01h6.92v-6.92m0,6.92l-7.81-7.81m-13.61,.89v6.92h6.92m-6.92,0l7.81-7.81M122.83,1.56c-3.32,0-6.01,2.69-6.01,6.01s2.69,6.01,6.01,6.01,6.01-2.69,6.01-6.01-2.69-6.01-6.01-6.01Zm-25.3,35.29c-3.32,0-6.01,2.69-6.01,6.01s2.69,6.01,6.01,6.01,6.01-2.69,6.01-6.01-2.69-6.01-6.01-6.01Zm19.33-28.6c-10.68,2.44-18.9,11.29-20.45,22.28m52.99,6.46c.09-.89,.14-1.79,.14-2.71,0-10.42-5.98-19.43-14.68-23.83m-34.77,37.84c4.7,7.62,13.13,12.7,22.74,12.7,7.29,0,13.88-2.93,18.7-7.66m6.58-16.49c-3.32,0-6.01,2.69-6.01,6.01s2.69,6.01,6.01,6.01,6.01-2.69,6.01-6.01-2.69-6.01-6.01-6.01Zm-8.88-5.76c0-7.11-5.76-12.87-12.87-12.87v12.87h12.87Zm-16.68,3.71v-15.56c-8.6,0-15.56,6.97-15.56,15.56s6.97,15.56,15.56,15.56,15.56-6.97,15.56-15.56h-15.56ZM62.78,114.24s-.85-3.41-1.82-5.79c-.97-2.37-4.05-2.08-4.05-2.08v13.36c0,3.08,4.1,8.75,4.1,8.75h8.75v-5.53c0-2.03-1.67-5.82-2.84-8.22-.59-1.22-2.05-1.73-3.28-1.16h0c-1.2,.55-1.75,1.95-1.27,3.17l2.06,5.18m15.97,0l2.06-5.18c.49-1.23-.07-2.62-1.27-3.17h0c-1.23-.57-2.69-.05-3.28,1.16-1.17,2.4-2.84,6.19-2.84,8.22v5.53h8.75s4.1-5.67,4.1-8.75v-13.36s-3.08-.29-4.05,2.08c-.97,2.37-1.82,5.79-1.82,5.79m-5.89-13.16c-1.04,0-2.05,.4-2.8,1.12l-.95,.91-.94-.91c-1.57-1.49-4.04-1.49-5.61,0-1.5,1.43-1.55,3.79-.13,5.29,.04,.04,.09,.09,.13,.13l6.55,6.32,6.55-6.32c1.5-1.43,1.55-3.79,.13-5.29-.04-.04-.09-.09-.13-.13-.76-.72-1.76-1.12-2.81-1.12h.01Zm-3.76-10.21c-13.53,0-24.49,10.97-24.49,24.49s10.97,24.49,24.49,24.49,24.49-10.97,24.49-24.49-10.97-24.49-24.49-24.49Zm-40.96,2.37c2.21,0,4-1.79,4-4s-1.79-4-4-4-4,1.79-4,4,1.79,4,4,4Zm-3.52-13.45c3.14,0,5.69-2.55,5.69-5.69s-2.55-5.69-5.69-5.69-5.69,2.55-5.69,5.69,2.55,5.69,5.69,5.69Zm-20.13-1.09c2.21,0,4-1.79,4-4s-1.79-4-4-4-4,1.79-4,4,1.79,4,4,4Zm21.7,.86l1.08,5.76m-8.33-11.64l-10.46,.42M78.95,26.89c-2.07,0-3.75,1.68-3.75,3.75s1.68,3.75,3.75,3.75,3.75-1.68,3.75-3.75-1.68-3.75-3.75-3.75Zm152.05,13.31c-3.32,0-6.02,2.69-6.02,6.02s2.69,6.02,6.02,6.02,6.02-2.69,6.02-6.02-2.69-6.02-6.02-6.02Zm-10.56,146.47c-3.32,0-6.02,2.69-6.02,6.02s2.69,6.02,6.02,6.02,6.02-2.69,6.02-6.02-2.69-6.02-6.02-6.02Zm61.9-9.51c-2.08,0-3.77,1.69-3.77,3.77s1.69,3.77,3.77,3.77,3.77-1.69,3.77-3.77-1.69-3.77-3.77-3.77Zm-145.76,.7c-3.32,0-6.02,2.69-6.02,6.02s2.69,6.02,6.02,6.02,6.02-2.69,6.02-6.02-2.69-6.02-6.02-6.02Zm-62.39,87.02c-3.32,0-6.02,2.69-6.02,6.02s2.69,6.02,6.02,6.02,6.02-2.69,6.02-6.02-2.69-6.02-6.02-6.02ZM6.77,226.08c-3.32,0-6.02,2.69-6.02,6.02s2.69,6.02,6.02,6.02,6.02-2.69,6.02-6.02-2.69-6.02-6.02-6.02ZM209.48,66.94c-2.07,0-3.75,1.68-3.75,3.75s1.68,3.75,3.75,3.75,3.75-1.68,3.75-3.75-1.68-3.75-3.75-3.75Zm4.12,52.18c-2.07,0-3.75,1.68-3.75,3.75s1.68,3.75,3.75,3.75,3.75-1.68,3.75-3.75-1.68-3.75-3.75-3.75Zm-62.71,112.62c-2.07,0-3.75,1.68-3.75,3.75s1.68,3.75,3.75,3.75,3.75-1.68,3.75-3.75-1.68-3.75-3.75-3.75Zm53.76,38.41c-2.07,0-3.75,1.68-3.75,3.75s1.68,3.75,3.75,3.75,3.75-1.68,3.75-3.75-1.68-3.75-3.75-3.75ZM4.5,201.73c-2.07,0-3.75,1.68-3.75,3.75s1.68,3.75,3.75,3.75,3.75-1.68,3.75-3.75-1.68-3.75-3.75-3.75Zm12.24,11.26c-2.07,0-3.75,1.68-3.75,3.75s1.68,3.75,3.75,3.75,3.75-1.68,3.75-3.75-1.68-3.75-3.75-3.75Zm123.31,88.75c-3.16,0-5.72,2.56-5.72,5.72s2.56,5.72,5.72,5.72,5.72-2.56,5.72-5.72-2.56-5.72-5.72-5.72Zm18.61-1.7c-2.07,0-3.75,1.68-3.75,3.75s1.68,3.75,3.75,3.75,3.75-1.68,3.75-3.75-1.68-3.75-3.75-3.75Zm-6.82-14.82c-2.07,0-3.75,1.68-3.75,3.75s1.68,3.75,3.75,3.75,3.75-1.68,3.75-3.75-1.68-3.75-3.75-3.75Zm-1.66,7.1l-6.64,10.34m2.49,5.53l9.13-3.08M4.83,209.23l1.21,16.9m8.95-6.07l-4.78,7.11M283.04,111.31h-36.06c-1.67,0-3.03-1.36-3.03-3.03v-5.69c0-1.67,1.36-3.03,3.03-3.03h36.06c1.67,0,3.03,1.36,3.03,3.03v5.69c0,1.67-1.36,3.03-3.03,3.03Zm-11.6-5.8c0,1.42-1.15,2.58-2.58,2.58s-2.58-1.15-2.58-2.58,1.15-2.58,2.58-2.58,2.58,1.15,2.58,2.58Zm9.57,0c0,1.42-1.15,2.58-2.58,2.58s-2.58-1.15-2.58-2.58,1.15-2.58,2.58-2.58,2.58,1.15,2.58,2.58Zm2.03-9.78h-36.06c-1.67,0-3.03-1.36-3.03-3.03v-5.69c0-1.67,1.36-3.03,3.03-3.03h36.06c1.67,0,3.03,1.36,3.03,3.03v5.69c0,1.67-1.36,3.03-3.03,3.03Zm-11.6-5.8c0,1.42-1.15,2.58-2.58,2.58s-2.58-1.15-2.58-2.58,1.15-2.58,2.58-2.58,2.58,1.15,2.58,2.58Zm9.57,0c0,1.42-1.15,2.58-2.58,2.58s-2.58-1.15-2.58-2.58,1.15-2.58,2.58-2.58,2.58,1.15,2.58,2.58Zm-41.53,15.77h-12.63c-5.8,0-10.53-4.72-10.53-10.53,0-5.43,4.24-10.04,9.64-10.49l2.16-.18,2.16-.18,.39-2.13,.39-2.13c1.51-8.22,8.69-14.19,17.06-14.19,7.94,0,14.85,5.36,16.79,12.98l.28,1.18,5.85-.04-.62-2.5c-2.6-10.18-11.77-17.29-22.3-17.29-11.11,0-20.64,7.92-22.64,18.84h0c-8.32,.69-14.84,7.78-14.84,16.14,0,8.93,7.27,16.2,16.2,16.2h12.63v-5.67Zm-117.57,28.4l-6.51-6.51-6.51,6.51,6.51,6.51,6.51-6.51Zm7.51,0l-6.51-6.51-6.51,6.51,6.51,6.51,6.51-6.51Zm-32.44,88c2.38-.26,4.27-2.24,4.33-4.7v-6.93c0-.67-.54-1.22-1.21-1.22h-7.54c-.67,0-1.21,.55-1.21,1.22v6.93c.06,2.05,1.38,3.77,3.2,4.43v3.36c-.01,3.34,2.68,6.06,6.02,6.07h0c3.34-.01,6.03-2.73,6.02-6.07v-18.51c0-1.98,1.61-3.59,3.59-3.59s3.59,1.61,3.59,3.59v8.28m-19.74-6v-2.67m4.61,0v2.67m-4.48,3.19h4.36v4.74c-.07,1.33-1.04,2.35-2.18,2.28-1.13,.07-2.11-.95-2.18-2.28v-4.74Zm38.55,9.67h0c4.67-2.13,7.65-6.82,7.6-11.96,.13-7.02-5.44-12.83-12.46-12.98-.26,0-.52,.01-.78,.03-2.33-5.57-7.77-9.21-13.81-9.25-3.68,0-7.23,1.38-9.95,3.87-1.39-.87-3-1.33-4.64-1.33-5.13,.11-9.21,4.35-9.12,9.49,0,.83,.1,1.66,.31,2.46-1.49,.68-2.8,1.69-3.85,2.95-3.88,4.65-3.25,11.57,1.41,15.45m40.37,13.05l4.54-4.58c.47-.48,.47-1.25,0-1.73l-4.54-4.59m-11.79,0l-4.54,4.59c-.47,.48-.47,1.25,0,1.73l4.55,4.59m-.34-13.61h12.47v-2.45h-12.47v2.45Zm8.13,4.04l-3.8,8.22m10.78,40.57h0c0,3.42-2.87,6.19-6.41,6.19h-16.85c-3.54,0-6.41-2.77-6.41-6.19h0c0-3.25,2.59-5.91,5.88-6.17,.78-4.1,4.49-7.2,8.96-7.2s8.18,3.1,8.96,7.2c3.29,.26,5.88,2.92,5.88,6.17Z"/></g></g></svg>