<svg width="25" height="24" viewBox="0 0 25 24" fill="none" xmlns="http://www.w3.org/2000/svg">
<g clip-path="url(#clip0_3351_248)">
<path d="M12.9999 0.75C6.64594 0.75 1.49994 5.896 1.49994 12.25C1.49994 17.339 4.79194 21.637 9.36294 23.16C9.93794 23.261 10.1529 22.916 10.1529 22.614C10.1529 22.341 10.1389 21.436 10.1389 20.472C7.24994 21.004 6.50294 19.768 6.27294 19.122C6.14294 18.791 5.58294 17.77 5.09294 17.497C4.69094 17.281 4.11594 16.749 5.07894 16.735C5.98494 16.721 6.63194 17.569 6.84794 17.914C7.88294 19.654 9.53594 19.164 10.1969 18.862C10.2969 18.115 10.5989 17.612 10.9299 17.324C8.37094 17.037 5.69794 16.045 5.69794 11.646C5.69794 10.396 6.14294 9.361 6.87594 8.556C6.76094 8.268 6.35894 7.089 6.99094 5.508C6.99094 5.508 7.95394 5.206 10.1539 6.687C11.0739 6.428 12.0509 6.299 13.0289 6.299C14.0059 6.299 14.9839 6.429 15.9039 6.687C18.1039 5.192 19.0659 5.508 19.0659 5.508C19.6989 7.089 19.2959 8.268 19.1809 8.556C19.9139 9.361 20.3599 10.381 20.3599 11.646C20.3599 16.059 17.6719 17.036 15.1129 17.324C15.5299 17.684 15.8889 18.374 15.8889 19.452C15.8889 20.99 15.8749 22.226 15.8749 22.614C15.8749 22.916 16.0909 23.276 16.6649 23.161C21.2089 21.637 24.4999 17.324 24.4999 12.25C24.4999 5.896 19.3539 0.75 12.9999 0.75Z" fill="black"/>
</g>
<defs>
<clipPath id="clip0_3351_248">
<rect width="24" height="24" fill="white" transform="translate(0.5)"/>
</clipPath>
</defs>
</svg>
