<svg xmlns="http://www.w3.org/2000/svg" width="34" height="34" fill="none" viewBox="0 0 34 34"><g id="GitHub/default"><g id="Group 393"><circle id="椭圆形复制 3备份 2" cx="17" cy="17" r="16" stroke="#B6C2CD"/><path id="Vector" fill="#EA7898" d="M21.8754 15.5205C21.9224 15.5284 22.2907 15.4461 22.3063 15.4735C22.3298 15.5088 22.4944 16.6918 22.4513 16.6997C22.4082 16.7075 22.1026 16.778 22.1026 16.778C22.0791 16.6174 21.8793 15.6224 21.8754 15.5205ZM22.463 15.4069L22.6236 16.6801C22.7059 16.6762 23.0389 16.6526 23.0702 16.6487C23.0232 16.1669 22.9409 15.4069 22.9409 15.4069C22.7842 15.3756 22.6197 15.3756 22.463 15.4069ZM22.1457 17.1737C22.1457 17.1737 22.8704 16.9895 23.1329 17.0796C23.2661 17.5615 23.509 20.2645 23.5325 20.3742C23.3679 20.3938 22.8273 20.4408 22.7842 20.4525C22.749 20.2488 22.1457 17.3029 22.1457 17.1737ZM24.8291 15.5519C24.8722 15.5636 25.2561 15.5127 25.26 15.5401C25.2679 15.6341 25.307 16.7702 25.264 16.7741C25.2209 16.778 24.9153 16.8054 24.9153 16.8054C24.9075 16.6487 24.8213 15.6576 24.8291 15.5519ZM25.4207 15.5205L25.452 16.778C25.5343 16.778 25.8633 16.7976 25.8986 16.7937C25.8907 16.3118 25.8986 15.5519 25.8986 15.5519C25.7419 15.5244 25.5813 15.5127 25.4207 15.5205ZM24.9153 17.2089C24.9153 17.2089 25.6557 17.111 25.9064 17.2285C25.9613 17.7926 25.9534 20.4212 25.9613 20.5309C25.7928 20.5309 25.2561 20.5387 25.213 20.5465C25.2052 20.3428 24.9036 17.3382 24.9153 17.2089ZM23.1956 13.9771C23.6226 16.1551 23.9477 19.8767 23.9595 20.1156C23.9595 20.1156 24.2964 20.1235 24.6763 20.147C24.4531 17.8004 24.1788 14.0515 24.1828 13.9301C24.0887 13.8243 23.1956 13.9771 23.1956 13.9771ZM22.2554 19.1284C22.1731 18.5173 19.9872 17.8239 18.7572 18.0472C18.7572 18.0472 18.6044 16.6997 18.5456 15.3952C18.4947 14.2748 18.5378 13.1858 18.5495 13.0056C18.4673 12.9468 17.5819 13.3699 17.104 13.5462C17.104 13.5462 17.676 15.9671 18.0912 20.9892C18.0912 20.9892 18.7532 21.0597 19.8893 20.8403C21.0253 20.621 22.369 19.9354 22.2554 19.1284ZM19.5837 20.2292L19.3918 18.8464C19.4388 18.8229 20.6179 19.2616 20.7433 19.34C20.7237 19.4262 19.5837 20.2292 19.5837 20.2292ZM12.7714 15.5205C12.8184 15.5284 13.1866 15.4461 13.2023 15.4735C13.2258 15.5088 13.3903 16.6918 13.3472 16.6997C13.3042 16.7075 12.9986 16.778 12.9986 16.778C12.9751 16.6174 12.7753 15.6224 12.7714 15.5205ZM13.359 15.4069L13.5196 16.6801C13.6019 16.6762 13.9349 16.6526 13.9662 16.6487C13.9153 16.1669 13.8369 15.4069 13.8369 15.4069C13.6802 15.3756 13.5157 15.3756 13.359 15.4069ZM13.0417 17.1737C13.0417 17.1737 13.7664 16.9895 14.0289 17.0796C14.1621 17.5615 14.4049 20.2645 14.4284 20.3742C14.2639 20.3938 13.7233 20.4408 13.6802 20.4525C13.645 20.2488 13.0417 17.3029 13.0417 17.1737ZM15.7251 15.5519C15.7682 15.5636 16.1521 15.5127 16.156 15.5401C16.1639 15.6341 16.203 16.7702 16.1599 16.7741C16.1168 16.778 15.8113 16.8054 15.8113 16.8054C15.8035 16.6487 15.7212 15.6576 15.7251 15.5519ZM16.3166 15.5205L16.348 16.778C16.4302 16.778 16.7593 16.7976 16.7946 16.7937C16.7867 16.3118 16.7946 15.5519 16.7946 15.5519C16.6379 15.5244 16.4772 15.5166 16.3166 15.5205ZM15.8113 17.2089C15.8113 17.2089 16.5517 17.111 16.8024 17.2285C16.8572 17.7926 16.8494 20.4212 16.8572 20.5309C16.6888 20.5309 16.1521 20.5387 16.109 20.5465C16.1051 20.3428 15.7995 17.3382 15.8113 17.2089ZM14.0915 13.9771C14.5185 16.1551 14.8437 19.8767 14.8554 20.1156C14.8554 20.1156 15.1923 20.1235 15.5723 20.147C15.349 17.8004 15.0748 14.0515 15.0787 13.9261C14.9847 13.8243 14.0915 13.9771 14.0915 13.9771ZM13.1514 19.1284C13.0691 18.5173 10.8832 17.8239 9.65314 18.0472C9.65314 18.0472 9.50036 16.6997 9.4416 15.3952C9.39068 14.2748 9.43377 13.1858 9.44552 13.0056C9.36325 12.9507 8.47792 13.3699 8 13.5462C8 13.5462 8.57194 15.9671 8.98718 20.9892C8.98718 20.9892 9.64922 21.0597 10.7853 20.8403C11.9213 20.621 13.265 19.9354 13.1514 19.1284ZM10.4797 20.2292L10.2878 18.8464C10.3348 18.8229 11.5139 19.2616 11.6393 19.34C11.6197 19.4262 10.4797 20.2292 10.4797 20.2292Z"/></g></g></svg>