<?xml version="1.0" encoding="UTF-8"?>
<svg width="34px" height="34px" viewBox="0 0 34 34" version="1.1" xmlns="http://www.w3.org/2000/svg" xmlns:xlink="http://www.w3.org/1999/xlink">
    <!-- Generator: Sketch 61 (89581) - https://sketch.com -->
    <title>Facebook/hover</title>
    <desc>Created with Sketch.</desc>
    <g id="页面1" stroke="none" stroke-width="1" fill="none" fill-rule="evenodd">
        <g id="画板备份-4" transform="translate(-868.000000, -6178.000000)">
            <g id="编组-3" transform="translate(154.000000, 5932.000000)">
                <g id="编组-2" transform="translate(424.000000, 205.000000)">
                    <g id="Facebook/hover" transform="translate(291.000000, 42.000000)">
                        <g id="编组-48">
                            <circle id="椭圆形复制-3" stroke="#B6C2CD" cx="16" cy="16" r="16"></circle>
                            <g id="Facebook/hover" transform="translate(8.000000, 8.000000)">
                                <g>
                                    <rect id="矩形" fill="#304357" fill-rule="nonzero" opacity="0" x="-8.8817842e-15" y="0" width="16" height="16"></rect>
                                    <g id="social-media-(1)" transform="translate(4.000000, 0.000000)" fill="#3B5999" fill-rule="nonzero">
                                        <path d="M6.57091667,2.65666667 L8.03158333,2.65666667 L8.03158333,0.112666667 C7.77958333,0.078 6.91291667,1.85037171e-17 5.90358333,1.85037171e-17 C1.28225,1.85037171e-17 2.53958333,5.23333333 2.35558333,6 L0.0309166667,6 L0.0309166667,8.844 L2.35491667,8.844 L2.35491667,16 L5.20425,16 L5.20425,8.84466667 L7.43425,8.84466667 L7.78825,6.00066667 L5.20358333,6.00066667 C5.32891667,4.118 4.69625,2.65666667 6.57091667,2.65666667 Z" id="路径"></path>
                                    </g>
                                </g>
                            </g>
                        </g>
                        <g id="slack" transform="translate(8.000000, 8.000000)"></g>
                    </g>
                </g>
            </g>
        </g>
    </g>
</svg>