<svg xmlns="http://www.w3.org/2000/svg" xmlns:xlink="http://www.w3.org/1999/xlink" width="34" height="34" version="1.1" viewBox="0 0 34 34"><title>GitHub/hover</title><desc>Created with Sketch.</desc><g id="页面1" fill="none" fill-rule="evenodd" stroke="none" stroke-width="1"><g id="画板备份-4" transform="translate(-824.000000, -6178.000000)"><g id="编组-3" transform="translate(154.000000, 5932.000000)"><g id="编组-2" transform="translate(424.000000, 205.000000)"><g id="GitHub/hover" transform="translate(247.000000, 42.000000)"><circle id="椭圆形复制-3" cx="16" cy="16" r="16" stroke="#B6C2CD"/><g><g transform="translate(8.000000, 8.000000)"><rect id="矩形" width="16" height="16" x="0" y="0" fill="#304357" fill-rule="nonzero" opacity="0"/><path id="路径" fill="#000" fill-rule="nonzero" d="M8,0 C3.60595703,0 0,3.60595703 0,8 C0,11.7496338 2.6311035,15.1557617 6.125,16 L6.125,13.3532715 C5.77880859,13.4290772 5.46020506,13.4312744 5.10778809,13.3273926 C4.63500975,13.1878662 4.2508545,12.8729248 3.96569825,12.3927002 C3.78393556,12.0860596 3.461792,11.75354 3.12573244,11.7779541 L3.04333497,10.8441162 C3.77001953,10.7818603 4.39868163,11.2868652 4.77185059,11.9138184 C4.93762206,12.1926269 5.12841797,12.3560791 5.373291,12.4283447 C5.60998534,12.4980469 5.86413575,12.4645996 6.16027831,12.3599853 C6.23461913,11.7670898 6.50622559,11.545166 6.71142578,11.232666 L6.71142578,11.2321777 C4.62768556,10.9213867 3.79724122,9.81591797 3.46765138,8.94335938 C3.03088378,7.78479003 3.26525878,6.33740234 4.03759766,5.4227295 C4.05261231,5.40490722 4.07971191,5.35827638 4.06921387,5.32568359 C3.71508788,4.25598144 4.14660644,3.37109375 4.16247559,3.27722169 C4.571167,3.39807128 4.63757325,3.15563966 5.93774413,3.94555663 L6.16247559,4.08056641 C6.25646972,4.13659669 6.22692872,4.10461425 6.32092284,4.09753419 C6.86376953,3.95007325 7.43603516,3.86865234 7.99987794,3.86132813 C8.56799316,3.86865234 9.13659669,3.95007325 9.70190431,4.10351563 L9.77465819,4.11083984 C9.76831056,4.10986328 9.79443359,4.10620119 9.83825684,4.08007813 C11.4624023,3.09631347 11.4040528,3.41784669 11.8395996,3.27624513 C11.8553467,3.37023925 12.2811279,4.26953125 11.9307861,5.32568359 C11.8835449,5.47119141 13.3388672,6.803833 12.5322266,8.94299316 C12.2026367,9.81591797 11.3723144,10.9213867 9.28857422,11.2321777 L9.28857422,11.232666 C9.55566406,11.6397705 9.87658691,11.8563233 9.87487794,12.696167 L9.87487794,16 C13.3688965,15.1557617 15.9998779,11.7496338 15.9998779,8 C15.9998779,3.60595703 12.394043,0 8,0 Z"/></g></g></g></g></g></g></g></svg>