<svg xmlns="http://www.w3.org/2000/svg" width="120" height="120" viewBox="0 0 120 120"><g fill="none" fill-rule="nonzero"><path fill="#FFF" d="M0 0h120v120H0z"/><g fill="#000"><path d="M2.79 2.79h2.792v2.792H2.79z"/><path d="M5.581 2.79h2.791v2.792h-2.79zM8.372 2.79h2.791v2.792h-2.79zM11.163 2.79h2.79v2.792h-2.79zM13.953 2.79h2.791v2.792h-2.79zM16.744 2.79h2.791v2.792h-2.79zM19.535 2.79h2.79v2.792h-2.79zM30.698 2.79h2.79v2.792h-2.79zM33.488 2.79h2.791v2.792h-2.79zM36.28 2.79h2.79v2.792h-2.79zM47.442 2.79h2.79v2.792h-2.79zM61.395 2.79h2.791v2.792h-2.79zM72.558 2.79h2.791v2.792h-2.79zM78.14 2.79h2.79v2.792h-2.79zM80.93 2.79h2.791v2.792h-2.79zM89.302 2.79h2.791v2.792h-2.79zM92.093 2.79h2.791v2.792h-2.791zM97.674 2.79h2.791v2.792h-2.79zM100.465 2.79h2.791v2.792h-2.79zM103.256 2.79h2.79v2.792h-2.79zM106.047 2.79h2.79v2.792h-2.79zM108.837 2.79h2.791v2.792h-2.79zM111.628 2.79h2.79v2.792h-2.79zM114.419 2.79h2.79v2.792h-2.79z"/><path d="M2.79 5.581h2.792v2.791H2.79zM19.535 5.581h2.79v2.791h-2.79zM25.116 5.581h2.791v2.791h-2.79zM30.698 5.581h2.79v2.791h-2.79zM33.488 5.581h2.791v2.791h-2.79zM41.86 5.581h2.791v2.791h-2.79zM47.442 5.581h2.79v2.791h-2.79zM50.233 5.581h2.79v2.791h-2.79zM55.814 5.581h2.791v2.791h-2.791zM61.395 5.581h2.791v2.791h-2.79zM64.186 5.581h2.791v2.791h-2.791zM69.767 5.581h2.791v2.791h-2.79zM83.72 5.581h2.792v2.791H83.72zM86.512 5.581h2.79v2.791h-2.79zM92.093 5.581h2.791v2.791h-2.791zM97.674 5.581h2.791v2.791h-2.79zM114.419 5.581h2.79v2.791h-2.79zM2.79 8.372h2.792v2.791H2.79zM8.372 8.372h2.791v2.791h-2.79zM11.163 8.372h2.79v2.791h-2.79zM13.953 8.372h2.791v2.791h-2.79zM19.535 8.372h2.79v2.791h-2.79zM25.116 8.372h2.791v2.791h-2.79zM27.907 8.372h2.791v2.791h-2.791zM30.698 8.372h2.79v2.791h-2.79zM33.488 8.372h2.791v2.791h-2.79zM36.28 8.372h2.79v2.791h-2.79zM41.86 8.372h2.791v2.791h-2.79zM44.651 8.372h2.791v2.791h-2.79zM50.233 8.372h2.79v2.791h-2.79zM53.023 8.372h2.791v2.791h-2.79zM64.186 8.372h2.791v2.791h-2.791zM72.558 8.372h2.791v2.791h-2.79zM80.93 8.372h2.791v2.791h-2.79zM86.512 8.372h2.79v2.791h-2.79zM89.302 8.372h2.791v2.791h-2.79zM97.674 8.372h2.791v2.791h-2.79zM103.256 8.372h2.79v2.791h-2.79zM106.047 8.372h2.79v2.791h-2.79zM108.837 8.372h2.791v2.791h-2.79zM114.419 8.372h2.79v2.791h-2.79zM2.79 11.163h2.792v2.79H2.79zM8.372 11.163h2.791v2.79h-2.79zM11.163 11.163h2.79v2.79h-2.79zM13.953 11.163h2.791v2.79h-2.79zM19.535 11.163h2.79v2.79h-2.79zM25.116 11.163h2.791v2.79h-2.79zM30.698 11.163h2.79v2.79h-2.79zM41.86 11.163h2.791v2.79h-2.79zM47.442 11.163h2.79v2.79h-2.79zM53.023 11.163h2.791v2.79h-2.79zM58.605 11.163h2.79v2.79h-2.79zM66.977 11.163h2.79v2.79h-2.79zM78.14 11.163h2.79v2.79h-2.79zM86.512 11.163h2.79v2.79h-2.79zM89.302 11.163h2.791v2.79h-2.79zM97.674 11.163h2.791v2.79h-2.79zM103.256 11.163h2.79v2.79h-2.79zM106.047 11.163h2.79v2.79h-2.79zM108.837 11.163h2.791v2.79h-2.79zM114.419 11.163h2.79v2.79h-2.79zM2.79 13.953h2.792v2.791H2.79zM8.372 13.953h2.791v2.791h-2.79zM11.163 13.953h2.79v2.791h-2.79zM13.953 13.953h2.791v2.791h-2.79zM19.535 13.953h2.79v2.791h-2.79zM25.116 13.953h2.791v2.791h-2.79zM30.698 13.953h2.79v2.791h-2.79zM36.28 13.953h2.79v2.791h-2.79zM41.86 13.953h2.791v2.791h-2.79zM44.651 13.953h2.791v2.791h-2.79zM50.233 13.953h2.79v2.791h-2.79zM53.023 13.953h2.791v2.791h-2.79zM58.605 13.953h2.79v2.791h-2.79zM64.186 13.953h2.791v2.791h-2.791zM66.977 13.953h2.79v2.791h-2.79z"/><path d="M69.767 13.953h2.791v2.791h-2.79zM78.14 13.953h2.79v2.791h-2.79zM80.93 13.953h2.791v2.791h-2.79z"/><path d="M83.72 13.953h2.792v2.791H83.72zM86.512 13.953h2.79v2.791h-2.79zM97.674 13.953h2.791v2.791h-2.79zM103.256 13.953h2.79v2.791h-2.79zM106.047 13.953h2.79v2.791h-2.79zM108.837 13.953h2.791v2.791h-2.79zM114.419 13.953h2.79v2.791h-2.79zM2.79 16.744h2.792v2.791H2.79zM19.535 16.744h2.79v2.791h-2.79zM25.116 16.744h2.791v2.791h-2.79zM30.698 16.744h2.79v2.791h-2.79zM36.28 16.744h2.79v2.791h-2.79zM41.86 16.744h2.791v2.791h-2.79zM44.651 16.744h2.791v2.791h-2.79zM47.442 16.744h2.79v2.791h-2.79zM55.814 16.744h2.791v2.791h-2.791zM61.395 16.744h2.791v2.791h-2.79zM64.186 16.744h2.791v2.791h-2.791zM66.977 16.744h2.79v2.791h-2.79zM72.558 16.744h2.791v2.791h-2.79zM75.349 16.744h2.79v2.791h-2.79zM80.93 16.744h2.791v2.791h-2.79zM86.512 16.744h2.79v2.791h-2.79zM97.674 16.744h2.791v2.791h-2.79zM114.419 16.744h2.79v2.791h-2.79zM2.79 19.535h2.792v2.79H2.79z"/><path d="M5.581 19.535h2.791v2.79h-2.79zM8.372 19.535h2.791v2.79h-2.79zM11.163 19.535h2.79v2.79h-2.79zM13.953 19.535h2.791v2.79h-2.79zM16.744 19.535h2.791v2.79h-2.79zM19.535 19.535h2.79v2.79h-2.79zM25.116 19.535h2.791v2.79h-2.79zM30.698 19.535h2.79v2.79h-2.79zM36.28 19.535h2.79v2.79h-2.79zM41.86 19.535h2.791v2.79h-2.79zM47.442 19.535h2.79v2.79h-2.79zM53.023 19.535h2.791v2.79h-2.79zM58.605 19.535h2.79v2.79h-2.79zM64.186 19.535h2.791v2.79h-2.791zM69.767 19.535h2.791v2.79h-2.79zM75.349 19.535h2.79v2.79h-2.79zM80.93 19.535h2.791v2.79h-2.79zM86.512 19.535h2.79v2.79h-2.79zM92.093 19.535h2.791v2.79h-2.791zM97.674 19.535h2.791v2.79h-2.79zM100.465 19.535h2.791v2.79h-2.79zM103.256 19.535h2.79v2.79h-2.79zM106.047 19.535h2.79v2.79h-2.79zM108.837 19.535h2.791v2.79h-2.79zM111.628 19.535h2.79v2.79h-2.79zM114.419 19.535h2.79v2.79h-2.79zM30.698 22.326h2.79v2.79h-2.79zM41.86 22.326h2.791v2.79h-2.79zM44.651 22.326h2.791v2.79h-2.79zM47.442 22.326h2.79v2.79h-2.79zM55.814 22.326h2.791v2.79h-2.791zM64.186 22.326h2.791v2.79h-2.791zM66.977 22.326h2.79v2.79h-2.79z"/><path d="M69.767 22.326h2.791v2.79h-2.79zM75.349 22.326h2.79v2.79h-2.79zM78.14 22.326h2.79v2.79h-2.79zM80.93 22.326h2.791v2.79h-2.79zM86.512 22.326h2.79v2.79h-2.79zM89.302 22.326h2.791v2.79h-2.79zM92.093 22.326h2.791v2.79h-2.791zM8.372 25.116h2.791v2.791h-2.79zM16.744 25.116h2.791v2.791h-2.79zM19.535 25.116h2.79v2.791h-2.79zM22.326 25.116h2.79v2.791h-2.79zM25.116 25.116h2.791v2.791h-2.79zM27.907 25.116h2.791v2.791h-2.791zM30.698 25.116h2.79v2.791h-2.79zM47.442 25.116h2.79v2.791h-2.79zM50.233 25.116h2.79v2.791h-2.79zM66.977 25.116h2.79v2.791h-2.79zM72.558 25.116h2.791v2.791h-2.79zM80.93 25.116h2.791v2.791h-2.79zM86.512 25.116h2.79v2.791h-2.79zM89.302 25.116h2.791v2.791h-2.79zM94.884 25.116h2.79v2.791h-2.79zM100.465 25.116h2.791v2.791h-2.79zM103.256 25.116h2.79v2.791h-2.79zM106.047 25.116h2.79v2.791h-2.79zM108.837 25.116h2.791v2.791h-2.79zM111.628 25.116h2.79v2.791h-2.79zM2.79 27.907h2.792v2.791H2.79zM8.372 27.907h2.791v2.791h-2.79zM22.326 27.907h2.79v2.791h-2.79zM27.907 27.907h2.791v2.791h-2.791zM30.698 27.907h2.79v2.791h-2.79zM33.488 27.907h2.791v2.791h-2.79zM50.233 27.907h2.79v2.791h-2.79zM53.023 27.907h2.791v2.791h-2.79zM61.395 27.907h2.791v2.791h-2.79zM69.767 27.907h2.791v2.791h-2.79zM78.14 27.907h2.79v2.791h-2.79zM80.93 27.907h2.791v2.791h-2.79zM89.302 27.907h2.791v2.791h-2.79zM92.093 27.907h2.791v2.791h-2.791zM100.465 27.907h2.791v2.791h-2.79zM108.837 27.907h2.791v2.791h-2.79zM2.79 30.698h2.792v2.79H2.79z"/><path d="M5.581 30.698h2.791v2.79h-2.79zM8.372 30.698h2.791v2.79h-2.79zM16.744 30.698h2.791v2.79h-2.79zM19.535 30.698h2.79v2.79h-2.79zM33.488 30.698h2.791v2.79h-2.79zM36.28 30.698h2.79v2.79h-2.79zM39.07 30.698h2.79v2.79h-2.79zM55.814 30.698h2.791v2.79h-2.791zM61.395 30.698h2.791v2.79h-2.79zM64.186 30.698h2.791v2.79h-2.791zM75.349 30.698h2.79v2.79h-2.79zM78.14 30.698h2.79v2.79h-2.79zM86.512 30.698h2.79v2.79h-2.79zM89.302 30.698h2.791v2.79h-2.79zM100.465 30.698h2.791v2.79h-2.79zM103.256 30.698h2.79v2.79h-2.79zM106.047 30.698h2.79v2.79h-2.79zM108.837 30.698h2.791v2.79h-2.79zM114.419 30.698h2.79v2.79h-2.79zM2.79 33.488h2.792v2.791H2.79zM8.372 33.488h2.791v2.791h-2.79zM16.744 33.488h2.791v2.791h-2.79zM27.907 33.488h2.791v2.791h-2.791zM30.698 33.488h2.79v2.791h-2.79zM36.28 33.488h2.79v2.791h-2.79zM39.07 33.488h2.79v2.791h-2.79zM41.86 33.488h2.791v2.791h-2.79zM44.651 33.488h2.791v2.791h-2.79zM47.442 33.488h2.79v2.791h-2.79zM50.233 33.488h2.79v2.791h-2.79zM53.023 33.488h2.791v2.791h-2.79zM58.605 33.488h2.79v2.791h-2.79zM66.977 33.488h2.79v2.791h-2.79zM75.349 33.488h2.79v2.791h-2.79zM78.14 33.488h2.79v2.791h-2.79zM89.302 33.488h2.791v2.791h-2.79zM92.093 33.488h2.791v2.791h-2.791zM97.674 33.488h2.791v2.791h-2.79zM100.465 33.488h2.791v2.791h-2.79zM103.256 33.488h2.79v2.791h-2.79zM106.047 33.488h2.79v2.791h-2.79zM111.628 33.488h2.79v2.791h-2.79zM11.163 36.28h2.79v2.79h-2.79zM19.535 36.28h2.79v2.79h-2.79zM22.326 36.28h2.79v2.79h-2.79zM25.116 36.28h2.791v2.79h-2.79zM30.698 36.28h2.79v2.79h-2.79zM36.28 36.28h2.79v2.79h-2.79zM44.651 36.28h2.791v2.79h-2.79zM61.395 36.28h2.791v2.79h-2.79zM64.186 36.28h2.791v2.79h-2.791zM69.767 36.28h2.791v2.79h-2.79zM75.349 36.28h2.79v2.79h-2.79zM78.14 36.28h2.79v2.79h-2.79zM80.93 36.28h2.791v2.79h-2.79zM86.512 36.28h2.79v2.79h-2.79zM100.465 36.28h2.791v2.79h-2.79zM111.628 36.28h2.79v2.79h-2.79zM114.419 36.28h2.79v2.79h-2.79zM5.581 39.07h2.791v2.79h-2.79zM25.116 39.07h2.791v2.79h-2.79zM33.488 39.07h2.791v2.79h-2.79zM39.07 39.07h2.79v2.79h-2.79zM44.651 39.07h2.791v2.79h-2.79zM50.233 39.07h2.79v2.79h-2.79zM58.605 39.07h2.79v2.79h-2.79zM64.186 39.07h2.791v2.79h-2.791zM69.767 39.07h2.791v2.79h-2.79zM80.93 39.07h2.791v2.79h-2.79z"/><path d="M83.72 39.07h2.792v2.79H83.72zM100.465 39.07h2.791v2.79h-2.79zM106.047 39.07h2.79v2.79h-2.79zM2.79 41.86h2.792v2.791H2.79zM8.372 41.86h2.791v2.791h-2.79zM11.163 41.86h2.79v2.791h-2.79zM19.535 41.86h2.79v2.791h-2.79zM22.326 41.86h2.79v2.791h-2.79zM30.698 41.86h2.79v2.791h-2.79zM47.442 41.86h2.79v2.791h-2.79zM50.233 41.86h2.79v2.791h-2.79zM55.814 41.86h2.791v2.791h-2.791zM58.605 41.86h2.79v2.791h-2.79zM66.977 41.86h2.79v2.791h-2.79zM80.93 41.86h2.791v2.791h-2.79zM86.512 41.86h2.79v2.791h-2.79zM89.302 41.86h2.791v2.791h-2.79zM94.884 41.86h2.79v2.791h-2.79zM97.674 41.86h2.791v2.791h-2.79zM106.047 41.86h2.79v2.791h-2.79zM108.837 41.86h2.791v2.791h-2.79zM111.628 41.86h2.79v2.791h-2.79zM114.419 41.86h2.79v2.791h-2.79zM5.581 44.651h2.791v2.791h-2.79zM13.953 44.651h2.791v2.791h-2.79zM22.326 44.651h2.79v2.791h-2.79zM25.116 44.651h2.791v2.791h-2.79zM27.907 44.651h2.791v2.791h-2.791zM30.698 44.651h2.79v2.791h-2.79zM33.488 44.651h2.791v2.791h-2.79zM36.28 44.651h2.79v2.791h-2.79zM41.86 44.651h2.791v2.791h-2.79zM47.442 44.651h2.79v2.791h-2.79zM53.023 44.651h2.791v2.791h-2.79zM58.605 44.651h2.79v2.791h-2.79zM61.395 44.651h2.791v2.791h-2.79zM69.767 44.651h2.791v2.791h-2.79zM72.558 44.651h2.791v2.791h-2.79zM78.14 44.651h2.79v2.791h-2.79zM80.93 44.651h2.791v2.791h-2.79zM94.884 44.651h2.79v2.791h-2.79zM97.674 44.651h2.791v2.791h-2.79zM100.465 44.651h2.791v2.791h-2.79zM103.256 44.651h2.79v2.791h-2.79zM111.628 44.651h2.79v2.791h-2.79zM2.79 47.442h2.792v2.79H2.79z"/><path d="M5.581 47.442h2.791v2.79h-2.79zM8.372 47.442h2.791v2.79h-2.79zM16.744 47.442h2.791v2.79h-2.79zM19.535 47.442h2.79v2.79h-2.79zM22.326 47.442h2.79v2.79h-2.79zM27.907 47.442h2.791v2.79h-2.791zM30.698 47.442h2.79v2.79h-2.79zM36.28 47.442h2.79v2.79h-2.79zM41.86 47.442h2.791v2.79h-2.79zM47.442 47.442h2.79v2.79h-2.79zM50.233 47.442h2.79v2.79h-2.79zM55.814 47.442h2.791v2.79h-2.791zM58.605 47.442h2.79v2.79h-2.79zM61.395 47.442h2.791v2.79h-2.79zM72.558 47.442h2.791v2.79h-2.79zM75.349 47.442h2.79v2.79h-2.79zM83.72 47.442h2.792v2.79H83.72zM86.512 47.442h2.79v2.79h-2.79zM89.302 47.442h2.791v2.79h-2.79zM92.093 47.442h2.791v2.79h-2.791zM94.884 47.442h2.79v2.79h-2.79zM97.674 47.442h2.791v2.79h-2.79zM106.047 47.442h2.79v2.79h-2.79zM5.581 50.233h2.791v2.79h-2.79zM11.163 50.233h2.79v2.79h-2.79zM16.744 50.233h2.791v2.79h-2.79zM22.326 50.233h2.79v2.79h-2.79zM27.907 50.233h2.791v2.79h-2.791zM30.698 50.233h2.79v2.79h-2.79zM39.07 50.233h2.79v2.79h-2.79zM41.86 50.233h2.791v2.79h-2.79zM50.233 50.233h2.79v2.79h-2.79zM53.023 50.233h2.791v2.79h-2.79zM58.605 50.233h2.79v2.79h-2.79zM61.395 50.233h2.791v2.79h-2.79zM66.977 50.233h2.79v2.79h-2.79z"/><path d="M69.767 50.233h2.791v2.79h-2.79zM72.558 50.233h2.791v2.79h-2.79zM75.349 50.233h2.79v2.79h-2.79zM86.512 50.233h2.79v2.79h-2.79zM92.093 50.233h2.791v2.79h-2.791zM94.884 50.233h2.79v2.79h-2.79zM97.674 50.233h2.791v2.79h-2.79zM100.465 50.233h2.791v2.79h-2.79zM111.628 50.233h2.79v2.79h-2.79zM114.419 50.233h2.79v2.79h-2.79zM2.79 53.023h2.792v2.791H2.79z"/><path d="M5.581 53.023h2.791v2.791h-2.79zM8.372 53.023h2.791v2.791h-2.79zM11.163 53.023h2.79v2.791h-2.79zM13.953 53.023h2.791v2.791h-2.79zM16.744 53.023h2.791v2.791h-2.79zM19.535 53.023h2.79v2.791h-2.79zM22.326 53.023h2.79v2.791h-2.79zM25.116 53.023h2.791v2.791h-2.79zM27.907 53.023h2.791v2.791h-2.791zM30.698 53.023h2.79v2.791h-2.79zM39.07 53.023h2.79v2.791h-2.79zM53.023 53.023h2.791v2.791h-2.79zM55.814 53.023h2.791v2.791h-2.791zM58.605 53.023h2.79v2.791h-2.79zM61.395 53.023h2.791v2.791h-2.79zM64.186 53.023h2.791v2.791h-2.791zM66.977 53.023h2.79v2.791h-2.79z"/><path d="M69.767 53.023h2.791v2.791h-2.79zM72.558 53.023h2.791v2.791h-2.79zM75.349 53.023h2.79v2.791h-2.79zM78.14 53.023h2.79v2.791h-2.79zM80.93 53.023h2.791v2.791h-2.79z"/><path d="M83.72 53.023h2.792v2.791H83.72zM86.512 53.023h2.79v2.791h-2.79zM100.465 53.023h2.791v2.791h-2.79zM103.256 53.023h2.79v2.791h-2.79zM114.419 53.023h2.79v2.791h-2.79zM5.581 55.814h2.791v2.791h-2.79zM8.372 55.814h2.791v2.791h-2.79zM16.744 55.814h2.791v2.791h-2.79zM27.907 55.814h2.791v2.791h-2.791zM36.28 55.814h2.79v2.791h-2.79zM44.651 55.814h2.791v2.791h-2.79zM47.442 55.814h2.79v2.791h-2.79zM50.233 55.814h2.79v2.791h-2.79zM58.605 55.814h2.79v2.791h-2.79zM61.395 55.814h2.791v2.791h-2.79zM64.186 55.814h2.791v2.791h-2.791zM69.767 55.814h2.791v2.791h-2.79zM72.558 55.814h2.791v2.791h-2.79zM75.349 55.814h2.79v2.791h-2.79zM78.14 55.814h2.79v2.791h-2.79zM80.93 55.814h2.791v2.791h-2.79zM86.512 55.814h2.79v2.791h-2.79zM92.093 55.814h2.791v2.791h-2.791zM94.884 55.814h2.79v2.791h-2.79zM108.837 55.814h2.791v2.791h-2.79zM111.628 55.814h2.79v2.791h-2.79zM2.79 58.605h2.792v2.79H2.79z"/><path d="M5.581 58.605h2.791v2.79h-2.79zM8.372 58.605h2.791v2.79h-2.79zM19.535 58.605h2.79v2.79h-2.79zM22.326 58.605h2.79v2.79h-2.79zM25.116 58.605h2.791v2.79h-2.79zM44.651 58.605h2.791v2.79h-2.79zM50.233 58.605h2.79v2.79h-2.79zM53.023 58.605h2.791v2.79h-2.79zM64.186 58.605h2.791v2.79h-2.791zM66.977 58.605h2.79v2.79h-2.79zM75.349 58.605h2.79v2.79h-2.79zM78.14 58.605h2.79v2.79h-2.79zM80.93 58.605h2.791v2.79h-2.79z"/><path d="M83.72 58.605h2.792v2.79H83.72zM86.512 58.605h2.79v2.79h-2.79zM92.093 58.605h2.791v2.79h-2.791zM94.884 58.605h2.79v2.79h-2.79zM97.674 58.605h2.791v2.79h-2.79zM103.256 58.605h2.79v2.79h-2.79zM108.837 58.605h2.791v2.79h-2.79zM111.628 58.605h2.79v2.79h-2.79zM114.419 58.605h2.79v2.79h-2.79zM2.79 61.395h2.792v2.791H2.79zM16.744 61.395h2.791v2.791h-2.79zM27.907 61.395h2.791v2.791h-2.791zM33.488 61.395h2.791v2.791h-2.79zM41.86 61.395h2.791v2.791h-2.79zM47.442 61.395h2.79v2.791h-2.79zM53.023 61.395h2.791v2.791h-2.79zM55.814 61.395h2.791v2.791h-2.791zM61.395 61.395h2.791v2.791h-2.79zM66.977 61.395h2.79v2.791h-2.79zM72.558 61.395h2.791v2.791h-2.79zM75.349 61.395h2.79v2.791h-2.79zM78.14 61.395h2.79v2.791h-2.79zM83.72 61.395h2.792v2.791H83.72zM86.512 61.395h2.79v2.791h-2.79zM92.093 61.395h2.791v2.791h-2.791zM97.674 61.395h2.791v2.791h-2.79zM114.419 61.395h2.79v2.791h-2.79zM5.581 64.186h2.791v2.791h-2.79zM8.372 64.186h2.791v2.791h-2.79zM11.163 64.186h2.79v2.791h-2.79zM19.535 64.186h2.79v2.791h-2.79zM25.116 64.186h2.791v2.791h-2.79zM27.907 64.186h2.791v2.791h-2.791zM30.698 64.186h2.79v2.791h-2.79zM33.488 64.186h2.791v2.791h-2.79zM36.28 64.186h2.79v2.791h-2.79zM44.651 64.186h2.791v2.791h-2.79zM58.605 64.186h2.79v2.791h-2.79zM66.977 64.186h2.79v2.791h-2.79zM75.349 64.186h2.79v2.791h-2.79zM80.93 64.186h2.791v2.791h-2.79zM89.302 64.186h2.791v2.791h-2.79zM103.256 64.186h2.79v2.791h-2.79zM106.047 64.186h2.79v2.791h-2.79zM108.837 64.186h2.791v2.791h-2.79zM114.419 64.186h2.79v2.791h-2.79zM2.79 66.977h2.792v2.79H2.79z"/><path d="M5.581 66.977h2.791v2.79h-2.79zM16.744 66.977h2.791v2.79h-2.79zM25.116 66.977h2.791v2.79h-2.79zM33.488 66.977h2.791v2.79h-2.79zM39.07 66.977h2.79v2.79h-2.79zM41.86 66.977h2.791v2.79h-2.79zM55.814 66.977h2.791v2.79h-2.791zM58.605 66.977h2.79v2.79h-2.79zM69.767 66.977h2.791v2.79h-2.79zM72.558 66.977h2.791v2.79h-2.79zM75.349 66.977h2.79v2.79h-2.79zM92.093 66.977h2.791v2.79h-2.791zM97.674 66.977h2.791v2.79h-2.79z"/><path d="M5.581 69.767h2.791v2.791h-2.79zM16.744 69.767h2.791v2.791h-2.79zM19.535 69.767h2.79v2.791h-2.79zM25.116 69.767h2.791v2.791h-2.79zM27.907 69.767h2.791v2.791h-2.791zM36.28 69.767h2.79v2.791h-2.79zM39.07 69.767h2.79v2.791h-2.79zM47.442 69.767h2.79v2.791h-2.79zM53.023 69.767h2.791v2.791h-2.79zM58.605 69.767h2.79v2.791h-2.79zM64.186 69.767h2.791v2.791h-2.791zM72.558 69.767h2.791v2.791h-2.79zM75.349 69.767h2.79v2.791h-2.79zM78.14 69.767h2.79v2.791h-2.79zM80.93 69.767h2.791v2.791h-2.79zM92.093 69.767h2.791v2.791h-2.791zM94.884 69.767h2.79v2.791h-2.79zM97.674 69.767h2.791v2.791h-2.79zM100.465 69.767h2.791v2.791h-2.79zM103.256 69.767h2.79v2.791h-2.79zM106.047 69.767h2.79v2.791h-2.79zM108.837 69.767h2.791v2.791h-2.79zM111.628 69.767h2.79v2.791h-2.79zM2.79 72.558h2.792v2.791H2.79z"/><path d="M5.581 72.558h2.791v2.791h-2.79zM8.372 72.558h2.791v2.791h-2.79zM11.163 72.558h2.79v2.791h-2.79zM25.116 72.558h2.791v2.791h-2.79zM30.698 72.558h2.79v2.791h-2.79zM33.488 72.558h2.791v2.791h-2.79zM36.28 72.558h2.79v2.791h-2.79zM44.651 72.558h2.791v2.791h-2.79zM58.605 72.558h2.79v2.791h-2.79zM64.186 72.558h2.791v2.791h-2.791zM66.977 72.558h2.79v2.791h-2.79zM78.14 72.558h2.79v2.791h-2.79zM80.93 72.558h2.791v2.791h-2.79zM86.512 72.558h2.79v2.791h-2.79zM89.302 72.558h2.791v2.791h-2.79zM94.884 72.558h2.79v2.791h-2.79zM100.465 72.558h2.791v2.791h-2.79zM106.047 72.558h2.79v2.791h-2.79zM111.628 72.558h2.79v2.791h-2.79zM5.581 75.349h2.791v2.79h-2.79zM8.372 75.349h2.791v2.79h-2.79zM11.163 75.349h2.79v2.79h-2.79zM19.535 75.349h2.79v2.79h-2.79zM22.326 75.349h2.79v2.79h-2.79zM25.116 75.349h2.791v2.79h-2.79zM30.698 75.349h2.79v2.79h-2.79zM36.28 75.349h2.79v2.79h-2.79zM47.442 75.349h2.79v2.79h-2.79zM50.233 75.349h2.79v2.79h-2.79zM58.605 75.349h2.79v2.79h-2.79zM69.767 75.349h2.791v2.79h-2.79zM75.349 75.349h2.79v2.79h-2.79zM78.14 75.349h2.79v2.79h-2.79zM83.72 75.349h2.792v2.79H83.72zM86.512 75.349h2.79v2.79h-2.79zM89.302 75.349h2.791v2.79h-2.79zM94.884 75.349h2.79v2.79h-2.79zM97.674 75.349h2.791v2.79h-2.79zM100.465 75.349h2.791v2.79h-2.79zM106.047 75.349h2.79v2.79h-2.79zM108.837 75.349h2.791v2.79h-2.79zM111.628 75.349h2.79v2.79h-2.79zM5.581 78.14h2.791v2.79h-2.79zM8.372 78.14h2.791v2.79h-2.79zM13.953 78.14h2.791v2.79h-2.79zM16.744 78.14h2.791v2.79h-2.79zM22.326 78.14h2.79v2.79h-2.79zM30.698 78.14h2.79v2.79h-2.79zM33.488 78.14h2.791v2.79h-2.79zM36.28 78.14h2.79v2.79h-2.79zM39.07 78.14h2.79v2.79h-2.79zM50.233 78.14h2.79v2.79h-2.79zM53.023 78.14h2.791v2.79h-2.79zM58.605 78.14h2.79v2.79h-2.79zM61.395 78.14h2.791v2.79h-2.79zM64.186 78.14h2.791v2.79h-2.791zM66.977 78.14h2.79v2.79h-2.79zM72.558 78.14h2.791v2.79h-2.79zM75.349 78.14h2.79v2.79h-2.79zM80.93 78.14h2.791v2.79h-2.79zM89.302 78.14h2.791v2.79h-2.79zM92.093 78.14h2.791v2.79h-2.791zM94.884 78.14h2.79v2.79h-2.79zM103.256 78.14h2.79v2.79h-2.79zM106.047 78.14h2.79v2.79h-2.79zM111.628 78.14h2.79v2.79h-2.79zM8.372 80.93h2.791v2.791h-2.79zM13.953 80.93h2.791v2.791h-2.79zM19.535 80.93h2.79v2.791h-2.79zM33.488 80.93h2.791v2.791h-2.79zM36.28 80.93h2.79v2.791h-2.79zM39.07 80.93h2.79v2.791h-2.79zM41.86 80.93h2.791v2.791h-2.79zM61.395 80.93h2.791v2.791h-2.79zM64.186 80.93h2.791v2.791h-2.791zM66.977 80.93h2.79v2.791h-2.79zM72.558 80.93h2.791v2.791h-2.79zM75.349 80.93h2.79v2.791h-2.79zM78.14 80.93h2.79v2.791h-2.79zM86.512 80.93h2.79v2.791h-2.79zM92.093 80.93h2.791v2.791h-2.791zM94.884 80.93h2.79v2.791h-2.79zM97.674 80.93h2.791v2.791h-2.79zM100.465 80.93h2.791v2.791h-2.79zM114.419 80.93h2.79v2.791h-2.79z"/><path d="M8.372 83.72h2.791v2.792h-2.79zM11.163 83.72h2.79v2.792h-2.79zM13.953 83.72h2.791v2.792h-2.79zM27.907 83.72h2.791v2.792h-2.791zM30.698 83.72h2.79v2.792h-2.79zM36.28 83.72h2.79v2.792h-2.79zM39.07 83.72h2.79v2.792h-2.79zM41.86 83.72h2.791v2.792h-2.79zM47.442 83.72h2.79v2.792h-2.79zM50.233 83.72h2.79v2.792h-2.79zM53.023 83.72h2.791v2.792h-2.79zM55.814 83.72h2.791v2.792h-2.791zM58.605 83.72h2.79v2.792h-2.79zM86.512 83.72h2.79v2.792h-2.79zM92.093 83.72h2.791v2.792h-2.791zM94.884 83.72h2.79v2.792h-2.79zM100.465 83.72h2.791v2.792h-2.79zM106.047 83.72h2.79v2.792h-2.79zM108.837 83.72h2.791v2.792h-2.79zM114.419 83.72h2.79v2.792h-2.79zM2.79 86.512h2.792v2.79H2.79z"/><path d="M5.581 86.512h2.791v2.79h-2.79zM8.372 86.512h2.791v2.79h-2.79zM13.953 86.512h2.791v2.79h-2.79zM16.744 86.512h2.791v2.79h-2.79zM19.535 86.512h2.79v2.79h-2.79zM22.326 86.512h2.79v2.79h-2.79zM25.116 86.512h2.791v2.79h-2.79zM27.907 86.512h2.791v2.79h-2.791zM33.488 86.512h2.791v2.79h-2.79zM36.28 86.512h2.79v2.79h-2.79zM39.07 86.512h2.79v2.79h-2.79zM50.233 86.512h2.79v2.79h-2.79zM53.023 86.512h2.791v2.79h-2.79zM55.814 86.512h2.791v2.79h-2.791zM66.977 86.512h2.79v2.79h-2.79zM72.558 86.512h2.791v2.79h-2.79zM75.349 86.512h2.79v2.79h-2.79zM78.14 86.512h2.79v2.79h-2.79zM86.512 86.512h2.79v2.79h-2.79zM92.093 86.512h2.791v2.79h-2.791zM94.884 86.512h2.79v2.79h-2.79zM106.047 86.512h2.79v2.79h-2.79zM111.628 86.512h2.79v2.79h-2.79zM114.419 86.512h2.79v2.79h-2.79zM16.744 89.302h2.791v2.791h-2.79zM25.116 89.302h2.791v2.791h-2.79zM27.907 89.302h2.791v2.791h-2.791zM33.488 89.302h2.791v2.791h-2.79zM39.07 89.302h2.79v2.791h-2.79zM50.233 89.302h2.79v2.791h-2.79zM55.814 89.302h2.791v2.791h-2.791zM64.186 89.302h2.791v2.791h-2.791zM69.767 89.302h2.791v2.791h-2.79zM72.558 89.302h2.791v2.791h-2.79zM75.349 89.302h2.79v2.791h-2.79zM83.72 89.302h2.792v2.791H83.72zM89.302 89.302h2.791v2.791h-2.79zM92.093 89.302h2.791v2.791h-2.791zM97.674 89.302h2.791v2.791h-2.79zM106.047 89.302h2.79v2.791h-2.79zM114.419 89.302h2.79v2.791h-2.79zM2.79 92.093h2.792v2.791H2.79z"/><path d="M5.581 92.093h2.791v2.791h-2.79zM8.372 92.093h2.791v2.791h-2.79zM13.953 92.093h2.791v2.791h-2.79zM19.535 92.093h2.79v2.791h-2.79zM22.326 92.093h2.79v2.791h-2.79zM33.488 92.093h2.791v2.791h-2.79zM36.28 92.093h2.79v2.791h-2.79zM47.442 92.093h2.79v2.791h-2.79zM50.233 92.093h2.79v2.791h-2.79zM64.186 92.093h2.791v2.791h-2.791zM72.558 92.093h2.791v2.791h-2.79zM75.349 92.093h2.79v2.791h-2.79zM78.14 92.093h2.79v2.791h-2.79zM83.72 92.093h2.792v2.791H83.72zM86.512 92.093h2.79v2.791h-2.79zM92.093 92.093h2.791v2.791h-2.791zM94.884 92.093h2.79v2.791h-2.79zM97.674 92.093h2.791v2.791h-2.79zM100.465 92.093h2.791v2.791h-2.79zM103.256 92.093h2.79v2.791h-2.79zM106.047 92.093h2.79v2.791h-2.79zM111.628 92.093h2.79v2.791h-2.79zM25.116 94.884h2.791v2.79h-2.79zM36.28 94.884h2.79v2.79h-2.79zM41.86 94.884h2.791v2.79h-2.79zM47.442 94.884h2.79v2.79h-2.79zM50.233 94.884h2.79v2.79h-2.79zM55.814 94.884h2.791v2.79h-2.791zM58.605 94.884h2.79v2.79h-2.79zM61.395 94.884h2.791v2.79h-2.79zM66.977 94.884h2.79v2.79h-2.79z"/><path d="M69.767 94.884h2.791v2.79h-2.79zM83.72 94.884h2.792v2.79H83.72zM86.512 94.884h2.79v2.79h-2.79zM92.093 94.884h2.791v2.79h-2.791zM103.256 94.884h2.79v2.79h-2.79zM108.837 94.884h2.791v2.79h-2.79zM114.419 94.884h2.79v2.79h-2.79zM2.79 97.674h2.792v2.791H2.79z"/><path d="M5.581 97.674h2.791v2.791h-2.79zM8.372 97.674h2.791v2.791h-2.79zM11.163 97.674h2.79v2.791h-2.79zM13.953 97.674h2.791v2.791h-2.79zM16.744 97.674h2.791v2.791h-2.79zM19.535 97.674h2.79v2.791h-2.79zM25.116 97.674h2.791v2.791h-2.79zM27.907 97.674h2.791v2.791h-2.791zM30.698 97.674h2.79v2.791h-2.79zM33.488 97.674h2.791v2.791h-2.79zM36.28 97.674h2.79v2.791h-2.79zM44.651 97.674h2.791v2.791h-2.79zM47.442 97.674h2.79v2.791h-2.79zM50.233 97.674h2.79v2.791h-2.79zM53.023 97.674h2.791v2.791h-2.79zM64.186 97.674h2.791v2.791h-2.791zM69.767 97.674h2.791v2.791h-2.79zM78.14 97.674h2.79v2.791h-2.79zM89.302 97.674h2.791v2.791h-2.79zM92.093 97.674h2.791v2.791h-2.791zM97.674 97.674h2.791v2.791h-2.79zM103.256 97.674h2.79v2.791h-2.79zM106.047 97.674h2.79v2.791h-2.79zM114.419 97.674h2.79v2.791h-2.79zM2.79 100.465h2.792v2.791H2.79zM19.535 100.465h2.79v2.791h-2.79zM25.116 100.465h2.791v2.791h-2.79zM27.907 100.465h2.791v2.791h-2.791zM36.28 100.465h2.79v2.791h-2.79zM39.07 100.465h2.79v2.791h-2.79zM41.86 100.465h2.791v2.791h-2.79zM47.442 100.465h2.79v2.791h-2.79zM50.233 100.465h2.79v2.791h-2.79zM53.023 100.465h2.791v2.791h-2.79zM55.814 100.465h2.791v2.791h-2.791zM58.605 100.465h2.79v2.791h-2.79zM66.977 100.465h2.79v2.791h-2.79zM80.93 100.465h2.791v2.791h-2.79z"/><path d="M83.72 100.465h2.792v2.791H83.72zM92.093 100.465h2.791v2.791h-2.791zM103.256 100.465h2.79v2.791h-2.79zM2.79 103.256h2.792v2.79H2.79zM8.372 103.256h2.791v2.79h-2.79zM11.163 103.256h2.79v2.79h-2.79zM13.953 103.256h2.791v2.79h-2.79zM19.535 103.256h2.79v2.79h-2.79zM30.698 103.256h2.79v2.79h-2.79zM36.28 103.256h2.79v2.79h-2.79zM39.07 103.256h2.79v2.79h-2.79zM41.86 103.256h2.791v2.79h-2.79zM44.651 103.256h2.791v2.79h-2.79zM50.233 103.256h2.79v2.79h-2.79zM58.605 103.256h2.79v2.79h-2.79zM72.558 103.256h2.791v2.79h-2.79zM78.14 103.256h2.79v2.79h-2.79zM83.72 103.256h2.792v2.79H83.72zM89.302 103.256h2.791v2.79h-2.79zM92.093 103.256h2.791v2.79h-2.791zM94.884 103.256h2.79v2.79h-2.79zM97.674 103.256h2.791v2.79h-2.79zM100.465 103.256h2.791v2.79h-2.79zM103.256 103.256h2.79v2.79h-2.79zM108.837 103.256h2.791v2.79h-2.79zM111.628 103.256h2.79v2.79h-2.79zM2.79 106.047h2.792v2.79H2.79zM8.372 106.047h2.791v2.79h-2.79zM11.163 106.047h2.79v2.79h-2.79zM13.953 106.047h2.791v2.79h-2.79zM19.535 106.047h2.79v2.79h-2.79zM27.907 106.047h2.791v2.79h-2.791zM41.86 106.047h2.791v2.79h-2.79zM47.442 106.047h2.79v2.79h-2.79zM50.233 106.047h2.79v2.79h-2.79zM61.395 106.047h2.791v2.79h-2.79zM64.186 106.047h2.791v2.79h-2.791zM66.977 106.047h2.79v2.79h-2.79z"/><path d="M69.767 106.047h2.791v2.79h-2.79zM75.349 106.047h2.79v2.79h-2.79zM78.14 106.047h2.79v2.79h-2.79zM80.93 106.047h2.791v2.79h-2.79zM89.302 106.047h2.791v2.79h-2.79zM100.465 106.047h2.791v2.79h-2.79zM103.256 106.047h2.79v2.79h-2.79zM106.047 106.047h2.79v2.79h-2.79zM108.837 106.047h2.791v2.79h-2.79zM111.628 106.047h2.79v2.79h-2.79zM2.79 108.837h2.792v2.791H2.79zM8.372 108.837h2.791v2.791h-2.79zM11.163 108.837h2.79v2.791h-2.79zM13.953 108.837h2.791v2.791h-2.79zM19.535 108.837h2.79v2.791h-2.79zM25.116 108.837h2.791v2.791h-2.79zM27.907 108.837h2.791v2.791h-2.791zM30.698 108.837h2.79v2.791h-2.79zM36.28 108.837h2.79v2.791h-2.79zM39.07 108.837h2.79v2.791h-2.79zM50.233 108.837h2.79v2.791h-2.79zM61.395 108.837h2.791v2.791h-2.79zM66.977 108.837h2.79v2.791h-2.79zM75.349 108.837h2.79v2.791h-2.79zM80.93 108.837h2.791v2.791h-2.79zM92.093 108.837h2.791v2.791h-2.791zM94.884 108.837h2.79v2.791h-2.79zM103.256 108.837h2.79v2.791h-2.79zM106.047 108.837h2.79v2.791h-2.79zM111.628 108.837h2.79v2.791h-2.79zM114.419 108.837h2.79v2.791h-2.79zM2.79 111.628h2.792v2.79H2.79zM19.535 111.628h2.79v2.79h-2.79zM36.28 111.628h2.79v2.79h-2.79zM41.86 111.628h2.791v2.79h-2.79zM58.605 111.628h2.79v2.79h-2.79zM64.186 111.628h2.791v2.79h-2.791zM66.977 111.628h2.79v2.79h-2.79zM72.558 111.628h2.791v2.79h-2.79zM78.14 111.628h2.79v2.79h-2.79zM86.512 111.628h2.79v2.79h-2.79zM94.884 111.628h2.79v2.79h-2.79zM97.674 111.628h2.791v2.79h-2.79zM106.047 111.628h2.79v2.79h-2.79zM108.837 111.628h2.791v2.79h-2.79zM2.79 114.419h2.792v2.79H2.79z"/><path d="M5.581 114.419h2.791v2.79h-2.79zM8.372 114.419h2.791v2.79h-2.79zM11.163 114.419h2.79v2.79h-2.79zM13.953 114.419h2.791v2.79h-2.79zM16.744 114.419h2.791v2.79h-2.79zM19.535 114.419h2.79v2.79h-2.79zM27.907 114.419h2.791v2.79h-2.791zM30.698 114.419h2.79v2.79h-2.79zM36.28 114.419h2.79v2.79h-2.79zM39.07 114.419h2.79v2.79h-2.79zM41.86 114.419h2.791v2.79h-2.79zM44.651 114.419h2.791v2.79h-2.79zM47.442 114.419h2.79v2.79h-2.79zM55.814 114.419h2.791v2.79h-2.791zM64.186 114.419h2.791v2.79h-2.791zM66.977 114.419h2.79v2.79h-2.79zM72.558 114.419h2.791v2.79h-2.79zM75.349 114.419h2.79v2.79h-2.79zM78.14 114.419h2.79v2.79h-2.79zM80.93 114.419h2.791v2.79h-2.79zM92.093 114.419h2.791v2.79h-2.791zM103.256 114.419h2.79v2.79h-2.79zM106.047 114.419h2.79v2.79h-2.79zM108.837 114.419h2.791v2.79h-2.79zM114.419 114.419h2.79v2.79h-2.79z"/></g></g></svg>