<svg xmlns="http://www.w3.org/2000/svg" width="28" height="28" viewBox="0 0 28 28"><g fill="none" fill-rule="evenodd" transform="translate(1 1)"><circle cx="13" cy="13" r="13" stroke="#B6C2CD"/><g fill="currentColor" fill-rule="nonzero"><path d="M16.157 13.696a2.13 2.13 0 0 1-2.136-2.135c0-1.207.929-2.136 2.136-2.136s2.136.929 2.136 2.136a2.13 2.13 0 0 1-2.136 2.135zm.51.418h-.185c-.278 0-.464.186-.464.465 0 0 1.114 3.9 1.764 3.9h1.486a.882.882 0 0 0 .882-.883c.046-1.392-1.346-3.482-3.482-3.482zM11.05 12.814c-1.486 0-2.693-1.207-2.693-2.646 0-1.44 1.207-2.647 2.647-2.647 1.439 0 2.646 1.208 2.646 2.647 0 1.44-1.16 2.646-2.6 2.646zm4.179 5.665H6.825a1.03 1.03 0 0 1-1.021-1.022c0-1.81 1.764-4.457 4.457-4.457H11.7c2.74 0 4.457 2.646 4.457 4.457.093.557-.371 1.022-.928 1.022z"/></g></g></svg>