<svg xmlns="http://www.w3.org/2000/svg" xmlns:xlink="http://www.w3.org/1999/xlink" width="34" height="34" version="1.1" viewBox="0 0 34 34"><title>linkedin/hover</title><desc>Created with Sketch.</desc><g id="页面1" fill="none" fill-rule="evenodd" stroke="none" stroke-width="1"><g id="Platform/DevOps" transform="translate(-864.000000, -4171.000000)"><g id="编组-3" transform="translate(168.000000, 3900.000000)"><g id="编组-2" transform="translate(424.000000, 226.000000)"><g id="编组-58" transform="translate(53.000000, 0.000000)"><g id="linkedin/hover" transform="translate(220.000000, 46.000000)"><circle id="椭圆形复制-3备份" cx="16" cy="16" r="16" stroke="#B6C2CD"/><g id="linkedin" fill-rule="nonzero" transform="translate(8.000000, 7.000000)"><rect id="矩形" width="16" height="16" x="0" y="0" fill="#000" opacity="0"/><path id="形状" fill="#006A9A" d="M1.19420313,5.65196875 L4.09967188,5.65196875 L4.09967188,14.9857188 L1.19420313,14.9857188 L1.19420313,5.65196875 L1.19420313,5.65196875 Z M2.6478125,1.011875 C3.57671875,1.011875 4.329875,1.76609375 4.329875,2.6935 C4.329875,3.621875 3.57671875,4.37598437 2.64782813,4.37598437 C1.71560938,4.37598437 0.963890625,3.621875 0.963890625,2.6935 C0.963890625,1.76609375 1.71559375,1.011875 2.64782813,1.011875 M5.92098437,5.65196875 L8.70339063,5.65196875 L8.70339063,6.92765625 L8.74285937,6.92765625 C9.12973438,6.19323438 10.0772969,5.419875 11.4895313,5.419875 C14.4264531,5.419875 14.9696875,7.35217188 14.9696875,9.86601562 L14.9696875,14.9857188 L12.0696875,14.9857188 L12.0696875,10.4477031 C12.0696875,9.36432813 12.0482188,7.97176563 10.5609375,7.97176563 C9.05025,7.97176563 8.81995313,9.15076563 8.81995313,10.3675938 L8.81995313,14.9857188 L5.92098437,14.9857188 L5.92098437,5.65196875 Z"/></g></g></g></g></g></g></g></svg>