<svg xmlns="http://www.w3.org/2000/svg" xmlns:xlink="http://www.w3.org/1999/xlink" width="34" height="34" version="1.1" viewBox="0 0 34 34"><title>Medium/default</title><desc>Created with Sketch.</desc><g id="页面1" fill="none" fill-rule="evenodd" stroke="none" stroke-width="1"><g id="Platform/DevOps" transform="translate(-908.000000, -4125.000000)"><g id="编组-3" transform="translate(168.000000, 3900.000000)"><g id="编组-2" transform="translate(424.000000, 226.000000)"><g id="编组-58" transform="translate(53.000000, 0.000000)"><g id="Medium/default" transform="translate(264.000000, 0.000000)"><circle id="椭圆形复制-3备份-2" cx="16" cy="16" r="16" stroke="#B6C2CD"/><g id="medium" fill-rule="nonzero" transform="translate(8.000000, 8.000000)"><rect id="矩形" width="16" height="16" x="0" y="0" fill="#000" opacity="0"/><path id="形状" fill="#B5C1CC" d="M1,1 L1,15 L15,15 L15,1 L1,1 Z M12.63125,4.315625 L11.88125,5.034375 C11.815625,5.084375 11.784375,5.165625 11.796875,5.24375 L11.796875,10.534375 C11.784375,10.615625 11.815625,10.696875 11.88125,10.74375 L12.615625,11.4625 L12.615625,11.621875 L8.928125,11.621875 L8.928125,11.46875 L9.6875,10.73125 C9.7625,10.65625 9.7625,10.634375 9.7625,10.521875 L9.7625,6.24375 L7.65,11.60625 L7.365625,11.60625 L4.90625,6.24375 L4.90625,9.8375 C4.884375,9.9875 4.9375,10.140625 5.04375,10.25 L6.03125,11.446875 L6.03125,11.60625 L3.225,11.60625 L3.225,11.446875 L4.2125,10.25 C4.31875,10.140625 4.365625,9.9875 4.340625,9.8375 L4.340625,5.68125 C4.353125,5.565625 4.309375,5.453125 4.221875,5.375 L3.34375,4.315625 L3.34375,4.15625 L6.071875,4.15625 L8.178125,8.78125 L10.03125,4.159375 L12.63125,4.159375 L12.63125,4.315625 Z"/></g></g></g></g></g></g></g></svg>