<svg xmlns="http://www.w3.org/2000/svg" xmlns:xlink="http://www.w3.org/1999/xlink" width="34" height="34" version="1.1" viewBox="0 0 34 34"><title>Slack</title><desc>Created with Sketch.</desc><g id="页面1" fill="none" fill-rule="evenodd" stroke="none" stroke-width="1"><g id="Footer复制" transform="translate(-766.000000, -373.000000)"><g id="Slack" transform="translate(767.000000, 374.000000)"><g id="编组-4复制"><g id="编组-5"><circle id="椭圆形复制-3" cx="16" cy="16" r="16" stroke="#B6C2CD"/><g id="slack" fill="#304357" fill-rule="nonzero" opacity="0" transform="translate(8.000000, 9.000000)"><rect id="矩形" width="17.143" height="17.143" x="0" y=".143"/></g></g></g><g fill-rule="nonzero" transform="translate(8.000000, 8.000000)"><rect id="矩形" width="16" height="16" x="0" y="0" fill="#000" opacity="0"/><path id="路径" fill="#E9A823" d="M10.3728199,0.984982531 C10.1236624,0.237510047 9.32373575,-0.169010078 8.57626325,0.0670338594 C7.82879077,0.316191359 7.42227064,1.11611805 7.65831459,1.86359053 L11.3432228,13.1936998 C11.5923803,13.8887181 12.3529663,14.2821246 13.0742117,14.0723078 C13.8347977,13.8493774 14.2937721,13.0494507 14.0446146,12.3150918 C14.0446146,12.2888647 10.3728199,0.984982531 10.3728199,0.984982531 L10.3728199,0.984982531 Z"/><path id="路径" fill="#3FB991" d="M4.66842464,2.84710697 C4.41926714,2.09963448 3.61934045,1.69311436 2.87186797,1.9291583 C2.12439548,2.16520223 1.71787536,2.97824248 1.95391931,3.72571497 L5.63882753,15.0558242 C5.88798503,15.7508425 6.64857106,16.1442491 7.36981644,15.9344322 C8.13040247,15.7115018 8.58937681,14.9115752 8.34021931,14.1772162 C8.34021931,14.1509891 4.66842464,2.84710697 4.66842464,2.84710697 L4.66842464,2.84710697 Z"/><path id="路径" fill="#E11765" d="M15.0150175,10.374286 C15.76249,10.1251285 16.1690101,9.32520184 15.9329661,8.57772936 C15.6838086,7.83025687 14.883882,7.42373675 14.1364095,7.65978069 L2.79318666,11.3446889 C2.09816838,11.5938464 1.70476181,12.3544324 1.91457864,13.0756778 C2.13750903,13.8362638 2.93743572,14.2952382 3.67179467,14.0460807 C3.69802178,14.0460807 15.0150175,10.374286 15.0150175,10.374286 L15.0150175,10.374286 Z"/><path id="路径" fill="#472A49" d="M5.15362608,13.5739928 C5.88798502,13.3379489 6.84527433,13.0232236 7.86813142,12.6953848 C7.63208748,11.9610259 7.31736222,11.0037365 6.98952342,9.98087945 L4.27501808,10.8594875 L5.15362608,13.5739928 Z"/><path id="路径" fill="#CD2027" d="M10.8580214,11.7249819 C11.8808785,11.3971431 12.8381678,11.0824179 13.5725267,10.8463739 C13.3364828,10.112015 13.0217575,9.15472567 12.6939187,8.13186858 L9.97941336,9.01047658 L10.8580214,11.7249819 Z"/><path id="路径" fill="#71CBDC" d="M13.152893,4.66989075 C13.9003655,4.42073325 14.3068856,3.62080656 14.0708417,2.87333406 C13.8347978,2.12586156 13.0217575,1.71934145 12.274285,1.95538541 L0.944175766,5.64029362 C0.2491575,5.88945111 -0.144249078,6.65003716 0.0655677656,7.37128253 C0.288498156,8.13186856 1.08842484,8.59084291 1.82278378,8.34168541 C1.84901089,8.34168541 13.152893,4.66989073 13.152893,4.66989075 L13.152893,4.66989075 Z"/><path id="路径" fill="#1D947E" d="M3.3046152,7.86959753 C4.03897414,7.63355359 4.99626345,7.31882833 6.01912055,6.99098952 C5.69128173,5.96813244 5.37655648,5.01084311 5.14051253,4.27648417 L2.42600719,5.15509219 L3.3046152,7.86959753 Z"/><path id="路径" fill="#66873A" d="M9.00901048,6.00747308 C10.0318676,5.67963427 10.9891569,5.36490902 11.7235158,5.12886508 C11.395677,4.106008 11.0809518,3.14871867 10.8449078,2.41435973 L8.13040247,3.3060813 L9.00901048,6.00747308 Z"/></g></g></g></g></svg>