<svg xmlns="http://www.w3.org/2000/svg" xmlns:xlink="http://www.w3.org/1999/xlink" width="34" height="34" version="1.1" viewBox="0 0 34 34"><title>Twitter/hover</title><desc>Created with Sketch.</desc><g id="页面1" fill="none" fill-rule="evenodd" stroke="none" stroke-width="1"><g id="画板备份-4" transform="translate(-780.000000, -6178.000000)"><g id="编组-3" transform="translate(154.000000, 5932.000000)"><g id="编组-2" transform="translate(424.000000, 205.000000)"><g id="Twitter/hover" transform="translate(203.000000, 42.000000)"><circle id="椭圆形复制-3" cx="16" cy="16" r="16" stroke="#B6C2CD"/><g><g transform="translate(8.000000, 8.000000)"><rect id="矩形" width="16" height="16" x="0" y="0" fill="#304357" fill-rule="nonzero" opacity="0"/><path id="路径" fill="#03A9F4" fill-rule="nonzero" d="M16,3.539 C15.405,3.8 14.771,3.973 14.11,4.057 C14.79,3.651 15.309,3.013 15.553,2.244 C14.919,2.622 14.219,2.889 13.473,3.038 C12.871,2.397 12.013,2 11.077,2 C9.261,2 7.799,3.474 7.799,5.281 C7.799,5.541 7.821,5.791 7.875,6.029 C5.148,5.896 2.735,4.589 1.114,2.598 C0.831,3.089 0.665,3.651 0.665,4.256 C0.665,5.392 1.25,6.399 2.122,6.982 C1.595,6.972 1.078,6.819 0.64,6.578 C0.64,6.588 0.64,6.601 0.64,6.614 C0.64,8.208 1.777,9.532 3.268,9.837 C3.001,9.91 2.71,9.945 2.408,9.945 C2.198,9.945 1.986,9.933 1.787,9.889 C2.212,11.188 3.418,12.143 4.852,12.174 C3.736,13.047 2.319,13.573 0.785,13.573 C0.516,13.573 0.258,13.561 0,13.528 C1.453,14.465 3.175,15 5.032,15 C11.068,15 14.368,10 14.368,5.666 C14.368,5.521 14.363,5.381 14.356,5.242 C15.007,4.78 15.554,4.203 16,3.539 Z"/></g></g></g></g></g></g></g></svg>