<svg xmlns="http://www.w3.org/2000/svg" width="34" height="34" viewBox="0 0 34 34"><g fill="none" fill-rule="evenodd" transform="translate(1 1)"><circle cx="16" cy="16" r="16" stroke="#B6C2CD"/><g fill-rule="nonzero"><path fill="#B5C1CC" d="M16 3.539c-.595.261-1.229.434-1.89.518.68-.406 1.199-1.044 1.443-1.813-.634.378-1.334.645-2.08.794C12.871 2.397 12.013 2 11.077 2 9.261 2 7.799 3.474 7.799 5.281c0 .26.022.51.076.748-2.727-.133-5.14-1.44-6.761-3.431-.283.491-.449 1.053-.449 1.658 0 1.136.585 2.143 1.457 2.726-.527-.01-1.044-.163-1.482-.404v.036c0 1.594 1.137 2.918 2.628 3.223-.267.073-.558.108-.86.108-.21 0-.422-.012-.621-.056.425 1.299 1.631 2.254 3.065 2.285-1.116.873-2.533 1.399-4.067 1.399-.269 0-.527-.012-.785-.045C1.453 14.465 3.175 15 5.032 15c6.036 0 9.336-5 9.336-9.334 0-.145-.005-.285-.012-.424.651-.462 1.198-1.039 1.644-1.703z" transform="translate(8 8)"/></g></g></svg>