<svg xmlns="http://www.w3.org/2000/svg" width="120" height="120" viewBox="0 0 120 120"><g fill="none" fill-rule="nonzero"><path fill="#FFF" d="M0 0h120v120H0z"/><g fill="#000"><path d="M3.077 3.077h3.077v3.077H3.077zM6.154 3.077H9.23v3.077H6.154zM9.23 3.077h3.078v3.077H9.23zM12.308 3.077h3.077v3.077h-3.077zM15.385 3.077h3.077v3.077h-3.077zM18.462 3.077h3.077v3.077h-3.077z"/><path d="M21.538 3.077h3.077v3.077h-3.077zM27.692 3.077h3.077v3.077h-3.077zM30.77 3.077h3.076v3.077H30.77zM33.846 3.077h3.077v3.077h-3.077zM40 3.077h3.077v3.077H40zM43.077 3.077h3.077v3.077h-3.077zM52.308 3.077h3.077v3.077h-3.077zM67.692 3.077h3.077v3.077h-3.077zM83.077 3.077h3.077v3.077h-3.077zM86.154 3.077h3.077v3.077h-3.077zM95.385 3.077h3.077v3.077h-3.077zM98.462 3.077h3.077v3.077h-3.077z"/><path d="M101.538 3.077h3.077v3.077h-3.077zM104.615 3.077h3.077v3.077h-3.077zM107.692 3.077h3.077v3.077h-3.077zM110.77 3.077h3.076v3.077h-3.077zM113.846 3.077h3.077v3.077h-3.077zM3.077 6.154h3.077V9.23H3.077zM21.538 6.154h3.077V9.23h-3.077zM27.692 6.154h3.077V9.23h-3.077zM30.77 6.154h3.076V9.23H30.77zM46.154 6.154h3.077V9.23h-3.077zM55.385 6.154h3.077V9.23h-3.077zM61.538 6.154h3.077V9.23h-3.077zM73.846 6.154h3.077V9.23h-3.077zM76.923 6.154H80V9.23h-3.077zM80 6.154h3.077V9.23H80zM83.077 6.154h3.077V9.23h-3.077zM86.154 6.154h3.077V9.23h-3.077zM95.385 6.154h3.077V9.23h-3.077zM113.846 6.154h3.077V9.23h-3.077zM3.077 9.23h3.077v3.078H3.077zM9.23 9.23h3.078v3.078H9.23zM12.308 9.23h3.077v3.078h-3.077zM15.385 9.23h3.077v3.078h-3.077zM21.538 9.23h3.077v3.078h-3.077zM36.923 9.23H40v3.078h-3.077zM40 9.23h3.077v3.078H40zM43.077 9.23h3.077v3.078h-3.077zM46.154 9.23h3.077v3.078h-3.077zM52.308 9.23h3.077v3.078h-3.077zM58.462 9.23h3.077v3.078h-3.077zM64.615 9.23h3.077v3.078h-3.077zM70.77 9.23h3.076v3.078H70.77zM86.154 9.23h3.077v3.078h-3.077z"/><path d="M89.23 9.23h3.078v3.078H89.23zM95.385 9.23h3.077v3.078h-3.077zM101.538 9.23h3.077v3.078h-3.077zM104.615 9.23h3.077v3.078h-3.077zM107.692 9.23h3.077v3.078h-3.077zM113.846 9.23h3.077v3.078h-3.077zM3.077 12.308h3.077v3.077H3.077zM9.23 12.308h3.078v3.077H9.23zM12.308 12.308h3.077v3.077h-3.077zM15.385 12.308h3.077v3.077h-3.077zM21.538 12.308h3.077v3.077h-3.077zM27.692 12.308h3.077v3.077h-3.077zM40 12.308h3.077v3.077H40zM43.077 12.308h3.077v3.077h-3.077zM67.692 12.308h3.077v3.077h-3.077zM83.077 12.308h3.077v3.077h-3.077zM86.154 12.308h3.077v3.077h-3.077z"/><path d="M89.23 12.308h3.078v3.077H89.23zM95.385 12.308h3.077v3.077h-3.077zM101.538 12.308h3.077v3.077h-3.077zM104.615 12.308h3.077v3.077h-3.077zM107.692 12.308h3.077v3.077h-3.077zM113.846 12.308h3.077v3.077h-3.077zM3.077 15.385h3.077v3.077H3.077zM9.23 15.385h3.078v3.077H9.23zM12.308 15.385h3.077v3.077h-3.077zM15.385 15.385h3.077v3.077h-3.077zM21.538 15.385h3.077v3.077h-3.077zM27.692 15.385h3.077v3.077h-3.077zM30.77 15.385h3.076v3.077H30.77zM33.846 15.385h3.077v3.077h-3.077zM52.308 15.385h3.077v3.077h-3.077zM55.385 15.385h3.077v3.077h-3.077zM61.538 15.385h3.077v3.077h-3.077zM64.615 15.385h3.077v3.077h-3.077zM67.692 15.385h3.077v3.077h-3.077zM73.846 15.385h3.077v3.077h-3.077zM76.923 15.385H80v3.077h-3.077zM80 15.385h3.077v3.077H80zM86.154 15.385h3.077v3.077h-3.077z"/><path d="M89.23 15.385h3.078v3.077H89.23zM95.385 15.385h3.077v3.077h-3.077zM101.538 15.385h3.077v3.077h-3.077zM104.615 15.385h3.077v3.077h-3.077zM107.692 15.385h3.077v3.077h-3.077zM113.846 15.385h3.077v3.077h-3.077zM3.077 18.462h3.077v3.077H3.077zM21.538 18.462h3.077v3.077h-3.077zM27.692 18.462h3.077v3.077h-3.077zM30.77 18.462h3.076v3.077H30.77zM36.923 18.462H40v3.077h-3.077zM43.077 18.462h3.077v3.077h-3.077zM46.154 18.462h3.077v3.077h-3.077z"/><path d="M49.23 18.462h3.078v3.077H49.23zM55.385 18.462h3.077v3.077h-3.077zM58.462 18.462h3.077v3.077h-3.077zM64.615 18.462h3.077v3.077h-3.077zM67.692 18.462h3.077v3.077h-3.077zM70.77 18.462h3.076v3.077H70.77zM83.077 18.462h3.077v3.077h-3.077zM86.154 18.462h3.077v3.077h-3.077z"/><path d="M89.23 18.462h3.078v3.077H89.23zM95.385 18.462h3.077v3.077h-3.077zM113.846 18.462h3.077v3.077h-3.077zM3.077 21.538h3.077v3.077H3.077zM6.154 21.538H9.23v3.077H6.154zM9.23 21.538h3.078v3.077H9.23zM12.308 21.538h3.077v3.077h-3.077zM15.385 21.538h3.077v3.077h-3.077zM18.462 21.538h3.077v3.077h-3.077z"/><path d="M21.538 21.538h3.077v3.077h-3.077zM27.692 21.538h3.077v3.077h-3.077zM33.846 21.538h3.077v3.077h-3.077zM40 21.538h3.077v3.077H40zM46.154 21.538h3.077v3.077h-3.077zM52.308 21.538h3.077v3.077h-3.077zM58.462 21.538h3.077v3.077h-3.077zM64.615 21.538h3.077v3.077h-3.077zM70.77 21.538h3.076v3.077H70.77zM76.923 21.538H80v3.077h-3.077zM83.077 21.538h3.077v3.077h-3.077zM89.23 21.538h3.078v3.077H89.23zM95.385 21.538h3.077v3.077h-3.077zM98.462 21.538h3.077v3.077h-3.077z"/><path d="M101.538 21.538h3.077v3.077h-3.077zM104.615 21.538h3.077v3.077h-3.077zM107.692 21.538h3.077v3.077h-3.077zM110.77 21.538h3.076v3.077h-3.077zM113.846 21.538h3.077v3.077h-3.077zM33.846 24.615h3.077v3.077h-3.077zM40 24.615h3.077v3.077H40zM46.154 24.615h3.077v3.077h-3.077z"/><path d="M49.23 24.615h3.078v3.077H49.23zM52.308 24.615h3.077v3.077h-3.077zM55.385 24.615h3.077v3.077h-3.077zM58.462 24.615h3.077v3.077h-3.077z"/><path d="M61.538 24.615h3.077v3.077h-3.077zM64.615 24.615h3.077v3.077h-3.077zM73.846 24.615h3.077v3.077h-3.077zM76.923 24.615H80v3.077h-3.077zM83.077 24.615h3.077v3.077h-3.077zM12.308 27.692h3.077v3.077h-3.077zM21.538 27.692h3.077v3.077h-3.077zM40 27.692h3.077v3.077H40zM43.077 27.692h3.077v3.077h-3.077zM46.154 27.692h3.077v3.077h-3.077zM52.308 27.692h3.077v3.077h-3.077zM55.385 27.692h3.077v3.077h-3.077zM58.462 27.692h3.077v3.077h-3.077zM70.77 27.692h3.076v3.077H70.77zM76.923 27.692H80v3.077h-3.077zM80 27.692h3.077v3.077H80zM83.077 27.692h3.077v3.077h-3.077zM86.154 27.692h3.077v3.077h-3.077zM98.462 27.692h3.077v3.077h-3.077z"/><path d="M101.538 27.692h3.077v3.077h-3.077zM104.615 27.692h3.077v3.077h-3.077zM110.77 27.692h3.076v3.077h-3.077zM113.846 27.692h3.077v3.077h-3.077zM6.154 30.77H9.23v3.076H6.154zM9.23 30.77h3.078v3.076H9.23zM12.308 30.77h3.077v3.076h-3.077zM30.77 30.77h3.076v3.076H30.77zM33.846 30.77h3.077v3.076h-3.077zM52.308 30.77h3.077v3.076h-3.077zM61.538 30.77h3.077v3.076h-3.077zM64.615 30.77h3.077v3.076h-3.077zM67.692 30.77h3.077v3.076h-3.077zM80 30.77h3.077v3.076H80zM95.385 30.77h3.077v3.076h-3.077zM98.462 30.77h3.077v3.076h-3.077zM104.615 30.77h3.077v3.076h-3.077zM110.77 30.77h3.076v3.076h-3.077zM113.846 30.77h3.077v3.076h-3.077zM3.077 33.846h3.077v3.077H3.077zM6.154 33.846H9.23v3.077H6.154zM12.308 33.846h3.077v3.077h-3.077zM21.538 33.846h3.077v3.077h-3.077zM27.692 33.846h3.077v3.077h-3.077zM30.77 33.846h3.076v3.077H30.77zM40 33.846h3.077v3.077H40zM52.308 33.846h3.077v3.077h-3.077zM55.385 33.846h3.077v3.077h-3.077zM64.615 33.846h3.077v3.077h-3.077zM73.846 33.846h3.077v3.077h-3.077zM76.923 33.846H80v3.077h-3.077zM89.23 33.846h3.078v3.077H89.23zM95.385 33.846h3.077v3.077h-3.077zM98.462 33.846h3.077v3.077h-3.077zM107.692 33.846h3.077v3.077h-3.077zM113.846 33.846h3.077v3.077h-3.077zM3.077 36.923h3.077V40H3.077zM6.154 36.923H9.23V40H6.154zM9.23 36.923h3.078V40H9.23zM12.308 36.923h3.077V40h-3.077zM24.615 36.923h3.077V40h-3.077zM27.692 36.923h3.077V40h-3.077zM30.77 36.923h3.076V40H30.77zM46.154 36.923h3.077V40h-3.077zM52.308 36.923h3.077V40h-3.077zM55.385 36.923h3.077V40h-3.077zM58.462 36.923h3.077V40h-3.077zM70.77 36.923h3.076V40H70.77zM73.846 36.923h3.077V40h-3.077zM80 36.923h3.077V40H80zM86.154 36.923h3.077V40h-3.077zM98.462 36.923h3.077V40h-3.077z"/><path d="M101.538 36.923h3.077V40h-3.077zM104.615 36.923h3.077V40h-3.077zM113.846 36.923h3.077V40h-3.077zM3.077 40h3.077v3.077H3.077zM6.154 40H9.23v3.077H6.154zM9.23 40h3.078v3.077H9.23zM15.385 40h3.077v3.077h-3.077zM18.462 40h3.077v3.077h-3.077z"/><path d="M21.538 40h3.077v3.077h-3.077z"/><path d="M24.615 40h3.077v3.077h-3.077zM27.692 40h3.077v3.077h-3.077zM33.846 40h3.077v3.077h-3.077zM40 40h3.077v3.077H40zM43.077 40h3.077v3.077h-3.077zM49.23 40h3.078v3.077H49.23zM52.308 40h3.077v3.077h-3.077zM58.462 40h3.077v3.077h-3.077zM64.615 40h3.077v3.077h-3.077zM70.77 40h3.076v3.077H70.77zM73.846 40h3.077v3.077h-3.077zM76.923 40H80v3.077h-3.077zM80 40h3.077v3.077H80zM86.154 40h3.077v3.077h-3.077zM95.385 40h3.077v3.077h-3.077zM98.462 40h3.077v3.077h-3.077zM104.615 40h3.077v3.077h-3.077zM113.846 40h3.077v3.077h-3.077zM3.077 43.077h3.077v3.077H3.077zM15.385 43.077h3.077v3.077h-3.077zM18.462 43.077h3.077v3.077h-3.077zM30.77 43.077h3.076v3.077H30.77zM33.846 43.077h3.077v3.077h-3.077zM36.923 43.077H40v3.077h-3.077zM43.077 43.077h3.077v3.077h-3.077zM46.154 43.077h3.077v3.077h-3.077z"/><path d="M49.23 43.077h3.078v3.077H49.23zM52.308 43.077h3.077v3.077h-3.077zM58.462 43.077h3.077v3.077h-3.077z"/><path d="M61.538 43.077h3.077v3.077h-3.077zM73.846 43.077h3.077v3.077h-3.077zM76.923 43.077H80v3.077h-3.077zM80 43.077h3.077v3.077H80zM95.385 43.077h3.077v3.077h-3.077zM104.615 43.077h3.077v3.077h-3.077zM110.77 43.077h3.076v3.077h-3.077zM113.846 43.077h3.077v3.077h-3.077zM3.077 46.154h3.077v3.077H3.077zM12.308 46.154h3.077v3.077h-3.077zM21.538 46.154h3.077v3.077h-3.077z"/><path d="M24.615 46.154h3.077v3.077h-3.077zM27.692 46.154h3.077v3.077h-3.077zM40 46.154h3.077v3.077H40zM55.385 46.154h3.077v3.077h-3.077zM61.538 46.154h3.077v3.077h-3.077zM64.615 46.154h3.077v3.077h-3.077zM67.692 46.154h3.077v3.077h-3.077zM70.77 46.154h3.076v3.077H70.77zM76.923 46.154H80v3.077h-3.077zM80 46.154h3.077v3.077H80zM83.077 46.154h3.077v3.077h-3.077zM92.308 46.154h3.077v3.077h-3.077zM95.385 46.154h3.077v3.077h-3.077zM98.462 46.154h3.077v3.077h-3.077z"/><path d="M101.538 46.154h3.077v3.077h-3.077zM107.692 46.154h3.077v3.077h-3.077zM113.846 46.154h3.077v3.077h-3.077zM3.077 49.23h3.077v3.078H3.077zM9.23 49.23h3.078v3.078H9.23zM15.385 49.23h3.077v3.078h-3.077zM18.462 49.23h3.077v3.078h-3.077zM40 49.23h3.077v3.078H40zM46.154 49.23h3.077v3.078h-3.077z"/><path d="M49.23 49.23h3.078v3.078H49.23zM52.308 49.23h3.077v3.078h-3.077zM58.462 49.23h3.077v3.078h-3.077z"/><path d="M61.538 49.23h3.077v3.078h-3.077zM64.615 49.23h3.077v3.078h-3.077zM67.692 49.23h3.077v3.078h-3.077zM70.77 49.23h3.076v3.078H70.77zM73.846 49.23h3.077v3.078h-3.077zM76.923 49.23H80v3.078h-3.077zM80 49.23h3.077v3.078H80zM83.077 49.23h3.077v3.078h-3.077zM98.462 49.23h3.077v3.078h-3.077zM110.77 49.23h3.076v3.078h-3.077zM6.154 52.308H9.23v3.077H6.154zM9.23 52.308h3.078v3.077H9.23zM12.308 52.308h3.077v3.077h-3.077zM21.538 52.308h3.077v3.077h-3.077zM27.692 52.308h3.077v3.077h-3.077zM30.77 52.308h3.076v3.077H30.77zM33.846 52.308h3.077v3.077h-3.077zM40 52.308h3.077v3.077H40zM46.154 52.308h3.077v3.077h-3.077z"/><path d="M49.23 52.308h3.078v3.077H49.23zM52.308 52.308h3.077v3.077h-3.077zM58.462 52.308h3.077v3.077h-3.077zM64.615 52.308h3.077v3.077h-3.077zM67.692 52.308h3.077v3.077h-3.077zM73.846 52.308h3.077v3.077h-3.077zM76.923 52.308H80v3.077h-3.077zM86.154 52.308h3.077v3.077h-3.077zM92.308 52.308h3.077v3.077h-3.077zM95.385 52.308h3.077v3.077h-3.077zM104.615 52.308h3.077v3.077h-3.077zM107.692 52.308h3.077v3.077h-3.077zM3.077 55.385h3.077v3.077H3.077zM6.154 55.385H9.23v3.077H6.154zM15.385 55.385h3.077v3.077h-3.077zM18.462 55.385h3.077v3.077h-3.077zM24.615 55.385h3.077v3.077h-3.077zM27.692 55.385h3.077v3.077h-3.077zM33.846 55.385h3.077v3.077h-3.077zM40 55.385h3.077v3.077H40zM43.077 55.385h3.077v3.077h-3.077zM46.154 55.385h3.077v3.077h-3.077z"/><path d="M49.23 55.385h3.078v3.077H49.23zM52.308 55.385h3.077v3.077h-3.077zM58.462 55.385h3.077v3.077h-3.077zM76.923 55.385H80v3.077h-3.077zM80 55.385h3.077v3.077H80zM83.077 55.385h3.077v3.077h-3.077zM89.23 55.385h3.078v3.077H89.23zM92.308 55.385h3.077v3.077h-3.077zM95.385 55.385h3.077v3.077h-3.077zM101.538 55.385h3.077v3.077h-3.077zM104.615 55.385h3.077v3.077h-3.077zM107.692 55.385h3.077v3.077h-3.077zM113.846 55.385h3.077v3.077h-3.077zM3.077 58.462h3.077v3.077H3.077zM9.23 58.462h3.078v3.077H9.23zM15.385 58.462h3.077v3.077h-3.077zM21.538 58.462h3.077v3.077h-3.077z"/><path d="M24.615 58.462h3.077v3.077h-3.077zM30.77 58.462h3.076v3.077H30.77zM33.846 58.462h3.077v3.077h-3.077zM36.923 58.462H40v3.077h-3.077zM46.154 58.462h3.077v3.077h-3.077zM55.385 58.462h3.077v3.077h-3.077zM64.615 58.462h3.077v3.077h-3.077zM80 58.462h3.077v3.077H80zM89.23 58.462h3.078v3.077H89.23zM104.615 58.462h3.077v3.077h-3.077zM107.692 58.462h3.077v3.077h-3.077zM110.77 58.462h3.076v3.077h-3.077zM113.846 58.462h3.077v3.077h-3.077zM3.077 61.538h3.077v3.077H3.077zM6.154 61.538H9.23v3.077H6.154zM9.23 61.538h3.078v3.077H9.23zM12.308 61.538h3.077v3.077h-3.077z"/><path d="M24.615 61.538h3.077v3.077h-3.077zM27.692 61.538h3.077v3.077h-3.077zM30.77 61.538h3.076v3.077H30.77zM49.23 61.538h3.078v3.077H49.23zM55.385 61.538h3.077v3.077h-3.077zM73.846 61.538h3.077v3.077h-3.077zM76.923 61.538H80v3.077h-3.077zM92.308 61.538h3.077v3.077h-3.077zM98.462 61.538h3.077v3.077h-3.077z"/><path d="M101.538 61.538h3.077v3.077h-3.077zM107.692 61.538h3.077v3.077h-3.077zM113.846 61.538h3.077v3.077h-3.077zM3.077 64.615h3.077v3.077H3.077zM6.154 64.615H9.23v3.077H6.154zM12.308 64.615h3.077v3.077h-3.077zM15.385 64.615h3.077v3.077h-3.077zM21.538 64.615h3.077v3.077h-3.077z"/><path d="M24.615 64.615h3.077v3.077h-3.077zM27.692 64.615h3.077v3.077h-3.077zM36.923 64.615H40v3.077h-3.077zM52.308 64.615h3.077v3.077h-3.077zM61.538 64.615h3.077v3.077h-3.077zM67.692 64.615h3.077v3.077h-3.077zM83.077 64.615h3.077v3.077h-3.077zM86.154 64.615h3.077v3.077h-3.077z"/><path d="M89.23 64.615h3.078v3.077H89.23zM95.385 64.615h3.077v3.077h-3.077zM98.462 64.615h3.077v3.077h-3.077z"/><path d="M101.538 64.615h3.077v3.077h-3.077zM110.77 64.615h3.076v3.077h-3.077zM18.462 67.692h3.077v3.077h-3.077zM27.692 67.692h3.077v3.077h-3.077zM30.77 67.692h3.076v3.077H30.77zM40 67.692h3.077v3.077H40zM43.077 67.692h3.077v3.077h-3.077zM46.154 67.692h3.077v3.077h-3.077z"/><path d="M49.23 67.692h3.078v3.077H49.23zM58.462 67.692h3.077v3.077h-3.077zM67.692 67.692h3.077v3.077h-3.077zM76.923 67.692H80v3.077h-3.077zM95.385 67.692h3.077v3.077h-3.077zM107.692 67.692h3.077v3.077h-3.077zM110.77 67.692h3.076v3.077h-3.077zM113.846 67.692h3.077v3.077h-3.077zM6.154 70.77H9.23v3.076H6.154zM12.308 70.77h3.077v3.076h-3.077zM18.462 70.77h3.077v3.076h-3.077z"/><path d="M21.538 70.77h3.077v3.076h-3.077z"/><path d="M24.615 70.77h3.077v3.076h-3.077zM27.692 70.77h3.077v3.076h-3.077zM36.923 70.77H40v3.076h-3.077zM49.23 70.77h3.078v3.076H49.23zM52.308 70.77h3.077v3.076h-3.077zM55.385 70.77h3.077v3.076h-3.077zM58.462 70.77h3.077v3.076h-3.077z"/><path d="M61.538 70.77h3.077v3.076h-3.077zM64.615 70.77h3.077v3.076h-3.077zM76.923 70.77H80v3.076h-3.077zM89.23 70.77h3.078v3.076H89.23zM98.462 70.77h3.077v3.076h-3.077z"/><path d="M101.538 70.77h3.077v3.076h-3.077zM104.615 70.77h3.077v3.076h-3.077zM107.692 70.77h3.077v3.076h-3.077zM110.77 70.77h3.076v3.076h-3.077zM113.846 70.77h3.077v3.076h-3.077zM3.077 73.846h3.077v3.077H3.077zM12.308 73.846h3.077v3.077h-3.077zM15.385 73.846h3.077v3.077h-3.077zM18.462 73.846h3.077v3.077h-3.077zM27.692 73.846h3.077v3.077h-3.077zM43.077 73.846h3.077v3.077h-3.077zM46.154 73.846h3.077v3.077h-3.077z"/><path d="M49.23 73.846h3.078v3.077H49.23zM52.308 73.846h3.077v3.077h-3.077zM58.462 73.846h3.077v3.077h-3.077zM70.77 73.846h3.076v3.077H70.77zM80 73.846h3.077v3.077H80zM89.23 73.846h3.078v3.077H89.23zM92.308 73.846h3.077v3.077h-3.077zM101.538 73.846h3.077v3.077h-3.077zM113.846 73.846h3.077v3.077h-3.077zM3.077 76.923h3.077V80H3.077zM12.308 76.923h3.077V80h-3.077zM21.538 76.923h3.077V80h-3.077z"/><path d="M24.615 76.923h3.077V80h-3.077zM27.692 76.923h3.077V80h-3.077zM36.923 76.923H40V80h-3.077zM43.077 76.923h3.077V80h-3.077zM49.23 76.923h3.078V80H49.23zM52.308 76.923h3.077V80h-3.077zM55.385 76.923h3.077V80h-3.077zM61.538 76.923h3.077V80h-3.077zM70.77 76.923h3.076V80H70.77zM73.846 76.923h3.077V80h-3.077zM76.923 76.923H80V80h-3.077zM86.154 76.923h3.077V80h-3.077zM92.308 76.923h3.077V80h-3.077zM95.385 76.923h3.077V80h-3.077zM107.692 76.923h3.077V80h-3.077zM110.77 76.923h3.076V80h-3.077zM113.846 76.923h3.077V80h-3.077zM15.385 80h3.077v3.077h-3.077zM24.615 80h3.077v3.077h-3.077zM30.77 80h3.076v3.077H30.77zM36.923 80H40v3.077h-3.077zM40 80h3.077v3.077H40zM43.077 80h3.077v3.077h-3.077zM49.23 80h3.078v3.077H49.23zM52.308 80h3.077v3.077h-3.077zM55.385 80h3.077v3.077h-3.077zM58.462 80h3.077v3.077h-3.077zM67.692 80h3.077v3.077h-3.077zM70.77 80h3.076v3.077H70.77zM73.846 80h3.077v3.077h-3.077zM76.923 80H80v3.077h-3.077zM89.23 80h3.078v3.077H89.23zM92.308 80h3.077v3.077h-3.077zM98.462 80h3.077v3.077h-3.077zM104.615 80h3.077v3.077h-3.077zM113.846 80h3.077v3.077h-3.077zM3.077 83.077h3.077v3.077H3.077zM21.538 83.077h3.077v3.077h-3.077zM27.692 83.077h3.077v3.077h-3.077zM30.77 83.077h3.076v3.077H30.77zM33.846 83.077h3.077v3.077h-3.077zM40 83.077h3.077v3.077H40zM43.077 83.077h3.077v3.077h-3.077zM46.154 83.077h3.077v3.077h-3.077z"/><path d="M49.23 83.077h3.078v3.077H49.23zM52.308 83.077h3.077v3.077h-3.077zM58.462 83.077h3.077v3.077h-3.077z"/><path d="M61.538 83.077h3.077v3.077h-3.077zM64.615 83.077h3.077v3.077h-3.077zM70.77 83.077h3.076v3.077H70.77zM76.923 83.077H80v3.077h-3.077zM83.077 83.077h3.077v3.077h-3.077zM89.23 83.077h3.078v3.077H89.23zM92.308 83.077h3.077v3.077h-3.077zM101.538 83.077h3.077v3.077h-3.077zM107.692 83.077h3.077v3.077h-3.077zM113.846 83.077h3.077v3.077h-3.077zM6.154 86.154H9.23v3.077H6.154zM9.23 86.154h3.078v3.077H9.23zM12.308 86.154h3.077v3.077h-3.077zM18.462 86.154h3.077v3.077h-3.077zM24.615 86.154h3.077v3.077h-3.077zM27.692 86.154h3.077v3.077h-3.077zM30.77 86.154h3.076v3.077H30.77zM40 86.154h3.077v3.077H40zM46.154 86.154h3.077v3.077h-3.077z"/><path d="M49.23 86.154h3.078v3.077H49.23zM55.385 86.154h3.077v3.077h-3.077zM58.462 86.154h3.077v3.077h-3.077z"/><path d="M61.538 86.154h3.077v3.077h-3.077zM76.923 86.154H80v3.077h-3.077zM80 86.154h3.077v3.077H80zM83.077 86.154h3.077v3.077h-3.077zM92.308 86.154h3.077v3.077h-3.077zM95.385 86.154h3.077v3.077h-3.077zM98.462 86.154h3.077v3.077h-3.077zM113.846 86.154h3.077v3.077h-3.077zM3.077 89.23h3.077v3.078H3.077zM6.154 89.23H9.23v3.078H6.154zM9.23 89.23h3.078v3.078H9.23zM21.538 89.23h3.077v3.078h-3.077zM33.846 89.23h3.077v3.078h-3.077zM36.923 89.23H40v3.078h-3.077zM40 89.23h3.077v3.078H40zM49.23 89.23h3.078v3.078H49.23zM64.615 89.23h3.077v3.078h-3.077zM70.77 89.23h3.076v3.078H70.77zM73.846 89.23h3.077v3.078h-3.077zM86.154 89.23h3.077v3.078h-3.077z"/><path d="M89.23 89.23h3.078v3.078H89.23zM92.308 89.23h3.077v3.078h-3.077zM95.385 89.23h3.077v3.078h-3.077zM98.462 89.23h3.077v3.078h-3.077z"/><path d="M101.538 89.23h3.077v3.078h-3.077zM104.615 89.23h3.077v3.078h-3.077zM107.692 89.23h3.077v3.078h-3.077zM110.77 89.23h3.076v3.078h-3.077zM27.692 92.308h3.077v3.077h-3.077zM33.846 92.308h3.077v3.077h-3.077zM40 92.308h3.077v3.077H40zM43.077 92.308h3.077v3.077h-3.077zM49.23 92.308h3.078v3.077H49.23zM67.692 92.308h3.077v3.077h-3.077zM70.77 92.308h3.076v3.077H70.77zM73.846 92.308h3.077v3.077h-3.077zM83.077 92.308h3.077v3.077h-3.077zM86.154 92.308h3.077v3.077h-3.077z"/><path d="M89.23 92.308h3.078v3.077H89.23zM101.538 92.308h3.077v3.077h-3.077zM110.77 92.308h3.076v3.077h-3.077zM113.846 92.308h3.077v3.077h-3.077zM3.077 95.385h3.077v3.077H3.077zM6.154 95.385H9.23v3.077H6.154zM9.23 95.385h3.078v3.077H9.23zM12.308 95.385h3.077v3.077h-3.077zM15.385 95.385h3.077v3.077h-3.077zM18.462 95.385h3.077v3.077h-3.077z"/><path d="M21.538 95.385h3.077v3.077h-3.077zM30.77 95.385h3.076v3.077H30.77zM33.846 95.385h3.077v3.077h-3.077zM43.077 95.385h3.077v3.077h-3.077zM61.538 95.385h3.077v3.077h-3.077zM89.23 95.385h3.078v3.077H89.23zM95.385 95.385h3.077v3.077h-3.077zM101.538 95.385h3.077v3.077h-3.077zM107.692 95.385h3.077v3.077h-3.077zM110.77 95.385h3.076v3.077h-3.077zM113.846 95.385h3.077v3.077h-3.077zM3.077 98.462h3.077v3.077H3.077zM21.538 98.462h3.077v3.077h-3.077zM30.77 98.462h3.076v3.077H30.77zM36.923 98.462H40v3.077h-3.077zM40 98.462h3.077v3.077H40zM52.308 98.462h3.077v3.077h-3.077zM55.385 98.462h3.077v3.077h-3.077zM67.692 98.462h3.077v3.077h-3.077zM70.77 98.462h3.076v3.077H70.77zM76.923 98.462H80v3.077h-3.077zM83.077 98.462h3.077v3.077h-3.077zM89.23 98.462h3.078v3.077H89.23zM101.538 98.462h3.077v3.077h-3.077zM107.692 98.462h3.077v3.077h-3.077z"/><path d="M3.077 101.538h3.077v3.077H3.077zM9.23 101.538h3.078v3.077H9.23zM12.308 101.538h3.077v3.077h-3.077zM15.385 101.538h3.077v3.077h-3.077zM21.538 101.538h3.077v3.077h-3.077zM36.923 101.538H40v3.077h-3.077zM43.077 101.538h3.077v3.077h-3.077zM52.308 101.538h3.077v3.077h-3.077zM61.538 101.538h3.077v3.077h-3.077zM64.615 101.538h3.077v3.077h-3.077zM73.846 101.538h3.077v3.077h-3.077zM76.923 101.538H80v3.077h-3.077zM80 101.538h3.077v3.077H80zM89.23 101.538h3.078v3.077H89.23zM92.308 101.538h3.077v3.077h-3.077zM95.385 101.538h3.077v3.077h-3.077zM98.462 101.538h3.077v3.077h-3.077z"/><path d="M101.538 101.538h3.077v3.077h-3.077zM104.615 101.538h3.077v3.077h-3.077zM110.77 101.538h3.076v3.077h-3.077zM3.077 104.615h3.077v3.077H3.077zM9.23 104.615h3.078v3.077H9.23zM12.308 104.615h3.077v3.077h-3.077zM15.385 104.615h3.077v3.077h-3.077zM21.538 104.615h3.077v3.077h-3.077zM27.692 104.615h3.077v3.077h-3.077zM33.846 104.615h3.077v3.077h-3.077zM36.923 104.615H40v3.077h-3.077zM55.385 104.615h3.077v3.077h-3.077zM58.462 104.615h3.077v3.077h-3.077z"/><path d="M61.538 104.615h3.077v3.077h-3.077zM64.615 104.615h3.077v3.077h-3.077zM73.846 104.615h3.077v3.077h-3.077zM80 104.615h3.077v3.077H80zM92.308 104.615h3.077v3.077h-3.077zM107.692 104.615h3.077v3.077h-3.077zM110.77 104.615h3.076v3.077h-3.077zM113.846 104.615h3.077v3.077h-3.077zM3.077 107.692h3.077v3.077H3.077zM9.23 107.692h3.078v3.077H9.23zM12.308 107.692h3.077v3.077h-3.077zM15.385 107.692h3.077v3.077h-3.077zM21.538 107.692h3.077v3.077h-3.077zM33.846 107.692h3.077v3.077h-3.077zM43.077 107.692h3.077v3.077h-3.077zM46.154 107.692h3.077v3.077h-3.077zM52.308 107.692h3.077v3.077h-3.077zM61.538 107.692h3.077v3.077h-3.077zM67.692 107.692h3.077v3.077h-3.077zM76.923 107.692H80v3.077h-3.077zM80 107.692h3.077v3.077H80zM89.23 107.692h3.078v3.077H89.23zM101.538 107.692h3.077v3.077h-3.077zM107.692 107.692h3.077v3.077h-3.077zM113.846 107.692h3.077v3.077h-3.077zM3.077 110.77h3.077v3.076H3.077zM21.538 110.77h3.077v3.076h-3.077zM30.77 110.77h3.076v3.076H30.77zM33.846 110.77h3.077v3.076h-3.077zM43.077 110.77h3.077v3.076h-3.077zM46.154 110.77h3.077v3.076h-3.077zM52.308 110.77h3.077v3.076h-3.077zM55.385 110.77h3.077v3.076h-3.077zM58.462 110.77h3.077v3.076h-3.077zM64.615 110.77h3.077v3.076h-3.077zM67.692 110.77h3.077v3.076h-3.077zM80 110.77h3.077v3.076H80zM86.154 110.77h3.077v3.076h-3.077z"/><path d="M89.23 110.77h3.078v3.076H89.23zM98.462 110.77h3.077v3.076h-3.077zM104.615 110.77h3.077v3.076h-3.077zM3.077 113.846h3.077v3.077H3.077zM6.154 113.846H9.23v3.077H6.154zM9.23 113.846h3.078v3.077H9.23zM12.308 113.846h3.077v3.077h-3.077zM15.385 113.846h3.077v3.077h-3.077zM18.462 113.846h3.077v3.077h-3.077z"/><path d="M21.538 113.846h3.077v3.077h-3.077zM30.77 113.846h3.076v3.077H30.77zM33.846 113.846h3.077v3.077h-3.077zM40 113.846h3.077v3.077H40zM46.154 113.846h3.077v3.077h-3.077z"/><path d="M49.23 113.846h3.078v3.077H49.23zM55.385 113.846h3.077v3.077h-3.077zM73.846 113.846h3.077v3.077h-3.077zM76.923 113.846H80v3.077h-3.077zM80 113.846h3.077v3.077H80zM89.23 113.846h3.078v3.077H89.23zM92.308 113.846h3.077v3.077h-3.077zM95.385 113.846h3.077v3.077h-3.077zM98.462 113.846h3.077v3.077h-3.077z"/><path d="M101.538 113.846h3.077v3.077h-3.077zM110.77 113.846h3.076v3.077h-3.077zM113.846 113.846h3.077v3.077h-3.077z"/></g></g></svg>