<svg xmlns="http://www.w3.org/2000/svg" xmlns:xlink="http://www.w3.org/1999/xlink" width="28" height="28" viewBox="0 0 28 28"><defs><path id="a" d="M0 0h15.673v12.156H0z"/></defs><g fill="none" fill-rule="evenodd" transform="translate(1 1)"><circle cx="13" cy="13" r="13" stroke="#B6C2CD"/><g transform="translate(5 7)"><mask id="b" fill="#fff"><use xlink:href="#a"/></mask><path fill="currentColor" d="M15.673 7.898c0-2.061-2.173-3.74-4.619-3.74-2.59 0-4.625 1.679-4.625 3.74 0 2.066 2.035 3.738 4.625 3.738.542 0 1.09-.13 1.632-.256l1.493.776-.408-1.29c1.09-.776 1.902-1.81 1.902-2.968zm-6.119-.645c-.27 0-.541-.257-.541-.514 0-.256.27-.514.541-.514.41 0 .681.258.681.514 0 .257-.271.514-.681.514zm2.994 0c-.27 0-.541-.257-.541-.514 0-.256.27-.514.54-.514.41 0 .681.258.681.514 0 .257-.277.514-.68.514z" mask="url(#b)"/><path fill="currentColor" d="M10.602 3.674c.177 0 .356.011.533.029C10.657 1.576 8.27 0 5.543 0 2.498 0 0 1.974 0 4.485c0 1.45.829 2.64 2.216 3.564l-.552 1.588 1.94-.929c.693.129 1.251.263 1.94.263.17 0 .343-.005.515-.022a3.68 3.68 0 0 1-.172-1.104c0-2.302 2.081-4.171 4.715-4.171zM7.618 2.243c.417 0 .693.263.693.66s-.276.66-.693.66c-.418 0-.835-.263-.835-.66.006-.398.423-.66.835-.66zm-3.88 1.319c-.417 0-.834-.263-.834-.66s.417-.66.834-.66c.418 0 .695.263.695.66 0 .392-.277.66-.695.66z" mask="url(#b)"/></g></g></svg>