<svg xmlns="http://www.w3.org/2000/svg" xmlns:xlink="http://www.w3.org/1999/xlink" width="34" height="34" version="1.1" viewBox="0 0 34 34"><title>编组 2</title><desc>Created with Sketch.</desc><g id="页面1" fill="none" fill-rule="evenodd" stroke="none" stroke-width="1"><g id="Footer复制" transform="translate(-722.000000, -373.000000)"><g id="编组-2" transform="translate(723.000000, 374.000000)"><circle id="椭圆形复制-2" cx="16" cy="16" r="16" stroke="#B6C2CD"/><path id="2" fill="#DD1829" d="M24,20.3573528 C24,20.9923992 23.9622205,21.9317547 23.8869745,23.1757723 C23.8368769,23.8222083 23.5963743,24.338739 23.1653243,24.7201553 C22.733051,25.1019543 22.2033135,25.3051997 21.5773352,25.3316575 C20.3384932,25.3955801 18.4785659,25.4285714 16.0001138,25.4285714 C13.5076651,25.4285714 11.6490749,25.3955801 10.4226648,25.3316575 C9.79603216,25.3051997 9.26751798,25.1019543 8.83555764,24.7201553 C8.40339816,24.338739 8.16269634,23.8222083 8.11180217,23.1757723 C8.03755187,21.9319901 8,20.9923992 8,20.3573528 C8,19.7226595 8.03789325,18.7836572 8.11180217,17.5399927 C8.16246875,16.8932036 8.40362575,16.378527 8.83555764,15.9958157 C9.2672904,15.6143699 9.79603216,15.4105359 10.4226648,15.3836366 C11.6493878,15.3198318 13.507978,15.2871936 16.0001138,15.2871936 C18.4909979,15.2871936 20.3506122,15.319508 21.5769938,15.3836366 C22.2033135,15.4102121 22.7327096,15.6143699 23.1649829,15.9958157 C23.5960613,16.378527 23.8366493,16.8932036 23.886747,17.5399927 C23.9627611,18.7836572 24,19.7226595 24,20.3573528 Z M11.4555974,17.8319999 L12.6006451,17.8319999 L12.6006451,16.8605654 L9.23861442,16.8605654 L9.23861442,17.8319999 L10.3654267,17.8319999 L10.3654267,23.5251391 L11.4555974,23.5251391 L11.4555974,17.8319999 Z M12.5252853,6.00032373 L13.8964976,6.00032373 L12.8635651,9.20569251 C12.8125571,9.36090777 12.75145,9.53966725 12.6759764,9.73982254 C12.6003037,9.94089016 12.5356405,10.1222984 12.478061,10.2835763 C12.4213918,10.4460314 12.374395,10.6239962 12.338038,10.8175886 L12.338038,14.2370037 L10.9849757,14.2370037 L10.9849757,10.973363 C10.9601971,10.8182655 10.7792654,10.2674779 10.4405589,9.32226582 L9.37075719,6 L10.7412583,6 L11.6049514,9.28318242 L11.6985182,9.28318242 L12.5252853,6.00032373 Z M14.3850987,23.5251391 L15.3425862,23.5251391 L15.3425862,18.6091357 L14.3850987,18.6091357 L14.3850987,22.3385105 C14.1724186,22.5855482 13.9788273,22.7075367 13.80313,22.7075367 C13.6406613,22.7075367 13.558673,22.59785 13.558673,22.377947 L13.558673,18.6091357 L12.582751,18.6091357 L12.582751,22.7470615 C12.582751,23.3169493 12.8068959,23.6019227 13.2586279,23.6019227 C13.6344595,23.6019227 14.0091533,23.3952339 14.3850987,22.9807967 L14.3850987,23.5251391 Z M17.3136328,9.57518959 L17.3136328,12.7226102 C17.3136328,13.266511 17.1573943,13.6810659 16.8443482,13.9660392 C16.5316151,14.2509242 16.1060271,14.3931313 15.5673853,14.3931313 C15.0539773,14.3931313 14.6384885,14.2413888 14.3185295,13.9370798 C13.9996231,13.6332417 13.8394871,13.2208647 13.8394871,12.7031862 L13.8394871,9.55576561 C13.8394871,9.0506244 14.0121688,8.66538212 14.3562236,8.39980334 C14.7004776,8.13401854 15.1234198,8.00134687 15.6246235,8.00134687 C16.1000245,8.00134687 16.5001796,8.14390711 16.8258852,8.42879216 C17.1508227,8.71411865 17.3136328,9.09591759 17.3136328,9.57518959 Z M16.0936805,12.8194063 L16.0936805,9.4971405 C16.0936805,9.36826534 16.0374381,9.26087427 15.9246402,9.17637996 C15.8126389,9.09279798 15.6934117,9.0506244 15.5676129,9.0506244 C15.4423547,9.0506244 15.3291301,9.09279798 15.2293331,9.17637996 C15.1294224,9.26087427 15.0796377,9.36791217 15.0796377,9.4971405 L15.0796377,12.8194063 C15.0796377,13.1564712 15.2414521,13.3249007 15.5676129,13.3249007 C15.9185523,13.3249007 16.0936805,13.1564712 16.0936805,12.8194063 Z M19.0798795,22.4942849 L19.0798795,19.773927 C19.0798795,18.958267 18.7664921,18.5505106 18.1410827,18.5505106 C17.8274676,18.5505106 17.5395415,18.6988097 17.2766215,18.9971444 L17.2766215,16.8592999 L16.3009271,16.8592999 L16.3009271,23.5239913 L17.2762801,23.5239913 L17.2762801,23.1343933 C17.5533105,23.4332872 17.8593583,23.5812412 18.1977519,23.5812412 C18.7856094,23.583205 19.0798795,23.2204769 19.0798795,22.4942849 Z M18.0847264,19.8142759 L18.0847264,22.3976947 C18.0847264,22.6702779 17.9718148,22.8059221 17.7461337,22.8059221 C17.5708916,22.8059221 17.4144255,22.7342005 17.2762801,22.5923466 L17.2762801,19.5225042 C17.4015383,19.3924813 17.5393139,19.3272932 17.6903464,19.3272932 C17.9528112,19.3272932 18.0847264,19.4901898 18.0847264,19.8142759 Z M21.765123,8.15691529 L21.765123,14.2379455 L20.5628656,14.2379455 L20.5628656,13.5582828 C20.099356,14.0630708 19.6361593,14.3163477 19.1734463,14.3163477 C18.6097983,14.3163477 18.3289843,13.9536196 18.3289843,13.2276336 L18.3289843,8.15691529 L19.529933,8.15691529 L19.529933,12.8199949 C19.529933,13.0916363 19.6357326,13.2276336 19.8498636,13.2276336 C20.0615481,13.2276336 20.2999171,13.0729187 20.5628656,12.7620467 L20.5628656,8.15691529 L21.765123,8.15691529 Z M22.6662542,22.1259356 L22.6662542,21.7558793 L21.6706743,21.7558793 C21.6706743,21.7824255 21.673889,21.8663606 21.6807735,22.0091268 C21.6870037,22.1513339 21.6870037,22.2516029 21.6807735,22.3110226 C21.6733485,22.3689708 21.6581286,22.4424288 21.6342319,22.5339275 C21.6085431,22.6240724 21.5648748,22.6894665 21.5027719,22.7283439 C21.4401855,22.7674273 21.351967,22.7862921 21.2401649,22.7862921 C21.1143661,22.7862921 21.0174709,22.7474147 20.9485689,22.6706311 C20.8792401,22.5925526 20.841546,22.5142681 20.8355719,22.436219 C20.8290003,22.3594354 20.8264399,22.2483655 20.8264399,22.1068648 L20.8264399,21.1739251 L22.6668231,21.1739251 L22.6668231,19.9310847 C22.6668231,19.4775642 22.5475675,19.1216345 22.3101088,18.8619417 C22.0727354,18.6029259 21.7346832,18.4730207 21.2965211,18.4730207 C20.870791,18.4730207 20.516637,18.6060161 20.2345712,18.8708885 C19.9538709,19.1367028 19.8134212,19.4907784 19.8134212,19.9308492 L19.8134212,22.1266125 C19.8134212,22.5922288 19.935664,22.9644629 20.1785848,23.2423436 C20.4233832,23.5201948 20.7706526,23.6605772 21.2213889,23.6605772 C22.1848505,23.6605772 22.6662542,23.1482844 22.6662542,22.1259356 Z M21.6706743,19.8713118 L21.6706743,20.416331 L20.8257856,20.416331 L20.8257856,19.8713118 C20.8257856,19.5222688 20.9695638,19.3474235 21.2584003,19.3474235 C21.5334393,19.3474235 21.6706743,19.5225042 21.6706743,19.8713118 Z"/></g></g></g></svg>