<svg xmlns="http://www.w3.org/2000/svg" width="34" height="34" viewBox="0 0 34 34"><g fill="none" fill-rule="evenodd" transform="translate(1 1)"><circle cx="16" cy="16" r="16" stroke="#B6C2CD"/><path fill="#B5C1CC" d="M24 21.214c0 .636-.038 1.575-.113 2.819-.05.646-.29 1.163-.722 1.544-.432.382-.962.585-1.588.612-1.239.064-3.098.097-5.577.097-2.492 0-4.35-.033-5.577-.097-.627-.027-1.155-.23-1.587-.612-.433-.381-.673-.898-.724-1.544C8.038 22.789 8 21.85 8 21.214c0-.634.038-1.573.112-2.817.05-.647.292-1.161.724-1.544.431-.381.96-.585 1.587-.612 1.226-.064 3.085-.097 5.577-.097 2.491 0 4.35.033 5.577.097.626.026 1.156.23 1.588.612.431.383.672.897.722 1.544.076 1.244.113 2.183.113 2.817zM11.456 18.69H12.6v-.971H9.239v.971h1.126v5.693h1.09V18.69zm1.07-11.832h1.37l-1.032 3.206c-.051.155-.113.334-.188.534-.076.201-.14.382-.198.544-.057.162-.104.34-.14.534v3.42h-1.353V11.83c-.025-.156-.206-.706-.544-1.652L9.37 6.857h1.37l.864 3.283h.094l.826-3.283zm1.86 17.525h.957v-4.916h-.958v3.73c-.213.247-.406.369-.582.369-.162 0-.244-.11-.244-.33v-3.769h-.976v4.138c0 .57.224.855.676.855.375 0 .75-.207 1.126-.621v.544zm2.928-13.95v3.148c0 .544-.157.958-.47 1.243-.312.285-.738.427-1.277.427-.513 0-.929-.151-1.248-.456-.32-.304-.48-.716-.48-1.234v-3.147c0-.505.173-.89.517-1.156.344-.266.767-.399 1.269-.399.475 0 .875.143 1.2.428.326.285.489.667.489 1.146zm-1.22 3.245v-3.323c0-.129-.057-.236-.17-.32-.111-.084-.23-.126-.356-.126-.126 0-.239.042-.339.126-.1.084-.15.191-.15.32v3.323c0 .337.162.505.489.505.35 0 .526-.168.526-.505zm2.986 9.674v-2.72c0-.816-.314-1.223-.939-1.223-.314 0-.601.148-.864.446v-2.138H16.3v6.665h.975v-.39c.277.3.583.447.922.447.588.002.882-.36.882-1.087zm-.995-2.68v2.584c0 .272-.113.408-.339.408-.175 0-.332-.072-.47-.214v-3.07c.126-.13.263-.195.414-.195.263 0 .395.163.395.487zm3.68-11.657v6.081h-1.202v-.68c-.464.505-.927.758-1.39.758-.563 0-.844-.362-.844-1.088v-5.07h1.2v4.662c0 .272.107.408.32.408.213 0 .45-.155.714-.466V9.014h1.202zm.901 13.97v-.371h-.995c0 .027.003.11.01.253.006.142.006.243 0 .302-.008.058-.023.132-.047.223-.025.09-.07.156-.131.194-.063.04-.151.058-.263.058-.126 0-.223-.038-.291-.115-.07-.078-.107-.157-.113-.235-.007-.076-.01-.187-.01-.329v-.933h1.84v-1.243c0-.453-.118-.81-.356-1.069-.237-.259-.575-.389-1.013-.389-.426 0-.78.133-1.062.398-.281.266-.422.62-.422 1.06v2.196c0 .465.123.838.366 1.115.244.278.592.419 1.042.419.964 0 1.445-.513 1.445-1.535zm-.995-2.256v.545h-.845v-.545c0-.349.144-.523.432-.523.275 0 .413.175.413.523z"/></g></svg>