<svg width="100" height="64" viewBox="0 0 100 64" fill="none" xmlns="http://www.w3.org/2000/svg">
<g opacity="0.6">
<path d="M50.0004 0L19.7373 50L50.0004 100C77.5707 100 100 77.5703 100 50C100 22.4297 77.5707 0 50.0004 0Z" fill="#55BC8A"/>
<path d="M0 50C0 77.5703 22.4297 100 50 100V0C22.4297 0 0 22.4297 0 50Z" fill="#CDF6D5"/>
<path d="M49.9996 20.5566L32.1787 50L49.9996 79.4434C66.2348 79.4434 79.443 66.2352 79.443 50C79.443 33.7648 66.2348 20.5566 49.9996 20.5566Z" fill="#CDF6D5"/>
<path d="M20.5566 50C20.5566 66.2352 33.7648 79.4434 50 79.4434V20.5566C33.7648 20.5566 20.5566 33.7648 20.5566 50Z" fill="white"/>
<path d="M50.0004 11.7676L44.6807 20.5566L50.0004 29.3457C54.8467 29.3457 58.7895 25.4029 58.7895 20.5566C58.7895 15.7104 54.8467 11.7676 50.0004 11.7676Z" fill="#65C194"/>
<path d="M41.2109 20.5566C41.2109 25.4029 45.1537 29.3457 50 29.3457V11.7676C45.1537 11.7676 41.2109 15.7104 41.2109 20.5566Z" fill="#86DBA2"/>
<path d="M50 35.1562L41.0156 50L50 64.8438C58.185 64.8438 64.8438 58.185 64.8438 50C64.8438 41.815 58.185 35.1562 50 35.1562Z" fill="#86DBA2"/>
<path d="M35.1562 50C35.1562 58.185 41.815 64.8438 50 64.8438V35.1562C41.815 35.1562 35.1562 41.815 35.1562 50Z" fill="#CDF6D5"/>
</g>
</svg>
