<svg width="100" height="66" viewBox="0 0 100 66" fill="none" xmlns="http://www.w3.org/2000/svg">
<g opacity="0.6">
<path d="M80.0972 39.6475H85.9565V60.3527H80.0972V39.6475Z" fill="#CDF6D5"/>
<path d="M56.0198 18.6515L58.9495 13.5773L76.8801 23.9298L73.9504 29.004L56.0198 18.6515Z" fill="#CDF6D5"/>
<path d="M13.793 39.6475H19.6523V60.3527H13.793V39.6475Z" fill="#CDF6D5"/>
<path d="M22.8679 23.928L40.7985 13.5754L43.7282 18.6497L25.7976 29.0022L22.8679 23.928Z" fill="#CDF6D5"/>
<path d="M49.8747 0L42.7817 11.7187L49.8747 23.4375C56.3364 23.4375 61.5935 18.1805 61.5935 11.7187C61.5935 5.25703 56.3364 0 49.8747 0Z" fill="#4CA986"/>
<path d="M38.1565 11.7187C38.1565 18.1805 43.4135 23.4375 49.8752 23.4375V0C43.4135 0 38.1565 5.25703 38.1565 11.7187Z" fill="#86DBA2"/>
<path d="M16.7182 19.137L9.62524 30.8557L16.7182 42.5745C23.1799 42.5745 28.437 37.3174 28.437 30.8557C28.437 24.394 23.1799 19.137 16.7182 19.137Z" fill="#4CA986"/>
<path d="M5 30.8557C5 37.3174 10.257 42.5745 16.7187 42.5745V19.137C10.257 19.137 5 24.394 5 30.8557Z" fill="#86DBA2"/>
<path d="M16.7182 57.4255L9.62524 69.1443L16.7182 80.863C23.1799 80.863 28.437 75.606 28.437 69.1443C28.437 62.6826 23.1799 57.4255 16.7182 57.4255Z" fill="#4CA986"/>
<path d="M5 69.1443C5 75.606 10.257 80.863 16.7187 80.863V57.4255C10.257 57.4255 5 62.6826 5 69.1443Z" fill="#86DBA2"/>
<path d="M83.031 57.4255L75.938 69.1443L83.031 80.863C89.4927 80.863 94.7497 75.606 94.7497 69.1443C94.7497 62.6826 89.4927 57.4255 83.031 57.4255Z" fill="#4CA986"/>
<path d="M71.3127 69.1443C71.3127 75.606 76.5698 80.863 83.0315 80.863V57.4255C76.5698 57.4255 71.3127 62.6826 71.3127 69.1443Z" fill="#86DBA2"/>
<path d="M83.031 19.1356L75.938 30.8544L83.031 42.5731C89.4927 42.5731 94.7497 37.3161 94.7497 30.8544C94.7497 24.3927 89.4927 19.1356 83.031 19.1356Z" fill="#4CA986"/>
<path d="M71.3127 30.8544C71.3127 37.3161 76.5698 42.5731 83.0315 42.5731V19.1356C76.5698 19.1356 71.3127 24.3927 71.3127 30.8544Z" fill="#86DBA2"/>
<path d="M49.8752 29.332L41.0862 50L49.8752 70.668L67.7745 60.334V39.666L49.8752 29.332Z" fill="#86DBA2"/>
<path d="M31.9756 39.666V60.334L49.8748 70.668V29.332L31.9756 39.666Z" fill="#CDF6D5"/>
</g>
</svg>