<svg width="100" height="66" viewBox="0 0 100 66" fill="none" xmlns="http://www.w3.org/2000/svg">
<g opacity="0.6">
<path d="M52.4192 16.1509H48.7305V71.77H52.7805V27.5848L74.8553 65.8564L79.5328 63.1584L52.4192 16.1509Z" fill="#86DBA2"/>
<path d="M47.7415 16.1509L20.6279 63.1584L25.3054 65.8564L47.3802 27.5848V71.77H50.0802V16.1509H47.7415Z" fill="#CDF6D5"/>
<path d="M82.6106 87.4403C75.1418 87.4403 69.0656 81.3641 69.0656 73.8953C69.0656 66.4266 75.1418 60.3503 82.6106 60.3503C90.0793 60.3503 96.1556 66.4266 96.1556 73.8953C96.1556 81.3641 90.0793 87.4403 82.6106 87.4403Z" fill="#4CA986"/>
<path d="M17.5499 87.4406C10.0811 87.4406 4.00488 81.3643 4.00488 73.8956C4.00488 66.4268 10.0811 60.3506 17.5499 60.3506C25.0186 60.3506 31.0949 66.4268 31.0949 73.8956C31.0949 81.3643 25.0186 87.4406 17.5499 87.4406Z" fill="#86DBA2"/>
<path d="M96.1603 20.2H50.0803L39.2803 12.1L50.0803 4H96.1603V20.2Z" fill="#4CA986"/>
<path d="M4 4H50.08V20.2H4V4Z" fill="#86DBA2"/>
</g>
</svg>
