<svg width="100" height="66" viewBox="0 0 100 66" fill="none" xmlns="http://www.w3.org/2000/svg">
<g opacity="0.6">
<path d="M50.3005 0L22.02 75H93.601V25L50.3005 0Z" fill="#CDF6D5"/>
<path d="M50.3006 0V75H7V25L50.3006 0Z" fill="#ECFFF0"/>
<path d="M93.6011 75L50.3005 100L26.6957 63.6292H73.9054L93.6011 75Z" fill="#86DBA2"/>
<path d="M50.3006 63.6292V100L7 75L26.6957 63.6292H50.3006Z" fill="#CDF6D5"/>
<path d="M76.0817 35.1143V64.8857L50.3005 79.7693L33.1405 35.1143L76.0817 35.1143Z" fill="#4CA986"/>
<path d="M50.3 35.1143V79.7693L24.5188 64.8857V35.1143L50.3 35.1143Z" fill="#86DBA2"/>
<path d="M76.0814 35.1142L50.3002 49.9999L38.2471 35.1142L50.3002 20.2306L76.0814 35.1142Z" fill="#86DBA2"/>
<path d="M50.3 20.2306V49.9999L24.5188 35.1142L50.3 20.2306Z" fill="#CDF6D5"/>
</g>
</svg>